<svg width="158" height="47" viewBox="0 0 158 47" fill="none" xmlns="http://www.w3.org/2000/svg">
<g id="Badge" clip-path="url(#clip0_37_2782)">
<path id="Vector" d="M151.84 0H5.83998C2.61465 0 0 2.61863 0 5.84888V40.9422C0 44.1724 2.61465 46.7911 5.83998 46.7911H151.84C155.065 46.7911 157.68 44.1724 157.68 40.9422V5.84888C157.68 2.61863 155.065 0 151.84 0Z" fill="black"/>
<path id="Vector_2" d="M151.84 0.935822C153.141 0.935822 154.388 1.45345 155.308 2.37482C156.228 3.2962 156.745 4.54586 156.745 5.84888V40.9422C156.745 42.2452 156.228 43.4949 155.308 44.4162C154.388 45.3376 153.141 45.8553 151.84 45.8553H5.83998C4.53894 45.8553 3.29118 45.3376 2.37121 44.4162C1.45123 43.4949 0.934397 42.2452 0.934397 40.9422V5.84888C0.934397 4.54586 1.45123 3.2962 2.37121 2.37482C3.29118 1.45345 4.53894 0.935822 5.83998 0.935822H151.84ZM151.84 0H5.83998C4.29112 0 2.8057 0.61622 1.71049 1.7131C0.615282 2.80998 0 4.29766 0 5.84888V40.9422C0 42.4934 0.615282 43.9811 1.71049 45.078C2.8057 46.1749 4.29112 46.7911 5.83998 46.7911H151.84C153.388 46.7911 154.874 46.1749 155.969 45.078C157.064 43.9811 157.68 42.4934 157.68 40.9422V5.84888C157.68 4.29766 157.064 2.80998 155.969 1.7131C154.874 0.61622 153.388 0 151.84 0Z" fill="#A6A6A6"/>
<path id="Vector_3" d="M55.3859 11.9785C55.405 12.4074 55.3373 12.8359 55.1868 13.238C55.0362 13.64 54.806 14.0074 54.5099 14.318C54.1781 14.6611 53.7777 14.9302 53.3348 15.1075C52.892 15.2849 52.4168 15.3667 51.9403 15.3474C51.461 15.3581 50.9846 15.2702 50.5406 15.0891C50.0966 14.908 49.6945 14.6376 49.359 14.2946C48.6784 13.5974 48.2974 12.6611 48.2974 11.686C48.2974 10.711 48.6784 9.77464 49.359 9.07741C49.8794 8.56819 50.5384 8.22434 51.2532 8.08905C51.9681 7.95377 52.7069 8.0331 53.3769 8.31706C53.7981 8.49045 54.1738 8.75863 54.4748 9.10081L53.8558 9.72079C53.6239 9.44095 53.33 9.21912 52.9974 9.07291C52.6649 8.92671 52.303 8.86016 51.9403 8.87855C51.4825 8.88172 51.0324 8.99716 50.6294 9.21476C50.2264 9.43237 49.8827 9.74552 49.6285 10.1269C49.3742 10.5082 49.2171 10.9461 49.1708 11.4023C49.1246 11.8585 49.1906 12.3191 49.3631 12.7438C49.5356 13.1685 49.8094 13.5445 50.1605 13.8388C50.5115 14.1331 50.9293 14.3368 51.3771 14.4321C51.8249 14.5274 52.2893 14.5114 52.7295 14.3855C53.1697 14.2595 53.5725 14.0275 53.9025 13.7097C54.2593 13.318 54.4662 12.8124 54.4865 12.2826H51.9403V11.4404H55.3392C55.3658 11.6186 55.3814 11.7983 55.3859 11.9785Z" fill="white" stroke="white" stroke-width="0.263635" stroke-miterlimit="10"/>
<path id="Vector_4" d="M60.736 9.05399H57.5824V11.2766H60.4557V12.1188H57.5824V14.3414H60.736V15.207H56.6714V8.18835H60.736V9.05399Z" fill="white" stroke="white" stroke-width="0.263635" stroke-miterlimit="10"/>
<path id="Vector_5" d="M64.5676 15.207H63.6683V9.05399H61.7061V8.18835H66.5766V9.05399H64.5676V15.207Z" fill="white" stroke="white" stroke-width="0.263635" stroke-miterlimit="10"/>
<path id="Vector_6" d="M70.0103 15.207V8.18835H70.9096V15.207H70.0103Z" fill="white" stroke="white" stroke-width="0.263635" stroke-miterlimit="10"/>
<path id="Vector_7" d="M74.9031 15.207H74.0037V9.05399H72.0415V8.18835H76.8536V9.05399H74.9031V15.207Z" fill="white" stroke="white" stroke-width="0.263635" stroke-miterlimit="10"/>
<path id="Vector_8" d="M85.9762 14.2946C85.6389 14.6328 85.2383 14.901 84.7974 15.084C84.3565 15.267 83.8839 15.3612 83.4066 15.3612C82.9293 15.3612 82.4567 15.267 82.0158 15.084C81.5749 14.901 81.1744 14.6328 80.837 14.2946C80.1767 13.5917 79.8091 12.6629 79.8091 11.6977C79.8091 10.7326 80.1767 9.80381 80.837 9.10083C81.1671 8.75317 81.5664 8.47878 82.009 8.29541C82.4516 8.11204 82.9278 8.02378 83.4066 8.03633C83.8848 8.02875 84.3594 8.11929 84.8013 8.30236C85.2433 8.48543 85.6431 8.75717 85.9762 9.10083C86.312 9.44297 86.576 9.84905 86.7526 10.2951C86.9291 10.7411 87.0146 11.2181 87.004 11.6977C87.0194 12.178 86.936 12.6563 86.7592 13.103C86.5824 13.5497 86.3159 13.9553 85.9762 14.2946ZM81.5028 13.7097C81.7516 13.9623 82.048 14.1628 82.3748 14.2996C82.7017 14.4365 83.0524 14.507 83.4066 14.507C83.7608 14.507 84.1116 14.4365 84.4384 14.2996C84.7652 14.1628 85.0616 13.9623 85.3104 13.7097C85.8144 13.1613 86.0942 12.4431 86.0942 11.6977C86.0942 10.9523 85.8144 10.2342 85.3104 9.68571C85.0616 9.43319 84.7652 9.23267 84.4384 9.09582C84.1116 8.95896 83.7608 8.88849 83.4066 8.88849C83.0524 8.88849 82.7017 8.95896 82.3748 9.09582C82.048 9.23267 81.7516 9.43319 81.5028 9.68571C80.9988 10.2342 80.7191 10.9523 80.7191 11.6977C80.7191 12.4431 80.9988 13.1613 81.5028 13.7097Z" fill="white" stroke="white" stroke-width="0.263635" stroke-miterlimit="10"/>
<path id="Vector_9" d="M88.2764 15.207V8.18835H89.3626L92.7732 13.6512V12.2943V8.18835H93.6725V15.207H92.7381L89.1757 9.48681V10.8321V15.207H88.2764Z" fill="white" stroke="white" stroke-width="0.263635" stroke-miterlimit="10"/>
<path id="Vector_10" d="M79.5866 25.4426C78.6025 25.445 77.6412 25.7395 76.8242 26.289C76.0073 26.8385 75.3714 27.6182 74.9969 28.5297C74.6224 29.4411 74.5263 30.4433 74.7205 31.4095C74.9148 32.3757 75.3907 33.2626 76.0882 33.9578C76.7857 34.6531 77.6734 35.1256 78.639 35.3156C79.6047 35.5057 80.6049 35.4046 81.5132 35.0253C82.4215 34.646 83.1971 34.0055 83.7419 33.1847C84.2867 32.3639 84.5762 31.3998 84.5739 30.4142C84.5835 29.7567 84.4608 29.104 84.2132 28.495C83.9657 27.886 83.5983 27.3331 83.1329 26.8692C82.6676 26.4053 82.1138 26.04 81.5045 25.7949C80.8953 25.5498 80.243 25.43 79.5866 25.4426ZM79.5866 33.4322C78.9834 33.4745 78.3815 33.334 77.8591 33.0291C77.3367 32.7242 76.9179 32.2689 76.6573 31.7225C76.3966 31.1761 76.3061 30.5638 76.3976 29.9652C76.489 29.3666 76.7581 28.8094 77.17 28.366C77.5818 27.9226 78.1173 27.6135 78.7068 27.479C79.2964 27.3444 79.9127 27.3906 80.4757 27.6115C81.0386 27.8324 81.5222 28.2178 81.8636 28.7177C82.205 29.2175 82.3883 29.8086 82.3898 30.4142C82.4086 30.7979 82.3505 31.1815 82.2189 31.5424C82.0874 31.9032 81.885 32.234 81.6237 32.5153C81.3625 32.7966 81.0476 33.0226 80.6978 33.1801C80.3479 33.3376 79.9701 33.4233 79.5866 33.4322ZM68.7009 25.4426C67.7168 25.445 66.7555 25.7395 65.9385 26.289C65.1216 26.8385 64.4856 27.6182 64.1112 28.5297C63.7367 29.4411 63.6405 30.4433 63.8348 31.4095C64.029 32.3757 64.505 33.2626 65.2025 33.9578C65.9 34.6531 66.7877 35.1256 67.7533 35.3156C68.7189 35.5057 69.7191 35.4046 70.6274 35.0253C71.5357 34.646 72.3113 34.0055 72.8561 33.1847C73.401 32.3639 73.6905 31.3998 73.6882 30.4142C73.6977 29.7567 73.5751 29.104 73.3275 28.495C73.0799 27.886 72.7125 27.3331 72.2472 26.8692C71.7819 26.4053 71.2281 26.04 70.6188 25.7949C70.0096 25.5498 69.3573 25.43 68.7009 25.4426ZM68.7009 33.4322C68.0977 33.4745 67.4958 33.334 66.9734 33.0291C66.4509 32.7242 66.0322 32.2689 65.7715 31.7225C65.5109 31.1761 65.4204 30.5638 65.5119 29.9652C65.6033 29.3666 65.8724 28.8094 66.2842 28.366C66.6961 27.9226 67.2316 27.6135 67.8211 27.479C68.4106 27.3444 69.0269 27.3906 69.5899 27.6115C70.1529 27.8324 70.6365 28.2178 70.9779 28.7177C71.3192 29.2175 71.5026 29.8086 71.5041 30.4142C71.5229 30.7979 71.4648 31.1815 71.3332 31.5424C71.2016 31.9032 70.9993 32.234 70.738 32.5153C70.4768 32.7966 70.1619 33.0226 69.812 33.1801C69.4622 33.3376 69.0843 33.4233 68.7009 33.4322ZM55.7595 26.9751V29.0807H60.8052C60.7261 30.0724 60.3145 31.0082 59.6372 31.736C59.1311 32.2525 58.5223 32.6568 57.8503 32.9228C57.1783 33.1888 56.458 33.3105 55.7361 33.2801C54.2492 33.2801 52.8232 32.6886 51.7718 31.6356C50.7204 30.5826 50.1297 29.1544 50.1297 27.6652C50.1297 26.176 50.7204 24.7479 51.7718 23.6949C52.8232 22.6419 54.2492 22.0503 55.7361 22.0503C57.1616 22.0291 58.538 22.5712 59.5671 23.5593L61.0505 22.0737C60.3543 21.3841 59.5278 20.8406 58.6193 20.475C57.7107 20.1095 56.7385 19.9292 55.7595 19.9447C54.7211 19.9042 53.6853 20.0741 52.7141 20.4442C51.7428 20.8142 50.8562 21.3768 50.1072 22.0983C49.3583 22.8197 48.7625 23.6852 48.3555 24.6427C47.9485 25.6003 47.7388 26.6303 47.7388 27.6711C47.7388 28.7118 47.9485 29.7418 48.3555 30.6994C48.7625 31.657 49.3583 32.5224 50.1072 33.2439C50.8562 33.9653 51.7428 34.5279 52.7141 34.898C53.6853 35.268 54.7211 35.4379 55.7595 35.3974C56.7586 35.4374 57.7549 35.2653 58.6828 34.8923C59.6108 34.5193 60.4496 33.954 61.1439 33.2334C62.3705 31.8839 63.024 30.1091 62.966 28.2852C62.9702 27.8462 62.935 27.4077 62.8609 26.9751H55.7595ZM108.681 28.6127C108.377 27.7152 107.807 26.9315 107.048 26.3654C106.289 25.7993 105.376 25.4775 104.43 25.4426C103.791 25.4414 103.159 25.5714 102.572 25.8246C101.985 26.0778 101.456 26.4489 101.019 26.9148C100.581 27.3808 100.243 27.9318 100.026 28.5336C99.8092 29.1355 99.718 29.7756 99.7579 30.4142C99.7479 31.482 100.083 32.5244 100.713 33.3857C101.344 34.247 102.235 34.881 103.255 35.1929C104.275 35.5048 105.368 35.478 106.371 35.1164C107.375 34.7547 108.234 34.0778 108.822 33.1866L107.128 32.0168C106.875 32.4382 106.517 32.7863 106.089 33.0263C105.661 33.2664 105.178 33.3902 104.687 33.3854C104.181 33.4064 103.68 33.2734 103.25 33.0041C102.821 32.7348 102.483 32.3417 102.281 31.8764L108.927 29.1274L108.681 28.6127ZM101.907 30.2738C101.883 29.9105 101.932 29.546 102.051 29.2019C102.17 28.8577 102.356 28.5407 102.598 28.2694C102.841 27.9982 103.135 27.7781 103.464 27.6222C103.792 27.4662 104.148 27.3774 104.512 27.3611C104.888 27.3381 105.263 27.4268 105.589 27.6162C105.915 27.8055 106.178 28.0871 106.345 28.4256L101.907 30.2738ZM96.5109 35.0933H98.695V20.4711H96.5109V35.0933ZM92.9368 26.5539H92.855C92.5287 26.1818 92.1261 25.8846 91.6745 25.6827C91.223 25.4808 90.7332 25.379 90.2387 25.3842C88.9623 25.4461 87.7587 25.9976 86.8772 26.9243C85.9957 27.8509 85.5041 29.0817 85.5041 30.3616C85.5041 31.6414 85.9957 32.8722 86.8772 33.7988C87.7587 34.7255 88.9623 35.277 90.2387 35.339C90.7339 35.3489 91.2252 35.2492 91.6774 35.047C92.1297 34.8448 92.5318 34.545 92.855 34.1692H92.9368V34.8827C92.9368 36.7895 91.9206 37.8072 90.2854 37.8072C89.7392 37.7952 89.2088 37.6208 88.7617 37.3063C88.3146 36.9918 87.9709 36.5514 87.7742 36.0408L85.8821 36.8246C86.2319 37.7045 86.8401 38.4575 87.6264 38.9838C88.4126 39.5101 89.3398 39.7851 90.2854 39.7724C92.8434 39.7724 94.9574 38.2634 94.9574 34.5903V25.7351H92.9368V26.5539ZM90.4256 33.4322C89.6603 33.3844 88.942 33.0463 88.417 32.4866C87.892 31.927 87.5997 31.188 87.5997 30.42C87.5997 29.6521 87.892 28.9131 88.417 28.3534C88.942 27.7938 89.6603 27.4557 90.4256 27.4079C90.7996 27.424 91.1666 27.5154 91.5047 27.6765C91.8427 27.8376 92.145 28.0652 92.3934 28.3456C92.6419 28.6261 92.8315 28.9538 92.9509 29.3092C93.0703 29.6645 93.1172 30.0403 93.0886 30.4142C93.1205 30.7893 93.0761 31.167 92.958 31.5245C92.84 31.8819 92.6507 32.2117 92.4018 32.4938C92.1529 32.7759 91.8494 33.0045 91.5097 33.1658C91.17 33.3271 90.8012 33.4178 90.4256 33.4322ZM118.913 20.4711H113.68V35.0933H115.865V29.5486H118.913C119.536 29.5933 120.161 29.5092 120.749 29.3014C121.338 29.0936 121.877 28.7666 122.334 28.3408C122.791 27.9149 123.155 27.3994 123.404 26.8263C123.654 26.2532 123.782 25.6349 123.782 25.0098C123.782 24.3848 123.654 23.7664 123.404 23.1934C123.155 22.6203 122.791 22.1047 122.334 21.6789C121.877 21.2531 121.338 20.926 120.749 20.7182C120.161 20.5104 119.536 20.4263 118.913 20.4711ZM118.913 27.4898H115.865V22.5065H118.96C119.288 22.5065 119.613 22.5713 119.916 22.6971C120.22 22.8229 120.495 23.0073 120.727 23.2397C120.959 23.4722 121.143 23.7481 121.269 24.0518C121.395 24.3556 121.459 24.6811 121.459 25.0098C121.459 25.3386 121.395 25.6641 121.269 25.9678C121.143 26.2715 120.959 26.5475 120.727 26.7799C120.495 27.0124 120.22 27.1968 119.916 27.3226C119.613 27.4484 119.288 27.5131 118.96 27.5131L118.913 27.4898ZM132.392 25.3959C131.596 25.3467 130.804 25.5322 130.113 25.9293C129.421 26.3264 128.862 26.9177 128.502 27.6301L130.429 28.4373C130.624 28.0856 130.916 27.798 131.271 27.6091C131.625 27.4202 132.027 27.3381 132.427 27.3728C132.704 27.3403 132.985 27.3635 133.253 27.441C133.521 27.5185 133.772 27.6487 133.989 27.824C134.206 27.9993 134.387 28.2162 134.52 28.4621C134.653 28.708 134.735 28.9779 134.763 29.2561V29.3965C134.06 29.0267 133.279 28.834 132.485 28.835C130.406 28.835 128.28 30.0048 128.28 32.1338C128.301 32.5863 128.412 33.0301 128.607 33.4387C128.802 33.8474 129.078 34.2126 129.416 34.5126C129.755 34.8127 130.151 35.0415 130.58 35.1855C131.009 35.3294 131.462 35.3856 131.913 35.3507C132.461 35.381 133.007 35.2649 133.496 35.0141C133.984 34.7633 134.397 34.3869 134.693 33.9235H134.763V35.0933H136.865V29.4667C136.865 26.9049 134.926 25.4192 132.438 25.4192L132.392 25.3959ZM132.123 33.4088C131.411 33.4088 130.418 33.0462 130.418 32.1689C130.418 30.9991 131.656 30.6014 132.754 30.6014C133.448 30.5842 134.133 30.7539 134.739 31.0927C134.666 31.7279 134.365 32.3151 133.893 32.7452C133.42 33.1754 132.808 33.4195 132.17 33.4322L132.123 33.4088ZM144.527 25.7351L142.028 32.0753H141.958L139.365 25.7351H137.029L140.918 34.602L138.699 39.5268H140.976L146.957 25.7351H144.527ZM124.905 35.0933H127.077V20.4711H124.905V35.0933Z" fill="white"/>
<path id="Vector_11" d="M12.1936 8.82017C11.8087 9.27594 11.6124 9.86181 11.6447 10.4579V36.3333C11.6049 36.9304 11.8022 37.5189 12.1936 37.971L12.2754 38.0646L26.7469 23.5711V23.2201L12.2754 8.73828L12.1936 8.82017Z" fill="url(#paint0_linear_37_2782)"/>
<path id="Vector_12" d="M31.5359 28.4021L26.7471 23.5709V23.22L31.5359 18.3888L31.641 18.459L37.3758 21.711C39.011 22.6351 39.011 24.1558 37.3758 25.0916L31.6643 28.3436L31.5359 28.4021Z" fill="url(#paint1_linear_37_2782)"/>
<path id="Vector_13" d="M31.6765 28.332L26.7476 23.3955L12.1943 37.9709C12.5244 38.2652 12.9468 38.4344 13.3884 38.4494C13.83 38.4643 14.2629 38.324 14.6121 38.0528L31.6765 28.332Z" fill="url(#paint2_linear_37_2782)"/>
<path id="Vector_14" d="M31.6765 18.459L14.6121 8.74981C14.2652 8.47481 13.8327 8.33109 13.3904 8.34393C12.9482 8.35677 12.5247 8.52534 12.1943 8.81999L26.7476 23.3954L31.6765 18.459Z" fill="url(#paint3_linear_37_2782)"/>
<path id="Vector_15" opacity="0.2" d="M31.5364 28.2267L14.6121 37.8773C14.2756 38.1317 13.8656 38.2692 13.4441 38.2692C13.0226 38.2692 12.6125 38.1317 12.2761 37.8773L12.1943 37.9592L12.2761 38.0528C12.6125 38.3071 13.0226 38.4447 13.4441 38.4447C13.8656 38.4447 14.2756 38.3071 14.6121 38.0528L31.6765 28.332L31.5364 28.2267Z" fill="black"/>
<path id="Vector_16" opacity="0.12" d="M12.1935 37.8072C11.8183 37.3432 11.6344 36.7532 11.6796 36.1578V36.3333C11.6398 36.9303 11.8371 37.5189 12.2285 37.971L12.3103 37.8891L12.1935 37.8072Z" fill="black"/>
<path id="Vector_17" opacity="0.12" d="M37.3756 24.9162L31.5356 28.2267L31.6408 28.332L37.3756 25.08C37.7141 24.9366 38.0078 24.7045 38.2257 24.4081C38.4436 24.1116 38.5776 23.7618 38.6137 23.3955C38.5407 23.7284 38.3906 24.0394 38.1755 24.3036C37.9605 24.5677 37.6865 24.7776 37.3756 24.9162Z" fill="black"/>
<path id="Vector_18" opacity="0.25" d="M14.6112 8.91381L37.3755 21.8749C37.6864 22.0136 37.9604 22.2234 38.1754 22.4876C38.3905 22.7517 38.5405 23.0628 38.6136 23.3956C38.5775 23.0293 38.4434 22.6795 38.2256 22.3831C38.0077 22.0866 37.714 21.8545 37.3755 21.7112L14.6112 8.75004C12.9877 7.81422 11.6445 8.58627 11.6445 10.4579V10.6334C11.6796 8.76174 12.9877 7.98968 14.6112 8.91381Z" fill="white"/>
</g>
<defs>
<linearGradient id="paint0_linear_37_2782" x1="25.4621" y1="10.1888" x2="5.83323" y2="29.7878" gradientUnits="userSpaceOnUse">
<stop stop-color="#00A0FF"/>
<stop offset="0.01" stop-color="#00A1FF"/>
<stop offset="0.26" stop-color="#00BEFF"/>
<stop offset="0.51" stop-color="#00D2FF"/>
<stop offset="0.76" stop-color="#00DFFF"/>
<stop offset="1" stop-color="#00E3FF"/>
</linearGradient>
<linearGradient id="paint1_linear_37_2782" x1="39.5133" y1="23.3954" x2="11.2594" y2="23.3954" gradientUnits="userSpaceOnUse">
<stop stop-color="#FFE000"/>
<stop offset="0.41" stop-color="#FFBD00"/>
<stop offset="0.78" stop-color="#FFA500"/>
<stop offset="1" stop-color="#FF9C00"/>
</linearGradient>
<linearGradient id="paint2_linear_37_2782" x1="29.0018" y1="26.086" x2="2.37773" y2="52.6579" gradientUnits="userSpaceOnUse">
<stop stop-color="#FF3A44"/>
<stop offset="1" stop-color="#C31162"/>
</linearGradient>
<linearGradient id="paint3_linear_37_2782" x1="8.52683" y1="0.210435" x2="20.4117" y2="12.0773" gradientUnits="userSpaceOnUse">
<stop stop-color="#32A071"/>
<stop offset="0.07" stop-color="#2DA771"/>
<stop offset="0.48" stop-color="#15CF74"/>
<stop offset="0.8" stop-color="#06E775"/>
<stop offset="1" stop-color="#00F076"/>
</linearGradient>
<clipPath id="clip0_37_2782">
<rect width="157.68" height="46.7911" fill="white"/>
</clipPath>
</defs>
</svg>
