<svg width="140" height="47" viewBox="0 0 140 47" fill="none" xmlns="http://www.w3.org/2000/svg">
<g id="Group">
<g id="Group_2">
<g id="Group_3">
<path id="Vector" d="M128.872 3.00007e-05H11.4013C10.9731 3.00007e-05 10.55 3.00007e-05 10.1229 0.00236955C9.76545 0.00470911 9.41081 0.0115055 9.04988 0.0172257C8.26578 0.0264691 7.48353 0.095573 6.70992 0.223937C5.93739 0.355095 5.18907 0.602366 4.49025 0.957387C3.79229 1.31541 3.15455 1.78063 2.60015 2.33616C2.04284 2.89012 1.57828 3.53044 1.22434 4.23247C0.869413 4.93311 0.623308 5.6839 0.494521 6.45893C0.36451 7.23298 0.29455 8.01595 0.285269 8.80082C0.274433 9.15948 0.273288 9.51932 0.267578 9.87802V36.9165C0.273288 37.2798 0.274433 37.6316 0.285269 37.995C0.294553 38.7798 0.364513 39.5627 0.494521 40.3367C0.622953 41.1122 0.869072 41.8634 1.22434 42.5643C1.57812 43.2641 2.04275 43.9018 2.60015 44.4527C3.15244 45.0107 3.7906 45.4762 4.49025 45.8315C5.18906 46.1875 5.93731 46.4362 6.70992 46.5694C7.48366 46.6968 8.26584 46.7659 9.04988 46.7762C9.41081 46.7842 9.76545 46.7888 10.1229 46.7888C10.55 46.7911 10.9731 46.7911 11.4013 46.7911H128.872C129.292 46.7911 129.719 46.7911 130.138 46.7888C130.494 46.7888 130.859 46.7842 131.215 46.7762C131.997 46.7664 132.778 46.6973 133.55 46.5694C134.325 46.4353 135.076 46.1866 135.778 45.8315C136.477 45.476 137.115 45.0105 137.667 44.4527C138.223 43.8997 138.688 43.2624 139.047 42.5643C139.399 41.8629 139.643 41.1118 139.769 40.3367C139.9 39.5626 139.972 38.7799 139.986 37.995C139.991 37.6316 139.991 37.2798 139.991 36.9165C140 36.4916 140 36.0689 140 35.637V11.1552C140 10.7268 140 10.3018 139.991 9.87802C139.991 9.51932 139.991 9.15948 139.986 8.80078C139.972 8.01583 139.9 7.23304 139.769 6.45888C139.643 5.68431 139.399 4.93357 139.047 4.23242C138.326 2.82527 137.183 1.67986 135.778 0.957282C135.076 0.603129 134.325 0.355923 133.55 0.223832C132.778 0.0949022 131.997 0.0257742 131.215 0.017062C130.859 0.0113534 130.494 0.00449855 130.138 0.00221748C129.719 -0.00012207 129.292 -0.00012207 128.872 -0.00012207V3.00007e-05Z" fill="#A6A6A6"/>
<path id="Vector_2" d="M10.1288 45.7675C9.77298 45.7675 9.4258 45.763 9.07281 45.755C8.34158 45.7455 7.61205 45.6817 6.89021 45.5642C6.21713 45.4481 5.5651 45.2321 4.95563 44.9233C4.35174 44.6171 3.80095 44.2156 3.32434 43.7341C2.84085 43.2583 2.43831 42.7065 2.13269 42.1005C1.8237 41.4906 1.60987 40.8368 1.49863 40.162C1.3785 39.4368 1.3135 38.7036 1.3042 37.9686C1.2968 37.7219 1.28711 36.9005 1.28711 36.9005V9.878C1.28711 9.878 1.29743 9.0692 1.30426 8.83159C1.31317 8.09776 1.37778 7.36568 1.49755 6.64168C1.609 5.96499 1.823 5.30933 2.13215 4.6974C2.43665 4.09182 2.83695 3.53959 3.31754 3.06211C3.79758 2.58009 4.35014 2.1765 4.95506 1.86604C5.56313 1.55826 6.21393 1.34377 6.88564 1.22976C7.60985 1.1111 8.34191 1.04695 9.07569 1.03784L10.1293 1.02356H130.133L131.199 1.03842C131.926 1.04707 132.651 1.11065 133.369 1.22861C134.047 1.34405 134.705 1.56004 135.32 1.86947C136.532 2.49512 137.518 3.48496 138.14 4.70025C138.444 5.30796 138.655 5.95827 138.765 6.62912C138.886 7.35906 138.954 8.09689 138.968 8.83673C138.971 9.16801 138.971 9.52386 138.971 9.878C138.981 10.3167 138.981 10.7342 138.981 11.1551V35.637C138.981 36.062 138.981 36.4767 138.971 36.8948C138.971 37.2752 138.971 37.6237 138.967 37.9823C138.953 38.7089 138.886 39.4336 138.767 40.1505C138.658 40.8302 138.446 41.4891 138.137 42.104C137.829 42.7034 137.429 43.2505 136.951 43.725C136.474 44.209 135.922 44.6129 135.317 44.9211C134.703 45.2322 134.047 45.449 133.369 45.5642C132.647 45.6823 131.918 45.7461 131.186 45.755C130.844 45.763 130.486 45.7675 130.138 45.7675L128.873 45.7699L10.1288 45.7675Z" fill="black"/>
</g>
<g id="&#60;Group&#62;">
<g id="&#60;Group&#62;_2">
<g id="&#60;Group&#62;_3">
<path id="&#60;Path&#62;" d="M29.19 23.7472C29.2026 22.7708 29.4615 21.8135 29.9426 20.9643C30.4237 20.1151 31.1114 19.4016 31.9418 18.8902C31.4143 18.1355 30.7184 17.5144 29.9094 17.0763C29.1004 16.6381 28.2005 16.395 27.2813 16.3662C25.3204 16.16 23.4195 17.5416 22.4203 17.5416C21.4017 17.5416 19.8632 16.3867 18.2066 16.4208C17.135 16.4555 16.0907 16.7677 15.1754 17.3269C14.26 17.8861 13.5049 18.6733 12.9835 19.6118C10.7252 23.5287 12.4097 29.2852 14.573 32.4514C15.6554 34.0017 16.9203 35.7335 18.5755 35.6721C20.1952 35.6048 20.8001 34.6375 22.7552 34.6375C24.6921 34.6375 25.2596 35.6721 26.9484 35.6331C28.6864 35.6048 29.7814 34.0758 30.8258 32.5108C31.6034 31.4061 32.2018 30.1852 32.5988 28.8932C31.5891 28.4654 30.7274 27.7493 30.1213 26.8342C29.5151 25.9191 29.1912 24.8454 29.19 23.7472Z" fill="white"/>
<path id="&#60;Path&#62;_2" d="M26.0005 14.2839C26.9481 13.1443 27.415 11.6796 27.3019 10.2007C25.8542 10.353 24.5168 11.0462 23.5564 12.1421C23.0868 12.6774 22.7272 13.3003 22.498 13.9749C22.2689 14.6496 22.1747 15.363 22.2209 16.0741C22.945 16.0816 23.6614 15.9244 24.3161 15.6143C24.9708 15.3042 25.5467 14.8493 26.0005 14.2839Z" fill="white"/>
</g>
</g>
<g id="Group_4">
<path id="Vector_3" d="M49.6639 31.7473H44.1367L42.8094 35.6736H40.4683L45.7035 21.1473H48.1359L53.3712 35.6736H50.9901L49.6639 31.7473ZM44.7092 29.9355H49.0904L46.9306 23.5635H46.8702L44.7092 29.9355Z" fill="white"/>
<path id="Vector_4" d="M64.6769 30.3788C64.6769 33.67 62.9185 35.7845 60.2649 35.7845C59.5927 35.8197 58.9242 35.6646 58.3359 35.3369C57.7476 35.0092 57.2634 34.5222 56.9385 33.9316H56.8883V39.1773H54.7183V25.0829H56.8188V26.8444H56.8587C57.1985 26.2566 57.6909 25.7721 58.2837 25.4424C58.8764 25.1127 59.5473 24.9502 60.225 24.972C62.9081 24.9721 64.6769 27.0968 64.6769 30.3788ZM62.4463 30.3788C62.4463 28.2346 61.3402 26.825 59.6525 26.825C57.9945 26.825 56.8792 28.2643 56.8792 30.3788C56.8792 32.5128 57.9945 33.9419 59.6525 33.9419C61.3402 33.9419 62.4463 32.5425 62.4463 30.3788Z" fill="white"/>
<path id="Vector_5" d="M76.3141 30.3788C76.3141 33.67 74.5557 35.7845 71.9021 35.7845C71.2299 35.8197 70.5614 35.6646 69.9731 35.3369C69.3848 35.0092 68.9006 34.5222 68.5757 33.9316H68.5255V39.1773H66.3555V25.0828H68.456V26.8444H68.4959C68.8356 26.2566 69.3281 25.7721 69.9208 25.4424C70.5136 25.1127 71.1845 24.9502 71.8622 24.972C74.5454 24.972 76.3141 27.0968 76.3141 30.3788ZM74.0836 30.3788C74.0836 28.2346 72.9774 26.8249 71.2897 26.8249C69.6317 26.8249 68.5164 28.2643 68.5164 30.3788C68.5164 32.5128 69.6317 33.9419 71.2897 33.9419C72.9774 33.9419 74.0836 32.5425 74.0836 30.3788H74.0836Z" fill="white"/>
<path id="Vector_6" d="M84.0036 31.6263C84.1644 33.0668 85.5614 34.0126 87.4703 34.0126C89.2994 34.0126 90.6153 33.0667 90.6153 31.7679C90.6153 30.6404 89.8216 29.9652 87.9424 29.5026L86.0631 29.049C83.4004 28.4048 82.1643 27.1573 82.1643 25.133C82.1643 22.6267 84.3446 20.9052 87.4406 20.9052C90.5047 20.9052 92.6052 22.6267 92.6759 25.133H90.4853C90.3542 23.6834 89.1579 22.8083 87.4098 22.8083C85.6617 22.8083 84.4654 23.6937 84.4654 24.9822C84.4654 26.0092 85.2295 26.6135 87.0985 27.0761L88.6961 27.4691C91.6712 28.174 92.9074 29.3712 92.9074 31.4959C92.9074 34.2136 90.7464 35.9157 87.3094 35.9157C84.0937 35.9157 81.9225 34.2536 81.7822 31.6262L84.0036 31.6263Z" fill="white"/>
<path id="Vector_7" d="M97.591 22.5765V25.0829H99.6014V26.8044H97.591V32.643C97.591 33.55 97.9936 33.9727 98.8773 33.9727C99.116 33.9686 99.3543 33.9518 99.5912 33.9224V35.6337C99.1938 35.7081 98.79 35.7417 98.3858 35.7342C96.2454 35.7342 95.4107 34.9288 95.4107 32.8749V26.8044H93.8735V25.0829H95.4107V22.5765H97.591Z" fill="white"/>
<path id="Vector_8" d="M100.766 30.3787C100.766 27.0465 102.725 24.9525 105.78 24.9525C108.845 24.9525 110.795 27.0464 110.795 30.3787C110.795 33.7201 108.855 35.8049 105.78 35.8049C102.705 35.8049 100.766 33.7201 100.766 30.3787ZM108.584 30.3787C108.584 28.0929 107.538 26.7437 105.78 26.7437C104.021 26.7437 102.977 28.1031 102.977 30.3787C102.977 32.6737 104.021 34.0126 105.78 34.0126C107.538 34.0126 108.584 32.6737 108.584 30.3787H108.584Z" fill="white"/>
<path id="Vector_9" d="M112.584 25.0829H114.654V26.8855H114.704C114.844 26.3225 115.174 25.825 115.637 25.4765C116.1 25.128 116.669 24.9499 117.247 24.9721C117.497 24.9712 117.747 24.9984 117.991 25.0532V27.0866C117.675 26.9899 117.346 26.9456 117.016 26.9552C116.701 26.9424 116.386 26.9981 116.095 27.1184C115.803 27.2388 115.541 27.421 115.326 27.6524C115.111 27.8839 114.949 28.1592 114.85 28.4595C114.751 28.7597 114.719 29.0778 114.755 29.3918V35.6737H112.584L112.584 25.0829Z" fill="white"/>
<path id="Vector_10" d="M127.996 32.5629C127.704 34.4855 125.835 35.8049 123.444 35.8049C120.368 35.8049 118.459 33.7407 118.459 30.429C118.459 27.107 120.379 24.9525 123.353 24.9525C126.278 24.9525 128.117 26.9653 128.117 30.1765V30.9213H120.65V31.0527C120.616 31.4425 120.664 31.8351 120.793 32.2046C120.922 32.5741 121.127 32.9119 121.396 33.1956C121.665 33.4793 121.991 33.7025 122.353 33.8502C122.715 33.998 123.104 34.0669 123.494 34.0525C124.007 34.1007 124.521 33.9817 124.961 33.7133C125.401 33.4449 125.743 33.0414 125.936 32.5629L127.996 32.5629ZM120.66 29.402H125.946C125.965 29.0515 125.912 28.7008 125.79 28.3719C125.668 28.0429 125.479 27.7428 125.235 27.4904C124.992 27.238 124.699 27.0388 124.375 26.9052C124.051 26.7716 123.703 26.7065 123.353 26.714C122.999 26.7119 122.649 26.7799 122.322 26.9142C121.995 27.0484 121.698 27.2462 121.447 27.4961C121.197 27.746 120.999 28.0431 120.864 28.3702C120.728 28.6973 120.659 29.048 120.66 29.402V29.402Z" fill="white"/>
</g>
</g>
</g>
<g id="&#60;Group&#62;_4">
<g id="Group_5">
<path id="Vector_11" d="M44.4366 10.2134C44.8916 10.1807 45.3481 10.2495 45.7733 10.415C46.1985 10.5804 46.5817 10.8383 46.8953 11.1701C47.209 11.5019 47.4452 11.8992 47.5869 12.3335C47.7287 12.7679 47.7725 13.2283 47.7151 13.6816C47.7151 15.9115 46.5121 17.1932 44.4366 17.1932H41.9199V10.2134H44.4366ZM43.0021 16.2061H44.3158C44.6409 16.2256 44.9662 16.1722 45.2681 16.0498C45.57 15.9274 45.8409 15.7392 46.061 15.4987C46.2811 15.2582 46.4449 14.9716 46.5405 14.6598C46.636 14.3479 46.661 14.0186 46.6135 13.6958C46.6576 13.3743 46.6301 13.047 46.533 12.7374C46.436 12.4278 46.2717 12.1436 46.0521 11.905C45.8325 11.6665 45.563 11.4795 45.2628 11.3576C44.9626 11.2357 44.6392 11.1818 44.3158 11.1997H43.0021V16.2061Z" fill="white"/>
<path id="Vector_12" d="M48.937 14.557C48.904 14.2109 48.9435 13.8616 49.0531 13.5316C49.1627 13.2017 49.3399 12.8983 49.5733 12.641C49.8068 12.3837 50.0914 12.178 50.4088 12.0373C50.7263 11.8967 51.0696 11.824 51.4167 11.824C51.7638 11.824 52.1071 11.8967 52.4245 12.0373C52.742 12.178 53.0266 12.3837 53.26 12.641C53.4935 12.8983 53.6707 13.2017 53.7803 13.5316C53.8899 13.8616 53.9294 14.2109 53.8964 14.557C53.93 14.9035 53.891 15.2533 53.7817 15.5838C53.6724 15.9143 53.4953 16.2182 53.2618 16.476C53.0282 16.7339 52.7434 16.9399 52.4257 17.0809C52.1079 17.2219 51.7642 17.2947 51.4167 17.2947C51.0692 17.2947 50.7255 17.2219 50.4077 17.0809C50.0899 16.9399 49.8051 16.7339 49.5716 16.476C49.3381 16.2182 49.161 15.9143 49.0517 15.5838C48.9424 15.2533 48.9033 14.9035 48.937 14.557ZM52.829 14.557C52.829 13.4152 52.317 12.7475 51.4184 12.7475C50.5164 12.7475 50.009 13.4152 50.009 14.557C50.009 15.708 50.5164 16.3705 51.4184 16.3705C52.317 16.3705 52.829 15.7034 52.829 14.557H52.829Z" fill="white"/>
<path id="Vector_13" d="M60.4891 17.1931H59.4126L58.3259 13.3136H58.2438L57.1616 17.1931H56.0954L54.646 11.9257H55.6985L56.6404 15.945H56.718L57.799 11.9257H58.7945L59.8756 15.945H59.9577L60.895 11.9257H61.9327L60.4891 17.1931Z" fill="white"/>
<path id="Vector_14" d="M63.1524 11.9257H64.1513V12.7625H64.2288C64.3604 12.4619 64.5822 12.21 64.8635 12.0418C65.1448 11.8736 65.4714 11.7974 65.7979 11.824C66.0538 11.8048 66.3107 11.8434 66.5496 11.9371C66.7885 12.0308 67.0033 12.1771 67.1781 12.3653C67.3529 12.5534 67.4832 12.7786 67.5593 13.024C67.6354 13.2695 67.6555 13.5289 67.6179 13.7832V17.1931H66.5802V14.0442C66.5802 13.1977 66.213 12.7768 65.4456 12.7768C65.2719 12.7687 65.0985 12.7983 64.9372 12.8636C64.776 12.9289 64.6308 13.0284 64.5116 13.1551C64.3923 13.2819 64.3019 13.433 64.2464 13.5981C64.1909 13.7632 64.1716 13.9384 64.19 14.1116V17.1931H63.1523L63.1524 11.9257Z" fill="white"/>
<path id="Vector_15" d="M69.271 9.86938H70.3087V17.1931H69.271V9.86938Z" fill="white"/>
<path id="Vector_16" d="M71.7519 14.5571C71.7189 14.2109 71.7585 13.8617 71.8681 13.5317C71.9777 13.2017 72.1549 12.8983 72.3884 12.641C72.6219 12.3837 72.9065 12.178 73.224 12.0374C73.5414 11.8967 73.8847 11.824 74.2319 11.824C74.579 11.824 74.9223 11.8967 75.2398 12.0374C75.5573 12.178 75.8419 12.3837 76.0754 12.641C76.3089 12.8983 76.4861 13.2017 76.5957 13.5317C76.7053 13.8617 76.7449 14.2109 76.7118 14.5571C76.7455 14.9036 76.7064 15.2534 76.597 15.5839C76.4877 15.9144 76.3106 16.2183 76.077 16.4761C75.8435 16.7339 75.5587 16.94 75.2409 17.081C74.9231 17.222 74.5794 17.2948 74.2319 17.2948C73.8843 17.2948 73.5406 17.222 73.2229 17.081C72.9051 16.94 72.6203 16.7339 72.3867 16.4761C72.1532 16.2183 71.976 15.9144 71.8667 15.5839C71.7574 15.2534 71.7183 14.9036 71.7519 14.5571ZM75.6439 14.5571C75.6439 13.4153 75.1319 12.7476 74.2333 12.7476C73.3313 12.7476 72.8239 13.4153 72.8239 14.5571C72.8239 15.7081 73.3313 16.3706 74.2333 16.3706C75.1319 16.3706 75.6439 15.7035 75.6439 14.5571H75.6439Z" fill="white"/>
<path id="Vector_17" d="M77.8032 15.7034C77.8032 14.7553 78.508 14.2086 79.7589 14.131L81.1832 14.0487V13.5941C81.1832 13.0377 80.816 12.7236 80.1067 12.7236C79.5274 12.7236 79.126 12.9366 79.0108 13.309H78.0062C78.1123 12.4043 78.9618 11.824 80.1546 11.824C81.4728 11.824 82.2163 12.4814 82.2163 13.5941V17.1931H81.2174V16.4528H81.1353C80.9686 16.7183 80.7346 16.9348 80.4572 17.0801C80.1797 17.2254 79.8687 17.2943 79.5559 17.2798C79.3352 17.3029 79.1121 17.2793 78.901 17.2106C78.6899 17.1419 78.4956 17.0297 78.3304 16.8812C78.1653 16.7327 78.0331 16.5511 77.9423 16.3483C77.8515 16.1454 77.8041 15.9257 77.8032 15.7034ZM81.1832 15.2533V14.813L79.8992 14.8952C79.175 14.9437 78.8466 15.1905 78.8466 15.6549C78.8466 16.1289 79.2571 16.4048 79.8217 16.4048C79.9871 16.4216 80.1541 16.4049 80.3129 16.3556C80.4718 16.3064 80.6191 16.2257 80.7461 16.1182C80.8731 16.0108 80.9773 15.8789 81.0524 15.7303C81.1275 15.5817 81.1719 15.4195 81.1832 15.2533Z" fill="white"/>
<path id="Vector_18" d="M83.5806 14.5571C83.5806 12.8927 84.4347 11.8383 85.7632 11.8383C86.0918 11.8231 86.4179 11.9019 86.7034 12.0656C86.989 12.2292 87.2221 12.4709 87.3756 12.7624H87.4532V9.86938H88.4909V17.1931H87.4965V16.3608H87.4144C87.249 16.6503 87.0078 16.889 86.7167 17.051C86.4257 17.213 86.0959 17.2921 85.7632 17.2799C84.4256 17.2799 83.5806 16.2255 83.5806 14.5571ZM84.6525 14.5571C84.6525 15.6743 85.1782 16.3466 86.0574 16.3466C86.932 16.3466 87.4726 15.6646 87.4726 14.5617C87.4726 13.4638 86.9264 12.7721 86.0574 12.7721C85.1839 12.7721 84.6525 13.449 84.6525 14.5571H84.6525Z" fill="white"/>
<path id="Vector_19" d="M92.7847 14.557C92.7516 14.2109 92.7911 13.8616 92.9007 13.5316C93.0103 13.2017 93.1875 12.8983 93.421 12.641C93.6545 12.3837 93.939 12.178 94.2565 12.0373C94.5739 11.8967 94.9172 11.824 95.2643 11.824C95.6115 11.824 95.9548 11.8967 96.2722 12.0373C96.5896 12.178 96.8742 12.3837 97.1077 12.641C97.3412 12.8983 97.5184 13.2017 97.6279 13.5316C97.7375 13.8616 97.7771 14.2109 97.744 14.557C97.7777 14.9035 97.7386 15.2533 97.6293 15.5838C97.5201 15.9143 97.3429 16.2182 97.1094 16.476C96.8759 16.7339 96.5911 16.9399 96.2733 17.0809C95.9556 17.2219 95.6119 17.2947 95.2643 17.2947C94.9168 17.2947 94.5731 17.2219 94.2553 17.0809C93.9376 16.9399 93.6528 16.7339 93.4193 16.476C93.1857 16.2182 93.0086 15.9143 92.8993 15.5838C92.79 15.2533 92.751 14.9035 92.7847 14.557ZM96.6766 14.557C96.6766 13.4152 96.1646 12.7475 95.2661 12.7475C94.364 12.7475 93.8566 13.4152 93.8566 14.557C93.8566 15.708 94.3641 16.3705 95.2661 16.3705C96.1646 16.3705 96.6766 15.7034 96.6766 14.557Z" fill="white"/>
<path id="Vector_20" d="M99.1357 11.9257H100.135V12.7625H100.212C100.344 12.4619 100.566 12.21 100.847 12.0418C101.128 11.8736 101.455 11.7974 101.781 11.824C102.037 11.8048 102.294 11.8434 102.533 11.9371C102.772 12.0308 102.987 12.1771 103.161 12.3653C103.336 12.5534 103.467 12.7786 103.543 13.024C103.619 13.2695 103.639 13.5289 103.601 13.7832V17.1931H102.564V14.0442C102.564 13.1977 102.196 12.7768 101.429 12.7768C101.255 12.7687 101.082 12.7983 100.921 12.8636C100.759 12.9289 100.614 13.0284 100.495 13.1551C100.376 13.2819 100.285 13.433 100.23 13.5981C100.174 13.7632 100.155 13.9384 100.173 14.1116V17.1931H99.1357V11.9257Z" fill="white"/>
<path id="Vector_21" d="M109.466 10.6143V11.9497H110.605V12.8253H109.466V15.5338C109.466 16.0856 109.693 16.3272 110.209 16.3272C110.342 16.3268 110.474 16.3188 110.605 16.3032V17.1691C110.419 17.2025 110.23 17.2203 110.041 17.2222C108.887 17.2222 108.427 16.8155 108.427 15.8V12.8253H107.592V11.9496H108.427V10.6143H109.466Z" fill="white"/>
<path id="Vector_22" d="M112.021 9.86938H113.05V12.7721H113.132C113.27 12.4688 113.498 12.2154 113.785 12.0466C114.072 11.8777 114.404 11.8016 114.735 11.8285C114.99 11.8147 115.244 11.8572 115.481 11.9532C115.717 12.0492 115.929 12.1962 116.102 12.3837C116.275 12.5713 116.404 12.7948 116.481 13.0383C116.558 13.2817 116.58 13.5392 116.546 13.7923V17.1931H115.508V14.0487C115.508 13.2074 115.116 12.7813 114.383 12.7813C114.205 12.7666 114.025 12.7912 113.858 12.8532C113.69 12.9153 113.537 13.0133 113.411 13.1405C113.285 13.2677 113.188 13.421 113.127 13.5896C113.067 13.7582 113.043 13.9381 113.059 14.1167V17.193H112.022L112.021 9.86938Z" fill="white"/>
<path id="Vector_23" d="M122.597 15.7709C122.456 16.2523 122.15 16.6687 121.734 16.9473C121.317 17.2259 120.816 17.3489 120.319 17.2948C119.972 17.304 119.628 17.2375 119.31 17.1C118.991 16.9625 118.707 16.7573 118.476 16.4987C118.245 16.24 118.073 15.934 117.971 15.602C117.87 15.27 117.842 14.9199 117.89 14.576C117.843 14.2311 117.872 13.8802 117.973 13.5472C118.074 13.2142 118.245 12.9068 118.475 12.6459C118.705 12.3849 118.988 12.1765 119.305 12.0347C119.623 11.8929 119.967 11.8211 120.314 11.8241C121.777 11.8241 122.66 12.8254 122.66 14.4795V14.8422H118.947V14.9004C118.93 15.0937 118.955 15.2883 119.018 15.4717C119.081 15.655 119.182 15.8232 119.314 15.9652C119.446 16.1073 119.606 16.2202 119.784 16.2967C119.961 16.3732 120.153 16.4116 120.347 16.4095C120.595 16.4393 120.847 16.3945 121.069 16.2808C121.292 16.1671 121.476 15.9896 121.598 15.7709L122.597 15.7709ZM118.947 14.0734H121.603C121.616 13.8966 121.592 13.719 121.532 13.5521C121.473 13.3851 121.379 13.2325 121.257 13.104C121.135 12.9755 120.988 12.8739 120.824 12.8059C120.661 12.7378 120.485 12.7048 120.308 12.7088C120.129 12.7066 119.951 12.7403 119.784 12.8081C119.618 12.8759 119.467 12.9763 119.34 13.1035C119.213 13.2307 119.113 13.382 119.046 13.5486C118.978 13.7151 118.944 13.8936 118.947 14.0734H118.947Z" fill="white"/>
</g>
</g>
</g>
</svg>
