<svg width="1527" height="938" viewBox="0 0 1527 938" fill="none" xmlns="http://www.w3.org/2000/svg">
<g clip-path="url(#clip0_296_2311)">
<path d="M202.35 844.73L183.45 911.63C183.45 911.63 291.03 942 291.85 942.23C292.67 942.46 312.94 867.58 312.94 867.58" fill="#E27769"/>
<path d="M299.58 930.14L184.89 897.77L166.74 962.06L355.07 1015.22C355.07 1015.22 356.54 994.47 344.51 979.36C329.88 960.96 305.15 947.48 299.58 930.14Z" fill="#F8E3D0"/>
<path d="M177.71 923.22C177.71 923.22 196.61 928.56 202.35 930.17C208.09 931.79 230.29 944.43 226.91 966.06" stroke="black" stroke-width="1.5" stroke-miterlimit="10"/>
<path d="M318.359 402.15C318.359 402.15 322.479 423.43 323.929 436.19C325.369 448.95 348.129 608.63 349.879 659.17C351.629 709.71 309.819 925.72 309.819 925.72L203.649 907.52L223.749 665.4L200.699 474.7C200.699 474.7 190.979 447.49 203.649 392.65" fill="#4F302B"/>
<path d="M126.3 910.33L126.28 979.85C126.28 979.85 238.06 979.85 238.92 979.85C239.78 979.85 238.94 902.28 238.94 902.28" fill="#E27769"/>
<path d="M122.16 368.18C122.16 368.18 106.46 431.8 112.41 508.1C116.47 560.15 125.07 659.16 125.07 659.16L121.91 950.14H254.89C255.44 947.18 259.04 796.12 255.57 662.17C252.64 549.42 242.57 449.9 242.57 449.9C242.57 449.9 249.42 380.81 249.37 376.32" fill="#4F302B"/>
<path d="M141.52 368.18C141.52 368.18 125.82 431.8 131.77 508.1C135.83 560.15 144.43 659.16 144.43 659.16L141.27 950.14" stroke="#7F4F4A" stroke-width="1.5" stroke-miterlimit="10"/>
<path d="M254.87 950.14C255.42 947.18 259.02 796.12 255.55 662.17C252.62 549.42 242.55 449.9 242.55 449.9C242.55 449.9 249.4 380.81 249.35 376.32" stroke="black" stroke-width="1.5" stroke-miterlimit="10"/>
<path d="M130.93 450.5C154.08 443.7 174.83 429.89 182.64 415.48C190.9 400.24 199.79 368.18 199.79 368.18" stroke="#7F4F4A" stroke-width="1.5" stroke-miterlimit="10"/>
<path d="M243.3 442.23C247.72 442.49 252.28 441.39 255.21 438.18C258.14 434.97 261.48 422 264.33 414.42C267.67 405.53 271.02 396.64 274.36 387.76" stroke="black" stroke-width="1.5" stroke-miterlimit="10"/>
<path d="M284.61 157.97C300.08 159.77 309.1 159.05 328.05 163.93C362.88 172.92 392.85 233.77 392.85 233.77L342.57 301.78L305.51 237.92" fill="#915A56"/>
<path d="M319.29 198.26L321.54 422.77L106.46 405.78C106.46 405.78 115.39 275.6 142.45 221.33C169.51 167.06 206.99 150.93 206.99 150.93L296.71 165.83L319.29 198.26Z" fill="#915A56"/>
<path d="M276.72 116.19L276.13 156.57L284.6 162.9C284.6 162.9 285.07 185.33 254.12 185.33C223.17 185.33 201.37 156.52 201.37 156.52L210.11 150.86L216.12 116.78L210.36 93.04" fill="#D16159"/>
<path d="M268.541 252.13H252.351L249.351 187.24H265.531L268.541 252.13Z" stroke="#754443" stroke-width="1.5" stroke-miterlimit="10"/>
<path d="M261.66 202.2C261.66 204.07 260.14 205.59 258.27 205.59C256.4 205.59 254.88 204.07 254.88 202.2C254.88 200.33 256.4 198.81 258.27 198.81C260.14 198.81 261.66 200.33 261.66 202.2Z" stroke="#754443" stroke-width="1.5" stroke-miterlimit="10"/>
<path d="M262.341 219.69C262.341 221.56 260.821 223.08 258.951 223.08C257.081 223.08 255.561 221.56 255.561 219.69C255.561 217.82 257.081 216.3 258.951 216.3C260.821 216.3 262.341 217.81 262.341 219.69Z" stroke="#754443" stroke-width="1.5" stroke-miterlimit="10"/>
<path d="M263.01 237.17C263.01 239.04 261.49 240.56 259.62 240.56C257.75 240.56 256.23 239.04 256.23 237.17C256.23 235.3 257.75 233.78 259.62 233.78C261.49 233.78 263.01 235.29 263.01 237.17Z" stroke="#754443" stroke-width="1.5" stroke-miterlimit="10"/>
<path d="M173.631 251.69L133.651 278.12L89.8506 190.4C89.8506 190.4 130.991 170.01 142.601 163.93C170.331 149.42 196.481 151.4 213.521 152" fill="#915A56"/>
<path d="M114.22 119.28L109.98 230.88L129.98 270.45C129.98 270.45 101.24 293.06 82.1501 300C72.5701 303.48 17.8501 308.23 30.7901 245.89C43.7301 183.55 60.9801 112.16 60.9801 112.16L114.22 119.28Z" fill="#D16159"/>
<path d="M113.221 130.59C115.641 124.11 117.841 117.53 119.801 110.88C121.691 104.46 122.981 97.81 125.011 91.46C125.511 89.89 126.151 88.38 126.781 86.87C129.091 81.36 131.431 75.8 134.821 70.96C135.271 70.32 135.751 69.67 135.991 68.91C136.231 68.15 136.201 67.24 135.701 66.63C135.181 66 134.311 65.87 133.521 65.88C130.241 65.92 127.231 67.77 124.681 69.95C123.041 71.35 121.531 72.91 119.931 74.35C118.601 75.54 117.241 77 115.551 77.53C115.051 62.19 119.731 47.25 121.781 32.05C122.201 28.94 120.451 23.38 118.051 23.46C114.881 23.57 110.301 46.51 105.761 58.21C106.051 50.91 106.331 43.19 107.771 36.02C108.771 31.06 109.241 25.94 108.661 20.88C108.331 18.04 106.971 11.82 103.191 15.05C102.081 16 101.521 17.49 101.041 18.92C97.3206 30 96.3606 41.67 93.2106 52.95C92.6606 42.24 95.1206 30.97 91.2106 21.07C90.8306 20.11 90.3306 19.1 89.4606 18.62C88.1206 17.89 86.7906 18.07 85.9406 19.38C85.0906 20.69 84.8906 22.34 84.7106 23.92C83.4006 35.5 81.7006 47.72 80.3906 59.3C79.5306 53.83 79.8306 48.24 79.6306 42.7C79.4306 37.16 78.6506 31.45 75.8906 26.74C75.0006 25.22 73.1606 23.7 71.8206 24.79C71.1706 25.32 70.9306 26.24 70.8506 27.1C68.4506 52.92 64.9206 75.54 61.9206 100.75C60.5406 112.36 57.2006 125.49 54.8506 136.95" fill="#D16159"/>
<path d="M111.86 131.72C112.7 128.6 113.98 125.61 115.66 122.9" stroke="black" stroke-width="1.5" stroke-miterlimit="10"/>
<path d="M79.4707 62.77C81.4407 69.5 84.1907 76 86.1007 82.75C88.0207 89.5 87.6507 99.52 86.1807 106.48" stroke="black" stroke-width="1.5" stroke-miterlimit="10"/>
<path d="M112.85 79.61C105.27 87.3 99.9004 97.39 97.6104 108.22" stroke="black" stroke-width="1.5" stroke-miterlimit="10"/>
<path d="M93.5303 52.9299L92.0703 63.4599" stroke="black" stroke-width="1.5" stroke-miterlimit="10"/>
<path d="M105.85 55.16C104.84 58.49 104.07 61.9 103.57 65.36" stroke="black" stroke-width="1.5" stroke-miterlimit="10"/>
<path d="M210.76 139.68L255.03 183.07L276.72 150.86L290.39 157.97L288.2 203.58L256.5 191.02L228.93 211.86L192.68 151.63L210.76 139.68Z" fill="#915A56"/>
<path d="M290.39 157.97L288.2 203.58L256.5 191.02L228.93 211.86L192.68 151.63" stroke="black" stroke-width="1.5" stroke-miterlimit="10"/>
<path d="M109.98 230.88L108.39 264.18" stroke="black" stroke-width="1.5" stroke-miterlimit="10"/>
<path d="M115.66 177.55L159.19 261.24" stroke="#754443" stroke-width="1.5" stroke-miterlimit="10"/>
<path d="M322.85 210.27C319.36 235.62 323.92 279.84 323.92 279.84" stroke="black" stroke-width="1.5" stroke-miterlimit="10"/>
<path d="M133.66 278.12L187.03 244.36" stroke="black" stroke-width="1.5" stroke-miterlimit="10"/>
<path d="M109.19 383.64L320.91 403.92" stroke="#754443" stroke-width="1.5" stroke-miterlimit="10"/>
<path d="M274.71 36.26C283.42 41.54 288.43 51.24 290.84 61.02C292.84 69.16 292.59 103.67 291.94 111.56C291.11 121.7 284.62 133.66 273.87 137.82C261.55 142.58 247.25 137.54 235.92 128.37C219.99 115.49 210.85 95.29 211.79 74.44C211.94 71.21 212.41 67.99 213.23 64.84C217.27 49.27 230.39 35.9 246.19 31.71C254.82 29.42 267.29 31.76 274.71 36.26Z" fill="#D16159"/>
<path d="M314.02 33.13C309.08 34.91 304.13 36.69 299.19 38.47C301.73 32.87 303.46 26.74 302.95 20.61C297.49 24.56 291.15 27.3 284.52 28.56C287.18 25.54 288.06 21.05 286.73 17.24C277.73 19.87 268.2 19.92 258.82 19.88C249.44 19.84 239.94 19.73 230.85 22.05C221.76 24.37 212.98 29.46 208.29 37.59C206.24 41.15 205.02 45.18 202.65 48.54C199.8 52.58 195.36 55.49 193.35 60.01C192.17 62.66 191.95 65.63 191.81 68.52C191.66 71.68 191.59 74.85 191.92 77.99C193.16 89.86 198.84 106.63 215.03 123.06L221.65 97.54C224.6 96.91 221.54 88.05 222.55 85.21C225.07 78.04 223.15 69.99 225 62.62C225.4 61.04 226.12 59.33 227.63 58.73C229.47 57.99 232.09 59.85 233.84 60.47C236.38 61.38 238.96 62.16 241.57 62.81C254.79 66.11 275.04 68.4 283.93 55.09C290.56 59.37 292.02 71.89 292.02 71.89C292.02 71.89 295.3 69.49 296.03 68.76C297.67 67.14 299.31 65.52 300.95 63.89C303.65 61.22 306.16 58.44 308.18 55.2C312.25 48.65 314.44 40.87 314.02 33.13Z" fill="#FCDDD2"/>
<path d="M230.6 89.41C228.92 83.3 219.41 80.58 214.45 83.92C202.53 91.95 212.9 114.31 225.65 113.48C229.26 113.24 233.86 110.63 234.09 106.42" fill="#D16159"/>
<path d="M216.149 94.63L229.999 101.98" stroke="black" stroke-width="1.5" stroke-miterlimit="10"/>
<path d="M222.89 83.3C226.05 84.26 228.92 86.23 231 88.89" stroke="black" stroke-width="1.5" stroke-miterlimit="10"/>
<path d="M211.85 105.19C214.81 109.78 219.61 114.23 225.3 113.75C229.25 113.42 233.17 110.66 233.73 106.33" stroke="black" stroke-width="1.5" stroke-miterlimit="10"/>
<path d="M238.399 131.63C239.999 132.68 241.599 133.72 243.269 134.65C254.959 141.1 266.869 140.52 276.139 137.62" stroke="black" stroke-width="1.5" stroke-miterlimit="10"/>
<path d="M272.17 85.25C272.17 85.25 277.12 97.95 277.96 104.72C278.46 108.71 272.14 107.53 269.36 107.77" stroke="black" stroke-width="1.5" stroke-miterlimit="10"/>
<path d="M278.1 79.84C280.34 78.25 283.15 77.5 285.88 77.76C288.61 78.02 291.23 79.3 293.12 81.29" stroke="black" stroke-width="1.5" stroke-miterlimit="10"/>
<path d="M239.64 83.1499C242.34 80.7199 245.86 79.2399 249.48 79.0099C253.1 78.7799 256.78 79.7999 259.77 81.8599" stroke="black" stroke-width="1.5" stroke-miterlimit="10"/>
<path d="M284.17 95.35C285.534 95.35 286.64 93.6845 286.64 91.63C286.64 89.5755 285.534 87.91 284.17 87.91C282.806 87.91 281.7 89.5755 281.7 91.63C281.7 93.6845 282.806 95.35 284.17 95.35Z" fill="black"/>
<path d="M252.05 95.41C253.414 95.41 254.52 93.7445 254.52 91.69C254.52 89.6355 253.414 87.97 252.05 87.97C250.686 87.97 249.58 89.6355 249.58 91.69C249.58 93.7445 250.686 95.41 252.05 95.41Z" fill="black"/>
<path d="M276.719 114.49L261.309 111.88C261.309 111.88 260.039 121 266.119 122.7C274.889 125.15 276.719 114.49 276.719 114.49Z" fill="white"/>
<path d="M284.439 55.44C287.639 51.99 291.209 48.26 293.119 43.55" stroke="#E0B1A2" stroke-miterlimit="10"/>
<path d="M289.18 60.56C294.45 58 299.2 54.39 303.09 50.01" stroke="#E0B1A2" stroke-miterlimit="10"/>
<path d="M270.649 35.3299C276.019 33.7599 281.069 31.0999 285.399 27.5599" stroke="#E0B1A2" stroke-miterlimit="10"/>
<path d="M19.1304 194.48C11.8704 214.51 8.51036 235.94 9.27036 257.24" stroke="black" stroke-width="1.5" stroke-miterlimit="10"/>
<path d="M13.9402 171.67C7.35023 183.46 2.86023 196.43 0.740234 209.77" stroke="black" stroke-width="1.5" stroke-miterlimit="10"/>
<path d="M1272.43 849.06L1297.45 892.39C1297.45 892.39 1227.77 932.6 1227.23 932.91C1226.7 933.22 1199.31 884.56 1199.31 884.56" fill="#E27769"/>
<path d="M1219.7 925.85L1293.99 882.98L1318.02 924.63L1196.03 995.03C1196.03 995.03 1191.34 980.81 1197.05 968.15C1204.01 952.71 1218.88 938.93 1219.7 925.85Z" fill="#2C221D"/>
<path d="M1313.53 916.84L1194.35 985.61" stroke="black" stroke-width="1.5" stroke-miterlimit="10"/>
<path d="M1213.5 940.84L1233.12 935.86" stroke="black" stroke-width="1.5" stroke-miterlimit="10"/>
<path d="M1303.5 899.46C1303.5 899.46 1291.26 906.53 1287.54 908.67C1283.82 910.81 1270.57 923.56 1276.75 938.05" stroke="black" stroke-width="1.5" stroke-miterlimit="10"/>
<path d="M1368.94 920.97L1368.95 971.01C1368.95 971.01 1288.5 971.01 1287.88 971.01C1287.26 971.01 1287.87 915.18 1287.87 915.18" fill="#E27769"/>
<path d="M1183.79 426.12C1183.79 426.12 1123.54 573.14 1123.95 679.51C1124.19 741.87 1209.76 917.33 1209.76 917.33L1287.28 862.2L1223.64 662.64L1293.36 413" fill="#774935"/>
<path d="M1274.04 431.27C1274.04 431.27 1240.36 638.81 1248.32 716.43C1251.77 750.13 1263.77 951.29 1263.77 951.29L1373.15 940.4L1356.32 679.53C1356.32 679.53 1367.21 566.21 1373.15 532.56C1379.09 498.9 1382.31 456.9 1374.39 416.83" fill="#774935"/>
<path d="M1348.91 942.81L1332.59 679.53C1332.59 679.53 1345.58 566.21 1352.67 532.56C1359.76 498.9 1363.6 456.9 1354.15 416.83" stroke="black" stroke-width="1.5" stroke-miterlimit="10"/>
<path d="M1272.18 429.66L1266 480.67C1266 480.67 1254.39 472.44 1254.39 469.93C1254.39 467.43 1254.39 431.27 1254.39 431.27" stroke="black" stroke-width="1.5" stroke-miterlimit="10"/>
<path d="M1313.13 443.05C1313.13 443.05 1313.13 471.85 1359.15 486.43" stroke="black" stroke-width="1.5" stroke-miterlimit="10"/>
<path d="M1170.62 464.74C1170.62 464.74 1201.63 463.42 1219.13 434.03" stroke="black" stroke-width="1.5" stroke-miterlimit="10"/>
<path d="M1266 480.66L1259.86 532.95" stroke="black" stroke-width="1.5" stroke-miterlimit="10"/>
<path d="M1250.83 747.87L1259.54 881.92" stroke="black" stroke-width="1.5" stroke-miterlimit="10"/>
<path d="M1243.06 122.75L1241.79 157.72L1206.25 168.87C1206.25 168.87 1214.85 201.67 1270.02 195.68C1325.19 189.68 1338.15 166.73 1338.15 166.73L1306.14 160.08L1297.02 121.15L1296.1 109.18" fill="#A04C38"/>
<path d="M1239 59.2199C1231.7 64.8099 1228.16 73.9999 1226.95 83.0099C1225.95 90.4999 1229.54 121.45 1230.89 128.46C1232.63 137.48 1239.62 147.58 1249.67 150.26C1261.19 153.33 1273.52 147.41 1282.8 138.08C1295.84 124.97 1302.07 105.95 1299.19 87.3399C1298.74 84.4499 1298 81.6099 1296.97 78.8699C1291.83 65.2999 1278.75 54.5799 1264.16 52.3599C1256.18 51.1399 1245.22 54.4599 1239 59.2199Z" fill="#A04C38"/>
<path d="M1217.5 65.7C1217.5 65.7 1214.04 56.97 1219.08 45.86C1222.19 39.01 1228.87 35.57 1236.16 34.22C1240.82 33.36 1246.25 35.15 1250.29 37.12C1254.77 28.97 1264.93 25.67 1274.23 25.53C1279.28 25.45 1284.43 26.12 1288.98 28.31C1291.79 29.66 1295.67 31.78 1297.67 34.22C1300.39 37.55 1302.15 41.81 1302.78 46.05C1302.72 45.63 1307.65 46.21 1308.25 46.37C1318.74 49.15 1325.97 60.89 1323.36 71.5C1323.12 72.48 1321.78 78.5 1318.68 82.08C1322.88 84 1325.76 88.5 1325.75 93.11C1325.74 97.73 1322.84 102.21 1318.63 104.11C1318.3 104.26 1317.95 104.41 1317.74 104.7C1317.4 105.18 1317.58 105.84 1317.76 106.39C1318.6 108.99 1319.19 111.97 1317.82 114.34C1317.17 115.46 1316.15 116.32 1315.1 117.07C1309.95 120.75 1303.48 122.53 1297.18 122C1295.44 121.86 1294.6 114.12 1294.5 112.78C1294.16 108.04 1293.81 103.29 1293.47 98.55C1289.86 97.98 1286.55 95.75 1284.68 92.62C1282.8 89.49 1282.39 85.52 1283.59 82.07C1283.6 82.05 1283.61 82.02 1283.62 82C1284.62 79.18 1282.22 76.43 1279.3 77.05C1275.12 77.94 1270.76 78 1266.57 77.18C1264.73 76.82 1262.86 76.27 1261.42 75.08C1260.65 74.45 1260.06 73.45 1259.6 72.3C1258.51 69.57 1254.83 69.16 1253.03 71.49C1253.01 71.51 1252.99 71.54 1252.97 71.56C1250.75 74.4 1247.16 75.99 1243.56 76.25C1241.86 76.37 1240.15 76.22 1238.48 75.86C1236.03 75.33 1233.82 77.31 1233.9 79.82C1233.95 81.22 1233.81 82.6 1233.34 83.92C1231.39 89.31 1226.79 89.69 1226.79 89.69L1227.45 99.35C1227.45 99.35 1216.75 97.74 1215.74 97.43C1208.72 95.22 1204.68 90.04 1204.66 82.4C1204.61 71.57 1217.5 65.7 1217.5 65.7Z" fill="#2C221D"/>
<path d="M1287.53 105.09C1288.75 99.4999 1297.19 96.5899 1301.82 99.3599C1312.95 106.02 1304.69 126.68 1293.15 126.54C1289.89 126.5 1285.61 124.37 1285.2 120.59" fill="#A04C38"/>
<path d="M1300.81 109.11L1288.67 116.4" stroke="black" stroke-width="1.5" stroke-miterlimit="10"/>
<path d="M1294.18 99.22C1291.38 100.23 1288.89 102.15 1287.14 104.65" stroke="black" stroke-width="1.5" stroke-miterlimit="10"/>
<path d="M1305.19 118.41C1302.74 122.69 1298.63 126.93 1293.48 126.77C1289.9 126.66 1286.24 124.36 1285.53 120.49" stroke="black" stroke-width="1.5" stroke-miterlimit="10"/>
<path d="M1242.16 147.71C1247.1 150.56 1252.48 152.12 1257.68 152.07C1268.78 151.97 1278.71 145.46 1285.21 135.51" stroke="black" stroke-width="1.5" stroke-miterlimit="10"/>
<path d="M1251.38 100.18C1250.98 106.17 1250.58 112.16 1250.19 118.15C1250.14 118.89 1250.1 119.66 1250.4 120.32C1250.93 121.49 1252.28 121.88 1253.48 122.09C1255.4 122.42 1257.35 122.59 1259.3 122.59" stroke="black" stroke-width="1.5" stroke-miterlimit="10"/>
<path d="M1263.33 92.4C1265.75 90.83 1270.19 88.68 1273.74 89.69C1277.03 90.63 1279.45 93.17 1281.75 95.57" stroke="black" stroke-width="1.5" stroke-miterlimit="10"/>
<path d="M1247.47 92.5999C1241.85 88.1199 1235.8 89.4999 1230.2 93.0199" stroke="black" stroke-width="1.5" stroke-miterlimit="10"/>
<path d="M1271.39 105.67C1272.83 105.67 1274 104.022 1274 101.99C1274 99.9575 1272.83 98.3099 1271.39 98.3099C1269.95 98.3099 1268.78 99.9575 1268.78 101.99C1268.78 104.022 1269.95 105.67 1271.39 105.67Z" fill="black"/>
<path d="M1238.83 106.58C1240.27 106.58 1241.44 104.932 1241.44 102.9C1241.44 100.868 1240.27 99.22 1238.83 99.22C1237.39 99.22 1236.22 100.868 1236.22 102.9C1236.22 104.932 1237.39 106.58 1238.83 106.58Z" fill="black"/>
<path d="M1268.78 125.45L1249.53 127.66C1249.53 127.66 1251.39 136.68 1259.12 135.48C1268.78 133.97 1268.78 125.45 1268.78 125.45Z" fill="white"/>
<path d="M1190.23 165.84L1091.2 187.35L1005.43 160.6L986.29 198.91C986.29 198.91 1045.11 265.36 1095.36 259.2C1111.79 257.19 1204.65 239.56 1204.65 239.56" fill="#A04C38"/>
<path d="M1239.02 255.42C1210.49 254.93 1187.73 265.74 1160.93 265.85L1143.15 174.05C1171.3 165.84 1183.17 161 1201.63 158.34C1211.65 156.89 1226.67 157.07 1238.83 158.34" fill="#2C221D"/>
<path d="M1361.51 173.72C1361.51 173.72 1372.09 188.32 1378.63 242.34C1385.18 296.36 1385.18 447.18 1385.18 447.18L1170.62 434.89C1177.07 367.48 1191.76 245.44 1196.81 212.97C1201.86 180.5 1238.83 158.34 1238.83 158.34C1238.83 158.34 1238.83 171.94 1263.68 173.24C1293.56 174.81 1306.15 160.08 1306.15 160.08L1361.51 173.72Z" fill="#2C221D"/>
<path d="M1306.15 160.08C1315.33 160.22 1327.77 161.3 1339.58 161.91C1348.25 162.36 1363.26 165.49 1370.85 170.51C1378.2 175.38 1385.16 180.27 1389.63 188.08C1400.26 206.66 1425.16 258.02 1425.16 258.02L1352.05 302.93L1328.68 243.49" fill="#2C221D"/>
<path d="M1352.05 302.92L1328.68 243.48" stroke="#63493E" stroke-width="1.5" stroke-miterlimit="10"/>
<path d="M1341.95 277.23L1414.19 235.68" stroke="#63493E" stroke-width="1.5" stroke-miterlimit="10"/>
<path d="M1410.4 190.19C1410.4 191.4 1381.09 285.08 1381.09 285.08L1359.77 298.18C1359.77 298.18 1369.6 321.13 1377.48 330.36C1385.36 339.6 1401.86 348.03 1415.37 346.03C1428.88 344.03 1445.38 328.76 1451.38 292.2C1456.77 259.35 1459.38 210.13 1464.69 194.98C1470.01 179.84 1410.4 188.98 1410.4 190.19Z" fill="#A04C38"/>
<path d="M1381.09 285.08L1375.74 307.19" stroke="black" stroke-width="1.5" stroke-miterlimit="10"/>
<path d="M1406.94 198.2C1407.44 191.3 1408.19 184.41 1409.18 177.54C1410.14 170.92 1411.74 164.34 1412.55 157.72C1412.75 156.09 1412.8 154.45 1412.86 152.81C1413.06 146.84 1413.25 140.81 1412.19 135C1412.05 134.23 1411.88 133.44 1411.98 132.65C1412.07 131.86 1412.49 131.04 1413.19 130.7C1413.92 130.35 1414.77 130.59 1415.48 130.92C1418.44 132.32 1420.41 135.26 1421.82 138.3C1422.72 140.26 1422.66 143.04 1423.52 145.02C1424.23 146.66 1422.74 153.52 1426.01 152.02C1429.27 150.53 1435.79 119.73 1440.27 105.07C1441.19 102.07 1445.1 97.7399 1447.24 98.8199C1450.08 100.24 1444.67 123.01 1443.92 135.52C1446.7 128.76 1449.67 121.63 1451.34 114.52C1452.5 109.59 1454.2 104.74 1456.85 100.39C1458.33 97.9499 1462.17 92.8599 1464.25 97.3699C1464.87 98.6999 1464.75 100.29 1464.59 101.78C1463.35 113.4 1459.36 124.41 1457.52 135.97C1462.49 126.46 1464.95 115.2 1472.63 107.83C1473.38 107.11 1474.25 106.41 1475.24 106.34C1476.76 106.23 1477.9 106.96 1478.12 108.5C1478.35 110.05 1477.84 111.63 1477.35 113.14C1473.71 124.21 1465.91 148.81 1465.91 148.81C1465.91 148.81 1471.77 138.7 1474.26 133.75C1476.76 128.8 1479.72 122.52 1484.19 119.39C1485.63 118.38 1487.94 117.77 1488.7 119.31C1489.07 120.06 1488.9 121 1488.62 121.81C1480.04 146.28 1473.81 168.31 1466.03 192.48C1462.45 203.61 1460 216.93 1457.36 228.33" fill="#A04C38"/>
<path d="M1407.7 199.79C1408.24 196.61 1408.32 193.36 1407.92 190.19" stroke="black" stroke-width="1.5" stroke-miterlimit="10"/>
<path d="M1468.42 143.92C1466.78 148.17 1463.5 155.06 1460.35 158.34C1457.28 161.54 1452.76 164.82 1449.87 168.2C1445.36 173.47 1443.09 180.69 1441.56 187.56" stroke="black" stroke-width="1.5" stroke-miterlimit="10"/>
<path d="M1428.53 152.02C1432.21 162.17 1432.89 173.58 1430.45 184.38" stroke="black" stroke-width="1.5" stroke-miterlimit="10"/>
<path d="M1457.22 135.82L1454.15 146" stroke="black" stroke-width="1.5" stroke-miterlimit="10"/>
<path d="M1445.09 132.71C1444.62 136.16 1443.89 139.58 1442.91 142.93" stroke="black" stroke-width="1.5" stroke-miterlimit="10"/>
<path d="M1190.16 262.39C1190.16 262.39 1196.09 214.71 1197.14 202.42" stroke="#63493E" stroke-width="1.5" stroke-miterlimit="10"/>
<path d="M1176.49 264.89L1159.09 170.09" stroke="#63493E" stroke-width="1.5" stroke-miterlimit="10"/>
<path d="M1226.67 157.07C1227.21 168.78 1233.01 180.28 1244.86 183.91" stroke="#63493E" stroke-width="1.5" stroke-miterlimit="10"/>
<path d="M1251.52 185.93C1264.45 188.49 1278.03 187.55 1290.51 183.35C1302.65 179.26 1312.74 171.41 1321.19 161.9" stroke="#63493E" stroke-width="1.5" stroke-miterlimit="10"/>
<path d="M1215.72 376.44C1251.75 365.55 1284.83 345.09 1310.66 317.72" stroke="#63493E" stroke-width="1.5" stroke-miterlimit="10"/>
<path d="M1219.13 342.62C1239.05 342.94 1259.03 339.36 1277.59 332.12" stroke="#63493E" stroke-width="1.5" stroke-miterlimit="10"/>
<path d="M1053.68 907.47L1053.69 952.75C1053.69 952.75 980.88 952.75 980.32 952.75C979.76 952.75 980.31 902.22 980.31 902.22" fill="#E27769"/>
<path d="M1168.27 907.47L1168.28 952.75C1168.28 952.75 1095.47 952.75 1094.91 952.75C1094.35 952.75 1094.9 902.22 1094.9 902.22" fill="#E27769"/>
<path d="M971.78 349.2L968.79 370.63C968.79 370.63 947.78 415.98 947.3 472.63C946.82 529.28 970.88 926.35 970.88 926.35H1057.71L1055.86 451.1C1055.86 451.1 1058.85 372.5 1051.3 347.77" fill="#572A2F"/>
<path d="M1033.24 347.78C1033.24 470.17 1091.19 926.36 1091.19 926.36H1173.62C1173.62 926.36 1159.97 564.58 1151.1 478.32C1145.55 424.41 1128.09 390.78 1114.09 370.64L1104.15 347.06" fill="#572A2F"/>
<path d="M1155.14 926.36C1155.14 926.36 1144.49 564.58 1135.62 478.32C1130.37 427.25 1112.4 391.4 1098.61 370.64L1091.2 346.33" stroke="#754844" stroke-width="1.5" stroke-miterlimit="10"/>
<path d="M1066.32 370.25C1066.32 370.25 1067.92 395.03 1085.48 415.48C1103.04 435.92 1127.84 436.17 1127.84 436.17" stroke="#754844" stroke-width="1.5" stroke-miterlimit="10"/>
<path d="M1043.31 370.25L1041.44 350.28" stroke="#754844" stroke-width="1.5" stroke-miterlimit="10"/>
<path d="M1029.01 362.54C1030.98 362.54 1032.58 360.942 1032.58 358.97C1032.58 356.998 1030.98 355.4 1029.01 355.4C1027.04 355.4 1025.44 356.998 1025.44 358.97C1025.44 360.942 1027.04 362.54 1029.01 362.54Z" stroke="#754844" stroke-width="1.5" stroke-miterlimit="10"/>
<path d="M1056.45 602.6C1056.45 602.6 1033.93 433.75 1032.58 370.25" stroke="black" stroke-width="1.5" stroke-miterlimit="10"/>
<path d="M1013.88 370.63C1013.88 370.63 1020.01 433.68 1022.26 437.35C1024.51 441.02 1038.33 448.48 1038.33 448.48" stroke="black" stroke-width="1.5" stroke-miterlimit="10"/>
<path d="M951.93 434.02C951.93 434.02 969.65 432.72 983.15 419.6C996.65 406.48 997.68 370.63 997.68 370.63" stroke="#754844" stroke-width="1.5" stroke-miterlimit="10"/>
<path d="M968.79 370.63H1114.09" stroke="black" stroke-width="1.5" stroke-miterlimit="10"/>
<path d="M1002.67 158.34C975.68 153.76 948.87 166.95 933.02 184.83C917.86 201.95 884.24 247.1 884.24 247.1L941.47 289.26L983.15 227.87" fill="#FFC36C"/>
<path d="M966.1 204.92C956.26 230.92 951.21 246.38 957.56 273.45C959 279.6 961.281 285.52 962.841 291.63C968.321 313.02 971.781 349.21 971.781 349.21L1106.34 350.28C1106.34 350.28 1099.75 319.02 1102.46 304.39C1104.09 295.6 1113.95 242.45 1111.29 224.78C1108.64 207.11 1083.02 158.34 1083.02 158.34H997.761L966.1 204.92Z" fill="#FFC36C"/>
<path d="M1077.29 150.07C1081.27 151.91 1085.25 153.74 1089.23 155.58C1099.44 160.29 1109.8 165.09 1118.38 172.37C1134.82 186.3 1143.34 201.89 1145.29 223.35C1147.24 244.8 1139.66 293.71 1139.66 293.71L1067.07 276.59L1079.3 205.97" fill="#FFC36C"/>
<path d="M1078.53 210.39L1067.07 276.58" stroke="black" stroke-width="1.5" stroke-miterlimit="10"/>
<path d="M1142.28 274.49L1069.01 259.56" stroke="black" stroke-width="1.5" stroke-miterlimit="10"/>
<path d="M1101.93 284.8C1101.93 284.8 1076.65 254.29 1069.76 230.27C1062.87 206.25 1027.54 246.06 1027.54 246.06C1027.54 246.06 1052.04 305.79 1063.98 327.7C1074.02 346.12 1087.16 359.04 1108.22 354.48C1132.54 349.21 1136.56 292.37 1136.56 292.37L1101.93 284.8Z" fill="#E89274"/>
<path d="M956.16 266.52C952.74 245.32 955.73 223.13 964.63 203.58" stroke="black" stroke-width="1.5" stroke-miterlimit="10"/>
<path d="M951.49 274.49L895.74 231.83" stroke="black" stroke-width="1.5" stroke-miterlimit="10"/>
<path d="M1101.93 284.8L1118.37 312.11" stroke="black" stroke-width="1.5" stroke-miterlimit="10"/>
<path d="M995.88 335.9C1004.01 337.29 1012.08 338.97 1020.16 340.64C1032.87 343.28 1045.59 345.92 1058.3 348.55" stroke="black" stroke-width="1.5" stroke-miterlimit="10"/>
<path d="M1008.95 271.12C1013.58 277.56 1019.46 283.11 1026.16 287.36" stroke="black" stroke-width="1.5" stroke-miterlimit="10"/>
<path d="M936.71 192.14C936.29 185.85 937.23 179.48 939.43 173.58C940.11 171.75 941.37 169.66 943.32 169.75C944.14 169.79 944.94 170.24 945.75 170.12C945.88 168.29 946.27 166.37 947.51 165.02C948.75 163.67 951.06 163.17 952.43 164.38C952.55 164.48 952.66 164.6 952.82 164.64C953.19 164.73 953.46 164.32 953.62 163.98C954.51 162.14 955.78 160.42 957.5 159.32C959.23 158.22 961.45 157.79 963.37 158.51C963.77 158.66 964.21 158.86 964.62 158.74C964.98 158.63 965.22 158.31 965.44 158.01C966.32 156.82 967.33 155.7 968.61 154.95C969.88 154.2 972.47 153.98 973.89 154.4C974.59 154.61 976.03 155.14 976.65 155.52C978.14 156.43 978.81 157.29 980.3 158.2L976.41 159.13C976.41 159.13 974.29 177.54 970.38 185.88C969.34 188.11 968.14 190.3 966.45 192.09C964.76 193.88 962.51 195.24 960.06 195.46C959.8 195.48 959.51 195.49 959.3 195.33C959.07 195.16 958.99 194.86 958.94 194.58C958.75 193.7 958.57 192.82 958.38 191.95C957.78 193.64 957.14 195.37 955.98 196.74C954.82 198.11 952.35 199.24 951.24 198.71C950.13 198.17 950.57 196.05 950.39 194.58C949.31 197.45 946.73 199.27 943.67 199.42C943.32 199.44 942.95 199.43 942.63 199.27C941.28 198.6 941.31 195.13 941.31 195.13C941.31 195.13 939.09 196.87 938.05 195.96C937.03 195.03 936.8 193.52 936.71 192.14Z" fill="#A04C38"/>
<path d="M964.7 160.47C962.16 170.46 960.47 180.66 959.65 190.94" stroke="black" stroke-width="1.5" stroke-miterlimit="10"/>
<path d="M953.31 165.84C952.16 170.98 951.37 176.16 950.96 181.35C950.6 185.86 950.52 190.37 950.45 194.87" stroke="black" stroke-width="1.5" stroke-miterlimit="10"/>
<path d="M945.44 169.95C942.7 177.76 942.31 187.66 941.33 195.1" stroke="black" stroke-width="1.5" stroke-miterlimit="10"/>
<path d="M1007.82 144.87L1007.96 154.92L989.02 157.18C989.02 157.18 978.84 176.79 1021 176.79C1063.16 176.79 1076.15 159.64 1076.15 159.64L1065.32 158.83L1064.39 135.4L1064.98 116.8" fill="#E89274"/>
<path d="M984.94 82.1799C984.87 91.7599 982.17 101.3 977.19 109.48C974.82 113.39 971.93 117.01 970.1 121.2C967.3 127.63 967.25 135.22 969.98 141.68C971.14 144.43 972.79 147.05 973.15 150.01C973.53 153.16 972.4 156.26 971.58 159.32C970.46 163.5 969.89 167.82 969.39 172.12C968.66 178.42 968.1 185 970.31 190.95C972.88 197.88 979.3 203.23 986.58 204.5C993.86 205.77 1001.72 202.92 1006.48 197.27C1011.91 190.83 1013.04 181.53 1010.97 173.37C1010.38 171.05 1009.56 168.79 1009.12 166.44C1008.59 163.58 1008.64 160.64 1008.69 157.73C1008.8 151.86 1008.9 145.99 1009.01 140.13" fill="#632334"/>
<path d="M1004.27 55.71C996.37 60.41 991.77 69.12 989.52 77.93C987.65 85.26 987.6 116.41 988.12 123.53C988.79 132.69 994.55 143.54 1004.22 147.37C1015.3 151.77 1025.22 147.32 1035.53 139.13C1050.01 127.63 1061.44 109.49 1060.76 90.66C1060.65 87.74 1060.25 84.83 1059.54 81.99C1056.02 67.91 1044.29 55.74 1030.05 51.83C1022.27 49.7 1011 51.71 1004.27 55.71Z" fill="#E89274"/>
<path d="M1007.72 100.09C1007.79 104.5 1006.6 108.93 1004.32 112.71C1003.74 113.67 1003.09 114.59 1002.73 115.65C1002.37 116.71 1002.33 117.95 1002.95 118.88C1003.3 119.4 1003.81 119.78 1004.35 120.09C1005.67 120.85 1007.19 121.24 1008.72 121.23" stroke="black" stroke-width="1.5" stroke-miterlimit="10"/>
<path d="M1017.71 122.58L1006.85 125.27C1007.17 130.44 1009.71 134.74 1014.78 133.51C1019.8 132.28 1018.6 126.64 1017.71 122.58Z" fill="white"/>
<path d="M1052.49 125.09C1052.43 129.32 1052.33 133.76 1051.19 137.82C1049.84 142.63 1048.24 147.38 1047.06 152.24C1045.55 158.46 1044.74 165 1046.08 171.27C1047.16 176.34 1049.6 181.03 1050.82 186.07C1051.42 188.53 1051.72 191.05 1051.72 193.58C1051.72 196.83 1051.24 200.2 1052.4 203.24C1053.1 205.1 1054.37 206.69 1055.78 208.09C1061.17 213.47 1068.94 216.21 1076.51 215.88C1080.3 215.72 1083.73 214.31 1087.39 213.77C1091.42 213.17 1095.19 211.07 1097.72 207.81C1099.8 205.13 1100.9 201.83 1101.97 198.61C1104 192.45 1105.09 187.08 1104.29 180.53C1103.63 175.14 1102.32 169.84 1102.04 164.42C1101.74 158.57 1102.65 152.72 1102.7 146.87C1102.78 136.31 1097.97 130.76 1092.78 122.25C1086.97 112.71 1084.91 101.55 1082.64 90.77C1080.32 79.74 1077.33 69.37 1071.14 59.73C1066.54 52.56 1060.35 46.25 1052.72 42.45C1048.53 40.36 1026.4 33.08 1016.4 45.65C999.78 43.76 984.7 60.26 983.11 67.61C979.78 83.08 988.34 89 988.34 89C989.21 81.87 989.93 73.42 995.88 68.48C1001.38 63.91 1007.88 60.9 1015.15 61.02C1015.48 61.31 1016.15 79.57 1044.88 102.07C1051.04 106.73 1052.62 116.43 1052.49 125.09Z" fill="#632334"/>
<path d="M1014.76 94.07C1016.74 91.66 1021.21 90.83 1025.14 91.51C1029.07 92.19 1032.52 94.1 1035.44 96.24" stroke="black" stroke-width="1.5" stroke-miterlimit="10"/>
<path d="M989.021 95.72C991.921 89.61 998.55 91.83 1001.85 94.48" stroke="black" stroke-width="1.5" stroke-miterlimit="10"/>
<path d="M1031.2 104.65C1031 106.92 1029.63 108.66 1028.15 108.53C1026.67 108.4 1025.63 106.45 1025.83 104.18C1026.03 101.91 1027.4 100.17 1028.88 100.3C1030.36 100.42 1031.4 102.37 1031.2 104.65Z" fill="black"/>
<path d="M999.33 101.93C999.13 104.2 997.76 105.94 996.28 105.81C994.8 105.68 993.76 103.73 993.96 101.46C994.16 99.19 995.53 97.45 997.01 97.58C998.5 97.71 999.54 99.66 999.33 101.93Z" fill="black"/>
<path d="M1043.7 106.67C1045.04 101.11 1053.54 98.38 1058.11 101.25C1069.1 108.15 1060.4 128.62 1048.87 128.24C1045.61 128.13 1041.38 125.91 1041.05 122.12" fill="#E89274"/>
<path d="M1056.89 110.96L1044.6 118" stroke="black" stroke-width="1.5" stroke-miterlimit="10"/>
<path d="M1050.48 100.94C1047.65 101.89 1045.12 103.76 1043.32 106.22" stroke="black" stroke-width="1.5" stroke-miterlimit="10"/>
<path d="M1061.07 120.36C1058.53 124.59 1054.33 128.74 1049.19 128.47C1045.62 128.28 1042 125.91 1041.37 122.02" stroke="black" stroke-width="1.5" stroke-miterlimit="10"/>
<path d="M1008.23 149.18C1020.43 151.9 1032.36 143.88 1039.77 135.92" stroke="black" stroke-width="1.5" stroke-miterlimit="10"/>
<path d="M1074.35 251.59C1068.15 225.61 1077.2 198.29 1074.19 171.76C1072.12 171.02 1070.56 173.66 1069.95 175.77C1068.55 180.59 1067.16 185.4 1065.76 190.22C1063.94 183.15 1065.56 175.7 1065.38 168.4C1065.35 167.07 1064.6 165.24 1063.33 165.65C1062.8 165.82 1062.49 166.34 1062.22 166.83C1061.5 168.13 1060.77 169.42 1060.05 170.72C1060.44 168.44 1060.51 166.12 1060.27 163.82C1060.2 163.12 1060.02 162.31 1059.39 161.99C1058.32 161.44 1055.5 163.99 1055 165.09C1053.24 168.99 1052.49 172.3 1050.73 176.21C1050.77 173.73 1051.57 170.61 1051.61 168.13C1051.63 167.18 1051.57 166.08 1050.81 165.51C1049.59 164.6 1047.94 165.86 1047.06 167.1C1040.19 176.76 1039.25 192.87 1038.15 198.05C1037.05 203.23 1034.32 206.99 1034.32 206.99C1034.32 206.99 1032.43 204.21 1032.28 202.49C1032.03 199.5 1030.44 195.81 1029.03 193.17C1027.61 190.53 1024.95 188.5 1023.16 188.95C1021.37 189.39 1022.71 196.9 1023.22 200.88C1024.23 208.83 1024.71 216.86 1024.63 224.87C1024.58 230.74 1024.24 236.66 1025.29 242.44C1026.89 251.24 1031.82 259.4 1038.87 264.91" fill="#E89274"/>
<path d="M1066.32 188.3C1066.32 188.3 1064.96 198.56 1063.17 203.8C1062.71 205.15 1059.75 208.97 1059.02 210.2C1058.23 211.52 1057.18 212.66 1056.2 213.84C1051.51 219.48 1048.31 226.35 1047 233.57" stroke="black" stroke-width="1.5" stroke-miterlimit="10"/>
<path d="M1059.78 170.57C1058.25 173.6 1057.85 177.04 1057.48 180.41C1056.66 187.74 1055.86 195.07 1055.06 202.41" stroke="black" stroke-width="1.5" stroke-miterlimit="10"/>
<path d="M1050.88 175.89C1049.16 185.19 1047.45 194.5 1045.73 203.8" stroke="black" stroke-width="1.5" stroke-miterlimit="10"/>
<path d="M1034.39 206.95C1033.12 209.27 1031.91 211.62 1030.76 214" stroke="black" stroke-width="1.5" stroke-miterlimit="10"/>
<path d="M1029.7 254.5C1033.17 258.58 1035.2 263.67 1037.16 268.66" stroke="black" stroke-width="1.5" stroke-miterlimit="10"/>
<path d="M922.23 169.5C931.33 161.4 941.33 154.31 951.99 148.4" stroke="black" stroke-width="1.5" stroke-miterlimit="10"/>
<path d="M933.41 142.81C940.39 138.26 948.05 134.74 956.06 132.41" stroke="black" stroke-width="1.5" stroke-miterlimit="10"/>
<path d="M450.04 977.66C450.04 977.66 461.74 760.22 468.13 695.68C473.88 637.61 461.74 547.14 461.74 547.14L364.2 569.24L379.12 692.62L371.25 992.05" fill="#E27769"/>
<path d="M548.96 977.66C548.96 977.66 560.66 760.22 567.05 695.68C572.8 637.61 560.66 547.14 560.66 547.14L463.12 569.24L478.04 692.62L470.17 992.05" fill="#E27769"/>
<path d="M389.73 376.53C389.73 376.53 360.23 414.57 355.59 483.01C350.95 551.45 359.89 661.08 359.89 661.08H574.3C574.3 661.08 574.3 512.61 560.9 445.64C551.2 397.15 533.17 376.54 533.17 376.54" fill="#4C4139"/>
<path d="M390.261 397.47C390.261 397.47 373.081 456.06 376.441 518.8C379.801 581.54 383.131 661.07 383.131 661.07" stroke="#776152" stroke-width="1.5" stroke-miterlimit="10"/>
<path d="M409.89 397.47C409.89 397.47 400.4 456.06 403.76 518.8C407.12 581.54 410.45 661.07 410.45 661.07" stroke="#776152" stroke-width="1.5" stroke-miterlimit="10"/>
<path d="M428.43 446.16C427.33 465.08 426.99 486.46 428.4 508.32C432.74 575.69 437.04 661.08 437.04 661.08" stroke="#776152" stroke-width="1.5" stroke-miterlimit="10"/>
<path d="M457.511 558.39C460.611 611.68 463.101 661.08 463.101 661.08" stroke="#776152" stroke-width="1.5" stroke-miterlimit="10"/>
<path d="M377.46 397.47H545.48" stroke="black" stroke-width="1.5" stroke-miterlimit="10"/>
<path d="M415.271 397.47L484.471 661.08" stroke="black" stroke-width="1.5" stroke-miterlimit="10"/>
<path d="M427.95 397.53C450.27 418.65 475.81 436.36 503.41 449.86" stroke="black" stroke-width="1.5" stroke-miterlimit="10"/>
<path d="M446.341 396.89C471.901 405.29 498.501 410.51 525.341 412.4" stroke="black" stroke-width="1.5" stroke-miterlimit="10"/>
<path d="M482.49 117.15C483.44 111.57 491.64 108.31 496.34 110.84C507.64 116.91 500.43 137.7 489.03 138.09C485.8 138.2 481.48 136.29 480.9 132.57" fill="#BF524F"/>
<path d="M495.791 120.5L484.141 128.26" stroke="black" stroke-width="1.5" stroke-miterlimit="10"/>
<path d="M488.79 111.03C486.07 112.16 483.69 114.17 482.08 116.71" stroke="black" stroke-width="1.5" stroke-miterlimit="10"/>
<path d="M491.541 134.12L498.551 154.35L486.131 153.9L491.541 134.12Z" stroke="#FFC36C" stroke-width="1.5" stroke-miterlimit="10" stroke-linejoin="round"/>
<path d="M477.651 158.1L477.421 174.59L516.271 179.66C516.271 179.66 519.961 210.78 464.471 210.78C408.981 210.78 386.541 180.48 386.541 180.48L416.421 172.99L421.451 144.92L420.491 130.03" fill="#D16159"/>
<path d="M471.011 68.37C479.501 72.19 485.131 80.44 488.401 89.05C491.121 96.21 494.741 127.57 495.031 134.8C495.401 144.1 490.841 155.68 481.551 160.65C470.891 166.34 460.401 163 449.091 155.94C433.201 146.02 419.611 129.06 418.141 110.03C417.911 107.08 417.991 104.1 418.381 101.16C420.311 86.58 430.731 72.99 444.611 67.42C452.191 64.38 463.771 65.12 471.011 68.37Z" fill="#D16159"/>
<path d="M474.831 113.33C474.331 117.77 475.111 122.35 477.041 126.38C477.531 127.4 478.101 128.4 478.361 129.5C478.621 130.6 478.541 131.85 477.831 132.73C477.431 133.22 476.871 133.55 476.301 133.81C474.891 134.45 473.321 134.7 471.791 134.54" stroke="black" stroke-width="1.5" stroke-miterlimit="10"/>
<path d="M464.83 136.71L475.92 139.49C474.38 144.51 470.83 150.6 466.14 148.18C461.47 145.78 463 140.5 464.83 136.71Z" fill="white"/>
<path d="M421.451 144.92C421.201 144.98 420.941 144.86 420.711 144.73C413.121 140.64 407.331 135.74 403.571 127.99C397.031 114.5 394.671 99.11 401.321 85.17C406.941 73.4 418.091 62.76 430.701 58.88C447.981 53.56 461.651 54 476.781 64.94C487.671 72.81 492.181 88.62 490.681 98.66C489.521 94.13 487.201 91.34 485.541 89.31C482.091 85.09 478.611 81.02 473.381 79.1C468.381 77.27 462.791 77.15 457.671 78.55C449.641 80.75 443.981 85.63 439.851 92.9C434.961 101.51 436.201 112.5 431.321 121.26C430.411 122.9 427.821 124.14 427.211 125.91C426.361 128.37 427.271 130.42 427.161 132.86C426.971 137.14 424.431 141.11 421.991 144.46C421.851 144.65 421.691 144.86 421.451 144.92Z" fill="#2C221D"/>
<path d="M465.291 106.67C463.021 104.47 458.431 104.15 454.551 105.28C450.671 106.41 447.421 108.73 444.721 111.22" stroke="black" stroke-width="1.5" stroke-miterlimit="10"/>
<path d="M490.941 106.9C487.321 101.08 480.901 104.07 477.891 107.12" stroke="black" stroke-width="1.5" stroke-miterlimit="10"/>
<path d="M455.321 116.95C455.781 119.22 457.361 120.81 458.831 120.51C460.311 120.21 461.131 118.13 460.661 115.86C460.201 113.59 458.621 112 457.151 112.3C455.671 112.6 454.851 114.68 455.321 116.95Z" fill="black"/>
<path d="M482.66 116.28C483.12 118.55 484.7 120.14 486.17 119.83C487.65 119.53 488.47 117.45 488 115.18C487.54 112.91 485.96 111.32 484.49 111.63C483.02 111.94 482.2 114.02 482.66 116.28Z" fill="black"/>
<path d="M440.53 122.05C438.55 116.6 429.68 114.83 425.4 118.24C415.13 126.44 426.23 146.06 437.8 144.35C441.07 143.87 445.07 141.15 444.97 137.29" fill="#D16159"/>
<path d="M427.75 127.88L440.92 133.56" stroke="black" stroke-width="1.5" stroke-miterlimit="10"/>
<path d="M433.051 117.05C436.001 117.69 438.761 119.28 440.861 121.54" stroke="black" stroke-width="1.5" stroke-miterlimit="10"/>
<path d="M424.61 137.82C427.65 141.79 432.35 145.48 437.5 144.62C441.08 144.02 444.44 141.22 444.63 137.23" stroke="black" stroke-width="1.5" stroke-miterlimit="10"/>
<path d="M436.59 140.77L431.57 157.71L443.19 160.61L436.59 140.77Z" stroke="#FFC36C" stroke-width="1.5" stroke-miterlimit="10" stroke-linejoin="round"/>
<path d="M477.72 162.92C465.75 167.06 452.82 160.35 444.45 153.18" stroke="black" stroke-width="1.5" stroke-miterlimit="10"/>
<path d="M396.055 94.074C410.815 87.9694 417.831 71.0556 411.727 56.2958C405.622 41.536 388.708 34.5195 373.949 40.624C359.189 46.7286 352.172 63.6424 358.277 78.4022C364.381 93.162 381.295 100.179 396.055 94.074Z" fill="#2C221D"/>
<path d="M414.311 66.9299C405.611 74.2899 399.521 84.2699 397.171 95.0099" stroke="#FFC36C" stroke-width="2" stroke-miterlimit="10" stroke-linecap="round" stroke-linejoin="round"/>
<path d="M542.771 265.95C542.961 243.04 527.261 221.62 527.261 221.62L498.731 176.81C493.521 185.99 486.581 193.1 470.841 196.72C452.641 200.91 436.971 199.59 419.851 193.58C410.711 190.37 402.851 184.78 396.171 177.78C396.171 177.78 376.751 180.72 366.441 189.4C356.121 198.09 386.551 238.75 386.551 238.75C387.191 282.08 396.501 333.74 389.741 376.54H533.191L525.441 309.29C525.421 309.29 542.651 279.57 542.771 265.95Z" fill="#FCDDD2"/>
<path d="M517.91 247.1L576.19 304.38L627.69 258.81C607.72 239.77 587.41 221.1 567.29 202.23C560.03 195.41 551.88 190.61 542.89 186.33C529.02 179.73 508.76 177.95 498.36 176.84" fill="#FCDDD2"/>
<path d="M531.271 221.53C530.551 229.7 533.681 238.26 536.381 245.83C539.311 254.05 542.021 262.49 542.421 271.27" stroke="black" stroke-width="1.5" stroke-miterlimit="10"/>
<path d="M386.53 185.99C396.08 196.69 409.61 203.96 423.95 207.93C438.29 211.91 459.29 212.08 474.25 208.65" stroke="black" stroke-width="1.5" stroke-miterlimit="10"/>
<path d="M484.311 205.95C496.541 201.52 505.901 191.48 512.351 178.45" stroke="black" stroke-width="1.5" stroke-miterlimit="10"/>
<path d="M460.69 300.97C464.96 296.76 468.96 292.27 472.64 287.53" stroke="black" stroke-width="1.5" stroke-miterlimit="10"/>
<path d="M463.15 342.15C476.06 339.63 488.66 335.52 500.57 329.95" stroke="black" stroke-width="1.5" stroke-miterlimit="10"/>
<path d="M484.471 343.92C494.501 343.44 504.501 342.25 514.371 340.36" stroke="black" stroke-width="1.5" stroke-miterlimit="10"/>
<path d="M313.18 270.19C304.28 287.75 295.681 299.88 301.981 320.41C305.451 331.72 310.88 341.41 317.91 355.43C333.8 387.13 364.31 432.22 364.31 432.22L388.62 393.47L361.5 311.83L388.62 256.78" fill="#E27769"/>
<path d="M382.941 383.69C389.611 393.19 397.881 402.13 400.611 413.41C402.461 421.04 401.571 429.06 400.101 436.77C399.331 440.8 398.401 444.8 397.631 448.83C397.241 450.84 396.891 452.86 396.621 454.89C396.501 455.81 396.671 459.75 395.711 460.09C393.631 460.83 391.581 457.97 390.941 456.42C389.471 452.84 389.461 448.81 390.041 444.98C390.191 444.01 390.271 442.8 389.441 442.28C388.451 441.66 387.241 442.65 386.551 443.6C382.211 449.61 380.811 455.41 378.481 462.44C377.071 466.69 375.241 474.94 373.041 478.84C371.171 482.15 367.691 485.38 365.051 482.85C364.521 482.5 362.111 484.51 361.891 482.65C361.211 476.79 363.051 470.87 362.261 465.06C362.071 463.65 361.611 456.48 361.531 455.06C361.071 447.05 360.821 443.96 360.021 435.5C359.511 430.07 357.991 425.01 356.521 419.8C355.021 414.48 353.291 409.21 350.971 404.18" fill="#E27769"/>
<path d="M387.451 443.38C389.391 441.13 391.291 438.87 393.161 436.59" stroke="black" stroke-width="1.5" stroke-miterlimit="10"/>
<path d="M372.481 445.52C367.791 462.26 367.151 470.48 365.391 483.15" stroke="black" stroke-width="1.5" stroke-miterlimit="10"/>
<path d="M364.81 442.98C365.64 446.83 365 450.82 364.58 454.73C364.03 459.81 362.69 469.22 362.69 469.22" stroke="black" stroke-width="1.5" stroke-miterlimit="10"/>
<path d="M361.141 311.16C357.241 306.88 352.621 303.25 347.551 300.47" stroke="black" stroke-width="1.5" stroke-miterlimit="10"/>
<path d="M391.791 236.9C391.791 236.9 412.851 264.95 419.851 281.68C428.911 303.35 437.431 326.11 430.801 343.92C420.681 371.1 362.481 406.68 346.571 437.35L323.811 387.15L365.671 325.11L361.561 310.94" fill="#D16159"/>
<path d="M346.57 357.45C340.14 364.95 333.91 372.63 327.87 380.45C324.14 385.28 320.48 390.17 317.03 395.19C309.65 405.92 303.73 418.46 304.11 431.76C304.26 436.97 305.22 442.12 306.26 447.21C307.25 452.07 308.55 456.99 308.15 462C308.03 463.58 307.5 467.03 309.31 467.92C310.05 468.28 310.95 467.94 311.65 467.48C314.2 465.82 315.64 462.88 316.37 459.93C317.04 457.22 317.6 454.11 317.67 451.31C317.72 449.27 317.71 446.82 319.95 445.8C323.58 455.98 327.25 466.33 327.99 477.12C328.46 483.97 327.74 490.88 328.36 497.72C328.53 499.57 328.82 501.47 329.82 503.03C330.48 504.05 331.89 505.36 333.21 505.32C335.71 505.26 335.89 499.47 336.31 497.69C337.35 493.27 338.39 488.85 339.43 484.43C342.27 472.38 342.8 460.06 344.24 447.71C345.63 435.75 354.58 424.73 359.78 415.05" fill="#D16159"/>
<path d="M319.43 446.16C317.7 443.53 315.97 440.9 314.13 438.35C312.43 436.01 310.27 433.84 308.99 431.23" stroke="black" stroke-width="1.5" stroke-miterlimit="10"/>
<path d="M365.05 325.87C374.94 315.59 392.85 305.59 407.11 305.2" stroke="black" stroke-width="1.5" stroke-miterlimit="10"/>
<path d="M336.13 495.56C336.88 487.44 337.63 479.32 337.76 471.17C337.84 466.47 337.72 461.69 339.06 457.19" stroke="black" stroke-width="1.5" stroke-miterlimit="10"/>
<path d="M377.41 183.05C357.52 189.61 345.26 204.82 336.12 219.44C325.2 236.91 311.41 269.05 305.11 279.88L368.93 305.81L401.66 247.61" fill="#FCDDD2"/>
<path d="M368.931 305.81L401.661 247.61" stroke="black" stroke-width="1.5" stroke-miterlimit="10"/>
<path d="M533.561 161.28C549.301 165.2 564.001 173.22 575.821 184.34" stroke="black" stroke-width="1.5" stroke-miterlimit="10"/>
<path d="M529.78 145.86C540.34 148.7 551.23 151.69 559.8 158.47" stroke="black" stroke-width="1.5" stroke-miterlimit="10"/>
<path d="M702.721 109.53L699.411 150.53L687.101 159.15C687.101 159.15 720.771 193.07 734.081 192.25C747.391 191.43 785.851 155.36 785.851 155.36C785.851 155.36 773.961 149.62 773.611 148.53C773.261 147.44 769.971 113.28 769.971 113.28" fill="#D16159"/>
<path d="M702.551 82.36C701.021 76.78 693.721 74.74 690.111 78.09C681.431 86.15 690.201 106.37 699.811 104.95C702.531 104.55 705.901 101.89 705.901 97.97" fill="#D16159"/>
<path d="M691.841 87.9399L702.621 94.0599" stroke="black" stroke-width="1.5" stroke-miterlimit="10"/>
<path d="M696.471 77.08C698.901 77.81 701.151 79.49 702.841 81.85" stroke="black" stroke-width="1.5" stroke-miterlimit="10"/>
<path d="M771.441 81.7999C772.971 76.2199 780.271 74.1799 783.881 77.5299C792.561 85.5899 783.791 105.81 774.181 104.39C771.461 103.99 768.091 101.33 768.091 97.4099" fill="#D16159"/>
<path d="M782.151 87.3899L771.371 93.5099" stroke="black" stroke-width="1.5" stroke-miterlimit="10"/>
<path d="M774.55 70.27C774.34 60.67 770.1 51.07 763.51 44.15C755.94 36.19 746.08 33.51 735.31 34.73C725.75 35.81 716.13 39.54 709.21 46.39C704.57 50.98 701.86 57.12 700.82 63.51C699.27 73.02 700.01 82.81 702.13 92.17C705.55 107.29 713.07 125.33 731.18 125.75C743.17 126.03 757.62 123.03 765.63 113.33C770.14 107.88 772.25 100.8 773.2 93.79C774.26 86.1 774.72 78 774.55 70.27Z" fill="#D16159"/>
<path d="M736.101 70.3099C735.451 76.9499 734.791 83.5799 734.141 90.2199C733.881 92.8199 734.501 95.0499 737.551 95.9399C739.241 96.4299 741.071 96.3299 742.811 96.2099" stroke="black" stroke-width="1.5" stroke-miterlimit="10"/>
<path d="M787.061 26.61C786.511 25.56 785.901 24.53 785.011 23.74C782.171 21.22 777.781 22.1 774.121 23.13C778.191 20.42 779.781 14.77 778.281 10.12C776.781 5.46996 772.581 1.94996 767.871 0.649961C763.161 -0.650039 758.041 0.0799613 753.561 2.03996C750.291 3.46996 747.331 5.50996 744.391 7.53996C741.171 9.76996 737.951 11.99 734.721 14.22C736.051 11.64 734.081 8.28996 731.361 7.31996C728.631 6.33996 725.571 7.16996 722.981 8.46996C720.161 9.88996 717.631 11.89 715.571 14.29C713.991 16.14 713.151 18.39 711.771 20.38C710.321 22.47 708.551 24.35 706.541 25.92C703.391 28.37 699.721 30.03 696.251 32C692.051 34.37 688.371 37.41 685.981 41.66C681.601 49.42 682.421 59.17 685.431 67.55C688.061 74.89 692.791 77.19 696.391 84.11C697.961 99.78 701.041 126.46 708.731 133.57C711.141 135.8 713.631 136.81 715.711 137.24C718.631 137.84 721.391 139.13 723.501 141.25C725.791 143.54 729.761 145.98 736.291 145.98C741.581 145.98 745.331 143.98 747.881 141.7C751.141 138.79 755.281 136.94 759.651 137.07C762.571 137.15 765.911 136.27 768.691 132.94C773.631 127.03 776.571 103.71 777.671 83.78C778.131 75.42 780.651 67.23 785.281 60.26C787.221 57.34 788.711 54.12 789.631 50.74C791.821 42.74 790.881 33.94 787.061 26.61ZM769.111 106.65C765.351 112.99 758.611 117.53 751.201 118.2C749.541 118.35 747.791 118.29 746.291 117.62C744.391 116.78 744.451 114.16 742.421 113.66C741.001 113.31 739.511 113.25 738.051 113.32C736.571 113.39 734.441 113.09 733.491 114.49C732.731 115.61 731.991 116.9 730.801 117.63C729.441 118.47 727.591 118.34 726.061 118.2C718.871 117.55 712.541 113.16 708.571 107.64C704.601 102.12 703.391 93.71 702.181 87.2C701.771 85.01 700.991 79.02 700.471 73.74C703.461 70.93 705.581 67.1 707.011 63.2C709.031 57.71 712.031 51.66 711.991 46.39C723.591 51.04 737.651 48.88 747.331 40.97C750.441 44.67 754.021 47.47 757.601 50.64C760.901 53.57 767.491 56.63 771.891 57.47C775.971 81.86 773.841 98.68 769.111 106.65Z" fill="#2C221D"/>
<path d="M735.281 103.82C736.341 106.89 741.491 107.25 743.851 105.83C746.231 104.4 746.691 101.67 746.501 99.0699" stroke="black" stroke-width="1.5" stroke-miterlimit="10"/>
<path d="M717.551 95C725.741 95 732.381 88.3604 732.381 80.17C732.381 71.9796 725.741 65.34 717.551 65.34C709.36 65.34 702.721 71.9796 702.721 80.17C702.721 88.3604 709.36 95 717.551 95Z" stroke="#FCDDD2" stroke-width="2" stroke-miterlimit="10"/>
<path d="M757.65 95C765.841 95 772.48 88.3604 772.48 80.17C772.48 71.9796 765.841 65.34 757.65 65.34C749.46 65.34 742.82 71.9796 742.82 80.17C742.82 88.3604 749.46 95 757.65 95Z" stroke="#FCDDD2" stroke-width="2" stroke-miterlimit="10"/>
<path d="M731.681 75.65H742.811" stroke="#FCDDD2" stroke-width="2" stroke-miterlimit="10"/>
<path d="M747.9 63.07C751 57.7 763.35 58.57 767.39 65.34" stroke="black" stroke-width="1.5" stroke-miterlimit="10"/>
<path d="M756.99 77.08C756.99 79.19 755.77 80.91 754.26 80.91C752.75 80.91 751.53 79.2 751.53 77.08C751.53 74.97 752.75 73.25 754.26 73.25C755.77 73.25 756.99 74.97 756.99 77.08Z" fill="black"/>
<path d="M727.76 63.07C724.66 57.7 712.311 58.57 708.271 65.34" stroke="black" stroke-width="1.5" stroke-miterlimit="10"/>
<path d="M718.671 77.08C718.671 79.19 719.891 80.91 721.401 80.91C722.911 80.91 724.131 79.2 724.131 77.08C724.131 74.97 722.911 73.25 721.401 73.25C719.901 73.25 718.671 74.97 718.671 77.08Z" fill="black"/>
<path d="M658.811 399.48L655.101 437.07C655.101 437.07 639.291 484.94 641.751 585.45C644.211 685.95 638.721 981.44 638.721 981.44H717.641L742.581 553.34L767.521 981.44H846.441C846.441 981.44 840.951 685.95 843.411 585.45C845.871 484.95 830.061 437.07 830.061 437.07L826.351 399.48" fill="#2A2D3E"/>
<path d="M830.061 437.06H655.091" stroke="black" stroke-width="1.5" stroke-miterlimit="10"/>
<path d="M750.821 436.17V412.74" stroke="black" stroke-width="1.5" stroke-miterlimit="10"/>
<path d="M789.921 436.17V412.74" stroke="black" stroke-width="1.5" stroke-miterlimit="10"/>
<path d="M796.691 436.17V412.74" stroke="black" stroke-width="1.5" stroke-miterlimit="10"/>
<path d="M690.341 436.17V412.74" stroke="black" stroke-width="1.5" stroke-miterlimit="10"/>
<path d="M697.101 436.17V412.74" stroke="black" stroke-width="1.5" stroke-miterlimit="10"/>
<path d="M743.731 428.71C743.731 430.59 742.211 432.11 740.331 432.11C738.451 432.11 736.931 430.59 736.931 428.71C736.931 426.83 738.451 425.31 740.331 425.31C742.211 425.31 743.731 426.83 743.731 428.71Z" stroke="black" stroke-width="1.5" stroke-miterlimit="10"/>
<path d="M742.581 553.33V437.35" stroke="black" stroke-width="1.5" stroke-miterlimit="10"/>
<path d="M726.571 437.35C726.571 438.26 727.321 484.58 728.321 486.09C729.321 487.59 742.571 489.6 742.571 489.6" stroke="black" stroke-width="1.5" stroke-miterlimit="10"/>
<path d="M781.731 437.35C781.731 437.35 785.991 453.62 789.921 455.72C793.851 457.82 836.001 469.53 836.001 469.53" stroke="black" stroke-width="1.5" stroke-miterlimit="10"/>
<path d="M701.501 437.35C701.501 437.35 697.311 453.49 693.451 455.58C689.591 457.67 648.161 469.28 648.161 469.28" stroke="black" stroke-width="1.5" stroke-miterlimit="10"/>
<path d="M641.99 182.89C640.28 208.99 642.12 235.18 643.95 261.28C647.66 314.06 651.37 366.83 655.09 419.61H829.29C829.29 419.61 836.62 253.52 852.13 210.39C866.02 171.76 782.16 148.39 782.16 148.39L737.74 180.51L687.11 152.93L641.99 182.89Z" fill="#735D9D"/>
<path d="M659.851 369.47C667.371 381.52 675.051 393.97 677.381 407.98C678.461 414.44 678.421 419.3 678.311 425.85C678.181 433.76 677.391 439.38 676.681 447.28C676.501 449.27 676.871 459.2 673.771 458.92C672.851 458.84 672.161 458.07 671.621 457.32C669.471 454.37 667.981 450.94 667.291 447.36C666.331 458.48 665.361 469.6 664.401 480.72C664.111 484.05 663.781 487.51 662.071 490.37C660.961 492.23 658.451 492.23 656.471 492.74C656.021 492.86 655.551 492.98 655.171 493.25C654.681 493.59 654.371 494.13 654.071 494.65C653.161 496.22 651.291 499.15 649.171 497.46C648.241 496.71 647.851 495.49 647.521 494.34C646.741 491.65 645.961 488.96 645.191 486.26C645.041 485.75 644.891 485.24 644.631 484.78C643.741 483.26 642.001 482.43 641.141 480.88C640.391 479.53 639.721 477.93 639.191 476.48C637.811 472.71 637.681 468.64 636.931 464.73C636.781 463.95 636.601 463.15 636.181 462.46C635.841 461.89 635.351 461.43 634.961 460.9C634.071 459.69 633.681 458.18 633.351 456.71C631.661 449.37 630.731 441.57 629.121 434.09C627.431 426.28 624.431 419.12 621.261 411.82" fill="#D16159"/>
<path d="M667.541 449.95C668.661 443.22 670.371 436.59 672.631 430.15" stroke="black" stroke-width="1.5" stroke-miterlimit="10"/>
<path d="M655.571 440.76C653.571 457.99 653.661 475.45 655.841 492.66" stroke="black" stroke-width="1.5" stroke-miterlimit="10"/>
<path d="M641.77 444.48C641.52 460.98 643.36 477.5 647.23 493.54" stroke="black" stroke-width="1.5" stroke-miterlimit="10"/>
<path d="M635.491 443.6C634.871 451.04 636.521 459.49 638.721 466.71" stroke="black" stroke-width="1.5" stroke-miterlimit="10"/>
<path d="M736.941 180.5L735.681 419.61" stroke="black" stroke-width="1.5" stroke-miterlimit="10"/>
<path d="M745.69 202.28C747.413 202.28 748.81 200.883 748.81 199.16C748.81 197.437 747.413 196.04 745.69 196.04C743.967 196.04 742.57 197.437 742.57 199.16C742.57 200.883 743.967 202.28 745.69 202.28Z" stroke="black" stroke-width="1.5" stroke-miterlimit="10"/>
<path d="M748.81 250.22C748.81 251.94 747.42 253.34 745.69 253.34C743.97 253.34 742.57 251.95 742.57 250.22C742.57 248.5 743.96 247.1 745.69 247.1C747.41 247.1 748.81 248.5 748.81 250.22Z" stroke="black" stroke-width="1.5" stroke-miterlimit="10"/>
<path d="M745.69 304.39C747.413 304.39 748.81 302.993 748.81 301.27C748.81 299.547 747.413 298.15 745.69 298.15C743.967 298.15 742.57 299.547 742.57 301.27C742.57 302.993 743.967 304.39 745.69 304.39Z" stroke="black" stroke-width="1.5" stroke-miterlimit="10"/>
<path d="M745.69 355.44C747.413 355.44 748.81 354.043 748.81 352.32C748.81 350.597 747.413 349.2 745.69 349.2C743.967 349.2 742.57 350.597 742.57 352.32C742.57 354.043 743.967 355.44 745.69 355.44Z" stroke="black" stroke-width="1.5" stroke-miterlimit="10"/>
<path d="M745.69 406.49C747.413 406.49 748.81 405.093 748.81 403.37C748.81 401.647 747.413 400.25 745.69 400.25C743.967 400.25 742.57 401.647 742.57 403.37C742.57 405.093 743.967 406.49 745.69 406.49Z" stroke="black" stroke-width="1.5" stroke-miterlimit="10"/>
<path d="M836.001 266.59L839.561 218.15" stroke="black" stroke-width="1.5" stroke-miterlimit="10"/>
<path d="M687.351 149.84C668.121 151.2 648.121 152.79 631.501 162.55C620.601 168.95 611.911 178.46 603.591 187.97C587.141 206.77 570.911 225.81 556.131 245.98C542.741 264.26 529.971 283.06 533.891 306.9C536.851 324.91 547.911 338.94 558.721 352.98C578.131 378.18 624.301 430.02 626.211 432.22L667.541 377.82L610.261 300.06L658.811 241.78" fill="#735D9D"/>
<path d="M644.491 258.96L637.041 222.91" stroke="black" stroke-width="1.5" stroke-miterlimit="10"/>
<path d="M588.701 292.93C596.931 293.27 605.421 295.07 611.901 300.15" stroke="black" stroke-width="1.5" stroke-miterlimit="10"/>
<path d="M588.991 281.68C594.521 282.81 599.751 285.4 603.991 289.13" stroke="black" stroke-width="1.5" stroke-miterlimit="10"/>
<path d="M650.531 354.72L667.541 377.81L626.211 432.22" stroke="black" stroke-width="1.5" stroke-miterlimit="10"/>
<path d="M611.901 415.98L654.991 360.77" stroke="black" stroke-width="1.5" stroke-miterlimit="10"/>
<path d="M661.041 386.79L637.041 355.43" stroke="black" stroke-width="1.5" stroke-miterlimit="10"/>
<path d="M652.911 383.68C652.911 385.4 651.521 386.8 649.791 386.8C648.061 386.8 646.671 385.41 646.671 383.68C646.671 381.96 648.061 380.56 649.791 380.56C651.521 380.56 652.911 381.96 652.911 383.68Z" stroke="black" stroke-width="1.5" stroke-miterlimit="10"/>
<path d="M824.901 390.32C817.381 401.52 809.701 413.09 807.371 426.11C806.291 432.11 806.331 436.63 806.441 442.72C806.571 450.07 807.361 455.29 808.071 462.63C808.251 464.48 807.881 473.7 810.981 473.45C811.901 473.38 812.591 472.66 813.131 471.97C815.281 469.23 816.771 466.05 817.461 462.71C818.421 473.04 819.391 483.37 820.351 493.71C820.641 496.8 820.971 500.02 822.681 502.68C823.791 504.41 826.301 504.41 828.281 504.88C828.731 504.99 829.201 505.1 829.581 505.35C830.071 505.67 830.381 506.17 830.681 506.65C831.591 508.11 833.461 510.84 835.581 509.26C836.511 508.57 836.901 507.43 837.231 506.36C838.011 503.86 838.791 501.36 839.561 498.86C839.711 498.39 839.861 497.91 840.121 497.49C841.011 496.08 842.751 495.31 843.611 493.86C844.361 492.61 845.031 491.12 845.561 489.77C846.941 486.27 847.071 482.48 847.821 478.85C847.971 478.12 848.151 477.38 848.571 476.75C848.911 476.22 849.401 475.79 849.791 475.3C850.681 474.17 851.071 472.77 851.401 471.4C853.091 464.58 854.021 457.33 855.631 450.39C857.321 443.13 860.321 436.48 863.491 429.69" fill="#D16159"/>
<path d="M817.211 465.09C816.091 458.84 814.381 452.67 812.121 446.69" stroke="black" stroke-width="1.5" stroke-miterlimit="10"/>
<path d="M829.181 456.55C831.181 472.56 831.091 488.79 828.911 504.77" stroke="black" stroke-width="1.5" stroke-miterlimit="10"/>
<path d="M842.98 460.01C843.23 475.34 841.391 490.69 837.521 505.59" stroke="black" stroke-width="1.5" stroke-miterlimit="10"/>
<path d="M849.261 459.19C849.881 466.1 848.231 473.96 846.031 480.66" stroke="black" stroke-width="1.5" stroke-miterlimit="10"/>
<path d="M776.761 147.31C776.761 147.31 800.881 152.24 810.751 153.95C838.491 158.77 862.721 177.16 884.481 194.01C902.211 207.73 918.851 222.86 934.181 239.21C948.841 254.83 964.431 272.06 971.181 292.81C976.981 310.63 970.831 328.17 960.321 342.85C950.691 356.3 938.261 368.17 926.421 379.65C906.511 398.97 865.581 440.05 865.581 440.05L821.321 393.47L891.551 295.77L794.081 244.59" fill="#735D9D"/>
<path d="M908.471 303.05C918.461 301.35 928.641 300.79 938.751 301.39" stroke="black" stroke-width="1.5" stroke-miterlimit="10"/>
<path d="M910.641 294.9C914.861 291.94 919.871 290.26 924.951 289.35C930.021 288.44 935.201 288.27 940.351 288.11" stroke="black" stroke-width="1.5" stroke-miterlimit="10"/>
<path d="M833.591 376.43L880.841 424.45" stroke="black" stroke-width="1.5" stroke-miterlimit="10"/>
<path d="M831.721 404.39L862.731 367.09" stroke="black" stroke-width="1.5" stroke-miterlimit="10"/>
<path d="M846.031 403.38C847.754 403.38 849.151 401.983 849.151 400.26C849.151 398.537 847.754 397.14 846.031 397.14C844.308 397.14 842.911 398.537 842.911 400.26C842.911 401.983 844.308 403.38 846.031 403.38Z" stroke="black" stroke-width="1.5" stroke-miterlimit="10"/>
<path d="M699.651 136.74L680.671 150.89L700.491 205.07L736.941 180.5L699.651 136.74Z" fill="#735D9D"/>
<path d="M773.41 139.38L793.17 150.82L772.48 205.07L737.73 180.5L773.41 139.38Z" fill="#735D9D"/>
<path d="M793.171 150.82L772.481 205.07L737.731 180.5L700.491 205.07L680.671 150.89" stroke="black" stroke-width="1.5" stroke-miterlimit="10"/>
<path d="M815.78 239.57H770.57V244.47H815.78V239.57Z" stroke="black" stroke-width="1.5" stroke-miterlimit="10"/>
<path d="M841.001 269.22C841.001 269.22 845.511 232.99 847.221 225.84" stroke="black" stroke-width="1.5" stroke-miterlimit="10"/>
<path d="M637.04 267.91L610.26 300.05C608.59 299.52 542.771 382.02 542.771 382.02L575.98 404.39C575.98 404.39 646.181 339.39 655.841 326.1C665.491 312.81 655.12 285.31 637.04 267.91Z" fill="#E27769"/>
<path d="M612.851 296.48C620.141 290.7 628.631 286.45 637.631 284.08" stroke="black" stroke-width="1.5" stroke-miterlimit="10"/>
<path d="M554.841 367.89C546.881 376.34 537.421 384 533.091 394.77C530.171 402.05 529.891 410.12 530.241 417.96C530.421 422.06 530.771 426.15 530.961 430.25C531.051 432.3 531.111 434.34 531.091 436.39C531.081 437.32 530.341 441.19 531.241 441.67C533.191 442.7 535.631 440.17 536.481 438.72C538.451 435.38 539.041 431.4 539.011 427.53C539.001 426.55 539.101 425.34 539.991 424.94C541.061 424.47 542.121 425.62 542.661 426.66C546.101 433.23 546.651 439.17 547.951 446.46C548.731 450.87 549.371 459.29 550.981 463.47C552.351 467.02 555.341 470.71 558.311 468.59C558.891 468.32 560.981 470.65 561.461 468.84C562.981 463.14 561.991 457.02 563.621 451.37C564.011 450 565.491 442.98 565.781 441.58C567.391 433.72 568.081 430.69 570.071 422.44C571.351 417.14 573.591 412.35 575.781 407.4C578.021 402.35 580.501 397.38 583.511 392.73" fill="#E27769"/>
<path d="M541.83 426.32C540.23 423.82 538.67 421.31 537.15 418.79" stroke="black" stroke-width="1.5" stroke-miterlimit="10"/>
<path d="M556.341 430.58C558.581 447.82 558.041 456.05 557.961 468.84" stroke="black" stroke-width="1.5" stroke-miterlimit="10"/>
<path d="M564.291 429.16C562.921 432.85 562.981 436.89 562.841 440.82C562.661 445.93 562.631 455.43 562.631 455.43" stroke="black" stroke-width="1.5" stroke-miterlimit="10"/>
<path d="M954.961 349.71C963.321 359.02 973.321 367.51 977.701 379.23C980.661 387.15 980.751 395.85 980.171 404.29C979.871 408.7 979.391 413.1 979.081 417.51C978.931 419.71 978.811 421.92 978.781 424.12C978.771 425.12 979.461 429.31 978.481 429.8C976.351 430.86 973.791 428.07 972.911 426.49C970.881 422.85 970.341 418.54 970.471 414.37C970.501 413.31 970.431 412 969.481 411.55C968.341 411.01 967.171 412.23 966.561 413.33C962.691 420.31 961.941 426.7 960.361 434.53C959.401 439.26 958.511 448.32 956.661 452.78C955.091 456.57 951.781 460.47 948.631 458.1C948.011 457.8 945.701 460.25 945.231 458.29C943.741 452.11 944.961 445.54 943.351 439.42C942.961 437.94 941.551 430.33 941.281 428.82C939.751 420.31 939.081 417.03 937.151 408.09C935.901 402.34 933.621 397.13 931.381 391.74C929.091 386.24 926.561 380.82 923.431 375.74" fill="#E89274"/>
<path d="M929.301 313.57C917.371 306.06 868.781 283.81 868.781 283.81C865.421 302.45 873.361 322.77 884.101 337.95C902.671 364.2 926.001 386.14 947.041 410.32L971.201 370.27C971.201 370.25 941.231 321.08 929.301 313.57Z" fill="#E89274"/>
<path d="M967.471 413C969.261 410.35 971.001 407.68 972.701 405" stroke="black" stroke-width="1.5" stroke-miterlimit="10"/>
<path d="M951.731 417.21C948.871 435.73 949.251 444.6 949.001 458.39" stroke="black" stroke-width="1.5" stroke-miterlimit="10"/>
<path d="M943.201 415.48C944.581 419.49 944.411 423.84 944.471 428.08C944.541 433.59 944.321 443.83 944.321 443.83" stroke="black" stroke-width="1.5" stroke-miterlimit="10"/>
<path d="M808.541 43.08C809.481 47.86 808.511 52.87 806.631 57.37C804.761 61.87 802.031 65.96 799.311 70.01" stroke="black" stroke-width="1.5" stroke-miterlimit="10"/>
<path d="M818.491 65.3099C813.971 72.0199 808.631 78.1899 802.641 83.6199" stroke="black" stroke-width="1.5" stroke-miterlimit="10"/>
<path d="M1507.64 106.87C1504.67 124.18 1499.69 141.14 1492.84 157.3" stroke="black" stroke-width="1.5" stroke-miterlimit="10"/>
<path d="M1526.43 94.2C1524.55 107.08 1521.14 120.36 1515.85 132.09" stroke="black" stroke-width="1.5" stroke-miterlimit="10"/>
</g>
<defs>
<clipPath id="clip0_296_2311">
<rect width="1527" height="938" fill="white"/>
</clipPath>
</defs>
</svg>
