<svg width="669" height="423" viewBox="0 0 669 423" fill="none" xmlns="http://www.w3.org/2000/svg">
<g clip-path="url(#clip0_22_2252)">
<path d="M352.96 64.16C310.82 54.25 280.14 63.88 245.1 75.97C227.83 81.93 210.34 88.23 192.14 90.63C178.55 92.42 164.83 92.9 151.19 94.25C137.01 95.66 122.84 97.44 108.92 100.56C85.48 105.83 44.65 115.54 47.15 147.1C48.15 159.74 56.78 171.23 55.91 183.88C54.79 200.09 39.67 212.65 29.76 224.1C16.08 239.91 3.77999 257.46 6.03999 279.44C7.85999 297.17 19.37 312.75 33.57 323.52C47.77 334.29 64.57 340.98 81.12 347.58C106.33 357.64 127.66 369.41 147.49 388.11C158.98 398.94 171.21 409.67 186.11 414.92C206.12 421.98 231.63 415.84 239.78 394.64C244.22 383.09 245.47 369.64 252.36 359.14C259.46 348.33 274.42 339.23 287.62 340.98C309.12 343.83 317.5 359.78 327.75 376.56C332.75 384.75 338.7 392.3 347.1 397.22C361.52 405.66 375.93 402.37 391.13 398.94C407.55 395.24 424.15 392.25 440.87 390.25C469.23 386.86 497.77 388.38 526.04 391.94C552.88 395.33 591.85 412.97 613.98 389.02C623.68 378.53 625.61 364.16 622.08 350.76C617.02 331.56 606.13 310.23 606.72 290.29C607.59 260.84 620.86 241.24 637.08 218.23C644.85 207.21 650.83 194.97 650.55 181.18C649.91 149.46 630.02 125.11 609.29 103.25C588.61 81.43 567.94 56.57 547.01 37.22" stroke="#ED725A" stroke-width="1.5" stroke-miterlimit="10"/>
<path d="M654.26 96.55C654.26 101.16 650.52 104.89 645.92 104.89C641.31 104.89 637.58 101.15 637.58 96.55C637.58 91.94 641.32 88.21 645.92 88.21C650.53 88.2 654.26 91.94 654.26 96.55Z" stroke="#ED725A" stroke-width="1.5" stroke-miterlimit="10"/>
<path d="M374.95 379.03C374.95 383.64 371.21 387.37 366.61 387.37C362 387.37 358.27 383.63 358.27 379.03C358.27 374.42 362.01 370.69 366.61 370.69C371.21 370.68 374.95 374.42 374.95 379.03Z" stroke="#ED725A" stroke-width="1.5" stroke-miterlimit="10"/>
<path d="M345.81 15.75C349.27 15.75 352.08 18.56 352.08 22.02V146C352.08 149.46 349.27 152.27 345.81 152.27H105.17C101.71 152.27 98.9 149.46 98.9 146V22.03C98.9 18.57 101.71 15.76 105.17 15.76H345.81M345.81 14.25H105.17C100.88 14.25 97.4 17.74 97.4 22.02V146C97.4 150.29 100.89 153.77 105.17 153.77H345.81C350.1 153.77 353.58 150.28 353.58 146V22.03C353.58 17.74 350.09 14.25 345.81 14.25Z" fill="white"/>
<path d="M345.81 152.28H105.17C101.71 152.28 98.9 149.47 98.9 146.01V32.48H352.08V146.01C352.08 149.47 349.27 152.28 345.81 152.28Z" fill="#AFB9E8"/>
<path d="M113.63 24.61C113.63 26.59 112.02 28.2 110.04 28.2C108.06 28.2 106.45 26.59 106.45 24.61C106.45 22.63 108.06 21.02 110.04 21.02C112.02 21.02 113.63 22.62 113.63 24.61Z" stroke="white" stroke-width="1.5" stroke-miterlimit="10"/>
<path d="M127.54 24.61C127.54 26.59 125.93 28.2 123.95 28.2C121.97 28.2 120.36 26.59 120.36 24.61C120.36 22.63 121.97 21.02 123.95 21.02C125.93 21.02 127.54 22.62 127.54 24.61Z" stroke="white" stroke-width="1.5" stroke-miterlimit="10"/>
<path d="M98.9 32.48H352.08" stroke="white" stroke-width="1.5" stroke-miterlimit="10"/>
<path d="M331.72 134.89C329.17 131.51 324.83 128.41 321.44 130.73C318.59 132.68 318.49 137.08 318.71 140.74C310.64 129.32 301.04 119.18 290.31 110.76C284.49 106.2 277.81 101.98 270.67 102.53C263.53 103.08 259.82 113.11 261.7 120.65C242.19 94.82 220.44 76.5 197.78 60.65C190.05 55.24 181.47 50.02 172.29 46.94C162.53 43.66 149.06 39.81 140.24 47.43C136.46 50.69 134.49 55.67 133.96 60.64C133.3 66.78 134.34 73.27 136.01 79.19C140.01 93.35 146.44 106.7 153.89 119.27C161.34 131.85 177.73 152.51 177.73 152.51H339.49C338.24 146.08 335.56 139.97 331.72 134.89Z" fill="#909DF4"/>
<path d="M246.66 127.21C246.66 127.21 215.6 100.28 202.28 95.71C188.96 91.14 161.59 98.48 161.25 98.48C160.91 98.48 136.75 152.28 136.75 152.28H235.83L246.66 127.21Z" fill="#EF9748"/>
<path d="M305.66 200.33C307.93 202.69 310.28 204.97 312.71 207.16C315.06 209.27 317.63 211.15 319.93 213.31C320.5 213.84 321.01 214.43 321.53 215.01C323.4 217.13 325.29 219.27 326.66 221.75C326.84 222.08 327.02 222.42 327.29 222.68C327.56 222.94 327.96 223.1 328.32 222.99C328.7 222.88 328.93 222.51 329.09 222.16C329.75 220.67 329.59 218.95 329.18 217.38C328.92 216.37 328.57 215.38 328.28 214.37C328.05 213.54 327.7 212.64 327.83 211.77C334.48 214.55 339.89 219.59 345.96 223.48C347.2 224.28 349.94 224.58 350.4 223.48C351.01 222.03 342.16 215.47 338.1 211.13C341.16 212.69 344.4 214.33 347.16 216.38C349.07 217.8 351.16 219.02 353.44 219.74C354.72 220.15 357.66 220.75 357.06 218.41C356.88 217.72 356.36 217.18 355.85 216.68C351.89 212.83 347.1 210.12 342.94 206.49C347.63 208.34 351.93 211.65 356.97 211.83C357.46 211.85 357.99 211.82 358.38 211.52C358.97 211.06 359.17 210.42 358.78 209.78C358.4 209.14 357.73 208.73 357.1 208.34C352.43 205.48 347.56 202.32 342.88 199.46C345.39 200.14 347.72 201.37 350.12 202.37C352.53 203.36 355.13 204.13 357.71 203.81C358.54 203.71 359.57 203.17 359.39 202.35C359.3 201.96 358.94 201.69 358.6 201.46C352.92 197.58 347.24 193.69 341.56 189.81C339.97 188.72 338.37 187.63 336.74 186.6C334.77 185.36 332.5 184.44 330.67 183.05C329.24 181.96 327.52 181.16 325.99 180.22C322.21 177.9 318.55 175.39 315 172.73" fill="#FFCAA3"/>
<path d="M327.96 211.75C326.17 210.96 324.36 210.24 322.52 209.58" stroke="black" stroke-miterlimit="10"/>
<path d="M338.37 211.12C335.94 209.46 333.43 207.93 330.84 206.53" stroke="black" stroke-miterlimit="10"/>
<path d="M342.96 206.41C340.97 205.15 338.97 203.88 336.98 202.62" stroke="black" stroke-miterlimit="10"/>
<path d="M345.16 200.7C343.68 199.88 342.25 198.97 340.89 197.96" stroke="black" stroke-miterlimit="10"/>
<path d="M209.44 96.55C221.71 100.41 227.86 100.76 238.84 107.57C250.5 114.8 279.35 145.2 279.35 145.2C279.35 145.2 318.28 172.65 332.87 183.02L306.65 208C277.66 190.67 247.9 169.98 225.93 144.33" fill="#EF9748"/>
<path d="M164.93 147.07C164.93 147.07 177.1 140.55 182.45 139.2C189.87 137.33 198.66 136.81 201.02 137.53C202.12 137.87 206.28 139.57 208.45 142.12C210.76 143.13 211.7 143.64 213.07 144.21C214.44 144.78 215.09 146.4 216.52 147.63C217.96 148.86 219.53 152.29 219.53 152.29C219.53 152.29 208.58 152.33 205.51 152.43C202.43 152.53 199.11 158.4 192.23 160.48" fill="#FFCAA3"/>
<path d="M189.99 91.71C181.55 91.64 173.33 89.44 164.91 89.44C149.61 89.43 140.83 97.46 133.39 108.58C127.76 117 122.45 127.37 118.46 136.62C113.8 147.42 108.58 159.44 107.22 171.23C106.6 176.62 107.37 182.19 109.87 186.99C114.48 195.86 124.73 197.41 130.71 198.07C136.69 198.73 147.17 196.72 152.3 193.53C179.3 176.78 197.15 160 197.15 160L168.1 145.1L154.16 150.55L171.76 118.01" fill="#EF9748"/>
<path d="M170.33 120.66L154.16 150.56" stroke="black" stroke-miterlimit="10"/>
<path d="M168.1 145.1C159.77 148.33 151.44 151.57 143.11 154.8C137.42 157.01 131.85 161.37 127.31 165.43" stroke="black" stroke-miterlimit="10"/>
<path d="M158.12 149.17L188.22 167.69" stroke="black" stroke-miterlimit="10"/>
<path d="M239.02 134.67C235.04 141.26 229.52 152.27 229.52 152.27" stroke="black" stroke-miterlimit="10"/>
<path d="M322.24 175.49L293.03 199.81" stroke="black" stroke-miterlimit="10"/>
<path d="M207.32 145.22C209.44 145.78 211.59 146.21 213.76 146.49C214.43 146.58 215.13 146.66 215.7 147.03" stroke="black" stroke-miterlimit="10"/>
<path d="M209.19 142.68C208.81 142.49 208.42 142.35 208.02 142.2C205.92 141.43 203.77 140.65 201.53 140.71" stroke="black" stroke-miterlimit="10"/>
<path d="M202.39 153.63C203.52 152.81 204.92 152.44 206.31 152.3C209.19 152 212.28 152.62 215.04 151.54" stroke="black" stroke-miterlimit="10"/>
<path d="M94.1599 173.32C94.6299 184.72 101.9 195.57 112.26 200.34" stroke="black" stroke-miterlimit="10"/>
<path d="M86.09 172.82C86.33 180.26 89.4 187.46 94.16 191.75" stroke="black" stroke-miterlimit="10"/>
<path d="M249.97 100.69C258.86 108.21 267.11 116.48 274.61 125.38" stroke="black" stroke-miterlimit="10"/>
<path d="M250.16 91.77C256.36 96.37 262.04 101.67 267.06 107.53" stroke="black" stroke-miterlimit="10"/>
<path d="M178.42 106.87C173.72 105.18 169.37 102.67 165.08 100.13C163.26 99.05 161.42 97.95 159.95 96.42C158.48 94.9 157.4 92.88 157.44 90.77C157.48 88.82 158.46 87 159.67 85.47C163.45 80.7 169.57 78.23 175.63 77.68C181.69 77.13 187.77 78.3 193.69 79.7C202.59 81.8 211.68 84.59 218.55 90.64C220.48 92.34 222.23 94.31 223.31 96.65C224.8 99.88 224.91 103.61 224.27 107.11C223.63 110.61 222.29 113.93 220.96 117.23" fill="#EF9748"/>
<path d="M202.5 71.7L190.53 75.19L190.8 81.21L184.74 91.55C184.74 91.55 199.07 97.1 204.45 108.41C210.32 109.28 212.67 104.53 212.67 104.53L218.44 90.71" fill="#FFCAA3"/>
<path d="M230.67 83.71C231.7 77.78 232.94 71.35 232.85 66.63C232.77 62.63 232.16 56.59 229.57 53.45C226.24 49.41 220.19 49.35 215.1 48.78C206.75 47.85 200.98 55.41 198.51 62.48C196.61 67.91 196.77 73.2 198.53 78.8C200.83 86.11 208.98 95.93 219.58 94.73C225.21 94.09 229.58 90 230.67 83.71Z" fill="#FFCAA3"/>
<path d="M220.43 70.75C220.33 71.63 219.7 72.29 219.02 72.21C218.34 72.13 217.88 71.35 217.98 70.47C218.08 69.59 218.71 68.93 219.39 69.01C220.06 69.08 220.53 69.86 220.43 70.75Z" fill="black"/>
<path d="M231.98 71.84C231.88 72.72 231.25 73.38 230.57 73.3C229.89 73.22 229.43 72.44 229.53 71.56C229.63 70.68 230.26 70.02 230.94 70.1C231.62 70.18 232.08 70.96 231.98 71.84Z" fill="black"/>
<path d="M226.86 69.89C226.6 71.93 226.81 74.01 226.82 76.07C226.82 77.34 226.87 79.58 225.22 79.86C224.14 80.05 221.78 79.4 221.78 79.4" stroke="black" stroke-miterlimit="10"/>
<path d="M222.7 83.03L218.37 79.39C218.37 79.39 215.19 83.54 216.83 85.05C219.48 87.47 222.7 83.03 222.7 83.03Z" fill="white"/>
<path d="M229.72 54.72C231.63 57.71 232.68 60.11 232.76 69.07C233.67 68.84 234.6 68.61 235.42 68.15C236.24 67.69 236.96 66.96 237.2 66.05C237.65 64.36 236.39 62.7 236.32 60.95C236.27 59.69 236.85 58.49 237.53 57.43C238.06 56.62 238.67 55.8 238.8 54.84C238.98 53.49 238.13 52.2 237.12 51.28C234.86 49.23 231.83 48.41 229.23 46.91C227.97 46.18 227.3 45.04 226.14 44.19C224.82 43.22 223.41 42.38 221.94 41.68C218.53 40.05 214.8 39.18 211.03 39.02C203.73 38.71 196.52 41.43 191.43 46.53C184.7 53.27 182 66.13 186.22 73.57C188.6 77.77 190.78 81.21 190.78 81.21C191.05 81.64 196.87 76.41 197.23 75.7C197.59 74.98 197.73 74.17 197.95 73.4C198.7 70.76 201.33 70.32 203.58 69.49C206.86 68.29 208.5 65.37 209.14 62.07C209.51 60.17 209.56 58.23 209.61 56.3C209.6 56.73 212.25 57.66 212.65 57.79C216.56 59 220.99 59.21 224.96 58.14C226.13 57.82 227.38 57.42 228.31 56.62C228.58 56.4 230.15 55.15 229.72 54.72Z" fill="#1E1611"/>
<path d="M205.27 89.43C205.48 89.58 209.64 94.12 217.59 94.83" stroke="black" stroke-miterlimit="10"/>
<path d="M213.42 64.46C214.13 63.07 215.54 62.08 217.08 61.87C218.62 61.67 220.25 62.27 221.29 63.43" stroke="black" stroke-miterlimit="10"/>
<path d="M228.12 64.65C228.65 63.48 229.76 62.73 230.73 62.89C231.7 63.06 232.43 64.13 232.49 65.39" stroke="black" stroke-miterlimit="10"/>
<path d="M224.59 73.02C223.58 76.03 220.38 77.62 217.45 76.59C214.52 75.55 212.96 72.28 213.97 69.27C214.98 66.26 218.18 64.67 221.11 65.7C224.04 66.73 225.6 70.01 224.59 73.02Z" stroke="#572A2F" stroke-miterlimit="10"/>
<path d="M235.37 74.43C234.83 77.56 232.81 79.81 230.86 79.46C228.91 79.1 227.78 76.28 228.32 73.15C228.86 70.02 230.88 67.77 232.83 68.12C234.77 68.47 235.91 71.3 235.37 74.43Z" stroke="#572A2F" stroke-miterlimit="10"/>
<path d="M228.83 71.48L224.88 70.74" stroke="#572A2F" stroke-miterlimit="10"/>
<path d="M214.19 68.7L202.28 69.61" stroke="#572A2F" stroke-miterlimit="10"/>
<path d="M205.69 71.76C205.63 68.87 201.74 66.61 199.17 67.53C193.01 69.74 195.09 80.77 200.81 81.83C202.43 82.13 204.75 81.49 205.33 79.66" fill="#FFCAA3"/>
<path d="M198.72 72.45L204.02 77.24" stroke="black" stroke-miterlimit="10"/>
<path d="M202.97 68.2C204.26 68.98 205.3 70.17 205.93 71.57" stroke="black" stroke-miterlimit="10"/>
<path d="M195.65 76.63C196.44 78.99 198.06 81.49 200.63 81.91C202.41 82.2 204.45 81.42 205.18 79.58" stroke="black" stroke-miterlimit="10"/>
<path d="M182.05 60.39C182.17 56.51 182.6 52.6 183.86 48.92C185.12 45.25 187.28 41.8 190.38 39.47C192.1 38.18 194.06 37.25 196.05 36.44C197.72 35.75 199.43 35.13 201.2 34.76C207.83 33.35 214.71 35.45 220.92 38.17" fill="#FFC36C"/>
<path d="M223.9 38.69C222.26 37.11 220.14 36.09 217.94 35.53C216.63 35.19 215.27 35.01 213.91 35.08C213.21 35.12 212.51 35.22 211.81 35.35C207 36.3 202.67 38.82 198.5 41.4C192.93 44.84 187.38 48.55 183.3 53.67C181.83 55.52 180.52 57.65 180.39 60.01C180.32 61.32 180.61 62.62 181.04 63.86C181.76 65.95 183.46 68.92 184.88 70.61C197.12 59.16 210.87 50.1 226.74 44.72C226.66 42.44 225.54 40.27 223.9 38.69Z" fill="#FFC36C"/>
<path d="M182.85 54.26C182.85 54.26 193.18 39.85 212.36 35.07" stroke="black" stroke-miterlimit="10"/>
<path d="M188.22 55.88C189.73 58.5 191.28 61.16 193.54 63.17" stroke="black" stroke-miterlimit="10"/>
<path d="M200.29 45.05C201.86 48.35 203.8 51.49 206.08 54.38" stroke="black" stroke-miterlimit="10"/>
<path d="M213.1 38.17C215.74 40.89 218 43.99 219.79 47.33" stroke="black" stroke-miterlimit="10"/>
<path d="M217.52 36.61C219.79 39.41 221.78 42.73 223.26 45.96" stroke="black" stroke-miterlimit="10"/>
<path d="M182.21 57.5C182.95 61.65 185.38 65.17 188.48 67.67" stroke="black" stroke-miterlimit="10"/>
<path d="M175.14 87.71C180.99 89.9 186.9 92.11 192.11 95.56C197.32 99.01 202.59 103.86 204.45 109.82" stroke="black" stroke-miterlimit="10"/>
<path d="M208.5 108C211.16 106.72 213.33 104.43 214.45 101.7" stroke="black" stroke-miterlimit="10"/>
<path d="M157.43 90.15C160.14 105.69 180.64 102.72 190.19 107.54" stroke="black" stroke-miterlimit="10"/>
<path d="M224.62 101.44C224.25 103.57 223.51 105.7 222.09 107.34C219.96 109.8 216.65 110.82 213.53 111.73" stroke="black" stroke-miterlimit="10"/>
<path d="M216.36 108C217.78 117.77 219.22 128.73 218.77 138.59" stroke="black" stroke-miterlimit="10"/>
<path d="M194.64 105.76C196.12 109.82 195.43 120.83 195.27 130.77" stroke="black" stroke-miterlimit="10"/>
<path d="M293.86 390.33H71.22C67.76 390.33 64.95 387.52 64.95 384.06V233.31H300.13V384.06C300.13 387.52 297.32 390.33 293.86 390.33Z" fill="#D4BCDD"/>
<path d="M293.86 212.99C297.32 212.99 300.13 215.8 300.13 219.26V384.06C300.13 387.52 297.32 390.33 293.86 390.33H71.22C67.76 390.33 64.9499 387.52 64.9499 384.06V219.26C64.9499 215.8 67.76 212.99 71.22 212.99H293.86ZM293.86 211.49H71.22C66.93 211.49 63.45 214.98 63.45 219.26V384.06C63.45 388.35 66.94 391.83 71.22 391.83H293.86C298.15 391.83 301.63 388.34 301.63 384.06V219.26C301.63 214.97 298.14 211.49 293.86 211.49Z" fill="white"/>
<path d="M82.85 223.74C82.85 226.15 80.9 228.1 78.49 228.1C76.08 228.1 74.13 226.15 74.13 223.74C74.13 221.33 76.08 219.38 78.49 219.38C80.89 219.38 82.85 221.34 82.85 223.74Z" stroke="white" stroke-width="1.5" stroke-miterlimit="10"/>
<path d="M95.3899 228.1C97.7979 228.1 99.7499 226.148 99.7499 223.74C99.7499 221.332 97.7979 219.38 95.3899 219.38C92.9819 219.38 91.0299 221.332 91.0299 223.74C91.0299 226.148 92.9819 228.1 95.3899 228.1Z" stroke="white" stroke-width="1.5" stroke-miterlimit="10"/>
<path d="M64.95 233.31H300.13" stroke="white" stroke-width="1.5" stroke-miterlimit="10"/>
<path d="M277.53 390.33C274.37 382.54 270.07 375.25 264.81 368.78C261.58 364.81 257.83 361.03 253.1 359.28C248.37 357.53 242.46 358.3 239.24 362.28C236.78 365.32 236.31 369.53 235.94 373.48C228.14 365.11 220.25 356.66 210.74 350.45C201.23 344.24 189.69 339.83 178.68 342.24C166.47 344.92 166.47 360.35 166.47 360.35C166.47 360.35 158.98 349.86 158.31 348.87C153.3 341.55 147.64 334.84 141.61 328.4C135.69 322.08 130.06 315.42 123.39 309.9C116.75 304.4 105.96 297.37 97.0299 300.7C92.3799 302.43 91.0999 306.46 92.1299 311.11C93.0899 315.46 93.5999 319.82 94.9499 324.1C87.4399 315.73 78.8899 308.02 68.9799 302.81C61.8299 299.05 46.9099 292.68 39.4899 298.84C37.3499 300.62 36.3799 303.56 36.3099 306.39C35.9199 323.71 48.3999 342.33 58.4599 355.13C68.7799 368.26 81.2199 379.89 94.1099 390.34H277.53V390.33Z" fill="#FFDD99"/>
<path d="M232.34 312.07C231.01 319.43 231.4 327.04 231.44 334.57C231.48 342.09 232.08 347.02 229.36 353.85C226.9 360.02 221.77 362.11 219.09 368.15C217.73 371.23 212.55 390.32 212.55 390.32H143.08C143.08 390.32 141.13 360.3 151.85 334.69C162.56 309.07 175.96 304.48 175.96 304.48L215.48 294.29L232.34 312.07Z" fill="#735D9D"/>
<path d="M323.36 267.29C325.42 264.8 328.3 263.24 330.77 261.22C333.05 259.36 334.75 256.74 336.63 254.49C338.94 251.73 340.73 248.59 342.73 245.61C344.88 242.41 347.63 239.83 350.36 237.14C350.74 236.77 351.13 236.38 351.34 235.89C351.73 235.01 351.28 233.86 350.27 233.59C348.3 233.06 346.2 233.56 344.29 234.28C343.16 234.71 339.31 236.07 339.07 233.9C338.81 231.45 340.86 227.87 341.64 225.61C342.66 222.66 343.71 219.7 344.54 216.68C345.33 213.81 345.15 208.29 343.62 208.2C342.09 208.11 343.24 209.02 342.85 209.24C343.49 208.4 342.37 206.46 341.46 205.88C340.54 205.3 339.35 207.18 339.08 208.19C339.39 207.2 338.53 205.57 337.79 205.5C336.72 205.4 335.89 206.41 335.25 207.24C334.61 208.07 334.05 208.99 333.15 209.54C333.16 208.83 333.05 208.12 332.84 207.44C332.14 207.05 331.34 207.7 330.84 208.29C320.6 220.38 313.67 235.37 302.32 247.01" fill="#E27769"/>
<path d="M339.31 232.23C339.35 235.21 339.27 238.18 339.08 241.15" stroke="black" stroke-miterlimit="10"/>
<path d="M342.52 208.52C341.63 211.33 339.9 213.7 338.6 216.32C336.53 220.48 334.69 224.74 332.77 228.97" stroke="black" stroke-miterlimit="10"/>
<path d="M339 207.97C338.38 209.28 337.66 210.56 336.87 211.77C336.02 213.08 335.07 214.32 334.16 215.58C331.55 219.19 329.2 222.99 327.13 226.94" stroke="black" stroke-miterlimit="10"/>
<path d="M332.79 209.98C332.1 211.45 330.97 212.66 329.91 213.89C326.58 217.74 323.71 221.99 321.39 226.52" stroke="black" stroke-miterlimit="10"/>
<path d="M195.54 298.26C207.97 293.06 216.11 287.6 228.42 282.05C239.52 277.05 255.09 272.95 266.03 267.62C281.16 260.24 295.35 252.1 307.78 240.94L330.37 264.73C330.37 264.73 298.44 297.3 287.29 303.65C260.43 318.95 250.64 321.82 222.72 336.42" fill="#735D9D"/>
<path d="M231.12 332.33C231.28 326.71 232.56 321.13 234.87 316" stroke="black" stroke-miterlimit="10"/>
<path d="M300.24 247.2L322.64 272.35" stroke="black" stroke-miterlimit="10"/>
<path d="M191.92 367.22C201.4 367.4 210.83 368.89 219.05 373.88C222.99 376.28 225.19 379.48 226.28 383.93C227.2 387.69 227.5 391.71 227.16 395.56C227.13 395.93 226.85 396.26 226.53 396.34C226.08 396.45 225.19 396 225.19 396C225.19 396 226 399.82 225.14 400.62C224.54 401.17 223.42 400.42 223 399.96C222.51 399.42 221.83 398.05 221.83 398.05C221.83 398.05 222.4 400.24 221.92 400.62C221.21 401.18 219.16 399.76 218.68 398.32C218.38 399.14 217.9 399.89 217.14 399.69C214.77 399.06 212.92 395.71 210.97 394.05C208.38 391.84 204.91 391.69 201.68 391.74C200.19 391.76 198.7 391.8 197.22 391.65C195.7 391.5 194.33 390.9 192.85 390.6C190.09 390.04 187.21 389.79 184.42 389.62" fill="#E27769"/>
<path d="M209.42 386.96C212.02 388.04 214.78 389.24 216.24 391.47C216.68 392.14 216.98 392.87 217.25 393.61C217.82 395.16 218.25 396.75 218.68 398.34" stroke="black" stroke-miterlimit="10"/>
<path d="M213.15 382.26C214.63 383.2 216.08 384.2 217.33 385.43C218.58 386.65 219.64 388.11 220.21 389.77C220.54 390.72 220.7 391.71 220.86 392.7C221.2 394.73 221.55 396.77 221.91 398.8" stroke="black" stroke-miterlimit="10"/>
<path d="M218.23 379.03C220.69 380.87 222.62 383.41 223.72 386.28C224.69 388.82 225.02 391.55 225.34 394.25C225.44 395.1 225.54 395.96 225.64 396.81" stroke="black" stroke-miterlimit="10"/>
<path d="M181.48 300.08C181.48 300.08 161.87 302.98 154.34 307.3C142.57 314.06 137.4 324.37 129.9 341.87C122.4 359.36 119.36 367.04 119.29 372.84C119.18 381.37 123.02 390.32 138.72 390.32C166.68 390.32 188.77 390.32 188.77 390.32L198.87 366.73L159.92 360.64L170.67 335.48" fill="#735D9D"/>
<path d="M198.88 366.73L159.93 360.63L170.68 335.47" stroke="black" stroke-miterlimit="10"/>
<path d="M146.1 364.23C146.4 364.23 152.33 360.54 159.93 360.63" stroke="black" stroke-miterlimit="10"/>
<path d="M188.13 365.05L177.45 390.32" stroke="black" stroke-miterlimit="10"/>
<path d="M211.89 306.09C212.4 303.43 212.39 300.59 211.96 297.73" stroke="black" stroke-miterlimit="10"/>
<path d="M170.39 305.42C172.55 310.82 177.33 315.29 182.55 317.58C189.13 320.46 198.04 320.99 204.33 317.15C207.26 315.36 209.27 313 210.54 310.31" stroke="black" stroke-miterlimit="10"/>
<path d="M281 315.53C292.71 309.57 303.41 301.64 312.54 292.18" stroke="black" stroke-miterlimit="10"/>
<path d="M302.84 309.87C308.52 305.47 313.84 300.62 318.74 295.37" stroke="black" stroke-miterlimit="10"/>
<path d="M115.05 358.12C112.57 366.2 111.68 374.76 112.44 383.17" stroke="black" stroke-miterlimit="10"/>
<path d="M107.23 359.33C105.67 363.86 104.77 368.63 104.59 373.42" stroke="black" stroke-miterlimit="10"/>
<path d="M188.05 275.96L177.32 283.15L179.63 290.82L176.41 302.38C176.2 303.12 176.33 303.9 176.76 304.54C178.51 307.15 183.95 313.63 194.72 313.62C206.11 313.61 205.95 306.05 205.95 306.05L208.02 289.96" fill="#E27769"/>
<path d="M209.62 275.01C206.67 269.51 204.99 266.12 201.89 262.33C199.27 259.12 194.91 254.59 190.8 253.69C185.51 252.53 180.53 256.34 176.03 259.13C168.63 263.7 168.76 273.55 171.26 280.89C173.18 286.53 177.15 288.68 182.15 292.11C188.69 296.6 202.91 298.63 209.02 293.71C213.59 290.01 212.75 280.83 209.62 275.01Z" fill="#E27769"/>
<path d="M193.81 274.52C194.16 275.37 193.92 276.28 193.26 276.55C192.61 276.82 191.8 276.34 191.45 275.49C191.1 274.64 191.34 273.73 192 273.46C192.65 273.2 193.46 273.67 193.81 274.52Z" fill="black"/>
<path d="M204.31 268.74C204.66 269.59 204.42 270.5 203.76 270.77C203.11 271.04 202.3 270.56 201.95 269.71C201.6 268.86 201.84 267.95 202.5 267.68C203.15 267.41 203.96 267.88 204.31 268.74Z" fill="black"/>
<path d="M198.69 272.44C199.87 273.49 201.28 274.19 202.7 274.85C203.58 275.26 206.51 276.04 205.86 277.46C205.44 278.38 203.73 279.82 203.73 279.82" stroke="black" stroke-miterlimit="10"/>
<path d="M177.23 299.44C177.23 299.44 178.57 296.01 178.89 294.79C179.44 292.72 177.7 292.62 177.1 290.79C176.79 289.84 177.04 288.68 177.26 287.74C177.71 285.72 178.75 283.46 177.82 281.42C177.23 280.13 175.97 279.31 174.95 278.32C173.94 277.33 173.11 275.82 173.72 274.54C174.44 273.02 176.56 272.91 177.86 271.85C179.16 270.79 179.46 268.93 179.38 267.25C179.29 265.58 178.91 263.89 179.2 262.24C179.25 261.94 179.34 261.63 179.54 261.42C180.18 260.76 181.23 261.4 182.03 261.85C183.46 262.66 185.2 262.56 186.7 261.95C187.46 261.64 188.16 261.08 188.43 260.31C188.6 259.83 188.6 259.31 188.68 258.81C188.76 258.31 188.96 257.79 189.39 257.52C189.7 257.33 190.09 257.3 190.46 257.32C191.62 257.37 192.76 257.78 193.69 258.47C194.47 259.05 194.91 259.47 195.89 259.43C196.83 259.39 197.74 259.08 198.68 259.36C199.82 259.69 200.57 260.73 201.24 261.71C203.08 264.39 204.93 267.08 206.77 269.76C207.69 268.43 208.63 267.07 209.08 265.52C209.53 263.97 209.43 262.16 208.41 260.9C207.43 259.69 205.75 259.15 204.91 257.83C203.99 256.37 204.13 254.27 204.03 252.62C203.92 250.82 203.37 249 202.34 247.48C201.34 246.01 199.67 244.87 197.9 245C196.88 245.08 195.9 245.57 194.87 245.54C194.24 245.52 193.62 245.3 193.04 245.05C190.34 243.89 188 242.01 185.31 240.83C182.62 239.65 179.24 239.29 176.92 241.09C175.73 242.01 174.94 243.41 173.64 244.18C169.9 246.4 164.54 242.22 160.98 244.71C158.68 246.32 158.61 249.79 156.68 251.82C154.21 254.41 149.71 253.73 146.9 255.96C144.07 258.21 144.06 262.69 145.76 265.89C146.6 267.47 147.82 269.09 147.46 270.84C147.23 271.93 146.43 272.79 145.75 273.67C144.77 274.93 143.98 276.38 143.78 277.96C143.58 279.54 144.07 281.26 145.29 282.29C146.05 282.93 147.2 283.23 147.77 284.06C148.41 284.99 148.6 286.66 148.72 287.75C148.83 288.71 148.84 289.7 149.14 290.62C149.93 293.14 152.72 294.65 155.37 294.65C156.59 294.65 157.93 294.42 158.94 295.11C159.77 295.68 160.11 296.72 160.62 297.6C162.26 300.45 166.25 301.64 169.19 300.17C170.29 299.62 171.31 298.73 172.55 298.71C173.76 298.69 176.07 299.64 177.23 299.44Z" fill="#2C221D"/>
<path d="M194.48 296.28C197.79 297.1 204.05 297.28 208.8 294.28" stroke="black" stroke-miterlimit="10"/>
<path d="M185.54 274.26C185.53 270.94 187.72 267.76 191.3 268.39" stroke="black" stroke-miterlimit="10"/>
<path d="M197.86 266C197.75 265.06 198.46 263.95 199.53 263.41C200.6 262.87 201.93 262.95 202.67 263.56" stroke="black" stroke-miterlimit="10"/>
<path d="M183.03 283.85C181.14 281.54 176.52 282.18 175.02 284.57C171.41 290.31 180.15 297.97 185.49 295.18C187 294.39 188.49 292.39 187.78 290.53" fill="#E27769"/>
<path d="M177.8 288.86L185.17 289.38" stroke="black" stroke-miterlimit="10"/>
<path d="M178.54 282.68C180.09 282.49 181.7 282.79 183.1 283.54" stroke="black" stroke-miterlimit="10"/>
<path d="M177.96 294.23C180.11 295.65 183.03 296.65 185.39 295.35C187.03 294.45 188.19 292.51 187.61 290.54" stroke="black" stroke-miterlimit="10"/>
<path d="M199.84 280.37C199.36 282.15 199.95 284.48 201.99 284.85C203.52 285.13 205.17 284.19 205.67 282.71" stroke="black" stroke-miterlimit="10"/>
<path d="M607.75 179.23H384.85C381.39 179.23 378.58 176.42 378.58 172.96V62.77H614.02V172.96C614.02 176.42 611.21 179.23 607.75 179.23Z" fill="#D5D8BC"/>
<path d="M607.75 46.05C611.21 46.05 614.02 48.86 614.02 52.32V172.96C614.02 176.42 611.21 179.23 607.75 179.23H384.85C381.39 179.23 378.58 176.42 378.58 172.96V52.32C378.58 48.86 381.39 46.05 384.85 46.05H607.75ZM607.75 44.55H384.85C380.56 44.55 377.08 48.04 377.08 52.32V172.96C377.08 177.25 380.57 180.73 384.85 180.73H607.75C612.04 180.73 615.52 177.24 615.52 172.96V52.32C615.52 48.03 612.03 44.55 607.75 44.55Z" fill="white"/>
<path d="M389.72 51.31C391.7 51.31 393.31 52.92 393.31 54.9C393.31 56.88 391.7 58.49 389.72 58.49C387.74 58.49 386.13 56.88 386.13 54.9C386.13 52.92 387.73 51.31 389.72 51.31ZM389.72 49.81C386.91 49.81 384.63 52.09 384.63 54.9C384.63 57.71 386.91 59.99 389.72 59.99C392.53 59.99 394.81 57.71 394.81 54.9C394.8 52.09 392.52 49.81 389.72 49.81Z" fill="white"/>
<path d="M403.63 51.31C405.61 51.31 407.22 52.92 407.22 54.9C407.22 56.88 405.61 58.49 403.63 58.49C401.65 58.49 400.04 56.88 400.04 54.9C400.04 52.92 401.65 51.31 403.63 51.31ZM403.63 49.81C400.82 49.81 398.54 52.09 398.54 54.9C398.54 57.71 400.82 59.99 403.63 59.99C406.44 59.99 408.72 57.71 408.72 54.9C408.72 52.09 406.43 49.81 403.63 49.81Z" fill="white"/>
<path d="M378.58 62.77H614.02" stroke="white" stroke-width="1.5" stroke-miterlimit="10"/>
<path d="M581.87 158.41C577.46 151.05 572.79 143.4 565.55 138.91C558.31 134.42 547.71 134.25 542.3 140.89C537.51 146.78 538.4 155.36 539.55 162.91C534.22 156.1 527.97 150.04 521.04 144.93C515.69 140.99 509.79 137.56 503.3 136.33C496.56 135.05 488.86 136.46 483.33 140.63C475.78 146.32 475.89 155.28 476.64 163.93C467.47 146.56 457.29 129.32 443.18 115.43C439.53 111.84 435.24 108.72 430.3 107.35C427.47 106.56 424.27 106.41 421.74 107.89C417.88 110.14 416.86 115.22 416.75 119.69C416.62 125.08 417.24 130.48 418.59 135.7C416.13 133.05 412.88 131.1 409.33 130.42C401.16 128.86 393.1 135.03 392.64 143.42C392.16 152.14 397.46 160.47 401.52 167.8C403.07 170.59 404.65 173.37 406.4 176.04C406.74 176.56 408.04 179.15 408.83 179.15H593.57C589.66 172.64 585.77 164.91 581.87 158.41Z" fill="#B5AE6B"/>
<mask id="mask0_22_2252" style="mask-type:luminance" maskUnits="userSpaceOnUse" x="378" y="46" width="237" height="134">
<path d="M607.75 179.23H384.85C381.39 179.23 378.58 176.42 378.58 172.96V52.32C378.58 48.86 381.39 46.05 384.85 46.05H607.75C611.21 46.05 614.02 48.86 614.02 52.32V172.96C614.02 176.42 611.21 179.23 607.75 179.23Z" fill="white"/>
</mask>
<g mask="url(#mask0_22_2252)">
<path d="M598.04 170.97L536.25 52.55L518.69 51.52L504.9 62.77L469.43 88.56L509.31 205.42L598.04 170.97Z" fill="white"/>
<path d="M481.95 86.86C485.4 89.73 490.2 90.9 494.58 89.94" stroke="black" stroke-miterlimit="10"/>
<path d="M498.9 88.56C503.22 87.11 507.05 84.24 509.67 80.52C512.29 76.79 513.67 72.21 513.57 67.66" stroke="black" stroke-miterlimit="10"/>
<path d="M581.18 126.94C570.49 106.55 538.41 42.3 529.94 45.46C520.23 49.09 509.3 58.45 509.3 58.45C509.3 58.45 514.53 75.2 514.93 76.79C516.38 82.58 517.88 88.36 519.42 94.13C523.25 108.49 526.67 123.06 531.4 137.16C536.21 151.48 541.54 165.63 547.28 179.6C549.58 185.2 551.43 191.76 555.82 196.15C558.31 198.68 561.78 200.45 565.32 200.13C567.76 199.92 570 198.76 572.17 197.62C581.72 192.62 608.33 180.7 608.33 180.7C608.33 180.7 594.66 152.66 581.18 126.94Z" fill="#4C4139"/>
<path d="M526.67 205.3C524.07 195.84 519.62 187.13 516.33 177.93C512.02 165.9 508.19 153.69 503.75 141.71C496.97 123.42 487.35 98.14 479.99 80.08C479.99 80.08 466.49 87.82 463.77 89.7C461.05 91.58 461.64 96.05 461.64 96.05C472.38 136.12 504.92 227.11 504.92 227.11C508.77 225.07 518.33 219.71 522.18 217.67C527.25 214.98 528.13 210.62 526.67 205.3Z" fill="#4C4139"/>
<path d="M466.44 88.01C478.92 107.18 488.63 122.79 501.64 141.6" stroke="black" stroke-miterlimit="10"/>
<path d="M526.24 50.3C528.83 75.73 530.41 101.26 530.97 126.81" stroke="black" stroke-miterlimit="10"/>
</g>
<path d="M396.72 186.05C394.12 188.03 391.44 189.92 388.7 191.71C386.05 193.43 383.22 194.89 380.62 196.67C379.98 197.11 379.38 197.61 378.78 198.1C376.6 199.91 374.4 201.73 372.67 203.97C372.44 204.27 372.21 204.58 371.9 204.79C371.59 205 371.17 205.1 370.83 204.94C370.48 204.77 370.3 204.37 370.2 204C369.78 202.43 370.21 200.75 370.85 199.26C371.26 198.3 371.76 197.38 372.2 196.43C372.56 195.64 373.04 194.81 373.05 193.93C366.05 195.65 359.92 199.79 353.33 202.71C351.98 203.31 349.23 203.18 348.94 202.02C348.56 200.49 358.32 195.38 362.99 191.72C359.73 192.79 356.27 193.91 353.23 195.51C351.12 196.62 348.87 197.5 346.51 197.86C345.18 198.06 342.19 198.21 343.14 195.99C343.42 195.34 344.02 194.88 344.6 194.47C349.11 191.28 354.25 189.33 358.93 186.39C354.01 187.49 349.25 190.1 344.25 189.5C343.76 189.44 343.24 189.33 342.91 188.97C342.4 188.43 342.3 187.76 342.78 187.19C343.26 186.62 343.98 186.31 344.66 186.02C349.72 183.92 355.02 181.55 360.07 179.44C357.48 179.73 355 180.58 352.46 181.19C349.93 181.8 347.24 182.16 344.74 181.44C343.93 181.21 343 180.52 343.31 179.74C343.46 179.36 343.86 179.16 344.22 178.98C350.43 176.02 356.64 173.06 362.85 170.1C364.59 169.27 366.34 168.44 368.11 167.68C371.96 166.02 375.68 164.13 379.54 162.47C383.59 160.73 387.67 159.05 391.76 157.42" fill="#D16159"/>
<path d="M372.92 193.89C374.81 193.39 376.71 192.95 378.63 192.58" stroke="black" stroke-miterlimit="10"/>
<path d="M362.73 191.66C365.38 190.39 368.1 189.27 370.87 188.29" stroke="black" stroke-miterlimit="10"/>
<path d="M358.92 186.29C361.08 185.35 363.25 184.41 365.41 183.47" stroke="black" stroke-miterlimit="10"/>
<path d="M357.64 180.32C359.23 179.74 360.78 179.06 362.28 178.27" stroke="black" stroke-miterlimit="10"/>
<path d="M463.76 89.7C459.14 92.78 454.56 96.22 451.63 99.41C446.92 104.53 419.26 138.06 419.26 138.06C419.26 138.06 390.92 155.15 374.68 164.59L392.44 193.52C392.44 193.52 425.36 181.68 442.15 169.89C457.41 159.17 486.63 124.04 486.63 124.04" fill="#4C4139"/>
<path d="M475.34 138.06L466.44 110.38" stroke="black" stroke-miterlimit="10"/>
<path d="M389.63 155.79L409.33 186.4" stroke="black" stroke-miterlimit="10"/>
<path d="M387.21 184.99L403.56 177.42" stroke="black" stroke-miterlimit="10"/>
<path d="M398.16 177.04C398.24 177.79 397.7 178.46 396.95 178.55C396.2 178.63 395.53 178.09 395.44 177.34C395.36 176.59 395.9 175.92 396.65 175.83C397.4 175.75 398.07 176.29 398.16 177.04Z" stroke="black" stroke-miterlimit="10"/>
<path d="M390.17 180.67C390.927 180.67 391.54 180.057 391.54 179.3C391.54 178.543 390.927 177.93 390.17 177.93C389.413 177.93 388.8 178.543 388.8 179.3C388.8 180.057 389.413 180.67 390.17 180.67Z" stroke="black" stroke-miterlimit="10"/>
<path d="M419.07 138.47C419.05 138.29 419.02 138.1 419 137.92C422.77 136.79 426.38 135.09 429.65 132.89" stroke="black" stroke-miterlimit="10"/>
<path d="M432.4 105.85C437.76 99.41 444.31 93.97 451.63 89.89" stroke="black" stroke-miterlimit="10"/>
<path d="M436.72 91.14C441.79 87.37 447.33 84.23 453.17 81.83" stroke="black" stroke-miterlimit="10"/>
<path d="M490.92 38.48L494.88 50.2L509 63.86C509 63.86 509.37 71.99 501.38 80.51C493.45 88.96 484.87 83.29 484.87 83.29L474.62 68.22" fill="#D16159"/>
<path d="M457.86 69.03C456.24 63.83 454.19 52.6 454.34 48.33C454.47 44.71 455.56 41.17 457.94 38.37C461.01 34.77 468.22 36.06 472.83 35.62C480.4 34.9 485.12 43.87 487.26 50.29C488.9 55.23 489.68 60.31 488 65.35C485.28 73.54 476.55 81.81 467.31 79.57C462.3 78.36 459.44 74.07 457.86 69.03Z" fill="#D16159"/>
<path d="M498.06 37.02C496.85 35.72 495.18 34.71 494.64 33.01C494.34 32.07 493.88 29.27 493.57 28.33C491.88 23.11 487.5 21.36 482.53 22.22C482 17.23 476.7 16.74 472.35 16.69C470.54 16.67 468.69 16.49 467.07 15.63C465.35 14.71 463.8 13.41 461.79 13.22C460 13.05 458.16 13.64 456.68 14.62C451.52 18.01 450.05 24.57 443.73 26.55C441.73 27.18 439.65 27.36 437.92 28.67C436.63 29.65 435.68 31.11 435.5 32.71C435.24 35 436.76 36.4 438.32 37.79C440.14 39.42 441.21 41.49 441.06 43.96C440.97 45.46 440.57 46.92 440.33 48.4C439.65 52.62 441 56.6 444.53 59.16C445.27 59.7 446.28 60.2 449.01 60.79C450.93 61.21 455.92 60.49 455.92 60.49C455.92 60.49 454.69 53.32 454.71 50.52C454.73 47.86 455.54 45.39 457.1 43.27C458.43 41.46 461.33 40.82 463.48 40.92C466.71 41.07 469.81 42.85 473.02 42.47C474.36 42.31 475.63 41.75 476.68 40.91C481.01 43.71 485.48 47.83 486.48 52.85C486.53 53.1 487.17 56.08 486.94 56.13C490.65 55.35 495.32 55.05 496.99 51C497.56 49.6 497.28 48.13 497.71 46.72C498.07 45.55 499.12 44.69 499.61 43.56C500.54 41.38 499.68 38.75 498.06 37.02Z" fill="#2C221D"/>
<path d="M482.64 52.24C482.83 49.01 487.29 46.65 490.12 47.79C496.92 50.53 494.11 62.79 487.66 63.72C485.83 63.98 483.26 63.17 482.7 61.09" fill="#D16159"/>
<path d="M490.4 53.32L484.27 58.45" stroke="black" stroke-miterlimit="10"/>
<path d="M485.84 48.38C484.36 49.19 483.14 50.48 482.38 52.03" stroke="black" stroke-miterlimit="10"/>
<path d="M493.66 58.13C492.67 60.74 490.75 63.46 487.86 63.82C485.85 64.07 483.61 63.11 482.87 61.01" stroke="black" stroke-miterlimit="10"/>
<path d="M480.37 76.68C480.37 76.68 483.67 74.58 485.84 69.96" stroke="black" stroke-miterlimit="10"/>
<path d="M463.37 56.61C463.68 59.49 463.99 62.37 464.32 65.24C464.37 65.64 464.42 66.06 464.7 66.35C465.79 67.5 468.27 66.95 469.43 66.26" stroke="black" stroke-miterlimit="10"/>
<path d="M472.14 67.45L467.16 70.36C467.16 70.36 469.09 74.05 471.01 73.33C474.61 71.98 472.14 67.45 472.14 67.45Z" fill="white"/>
<path d="M465.91 50.39C466.42 49.34 467.47 48.64 468.58 48.28C470.45 47.68 472.6 47.97 474.23 49.06" stroke="black" stroke-miterlimit="10"/>
<path d="M454.28 54.57C454.46 53.47 455.09 52.64 455.82 52.14C457.06 51.3 458.66 51.31 460.04 52.16" stroke="black" stroke-miterlimit="10"/>
<path d="M472.49 54.68C472.74 55.75 472.28 56.78 471.44 56.98C470.61 57.18 469.73 56.47 469.47 55.39C469.22 54.32 469.68 53.29 470.52 53.09C471.35 52.9 472.23 53.61 472.49 54.68Z" fill="black"/>
<path d="M461.02 58.1C461.27 59.17 460.81 60.2 459.97 60.4C459.14 60.6 458.26 59.89 458 58.81C457.75 57.74 458.21 56.71 459.05 56.51C459.88 56.31 460.76 57.02 461.02 58.1Z" fill="black"/>
<path d="M457.99 42.32C455.85 43.47 454.92 45.98 453.47 47.94C451.13 51.09 447.08 52.89 443.17 52.51" stroke="#635149" stroke-miterlimit="10"/>
<path d="M477.04 40.63C478.98 38.84 480.37 36.47 480.98 33.9" stroke="#635149" stroke-miterlimit="10"/>
<path d="M658.67 305.32H491.08C487.62 305.32 484.81 302.51 484.81 299.05V179.98H664.95V299.05C664.94 302.51 662.13 305.32 658.67 305.32Z" fill="#F9D4BB"/>
<path d="M658.67 163.25C662.13 163.25 664.94 166.06 664.94 169.52V299.04C664.94 302.5 662.13 305.31 658.67 305.31H491.08C487.62 305.31 484.81 302.5 484.81 299.04V169.53C484.81 166.07 487.62 163.26 491.08 163.26H658.67M658.67 161.75H491.08C486.79 161.75 483.31 165.24 483.31 169.52V299.04C483.31 303.33 486.8 306.81 491.08 306.81H658.67C662.96 306.81 666.44 303.32 666.44 299.04V169.53C666.44 165.24 662.96 161.75 658.67 161.75Z" fill="white"/>
<path d="M499.53 172.11C499.53 174.09 497.92 175.7 495.94 175.7C493.96 175.7 492.35 174.09 492.35 172.11C492.35 170.13 493.96 168.52 495.94 168.52C497.93 168.52 499.53 170.12 499.53 172.11Z" stroke="white" stroke-width="1.5" stroke-miterlimit="10"/>
<path d="M513.44 172.11C513.44 174.09 511.83 175.7 509.85 175.7C507.87 175.7 506.26 174.09 506.26 172.11C506.26 170.13 507.87 168.52 509.85 168.52C511.84 168.52 513.44 170.12 513.44 172.11Z" stroke="white" stroke-width="1.5" stroke-miterlimit="10"/>
<path d="M484.81 179.98H664.94" stroke="white" stroke-width="1.5" stroke-miterlimit="10"/>
<path d="M618.51 257.06C614.38 256.34 613.22 267.43 615.2 271.12C609.77 263.35 602.89 251.45 597.46 243.69C591.37 234.98 584.09 224.13 573.1 221.29C563.2 218.73 558.04 227.36 557.88 236.16C557.73 244.59 558.58 253.09 560.14 261.36C561.84 270.38 564.05 280.66 568.96 288.53C563.74 280.16 555.39 277.33 546.05 278.11C541.7 278.47 537.18 279.94 534.44 283.33C530.05 288.75 531.7 298.61 533.57 305.33C537.65 305.33 541.73 305.33 545.82 305.33C567.53 305.33 653.55 305.37 653.55 305.37C653.55 305.37 631.9 259.4 618.51 257.06Z" fill="#EF9748"/>
<path d="M493.76 241.43C475.86 241.7 458.12 237.91 441 232.69C423.88 227.47 392.69 216.02 392.69 216.02L383.78 242.91C383.78 242.91 429.89 272.12 491.25 277.11" fill="#E27769"/>
<path d="M532.09 248.74C520.16 238.62 494.32 239.34 486.91 239.63C479.5 239.92 466.3 237.73 466.3 237.73L461.44 278.24C461.44 278.24 488.88 282.84 504.14 283.96" fill="#2C221D"/>
<path d="M498.48 258.45C500.35 263.73 499.5 271.5 499.52 277.11C499.54 282.11 501.3 284.89 502.03 289.83C502.91 295.74 506.27 299.96 509.8 305.31H585.79L581.79 263.18L571.45 248.23L549.61 242.41L500.3 255.38" fill="#2C221D"/>
<path d="M522.34 248.23C521.58 250.91 521.03 253.91 521.49 256.68C522.03 259.93 524.09 261.97 527.03 263.18" stroke="#6D574E" stroke-miterlimit="10"/>
<path d="M530.76 264.08C544.23 266.49 558.4 256.87 559.75 244.61" stroke="#6D574E" stroke-miterlimit="10"/>
<path d="M632.07 300.46C630.98 297.29 628.92 294.54 626.81 291.93C621 284.76 614.5 278.14 607.42 272.22L581.99 295.37L597.73 310.62L579.35 343.93L603.73 350.89C603.73 350.89 622.39 330.29 629.53 318.8C633.03 313.16 634.25 306.78 632.07 300.46Z" fill="#E27769"/>
<path d="M584.21 336.46C584.21 336.46 573.55 351.8 572.47 354.57C571.5 357.06 570.97 360.17 570.59 362.82C569.54 370.13 573.46 377.64 576.41 381.19C576.74 381.59 577.24 381.85 577.73 381.94C578.82 382.14 579.26 381.58 579.24 380.28C579.84 381.09 580.44 381.9 581.03 382.72C581.28 383.06 581.54 383.4 581.89 383.58C582.57 383.92 583.42 383.51 583.94 382.84C584.46 382.18 584.73 381.31 584.98 380.48C585.61 381.4 586.6 382.36 587.54 381.8C588.49 381.24 589.31 379.21 589.09 378.05C589.4 379.07 590.76 379.1 591.5 378.36C592.24 377.62 592.51 376.45 592.73 375.36C593.29 372.61 593.82 369.76 595.16 367.36C596.06 365.75 597.28 364.42 598.35 362.96C601.82 358.18 603.54 352.09 604.66 346.09" fill="#E27769"/>
<path d="M591.21 360.11C590.73 361.17 590.25 362.24 589.77 363.3C589.38 364.16 588.99 365.03 588.68 365.92C587.28 369.91 587.51 374.48 589.31 378.27" stroke="black" stroke-miterlimit="10"/>
<path d="M583.18 359.72C582.2 364.55 581.8 370.36 582.5 373.99C582.95 376.34 583.98 378.58 585.24 380.6" stroke="black" stroke-miterlimit="10"/>
<path d="M576.16 357.9C576.16 357.9 575.53 361.46 575.39 363.48C574.92 369.88 575.77 376.06 579.26 380.81" stroke="black" stroke-miterlimit="10"/>
<path d="M390.51 243.36C388.59 243.17 386.67 242.99 384.76 242.8C383.04 242.63 381.31 242.46 379.67 241.94C378.57 241.59 377.54 241.08 376.5 240.58C372.24 238.51 370.06 237.88 365.98 235.48C363.64 234.1 361.24 232.8 358.75 231.72C356.31 230.66 353.77 230.09 351.51 228.66C351.31 228.54 351.11 228.4 351.02 228.18C350.95 228.02 350.96 227.83 350.98 227.65C351.5 223.97 359.01 224.81 361.93 225.63C362.81 225.88 363.72 226.17 364.62 225.99C364.68 224.82 364.16 223.7 363.59 222.67C361.91 219.65 359.45 217.25 357.23 214.63C355.18 212.2 353.09 209.78 351.2 207.22C349.43 204.83 347.6 199.61 348.99 198.98C350.38 198.34 349.64 199.61 350.09 199.67C349.19 199.12 349.53 196.91 350.18 196.04C350.83 195.17 352.61 196.49 353.23 197.33C352.58 196.52 352.8 194.69 353.46 194.36C354.42 193.88 355.56 194.53 356.45 195.07C357.34 195.61 358.2 196.27 359.24 196.45C358.98 195.79 358.82 195.09 358.78 194.38C359.29 193.76 360.27 194.08 360.95 194.45C374.86 202.03 386.73 213.51 401.53 220.26" fill="#E27769"/>
<path d="M361.69 219.87C363.25 222.11 364.3 224.8 365.12 228.11" stroke="black" stroke-miterlimit="10"/>
<path d="M350.14 198.91C351.99 201.21 354.45 202.8 356.61 204.77C360.04 207.9 363.3 211.21 366.61 214.46" stroke="black" stroke-miterlimit="10"/>
<path d="M353.23 197.13C354.29 198.13 355.41 199.06 356.59 199.91C357.86 200.82 359.19 201.64 360.49 202.49C364.23 204.92 367.79 207.61 371.15 210.55" stroke="black" stroke-miterlimit="10"/>
<path d="M359.74 196.76C360.91 197.88 362.4 198.61 363.84 199.37C368.34 201.76 372.54 204.69 376.35 208.08" stroke="black" stroke-miterlimit="10"/>
<path d="M391.07 244.24C391.07 244.24 383.21 243.17 380 242.33" stroke="black" stroke-miterlimit="10"/>
<path d="M565.05 246.56C570.46 247.08 575.88 247.59 581.03 249.53C587.54 251.99 593.2 256.61 598.53 261.33C604.1 266.26 609.78 272.98 615.19 278.13L587.42 302.43L567.76 283.27" fill="#2C221D"/>
<path d="M597.73 310.62C597.73 310.62 601.84 305.36 606 302.44" stroke="black" stroke-miterlimit="10"/>
<path d="M579.34 294.56L608.3 271.12" stroke="#6D574E" stroke-miterlimit="10"/>
<path d="M472.06 279.93L476.26 239.06" stroke="#6D574E" stroke-miterlimit="10"/>
<path d="M498.48 272.21C498.48 272.21 500.4 280.93 500.93 284.67" stroke="#6D574E" stroke-miterlimit="10"/>
<path d="M566.78 283.21C572.8 287.86 587.43 302.44 587.43 302.44" stroke="#6D574E" stroke-miterlimit="10"/>
<path d="M535.89 217.57L548.83 222.82L548.07 231.45L554.59 244.06C554.59 244.06 551.41 255.95 537.12 258.91C525.06 261.41 525.33 253.63 525.33 253.63L519.59 237.05" fill="#E27769"/>
<path d="M508.55 224.21C510.46 217.74 511.49 213.77 513.94 209.07C516.01 205.09 519.62 199.33 523.77 197.47C529.11 195.07 535.22 198.01 540.61 199.97C549.45 203.18 551.49 213.64 550.46 221.95C549.67 228.34 545.94 231.49 541.4 236.23C535.46 242.43 520.85 247.71 513.31 243.85C507.66 240.98 506.52 231.06 508.55 224.21Z" fill="#E27769"/>
<path d="M600.99 263.31C604.47 262.17 606.18 258.07 605.99 255.17C605.68 250.49 603.49 248.07 603.13 245.18C602.9 243.3 603.46 241.39 603.3 239.5C603.04 236.38 600.77 233.66 597.97 232.25C595.17 230.84 591.92 230.59 588.79 230.87C586.4 231.08 583.99 231.59 581.61 231.26C579.62 230.98 577.76 230.11 576.03 229.1C572.97 227.3 570.17 224.97 568.2 222.01C564.85 216.99 564.13 210.68 561.55 205.22C560.25 202.47 558.44 199.97 556.27 197.84C551.01 192.66 546 190.74 538.54 190.49C533.43 190.32 526.32 191 522.42 195.77C522.42 195.77 514.86 195.96 511.26 199.77C506.98 204.29 507.29 210.83 511.03 216.04C512.96 212.87 514.61 209.52 517.43 207.08C517.1 207.59 517.26 208.31 517.68 208.76C518.1 209.2 518.72 209.4 519.33 209.45C520.95 209.58 522.47 208.78 523.89 207.99C523.41 209.27 523.21 210.66 523.3 212.02C523.32 212.31 523.36 212.61 523.55 212.83C523.77 213.08 524.12 213.15 524.45 213.17C526.68 213.36 528.97 212.29 530.25 210.46C529.64 212.12 529.11 214.2 530.34 215.46C531.21 216.36 532.67 216.42 533.83 215.95C534.99 215.48 535.9 214.58 536.79 213.7C536.36 214.12 536.92 216.51 537.03 217.06C537.26 218.27 537.63 219.44 538.04 220.59C539.3 224.14 540.86 227.6 542.88 230.79C544.97 234.08 547.95 236.58 550.08 239.78C551.43 241.81 552.57 244.04 554.39 245.67C556.62 247.67 559.7 249.18 562.63 249.78C565.59 250.38 568.64 250.11 571.63 250.01C582.66 249.65 591.04 255.18 600.99 263.31Z" fill="#893D33"/>
<path d="M575.22 191.77C574.58 190.2 573.65 188.76 572.46 187.66C568.15 183.69 558.76 183.95 555.55 189.34C553.79 192.3 554.64 196.11 555.98 199.29L558.62 205.08C562.3 207.08 566.95 207.16 570.7 205.3C573.83 203.74 576.04 200.87 576.2 197.32C576.28 195.49 575.94 193.55 575.22 191.77Z" fill="#893D33"/>
<path d="M536.89 225.34C537.79 222.67 542.08 221.69 544.2 223.3C549.3 227.16 544.15 236.83 538.51 236.15C536.91 235.96 534.93 234.69 534.93 232.81" fill="#E27769"/>
<path d="M543.18 228.02L536.84 230.94" stroke="black" stroke-miterlimit="10"/>
<path d="M540.46 222.82C539.03 223.17 537.71 223.97 536.72 225.1" stroke="black" stroke-miterlimit="10"/>
<path d="M544.83 232.81C543.4 234.78 541.16 236.63 538.65 236.28C536.9 236.04 535.23 234.71 535.09 232.78" stroke="black" stroke-miterlimit="10"/>
<path d="M522.53 245.52C522.53 245.52 528.47 245.24 534.49 241.17" stroke="black" stroke-miterlimit="10"/>
<path d="M516.28 220.96C515.34 222.6 514.36 224.28 512.85 225.41C512.49 225.68 512.1 225.92 511.8 226.26C511.38 226.75 511.2 227.44 511.33 228.07C511.46 228.7 511.89 229.27 512.47 229.56" stroke="black" stroke-miterlimit="10"/>
<path d="M513.61 233.38C514.56 234.17 515.98 234.48 517.11 233.88C518.53 233.12 518.56 231.3 518.61 229.89" stroke="black" stroke-miterlimit="10"/>
<path d="M523.22 217.44C524.26 217.22 525.35 217.17 526.38 217.42C527.41 217.66 528.39 218.21 529.05 219.04C529.89 220.1 530.15 221.48 530.38 222.81" stroke="black" stroke-miterlimit="10"/>
<path d="M511.65 213.49C512.64 212.78 514.02 212.73 515.12 213.27C516.21 213.8 517.01 214.85 517.36 216.02" stroke="black" stroke-miterlimit="10"/>
<path d="M524.96 223.42C524.55 224.27 523.73 224.72 523.12 224.43C522.51 224.14 522.34 223.21 522.75 222.36C523.16 221.51 523.98 221.06 524.59 221.35C525.2 221.65 525.37 222.57 524.96 223.42Z" fill="black"/>
<path d="M513.73 219.73C513.32 220.58 512.5 221.03 511.89 220.74C511.28 220.45 511.11 219.52 511.52 218.67C511.93 217.82 512.75 217.37 513.36 217.66C513.97 217.95 514.14 218.88 513.73 219.73Z" fill="black"/>
<path d="M630.24 335.7C636.33 329.5 640.65 321.58 642.56 313.1" stroke="black" stroke-miterlimit="10"/>
<path d="M644.19 332.25C646.03 328.61 647.21 324.64 647.64 320.59" stroke="black" stroke-miterlimit="10"/>
<path d="M524.91 138.01C524.91 138.01 514.5 142.78 507.51 145.95C503.56 147.74 496.93 152.64 494.67 156.37C491.79 161.11 491.04 166.98 491.37 171.83C491.59 175.04 493.05 178.67 495.2 182.16C496.61 184.46 498.12 186.87 499.44 186.56C500.76 186.25 500.28 183.02 500.28 183.02C500.28 183.22 501.84 186.28 502.2 186.52C502.68 186.85 503.25 187.13 503.75 186.87C504.42 186.52 504.88 186.13 505.21 185.44C505.49 184.86 505.51 184.25 505.56 183.6C505.61 183.01 505.56 181.59 505.53 180.99C505.82 181.64 506.1 183.65 506.65 183.54C507.2 183.43 508.1 182.97 508.6 182.37C509.56 181.2 510.07 179.73 510.56 178.29C510.56 178.64 510.57 178.99 510.7 179.32C510.83 179.64 511.11 179.93 511.46 179.95C511.9 179.98 513.68 178.68 513.94 178.33C515.06 176.81 515.48 174.77 516.29 173.06C516.97 171.63 517.63 170.62 518.6 169.38C519.49 168.25 520.85 166.85 522.15 166.17C524.79 164.78 526.42 164.4 529.12 163.13C531.4 162.05 533.63 160.72 535.21 158.71" fill="#D16159"/>
<path d="M510.34 178.91C510.54 176.63 510.82 174.36 511.17 172.1C511.41 170.59 511.68 169.08 512.28 167.68C513.26 165.39 515.05 163.55 516.8 161.77" stroke="black" stroke-miterlimit="10"/>
<path d="M505.78 181.5C504.89 177.71 504.99 173.76 505.09 169.86C505.12 168.78 505.15 167.7 505.4 166.65C505.85 164.84 506.94 163.28 508.01 161.76" stroke="black" stroke-miterlimit="10"/>
<path d="M500.4 183.78C499.18 180 497.96 176.19 497.62 172.23C497.56 171.47 497.52 170.71 497.55 169.95C497.65 167.11 498.57 164.34 499.97 161.87" stroke="black" stroke-miterlimit="10"/>
<path d="M533.77 81.58L552.09 116.13L511.21 144.12L538.11 165.31C538.11 165.31 583.98 150.38 596.47 142.97C606.28 137.16 610.49 122.05 591.59 97.42C572.69 72.79 559.65 58.18 555.77 54.07C547.43 45.23 537.51 41.56 528.26 46.21" fill="#4C4139"/>
<path d="M533.77 81.58L552.08 116.13L511.21 144.13" stroke="black" stroke-miterlimit="10"/>
<path d="M534.82 155.79C534.82 156.54 534.21 157.16 533.45 157.16C532.7 157.16 532.08 156.55 532.08 155.79C532.08 155.04 532.69 154.42 533.45 154.42C534.21 154.42 534.82 155.03 534.82 155.79Z" stroke="black" stroke-miterlimit="10"/>
<path d="M541.89 152.9C542.647 152.9 543.26 152.287 543.26 151.53C543.26 150.773 542.647 150.16 541.89 150.16C541.133 150.16 540.52 150.773 540.52 151.53C540.52 152.287 541.133 152.9 541.89 152.9Z" stroke="black" stroke-miterlimit="10"/>
<path d="M525.64 155.49C525.79 155.61 543.26 146.8 543.26 146.8" stroke="black" stroke-miterlimit="10"/>
<path d="M526.59 133.59C526.76 133.47 558 158.55 558 158.55" stroke="black" stroke-miterlimit="10"/>
<path d="M551.08 116.48C554.91 114.98 558.77 113.37 562.87 112.75C567.25 112.09 571.7 112.32 576.11 112.55" stroke="black" stroke-miterlimit="10"/>
<path d="M538.11 165.31L591.05 146.07" stroke="black" stroke-miterlimit="10"/>
<path d="M547.37 37.59C536.79 27.65 525.98 17.76 513.48 10.39C490.32 -3.25 458 -1.14 442.03 8.78C429.77 16.4 423.3 25.89 415.43 37.63C405.57 52.34 395.23 68.16 378.99 75.2C371.07 78.63 362.36 79.66 353.9 81.32C345.43 82.98 336.77 85.46 330.28 91.15C323.79 96.84 320.1 106.5 323.6 114.39C326.35 120.58 333.13 124.48 339.91 124.67C346.69 124.86 353.29 121.72 358.17 117.01C370.62 105 376.41 73.4 353.42 64.3" stroke="#ED725A" stroke-width="1.5" stroke-miterlimit="10"/>
<path d="M44.99 251.8C46.45 258.74 50.15 266.13 55.15 271.82C61.66 279.24 74.93 284.04 80.64 273.25C83.29 268.23 84.62 260.12 78.29 256.53C77.84 256.27 77.34 256.05 76.79 256.04C75.57 256.03 74.76 257.09 74.39 258.06C72.7 262.61 75.42 267.53 79.1 271.18C80.81 272.88 82.79 274.46 85.25 275.3C87.71 276.14 90.72 276.13 92.86 274.83C96.2 272.8 97.07 268.31 96.83 265.1" stroke="#8F96DB" stroke-width="1.5" stroke-miterlimit="10"/>
<path d="M31.01 69.1C36.9 61.68 44.82 54.97 53.73 51.54C58.55 49.68 64.85 49.01 69.91 50.02C72.44 50.52 75.38 51.32 76.93 53.6C78.56 56 76.66 60.45 79.88 61.81C80.71 62.16 81.65 62.07 82.54 61.94C85.34 61.52 88.05 60.68 90.85 60.27C93.65 59.86 96.62 59.91 99.14 61.2C101.66 62.49 103.57 65.24 103.2 68.04C103.05 69.14 102.58 70.22 102.78 71.31C103.12 73.13 105.18 74.08 107.03 74.26C110.85 74.62 114.48 74.5 117.72 76.94C120.1 78.73 121.47 81.94 120.25 84.51" stroke="#FFDD99" stroke-width="1.5" stroke-miterlimit="10"/>
<path d="M280.43 62.04C281.91 58.74 283.58 55.43 286.17 52.9C288.76 50.37 292.46 48.72 296.01 49.41C297.85 49.77 299.58 50.72 301.45 50.68C304.02 50.63 306.23 48.65 307.39 46.35C308.55 44.05 308.88 41.44 309.35 38.91C310.1 34.87 311.32 30.74 314.08 27.69C316.85 24.65 321.52 23.02 325.21 24.82" stroke="#FFDD99" stroke-width="1.5" stroke-miterlimit="10"/>
<path d="M106.192 398.796C107.22 392.663 103.082 386.858 96.949 385.83C90.8161 384.802 85.0111 388.941 83.9831 395.074C82.9551 401.207 87.0935 407.012 93.2264 408.04C99.3594 409.067 105.164 404.929 106.192 398.796Z" stroke="#909DF4" stroke-width="1.5" stroke-miterlimit="10"/>
<path d="M286.72 22.32C291.762 22.32 295.85 18.2324 295.85 13.19C295.85 8.14764 291.762 4.06001 286.72 4.06001C281.678 4.06001 277.59 8.14764 277.59 13.19C277.59 18.2324 281.678 22.32 286.72 22.32Z" stroke="#8F96DB" stroke-width="1.5" stroke-miterlimit="10"/>
<path d="M611.63 363.48L617.68 403.35L641.47 385.83L611.63 363.48Z" fill="#FFDD99"/>
<path d="M12.76 319.74L28.85 301.49L1.35999 302.48L12.76 319.74Z" stroke="#8F96DB" stroke-width="1.5" stroke-miterlimit="10"/>
<path d="M38.48 364.93C42.0809 364.93 45 362.011 45 358.41C45 354.809 42.0809 351.89 38.48 351.89C34.8791 351.89 31.96 354.809 31.96 358.41C31.96 362.011 34.8791 364.93 38.48 364.93Z" fill="#FFDD99"/>
<path d="M52.4 86.48L36.74 120.66L84.6 113.72L52.4 86.48Z" fill="#ED725A"/>
<path d="M21.69 171.64C21.69 173.82 19.92 175.59 17.74 175.59C15.56 175.59 13.79 173.82 13.79 171.64C13.79 169.46 15.56 167.69 17.74 167.69C19.92 167.68 21.69 169.45 21.69 171.64Z" fill="#909DF4"/>
<path d="M558.34 15.75C558.34 17.93 556.57 19.7 554.39 19.7C552.21 19.7 550.44 17.93 550.44 15.75C550.44 13.57 552.21 11.8 554.39 11.8C556.57 11.8 558.34 13.57 558.34 15.75Z" fill="#ED725A"/>
<path d="M631.05 361C634 359.79 637.81 360.02 640.48 361.82C642.84 363.4 644.07 366.38 646.91 367.3C651.08 368.66 654.75 364.78 658.77 364.52C662.25 364.29 665.05 366.64 666.4 369.68C667.56 372.28 667.79 375.18 667.99 378.02" stroke="#8F96DB" stroke-width="1.5" stroke-miterlimit="10"/>
<path d="M600.45 89.85C601.9 86.26 605.7 83.75 609.57 83.85C611.54 83.9 613.54 84.55 615.45 84.06C621.39 82.52 620.89 72.19 626.76 70.4C630.82 69.16 635.24 73.1 639.22 71.6C642.64 70.32 643.48 66.01 644.57 62.51C647.5 53.07 656.17 45.68 665.96 44.28" stroke="#8F96DB" stroke-width="1.5" stroke-miterlimit="10"/>
<path d="M555.21 297.36C558.67 297.36 561.48 300.17 561.48 303.63V414.67C561.48 418.13 558.67 420.94 555.21 420.94H375.35C371.89 420.94 369.08 418.13 369.08 414.67V303.63C369.08 300.17 371.89 297.36 375.35 297.36H555.21ZM555.21 295.86H375.35C371.06 295.86 367.58 299.35 367.58 303.63V414.67C367.58 418.96 371.07 422.44 375.35 422.44H555.21C559.5 422.44 562.98 418.95 562.98 414.67V303.63C562.98 299.34 559.5 295.86 555.21 295.86Z" fill="white"/>
<path d="M555.21 420.94H375.35C371.89 420.94 369.08 418.13 369.08 414.67V314.08H561.48V414.67C561.48 418.13 558.67 420.94 555.21 420.94Z" fill="#C5B3DD"/>
<path d="M383.81 306.21C383.81 308.19 382.2 309.8 380.22 309.8C378.24 309.8 376.63 308.19 376.63 306.21C376.63 304.23 378.24 302.62 380.22 302.62C382.2 302.62 383.81 304.23 383.81 306.21Z" stroke="white" stroke-width="1.5" stroke-miterlimit="10"/>
<path d="M397.72 306.21C397.72 308.19 396.11 309.8 394.13 309.8C392.15 309.8 390.54 308.19 390.54 306.21C390.54 304.23 392.15 302.62 394.13 302.62C396.11 302.62 397.72 304.23 397.72 306.21Z" stroke="white" stroke-width="1.5" stroke-miterlimit="10"/>
<path d="M369.08 314.08H561.48" stroke="white" stroke-width="1.5" stroke-miterlimit="10"/>
<path d="M534.49 396.92C524.92 386.32 513.8 381.08 508.14 382.36C499.82 384.24 501.33 405.47 501.57 414C497.55 409.35 492.57 405.54 487.04 402.88C482.87 400.87 478.13 399.5 473.63 400.6C469.14 401.7 465.18 405.92 465.7 410.52C455.23 394.95 440.78 382.07 424.1 373.47C413.56 368.03 384.9 356.72 379.99 368.46C374.61 381.33 405.14 420.95 405.14 420.95H553.1C553.1 420.94 543.13 406.5 534.49 396.92Z" fill="#A29DCE"/>
<path d="M349.61 283.71C344.18 278.02 338.96 267.02 337.49 261.16C336.2 256 335.05 250.72 332.61 245.95C331.95 244.66 329.13 241.7 330.15 240.15C332.21 237.04 337.22 241.14 338.53 242.99C339 243.65 340.72 246.45 341.58 246.61C342.44 246.77 342.81 243.43 342.91 242C343.31 236.49 343.34 230.48 342.87 224.9C342.39 219.16 343.21 214.12 345.01 213.85C346.84 213.58 346.74 214.66 347.07 215.02C347.36 213.2 349.02 211.04 350.09 211.65C350.74 212.02 350.98 212.83 351.07 213.58C351.16 214.32 351.6 215.73 351.6 215.73C351.6 215.73 352.64 211.86 354.53 214.05C355.49 215.16 356.94 221.04 357.87 222.91C357.78 221.68 357.46 220.99 357.86 219.54C358.08 218.76 358.52 218.11 359.37 218.52C359.87 218.76 360.01 219.26 360.19 219.74C361.14 222.38 363.47 226.62 364.32 229.29C365.2 232.07 366.09 234.86 366.97 237.64C368.63 242.87 370.26 248.38 371.45 253.84C372.55 258.89 376.6 271.34 376.6 271.34" fill="#A04B4B"/>
<path d="M347.03 215.32C347.51 218.31 348.61 222.13 349.21 225.53C350.07 230.4 350.46 234.91 351.2 239.19" stroke="black" stroke-miterlimit="10"/>
<path d="M351.87 215.82C352.45 218.38 353.45 221.94 354.11 224.86C355.23 229.74 356.05 234.11 357.01 238.39" stroke="black" stroke-miterlimit="10"/>
<path d="M357.87 222.82C359.29 227.48 361.35 232.83 362.98 238.73" stroke="black" stroke-miterlimit="10"/>
<path d="M342.13 246.31C341.77 248.77 341.58 251.39 339.94 253.54" stroke="black" stroke-miterlimit="10"/>
<path d="M533.45 420.94C531.53 415.8 529.47 410.4 526.58 405.68C523.69 400.97 519.91 396.65 515.08 393.7C512.92 392.37 510.57 391.34 508.24 390.31C501.96 387.54 495.68 384.76 489.4 381.99L458.58 369.97C456.67 368.2 454.77 366.43 452.86 364.66C449.18 361.23 445.51 357.8 441.87 354.33C441.73 354.2 441.59 354.06 441.45 353.93C413.55 327.3 392.81 297.56 374.68 262.84L342.13 277.12C342.13 277.12 356.21 325.1 369.59 345.46C387.26 372.36 407.7 396.84 416.94 404.58C418.59 410.11 420.48 415.58 422.61 420.94H533.45Z" fill="#FCDDD2"/>
<path d="M347.37 293.61L382.29 276.82" stroke="black" stroke-miterlimit="10"/>
<path d="M349.12 274.05L360.89 299.59" stroke="black" stroke-miterlimit="10"/>
<path d="M360.18 279.42C360.18 280.69 359.15 281.73 357.87 281.73C356.6 281.73 355.56 280.7 355.56 279.42C355.56 278.14 356.59 277.11 357.87 277.11C359.15 277.11 360.18 278.14 360.18 279.42Z" stroke="#D8A798" stroke-miterlimit="10"/>
<path d="M486.01 420.26C487.62 418.17 489.22 416.08 490.83 413.99C492.56 411.73 494.3 409.47 496.25 407.41C501.96 401.38 509.66 397.09 517.91 396.2" stroke="#D8A798" stroke-miterlimit="10"/>
<path d="M415.97 401.58C415.97 393.24 418.76 384.96 423.56 378.16C429.61 369.59 438.5 363.44 449.25 363.14" stroke="#D8A798" stroke-miterlimit="10"/>
<path d="M416.79 404.25C415.25 399.67 414.37 394.52 411.93 390.31" stroke="black" stroke-miterlimit="10"/>
<path d="M448.77 366.55L446.74 392.16C446.74 392.16 455.35 400.93 467.18 395.22C479.02 389.51 487.65 378.65 487.65 378.65L483.78 362.78" fill="#A04B4B"/>
<path d="M495.81 334.65C494.61 330.91 492.37 327.49 489.35 325.02C482.09 319.08 474.11 319.24 466.31 323.82C459.54 327.8 450.24 334.08 445.07 340.09C439.74 346.29 436.17 354.01 441.61 361.26C450.37 372.93 474.95 368.98 486.68 359.4C491.45 355.5 495.96 349.17 496.67 342.94C496.99 340.17 496.66 337.33 495.81 334.65Z" fill="#A04B4B"/>
<path d="M464.81 327.08C460.9 329.07 456.63 329.6 452.35 330.1C450.29 330.34 447.57 331.03 447.94 333.73C448.18 335.47 449.69 336.97 450.96 338.03" fill="#A04B4B"/>
<path d="M447.77 353.66C447.77 353.66 448.48 352.06 448.84 351.26C449.52 349.72 447.3 348.68 446.25 348.15C445.48 347.76 445.08 347.42 444.31 347.92C444.11 348.05 443 349.13 442.76 348.93C442.75 348.92 440.7 346.53 440.7 346.53C439.11 349.02 438.08 353.75 438.31 356.55C438.54 359.35 439.62 362.14 441.63 364.12C442.43 364.91 443.7 366.05 444.66 366.64C452.73 371.49 462.79 371.12 471.57 367.71C474.28 366.66 476.92 365.25 478.89 363.11C452.01 362.73 447.77 353.66 447.77 353.66Z" fill="#1E1611"/>
<path d="M479.81 351.87C479.69 351.84 479.57 351.82 479.45 351.8C477.66 351.5 475.88 351.77 474.11 351.19C472.69 350.72 471.36 349.84 470.58 348.56C469.66 347.05 470.92 346.17 472.15 345.49C473.97 344.49 475.74 343.36 477.22 341.9C479.65 339.5 480.94 336.06 479.88 332.71C478.73 329.08 475.16 326.95 472.38 324.64C469.71 322.42 466.29 318.97 467.42 315.12C468.55 311.26 472.28 309.85 475.96 310.4C477.94 310.69 479.93 311.25 481.9 310.94C482.9 310.78 483.86 310.41 484.85 310.19C487.89 309.51 491.4 310.48 493.21 313.02C494.52 314.85 495.02 317.44 497.03 318.44C498 318.92 499.13 318.91 500.18 319.16C502.32 319.66 504.13 321.29 505 323.31C505.87 325.33 505.83 327.69 505.05 329.74C503.65 333.43 501.54 335.28 503.27 339.35C507.28 348.81 508.96 360.42 499.39 367.22C496.87 369.01 493.72 369.93 491.62 372.2C490.31 373.61 489.25 375.63 487.33 375.84C486.04 375.98 484.83 375.18 483.95 374.23C483.16 373.38 482.54 372.39 481.92 371.4C481.07 370.04 480.21 368.61 480.03 367.01C479.78 364.73 480.96 362.57 482.04 360.54C483.05 358.63 485.09 354.67 482.68 353.09C481.88 352.54 480.82 352.09 479.81 351.87Z" fill="#1E1611"/>
<path d="M473.9 331.21C473.3 329.38 472.2 327.56 470.5 328.39C470.08 328.6 469.83 329.06 469.76 329.53C469.69 330 469.78 330.47 469.86 330.93C470.26 333.1 470.68 335.33 471.86 337.2C472.1 337.58 472.38 337.95 472.78 338.15C475.44 339.48 474.25 332.25 473.9 331.21Z" fill="#1E1611"/>
<path d="M457.1 343.59L449.57 341.88C449.57 341.88 448.83 348.33 452.03 348.97C455.23 349.62 457.1 343.59 457.1 343.59Z" fill="white"/>
<path d="M449.12 336.02C449.75 336.83 450.59 337.47 451.55 337.84" stroke="black" stroke-miterlimit="10"/>
<path d="M457.43 329.39C460.26 328.98 463 328.03 465.48 326.62" stroke="black" stroke-miterlimit="10"/>
<path d="M478.06 352.13C480.84 350.04 485.87 352.04 486.91 355.15C489.4 362.63 477.41 368.87 472.15 364.23C470.66 362.92 469.54 360.25 470.85 358.34" fill="#A04B4B"/>
<path d="M482.59 359.23L474.11 357.79" stroke="black" stroke-miterlimit="10"/>
<path d="M483.45 352.06C481.76 351.42 479.85 351.31 478.06 351.77" stroke="black" stroke-miterlimit="10"/>
<path d="M471.04 358.42C470.09 360.04 470.37 362.03 471.41 363.53C473.29 366.27 477.82 366.28 480.56 365.11" stroke="black" stroke-miterlimit="10"/>
<path d="M466.02 337.41C464.95 338.19 463.63 338.19 463.07 337.43C462.51 336.66 462.93 335.41 464.01 334.63C465.08 333.85 466.4 333.85 466.96 334.61C467.51 335.38 467.09 336.63 466.02 337.41Z" fill="black"/>
<path d="M491.82 377.81C464.81 381.01 448.27 393.38 448.27 393.38L452.97 414.84C477.13 391.87 500.64 386.68 500.88 386.44L491.82 377.81Z" fill="#FCDDD2"/>
<path d="M447.49 379.68L437.32 386.21C437.32 386.21 435.57 404.47 438.91 414.17L448.28 393.39L447.49 379.68Z" fill="#FCDDD2"/>
<path d="M448.27 393.39L452.97 414.85C477.13 391.88 500.64 386.69 500.88 386.45" stroke="black" stroke-miterlimit="10"/>
<path d="M447.49 379.68L437.32 386.21C437.32 386.21 435.57 404.47 438.91 414.17L448.28 393.39" stroke="black" stroke-miterlimit="10"/>
<path d="M347.23 321.64C349.96 331.35 354.01 340.68 359.22 349.31" stroke="black" stroke-miterlimit="10"/>
<path d="M348.12 338.31C349.83 344.55 351.89 350.7 354.28 356.71" stroke="black" stroke-miterlimit="10"/>
<path d="M514.92 351.39C515.07 355.84 513.34 360.21 510.69 363.79C508.04 367.37 504.52 370.21 500.8 372.65" stroke="black" stroke-miterlimit="10"/>
<path d="M511.89 372.49C515.61 370.38 518.79 367.31 521.04 363.66" stroke="black" stroke-miterlimit="10"/>
</g>
<defs>
<clipPath id="clip0_22_2252">
<rect width="668.74" height="422.44" fill="white"/>
</clipPath>
</defs>
</svg>
