<svg width="1114" height="398" viewBox="0 0 1114 398" fill="none" xmlns="http://www.w3.org/2000/svg">
<g clip-path="url(#clip0_289_1543)">
<path d="M232.255 292.76C232.255 292.76 235.26 308.252 236.318 317.541C237.369 326.83 253.973 443.075 255.25 479.868C256.526 516.66 226.024 673.913 226.024 673.913L148.57 660.663L163.233 484.403L146.417 345.576C146.417 345.576 139.326 325.767 148.57 285.844" fill="#4F302B"/>
<path d="M89.12 268.03C89.12 268.03 77.6663 314.345 82.0071 369.89C84.969 407.782 91.243 479.86 91.243 479.86L88.9377 691.69H185.951C186.352 689.535 188.979 579.565 186.447 482.051C184.31 399.971 176.963 327.522 176.963 327.522C176.963 327.522 181.961 277.225 181.924 273.956" fill="#4F302B"/>
<path d="M103.244 268.03C103.244 268.03 91.7904 314.345 96.1311 369.89C99.093 407.782 105.367 479.86 105.367 479.86L103.062 691.69" stroke="#7F4F4A" stroke-width="1.5" stroke-miterlimit="10"/>
<path d="M185.937 691.69C186.338 689.535 188.964 579.565 186.433 482.052C184.295 399.971 176.949 327.522 176.949 327.522C176.949 327.522 181.946 277.225 181.91 273.956" stroke="black" stroke-width="1.5" stroke-miterlimit="10"/>
<path d="M95.5181 327.958C112.407 323.008 127.545 312.955 133.242 302.464C139.268 291.37 145.754 268.03 145.754 268.03" stroke="#7F4F4A" stroke-width="1.5" stroke-miterlimit="10"/>
<path d="M177.496 321.938C180.721 322.127 184.047 321.326 186.185 318.99C188.322 316.653 190.759 307.211 192.838 301.693C195.275 295.221 197.719 288.749 200.155 282.284" stroke="black" stroke-width="1.5" stroke-miterlimit="10"/>
<path d="M207.633 115C218.919 116.311 225.5 115.786 239.324 119.339C264.734 125.884 286.598 170.182 286.598 170.182L249.917 219.692L222.881 173.203" fill="#915A56"/>
<path d="M232.933 144.331L234.575 307.771L77.6665 295.403C77.6665 295.403 84.1813 200.633 103.922 161.125C123.664 121.618 151.007 109.875 151.007 109.875L216.461 120.722L232.933 144.331Z" fill="#915A56"/>
<path d="M201.877 84.5849L201.447 113.981L207.626 118.589C207.626 118.589 207.969 134.918 185.39 134.918C162.811 134.918 146.907 113.945 146.907 113.945L153.283 109.824L157.667 85.0144L153.465 67.732" fill="#D16159"/>
<path d="M195.909 183.547H184.098L181.91 136.308H193.714L195.909 183.547Z" stroke="#754443" stroke-width="1.5" stroke-miterlimit="10"/>
<path d="M190.89 147.199C190.89 148.56 189.781 149.667 188.417 149.667C187.053 149.667 185.944 148.56 185.944 147.199C185.944 145.838 187.053 144.731 188.417 144.731C189.781 144.731 190.89 145.838 190.89 147.199Z" stroke="#754443" stroke-width="1.5" stroke-miterlimit="10"/>
<path d="M191.387 159.932C191.387 161.293 190.278 162.399 188.914 162.399C187.549 162.399 186.44 161.293 186.44 159.932C186.44 158.57 187.549 157.464 188.914 157.464C190.278 157.464 191.387 158.563 191.387 159.932Z" stroke="#754443" stroke-width="1.5" stroke-miterlimit="10"/>
<path d="M191.875 172.657C191.875 174.018 190.767 175.125 189.402 175.125C188.038 175.125 186.929 174.018 186.929 172.657C186.929 171.295 188.038 170.189 189.402 170.189C190.767 170.189 191.875 171.288 191.875 172.657Z" stroke="#754443" stroke-width="1.5" stroke-miterlimit="10"/>
<path d="M126.669 183.227L97.5025 202.468L65.5488 138.609C65.5488 138.609 95.5619 123.765 104.032 119.339C124.262 108.776 143.339 110.217 155.77 110.654" fill="#915A56"/>
<path d="M83.3278 86.8344L80.2346 168.078L94.8253 196.884C94.8253 196.884 73.8584 213.344 59.9316 218.396C52.9427 220.93 13.0225 224.388 22.4627 179.005C31.9029 133.622 44.4874 81.6511 44.4874 81.6511L83.3278 86.8344Z" fill="#D16159"/>
<path d="M82.5981 95.0679C84.3636 90.3505 85.9686 85.5604 87.3984 80.7193C88.7773 76.0456 89.7184 71.2045 91.1993 66.5817C91.5641 65.4388 92.031 64.3395 92.4906 63.2403C94.1758 59.2291 95.8829 55.1815 98.3561 51.658C98.6844 51.1921 99.0345 50.7189 99.2096 50.1656C99.3847 49.6124 99.3628 48.9499 98.998 48.5058C98.6187 48.0472 97.984 47.9525 97.4077 47.9598C95.0148 47.9889 92.8189 49.3357 90.9586 50.9227C89.7621 51.9419 88.6605 53.0776 87.4933 54.1259C86.523 54.9922 85.5308 56.055 84.2979 56.4409C83.9332 45.2735 87.3474 34.3974 88.8429 23.332C89.1493 21.068 87.8726 17.0203 86.1218 17.0786C83.8091 17.1587 80.4679 33.8587 77.1558 42.3762C77.3673 37.0618 77.5716 31.4418 78.6221 26.2221C79.3517 22.6113 79.6946 18.884 79.2714 15.2004C79.0307 13.1329 78.0385 8.60481 75.2809 10.9562C74.4711 11.6478 74.0625 12.7325 73.7124 13.7735C70.9985 21.8396 70.2981 30.3352 68.0001 38.5469C67.5989 30.7502 69.3935 22.5458 66.541 15.3387C66.2638 14.6398 65.899 13.9046 65.2643 13.5551C64.2868 13.0237 63.3165 13.1547 62.6964 14.1084C62.0763 15.0621 61.9304 16.2632 61.7991 17.4135C60.8434 25.8436 59.6032 34.7396 58.6475 43.1697C58.0201 39.1876 58.2389 35.1181 58.093 31.0851C57.9471 27.052 57.3781 22.8952 55.3646 19.4664C54.7153 18.3598 53.3729 17.2533 52.3953 18.0468C51.9211 18.4326 51.7461 19.1024 51.6877 19.7285C49.9368 38.5251 47.3616 54.9922 45.1729 73.3447C44.1662 81.7967 41.7295 91.3552 40.0151 99.6979" fill="#D16159"/>
<path d="M81.606 95.8905C82.2188 93.6192 83.1526 91.4425 84.3782 89.4697" stroke="black" stroke-width="1.5" stroke-miterlimit="10"/>
<path d="M57.9761 45.6958C59.4133 50.5951 61.4195 55.327 62.8129 60.241C64.2136 65.1549 63.9437 72.4493 62.8713 77.5161" stroke="black" stroke-width="1.5" stroke-miterlimit="10"/>
<path d="M82.3281 57.9551C76.7982 63.5533 72.8806 70.8987 71.21 78.7828" stroke="black" stroke-width="1.5" stroke-miterlimit="10"/>
<path d="M68.2336 38.5324L67.1685 46.1981" stroke="black" stroke-width="1.5" stroke-miterlimit="10"/>
<path d="M77.2214 40.1558C76.4846 42.58 75.9229 45.0624 75.5581 47.5813" stroke="black" stroke-width="1.5" stroke-miterlimit="10"/>
<path d="M153.757 101.685L186.053 133.273L201.877 109.824L211.85 115L210.252 148.204L187.126 139.06L167.013 154.231L140.567 110.385L153.757 101.685Z" fill="#915A56"/>
<path d="M211.85 115L210.252 148.204L187.126 139.06L167.013 154.231L140.567 110.385" stroke="black" stroke-width="1.5" stroke-miterlimit="10"/>
<path d="M80.2347 168.078L79.0747 192.32" stroke="black" stroke-width="1.5" stroke-miterlimit="10"/>
<path d="M84.3784 129.254L116.135 190.179" stroke="#754443" stroke-width="1.5" stroke-miterlimit="10"/>
<path d="M235.531 153.074C232.985 171.528 236.311 203.72 236.311 203.72" stroke="black" stroke-width="1.5" stroke-miterlimit="10"/>
<path d="M97.5098 202.468L136.445 177.891" stroke="black" stroke-width="1.5" stroke-miterlimit="10"/>
<path d="M79.6582 279.285L234.115 294.049" stroke="#754443" stroke-width="1.5" stroke-miterlimit="10"/>
<path d="M200.411 26.3968C206.765 30.2406 210.42 37.3021 212.178 44.4218C213.637 50.3476 213.455 75.4705 212.98 81.2143C212.375 88.5961 207.64 97.3028 199.798 100.331C190.81 103.796 180.377 100.127 172.112 93.4517C160.49 84.0753 153.822 69.3699 154.508 54.1914C154.618 51.84 154.96 49.4959 155.559 47.2027C158.506 35.8679 168.078 26.1347 179.604 23.0845C185.9 21.4174 194.997 23.1209 200.411 26.3968Z" fill="#D16159"/>
<path d="M229.089 24.1182C225.485 25.414 221.874 26.7099 218.27 28.0057C220.123 23.929 221.385 19.4664 221.013 15.0038C217.03 17.8794 212.404 19.8741 207.567 20.7913C209.508 18.5928 210.15 15.3241 209.18 12.5505C202.614 14.4651 195.661 14.5015 188.818 14.4724C181.975 14.4433 175.045 14.3632 168.413 16.0521C161.782 17.7411 155.376 21.4465 151.955 27.3651C150.459 29.9567 149.569 32.8905 147.84 35.3365C145.761 38.2776 142.522 40.396 141.056 43.6865C140.195 45.6157 140.034 47.7778 139.932 49.8817C139.823 52.1822 139.772 54.4899 140.012 56.7758C140.917 65.417 145.061 77.6253 156.872 89.5862L161.702 71.0079C163.854 70.5493 161.621 64.0993 162.358 62.0318C164.197 56.8122 162.796 50.9519 164.146 45.5866C164.437 44.4364 164.963 43.1915 166.064 42.7547C167.407 42.216 169.318 43.5701 170.595 44.0214C172.448 44.6839 174.33 45.2517 176.234 45.7249C185.878 48.1273 200.651 49.7943 207.137 40.1048C211.974 43.2206 213.039 52.335 213.039 52.335C213.039 52.335 215.432 50.5879 215.964 50.0564C217.161 48.8771 218.357 47.6978 219.554 46.5111C221.523 44.5674 223.355 42.5436 224.828 40.1849C227.797 35.4166 229.395 29.7529 229.089 24.1182Z" fill="#FCDDD2"/>
<path d="M168.231 65.0894C167.005 60.6414 160.068 58.6612 156.449 61.0927C147.753 66.9385 155.318 83.2163 164.62 82.612C167.254 82.4373 170.609 80.5373 170.777 77.4724" fill="#D16159"/>
<path d="M157.689 68.8895L167.794 74.2402" stroke="black" stroke-width="1.5" stroke-miterlimit="10"/>
<path d="M162.606 60.6414C164.912 61.3402 167.006 62.7744 168.523 64.7108" stroke="black" stroke-width="1.5" stroke-miterlimit="10"/>
<path d="M154.552 76.577C156.712 79.9185 160.213 83.158 164.364 82.8086C167.246 82.5684 170.106 80.5591 170.514 77.4069" stroke="black" stroke-width="1.5" stroke-miterlimit="10"/>
<path d="M173.921 95.825C175.089 96.5894 176.256 97.3465 177.474 98.0235C186.002 102.719 194.691 102.297 201.454 100.186" stroke="black" stroke-width="1.5" stroke-miterlimit="10"/>
<path d="M198.558 62.0609C198.558 62.0609 202.169 71.3064 202.782 76.2349C203.147 79.1395 198.536 78.2805 196.508 78.4552" stroke="black" stroke-width="1.5" stroke-miterlimit="10"/>
<path d="M202.884 58.1225C204.518 56.965 206.568 56.419 208.56 56.6083C210.551 56.7976 212.463 57.7294 213.841 59.1781" stroke="black" stroke-width="1.5" stroke-miterlimit="10"/>
<path d="M174.826 60.5322C176.796 58.7632 179.364 57.6857 182.005 57.5183C184.646 57.3509 187.33 58.0934 189.512 59.5931" stroke="black" stroke-width="1.5" stroke-miterlimit="10"/>
<path d="M207.312 69.4136C208.307 69.4136 209.114 68.2011 209.114 66.7055C209.114 65.2098 208.307 63.9974 207.312 63.9974C206.317 63.9974 205.51 65.2098 205.51 66.7055C205.51 68.2011 206.317 69.4136 207.312 69.4136Z" fill="black"/>
<path d="M183.88 69.4573C184.875 69.4573 185.682 68.2448 185.682 66.7492C185.682 65.2535 184.875 64.0411 183.88 64.0411C182.884 64.0411 182.078 65.2535 182.078 66.7492C182.078 68.2448 182.884 69.4573 183.88 69.4573Z" fill="black"/>
<path d="M201.877 83.3473L190.635 81.4473C190.635 81.4473 189.709 88.0865 194.144 89.3241C200.542 91.1076 201.877 83.3473 201.877 83.3473Z" fill="white"/>
<path d="M207.509 40.3596C209.844 37.8481 212.448 35.1327 213.842 31.7039" stroke="#E0B1A2" stroke-miterlimit="10"/>
<path d="M210.967 44.0869C214.812 42.2233 218.277 39.5952 221.115 36.4066" stroke="#E0B1A2" stroke-miterlimit="10"/>
<path d="M197.449 25.7198C201.366 24.5768 205.05 22.6404 208.209 20.0633" stroke="#E0B1A2" stroke-miterlimit="10"/>
<path d="M13.9561 141.579C8.65966 156.161 6.20842 171.761 6.76287 187.268" stroke="black" stroke-width="1.5" stroke-miterlimit="10"/>
<path d="M10.1699 124.974C5.36227 133.557 2.08665 142.999 0.540039 152.71" stroke="black" stroke-width="1.5" stroke-miterlimit="10"/>
<path d="M863.616 310.21C863.616 310.21 819.662 417.239 819.961 494.675C820.136 540.072 882.562 667.805 882.562 667.805L939.116 627.671L892.688 482.394L943.552 300.659" fill="#774935"/>
<path d="M929.457 313.959C929.457 313.959 904.886 465.046 910.693 521.552C913.21 546.085 921.965 692.527 921.965 692.527L1001.76 684.599L989.483 494.689C989.483 494.689 997.428 412.194 1001.76 387.697C1006.09 363.193 1008.44 332.617 1002.67 303.447" fill="#774935"/>
<path d="M984.077 686.354L972.171 494.689C972.171 494.689 981.648 412.194 986.82 387.697C991.993 363.193 994.794 332.617 987.9 303.447" stroke="black" stroke-width="1.5" stroke-miterlimit="10"/>
<path d="M928.1 312.787L923.591 349.922C923.591 349.922 915.122 343.93 915.122 342.103C915.122 340.283 915.122 313.959 915.122 313.959" stroke="black" stroke-width="1.5" stroke-miterlimit="10"/>
<path d="M957.974 322.535C957.974 322.535 957.974 343.501 991.548 354.115" stroke="black" stroke-width="1.5" stroke-miterlimit="10"/>
<path d="M854.008 338.325C854.008 338.325 876.631 337.364 889.398 315.968" stroke="black" stroke-width="1.5" stroke-miterlimit="10"/>
<path d="M923.591 349.914L919.112 387.981" stroke="black" stroke-width="1.5" stroke-miterlimit="10"/>
<path d="M906.856 89.3605L905.929 114.818L880.002 122.935C880.002 122.935 886.276 146.813 926.524 142.453C966.773 138.085 976.227 121.377 976.227 121.377L952.875 116.536L946.222 88.1957L945.55 79.4817" fill="#A04C38"/>
<path d="M903.894 43.1114C898.568 47.1809 895.986 53.8711 895.103 60.4302C894.374 65.8829 896.993 88.4141 897.978 93.5173C899.247 100.084 904.346 107.436 911.678 109.387C920.082 111.622 929.078 107.313 935.848 100.521C945.361 90.9766 949.906 77.1303 947.805 63.5824C947.476 61.4785 946.937 59.4111 946.185 57.4164C942.435 47.5376 932.893 39.7335 922.249 38.1174C916.428 37.2293 908.432 39.6462 903.894 43.1114Z" fill="#A04C38"/>
<path d="M888.209 47.8288C888.209 47.8288 885.685 41.4734 889.362 33.3855C891.631 28.3988 896.504 25.8945 901.822 24.9117C905.222 24.2857 909.183 25.5887 912.131 27.0229C915.399 21.0898 922.811 18.6874 929.596 18.5855C933.28 18.5273 937.037 19.015 940.356 20.6093C942.406 21.5921 945.237 23.1354 946.696 24.9117C948.68 27.3359 949.964 30.4371 950.424 33.5238C950.38 33.2181 953.977 33.6403 954.414 33.7568C962.067 35.7806 967.342 44.3271 965.438 52.0511C965.263 52.7645 964.285 57.147 962.024 59.7532C965.088 61.1509 967.189 64.4269 967.181 67.7829C967.174 71.1462 965.058 74.4076 961.987 75.7908C961.746 75.9 961.491 76.0092 961.338 76.2203C961.09 76.5697 961.221 77.0502 961.352 77.4506C961.965 79.3433 962.395 81.5127 961.396 83.2381C960.922 84.0534 960.178 84.6795 959.412 85.2255C955.655 87.9045 950.935 89.2003 946.339 88.8145C945.069 88.7125 944.456 83.0779 944.383 82.1024C944.135 78.6518 943.88 75.1938 943.632 71.7432C940.998 71.3282 938.584 69.7048 937.219 67.4262C935.848 65.1476 935.549 62.2575 936.424 59.7459C936.431 59.7314 936.439 59.7095 936.446 59.695C937.175 57.642 935.425 55.6401 933.294 56.0914C930.245 56.7393 927.064 56.783 924.007 56.1861C922.665 55.924 921.301 55.5236 920.25 54.6573C919.689 54.1987 919.258 53.4707 918.923 52.6335C918.127 50.6461 915.443 50.3476 914.13 52.0438C914.115 52.0584 914.1 52.0802 914.086 52.0948C912.466 54.1623 909.847 55.3198 907.221 55.509C905.981 55.5964 904.733 55.4872 903.515 55.2251C901.727 54.8393 900.115 56.2807 900.174 58.108C900.21 59.1271 900.108 60.1318 899.765 61.0927C898.342 65.0166 894.987 65.2932 894.987 65.2932L895.468 72.3256C895.468 72.3256 887.662 71.1535 886.925 70.9278C881.804 69.319 878.856 65.548 878.842 59.9862C878.805 52.1021 888.209 47.8288 888.209 47.8288Z" fill="#2C221D"/>
<path d="M939.299 76.5042C940.189 72.4347 946.346 70.3163 949.724 72.3328C957.843 77.1812 951.817 92.2215 943.398 92.1195C941.02 92.0904 937.898 90.5398 937.599 87.788" fill="#A04C38"/>
<path d="M948.987 79.4307L940.13 84.7377" stroke="black" stroke-width="1.5" stroke-miterlimit="10"/>
<path d="M944.15 72.2309C942.107 72.9662 940.291 74.3639 939.014 76.1839" stroke="black" stroke-width="1.5" stroke-miterlimit="10"/>
<path d="M952.182 86.201C950.395 89.3168 947.396 92.4034 943.639 92.287C941.027 92.2069 938.357 90.5325 937.839 87.7152" stroke="black" stroke-width="1.5" stroke-miterlimit="10"/>
<path d="M906.199 107.531C909.803 109.606 913.728 110.741 917.522 110.705C925.62 110.632 932.864 105.893 937.606 98.6496" stroke="black" stroke-width="1.5" stroke-miterlimit="10"/>
<path d="M912.926 72.9298C912.634 77.2904 912.342 81.6511 912.058 86.0117C912.021 86.5504 911.992 87.111 912.211 87.5914C912.597 88.4432 913.582 88.7271 914.458 88.88C915.858 89.1202 917.281 89.244 918.704 89.244" stroke="black" stroke-width="1.5" stroke-miterlimit="10"/>
<path d="M921.644 67.266C923.409 66.1231 926.648 64.5579 929.238 65.2932C931.638 65.9775 933.404 67.8266 935.082 69.5738" stroke="black" stroke-width="1.5" stroke-miterlimit="10"/>
<path d="M910.073 67.4116C905.973 64.1502 901.56 65.1549 897.474 67.7174" stroke="black" stroke-width="1.5" stroke-miterlimit="10"/>
<path d="M927.524 76.9264C928.575 76.9264 929.428 75.727 929.428 74.2474C929.428 72.7679 928.575 71.5684 927.524 71.5684C926.472 71.5684 925.62 72.7679 925.62 74.2474C925.62 75.727 926.472 76.9264 927.524 76.9264Z" fill="black"/>
<path d="M903.77 77.5889C904.822 77.5889 905.674 76.3895 905.674 74.9099C905.674 73.4303 904.822 72.2309 903.77 72.2309C902.718 72.2309 901.866 73.4303 901.866 74.9099C901.866 76.3895 902.718 77.5889 903.77 77.5889Z" fill="black"/>
<path d="M925.62 91.326L911.576 92.9349C911.576 92.9349 912.933 99.5013 918.572 98.6277C925.62 97.5285 925.62 91.326 925.62 91.326Z" fill="white"/>
<path d="M868.315 120.729L796.069 136.388L733.497 116.915L719.533 144.804C719.533 144.804 762.444 193.179 799.104 188.694C811.09 187.231 878.835 174.397 878.835 174.397" fill="#A04C38"/>
<path d="M903.909 185.943C883.095 185.586 866.491 193.455 846.939 193.535L833.968 126.706C854.504 120.729 863.164 117.206 876.631 115.27C883.941 114.214 894.899 114.345 903.77 115.27" fill="#2C221D"/>
<path d="M993.269 126.466C993.269 126.466 1000.99 137.095 1005.76 176.42C1010.54 215.746 1010.54 325.541 1010.54 325.541L854.008 316.594C858.714 267.521 869.431 178.677 873.115 155.039C876.799 131.402 903.77 115.27 903.77 115.27C903.77 115.27 903.77 125.17 921.899 126.117C943.697 127.259 952.882 116.536 952.882 116.536L993.269 126.466Z" fill="#2C221D"/>
<path d="M952.882 116.536C959.579 116.638 968.655 117.424 977.271 117.868C983.596 118.196 994.546 120.475 1000.08 124.129C1005.45 127.674 1010.52 131.234 1013.78 136.92C1021.54 150.446 1039.7 187.835 1039.7 187.835L986.368 220.529L969.319 177.258" fill="#2C221D"/>
<path d="M986.368 220.522L969.319 177.25" stroke="#63493E" stroke-width="1.5" stroke-miterlimit="10"/>
<path d="M979 201.82L1031.7 171.572" stroke="#63493E" stroke-width="1.5" stroke-miterlimit="10"/>
<path d="M1028.94 138.456C1028.94 139.337 1007.55 207.535 1007.55 207.535L992 217.071C992 217.071 999.171 233.779 1004.92 240.498C1010.67 247.225 1022.71 253.361 1032.56 251.906C1042.42 250.45 1054.46 239.333 1058.83 212.718C1062.76 188.804 1064.67 152.972 1068.54 141.943C1072.42 130.921 1028.94 137.575 1028.94 138.456Z" fill="#A04C38"/>
<path d="M1007.55 207.535L1003.65 223.63" stroke="black" stroke-width="1.5" stroke-miterlimit="10"/>
<path d="M1026.41 144.287C1026.78 139.264 1027.32 134.248 1028.05 129.247C1028.75 124.428 1029.91 119.637 1030.5 114.818C1030.65 113.632 1030.69 112.438 1030.73 111.244C1030.88 106.898 1031.02 102.508 1030.24 98.2783C1030.14 97.7178 1030.02 97.1426 1030.09 96.5675C1030.15 95.9924 1030.46 95.3955 1030.97 95.148C1031.5 94.8932 1032.12 95.0679 1032.64 95.3081C1034.8 96.3273 1036.24 98.4676 1037.27 100.681C1037.92 102.108 1037.88 104.131 1038.51 105.573C1039.03 106.767 1037.94 111.761 1040.32 110.669C1042.7 109.584 1047.46 87.1619 1050.73 76.4896C1051.4 74.3057 1054.25 71.1535 1055.81 71.9397C1057.88 72.9735 1053.94 89.5497 1053.39 98.6569C1055.42 93.7357 1057.59 88.5451 1058.8 83.3691C1059.65 79.7801 1060.89 76.2494 1062.82 73.0827C1063.9 71.3064 1066.7 67.6009 1068.22 70.8841C1068.67 71.8524 1068.59 73.0099 1068.47 74.0946C1067.57 82.5538 1064.65 90.5689 1063.31 98.9845C1066.94 92.0613 1068.73 83.8642 1074.34 78.4989C1074.88 77.9747 1075.52 77.4651 1076.24 77.4142C1077.35 77.3341 1078.18 77.8655 1078.34 78.9866C1078.51 80.115 1078.14 81.2652 1077.78 82.3645C1075.12 90.4233 1069.43 108.332 1069.43 108.332C1069.43 108.332 1073.71 100.972 1075.52 97.3683C1077.35 93.7648 1079.51 89.193 1082.77 86.9144C1083.82 86.1792 1085.5 85.7351 1086.06 86.8562C1086.33 87.4022 1086.2 88.0865 1086 88.6762C1079.74 106.49 1075.2 122.528 1069.52 140.123C1066.91 148.226 1065.12 157.922 1063.2 166.221" fill="#A04C38"/>
<path d="M1026.97 145.445C1027.36 143.13 1027.42 140.764 1027.13 138.456" stroke="black" stroke-width="1.5" stroke-miterlimit="10"/>
<path d="M1071.26 104.772C1070.07 107.866 1067.67 112.882 1065.38 115.27C1063.14 117.599 1059.84 119.987 1057.73 122.447C1054.44 126.284 1052.78 131.54 1051.67 136.541" stroke="black" stroke-width="1.5" stroke-miterlimit="10"/>
<path d="M1042.16 110.669C1044.85 118.058 1045.34 126.364 1043.56 134.226" stroke="black" stroke-width="1.5" stroke-miterlimit="10"/>
<path d="M1063.09 98.8753L1060.85 106.286" stroke="black" stroke-width="1.5" stroke-miterlimit="10"/>
<path d="M1054.24 96.6112C1053.9 99.1228 1053.37 101.612 1052.65 104.051" stroke="black" stroke-width="1.5" stroke-miterlimit="10"/>
<path d="M868.264 191.017C868.264 191.017 872.59 156.306 873.356 147.359" stroke="#63493E" stroke-width="1.5" stroke-miterlimit="10"/>
<path d="M858.291 192.837L845.597 123.823" stroke="#63493E" stroke-width="1.5" stroke-miterlimit="10"/>
<path d="M894.899 114.345C895.293 122.87 899.524 131.242 908.169 133.884" stroke="#63493E" stroke-width="1.5" stroke-miterlimit="10"/>
<path d="M913.028 135.355C922.461 137.218 932.368 136.534 941.472 133.477C950.329 130.499 957.69 124.784 963.854 117.861" stroke="#63493E" stroke-width="1.5" stroke-miterlimit="10"/>
<path d="M886.91 274.044C913.196 266.116 937.329 251.221 956.172 231.296" stroke="#63493E" stroke-width="1.5" stroke-miterlimit="10"/>
<path d="M889.398 249.423C903.931 249.656 918.507 247.05 932.047 241.779" stroke="#63493E" stroke-width="1.5" stroke-miterlimit="10"/>
<path d="M708.948 254.213L706.766 269.814C706.766 269.814 691.439 302.828 691.089 344.069C690.738 385.309 708.291 674.371 708.291 674.371H771.637L770.287 328.395C770.287 328.395 772.468 271.175 766.96 253.172" fill="#572A2F"/>
<path d="M753.785 253.179C753.785 342.278 796.061 674.379 796.061 674.379H856.197C856.197 674.379 846.239 411.007 839.768 348.211C835.719 308.965 822.981 284.483 812.768 269.821L805.516 252.655" fill="#572A2F"/>
<path d="M842.715 674.379C842.715 674.379 834.946 411.007 828.475 348.211C824.645 311.033 811.535 284.934 801.474 269.821L796.069 252.124" stroke="#754844" stroke-width="1.5" stroke-miterlimit="10"/>
<path d="M777.918 269.537C777.918 269.537 779.085 287.577 791.896 302.464C804.706 317.344 822.799 317.526 822.799 317.526" stroke="#754844" stroke-width="1.5" stroke-miterlimit="10"/>
<path d="M761.131 269.537L759.767 254.999" stroke="#754844" stroke-width="1.5" stroke-miterlimit="10"/>
<path d="M750.699 263.925C752.137 263.925 753.303 262.761 753.303 261.326C753.303 259.89 752.137 258.727 750.699 258.727C749.261 258.727 748.094 259.89 748.094 261.326C748.094 262.761 749.261 263.925 750.699 263.925Z" stroke="#754844" stroke-width="1.5" stroke-miterlimit="10"/>
<path d="M770.717 438.685C770.717 438.685 754.288 315.765 753.303 269.537" stroke="black" stroke-width="1.5" stroke-miterlimit="10"/>
<path d="M739.661 269.814C739.661 269.814 744.133 315.714 745.775 318.385C747.416 321.057 757.498 326.488 757.498 326.488" stroke="black" stroke-width="1.5" stroke-miterlimit="10"/>
<path d="M694.466 315.961C694.466 315.961 707.394 315.015 717.242 305.464C727.091 295.912 727.843 269.814 727.843 269.814" stroke="#754844" stroke-width="1.5" stroke-miterlimit="10"/>
<path d="M706.766 269.814H812.768" stroke="black" stroke-width="1.5" stroke-miterlimit="10"/>
<path d="M731.483 115.27C711.793 111.935 692.234 121.537 680.671 134.554C669.611 147.017 645.084 179.886 645.084 179.886L686.836 210.578L717.243 165.886" fill="#FFC36C"/>
<path d="M704.804 149.179C697.625 168.107 693.941 179.362 698.574 199.068C699.624 203.545 701.288 207.855 702.426 212.303C706.423 227.875 708.948 254.221 708.948 254.221L807.114 254.999C807.114 254.999 802.306 232.243 804.283 221.592C805.472 215.193 812.666 176.501 810.725 163.637C808.792 150.773 790.101 115.27 790.101 115.27H727.901L704.804 149.179Z" fill="#FFC36C"/>
<path d="M785.921 109.249C788.825 110.589 791.728 111.921 794.632 113.26C802.08 116.689 809.638 120.183 815.898 125.483C827.891 135.624 834.107 146.973 835.529 162.596C836.952 178.211 831.422 213.817 831.422 213.817L778.465 201.354L787.387 149.944" fill="#FFC36C"/>
<path d="M786.826 153.161L778.465 201.347" stroke="black" stroke-width="1.5" stroke-miterlimit="10"/>
<path d="M833.333 199.825L779.88 188.956" stroke="black" stroke-width="1.5" stroke-miterlimit="10"/>
<path d="M803.897 207.331C803.897 207.331 785.454 185.12 780.428 167.634C775.401 150.147 749.627 179.129 749.627 179.129C749.627 179.129 767.5 222.611 776.211 238.562C783.535 251.971 793.122 261.377 808.486 258.057C826.228 254.221 829.161 212.842 829.161 212.842L803.897 207.331Z" fill="#E89274"/>
<path d="M697.552 194.023C695.057 178.59 697.239 162.436 703.731 148.204" stroke="black" stroke-width="1.5" stroke-miterlimit="10"/>
<path d="M694.145 199.825L653.474 168.769" stroke="black" stroke-width="1.5" stroke-miterlimit="10"/>
<path d="M803.897 207.331L815.89 227.212" stroke="black" stroke-width="1.5" stroke-miterlimit="10"/>
<path d="M726.53 244.531C732.461 245.543 738.348 246.766 744.243 247.982C753.515 249.904 762.795 251.825 772.067 253.74" stroke="black" stroke-width="1.5" stroke-miterlimit="10"/>
<path d="M736.064 197.372C739.442 202.06 743.732 206.101 748.62 209.194" stroke="black" stroke-width="1.5" stroke-miterlimit="10"/>
<path d="M683.363 139.876C683.057 135.296 683.742 130.659 685.347 126.364C685.843 125.032 686.763 123.51 688.185 123.576C688.783 123.605 689.367 123.933 689.958 123.845C690.053 122.513 690.337 121.115 691.242 120.132C692.147 119.15 693.832 118.786 694.831 119.667C694.919 119.739 694.999 119.827 695.116 119.856C695.386 119.921 695.583 119.623 695.699 119.375C696.349 118.036 697.275 116.784 698.53 115.983C699.792 115.182 701.412 114.869 702.812 115.393C703.104 115.502 703.425 115.648 703.724 115.561C703.987 115.481 704.162 115.248 704.323 115.029C704.965 114.163 705.701 113.348 706.635 112.802C707.562 112.256 709.451 112.095 710.487 112.401C710.998 112.554 712.048 112.94 712.501 113.217C713.588 113.879 714.076 114.505 715.163 115.168L712.325 115.845C712.325 115.845 710.779 129.247 707.926 135.318C707.168 136.942 706.292 138.536 705.059 139.839C703.826 141.142 702.185 142.132 700.398 142.292C700.208 142.307 699.996 142.314 699.843 142.198C699.675 142.074 699.617 141.856 699.581 141.652C699.442 141.011 699.311 140.371 699.172 139.737C698.734 140.967 698.267 142.227 697.421 143.224C696.575 144.222 694.773 145.044 693.963 144.658C693.153 144.265 693.474 142.722 693.343 141.652C692.555 143.741 690.673 145.066 688.441 145.175C688.185 145.19 687.915 145.183 687.682 145.066C686.697 144.578 686.719 142.052 686.719 142.052C686.719 142.052 685.099 143.319 684.341 142.656C683.596 141.979 683.429 140.88 683.363 139.876Z" fill="#A04C38"/>
<path d="M703.783 116.82C701.93 124.093 700.697 131.518 700.099 139.002" stroke="black" stroke-width="1.5" stroke-miterlimit="10"/>
<path d="M695.473 120.729C694.634 124.471 694.058 128.242 693.759 132.021C693.496 135.304 693.438 138.587 693.387 141.863" stroke="black" stroke-width="1.5" stroke-miterlimit="10"/>
<path d="M689.732 123.721C687.733 129.407 687.448 136.614 686.733 142.03" stroke="black" stroke-width="1.5" stroke-miterlimit="10"/>
<path d="M735.24 105.464L735.342 112.78L721.525 114.425C721.525 114.425 714.098 128.701 744.855 128.701C775.613 128.701 785.089 116.216 785.089 116.216L777.188 115.626L776.51 98.5695L776.94 85.0289" fill="#E89274"/>
<path d="M718.548 59.826C718.497 66.8001 716.528 73.7451 712.894 79.7001C711.165 82.5465 709.057 85.1818 707.722 88.2321C705.679 92.913 705.643 98.4384 707.634 103.141C708.481 105.143 709.685 107.051 709.947 109.205C710.224 111.499 709.4 113.755 708.802 115.983C707.985 119.026 707.569 122.171 707.204 125.301C706.672 129.888 706.263 134.678 707.875 139.009C709.75 144.054 714.434 147.949 719.745 148.873C725.056 149.798 730.79 147.723 734.263 143.61C738.224 138.922 739.048 132.152 737.538 126.211C737.108 124.522 736.51 122.877 736.189 121.166C735.802 119.084 735.838 116.944 735.875 114.825C735.955 110.552 736.028 106.279 736.108 102.013" fill="#632334"/>
<path d="M732.65 40.5562C726.887 43.9777 723.531 50.3185 721.89 56.732C720.525 62.0682 720.489 84.745 720.868 89.9283C721.357 96.5966 725.559 104.495 732.614 107.284C740.697 110.487 747.934 107.247 755.456 101.285C766.019 92.913 774.358 79.7073 773.862 65.9993C773.782 63.8736 773.49 61.7552 772.972 59.6877C770.404 49.4376 761.846 40.578 751.458 37.7316C745.782 36.181 737.56 37.6442 732.65 40.5562Z" fill="#E89274"/>
<path d="M735.167 72.8642C735.218 76.0747 734.35 79.2997 732.687 82.0514C732.264 82.7503 731.789 83.4201 731.527 84.1917C731.264 84.9634 731.235 85.8661 731.687 86.5431C731.943 86.9217 732.315 87.1983 732.709 87.424C733.672 87.9773 734.781 88.2612 735.897 88.2539" stroke="black" stroke-width="1.5" stroke-miterlimit="10"/>
<path d="M742.455 89.2367L734.532 91.195C734.766 94.9587 736.619 98.089 740.318 97.1936C743.98 96.2982 743.105 92.1923 742.455 89.2367Z" fill="white"/>
<path d="M767.828 91.0639C767.785 94.1433 767.712 97.3756 766.88 100.331C765.895 103.833 764.728 107.291 763.867 110.829C762.765 115.357 762.174 120.118 763.152 124.682C763.94 128.373 765.72 131.788 766.61 135.457C767.048 137.247 767.267 139.082 767.267 140.924C767.267 143.29 766.917 145.743 767.763 147.956C768.273 149.31 769.2 150.468 770.229 151.487C774.161 155.403 779.829 157.398 785.352 157.158C788.117 157.041 790.619 156.015 793.289 155.622C796.229 155.185 798.98 153.656 800.825 151.283C802.343 149.332 803.145 146.93 803.926 144.586C805.407 140.101 806.202 136.192 805.618 131.424C805.137 127.5 804.181 123.641 803.977 119.696C803.758 115.437 804.422 111.178 804.458 106.92C804.517 99.232 801.008 95.1916 797.221 88.9965C792.983 82.0515 791.48 73.9271 789.824 66.0794C788.131 58.0497 785.95 50.5005 781.434 43.4827C778.078 38.263 773.563 33.6694 767.996 30.903C764.939 29.3816 748.795 24.0818 741.5 33.2326C729.375 31.8567 718.373 43.8685 717.213 49.2192C714.784 60.4812 721.029 64.7909 721.029 64.7909C721.663 59.6003 722.189 53.4488 726.529 49.8526C730.542 46.5257 735.284 44.3344 740.588 44.4218C740.828 44.6329 741.317 57.9259 762.277 74.3057C766.771 77.6981 767.923 84.7596 767.828 91.0639Z" fill="#632334"/>
<path d="M740.303 68.4818C741.747 66.7273 745.008 66.1231 747.876 66.6181C750.743 67.1132 753.259 68.5036 755.39 70.0615" stroke="black" stroke-width="1.5" stroke-miterlimit="10"/>
<path d="M721.525 69.6829C723.641 65.2349 728.477 66.8511 730.885 68.7802" stroke="black" stroke-width="1.5" stroke-miterlimit="10"/>
<path d="M752.297 76.1839C752.151 77.8364 751.151 79.1031 750.072 79.0085C748.992 78.9138 748.233 77.4942 748.379 75.8417C748.525 74.1892 749.524 72.9225 750.604 73.0171C751.684 73.1045 752.443 74.5241 752.297 76.1839Z" fill="black"/>
<path d="M729.046 74.2037C728.901 75.8563 727.901 77.123 726.821 77.0283C725.742 76.9337 724.983 75.5141 725.129 73.8616C725.275 72.2091 726.274 70.9424 727.354 71.037C728.441 71.1316 729.2 72.5512 729.046 74.2037Z" fill="black"/>
<path d="M761.416 77.6544C762.393 73.6068 768.595 71.6194 771.928 73.7087C779.946 78.7318 773.599 93.6337 765.188 93.3571C762.809 93.277 759.723 91.6609 759.483 88.9018" fill="#E89274"/>
<path d="M771.039 80.7775L762.073 85.9025" stroke="black" stroke-width="1.5" stroke-miterlimit="10"/>
<path d="M766.362 73.483C764.298 74.1746 762.452 75.536 761.139 77.3268" stroke="black" stroke-width="1.5" stroke-miterlimit="10"/>
<path d="M774.088 87.6206C772.235 90.6999 769.171 93.7211 765.421 93.5245C762.817 93.3862 760.176 91.6609 759.716 88.829" stroke="black" stroke-width="1.5" stroke-miterlimit="10"/>
<path d="M735.539 108.601C744.44 110.581 753.143 104.743 758.549 98.948" stroke="black" stroke-width="1.5" stroke-miterlimit="10"/>
<path d="M783.776 183.154C779.253 164.241 785.855 144.353 783.659 125.039C782.149 124.5 781.011 126.422 780.566 127.958C779.545 131.467 778.531 134.969 777.509 138.478C776.182 133.331 777.363 127.907 777.232 122.593C777.21 121.625 776.663 120.293 775.736 120.591C775.35 120.715 775.124 121.093 774.927 121.45C774.401 122.397 773.869 123.336 773.344 124.282C773.628 122.622 773.679 120.933 773.504 119.259C773.453 118.749 773.322 118.16 772.862 117.927C772.082 117.526 770.024 119.383 769.659 120.183C768.376 123.023 767.828 125.432 766.544 128.279C766.574 126.473 767.157 124.202 767.186 122.397C767.201 121.705 767.157 120.904 766.603 120.489C765.713 119.827 764.509 120.744 763.867 121.647C758.855 128.679 758.169 140.407 757.367 144.178C756.564 147.949 754.573 150.686 754.573 150.686C754.573 150.686 753.194 148.662 753.084 147.41C752.902 145.233 751.742 142.547 750.713 140.625C749.678 138.703 747.737 137.226 746.431 137.553C745.125 137.874 746.103 143.341 746.475 146.238C747.212 152.026 747.562 157.871 747.504 163.703C747.467 167.976 747.219 172.286 747.985 176.493C749.152 182.9 752.749 188.84 757.892 192.851" fill="#E89274"/>
<path d="M777.918 137.08C777.918 137.08 776.926 144.549 775.62 148.364C775.284 149.347 773.125 152.128 772.592 153.023C772.016 153.984 771.25 154.814 770.535 155.673C767.113 159.779 764.779 164.78 763.823 170.036" stroke="black" stroke-width="1.5" stroke-miterlimit="10"/>
<path d="M773.147 124.173C772.031 126.379 771.739 128.883 771.469 131.336C770.871 136.672 770.287 142.008 769.703 147.352" stroke="black" stroke-width="1.5" stroke-miterlimit="10"/>
<path d="M766.654 128.046C765.399 134.816 764.152 141.594 762.897 148.364" stroke="black" stroke-width="1.5" stroke-miterlimit="10"/>
<path d="M754.624 150.657C753.697 152.346 752.815 154.057 751.976 155.789" stroke="black" stroke-width="1.5" stroke-miterlimit="10"/>
<path d="M751.202 185.273C753.734 188.243 755.215 191.948 756.645 195.581" stroke="black" stroke-width="1.5" stroke-miterlimit="10"/>
<path d="M672.799 123.394C679.438 117.497 686.733 112.336 694.51 108.033" stroke="black" stroke-width="1.5" stroke-miterlimit="10"/>
<path d="M680.955 103.964C686.047 100.652 691.636 98.089 697.479 96.3928" stroke="black" stroke-width="1.5" stroke-miterlimit="10"/>
<path d="M284.322 274.109C284.322 274.109 262.801 301.802 259.416 351.625C256.031 401.449 262.553 481.258 262.553 481.258H418.972C418.972 481.258 418.972 373.174 409.197 324.42C402.12 289.12 388.967 274.116 388.967 274.116" fill="#4C4139"/>
<path d="M284.709 289.353C284.709 289.353 272.175 332.006 274.626 377.68C277.078 423.354 279.507 481.251 279.507 481.251" stroke="#776152" stroke-width="1.5" stroke-miterlimit="10"/>
<path d="M299.03 289.353C299.03 289.353 292.106 332.006 294.558 377.68C297.009 423.354 299.438 481.251 299.438 481.251" stroke="#776152" stroke-width="1.5" stroke-miterlimit="10"/>
<path d="M312.555 324.799C311.752 338.572 311.504 354.137 312.533 370.051C315.699 419.095 318.836 481.258 318.836 481.258" stroke="#776152" stroke-width="1.5" stroke-miterlimit="10"/>
<path d="M275.371 289.353H397.947" stroke="black" stroke-width="1.5" stroke-miterlimit="10"/>
<path d="M302.955 289.353L353.438 481.258" stroke="black" stroke-width="1.5" stroke-miterlimit="10"/>
<path d="M312.205 289.397C328.488 304.772 347.12 317.665 367.256 327.492" stroke="black" stroke-width="1.5" stroke-miterlimit="10"/>
<path d="M325.621 288.931C344.268 295.046 363.674 298.846 383.254 300.222" stroke="black" stroke-width="1.5" stroke-miterlimit="10"/>
<path d="M351.994 85.2838C352.687 81.2216 358.669 78.8483 362.098 80.6902C370.342 85.109 365.082 100.244 356.765 100.528C354.409 100.608 351.257 99.2174 350.834 96.5093" fill="#BF524F"/>
<path d="M361.697 87.7225L353.198 93.3717" stroke="black" stroke-width="1.5" stroke-miterlimit="10"/>
<path d="M356.59 80.8285C354.606 81.6511 352.869 83.1143 351.695 84.9634" stroke="black" stroke-width="1.5" stroke-miterlimit="10"/>
<path d="M358.596 97.6377L363.71 112.365L354.649 112.037L358.596 97.6377Z" stroke="#FFC36C" stroke-width="1.5" stroke-miterlimit="10" stroke-linejoin="round"/>
<path d="M348.463 115.095L348.295 127.099L376.638 130.79C376.638 130.79 379.33 153.445 338.848 153.445C298.366 153.445 281.995 131.387 281.995 131.387L303.794 125.935L307.463 105.5L306.763 94.6602" fill="#D16159"/>
<path d="M343.619 49.7725C349.813 52.5534 353.92 58.5593 356.306 64.8273C358.29 70.0397 360.931 92.8694 361.142 98.1327C361.412 104.903 358.086 113.333 351.308 116.951C343.531 121.093 335.879 118.662 327.628 113.522C316.035 106.301 306.121 93.9541 305.048 80.1005C304.881 77.9529 304.939 75.7835 305.224 73.6432C306.632 63.0292 314.233 53.1358 324.359 49.0809C329.889 46.8678 338.337 47.4066 343.619 49.7725Z" fill="#D16159"/>
<path d="M346.406 82.5028C346.041 85.7351 346.61 89.0693 348.018 92.0031C348.376 92.7456 348.791 93.4736 348.981 94.2744C349.171 95.0752 349.112 95.9852 348.594 96.6258C348.303 96.9825 347.894 97.2227 347.478 97.412C346.45 97.8779 345.304 98.0599 344.188 97.9434" stroke="black" stroke-width="1.5" stroke-miterlimit="10"/>
<path d="M339.11 99.5232L347.201 101.547C346.078 105.201 343.488 109.635 340.066 107.873C336.659 106.126 337.775 102.282 339.11 99.5232Z" fill="white"/>
<path d="M307.463 105.5C307.281 105.544 307.091 105.456 306.923 105.362C301.386 102.384 297.162 98.817 294.419 93.1751C289.648 83.3546 287.926 72.1508 292.778 62.0027C296.878 53.4343 305.012 45.6885 314.211 42.8639C326.818 38.991 336.79 39.3113 347.828 47.2755C355.773 53.0048 359.063 64.5143 357.969 71.8233C357.123 68.5255 355.43 66.4944 354.219 65.0166C351.702 61.9445 349.163 58.9815 345.348 57.5838C341.7 56.2516 337.622 56.1642 333.887 57.1834C328.029 58.785 323.899 62.3376 320.887 67.63C317.319 73.898 318.224 81.8986 314.664 88.2758C314 89.4697 312.11 90.3724 311.665 91.6609C311.045 93.4518 311.709 94.9441 311.629 96.7204C311.49 99.8362 309.637 102.726 307.857 105.165C307.755 105.303 307.638 105.456 307.463 105.5Z" fill="#2C221D"/>
<path d="M339.446 77.6544C337.79 76.0529 334.441 75.8199 331.611 76.6425C328.78 77.4652 326.409 79.1541 324.439 80.9668" stroke="black" stroke-width="1.5" stroke-miterlimit="10"/>
<path d="M358.159 77.8219C355.518 73.585 350.834 75.7617 348.638 77.982" stroke="black" stroke-width="1.5" stroke-miterlimit="10"/>
<path d="M332.173 85.1381C332.508 86.7907 333.661 87.9482 334.733 87.7298C335.813 87.5114 336.411 85.9972 336.068 84.3446C335.733 82.6921 334.58 81.5346 333.508 81.753C332.428 81.9714 331.83 83.4856 332.173 85.1381Z" fill="black"/>
<path d="M352.118 84.6504C352.454 86.3029 353.606 87.4604 354.679 87.2348C355.758 87.0164 356.357 85.5021 356.014 83.8496C355.678 82.1971 354.525 81.0396 353.453 81.2653C352.381 81.4909 351.782 83.0051 352.118 84.6504Z" fill="black"/>
<path d="M321.383 88.8509C319.938 84.8834 313.467 83.5948 310.345 86.0773C302.853 92.0467 310.95 106.33 319.391 105.085C321.777 104.736 324.695 102.755 324.622 99.9454" fill="#D16159"/>
<path d="M312.059 93.095L321.667 97.23" stroke="black" stroke-width="1.5" stroke-miterlimit="10"/>
<path d="M315.926 85.211C318.078 85.6769 320.091 86.8344 321.623 88.4796" stroke="black" stroke-width="1.5" stroke-miterlimit="10"/>
<path d="M309.769 100.331C311.986 103.221 315.415 105.908 319.172 105.282C321.784 104.845 324.235 102.806 324.374 99.9017" stroke="black" stroke-width="1.5" stroke-miterlimit="10"/>
<path d="M318.508 102.479L314.846 114.811L323.323 116.922L318.508 102.479Z" stroke="#FFC36C" stroke-width="1.5" stroke-miterlimit="10" stroke-linejoin="round"/>
<path d="M348.514 118.604C339.781 121.618 330.348 116.733 324.242 111.513" stroke="black" stroke-width="1.5" stroke-miterlimit="10"/>
<path d="M288.936 68.4847C299.704 64.0407 304.823 51.7276 300.369 40.9826C295.916 30.2377 283.577 25.1298 272.809 29.5738C262.041 34.0178 256.922 46.3309 261.376 57.0759C265.829 67.8208 278.168 72.9287 288.936 68.4847Z" fill="#2C221D"/>
<path d="M302.254 48.7242C295.907 54.0822 291.464 61.3475 289.75 69.1661" stroke="#FFC36C" stroke-width="2" stroke-miterlimit="10" stroke-linecap="round" stroke-linejoin="round"/>
<path d="M395.971 193.608C396.109 176.93 384.655 161.337 384.655 161.337L363.842 128.715C360.041 135.398 354.978 140.574 343.495 143.21C330.218 146.26 318.786 145.299 306.296 140.924C299.628 138.587 293.894 134.518 289.021 129.422C289.021 129.422 274.853 131.562 267.332 137.881C259.803 144.207 282.003 173.807 282.003 173.807C282.469 205.351 289.261 242.959 284.33 274.116H388.982L383.328 225.159C383.313 225.159 395.883 203.523 395.971 193.608Z" fill="#FCDDD2"/>
<path d="M377.834 179.886L420.352 221.585L457.923 188.41C443.354 174.55 428.537 160.958 413.859 147.221C408.562 142.256 402.617 138.762 396.058 135.646C385.939 130.841 371.159 129.545 363.572 128.737" fill="#FCDDD2"/>
<path d="M387.581 161.271C387.056 167.219 389.339 173.45 391.309 178.961C393.446 184.945 395.423 191.089 395.715 197.481" stroke="black" stroke-width="1.5" stroke-miterlimit="10"/>
<path d="M281.988 135.398C288.955 143.188 298.825 148.48 309.287 151.37C319.749 154.268 335.069 154.392 345.983 151.895" stroke="black" stroke-width="1.5" stroke-miterlimit="10"/>
<path d="M353.322 149.929C362.244 146.704 369.073 139.395 373.778 129.909" stroke="black" stroke-width="1.5" stroke-miterlimit="10"/>
<path d="M336.09 219.102C339.205 216.038 342.124 212.769 344.808 209.318" stroke="black" stroke-width="1.5" stroke-miterlimit="10"/>
<path d="M337.885 249.081C347.303 247.246 356.495 244.254 365.184 240.2" stroke="black" stroke-width="1.5" stroke-miterlimit="10"/>
<path d="M353.439 250.369C360.756 250.02 368.051 249.154 375.252 247.778" stroke="black" stroke-width="1.5" stroke-miterlimit="10"/>
<path d="M228.476 196.695C221.984 209.478 215.71 218.309 220.306 233.255C222.837 241.488 226.798 248.542 231.927 258.749C243.519 281.826 265.778 314.651 265.778 314.651L283.513 286.441L263.728 227.008L283.513 186.933" fill="#E27769"/>
<path d="M279.369 279.322C284.235 286.237 290.268 292.746 292.26 300.957C293.609 306.512 292.96 312.35 291.887 317.963C291.326 320.897 290.647 323.809 290.086 326.743C289.801 328.206 289.546 329.676 289.349 331.154C289.261 331.824 289.385 334.692 288.685 334.94C287.167 335.479 285.672 333.396 285.205 332.268C284.133 329.662 284.125 326.728 284.548 323.94C284.658 323.234 284.716 322.353 284.111 321.974C283.388 321.523 282.506 322.244 282.002 322.935C278.836 327.31 277.815 331.533 276.115 336.651C275.086 339.745 273.751 345.75 272.146 348.59C270.782 350.999 268.243 353.351 266.317 351.509C265.931 351.254 264.172 352.717 264.012 351.363C263.516 347.097 264.858 342.787 264.282 338.558C264.143 337.531 263.808 332.312 263.749 331.278C263.414 325.447 263.231 323.197 262.648 317.039C262.276 313.086 261.167 309.402 260.094 305.609C259 301.736 257.738 297.9 256.045 294.238" fill="#E27769"/>
<path d="M282.659 322.775C284.074 321.137 285.46 319.492 286.824 317.832" stroke="black" stroke-width="1.5" stroke-miterlimit="10"/>
<path d="M271.738 324.333C268.316 336.52 267.849 342.504 266.565 351.727" stroke="black" stroke-width="1.5" stroke-miterlimit="10"/>
<path d="M266.142 322.484C266.748 325.287 266.281 328.191 265.975 331.038C265.573 334.736 264.596 341.586 264.596 341.586" stroke="black" stroke-width="1.5" stroke-miterlimit="10"/>
<path d="M263.465 226.521C260.62 223.405 257.249 220.762 253.55 218.738" stroke="black" stroke-width="1.5" stroke-miterlimit="10"/>
<path d="M285.825 172.46C285.825 172.46 301.189 192.88 306.296 205.06C312.905 220.835 319.121 237.404 314.284 250.369C306.901 270.156 264.442 296.058 252.835 318.385L236.231 281.84L266.769 236.676L263.771 226.36" fill="#D16159"/>
<path d="M252.835 260.219C248.144 265.679 243.599 271.27 239.193 276.963C236.472 280.479 233.802 284.039 231.285 287.693C225.901 295.505 221.582 304.634 221.859 314.316C221.969 318.109 222.669 321.858 223.428 325.563C224.15 329.101 225.098 332.683 224.807 336.33C224.719 337.48 224.332 339.992 225.653 340.64C226.193 340.902 226.849 340.655 227.36 340.32C229.22 339.111 230.271 336.971 230.803 334.823C231.292 332.85 231.701 330.586 231.752 328.548C231.788 327.063 231.781 325.279 233.415 324.537C236.063 331.948 238.741 339.482 239.281 347.337C239.624 352.324 239.098 357.355 239.551 362.334C239.675 363.681 239.886 365.064 240.616 366.2C241.097 366.942 242.126 367.896 243.089 367.867C244.913 367.823 245.044 363.608 245.35 362.312C246.109 359.094 246.868 355.877 247.627 352.659C249.698 343.887 250.085 334.918 251.136 325.927C252.15 317.221 258.679 309.198 262.473 302.151" fill="#D16159"/>
<path d="M233.036 324.799C231.774 322.884 230.512 320.97 229.169 319.113C227.929 317.41 226.353 315.83 225.419 313.93" stroke="black" stroke-width="1.5" stroke-miterlimit="10"/>
<path d="M266.317 237.229C273.532 229.746 286.598 222.466 297.002 222.182" stroke="black" stroke-width="1.5" stroke-miterlimit="10"/>
<path d="M245.219 360.762C245.766 354.85 246.314 348.939 246.408 343.006C246.467 339.584 246.379 336.105 247.357 332.829" stroke="black" stroke-width="1.5" stroke-miterlimit="10"/>
<path d="M275.334 133.258C260.824 138.034 251.88 149.106 245.212 159.75C237.245 172.468 227.185 195.865 222.589 203.749L269.148 222.626L293.025 180.257" fill="#FCDDD2"/>
<path d="M269.148 222.626L293.026 180.257" stroke="black" stroke-width="1.5" stroke-miterlimit="10"/>
<path d="M389.251 117.41C400.734 120.264 411.458 126.102 420.081 134.197" stroke="black" stroke-width="1.5" stroke-miterlimit="10"/>
<path d="M386.494 106.184C394.198 108.252 402.142 110.428 408.394 115.364" stroke="black" stroke-width="1.5" stroke-miterlimit="10"/>
<path d="M512.659 79.7365L510.244 109.584L501.264 115.859C501.264 115.859 525.827 140.553 535.537 139.956C545.247 139.359 573.305 113.1 573.305 113.1C573.305 113.1 564.631 108.921 564.376 108.128C564.12 107.334 561.72 82.4664 561.72 82.4664" fill="#D16159"/>
<path d="M512.535 59.957C511.419 55.8949 506.093 54.4098 503.46 56.8485C497.127 62.7161 503.525 77.436 510.536 76.4023C512.52 76.1111 514.979 74.1746 514.979 71.3209" fill="#D16159"/>
<path d="M504.722 64.0192L512.586 68.4745" stroke="black" stroke-width="1.5" stroke-miterlimit="10"/>
<path d="M508.099 56.1133C509.872 56.6447 511.514 57.8677 512.747 59.5858" stroke="black" stroke-width="1.5" stroke-miterlimit="10"/>
<path d="M562.793 59.5494C563.909 55.4872 569.235 54.0021 571.868 56.4409C578.201 62.3084 571.803 77.0283 564.792 75.9946C562.807 75.7034 560.349 73.767 560.349 70.9133" fill="#D16159"/>
<path d="M570.606 63.6188L562.742 68.0741" stroke="black" stroke-width="1.5" stroke-miterlimit="10"/>
<path d="M565.062 51.1557C564.908 44.167 561.815 37.1783 557.007 32.1406C551.485 26.3459 544.292 24.3948 536.435 25.283C529.46 26.0692 522.442 28.7846 517.394 33.7713C514.009 37.1128 512.032 41.5826 511.273 46.2345C510.142 53.1576 510.682 60.2846 512.229 67.0986C514.724 78.1058 520.21 91.2387 533.422 91.5444C542.169 91.7482 552.711 89.5643 558.554 82.5028C561.844 78.5353 563.384 73.3811 564.077 68.2779C564.85 62.6797 565.186 56.783 565.062 51.1557Z" fill="#D16159"/>
<path d="M537.011 51.1848C536.537 56.0186 536.055 60.8452 535.581 65.679C535.392 67.5718 535.844 69.1952 538.069 69.8431C539.302 70.1998 540.637 70.127 541.906 70.0397" stroke="black" stroke-width="1.5" stroke-miterlimit="10"/>
<path d="M574.188 19.3717C573.787 18.6073 573.342 17.8575 572.693 17.2824C570.621 15.4479 567.418 16.0885 564.748 16.8383C567.717 14.8655 568.877 10.7524 567.783 7.36722C566.688 3.98208 563.624 1.41956 560.188 0.473177C556.752 -0.473206 553.017 0.0582245 549.749 1.48508C547.363 2.5261 545.204 4.0112 543.059 5.48901C540.71 7.11242 538.361 8.72856 536.004 10.352C536.974 8.47376 535.537 6.035 533.553 5.32885C531.561 4.61543 529.329 5.21966 527.439 6.16604C525.382 7.19978 523.536 8.65576 522.034 10.4029C520.881 11.7497 520.268 13.3877 519.261 14.8364C518.204 16.3579 516.912 17.7265 515.446 18.8694C513.148 20.653 510.47 21.8615 507.939 23.2956C504.875 25.0209 502.19 27.234 500.447 30.3279C497.251 35.9771 497.85 43.075 500.045 49.1755C501.964 54.519 505.415 56.1933 508.041 61.231C509.187 72.6386 511.433 92.0613 517.044 97.2373C518.802 98.8607 520.618 99.596 522.136 99.909C524.266 100.346 526.279 101.285 527.819 102.828C529.489 104.495 532.386 106.272 537.15 106.272C541.009 106.272 543.745 104.816 545.605 103.156C547.983 101.037 551.003 99.6906 554.192 99.7852C556.322 99.8435 558.758 99.2028 560.787 96.7786C564.39 92.4762 566.535 75.4996 567.338 60.9908C567.673 54.9048 569.512 48.9426 572.89 43.8685C574.305 41.7428 575.392 39.3987 576.063 36.9381C577.661 31.1142 576.975 24.7079 574.188 19.3717ZM561.093 77.6399C558.35 82.2553 553.433 85.5604 548.027 86.0481C546.816 86.1573 545.539 86.1136 544.445 85.6259C543.059 85.0144 543.103 83.107 541.622 82.743C540.586 82.4883 539.499 82.4446 538.434 82.4955C537.354 82.5465 535.8 82.3281 535.107 83.3473C534.552 84.1626 534.013 85.1017 533.144 85.6332C532.152 86.2447 530.803 86.15 529.686 86.0481C524.441 85.5749 519.823 82.3791 516.927 78.3606C514.031 74.3421 513.148 68.2197 512.265 63.4805C511.966 61.8862 511.397 57.5256 511.018 53.6818C513.199 51.6361 514.746 48.8479 515.789 46.0088C517.262 42.0121 519.451 37.6078 519.422 33.7713C527.884 37.1565 538.142 35.584 545.204 29.8256C547.473 32.5192 550.084 34.5576 552.696 36.8653C555.103 38.9983 559.911 41.2259 563.121 41.8374C566.098 59.593 564.544 71.8378 561.093 77.6399Z" fill="#2C221D"/>
<path d="M536.413 75.5796C537.186 77.8146 540.943 78.0766 542.665 77.0429C544.401 76.0019 544.737 74.0145 544.598 72.1217" stroke="black" stroke-width="1.5" stroke-miterlimit="10"/>
<path d="M523.478 69.1588C529.453 69.1588 534.297 64.3252 534.297 58.3627C534.297 52.4002 529.453 47.5667 523.478 47.5667C517.503 47.5667 512.659 52.4002 512.659 58.3627C512.659 64.3252 517.503 69.1588 523.478 69.1588Z" stroke="#FCDDD2" stroke-width="2" stroke-miterlimit="10"/>
<path d="M552.733 69.1588C558.708 69.1588 563.552 64.3252 563.552 58.3627C563.552 52.4002 558.708 47.5667 552.733 47.5667C546.757 47.5667 541.914 52.4002 541.914 58.3627C541.914 64.3252 546.757 69.1588 552.733 69.1588Z" stroke="#FCDDD2" stroke-width="2" stroke-miterlimit="10"/>
<path d="M533.787 55.0722H541.906" stroke="#FCDDD2" stroke-width="2" stroke-miterlimit="10"/>
<path d="M545.619 45.9142C547.881 42.0049 556.891 42.6382 559.838 47.5667" stroke="black" stroke-width="1.5" stroke-miterlimit="10"/>
<path d="M552.251 56.1133C552.251 57.6493 551.361 58.9015 550.259 58.9015C549.158 58.9015 548.268 57.6566 548.268 56.1133C548.268 54.5772 549.158 53.3251 550.259 53.3251C551.361 53.3251 552.251 54.5772 552.251 56.1133Z" fill="black"/>
<path d="M530.927 45.9142C528.665 42.0049 519.655 42.6382 516.708 47.5667" stroke="black" stroke-width="1.5" stroke-miterlimit="10"/>
<path d="M524.295 56.1133C524.295 57.6493 525.185 58.9015 526.287 58.9015C527.388 58.9015 528.278 57.6566 528.278 56.1133C528.278 54.5772 527.388 53.3251 526.287 53.3251C525.193 53.3251 524.295 54.5772 524.295 56.1133Z" fill="black"/>
<path d="M480.625 290.816L477.919 318.182C477.919 318.182 466.385 353.03 468.18 426.2C469.974 499.363 465.969 714.476 465.969 714.476H523.544L541.739 402.825L559.933 714.476H617.508C617.508 714.476 613.503 499.363 615.298 426.2C617.092 353.038 605.558 318.182 605.558 318.182L602.852 290.816" fill="#2A2D3E"/>
<path d="M605.558 318.174H477.911" stroke="black" stroke-width="1.5" stroke-miterlimit="10"/>
<path d="M547.75 317.526V300.47" stroke="black" stroke-width="1.5" stroke-miterlimit="10"/>
<path d="M576.275 317.526V300.47" stroke="black" stroke-width="1.5" stroke-miterlimit="10"/>
<path d="M581.214 317.526V300.47" stroke="black" stroke-width="1.5" stroke-miterlimit="10"/>
<path d="M503.628 317.526V300.47" stroke="black" stroke-width="1.5" stroke-miterlimit="10"/>
<path d="M508.559 317.526V300.47" stroke="black" stroke-width="1.5" stroke-miterlimit="10"/>
<path d="M542.578 312.096C542.578 313.464 541.469 314.571 540.097 314.571C538.726 314.571 537.617 313.464 537.617 312.096C537.617 310.727 538.726 309.62 540.097 309.62C541.469 309.62 542.578 310.727 542.578 312.096Z" stroke="black" stroke-width="1.5" stroke-miterlimit="10"/>
<path d="M541.739 402.817V318.385" stroke="black" stroke-width="1.5" stroke-miterlimit="10"/>
<path d="M530.059 318.385C530.059 319.048 530.606 352.768 531.335 353.867C532.065 354.959 541.731 356.423 541.731 356.423" stroke="black" stroke-width="1.5" stroke-miterlimit="10"/>
<path d="M570.3 318.385C570.3 318.385 573.408 330.23 576.275 331.758C579.142 333.287 609.892 341.812 609.892 341.812" stroke="black" stroke-width="1.5" stroke-miterlimit="10"/>
<path d="M511.769 318.385C511.769 318.385 508.712 330.135 505.896 331.657C503.08 333.178 472.856 341.63 472.856 341.63" stroke="black" stroke-width="1.5" stroke-miterlimit="10"/>
<path d="M468.354 133.142C467.107 152.142 468.449 171.208 469.784 190.209C472.491 228.632 475.197 267.048 477.911 305.471H604.996C604.996 305.471 610.344 184.559 621.659 153.161C631.792 125.039 570.613 108.026 570.613 108.026L538.207 131.409L501.271 111.331L468.354 133.142Z" fill="#735D9D"/>
<path d="M481.384 268.97C486.87 277.742 492.473 286.805 494.173 297.004C494.961 301.707 494.931 305.245 494.851 310.013C494.756 315.772 494.18 319.863 493.662 325.614C493.531 327.063 493.801 334.292 491.539 334.088C490.868 334.03 490.365 333.469 489.971 332.923C488.402 330.776 487.315 328.279 486.812 325.672C486.111 333.768 485.404 341.863 484.703 349.958C484.492 352.382 484.251 354.901 483.004 356.983C482.194 358.337 480.363 358.337 478.918 358.709C478.59 358.796 478.247 358.883 477.97 359.08C477.612 359.327 477.386 359.72 477.167 360.099C476.503 361.242 475.139 363.375 473.593 362.145C472.914 361.599 472.63 360.711 472.389 359.873C471.82 357.915 471.251 355.957 470.689 353.991C470.58 353.62 470.47 353.249 470.28 352.914C469.631 351.807 468.362 351.203 467.734 350.075C467.187 349.092 466.698 347.927 466.312 346.871C465.305 344.127 465.21 341.164 464.663 338.318C464.554 337.75 464.422 337.167 464.116 336.665C463.868 336.25 463.51 335.915 463.226 335.529C462.577 334.649 462.292 333.549 462.051 332.479C460.818 327.136 460.14 321.457 458.965 316.012C457.732 310.327 455.544 305.114 453.231 299.8" fill="#D16159"/>
<path d="M486.994 327.558C487.811 322.659 489.059 317.832 490.707 313.144" stroke="black" stroke-width="1.5" stroke-miterlimit="10"/>
<path d="M478.262 320.868C476.802 333.411 476.868 346.122 478.459 358.65" stroke="black" stroke-width="1.5" stroke-miterlimit="10"/>
<path d="M468.194 323.576C468.011 335.588 469.354 347.614 472.177 359.291" stroke="black" stroke-width="1.5" stroke-miterlimit="10"/>
<path d="M463.612 322.935C463.16 328.351 464.364 334.503 465.969 339.759" stroke="black" stroke-width="1.5" stroke-miterlimit="10"/>
<path d="M537.624 131.402L536.705 305.471" stroke="black" stroke-width="1.5" stroke-miterlimit="10"/>
<path d="M544.007 147.257C545.264 147.257 546.283 146.24 546.283 144.986C546.283 143.732 545.264 142.715 544.007 142.715C542.75 142.715 541.731 143.732 541.731 144.986C541.731 146.24 542.75 147.257 544.007 147.257Z" stroke="black" stroke-width="1.5" stroke-miterlimit="10"/>
<path d="M546.283 182.157C546.283 183.409 545.269 184.428 544.007 184.428C542.753 184.428 541.731 183.416 541.731 182.157C541.731 180.905 542.745 179.886 544.007 179.886C545.262 179.886 546.283 180.905 546.283 182.157Z" stroke="black" stroke-width="1.5" stroke-miterlimit="10"/>
<path d="M544.007 221.592C545.264 221.592 546.283 220.575 546.283 219.321C546.283 218.066 545.264 217.049 544.007 217.049C542.75 217.049 541.731 218.066 541.731 219.321C541.731 220.575 542.75 221.592 544.007 221.592Z" stroke="black" stroke-width="1.5" stroke-miterlimit="10"/>
<path d="M544.007 258.756C545.264 258.756 546.283 257.739 546.283 256.485C546.283 255.23 545.264 254.213 544.007 254.213C542.75 254.213 541.731 255.23 541.731 256.485C541.731 257.739 542.75 258.756 544.007 258.756Z" stroke="black" stroke-width="1.5" stroke-miterlimit="10"/>
<path d="M544.007 295.92C545.264 295.92 546.283 294.903 546.283 293.648C546.283 292.394 545.264 291.377 544.007 291.377C542.75 291.377 541.731 292.394 541.731 293.648C541.731 294.903 542.75 295.92 544.007 295.92Z" stroke="black" stroke-width="1.5" stroke-miterlimit="10"/>
<path d="M609.892 194.074L612.489 158.81" stroke="black" stroke-width="1.5" stroke-miterlimit="10"/>
<path d="M501.446 109.082C487.417 110.072 472.826 111.229 460.702 118.334C452.75 122.993 446.41 129.917 440.34 136.84C428.339 150.526 416.499 164.387 405.716 179.07C395.948 192.378 386.632 206.064 389.492 223.419C391.651 236.53 399.72 246.744 407.606 256.965C421.766 275.31 455.449 313.049 456.842 314.651L486.994 275.048L445.206 218.44L480.625 176.013" fill="#735D9D"/>
<path d="M470.178 188.52L464.743 162.276" stroke="black" stroke-width="1.5" stroke-miterlimit="10"/>
<path d="M429.478 213.249C435.482 213.497 441.675 214.807 446.403 218.505" stroke="black" stroke-width="1.5" stroke-miterlimit="10"/>
<path d="M429.689 205.06C433.723 205.882 437.539 207.768 440.632 210.483" stroke="black" stroke-width="1.5" stroke-miterlimit="10"/>
<path d="M474.585 258.232L486.994 275.041L456.842 314.651" stroke="black" stroke-width="1.5" stroke-miterlimit="10"/>
<path d="M446.403 302.828L477.838 262.636" stroke="black" stroke-width="1.5" stroke-miterlimit="10"/>
<path d="M482.252 281.578L464.743 258.749" stroke="black" stroke-width="1.5" stroke-miterlimit="10"/>
<path d="M476.321 279.314C476.321 280.566 475.307 281.586 474.045 281.586C472.783 281.586 471.769 280.574 471.769 279.314C471.769 278.062 472.783 277.043 474.045 277.043C475.307 277.043 476.321 278.062 476.321 279.314Z" stroke="black" stroke-width="1.5" stroke-miterlimit="10"/>
<path d="M601.794 284.148C596.308 292.302 590.705 300.724 589.005 310.203C588.217 314.571 588.246 317.861 588.326 322.295C588.421 327.645 588.998 331.445 589.516 336.789C589.647 338.136 589.377 344.848 591.638 344.666C592.31 344.615 592.813 344.091 593.207 343.588C594.775 341.594 595.862 339.279 596.366 336.847C597.066 344.367 597.774 351.887 598.474 359.415C598.686 361.664 598.927 364.008 600.174 365.945C600.984 367.204 602.815 367.204 604.259 367.546C604.588 367.626 604.931 367.706 605.208 367.888C605.565 368.121 605.791 368.485 606.01 368.835C606.674 369.898 608.038 371.885 609.585 370.735C610.264 370.233 610.548 369.403 610.789 368.624C611.358 366.804 611.927 364.984 612.489 363.164C612.598 362.822 612.707 362.472 612.897 362.167C613.546 361.14 614.816 360.579 615.443 359.524C615.99 358.614 616.479 357.529 616.866 356.546C617.873 353.998 617.967 351.239 618.515 348.597C618.624 348.065 618.755 347.527 619.062 347.068C619.31 346.682 619.667 346.369 619.952 346.012C620.601 345.19 620.886 344.171 621.126 343.173C622.359 338.208 623.038 332.931 624.212 327.878C625.445 322.593 627.634 317.752 629.946 312.809" fill="#D16159"/>
<path d="M596.184 338.58C595.366 334.03 594.119 329.538 592.47 325.185" stroke="black" stroke-width="1.5" stroke-miterlimit="10"/>
<path d="M604.916 332.363C606.375 344.018 606.309 355.833 604.719 367.466" stroke="black" stroke-width="1.5" stroke-miterlimit="10"/>
<path d="M614.983 334.882C615.166 346.042 613.824 357.216 611 368.063" stroke="black" stroke-width="1.5" stroke-miterlimit="10"/>
<path d="M619.565 334.285C620.017 339.315 618.814 345.037 617.209 349.914" stroke="black" stroke-width="1.5" stroke-miterlimit="10"/>
<path d="M566.674 107.24C566.674 107.24 584.27 110.829 591.471 112.074C611.708 115.583 629.385 128.97 645.259 141.237C658.194 151.225 670.333 162.239 681.517 174.142C692.212 185.513 703.586 198.056 708.51 213.162C712.741 226.135 708.255 238.904 700.587 249.591C693.562 259.382 684.494 268.023 675.856 276.38C661.331 290.445 631.471 320.351 631.471 320.351L599.182 286.441L650.417 215.317L579.309 178.058" fill="#735D9D"/>
<path d="M662.761 220.617C670.049 219.379 677.475 218.971 684.851 219.408" stroke="black" stroke-width="1.5" stroke-miterlimit="10"/>
<path d="M664.344 214.684C667.423 212.529 671.078 211.306 674.784 210.643C678.482 209.981 682.261 209.857 686.018 209.74" stroke="black" stroke-width="1.5" stroke-miterlimit="10"/>
<path d="M608.133 274.036L642.604 308.994" stroke="black" stroke-width="1.5" stroke-miterlimit="10"/>
<path d="M606.769 294.391L629.392 267.237" stroke="black" stroke-width="1.5" stroke-miterlimit="10"/>
<path d="M617.209 293.656C618.466 293.656 619.485 292.639 619.485 291.384C619.485 290.13 618.466 289.113 617.209 289.113C615.952 289.113 614.933 290.13 614.933 291.384C614.933 292.639 615.952 293.656 617.209 293.656Z" stroke="black" stroke-width="1.5" stroke-miterlimit="10"/>
<path d="M510.419 99.545L496.573 109.846L511.032 149.288L537.624 131.402L510.419 99.545Z" fill="#735D9D"/>
<path d="M564.23 101.467L578.645 109.795L563.551 149.288L538.2 131.402L564.23 101.467Z" fill="#735D9D"/>
<path d="M578.645 109.795L563.551 149.288L538.2 131.402L511.032 149.288L496.573 109.846" stroke="black" stroke-width="1.5" stroke-miterlimit="10"/>
<path d="M595.14 174.404H562.158V177.971H595.14V174.404Z" stroke="black" stroke-width="1.5" stroke-miterlimit="10"/>
<path d="M613.539 195.989C613.539 195.989 616.829 169.614 618.077 164.409" stroke="black" stroke-width="1.5" stroke-miterlimit="10"/>
<path d="M464.743 195.035L445.206 218.433C443.988 218.047 395.97 278.106 395.97 278.106L420.198 294.391C420.198 294.391 471.411 247.072 478.458 237.397C485.499 227.722 477.933 207.702 464.743 195.035Z" fill="#E27769"/>
<path d="M447.096 215.834C452.414 211.626 458.608 208.532 465.174 206.807" stroke="black" stroke-width="1.5" stroke-miterlimit="10"/>
<path d="M404.775 267.819C398.968 273.971 392.067 279.547 388.908 287.388C386.778 292.687 386.574 298.562 386.829 304.27C386.96 307.254 387.216 310.232 387.354 313.217C387.42 314.709 387.464 316.194 387.449 317.686C387.442 318.364 386.902 321.181 387.558 321.53C388.981 322.28 390.761 320.438 391.381 319.383C392.818 316.951 393.249 314.054 393.227 311.236C393.22 310.523 393.293 309.642 393.942 309.351C394.722 309.009 395.496 309.846 395.89 310.603C398.399 315.386 398.801 319.71 399.749 325.017C400.318 328.228 400.785 334.357 401.959 337.4C402.959 339.985 405.14 342.671 407.307 341.128C407.73 340.931 409.255 342.627 409.605 341.31C410.714 337.16 409.992 332.705 411.181 328.592C411.465 327.594 412.545 322.484 412.757 321.465C413.931 315.743 414.435 313.537 415.886 307.531C416.82 303.673 418.454 300.186 420.052 296.582C421.686 292.906 423.495 289.288 425.691 285.903" fill="#E27769"/>
<path d="M395.284 310.356C394.117 308.536 392.979 306.708 391.87 304.874" stroke="black" stroke-width="1.5" stroke-miterlimit="10"/>
<path d="M405.87 313.457C407.504 326.007 407.11 331.999 407.052 341.31" stroke="black" stroke-width="1.5" stroke-miterlimit="10"/>
<path d="M411.67 312.423C410.67 315.109 410.714 318.05 410.612 320.911C410.48 324.631 410.458 331.547 410.458 331.547" stroke="black" stroke-width="1.5" stroke-miterlimit="10"/>
<path d="M696.677 254.585C702.776 261.362 710.071 267.543 713.267 276.075C715.426 281.84 715.492 288.174 715.069 294.318C714.85 297.529 714.5 300.732 714.273 303.942C714.164 305.544 714.076 307.152 714.055 308.754C714.047 309.482 714.551 312.532 713.836 312.889C712.282 313.661 710.414 311.63 709.772 310.479C708.291 307.83 707.897 304.692 707.992 301.656C708.014 300.885 707.963 299.931 707.27 299.603C706.438 299.21 705.585 300.098 705.14 300.899C702.316 305.98 701.769 310.632 700.617 316.332C699.916 319.776 699.267 326.371 697.917 329.618C696.772 332.377 694.357 335.216 692.059 333.491C691.607 333.273 689.922 335.056 689.579 333.629C688.492 329.13 689.382 324.348 688.207 319.892C687.923 318.815 686.894 313.275 686.697 312.176C685.581 305.98 685.092 303.593 683.684 297.084C682.772 292.898 681.109 289.106 679.475 285.182C677.804 281.178 675.958 277.232 673.675 273.534" fill="#E89274"/>
<path d="M677.957 228.275C669.254 222.808 633.806 206.61 633.806 206.61C631.355 220.18 637.147 234.973 644.982 246.023C658.53 265.133 675.55 281.105 690.899 298.708L708.525 269.552C708.525 269.537 686.661 233.742 677.957 228.275Z" fill="#E89274"/>
<path d="M705.803 300.659C707.109 298.73 708.379 296.786 709.619 294.835" stroke="black" stroke-width="1.5" stroke-miterlimit="10"/>
<path d="M694.321 303.724C692.234 317.206 692.511 323.663 692.329 333.702" stroke="black" stroke-width="1.5" stroke-miterlimit="10"/>
<path d="M688.098 302.464C689.104 305.383 688.98 308.55 689.024 311.637C689.075 315.648 688.915 323.103 688.915 323.103" stroke="black" stroke-width="1.5" stroke-miterlimit="10"/>
<path d="M589.859 31.3617C590.544 34.8415 589.837 38.4887 588.465 41.7646C587.101 45.0406 585.109 48.018 583.125 50.9664" stroke="black" stroke-width="1.5" stroke-miterlimit="10"/>
<path d="M597.117 47.5449C593.82 52.4297 589.924 56.9213 585.554 60.8743" stroke="black" stroke-width="1.5" stroke-miterlimit="10"/>
<path d="M1099.88 77.8C1097.71 90.4015 1094.08 102.748 1089.08 114.512" stroke="black" stroke-width="1.5" stroke-miterlimit="10"/>
<path d="M1113.58 68.5764C1112.21 77.9529 1109.72 87.6206 1105.87 96.1599" stroke="black" stroke-width="1.5" stroke-miterlimit="10"/>
</g>
<defs>
<clipPath id="clip0_289_1543">
<rect width="1114" height="398" fill="white"/>
</clipPath>
</defs>
</svg>
