<svg width="1094" height="610" viewBox="0 0 1094 610" fill="none" xmlns="http://www.w3.org/2000/svg">
<g clip-path="url(#clip0_79_574)">
<path d="M1055.71 610.95C1069.61 584.255 1066.18 549.499 1047.32 526.048C1034.15 509.644 1014.48 498.714 1003.91 480.517C991.917 459.873 994.069 433.74 1001.49 411.037C1008.92 388.334 1021.11 367.44 1028.74 344.799C1044.39 298.365 1039.73 229.102 1024.95 182.948C1011.64 141.394 989.391 106.217 944.759 90.7957C912.68 79.7094 877.499 92.6825 847.401 108.337C790.964 137.683 738.207 156.487 673.504 143.717C627.125 134.564 588.279 110.645 548.045 87.3966C513.253 67.2977 477.26 49.2882 440.254 33.6021C406.959 19.4907 368.846 5.48859 333.446 20.8941C285.118 41.9129 274.436 103.613 255.441 152.761C233.063 210.672 190.411 260.521 136.656 291.582C91.4785 317.684 34.8385 334.773 12.3821 381.863C-24.3278 458.844 36.4448 520.138 88.1724 569.27C183.3 659.645 329.095 737.172 463.724 681.631C517.604 659.411 557.074 627.836 612.841 609.188C638.588 600.58 666.72 598.663 691.953 610.248C719.664 622.987 737.52 653.892 768.694 659.63C815.884 668.315 849.116 613.772 896.493 621.63C911.745 624.156 924.86 633.512 939.082 639.593C974.591 654.796 1035.97 648.886 1055.71 610.95Z" stroke="#DFE2F7" stroke-width="1.5" stroke-miterlimit="10"/>
<path d="M440.27 11.3826L414.492 69.3404L494.352 82.3134L440.27 11.3826Z" fill="#909DF4"/>
<path d="M97.3577 119.845L56.1565 156.955L132.836 190.604L97.3577 119.845Z" fill="#FFDD99"/>
<path d="M86.3946 200.49L36.1484 207.959L54.5346 240.5L86.3946 200.49Z" fill="#ED725A"/>
<path d="M152.267 126.862C164.976 111.472 189.85 128.062 198.598 139.803C201.858 144.185 204.4 149.112 207.909 153.307C211.417 157.501 216.267 161.025 221.725 161.212C230.942 161.524 239.831 150.017 247.363 160.432C250.981 165.438 252.088 171.675 255.098 176.976C258.778 183.478 265.281 180.422 271.285 181.794C276.245 182.917 281.687 188.78 281.687 194.066" stroke="#8F96DB" stroke-width="1.5" stroke-miterlimit="10"/>
<path d="M955.893 162.335C960.275 167.574 966.342 171.363 972.954 173.016C982.654 175.432 998.841 175.526 1003.78 164.502C1006.62 158.171 1003.74 150.422 998.654 145.713C995.208 142.516 990.623 140.333 985.944 140.599C981.656 140.848 977.164 143.826 976.821 148.114C976.603 150.827 978.022 153.384 979.66 155.552C995.036 175.963 1040.39 176.399 1044.5 145.978C1045.53 138.353 1042.69 128.857 1036.85 123.665C1030.16 117.709 1018.49 120.235 1015.85 129.309C1013.02 139.086 1022.16 147.335 1029.83 151.482C1039.65 156.799 1051.25 158.281 1062.09 155.489C1072.6 152.776 1082.05 144.575 1084.21 133.94" stroke="#FFDD99" stroke-width="1.5" stroke-miterlimit="10"/>
<path d="M975.246 36.3464C957.921 36.3152 941.203 48.2124 935.558 64.6002C933.686 70.0264 932.953 75.7957 930.911 81.1595C928.868 86.5234 925.109 91.7001 919.604 93.3218C916.579 94.2105 913.351 93.9455 910.216 94.2261C901.218 95.037 892.095 102.194 892.516 111.222C892.781 116.898 898.38 124.523 894.934 129.777C889.101 138.665 870.45 135.921 879.37 153.369" stroke="#ED725A" stroke-width="1.5" stroke-miterlimit="10"/>
<path d="M791.728 82.329C804.896 82.329 815.572 71.655 815.572 58.4879C815.572 45.3208 804.896 34.6468 791.728 34.6468C778.559 34.6468 767.883 45.3208 767.883 58.4879C767.883 71.655 778.559 82.329 791.728 82.329Z" stroke="#909DF4" stroke-width="1.5" stroke-miterlimit="10"/>
<path d="M302.801 66.3752C320.073 59.0788 328.159 39.1636 320.862 21.8936C313.565 4.62349 293.647 -3.46171 276.374 3.83477C259.102 11.1312 251.016 31.0464 258.313 48.3164C265.611 65.5865 285.528 73.6717 302.801 66.3752Z" stroke="#ED725A" stroke-width="1.5" stroke-miterlimit="10"/>
<path d="M1002.88 323.406C1012.36 323.406 1020.05 315.72 1020.05 306.239C1020.05 296.757 1012.36 289.071 1002.88 289.071C993.397 289.071 985.71 296.757 985.71 306.239C985.71 315.72 993.397 323.406 1002.88 323.406Z" stroke="#FFDD99" stroke-width="1.5" stroke-miterlimit="10"/>
<path d="M1002.27 315.735C1002.27 320.428 998.467 324.248 993.757 324.248C989.063 324.248 985.242 320.444 985.242 315.735C985.242 311.026 989.047 307.221 993.757 307.221C998.467 307.237 1002.27 311.041 1002.27 315.735Z" fill="#ED725A"/>
<path d="M20.2574 575.009C20.2574 579.702 16.4523 583.522 11.7427 583.522C7.03314 583.522 3.22803 579.718 3.22803 575.009C3.22803 570.315 7.03314 566.495 11.7427 566.495C16.4523 566.495 20.2574 570.315 20.2574 575.009Z" fill="#909DF4"/>
<path d="M734.292 38.2643C734.292 42.9577 730.487 46.7779 725.778 46.7779C721.084 46.7779 717.263 42.9733 717.263 38.2643C717.263 33.5709 721.068 29.7507 725.778 29.7507C730.472 29.7507 734.292 33.5553 734.292 38.2643Z" fill="#909DF4"/>
<path d="M255.815 90.5151C262.053 88.0826 268.385 85.6346 275.044 85.0577C281.703 84.4807 288.861 86.04 293.664 90.6866C297.859 94.7407 300.354 101.102 305.937 102.786C313.422 105.047 320.159 97.3602 327.847 96.0037C335.629 94.6315 342.881 99.8395 349.072 104.767" stroke="#FFDD99" stroke-width="1.5" stroke-miterlimit="10"/>
<path d="M1030.22 594.796L1055.73 651.49L1094 612.166L1030.22 594.796Z" fill="#FFDD99"/>
<path d="M514.875 2.3233C525.9 10.5094 531.904 23.8099 530.22 36.3152C529.253 43.519 526.087 51.3776 530.407 57.6615C537.971 68.6387 542.898 68.8102 540.029 83.1866C539.125 87.724 538.922 93.0255 542.587 96.4091C544.115 97.828 546.173 98.7168 547.67 100.167C551.585 103.971 550.353 109.866 548.871 114.746" stroke="#ED725A" stroke-width="1.5" stroke-miterlimit="10"/>
<path d="M1002.88 356.977C1006.75 354.95 1011.36 352.892 1015.26 354.857C1021.2 357.835 1023.2 363.869 1030.98 363.698C1040.49 363.495 1045.75 355.137 1053.45 365.023C1056.95 369.514 1061.08 374.269 1067.04 375.236C1069.14 375.579 1071.28 375.376 1073.41 375.47C1081.09 375.813 1088.43 380.319 1092.22 386.993" stroke="#8F96DB" stroke-width="1.5" stroke-miterlimit="10"/>
<path d="M815.556 107.62L809.958 157.376L855.307 116.96L815.556 107.62Z" fill="#909DF4"/>
<path d="M591.538 441.754C591.538 441.754 523.967 593.002 515.623 630.238C507.28 667.473 513.596 877.037 513.596 877.037L632.599 867.588C632.599 867.588 622.993 650.96 623.071 648.824C623.133 646.672 662.136 529.977 662.136 529.977L681.957 931.643L790.371 921.601C790.371 921.601 760.881 540.658 760.055 512.545C759.228 484.431 743.197 421.92 743.197 421.92" fill="#2C221D"/>
<path d="M670.915 463.646L665.738 504.187C665.738 504.187 677.481 501.536 679.617 496.827C681.754 492.118 687.306 457.565 687.306 457.565" stroke="#633B1F" stroke-miterlimit="10"/>
<path d="M716.592 451.671C715.672 454.197 726.854 500.429 760.071 512.545" stroke="#633B1F" stroke-miterlimit="10"/>
<path d="M562.829 507.633C562.829 507.633 615.211 492.945 624.428 449.535" stroke="#633B1F" stroke-miterlimit="10"/>
<path d="M662.541 529.213L673.598 442.534" stroke="#633B1F" stroke-miterlimit="10"/>
<path d="M740.655 242.122L664.288 199.663C664.288 199.663 647.243 230.116 641.083 230.116C634.939 230.116 617.285 204.887 617.285 204.887L551.07 235.667C551.07 235.667 572.482 386.431 577.644 413.157C582.806 439.883 569.784 446.681 577.644 459.701H754.628C754.628 459.701 765.03 445.153 761.833 436.78C758.651 428.407 755.735 414.857 754.628 404.082C753.521 393.323 740.655 242.122 740.655 242.122Z" fill="#B5AE6B"/>
<path d="M613.153 209.128C599.539 205.199 585.238 197.652 571.125 196.451C565.948 196.015 558.696 194.611 553.503 194.752C531.39 195.328 503.522 198.806 457.284 211.841C442.937 215.879 383.583 231.051 370.39 238.099L386.265 287.683C386.265 287.683 472.488 264.373 496.738 264.762C520.988 265.152 564.872 269.081 564.872 269.081" fill="#B5AE6B"/>
<path d="M668.031 202.969C686.885 202.969 708.374 203.749 725.887 211.327C742.901 218.686 757.295 230.833 770.8 243.276C786.925 258.136 802.566 274.024 821.888 284.409C847.416 298.146 914.957 317.294 914.957 317.294L894.809 365.148C894.809 365.148 788.936 338.484 772.047 330.906C755.174 323.328 707.657 281.961 707.657 281.961" fill="#B5AE6B"/>
<path d="M611.281 338.5C636.825 322.128 659.547 301.389 678.167 277.439" stroke="black" stroke-miterlimit="10"/>
<path d="M611.141 312.788C620.888 308.391 630.51 303.697 639.96 298.708" stroke="black" stroke-miterlimit="10"/>
<path d="M571.374 196.872C569.519 198.369 568.053 200.287 566.68 202.252C555 219.06 550.103 240.469 553.331 260.677" stroke="#A59D60" stroke-miterlimit="10"/>
<path d="M555.187 268.271L551.07 244.975" stroke="black" stroke-miterlimit="10"/>
<path d="M371.637 241.451C375.006 239.019 378.702 236.477 382.85 236.509C384.831 236.524 386.796 237.148 388.776 236.976C393.782 236.571 397.166 231.472 402 230.131C406.694 228.821 411.731 231.301 416.503 230.365C421.618 229.352 425.486 224.627 430.663 224.066C433.985 223.707 437.338 225.142 440.628 224.58C444.356 223.941 447.147 220.932 450.344 218.905C454.586 216.223 459.872 215.24 464.8 216.207C466.36 216.519 467.919 217.018 469.51 216.987C472.052 216.94 474.344 215.568 476.527 214.258C481.783 211.108 487.709 208.021 493.728 209.144C495.974 209.565 498.126 210.563 500.419 210.656C506.828 210.906 511.491 204.247 517.791 202.984C523.327 201.877 528.785 205.167 534.431 205.526C539.608 205.854 544.583 203.686 549.651 202.564C554.719 201.425 560.786 201.644 564.154 205.604" stroke="#A59D60" stroke-miterlimit="10"/>
<path d="M375.318 251.103C378.312 251.446 381.478 251.431 384.176 250.09C386.375 248.998 388.152 247.096 390.492 246.394C392.955 245.661 395.591 246.379 398.18 246.55C402.063 246.8 405.837 245.864 409.361 244.242C412.932 242.59 415.24 239.83 419.451 239.424C423.973 239.003 428.621 240.828 433.003 239.611C435.903 238.801 438.258 236.758 440.551 234.825C441.533 233.998 442.562 233.156 443.794 232.782C444.87 232.47 446.024 232.532 447.147 232.642C451.654 233.109 456.332 234.248 460.621 232.751C464.582 231.363 467.67 227.823 471.787 227.044C477.058 226.046 482.36 229.819 487.647 228.884C492.559 228.011 496.13 223.286 501.058 222.428C505.908 221.586 510.586 224.752 515.514 224.923C521.425 225.142 526.54 221.165 531.982 218.842C534.041 217.969 536.286 217.314 538.501 217.626C540.31 217.875 541.963 218.733 543.647 219.435C547.842 221.181 552.443 221.945 556.981 221.649" stroke="#A59D60" stroke-miterlimit="10"/>
<path d="M545.066 211.295C548.824 210.001 552.926 209.767 556.809 210.625" stroke="#A59D60" stroke-miterlimit="10"/>
<path d="M510.118 214.383C515.826 212.948 521.97 213.213 527.538 215.162" stroke="#A59D60" stroke-miterlimit="10"/>
<path d="M549.136 209.814C551.866 208.395 554.61 207.007 557.355 205.651" stroke="#A59D60" stroke-miterlimit="10"/>
<path d="M516.887 213.166C519.881 211.545 523.062 210.297 526.353 209.424" stroke="#A59D60" stroke-miterlimit="10"/>
<path d="M478.96 219.809C484.06 218.218 489.596 218.078 494.773 219.372" stroke="#A59D60" stroke-miterlimit="10"/>
<path d="M450.671 225.672C451.888 224.767 453.494 224.58 455.007 224.471C457.673 224.268 460.356 224.128 463.038 224.05C464.005 224.019 464.987 224.003 465.923 224.284" stroke="#A59D60" stroke-miterlimit="10"/>
<path d="M489.908 214.102C487.896 215.318 486.025 216.753 484.294 218.343" stroke="#A59D60" stroke-miterlimit="10"/>
<path d="M460.792 221.259C459.498 222.117 458.313 223.13 457.268 224.284" stroke="#A59D60" stroke-miterlimit="10"/>
<path d="M424.784 232.392C428.808 231.363 433.034 231.145 437.151 231.753" stroke="#A59D60" stroke-miterlimit="10"/>
<path d="M398.647 239.3C402.125 237.101 406.304 236.025 410.421 236.275" stroke="#A59D60" stroke-miterlimit="10"/>
<path d="M377.891 242.964C381.571 240.953 385.953 240.266 390.07 241.062" stroke="#A59D60" stroke-miterlimit="10"/>
<path d="M718.62 208.894C714.378 216.004 712.273 224.237 711.446 232.486C710.604 240.734 710.994 249.045 711.415 257.309C712.039 269.393 712.772 281.571 716.047 293.219" stroke="#A59D60" stroke-miterlimit="10"/>
<path d="M711.446 232.486C711.197 237.647 716.374 241.467 721.333 243.26C726.292 245.053 731.891 246.005 735.571 249.731C739.953 254.159 740.78 261.784 746.41 264.544C748.546 265.589 751.026 265.714 753.193 266.68C760.788 270.079 761.661 282.117 769.692 284.316C772.359 285.048 775.275 284.44 777.958 285.142C784.757 286.935 786.909 295.87 793.162 299.019C799.432 302.169 807.463 298.458 813.935 301.14C818.083 302.871 820.718 306.847 824.133 309.731C829.467 314.238 837.077 316.031 843.939 314.394C846.356 313.817 848.882 312.834 851.268 313.536C855.058 314.643 856.352 319.181 859.003 322.065C861.81 325.106 866.286 326.228 870.465 325.979C874.645 325.745 878.653 324.311 882.598 322.97C883.393 322.705 884.22 322.424 885.062 322.533C886.762 322.751 887.822 324.373 888.82 325.729C893.187 331.764 900.563 335.584 908.111 335.709" stroke="#A59D60" stroke-miterlimit="10"/>
<path d="M716.094 213.79C726.729 215.084 732.53 226.966 741.856 232.267C743.525 233.219 745.318 233.951 746.909 235.027C750.386 237.382 752.694 241.218 753.786 245.287C754.503 247.938 754.878 250.947 756.936 252.772C758.558 254.222 760.866 254.565 763.002 254.986C768.445 256.046 774.059 258.245 777.178 262.845C779.938 266.93 780.78 272.839 785.24 274.913C786.893 275.677 788.765 275.755 790.574 276.005C796.671 276.847 802.426 279.981 806.48 284.627C808.866 287.372 810.785 290.724 813.982 292.47C817.178 294.232 821.015 294.045 824.664 294.108C831.759 294.232 839.37 295.714 844.251 300.89C846.309 303.073 847.947 305.927 850.754 306.94C852.532 307.58 854.481 307.361 856.368 307.299C862.621 307.081 868.906 308.702 874.286 311.914C876.625 313.318 878.871 315.033 881.538 315.579C883.581 316 885.702 315.688 887.791 315.688C896.758 315.719 904.509 321.613 911.526 327.211" stroke="#A59D60" stroke-miterlimit="10"/>
<path d="M718.589 229.149C724.343 229.492 730.02 231.269 734.947 234.263" stroke="#A59D60" stroke-miterlimit="10"/>
<path d="M736.304 242.59C742.059 244.57 747.221 248.281 750.932 253.115" stroke="#A59D60" stroke-miterlimit="10"/>
<path d="M759.026 263.842C764.437 266.228 770.004 268.723 774.012 273.073" stroke="#A59D60" stroke-miterlimit="10"/>
<path d="M788.765 285.157C791.837 285.875 794.94 286.608 797.872 287.777C800.804 288.946 803.611 290.584 805.763 292.907" stroke="#A59D60" stroke-miterlimit="10"/>
<path d="M823.962 301.093C830.496 302.777 837.623 303.416 843.003 307.486" stroke="#A59D60" stroke-miterlimit="10"/>
<path d="M861.857 314.783C866.723 314.612 871.62 315.47 876.126 317.294" stroke="#A59D60" stroke-miterlimit="10"/>
<path d="M890.13 321.675C892.641 322.284 895.168 322.782 897.616 323.578C900.064 324.389 902.435 325.527 904.353 327.258" stroke="#A59D60" stroke-miterlimit="10"/>
<path d="M721.474 222.959C724.437 224.923 726.402 228.026 728.289 231.036" stroke="#A59D60" stroke-miterlimit="10"/>
<path d="M740.749 239.035C742.37 241.498 743.79 244.087 744.99 246.784" stroke="#A59D60" stroke-miterlimit="10"/>
<path d="M764.562 260.958C766.963 263 768.242 266.041 769.443 268.957" stroke="#A59D60" stroke-miterlimit="10"/>
<path d="M792.149 281.4C794.27 282.834 795.517 285.189 796.703 287.465" stroke="#A59D60" stroke-miterlimit="10"/>
<path d="M828.812 298.224C830.933 299.565 832.804 301.311 834.301 303.338" stroke="#A59D60" stroke-miterlimit="10"/>
<path d="M863.417 311.213C865.272 312.257 866.972 313.598 868.407 315.173" stroke="#A59D60" stroke-miterlimit="10"/>
<path d="M894.403 319.726C895.651 320.646 896.742 321.769 897.631 323.048" stroke="#A59D60" stroke-miterlimit="10"/>
<path d="M746.877 315.064L706.409 286.187" stroke="black" stroke-miterlimit="10"/>
<path d="M604.435 214.336C606.416 219.591 609.02 225.298 612.201 229.944C615.352 234.56 619.515 238.598 623.866 242.153C627.921 245.49 633.13 248.375 638.572 248.156C644.342 247.922 648.833 243.619 652.607 239.409C660.763 230.334 670.775 214.32 675.235 203.873" stroke="#A59D60" stroke-miterlimit="10"/>
<path d="M634.315 237.99C632.506 240.313 631.071 242.933 630.057 245.755" stroke="#A59D60" stroke-miterlimit="10"/>
<path d="M638.634 239.206C638.525 242.075 638.588 244.96 638.79 247.829C639.009 247.907 639.258 247.766 639.336 247.548" stroke="#A59D60" stroke-miterlimit="10"/>
<path d="M645.262 232.392C646.9 235.479 648.522 238.551 650.159 241.639C650.206 241.716 650.268 241.81 650.362 241.794C650.44 241.779 650.377 241.592 650.33 241.67" stroke="#A59D60" stroke-miterlimit="10"/>
<path d="M650.065 224.798C652.202 225.718 654.042 227.262 655.851 228.775C656.678 229.461 657.489 230.162 658.315 230.848" stroke="#A59D60" stroke-miterlimit="10"/>
<path d="M655.648 215.958C658.736 217.33 661.652 219.154 664.288 221.368" stroke="#A59D60" stroke-miterlimit="10"/>
<path d="M659.001 210.687C662.229 212.059 665.208 214.055 667.781 216.534" stroke="#A59D60" stroke-miterlimit="10"/>
<path d="M625.644 231.02C623.118 232.985 620.747 235.168 618.517 237.522" stroke="#A59D60" stroke-miterlimit="10"/>
<path d="M612.779 230.35C615.211 227.418 618.221 225.048 621.558 223.426" stroke="#A59D60" stroke-miterlimit="10"/>
<path d="M607.96 222.616C610.626 220.932 613.293 219.263 615.944 217.579" stroke="#A59D60" stroke-miterlimit="10"/>
<path d="M496.769 181.763C511.35 179.221 526.306 178.8 540.996 180.516" stroke="black" stroke-miterlimit="10"/>
<path d="M482.453 172.61C491.327 170.801 500.434 170.1 509.479 170.489" stroke="black" stroke-miterlimit="10"/>
<path d="M793.256 235.012C803.034 245.303 813.81 254.643 825.397 262.845" stroke="black" stroke-miterlimit="10"/>
<path d="M779.377 209.642C788.952 215.864 797.747 223.27 805.498 231.659" stroke="black" stroke-miterlimit="10"/>
<path d="M653.668 172.563L661.013 198.276L665.613 205.183C665.613 205.183 655.57 237.647 637.06 235.573C618.549 233.515 609.005 205.916 609.005 205.916L614.806 204.887L612.654 182.699" fill="#D16159"/>
<path d="M642.845 235.012L665.13 242.122L671.664 202.969L661.528 194.752L642.845 235.012Z" fill="white"/>
<path d="M614.588 202.47L632.412 234.482L610.923 244.975L602.845 206.883L614.588 202.47Z" fill="white"/>
<path d="M591.804 133.972C586.86 140.084 584.989 148.426 584.958 156.472C584.911 166.747 587.578 176.773 590.712 186.41C592.927 193.208 594.626 200.77 599.445 206.134C610.096 218 628.358 216.441 638.494 204.871C656.397 184.429 655.243 143.249 632.381 127.017C627.703 123.696 622.198 121.918 616.552 122.262C607.929 122.776 597.543 126.908 591.804 133.972Z" fill="#D16159"/>
<path d="M642.019 169.772C641.566 169.928 591.227 190.931 591.227 190.931C591.227 190.931 594.969 208.582 604.95 213.603C614.556 218.437 626.767 218.234 637.122 209.674C647.18 201.363 650.081 192.444 651.453 183.681C652.826 174.918 651.453 164.19 651.453 164.19L642.019 169.772Z" fill="#1E1611"/>
<path d="M625.052 182.231L609.784 191.867C609.784 191.867 614.806 201.472 622.962 195.36C628.935 190.885 625.052 182.231 625.052 182.231Z" fill="white"/>
<path d="M643.095 124.788C634.564 115.448 627.313 111.487 612.529 112.329C600.49 113.015 589.059 120.468 581.121 129.824C576.412 135.375 570.018 148.083 576.225 154.803C582.104 161.165 591.85 158.171 598.369 154.772C603.016 152.355 607.523 149.642 611.827 146.586C614.042 145.011 616.209 143.327 618.315 141.581C619.921 140.255 623.211 138.275 624.147 136.357C623.445 137.776 622.728 139.258 622.634 140.864C622.541 142.47 623.258 144.247 624.677 144.808C625.831 145.276 627.126 144.855 628.295 144.387C631.835 142.953 635.204 141.066 638.338 138.79C638.697 147.116 641.878 155.287 647.165 161.446C647.929 162.319 648.771 163.192 649.847 163.535C651.672 164.112 653.668 162.943 654.697 161.243C655.711 159.543 655.945 157.454 655.976 155.443C656.069 147.334 658.066 132.599 643.095 124.788Z" fill="#1E1611"/>
<path d="M648.054 181.591C646.603 181.825 644.919 181.685 643.547 181.015C641.722 180.11 641.348 178.551 641.301 176.555C641.208 173 641.208 169.445 641.301 165.89C641.348 164.097 641.426 162.272 642.003 160.573C643.344 156.659 647.944 154.304 651.656 155.864C662.026 160.245 657.863 180.032 648.054 181.591Z" fill="#D16159"/>
<path d="M652.139 164.783L642.845 173.125" stroke="black" stroke-miterlimit="10"/>
<path d="M645.153 156.846C642.907 158.171 642.315 159.824 641.613 162.163" stroke="black" stroke-miterlimit="10"/>
<path d="M600.038 167.34C600.755 171.815 601.472 176.29 602.205 180.781C602.33 181.56 602.47 182.371 602.891 183.01C603.999 184.71 606.182 184.258 607.741 183.696C609.956 182.917 612.108 181.95 614.182 180.812" stroke="black" stroke-miterlimit="10"/>
<path d="M611.235 155.63C613.901 153.384 617.207 152.48 620.435 152.542C623.664 152.605 626.845 153.572 629.933 154.772" stroke="black" stroke-miterlimit="10"/>
<path d="M584.334 164.174C585.909 162.335 588.17 161.259 590.494 160.853C592.802 160.448 595.188 160.682 597.496 161.165" stroke="black" stroke-miterlimit="10"/>
<path d="M623.04 162.21C623.461 164.159 622.837 165.983 621.652 166.264C620.467 166.545 619.172 165.204 618.751 163.239C618.33 161.29 618.954 159.465 620.139 159.185C621.309 158.904 622.619 160.245 623.04 162.21Z" fill="black"/>
<path d="M594.314 170.396C594.735 172.345 594.112 174.169 592.926 174.45C591.741 174.731 590.447 173.39 590.026 171.425C589.605 169.476 590.229 167.652 591.414 167.371C592.583 167.09 593.893 168.447 594.314 170.396Z" fill="black"/>
<path d="M811.455 537.633C809.288 542.482 809.132 547.955 809.054 553.257C808.18 606.49 813.654 720.394 818.956 768.248C824.258 816.101 833.412 944.881 833.412 944.881L924.657 942.074L907.207 739.417L898.848 628.663L975.886 938.566L1077.31 928.618L970.989 540.549" fill="#4C4139"/>
<path d="M899.019 630.908L892.158 592.207" stroke="black" stroke-miterlimit="10"/>
<path d="M935.62 573.278C949.032 592.94 967.605 609.032 988.97 619.51" stroke="black" stroke-miterlimit="10"/>
<path d="M809.911 607.083C822.777 591.911 831.463 573.2 834.722 553.569" stroke="black" stroke-miterlimit="10"/>
<path d="M867.955 311.197L866.692 327.788L847.058 327.32C847.058 327.32 860.095 400.621 882.286 403.661C904.478 406.702 941.874 347.31 941.874 347.31L914.942 329.113L915.534 294.342" fill="#E27769"/>
<path d="M848.726 330.127C848.726 330.127 856.43 351.068 882.395 354.872C908.361 358.677 930.443 341.385 930.443 341.385L950.607 356.4L956.579 508.007L810.41 479.192L814.215 343.739L848.726 330.127Z" fill="white"/>
<path d="M856.493 352.409C863.651 359.488 873.163 364.15 883.144 365.428C893.125 366.723 903.511 364.649 912.244 359.612" stroke="black" stroke-miterlimit="10"/>
<path d="M864.212 327.351C864.212 327.351 816.586 323.25 792.71 327.304C775.743 330.189 740.343 338.936 739.345 339.155L765.388 410.054L819.05 401.447" fill="#F28D48"/>
<path d="M968.759 498.184C964.034 479.083 961.804 404.613 961.804 404.613C961.804 404.613 961.929 350.475 954.958 346.764C947.987 343.069 922.599 333.417 922.599 333.417C909.234 346.187 879.667 408.027 879.667 408.027L864.212 327.336L801.771 334.804C801.771 334.804 801.787 402.866 804.032 420.455C806.278 438.043 802.083 506.074 801.771 517.269C801.443 528.465 799.229 578.766 799.229 578.766L870.84 589.775L885.639 548.688L903.371 592.207L988.907 575.258C988.923 575.274 975.278 524.566 968.759 498.184Z" fill="#F28D48"/>
<mask id="mask0_79_574" style="mask-type:luminance" maskUnits="userSpaceOnUse" x="739" y="325" width="250" height="268">
<path d="M968.759 498.184C964.034 479.083 961.804 404.613 961.804 404.613C961.804 404.613 961.928 350.475 954.958 346.764C947.987 343.069 922.599 333.417 922.599 333.417C909.234 346.187 879.666 408.027 879.666 408.027L864.212 327.336C864.212 327.336 816.586 323.235 792.71 327.289C775.743 330.173 740.343 338.921 739.345 339.139L765.388 410.039L802.909 404.02C803.206 410.959 803.564 416.79 804.032 420.439C806.278 438.028 802.083 506.058 801.771 517.254C801.443 528.449 799.229 578.751 799.229 578.751L870.84 589.759L885.639 548.673L903.37 592.192L988.907 575.242C988.923 575.274 975.278 524.566 968.759 498.184Z" fill="white"/>
</mask>
<g mask="url(#mask0_79_574)">
<path d="M810.223 293.125C810.02 289.804 815.057 289.898 815.338 293.125C820.297 348.666 822.169 404.675 823.603 460.418C824.305 487.628 823.416 514.852 821.342 541.983C820.266 556.079 818.878 570.144 817.896 584.239C816.96 597.774 817.662 611.714 814.278 624.905C813.046 629.676 806.168 629.458 804.827 624.905C800.975 611.776 802.628 597.743 803.564 584.239C804.547 570.128 805.966 556.064 807.307 541.983C809.88 514.821 810.738 487.674 811.471 460.418C812.983 404.659 813.638 348.807 810.223 293.125ZM845.826 316.327C838.434 366.005 838.231 416.276 838.2 466.406C838.184 491.572 837.904 516.739 837.077 541.89C836.235 567.462 833.054 592.831 831.884 618.34C831.619 624.188 840.695 625.388 842.083 619.713C847.915 595.918 848.851 570.783 849.88 546.396C850.956 520.762 850.645 495.065 850.317 469.415C849.662 418.615 848.196 367.798 851.284 317.06C851.471 313.988 846.294 313.209 845.826 316.327ZM865.725 344.675C864.04 390.626 864.586 436.468 865.99 482.42C866.66 504.436 867.035 526.438 866.676 548.47C866.317 570.814 864.555 593.876 868.594 615.939C869.53 621.038 876.656 619.307 877.062 614.785C879.027 592.862 878.169 570.471 878.341 548.454C878.512 525.923 877.92 503.423 877.031 480.907C875.253 435.502 874.411 390.049 872.29 344.659C872.103 340.449 865.881 340.418 865.725 344.675ZM893.327 375.486C892.407 417.102 891.456 458.142 896.431 499.572C898.817 519.39 901.468 539.208 904.602 558.917C907.862 579.406 909.483 600.3 913.694 620.586C914.661 625.263 921.273 623.798 921.585 619.51C923.098 598.865 919.558 577.69 917.016 557.217C914.505 536.963 910.918 516.848 908.329 496.593C905.741 476.37 903.822 456.006 903.183 435.626C902.544 415.262 903.355 394.742 899.347 374.659C898.661 371.198 893.405 372.118 893.327 375.486ZM922.817 320.818C912.493 370.371 915.674 421.234 920.758 471.224C923.347 496.702 925.827 522.212 928.914 547.628C932.002 572.919 933.874 598.943 940.111 623.673C941.016 627.259 946.334 626.402 946.427 622.815C947.129 597.29 943.324 571.453 940.751 546.084C938.224 521.105 935.012 496.172 932.252 471.209C926.747 421.484 922.614 371.478 928.696 321.597C929.102 318.276 923.503 317.528 922.817 320.818ZM940.782 320.506C939.456 346.702 937.881 372.741 938.864 398.999C939.815 424.353 942.638 449.55 946.505 474.623C950.466 500.304 955.613 525.72 961.523 551.012C967.402 576.194 972.767 601.984 982.092 626.137C983.699 630.315 991.418 630.284 990.701 624.967C987.332 599.816 980.018 575.289 974.248 550.606C968.478 525.845 963.036 500.944 958.544 475.918C953.975 450.47 950.482 424.774 948.486 398.999C946.474 372.882 947.644 346.561 944.837 320.506C944.603 317.918 940.922 317.824 940.782 320.506ZM788.936 332.559C787.985 332.637 787.018 332.699 786.067 332.809C775.712 333.916 766.324 337.658 756.437 340.652C746.066 343.786 733.918 346.265 724.639 351.987C721.63 353.843 722.768 358.864 726.479 358.801C737.801 358.614 749.934 353.734 760.601 350.194C765.108 348.697 769.677 347.419 774.168 345.86C782.137 343.084 790.714 341.291 799.12 340.605C799.556 340.574 800.009 340.527 800.383 340.324C801.428 339.747 801.708 337.861 802.176 336.847C802.987 335.054 803.159 333.058 803.361 331.109C800.367 330.937 797.42 331.577 794.472 332.013C792.632 332.294 790.792 332.419 788.936 332.559ZM800.102 351.083C789.81 352.003 774.23 357.32 764.312 360.174C754.581 362.965 743.836 364.898 735.181 370.356C731.376 372.757 732.749 379.165 737.536 379.072C747.782 378.869 757.778 374.644 767.462 371.603C777.303 368.516 790.995 366.379 800.102 361.468C800.492 358.646 800.102 354.716 800.102 354.716V351.083ZM799.151 382.19C789.342 379.914 777.973 384.42 768.538 387.04C757.762 390.018 747.111 393.199 737.24 398.547C732.265 401.229 735.992 407.637 740.795 406.967C751.946 405.392 762.566 401.837 773.326 398.656C782.387 395.99 793.428 394.384 800.71 388.069C802.675 386.338 801.63 382.752 799.151 382.19Z" fill="#DD7F40"/>
</g>
<path d="M894.076 378.573C904.041 380.46 923.316 381.52 923.316 381.52L936.993 341.385" stroke="black" stroke-miterlimit="10"/>
<path d="M879.713 407.466C877.436 461.791 882.816 497.155 885.655 548.688" stroke="black" stroke-miterlimit="10"/>
<path d="M907.207 380.257L913.85 392.123L880.696 426.645" stroke="black" stroke-miterlimit="10"/>
<path d="M872.321 374.987C862.2 375.61 845.233 374.301 845.233 374.301L836.703 332.762" stroke="black" stroke-miterlimit="10"/>
<path d="M861.389 375.065L853.296 386.011L877.312 426.645" stroke="black" stroke-miterlimit="10"/>
<path d="M885.655 437.7C887.455 437.7 888.914 436.241 888.914 434.441C888.914 432.641 887.455 431.182 885.655 431.182C883.855 431.182 882.396 432.641 882.396 434.441C882.396 436.241 883.855 437.7 885.655 437.7Z" stroke="black" stroke-miterlimit="10"/>
<path d="M892.158 539.52C893.958 539.52 895.417 538.061 895.417 536.261C895.417 534.461 893.958 533.002 892.158 533.002C890.358 533.002 888.898 534.461 888.898 536.261C888.898 538.061 890.358 539.52 892.158 539.52Z" stroke="black" stroke-miterlimit="10"/>
<path d="M887.978 483.792C889.778 483.792 891.238 482.333 891.238 480.533C891.238 478.733 889.778 477.274 887.978 477.274C886.178 477.274 884.719 478.733 884.719 480.533C884.719 482.333 886.178 483.792 887.978 483.792Z" stroke="black" stroke-miterlimit="10"/>
<path d="M804.843 325.964C798.028 344.877 800.508 364.009 800.757 385.574" stroke="#DD7F40" stroke-miterlimit="10"/>
<path d="M803.361 403.661L797.623 367.798" stroke="black" stroke-miterlimit="10"/>
<path d="M782.355 406.546L757.232 334.882" stroke="black" stroke-miterlimit="10"/>
<path d="M992.728 569.863C1002.24 546.568 1014.01 530.46 1023.31 514.073C1032.81 497.342 1037.91 489.156 1044.5 473.672C1048.48 464.348 1048.51 455.444 1044.97 445.902C1043.16 441.006 1040.25 436.577 1037.27 432.258C1031 423.215 1024.25 414.498 1017.01 406.141L966.264 451.437L978.989 468.62L955.535 534.281" fill="#E27769"/>
<path d="M950.326 344.706C963.628 350.428 976.182 357.476 986.49 367.533C989.999 370.964 993.196 374.69 996.377 378.401C1004.07 387.383 1028.86 417.289 1028.86 417.289L969.196 462.601L949.203 437.482" fill="#F28D48"/>
<mask id="mask1_79_574" style="mask-type:luminance" maskUnits="userSpaceOnUse" x="949" y="344" width="80" height="119">
<path d="M950.326 344.706C963.628 350.428 976.182 357.476 986.49 367.533C989.999 370.964 993.196 374.69 996.377 378.401C1004.07 387.383 1028.86 417.289 1028.86 417.289L969.196 462.601L949.203 437.482" fill="white"/>
</mask>
<g mask="url(#mask1_79_574)">
<path d="M946.006 418.053C947.238 422.84 950.513 425.741 953.632 429.514C957.718 434.472 961.726 439.462 965.64 444.576C971.722 452.529 977.788 461.775 986.256 467.357C991.527 470.834 995.722 463.537 992.463 459.327C985.679 450.58 977.975 442.471 971.16 433.646C965.827 426.739 959.106 416.042 950.154 413.921C947.628 413.329 945.351 415.512 946.006 418.053Z" fill="#DD7F40"/>
<path d="M952.385 393.869C954.256 400.153 956.486 398.703 960.119 404.098C964.018 409.898 967.979 415.683 972.237 421.203C976.385 426.583 980.985 431.479 985.82 436.25C991.044 441.411 995.566 447.991 1001.12 452.653C1005.47 456.286 1012.89 452.981 1011.13 446.822C1007.31 433.521 991.683 424.228 983.153 413.906C974.903 403.927 967.418 387.024 954.287 382.767C954.287 382.767 952.65 384.545 953.383 386.993L952.385 393.869Z" fill="#DD7F40"/>
<path d="M958.591 369.763C958.591 369.763 965.016 376.14 969.492 381.317C975.34 388.1 981.25 394.836 987.114 401.603C993.164 408.589 999.09 415.699 1004.67 423.059C1009.87 429.904 1014.3 437.918 1020.88 443.532C1022.64 445.044 1025.24 446.229 1027.61 445.309C1035.63 442.191 1031.85 435.159 1028.14 429.841C1022.23 421.359 1015.98 413.157 1009.4 405.174C1002.82 397.206 996.003 389.379 988.892 381.879C985.008 377.778 981.141 373.646 977.118 369.701C973.624 366.286 966.279 358.271 966.279 358.271L960.712 365.771L958.591 369.763Z" fill="#DD7F40"/>
</g>
<path d="M1013.24 398.5L954.038 444.046" stroke="black" stroke-miterlimit="10"/>
<path d="M978.974 468.636C978.974 468.636 995.629 455.772 1007.61 456.692" stroke="black" stroke-miterlimit="10"/>
<path d="M958.981 524.878C957.64 528.543 956.283 532.207 954.942 535.887C952.961 541.297 945.959 551.308 944.883 556.968C941.468 574.946 947.878 583.6 949.92 601.781C950.045 602.873 950.217 604.104 951.106 604.759C952.525 605.804 954.521 604.572 955.659 603.231C958.56 599.816 960.057 595.232 959.761 590.757C963.285 596.355 965.718 603.855 967.262 610.279C968.806 616.703 970.053 622.831 976.01 625.7C976.712 626.028 977.554 626.308 978.225 625.903C979.582 625.077 979.114 621.412 979.114 621.412C979.114 621.412 981.952 627.493 984.993 627.79C985.43 627.836 985.913 627.79 986.225 627.478C986.506 627.213 986.584 626.792 986.63 626.402C986.911 624.328 986.818 622.192 986.365 620.134C987.036 621.553 987.41 622.925 988.611 624.032C989.126 624.5 989.812 624.921 990.482 624.733C991.169 624.531 991.512 623.767 991.714 623.081C992.182 621.521 992.385 619.884 992.354 618.247C992.946 619.167 994.147 619.666 995.207 619.416C995.363 619.385 995.519 619.323 995.629 619.214C995.753 619.073 995.785 618.855 995.816 618.668C996.299 614.099 996.798 609.5 996.611 604.9C996.486 601.953 995.847 594.39 995.644 591.443C994.989 581.604 995.301 576.365 996.034 566.511C996.549 559.556 997.422 552.54 999.964 546.069" fill="#E27769"/>
<path d="M959.293 589.79C957.141 586.578 954.989 583.366 952.821 580.154C951.854 578.72 950.872 577.238 950.591 575.539" stroke="black" stroke-miterlimit="10"/>
<path d="M979.067 621.568C977.788 610.076 975.418 598.709 972.018 587.67" stroke="black" stroke-miterlimit="10"/>
<path d="M986.506 621.132C986.069 610.373 984.868 599.629 982.888 589.042" stroke="black" stroke-miterlimit="10"/>
<path d="M992.728 615.518C992.65 606.63 992.556 597.758 992.479 588.87" stroke="black" stroke-miterlimit="10"/>
<path d="M949.187 437.482C949.172 423.604 950.092 409.711 951.932 395.943C952.961 388.287 954.287 380.6 957.047 373.381C959.808 366.161 964.112 359.378 970.24 354.669" stroke="#DD7F40" stroke-miterlimit="10"/>
<path d="M969.18 462.601L941.874 428.532" stroke="black" stroke-miterlimit="10"/>
<path d="M965.999 361.468C965.5 351.457 965.796 347.107 960.696 338.375C958.092 333.916 954.864 328.988 951.012 325.496C947.55 322.362 939.16 317.528 935.043 315.423C929.195 312.429 915.3 307.33 915.3 307.33L914.926 329.113C919.199 334.851 921.85 341.322 927.651 346C932.953 350.272 939.612 352.424 946.1 354.467C946.568 354.623 947.145 354.747 947.519 354.42C947.815 354.155 947.846 353.703 947.862 353.313C947.924 350.428 947.831 349.15 945.96 346.873C944.494 345.096 942.731 343.49 941.687 341.431C945.351 342.881 947.737 344.94 950.31 347.933C953.133 351.239 955.129 357.461 957.297 360.984C959.496 364.571 962.786 367.518 966.108 368.079C966.498 368.141 967.028 368.391 967.262 368.064C968.291 366.598 966.03 361.998 965.999 361.468Z" fill="#D16159"/>
<path d="M941.78 341.759C939.862 340.667 937.663 340.231 935.496 339.825C933.39 339.42 931.285 339.014 929.195 338.625" stroke="black" stroke-miterlimit="10"/>
<path d="M953.149 336.146C956.47 339.124 958.7 341.696 960.712 345.688C962.724 349.68 963.753 356.775 965.219 360.985" stroke="black" stroke-miterlimit="10"/>
<path d="M954.209 331.951C959.059 335.6 961.975 341.26 964.127 346.936" stroke="black" stroke-miterlimit="10"/>
<path d="M853.545 283.333C855.978 274.679 864.82 255.672 869.171 250.105C872.851 245.396 879.838 245.599 885.733 244.165C893.327 242.325 901.312 245.272 907.893 249.154C918.7 255.516 918.123 276.722 914.755 287.372C912.166 295.558 904.493 302.465 897.398 307.564C885.842 315.875 866.161 318.479 855.978 306.551C850.458 300.08 850.442 294.373 853.545 283.333Z" fill="#E27769"/>
<path d="M915.207 279.856C913.242 279.217 911.714 277.58 910.825 275.708C909.92 273.853 909.562 271.779 909.312 269.721C908.766 265.215 908.704 260.552 910.154 256.249C908.096 256.608 905.897 256.857 903.994 255.999C902.092 255.142 900.735 252.756 901.671 250.901C898.505 252.164 895.199 253.458 891.783 253.24C888.368 253.037 884.828 250.869 884.189 247.501C884.563 249.482 875.768 253.785 873.943 253.894C868.922 254.175 863.198 251.337 859.471 248.203C855.51 244.882 852.578 240.048 852.438 234.887C852.298 229.804 855.292 224.378 860.267 222.694C862.855 221.805 865.709 221.976 868.407 222.444C873.117 223.255 877.686 224.955 881.772 227.418C882.006 222.694 884.36 218.109 888.072 215.178C892.548 211.638 898.739 211.186 904.103 213.899C912.291 218.031 914.864 233.203 914.864 233.203C914.864 233.203 916.907 227.403 923.69 226.186C928.415 225.344 932.33 226.592 934.887 230.833C936.462 233.453 937.133 236.509 937.538 239.534C938.271 245.069 938.162 250.714 937.226 256.202C937.086 257.013 936.946 257.902 937.32 258.635C937.601 259.18 938.147 259.555 938.63 259.944C944.4 264.7 944.977 277.315 942.248 283.707C937.71 294.373 928.057 298.863 915.41 300.641C915.425 300.641 913.803 286.92 915.207 279.856Z" fill="#171F3F"/>
<path d="M905.741 281.415C907.737 277.049 915.175 276.161 918.482 279.264C926.419 286.717 915.971 302.185 906.52 300.017C903.854 299.409 900.719 296.899 901.062 293.718" fill="#E27769"/>
<path d="M915.924 287.076L904.665 290.896" stroke="black" stroke-miterlimit="10"/>
<path d="M912.244 277.782C909.764 278.11 907.378 279.248 905.507 280.979" stroke="black" stroke-miterlimit="10"/>
<path d="M917.858 295.48C915.082 298.552 910.965 301.296 906.77 300.251C903.854 299.518 901.249 296.992 901.359 293.687" stroke="black" stroke-miterlimit="10"/>
<path d="M867.955 314.643C867.955 314.643 883.253 319.04 896.134 311.197" stroke="black" stroke-miterlimit="10"/>
<path d="M875.3 266.54C872.836 269.3 870.372 272.075 867.924 274.835C866.598 276.332 865.179 278.016 865.117 280.012C865.07 281.166 865.569 281.946 866.473 282.616C868.282 283.941 872.898 285.142 872.898 285.142" stroke="black" stroke-miterlimit="10"/>
<path d="M887.245 264.295C890.489 263.718 893.935 264.747 896.477 266.836C899.035 268.926 900.704 271.997 901.312 275.225" stroke="black" stroke-miterlimit="10"/>
<path d="M864.508 256.405C868.984 255.157 872.15 257.995 874.302 261.036" stroke="black" stroke-miterlimit="10"/>
<path d="M889.928 276.769C889.257 278.344 887.744 279.217 886.559 278.702C885.374 278.188 884.953 276.504 885.624 274.929C886.294 273.354 887.807 272.481 888.992 272.995C890.193 273.494 890.598 275.194 889.928 276.769Z" fill="black"/>
<path d="M866.66 266.197C865.99 267.772 864.477 268.645 863.292 268.13C862.107 267.616 861.686 265.932 862.356 264.357C863.027 262.782 864.54 261.909 865.725 262.424C866.91 262.938 867.331 264.622 866.66 266.197Z" fill="black"/>
<path d="M881.273 290.412L865.101 292.377C865.101 292.377 865.46 300.423 873.709 299.69C881.273 299.004 881.273 290.412 881.273 290.412Z" fill="white"/>
<path d="M1041.26 405.657C1058.72 420.548 1069.28 443.22 1069.45 466.172" stroke="black" stroke-miterlimit="10"/>
<path d="M1036.55 381.676C1046.61 389.285 1055.59 398.329 1063.15 408.417" stroke="black" stroke-miterlimit="10"/>
<path d="M681.785 487.706L663.586 504.187C663.586 504.187 651.11 535.419 651.11 567.54C651.11 599.676 666.986 717.884 670.401 732.494C673.816 747.104 693.169 934.824 693.169 934.824H770.082L734.48 567.509C734.48 567.509 729.988 496.609 729.988 496.297" fill="#393774"/>
<path d="M776.133 495.408L783.151 514.088L789.981 543.948C789.981 543.948 849.381 650.446 866.38 688.694C880.477 720.394 880.68 753.326 879.807 810.862C878.933 868.399 871.931 911.294 871.931 911.294L802.363 902.204L799.229 740.29C799.229 740.29 718.651 606.007 712.928 588.403C707.204 570.799 701.481 525.003 719.977 498.153" fill="#393774"/>
<path d="M742.682 644.099L731.033 542.81V500.336" stroke="#5D5DA8" stroke-miterlimit="10"/>
<path d="M732.437 555.05C732.437 555.05 742.417 554.036 743.353 551.089C744.289 548.142 745.068 500.336 745.068 500.336" stroke="#5D5DA8" stroke-miterlimit="10"/>
<path d="M658.939 518.142L786.394 528.262" stroke="#5D5DA8" stroke-miterlimit="10"/>
<path d="M683.142 520.372L684.966 504.904" stroke="#5D5DA8" stroke-miterlimit="10"/>
<path d="M689.832 520.575L691.657 505.123" stroke="#5D5DA8" stroke-miterlimit="10"/>
<path d="M761.193 526.36L759.665 509.909" stroke="#5D5DA8" stroke-miterlimit="10"/>
<path d="M767.883 526.562L766.355 510.112" stroke="#5D5DA8" stroke-miterlimit="10"/>
<path d="M651.843 563.813C652.498 563.642 686.214 573.262 698.378 521.542" stroke="#5D5DA8" stroke-miterlimit="10"/>
<path d="M771.314 527.093C771.314 527.093 779.47 564.764 803.502 568.413" stroke="#5D5DA8" stroke-miterlimit="10"/>
<path d="M710.09 521.838C709.216 527.638 707.891 541.983 708.296 549.483C713.427 644.115 745.068 933.451 745.068 933.451" stroke="#5D5DA8" stroke-miterlimit="10"/>
<path d="M758.012 525.829C758.012 525.829 761.194 545.32 762.301 548.345C764.671 554.832 794.504 611.62 807.307 629.458C817.069 643.055 837.545 679.432 845.467 694.183C868.017 736.143 849.35 908.129 849.35 908.129" stroke="#5D5DA8" stroke-miterlimit="10"/>
<path d="M703.976 302.169C692.701 305.412 678.947 312.195 675.922 324.669C675.064 328.209 675.922 331.561 677.497 334.493C669.263 334.742 661.029 338.375 654.884 344.004C647.29 350.958 642.377 361.031 642.502 371.322C642.627 381.629 648.085 391.905 657.021 397.034C662.058 399.919 667.204 401.837 672.709 402.414C672.46 406.172 672.647 409.93 673.504 413.594C675.438 421.842 681.005 428.329 689.006 431.213C698.425 434.613 709.263 433.958 718.417 429.701C721.333 428.344 723.969 426.629 726.355 424.649C731.049 434.924 741.84 441.754 753.131 443.61C766.371 445.793 782.044 440.569 790.075 429.529C791.385 427.721 792.445 425.834 793.334 423.885C797.311 424.602 801.412 424.587 805.358 423.698C815.058 421.515 823.51 414.108 826.582 404.644C829.654 395.195 827.081 384.046 819.939 377.138C819.128 376.359 818.27 375.641 817.397 374.971C819.331 373.521 821.015 371.759 822.325 369.545C827.393 360.875 824.383 350.257 818.067 343.1C811.642 335.818 802.02 332.824 792.461 331.39C792.913 327.632 792.18 323.624 790.761 320.303C788.328 314.643 783.681 309.529 778.472 306.301C772.858 302.824 766.324 300.953 759.728 300.407" fill="#A85029"/>
<path d="M752.273 345.969C762.16 349.508 775.494 355.418 782.714 361.109C801.49 375.953 804.999 392.248 803.018 414.904C802.098 425.366 797.186 438.667 793.771 448.662C791.213 456.162 787.408 463.49 788.453 471.505C789.435 479.067 790.714 486.442 792.85 493.787C793.693 496.687 794.223 499.821 793.194 502.674C791.291 507.929 787.158 510.221 783.151 514.073L663.586 504.187C663.586 504.187 661.122 494.785 661.808 486.676C662.479 478.553 668.748 462.383 670.432 453.464C672.132 444.53 667.048 429.14 665.348 424.509C663.648 419.893 655.867 392.17 670.775 369.482L709.497 342.476" fill="#FCDDD2"/>
<path d="M718.214 346.592C698.674 343.926 678.573 340.309 659.875 347.154C642.596 353.484 610.377 370.917 595.281 380.662L629.247 430.668L693.403 404.955" fill="#FCDDD2"/>
<path d="M665.348 424.509C663.648 419.893 655.867 392.17 670.775 369.482" stroke="black" stroke-miterlimit="10"/>
<path d="M678.994 506.136C707.688 506.323 735.821 495.455 764.375 498.09" stroke="black" stroke-miterlimit="10"/>
<path d="M737.021 504.904C742.324 505.543 747.595 506.385 752.803 507.43C758.433 508.553 762.971 511.609 768.538 512.841" stroke="black" stroke-miterlimit="10"/>
<path d="M708.405 335.756L705.021 350.553C705.021 350.553 708.748 361.109 723.594 361.109C741.185 361.109 752.772 346.873 752.772 346.873L747.423 322.424" fill="#F29275"/>
<path d="M697.739 303.947C696.319 309.357 694.682 316.935 694.448 322.517C694.214 328.1 695.992 334.056 700.358 337.549C705.084 341.322 712.553 341.369 718.23 340.153C736.99 336.099 755.751 317.918 752.382 297.211C750.495 285.61 740.452 275.88 728.023 275.755C717.793 275.662 706.721 279.42 703.602 286.81C701.185 292.517 699.641 296.634 697.739 303.947Z" fill="#F29275"/>
<path d="M747.423 311.384C737.879 309.7 732.187 304.196 728.039 296.01C724.842 289.679 723.579 279.872 723.579 279.872C723.579 279.872 719.228 286.124 715.048 289.118C710.386 292.486 700.374 293.484 694.401 291.894C694.401 291.894 690.627 275.755 708.062 266.244C711.087 264.591 718.23 261.316 726.62 264.903C739.704 259.383 751.727 263.624 759.119 270.532C780.188 290.256 765.653 318.089 765.653 318.089" fill="#A85029"/>
<path d="M738.55 312.678C740.156 308.624 746.862 307.455 750.012 310.106C757.575 316.483 748.827 331.015 740.171 329.503C737.723 329.082 734.76 326.946 734.916 324.046" fill="#F29275"/>
<path d="M748.062 317.325L738.035 321.332" stroke="black" stroke-miterlimit="10"/>
<path d="M744.273 309.077C742.043 309.498 739.922 310.636 738.316 312.304" stroke="black" stroke-miterlimit="10"/>
<path d="M750.214 324.856C747.844 327.788 744.242 330.47 740.374 329.721C737.692 329.207 735.212 327.024 735.15 324.03" stroke="black" stroke-miterlimit="10"/>
<path d="M707.095 341.525C707.095 341.525 719.961 344.363 732.811 336.333" stroke="black" stroke-miterlimit="10"/>
<path d="M703.197 361.655C705.77 364.259 709.013 366.457 711.992 367.487C727.477 372.835 746.425 366.021 757.17 354.498" stroke="#D8A798" stroke-miterlimit="10"/>
<path d="M698.97 342.881C697.006 347.575 697.115 351.473 699.204 356.104" stroke="#D8A798" stroke-miterlimit="10"/>
<path d="M707.875 304.508C706.69 306.597 705.224 308.515 703.54 310.215C702.323 311.431 701.356 312.523 701.512 314.331C701.637 315.953 703.228 316.577 704.694 317.325" stroke="black" stroke-miterlimit="10"/>
<path d="M717.996 299.768C720.663 299.456 723.423 300.017 725.746 301.343C728.07 302.668 729.957 304.773 731.033 307.221" stroke="black" stroke-miterlimit="10"/>
<path d="M699.922 295.667C701.2 294.965 702.807 295.074 704.132 295.651C705.473 296.228 706.565 297.242 707.547 298.318" stroke="black" stroke-miterlimit="10"/>
<path d="M721.505 309.731C721.006 311.15 719.758 312.024 718.744 311.649C717.715 311.291 717.31 309.841 717.809 308.406C718.308 306.972 719.555 306.114 720.569 306.488C721.583 306.862 722.004 308.313 721.505 309.731Z" fill="black"/>
<path d="M702.698 304.118C702.199 305.537 700.951 306.41 699.937 306.036C698.908 305.677 698.503 304.227 699.002 302.793C699.501 301.374 700.748 300.501 701.762 300.875C702.791 301.234 703.212 302.684 702.698 304.118Z" fill="black"/>
<path d="M710.994 320.584L702.588 322.627C702.588 322.627 703.025 329.113 708.171 327.803C711.836 326.852 710.994 320.584 710.994 320.584Z" fill="white"/>
<path d="M801.646 363.276C811.751 372.913 817.303 387.133 816.399 401.057" stroke="black" stroke-miterlimit="10"/>
<path d="M794.301 346.234C800.929 351.411 808.04 357.757 812.5 364.898" stroke="black" stroke-miterlimit="10"/>
<path d="M264.284 358.895C315.996 337.019 363.653 305.568 404.075 266.602L374.148 222.444C332.588 250.09 289.921 276.083 246.287 300.329" fill="#D16159"/>
<path d="M216.798 552.883L223.675 579.827C223.675 579.827 274.389 688.975 286.802 720.862C299.216 752.749 296.549 785.976 275.278 811.673C254.007 837.37 163.183 956.029 163.183 956.029L95.2212 893.955L196.524 743.019L133.491 626.433L128.173 540.907" fill="#572A2F"/>
<path d="M153.358 540.892C153.358 540.892 158.567 696.194 161.078 723.559C163.604 750.94 161.951 785.758 162.403 826.034C162.715 854.506 154.715 994.34 154.715 994.34L57.8718 984.236L65.2325 776.839C65.2325 776.839 62.597 676.953 59.9303 649.167C57.2636 621.381 56.9985 578.501 60.1954 545.819" fill="#572A2F"/>
<path d="M158.302 672.306L156.243 599.832" stroke="black" stroke-miterlimit="10"/>
<path d="M199.394 556.126C201.203 561.848 203.292 567.462 205.678 572.966C207.316 576.77 209.125 580.575 211.87 583.678C216.564 588.995 223.488 591.739 230.24 593.876" stroke="black" stroke-miterlimit="10"/>
<path d="M70.5037 598.538C79.2055 595.216 89.997 589.962 96.079 582.898C105.592 571.859 110.192 559.93 115.058 544.416" stroke="black" stroke-miterlimit="10"/>
<path d="M158.302 554.27L156.243 586.204C156.243 586.204 164.415 586.859 165.928 586.204C167.44 585.549 173.928 554.27 173.928 554.27" stroke="black" stroke-miterlimit="10"/>
<path d="M171.589 334.072C202.716 311.041 228.681 303.401 275.06 282.569L301.352 351.972L228.696 391.671" fill="#606FC4"/>
<path d="M129.732 344.612C117.194 350.569 105.779 358.895 96.2818 369.03C69.4433 397.611 67.3692 439.556 61.3496 476.183C57.3262 500.632 53.677 554.27 53.677 554.27L224.954 562.659L238.428 372.383L186.903 327.476" fill="#606FC4"/>
<path d="M237.398 386.775C237.398 386.775 239.831 370.59 243.355 362.497" stroke="black" stroke-miterlimit="10"/>
<path d="M258.685 289.773L279.894 363.682" stroke="black" stroke-miterlimit="10"/>
<path d="M226.232 544.494L55.564 529.603" stroke="black" stroke-miterlimit="10"/>
<path d="M240.283 277.19C255.41 272.169 269.976 265.526 283.683 257.418" stroke="black" stroke-miterlimit="10"/>
<path d="M262.007 255.968C271.722 251.322 281.641 247.096 291.715 243.307" stroke="black" stroke-miterlimit="10"/>
<path d="M71.1276 370.356C60.2269 382.97 52.1644 398.017 47.7043 414.077" stroke="black" stroke-miterlimit="10"/>
<path d="M38.4566 400.808C31.6573 414.28 28.8035 429.701 30.3161 444.717" stroke="black" stroke-miterlimit="10"/>
<path d="M131.23 322.658L124.508 344.862C124.508 344.862 146.933 362.606 163.136 363.058C178.887 363.495 180.758 350.288 180.758 350.288L182.178 325.387" fill="#D16159"/>
<path d="M192.205 311.696C190.926 303.479 186.7 296.057 182.552 288.853C179.152 282.943 176.095 276.847 172.743 270.906C169.624 265.355 166.739 260.568 160.485 258.245C150.707 254.612 139.853 253.645 132.056 261.706C121.623 272.465 117.381 287.122 121.561 301.623C126.333 318.167 135.955 332.372 153.218 337.377C160.126 339.373 168.173 339.763 175.175 338.11C187.667 335.147 194.139 324.201 192.205 311.696Z" fill="#D16159"/>
<path d="M122.824 312.632C127.144 306.364 129.545 298.801 129.623 291.192C136.329 292.595 143.612 290.974 149.101 286.873C154.59 282.756 158.193 276.223 158.723 269.393C161.936 270.08 165.132 270.766 168.345 271.467C169.156 271.639 169.998 271.826 170.684 272.294C171.308 272.715 171.745 273.338 172.181 273.947C175.129 278.032 178.076 282.101 181.008 286.187C182.754 278.203 180.462 269.44 175.035 263.312C172.977 260.989 170.513 259.056 167.94 257.309C160.938 252.569 153.015 249.232 144.766 247.439C137.374 245.833 126.676 244.055 119.409 246.94C116.025 248.281 116.212 251.914 116.773 254.939C111.409 255.625 105.997 256.498 101.069 258.713C96.0167 260.989 88.8899 266.259 89.1551 272.543C89.3734 277.377 94.5664 281.774 98.3559 284.113C96.6249 283.053 92.8822 285.781 91.5722 286.701C86.4416 290.319 89.4669 296.946 92.8978 300.501C95.5957 303.307 99.0889 305.21 102.52 307.081C99.5255 308.89 98.3559 312.928 99.1825 316.327C100.009 319.742 102.457 322.549 105.264 324.654C110.956 328.895 118.442 330.641 125.413 329.347L122.824 312.632Z" fill="#893D33"/>
<path d="M169.172 288.541C172.868 292.533 176.564 296.54 180.275 300.532C182.645 303.105 183.051 305.802 180.197 308.11C178.918 309.155 177.484 310.012 175.971 310.651" stroke="black" stroke-miterlimit="10"/>
<path d="M126.832 339.139C126.832 339.139 155.994 359.55 169.92 356.634C183.846 353.734 181.881 340.792 181.881 340.792L190.068 349.571L196.057 377.809L174.021 366.676L164.399 388.225L119.034 349.976L126.832 339.139Z" fill="#606FC4"/>
<path d="M119.019 350.007L164.384 388.24L174.022 366.691L196.057 377.809L190.069 349.571L181.881 340.792" stroke="black" stroke-miterlimit="10"/>
<path d="M132.992 308.188C129.904 303.495 121.14 303.806 117.881 307.97C110.021 317.996 124.867 334.025 135.393 329.83C138.372 328.645 141.538 325.184 140.586 321.582" fill="#D16159"/>
<path d="M122.231 316.53L135.924 318.947" stroke="black" stroke-miterlimit="10"/>
<path d="M126.957 304.851C130.076 305.724 130.7 305.974 133.179 307.642" stroke="black" stroke-miterlimit="10"/>
<path d="M124.82 328.879C128.033 330.673 131.76 331.577 135.16 330.142C138.403 328.786 140.945 325.387 140.243 321.582" stroke="black" stroke-miterlimit="10"/>
<path d="M153.764 336.161C162.778 339.357 172.961 339.139 181.85 335.568" stroke="black" stroke-miterlimit="10"/>
<path d="M146.512 298.739C147.869 296.727 149.522 294.731 151.565 293.375C153.67 291.987 156.244 290.677 158.848 290.677" stroke="black" stroke-miterlimit="10"/>
<path d="M172.057 284.815C172.119 283.708 173.101 282.897 174.084 282.398C175.815 281.525 177.795 281.182 179.714 281.447" stroke="black" stroke-miterlimit="10"/>
<path d="M162.528 298.863C163.401 300.36 163.292 302.044 162.31 302.606C161.327 303.167 159.83 302.419 158.957 300.922C158.084 299.425 158.193 297.741 159.175 297.179C160.173 296.603 161.67 297.351 162.528 298.863Z" fill="black"/>
<path d="M181.507 289.617C182.38 291.114 182.271 292.798 181.289 293.359C180.306 293.921 178.809 293.172 177.936 291.675C177.062 290.178 177.172 288.494 178.154 287.933C179.136 287.372 180.634 288.12 181.507 289.617Z" fill="black"/>
<path d="M180.29 316.062L169.171 312.024C169.171 312.024 166.895 322.938 172.072 324.077C177.561 325.293 180.29 316.062 180.29 316.062Z" fill="white"/>
<path d="M129.904 291.769C124.602 290.74 119.471 288.884 114.73 286.311" stroke="black" stroke-miterlimit="10"/>
<path d="M171.667 271.935C171.339 269.549 169.717 267.491 167.768 266.103C165.803 264.716 163.495 263.889 161.218 263.125C158.941 262.346 156.618 261.597 154.59 260.319" stroke="black" stroke-miterlimit="10"/>
<path d="M118.348 255.641C121.998 255.906 125.787 256.218 128.937 258.089" stroke="black" stroke-miterlimit="10"/>
<path d="M102.504 306.987C105.218 308.219 108.118 309.03 111.066 309.357" stroke="black" stroke-miterlimit="10"/>
<path d="M97.4358 283.863C100.664 285.797 104.048 287.465 107.557 288.853" stroke="black" stroke-miterlimit="10"/>
<path d="M343.941 481.827C343.941 481.827 298.654 631.797 295.301 667.738C291.948 703.679 322.966 899.506 322.966 899.506L433.47 876.398C433.47 876.398 398.523 674.334 398.32 672.307C398.133 670.279 420.73 556.126 420.73 556.126L487.428 930.567L587.92 908.176C587.92 908.176 514.641 554.333 510.493 528.059C506.345 501.786 483.826 445.06 483.826 445.06" fill="#875733"/>
<path d="M421.026 492.867V531.521C421.026 531.521 431.724 527.623 433.159 522.945C434.593 518.267 435.669 485.195 435.669 485.195" stroke="#633B1F" stroke-miterlimit="10"/>
<path d="M462.445 476.151C461.884 478.631 477.915 520.668 510.524 528.059" stroke="#633B1F" stroke-miterlimit="10"/>
<path d="M324.885 547.067C324.885 547.067 372.261 527.015 375.723 485.195" stroke="#633B1F" stroke-miterlimit="10"/>
<path d="M421.026 555.378V472.737" stroke="#633B1F" stroke-miterlimit="10"/>
<path d="M303.691 321.66C303.691 321.66 280.642 364.508 268.057 383.344C256.611 400.465 234.279 427.768 234.279 427.768L229.835 500.725C229.835 500.725 292.635 448.646 306.545 430.325C320.502 411.926 336.378 380.772 343.941 358.957L303.691 321.66Z" fill="#F29275"/>
<path d="M500.512 360.938C504.193 366.676 508.372 372.04 512.037 377.7C519.148 388.661 532.887 393.074 545.207 397.689C563.125 404.41 597.153 413.812 597.153 413.812L590.65 368.516L554.938 340.574C554.938 340.574 526.181 306.254 525.542 306.816" fill="#F29275"/>
<path d="M387.669 252.85C366.772 256.467 353.438 257.294 337.236 269.331C327.941 276.239 318.101 292.658 311.769 302.169C303.535 314.534 265.172 386.042 265.172 386.042L323.076 415.621C323.076 415.621 333.259 400.293 338.717 390.127C344.175 379.961 364.994 311.322 364.994 311.322" fill="#FFC36C"/>
<path d="M414.242 245.381C414.242 245.381 430.367 241.748 444.293 242.434C453.51 242.886 463.646 243.541 472.364 247.314C481.845 251.415 490.734 258.276 497.518 265.885C507.81 277.408 553.441 335.132 553.441 335.132L502.633 383.672L454.788 309.732" fill="#FFC36C"/>
<path d="M355.154 302.746C351.161 344.488 342.771 394.618 338.998 486.38L500.995 488.142C498.531 403.35 476.356 295.636 476.356 295.636L446.352 257.621L414.242 242.294L358.117 266.322" fill="#FFC36C"/>
<path d="M388.729 270.282C396.152 272.949 404.62 272.621 411.809 269.362C418.999 266.119 424.862 259.991 427.778 252.663" stroke="black" stroke-miterlimit="10"/>
<path d="M346.826 368.531L352.503 311.322" stroke="black" stroke-miterlimit="10"/>
<path d="M271.987 373.381L331.575 402.32" stroke="black" stroke-miterlimit="10"/>
<path d="M545.222 324.732L494.352 368.859" stroke="black" stroke-miterlimit="10"/>
<path d="M454.788 308.281L502.648 383.672" stroke="black" stroke-miterlimit="10"/>
<path d="M316.884 290.288C315.715 286.857 315.387 283.131 315.933 279.42C316.105 278.266 316.604 276.878 317.851 276.566C318.381 276.441 318.943 276.535 319.457 276.317C319.27 275.272 319.255 274.134 319.847 273.136C320.44 272.153 321.828 271.452 322.888 271.873C322.982 271.904 323.075 271.951 323.169 271.951C323.419 271.935 323.528 271.654 323.59 271.436C323.886 270.236 324.448 269.051 325.383 268.115C326.319 267.179 327.676 266.525 329.001 266.571C329.282 266.587 329.578 266.618 329.828 266.462C330.046 266.337 330.14 266.104 330.249 265.901C330.639 265.074 331.122 264.264 331.824 263.609C332.526 262.954 334.132 262.346 335.099 262.33C335.567 262.315 336.565 262.346 337.017 262.439C338.093 262.673 342.21 265.09 342.21 265.09L338.296 267.398C338.296 267.398 338.686 275.163 337.407 280.542C337.064 281.977 336.627 283.427 335.801 284.737C334.99 286.046 333.758 287.232 332.23 287.793C332.074 287.855 331.886 287.902 331.731 287.855C331.559 287.808 331.465 287.653 331.387 287.497C331.138 287.044 330.904 286.592 330.654 286.124C330.514 287.185 330.358 288.261 329.812 289.243C329.267 290.225 327.879 291.317 327.083 291.223C326.304 291.13 326.272 289.867 325.945 289.071C325.664 290.88 324.292 292.361 322.374 293.016C322.155 293.094 321.921 293.157 321.688 293.126C320.736 293.001 320.253 291.052 320.253 291.052C320.253 291.052 319.099 292.439 318.303 292.128C317.493 291.847 317.134 291.036 316.884 290.288Z" fill="#E27769"/>
<path d="M330.093 267.429C329.921 273.479 330.311 279.482 331.278 285.376" stroke="black" stroke-miterlimit="10"/>
<path d="M323.637 272.528C323.653 275.615 323.886 278.656 324.386 281.618C324.807 284.207 325.399 286.733 326.007 289.259" stroke="black" stroke-miterlimit="10"/>
<path d="M319.224 276.286C318.615 281.15 319.785 286.748 320.237 291.083" stroke="black" stroke-miterlimit="10"/>
<path d="M384.971 160.775C376.768 159.247 371.17 159.965 364.183 164.939C358.351 169.102 354.733 174.014 353.314 181.077C352.331 185.957 352.44 190.261 350.242 194.954C348.557 198.541 346.561 202.08 345.937 205.994C344.986 211.935 346.78 217.938 347.918 223.723C349.025 229.289 348.511 234.31 346.249 239.565C345.392 241.561 344.378 243.494 343.739 245.568C342.538 249.451 343.941 253.38 343.333 257.356C342.818 260.818 340.043 262.923 339.528 266.571C338.202 276.223 348.027 281.088 356.355 278.936C367.193 276.114 376.831 265.901 381.509 256.077C385.283 248.156 384.129 238.614 384.222 230.131" fill="#171F3F"/>
<path d="M359.645 217.236C360.113 223.177 360.612 229.243 362.889 234.747C365.166 240.267 369.563 245.241 375.349 246.66C381.618 248.188 388.885 244.898 393.829 241.155C410.188 228.806 420.199 202.782 407.646 184.242C400.612 173.858 386.499 168.93 374.413 174.388C364.464 178.878 358.07 189.887 358.366 198.447C358.6 205.058 359.115 210.625 359.645 217.236Z" fill="#F29275"/>
<path d="M383.131 236.961L382.46 257.855C382.46 257.855 390.647 266.556 402.843 264.092C419.747 260.662 420.73 245.973 420.73 245.973L415.459 209.845" fill="#F29275"/>
<path d="M375.193 164.486C375.193 164.486 384.534 156.176 391.536 153.868C401.564 150.562 411.872 151.701 420.62 157.766C430.539 164.642 438.461 175.214 444.808 185.318C450.391 194.206 452.2 205.682 453.978 215.895C455.256 223.286 457.346 228.058 462.024 233.733C466.344 238.957 470.29 245.038 470.492 252.023C470.648 257.153 468.746 262.268 469.448 267.366C470.102 272.2 473.065 276.535 473.455 281.415C474.064 288.822 467.732 295.963 460.34 296.649C452.933 297.351 445.572 291.878 443.685 284.69C441.361 275.818 446.601 264.856 437.915 258.51C434.25 255.828 429.198 255.563 425.626 252.756C418.219 246.94 419.357 235.027 417.252 226.857C415.349 219.482 413.463 212.091 411.576 204.715C401.408 205.323 391.63 199.383 385.08 191.976C379.388 185.536 376.581 177.647 376.581 177.647C376.581 177.647 361.454 186.768 358.101 207.039C358.101 207.039 352.206 195.672 357.041 181.919C361.86 168.166 375.193 164.486 375.193 164.486Z" fill="#171F3F"/>
<path d="M398.726 209.83C398.71 204.949 405.197 200.973 409.564 202.423C420.059 205.916 417.003 224.627 407.365 226.639C404.636 227.216 400.691 226.233 399.646 223.146" fill="#F29275"/>
<path d="M410.515 210.719L401.767 219.029" stroke="black" stroke-miterlimit="10"/>
<path d="M403.186 203.717C401.034 205.074 399.318 207.132 398.32 209.533" stroke="black" stroke-miterlimit="10"/>
<path d="M415.88 217.657C414.632 221.68 411.997 225.953 407.677 226.779C404.683 227.34 401.205 226.108 399.895 223.021" stroke="black" stroke-miterlimit="10"/>
<path d="M382.46 246.909C382.46 246.909 390.944 245.693 399.49 237.304" stroke="black" stroke-miterlimit="10"/>
<path d="M372.183 209.19C371.84 212.512 371.154 215.786 370.14 218.967C369.688 220.37 369.189 221.774 369.205 223.239C369.205 223.707 369.283 224.191 369.579 224.565C369.766 224.814 370.047 224.97 370.312 225.126C371.404 225.765 372.62 226.436 373.868 226.186" stroke="black" stroke-miterlimit="10"/>
<path d="M377.626 200.334C379.871 198.775 382.632 197.964 385.376 198.057C388.121 198.151 390.819 199.149 392.955 200.848" stroke="black" stroke-miterlimit="10"/>
<path d="M356.885 205.339C358.132 204.076 359.801 203.25 361.563 203.031C363.279 202.813 365.025 203.172 366.709 203.53" stroke="black" stroke-miterlimit="10"/>
<path d="M384.846 209.456C384.909 210.984 384.082 212.247 382.975 212.293C381.883 212.34 380.947 211.14 380.87 209.612C380.807 208.083 381.634 206.82 382.741 206.774C383.848 206.742 384.784 207.928 384.846 209.456Z" fill="black"/>
<path d="M364.869 213.712C364.932 215.24 364.105 216.503 362.998 216.55C361.906 216.597 360.971 215.396 360.893 213.868C360.83 212.34 361.657 211.077 362.764 211.03C363.871 210.984 364.807 212.184 364.869 213.712Z" fill="black"/>
<path d="M381.992 225.89L372.402 231.223C372.402 231.223 374.725 235.324 378.562 234.123C383.271 232.642 381.992 225.89 381.992 225.89Z" fill="white"/>
<path d="M425.985 423.48C448.052 420.299 469.26 412.643 489.643 403.583C510.025 394.524 529.737 384.03 550.01 374.753L536.052 339.061C512.115 347.185 491.171 355.901 466.968 362.481C452.356 366.442 434.656 368.687 419.81 372.242" fill="#E27769"/>
<path d="M346.062 388.178C346.062 388.178 359.224 380.912 363.263 379.633C383.568 373.193 406.476 372.429 430.04 368.687L440.254 447.944L367.489 442.503" fill="white"/>
<path d="M412.184 371.104C414.383 394.555 419.108 446.354 419.108 446.354" stroke="black" stroke-miterlimit="10"/>
<path d="M482.001 427.066C482.001 427.066 454.929 459.873 438.149 472.737C421.806 485.257 381.306 493.755 381.306 493.755L375.723 449.55C402 432.664 428.652 419.145 453.525 395.616" fill="#D16159"/>
<path d="M486.898 556.032C486.898 556.032 486.898 570.814 484.356 576.412C481.814 582.025 419.108 699.235 412.995 723.7C406.882 748.164 410.718 770.322 452.262 818.456C485.682 857.172 559.257 927.557 559.257 927.557C559.257 927.557 614.042 846.226 614.042 844.698C614.042 843.17 521.05 742.551 521.05 742.551C521.05 742.551 584.256 606.973 589.87 578.953C595.484 550.918 589.355 513.199 588.856 511.671" fill="#2A2D3E"/>
<path d="M599.242 847.614C599.242 846.086 506.251 745.467 506.251 745.467C506.251 745.467 569.456 609.889 575.07 581.869" stroke="#545D7F" stroke-miterlimit="10"/>
<path d="M566.462 544.057C566.462 544.057 548.528 728.237 547.686 761.558C546.844 794.88 579.172 963.576 579.172 963.576H671.446L645.839 734.49C645.839 734.49 658.923 628.429 658.923 594.78C658.923 538.085 647.82 514.073 647.82 514.073" fill="#2A2D3E"/>
<path d="M639.929 531.521C642.798 544.962 644.139 558.605 645.34 573.808C646.011 582.275 645.231 597.197 644.888 605.679C644.483 615.331 629.465 739.401 629.465 739.401L657.816 963.592" stroke="#545D7F" stroke-miterlimit="10"/>
<path d="M597.979 548.345C607.227 563.486 628.436 576.88 645.605 581.339" stroke="#545D7F" stroke-miterlimit="10"/>
<path d="M476.247 592.098C494.914 591.225 511.74 573.231 515.296 554.27" stroke="#545D7F" stroke-miterlimit="10"/>
<path d="M546.532 552.134C548.279 562.675 550.337 577.566 552.739 587.966C552.817 588.325 552.91 588.699 553.191 588.933C553.487 589.182 553.924 589.198 554.314 589.198C556.7 589.198 559.07 589.182 561.456 589.182" stroke="#545D7F" stroke-miterlimit="10"/>
<path d="M554.922 667.738L561.831 592.659L558.369 543.652" stroke="black" stroke-miterlimit="10"/>
<path d="M570.345 330.236C577.301 331.499 584.24 332.746 591.195 334.009C610.237 337.455 623.336 344.41 632.022 365.444C639.118 382.611 657.223 527.857 659.968 546.225L481.144 568.413L488.691 366.925C488.691 366.925 489.83 338.172 532.715 334.68" fill="#735D9D"/>
<path d="M518.711 432.352L463.771 476.151L428.34 414.124C428.34 414.124 453.806 388.677 466.952 370.512C473.362 361.671 483.779 348.666 499.701 342.024C511.023 337.299 533.698 332.201 533.698 332.201" fill="#735D9D"/>
<path d="M486.103 457.051L487.444 383.422" stroke="black" stroke-miterlimit="10"/>
<path d="M440.472 401.712L476.247 466.203" stroke="black" stroke-miterlimit="10"/>
<path d="M480.878 548.657L657.005 527.514" stroke="black" stroke-miterlimit="10"/>
<path d="M568.256 283.505L566.135 293.609L572.435 331.904C572.435 331.904 566.494 343.115 549.012 348.23C531.671 353.297 524.622 338.874 524.622 338.874L526.259 312.086" fill="#D16159"/>
<path d="M503.959 310.012C502.696 301.608 499.748 286.452 501.339 279.965C502.68 274.477 509.214 266.727 513.721 263.203C519.538 258.666 530.158 262.907 537.331 263.687C549.121 264.965 553.519 280.137 554.751 290.631C555.702 298.692 555.297 306.691 551.164 313.864C544.443 325.511 528.489 335.413 515.078 329.082C507.795 325.652 505.565 320.724 503.959 310.012Z" fill="#D16159"/>
<path d="M580.482 279.31C582.54 278.188 584.661 277.112 585.909 275.209C587.765 272.372 587.079 268.505 585.441 265.526C583.772 262.502 581.215 259.991 578.174 258.369C574.837 256.592 570.907 255.859 567.991 253.458C565.495 251.4 564.045 248.375 562.595 245.49C560.645 241.607 558.431 237.631 554.797 235.261C549.542 231.846 542.602 232.595 536.661 234.575C535.788 234.856 534.914 235.168 533.994 235.121C533.136 235.074 532.341 234.715 531.546 234.404C525.557 232.065 518.618 232.33 512.816 235.105C508.31 237.273 504.66 240.765 500.59 243.603C496.473 246.488 492.278 246.909 487.849 248.936C484.372 250.542 480.925 253.333 480.66 257.153C480.27 262.486 485.214 266.181 485.728 271.28C486.383 277.735 478.04 280.23 478.415 286.654C478.664 290.88 481.939 294.279 485.417 296.291C487.662 297.6 491.249 298.692 493.791 297.616C496.676 296.384 495.553 293.5 496.146 291.083C496.692 288.869 499.187 287.777 501.417 287.356C503.662 286.935 506.126 286.795 507.842 285.298C509.666 283.707 510.087 281.041 510.025 278.624C509.963 276.207 509.557 273.728 510.165 271.389C511.273 267.148 516.123 264.279 520.38 265.339C520.926 265.48 521.518 265.667 522.064 265.511C522.438 265.402 522.735 265.121 523.062 264.903C525.573 263.156 529.222 264.747 530.969 267.257C532.715 269.768 533.199 272.902 534.134 275.802C535.086 278.702 536.848 281.712 539.78 282.538C543.476 283.567 548.201 280.948 550.93 283.661C551.756 284.487 552.146 285.625 552.521 286.717C552.552 286.81 556.513 299.456 554.408 299.456C561.347 299.425 571.842 299.705 574.104 291.145C574.805 288.51 574.431 285.563 575.804 283.193C576.833 281.4 578.626 280.324 580.482 279.31Z" fill="#FCDDD2"/>
<path d="M525.027 332.216C525.027 332.216 539.281 331.062 546.392 320.225" stroke="black" stroke-miterlimit="10"/>
<path d="M516.279 295.683C515.904 299.425 515.561 303.167 515.218 306.909C515.171 307.424 515.14 307.985 515.405 308.422C516.481 310.168 519.756 310.106 521.394 309.529" stroke="black" stroke-miterlimit="10"/>
<path d="M527.647 310.371L520.021 315.127C520.021 315.127 523.187 320.787 526.166 319.57C531.702 317.325 527.647 310.371 527.647 310.371Z" fill="white"/>
<path d="M522.095 286.982C523.203 285.547 525.027 284.799 526.836 284.596C529.893 284.269 533.074 285.391 535.226 287.574" stroke="black" stroke-miterlimit="10"/>
<path d="M503.039 289.711C503.662 288.089 504.879 287.029 506.158 286.499C508.325 285.594 510.758 286.124 512.598 287.855" stroke="black" stroke-miterlimit="10"/>
<path d="M528.879 295.651C528.926 297.367 528.006 298.801 526.821 298.832C525.635 298.863 524.622 297.507 524.575 295.776C524.528 294.061 525.448 292.626 526.633 292.595C527.819 292.58 528.817 293.936 528.879 295.651Z" fill="black"/>
<path d="M509.697 297.289C509.744 299.004 508.824 300.438 507.639 300.47C506.454 300.501 505.44 299.144 505.393 297.413C505.347 295.698 506.267 294.264 507.452 294.232C508.637 294.201 509.651 295.558 509.697 297.289Z" fill="black"/>
<path d="M544.988 291.597C545.051 287.044 551.164 283.427 555.218 284.846C564.965 288.261 561.831 305.677 552.817 307.424C550.259 307.923 546.595 306.94 545.659 304.056" fill="#D16159"/>
<path d="M555.982 292.611L547.702 300.236" stroke="black" stroke-miterlimit="10"/>
<path d="M549.23 285.953C547.203 287.2 545.565 289.087 544.614 291.317" stroke="black" stroke-miterlimit="10"/>
<path d="M560.895 299.16C559.679 302.886 557.152 306.847 553.113 307.549C550.306 308.032 547.078 306.831 545.908 303.931" stroke="black" stroke-miterlimit="10"/>
<path d="M571.952 370.075L564.965 423.589L632.35 427.066L634.939 397.315" fill="#735D9D"/>
<path d="M632.35 427.066L634.939 397.315" stroke="black" stroke-miterlimit="10"/>
<path d="M571.952 370.075L564.965 423.589" stroke="black" stroke-miterlimit="10"/>
<path d="M626.408 426.863L587.032 424.509C587.032 424.509 550.602 400.777 535.226 384.935L509.058 420.657C509.058 420.657 541.729 463.397 561.207 479.925C569.675 487.113 586.268 497.326 597.199 495.268C611.125 492.633 617.363 481.203 620.825 467.466C624.631 452.326 626.408 426.863 626.408 426.863Z" fill="#D16159"/>
<path d="M587.016 424.509C587.016 424.509 603.188 433.88 608.74 442.238" stroke="black" stroke-miterlimit="10"/>
<path d="M633.551 411.754L566.992 408.105" stroke="black" stroke-miterlimit="10"/>
<path d="M561.207 497.295C570.735 503.423 581.48 507.664 592.615 509.691" stroke="black" stroke-miterlimit="10"/>
<path d="M552.692 503.158C558.54 506.916 565.028 509.691 571.796 511.328" stroke="black" stroke-miterlimit="10"/>
<path d="M605.777 346.795C605.574 342.632 604.498 338.5 602.611 334.789C602.034 333.635 601.051 332.356 599.773 332.559C599.227 332.653 598.743 332.996 598.197 332.98C597.979 331.78 597.574 330.548 596.654 329.752C595.734 328.957 594.174 328.801 593.363 329.69C593.301 329.768 593.223 329.846 593.129 329.893C592.895 329.971 592.677 329.721 592.552 329.519C591.835 328.365 590.868 327.336 589.652 326.743C588.435 326.151 586.938 326.026 585.722 326.65C585.472 326.774 585.192 326.946 584.911 326.899C584.661 326.852 584.49 326.665 584.318 326.478C583.648 325.761 582.899 325.106 582.01 324.7C581.121 324.311 579.39 324.342 578.501 324.732C578.065 324.919 577.145 325.371 576.77 325.667C575.85 326.384 572.934 330.719 572.934 330.719L577.425 331.514C577.425 331.514 579.952 339.966 583.149 345.174C584.006 346.561 584.958 347.918 586.19 348.963C587.437 350.007 589.012 350.74 590.65 350.709C590.821 350.709 591.008 350.693 591.149 350.569C591.289 350.444 591.32 350.241 591.336 350.038C591.398 349.446 591.445 348.853 591.507 348.261C592.038 349.321 592.583 350.413 593.441 351.239C594.314 352.05 596.014 352.611 596.7 352.175C597.387 351.738 596.934 350.381 596.95 349.399C597.87 351.208 599.71 352.221 601.737 352.081C601.971 352.065 602.221 352.034 602.408 351.91C603.25 351.364 602.969 349.087 602.969 349.087C602.969 349.087 604.56 350.07 605.184 349.399C605.792 348.713 605.823 347.7 605.777 346.795Z" fill="#E27769"/>
<path d="M585.004 328.053C587.422 334.43 589.293 341.026 590.603 347.731" stroke="black" stroke-miterlimit="10"/>
<path d="M592.895 330.735C594.034 334.025 594.938 337.377 595.593 340.761C596.17 343.692 596.56 346.655 596.934 349.618" stroke="black" stroke-miterlimit="10"/>
<path d="M598.385 332.84C600.771 337.783 601.769 344.254 602.969 349.087" stroke="black" stroke-miterlimit="10"/>
<path d="M378.421 531.614L377.548 554.27C377.548 554.27 379.092 574.447 381.774 579.811C384.456 585.159 435.326 697.535 443.358 739.401C451.389 781.268 460.761 936.289 460.761 936.289L355.185 949.855C355.185 949.855 348.417 773.643 348.027 771.429C347.637 769.214 306.81 632.67 299.45 611.261C292.089 589.837 290.919 545.492 303.894 515.133" fill="#4C4139"/>
<path d="M351.411 573.06C353.735 573.699 359.24 574.323 360.253 572.124C361.641 569.115 362.343 552.119 362.343 552.119" stroke="#685E49" stroke-miterlimit="10"/>
<path d="M279.005 511.687C267.808 525.331 256.985 539.457 249.344 555.362C241.609 571.469 242.607 599.395 243.184 640.248C244.042 700.716 243.387 719.864 243.387 719.864L171.277 891.663L264.876 933.451C264.876 933.451 333.009 788.253 347.216 750.379C358.07 721.439 351.084 573.122 351.084 573.122L356.448 525.237" fill="#4C4139"/>
<path d="M356.417 531.521L351.053 573.122C351.053 573.122 358.865 719.287 348.012 748.227L344.16 758.19" stroke="black" stroke-miterlimit="10"/>
<path d="M261.414 594.796C266.638 595.981 274.919 597.68 280.19 598.678C285.29 599.645 290.623 600.534 295.582 598.99C306.405 595.638 311.816 583.756 316.635 574.51C323.419 561.49 329.173 547.051 329.173 547.051" stroke="#685E49" stroke-miterlimit="10"/>
<path d="M367.349 552.134C367.349 552.134 367.598 558.215 368.877 568.241C369.766 575.243 371.481 589.182 376.815 595.918C379.185 598.912 383.755 598.335 388.667 596.152" stroke="#685E49" stroke-miterlimit="10"/>
<path d="M368.737 583.912C372.979 582.322 377.174 580.591 381.322 578.735" stroke="black" stroke-miterlimit="10"/>
<path d="M379.731 585.097C375.552 588.044 371.575 591.287 367.848 594.796" stroke="black" stroke-miterlimit="10"/>
<path d="M292.105 515.133C280.908 528.776 272.705 546.755 265.063 562.659C257.328 578.766 263.145 612.478 263.738 653.33C264.595 713.798 263.94 732.946 263.94 732.946L191.831 900.847" stroke="black" stroke-miterlimit="10"/>
<path d="M261.414 534.733L377.548 554.27" stroke="black" stroke-miterlimit="10"/>
<path d="M345.454 542.81C347.254 542.81 348.713 541.351 348.713 539.551C348.713 537.751 347.254 536.292 345.454 536.292C343.654 536.292 342.195 537.751 342.195 539.551C342.195 541.351 343.654 542.81 345.454 542.81Z" stroke="black" stroke-miterlimit="10"/>
<path d="M319.972 372.024C303.613 379.29 290.701 393.932 285.524 411.068C284.385 414.841 283.605 418.74 282.311 422.466C276.868 438.324 272.751 488.906 269.04 496.609C265.999 502.94 262.771 504.561 261.398 509.847C260.042 515.133 265.141 519.374 270.599 522.914L378.343 538.366C378.343 538.366 393.642 529.213 395.778 519.062C397.915 508.912 391.692 494.707 392.768 480.549C393.844 466.391 406.476 442.238 397.041 419.909C391.178 406.016 387.419 396.395 387.419 396.395" fill="white"/>
<path d="M399.271 414.95C400.051 425.834 400.69 436.733 401.174 447.633" stroke="black" stroke-miterlimit="10"/>
<path d="M302.646 527.436C328.799 529.338 352.44 523.974 377.33 525.518" stroke="black" stroke-miterlimit="10"/>
<path d="M359.177 386.775L372.339 415.668L382.772 412.487L370.577 384.997" stroke="black" stroke-miterlimit="10"/>
<path d="M370.343 391.936C370.78 393.199 370.327 394.493 369.345 394.836C368.363 395.179 367.209 394.431 366.772 393.168C366.335 391.905 366.787 390.61 367.77 390.267C368.768 389.924 369.922 390.673 370.343 391.936Z" stroke="black" stroke-miterlimit="10"/>
<path d="M375.599 403.911C376.035 405.174 375.583 406.468 374.601 406.811C373.618 407.154 372.464 406.406 372.027 405.143C371.591 403.88 372.043 402.586 373.026 402.243C374.008 401.9 375.162 402.648 375.599 403.911Z" stroke="black" stroke-miterlimit="10"/>
<path d="M545.113 394.306C539.951 389.534 535.179 384.373 530.36 379.275C527.912 376.686 525.464 374.129 522.922 371.619C521.159 369.888 518.446 366.192 515.873 365.787C514.5 365.569 512.879 366.083 512.052 367.237C510.836 365.054 509.572 362.809 507.592 361.296C505.611 359.784 502.711 359.176 500.621 360.548C500.34 360.735 500.044 360.953 499.717 360.938C499.342 360.922 499.046 360.61 498.781 360.33C497.377 358.848 495.272 357.804 493.292 358.302C491.685 358.708 490.485 360.018 489.393 361.265C487.101 363.869 484.808 366.473 482.516 369.093C481.362 370.402 480.223 371.697 479.069 373.006C478.212 373.973 476.87 374.987 476.403 376.218C476.153 376.889 476.231 377.762 476.792 378.214C477.089 378.464 477.494 378.557 477.868 378.62C480.286 379.041 482.843 378.682 485.042 377.606C485.042 377.606 487.849 380.865 488.145 381.208C489.284 382.518 490.079 384.249 490.89 385.792C492.652 389.129 494.181 392.591 495.444 396.146C494.29 396.348 493.292 395.444 492.403 394.68C490.064 392.669 487.225 391.265 484.215 390.626C482.079 390.174 479.521 390.236 478.149 391.936C478.009 392.107 477.884 392.31 477.884 392.544C477.884 392.809 478.071 393.043 478.258 393.246C483.467 399.093 488.676 404.94 493.884 410.803C495.709 412.845 497.533 414.904 499.53 416.775C505.627 422.513 511.787 423.807 520.536 430.356" fill="#D16159"/>
<path d="M518.025 384.716C520.941 395.725 520.598 410.008 531.234 416.993" stroke="black" stroke-miterlimit="10"/>
<path d="M453.806 409.976C461.323 402.788 467.093 393.791 470.492 383.968C472.114 379.275 473.206 374.41 474.921 369.732C475.311 368.656 476.013 367.424 477.136 367.455C477.822 367.471 478.399 368.001 478.804 368.562C480.333 370.652 480.442 373.443 480.488 376.031C483.685 373.458 486.446 370.371 488.66 366.925C490.032 364.773 491.857 362.154 494.383 362.528C495.802 362.746 496.691 364.228 497.44 365.335C498.298 366.582 498.984 367.939 499.498 369.373C501.307 367.907 503.803 366.894 505.97 367.752C507.296 368.266 508.294 369.42 508.933 370.683C509.573 371.946 509.884 373.365 510.196 374.737C512.473 373.755 515.265 374.082 517.245 375.548C519.226 377.029 520.349 379.602 520.052 382.066C521.705 381.91 523.343 382.736 524.559 383.859C525.791 384.981 526.696 386.4 527.694 387.741C529.035 389.55 530.563 391.25 532.216 392.778C532.497 393.027 532.793 393.323 532.824 393.698C532.887 394.446 530.454 395.491 529.705 395.538C524.871 395.834 521.736 392.778 517.76 390.018C517.214 389.644 516.606 389.223 515.935 389.301C515 389.41 514.454 390.392 514.095 391.265C508.044 405.657 510.758 416.104 498.516 427.05C492.465 432.461 489.487 436.063 483.03 440.928" fill="#E27769"/>
<path d="M506.204 360.486C503.709 358.833 501.151 358.599 498.781 359.909C496.411 361.218 494.539 363.635 492.902 365.787C491.873 367.144 491.093 368.718 490.251 370.2C489.284 371.915 488.083 373.49 486.867 375.033C486.602 375.361 486.336 375.735 486.352 376.14C486.414 377.824 489.642 377.918 490.781 377.747C492.418 377.497 493.666 376.577 494.882 375.532C497.315 373.427 499.296 370.886 501.229 368.329C502.087 367.19 502.929 366.036 503.802 364.898" fill="#D16159"/>
<path d="M517.323 366.348C514.672 364.68 512.395 364.477 510.15 365.88C507.904 367.284 505.502 370.854 503.943 373.178C502.82 374.877 501.775 376.639 500.73 378.386C499.779 380.007 498.781 381.691 498.547 383.625C498.5 384.015 498.485 384.451 498.656 384.794C500.107 387.726 506.344 383.687 507.639 382.549C511.272 379.368 513.69 374.987 516.964 371.463" fill="#D16159"/>
<path d="M534.431 384.342C532.606 381.629 530.766 378.916 528.941 376.203C528.333 375.314 527.725 374.41 526.945 373.677C526.165 372.944 525.183 372.367 524.107 372.274C522.579 372.133 521.144 372.944 519.834 373.724C518.602 374.456 517.526 375.969 516.668 377.076C515.717 378.292 514.859 379.571 514.001 380.849C512.879 382.549 511.834 384.311 510.789 386.057C509.838 387.679 508.84 389.363 508.606 391.296C508.559 391.686 508.543 392.123 508.715 392.466C508.918 392.887 509.354 393.105 509.76 393.23C511.506 393.745 513.378 393.121 515 392.201C520.021 389.394 523.608 384.171 527.023 379.119" fill="#D16159"/>
<path d="M513.3 393.152C518.399 390.049 521.393 386.931 525.729 380.709" stroke="black" stroke-miterlimit="10"/>
<path d="M513.814 375.626C514.469 374.753 516.154 372.507 516.809 371.634" stroke="black" stroke-miterlimit="10"/>
<path d="M499.717 370.512C500.434 369.903 501.027 369.155 501.604 368.422C502.664 367.066 503.74 365.725 504.801 364.368" stroke="black" stroke-miterlimit="10"/>
<path d="M471.974 384.498C473.268 383.641 474.5 382.658 475.638 381.598C476.527 380.771 477.354 379.898 478.18 379.025C479.132 378.027 480.083 377.029 481.019 376.016" stroke="black" stroke-miterlimit="10"/>
<path d="M389.15 431.229L414.429 440.943L459.888 404.519L492.574 431.338C492.574 431.338 449.408 480.05 437.79 490.356C423.49 503.049 410.843 503.516 386.063 492.461C361.283 481.406 337.064 469.977 337.064 469.977" fill="#E27769"/>
<path d="M303.878 465.689C303.878 465.689 341.181 499.79 363.216 515.133L406.492 436.624C390.601 429.607 375.084 421.702 360.066 412.955" fill="white"/>
<path d="M303.878 465.689C303.878 465.689 341.181 499.79 363.216 515.133L406.492 436.624C390.601 429.607 375.084 421.702 360.066 412.955" stroke="black" stroke-miterlimit="10"/>
<path d="M344.394 500.725L388.402 428.173" stroke="black" stroke-miterlimit="10"/>
<path d="M414.429 440.943L406.476 447.944" stroke="black" stroke-miterlimit="10"/>
<path d="M509.229 352.331C519.756 356.463 528.972 363.885 535.226 373.303" stroke="black" stroke-miterlimit="10"/>
<path d="M537.768 362.045C542.649 366.083 546.47 371.385 548.762 377.294" stroke="black" stroke-miterlimit="10"/>
<path d="M368.581 315.298C373.041 316.14 376.737 319.212 379.965 322.408C383.193 325.605 386.265 329.113 390.289 331.218C393.345 332.824 396.792 333.526 400.035 334.695C403.123 335.802 406.039 337.346 408.69 339.28C411.201 341.088 413.525 343.318 414.788 346.14C416.067 348.963 416.129 352.471 414.367 355.013C412.574 357.617 409.299 358.739 406.18 359.254C403.061 359.768 399.817 359.831 396.885 361C394.234 362.06 392.004 363.947 389.587 365.46C379.934 371.51 367.583 371.4 356.433 369.015" fill="#1E1611"/>
<path d="M365.15 372.804L367.053 348.183C367.053 348.183 334.117 327.897 334.148 328.536C334.179 329.176 331.902 348.931 331.902 348.931L321.703 369.779L354.218 388.677L367.053 381.801L365.15 372.804Z" fill="#E27769"/>
<path d="M377.267 321.551C380.464 326.104 383.723 330.766 385.361 336.083C386.998 341.4 386.795 347.606 383.474 352.065C379.871 356.899 372.682 358.848 366.897 359.098C347.777 359.94 325.087 347.154 323.091 326.353C321.968 314.69 327.972 301.639 339.918 298.38C349.758 295.698 361.516 296.618 367.037 306.27C370.125 311.618 373.711 316.483 377.267 321.551Z" fill="#E27769"/>
<path d="M322.14 363.058L364.199 378.947L365.587 372.367L378.359 384.935L364.666 384.046L353.017 395.725L309.976 378.604L322.14 363.058Z" fill="white"/>
<path d="M371.138 377.824L378.359 384.935L364.666 384.046L353.017 395.725L309.976 378.604" stroke="black" stroke-miterlimit="10"/>
<path d="M332.604 341.946C337.111 340.527 340.557 336.691 342.444 332.356C344.331 328.022 344.83 323.219 344.971 318.51C345.111 314.176 344.955 309.732 343.364 305.693C352.674 302.902 363.341 305.194 370.686 311.556C371.06 303.541 367.021 295.449 360.378 290.943C353.735 286.436 348.417 290.116 341.103 293.422C339.278 294.248 337.563 295.308 335.723 296.119C330.655 296.696 326.132 297.881 322.951 299.16C314.077 302.684 307.122 306.582 302.771 315.08C300.526 319.461 298.654 324.124 298.264 329.035C297.89 333.713 299.45 336.956 301.025 341.135C302.6 345.33 301.867 350.771 300.136 354.779C298.233 359.176 294.74 362.856 290.436 364.976C286.256 367.034 281.344 367.674 277.648 370.527C276.135 371.697 274.888 373.225 274.03 374.94C273.017 376.967 272.58 379.477 273.609 381.504C274.093 382.456 274.841 383.22 275.652 383.906C279.208 386.977 283.808 388.724 288.471 389.379C293.134 390.034 297.89 389.659 302.537 388.895C303.956 388.661 305.391 388.396 306.81 388.537C309.758 388.848 312.331 390.642 315.247 391.203C319.395 391.983 324.12 392.528 328.159 390.985C334.896 388.412 338.374 377.404 338.499 371.244C338.686 361.406 334.6 356.057 335.645 344.441" fill="#1E1611"/>
<path d="M281.999 328.006C272.658 329.129 265.282 340.059 271.13 348.729C276.151 356.166 288.362 355.153 294.818 350.366C298.249 347.824 302.444 344.02 302.818 339.529C303.005 337.284 302.366 334.976 301.04 333.136C297.609 328.349 287.332 327.367 281.999 328.006Z" fill="#1E1611"/>
<path d="M342.709 338.204C339.809 334.695 332.776 335.709 330.514 339.342C325.056 348.105 338.421 359.721 346.53 355.434C348.822 354.217 351.084 351.161 349.992 348.323" fill="#E27769"/>
<path d="M334.772 345.86L346.016 346.624" stroke="black" stroke-miterlimit="10"/>
<path d="M335.863 336.457C338.218 336.161 340.682 336.613 342.819 337.736" stroke="black" stroke-miterlimit="10"/>
<path d="M335.052 354.046C338.343 356.182 342.787 357.695 346.39 355.714C348.885 354.342 350.647 351.379 349.742 348.37" stroke="black" stroke-miterlimit="10"/>
<path d="M354.67 359.145C354.67 359.145 361.86 360.033 366.99 359.893" stroke="black" stroke-miterlimit="10"/>
<path d="M368.144 321.395C370.296 324.077 373.041 326.291 376.113 327.819C377.064 328.287 378.109 328.77 378.577 329.706C378.795 330.158 378.858 330.657 378.842 331.156C378.811 332.45 378.265 333.713 377.376 334.649" stroke="black" stroke-miterlimit="10"/>
<path d="M357.306 319.009C354.655 318.978 351.894 319.898 350.132 321.894C348.76 323.453 348.105 325.496 347.481 327.46" stroke="black" stroke-miterlimit="10"/>
<path d="M366.741 315.516C366.772 314.971 367.099 314.503 367.458 314.098C368.877 312.507 370.998 311.572 373.119 311.587" stroke="black" stroke-miterlimit="10"/>
<path d="M361.844 326.353C362.67 327.398 362.655 328.817 361.782 329.488C360.924 330.174 359.551 329.877 358.709 328.817C357.883 327.772 357.898 326.353 358.772 325.683C359.629 325.012 361.002 325.309 361.844 326.353Z" fill="black"/>
<path d="M375.053 319.586C375.879 320.631 375.864 322.05 374.99 322.72C374.133 323.406 372.76 323.11 371.918 322.05C371.092 321.005 371.107 319.586 371.98 318.916C372.854 318.245 374.226 318.541 375.053 319.586Z" fill="black"/>
<path d="M379.404 337.97L371.232 337.05C371.232 337.05 369.828 342.476 373.821 343.147C378.749 343.973 379.404 337.97 379.404 337.97Z" fill="white"/>
<path d="M298.077 328.911C298.436 333.791 299.621 338.609 301.555 343.1" stroke="#735D9D" stroke-width="2" stroke-miterlimit="10" stroke-linecap="round"/>
<path d="M188.914 435.221L202.903 453.09L276.026 413.375L305.407 449.332C305.407 449.332 248.112 497.435 236.79 506.479C225.468 515.523 191.191 530.57 171.589 505.949C152.002 481.328 129.077 461.635 129.077 461.635" fill="#D16159"/>
<path d="M140.072 376.374C167.16 400.746 198.739 446.619 198.739 446.619L131.557 497.638L97.5918 443.547" fill="#606FC4"/>
<path d="M97.5918 443.547L131.557 497.638L198.739 446.619C198.739 446.619 167.16 400.746 140.072 376.374" stroke="black" stroke-miterlimit="10"/>
<path d="M117.07 474.561L186.934 430.309" stroke="black" stroke-miterlimit="10"/>
<path d="M202.887 453.09L180.509 466.203" stroke="black" stroke-miterlimit="10"/>
<path d="M262.178 423.23C268.151 418.085 274.997 414.062 280.939 408.885C285.711 404.722 288.362 399.794 293.212 395.725C298.108 391.608 302.038 389.113 307.512 385.855C310.054 384.342 316.292 383.001 319.224 383.422C322.514 383.906 324.479 385.558 326.662 388.1C327.083 388.583 327.52 389.082 328.081 389.379C328.783 389.737 329.61 389.737 330.405 389.8C333.867 390.111 337.126 392.185 338.92 395.21C339.263 395.787 339.575 396.411 340.152 396.738C340.682 397.035 341.321 397.066 341.93 397.097C347.013 397.393 350.709 402.975 350.709 402.975C350.709 402.975 360.082 405.704 366.522 409.571C367.489 410.164 366.522 412.066 365.883 412.424C360.175 415.668 352.129 413.344 345.922 414.685C340.167 415.933 335.193 419.628 331.076 423.916C326.959 428.189 319.863 440.023 315.918 444.467C308.276 453.059 302.506 452.84 293.071 459.311C288.705 462.305 284.167 465.346 278.974 466.219" fill="#D16159"/>
<path d="M288.845 461.65C292.26 459.421 295.785 457.362 299.418 455.491" stroke="black" stroke-miterlimit="10"/>
<path d="M332.183 405.47C332.183 405.47 335.879 403.739 337.859 403.194C338.608 402.991 339.388 402.944 340.167 402.928C343.458 402.835 346.764 403.038 350.023 403.521" stroke="black" stroke-miterlimit="10"/>
<path d="M339.887 396.707C333.212 396.099 326.35 397.565 320.518 400.87" stroke="black" stroke-miterlimit="10"/>
<path d="M327.77 389.909C322.452 389.379 316.978 390.548 312.362 393.23" stroke="black" stroke-miterlimit="10"/>
<path d="M735.821 433.786C708.39 420.486 685.434 412.97 656.568 403.646L659.017 447.57C682.814 459.421 705.13 475.122 730.409 482.856C737.021 484.883 744.07 486.349 750.76 484.649C758.48 482.7 764.811 476.713 769.1 469.696C773.404 462.695 773.638 460.777 776.117 452.856L735.821 433.786Z" fill="#F29275"/>
<path d="M743.353 378.635L723.189 427.83L782.542 455.6L794.238 413.968" fill="#FCDDD2"/>
<path d="M700.811 422.123L677.247 412.346C677.247 412.346 665.442 403.318 661.044 400.636C657.941 398.75 650.533 394.041 647.134 392.949C642.985 391.624 638.837 390.657 634.549 390.252C633.176 390.127 631.757 390.018 630.416 390.345C629.247 390.642 628.186 391.25 627.126 391.842C624.677 393.246 622.135 394.727 620.591 397.159C620.139 397.877 619.781 398.656 619.266 399.311C618.782 399.95 618.159 400.465 617.566 400.995C613.246 404.831 609.488 409.368 606.463 414.389C606.369 414.545 606.276 414.701 606.276 414.888C606.276 415.293 606.665 415.543 607.024 415.668C607.757 415.933 608.521 416.058 609.301 416.042C607.242 417.118 605.324 418.49 603.64 420.143C603.219 420.564 602.767 421.125 602.954 421.718C603.125 422.263 603.749 422.466 604.279 422.544C609.784 423.37 613.964 418.973 619.281 419.192C624.007 419.394 628.794 421.39 632.646 424.353C636.498 427.315 643.017 438.043 646.759 441.162C654.011 447.196 658.518 446.182 666.892 450.19C670.76 452.045 674.783 453.901 678.994 453.885" fill="#F29275"/>
<path d="M670.541 451.546C667.532 450.19 664.444 448.989 661.325 447.96" stroke="black" stroke-miterlimit="10"/>
<path d="M629.792 411.551C627.344 411.099 624.849 410.725 622.369 410.834C617.691 411.052 613.168 413.5 609.27 416.057" stroke="black" stroke-miterlimit="10"/>
<path d="M610.907 407.981C616.116 405.205 620.638 403.459 625.301 403.365C629.761 403.272 633.8 403.724 637.184 404.597" stroke="black" stroke-miterlimit="10"/>
<path d="M619.235 399.311C621.387 398.672 626.58 396.348 631.539 396.021C636.046 395.725 639.492 397.144 642.252 398.126" stroke="black" stroke-miterlimit="10"/>
<path d="M729.879 411.536L786.909 440.086" stroke="#D8A798" stroke-miterlimit="10"/>
<path d="M782.542 455.6L794.239 413.968" stroke="black" stroke-miterlimit="10"/>
<path d="M743.353 378.635L723.189 427.83" stroke="black" stroke-miterlimit="10"/>
</g>
<defs>
<clipPath id="clip0_79_574">
<rect width="1094" height="610" fill="white"/>
</clipPath>
</defs>
</svg>
