<svg width="1440" height="481" viewBox="0 0 1440 481" fill="none" xmlns="http://www.w3.org/2000/svg">
<path d="M1440 350.249H-4V480.209H1440V350.249Z" fill="#6552C4"/>
<path d="M1440 360.357H1407.56L1400.41 350.249H1398.63L1405.78 360.357H1321.42L1315.17 350.249H1313.48L1319.74 360.357H1235.31L1229.97 350.249H1228.33L1233.68 360.357H1149.2L1144.75 350.249H1143.19L1147.64 360.357H1093.66V350.249H1092.6V360.357H1063.09H1061.58H977.005H975.513H890.895H889.427H804.809H803.365H718.722H717.278H632.636H631.192H597.883V350.249H596.824V360.357H546.573L548.354 350.249H546.886L545.105 360.357H460.487L463.158 350.249H461.666L458.995 360.357H374.424L378.01 350.249H376.47L372.908 360.357H288.362L292.814 350.249H291.25L286.798 360.357H202.324L207.666 350.249H206.03L200.687 360.357H116.261L122.518 350.249H120.834L114.576 360.357H30.2228L37.3706 350.249H35.5897L28.4419 360.357H-4V361.801H27.4311L-0.4622 401.27H-4V402.714H-1.473L-4 406.3V408.779L0.283867 402.714H88.3919L50.6073 463.843H-4V465.287H49.7168L40.4993 480.209H42.1839L51.4015 465.287H145.093L137.175 480.209H138.836L146.73 465.287H240.469L233.875 480.209H235.439L242.034 465.287H335.845L330.575 480.209H332.091L337.362 465.287H431.198L427.251 480.209H428.743L432.69 465.287H526.574L523.926 480.209H525.419L528.042 465.287H621.926L620.602 480.209H622.046L623.37 465.287H717.278V480.209H718.722V465.287H812.63L813.954 480.209H815.398L814.074 465.287H907.958L910.606 480.209H912.074L909.426 465.287H1003.31L1007.26 480.209H1008.75L1004.8 465.287H1098.64L1103.91 480.209H1105.43L1100.15 465.287H1193.97L1200.56 480.209H1202.13L1195.53 465.287H1289.27L1297.19 480.209H1298.83L1290.91 465.287H1384.6L1393.82 480.209H1395.5L1386.28 465.287H1440V463.843H1385.39L1347.61 402.714H1435.72L1440 408.779V406.3L1437.47 402.714H1440V401.27H1436.46L1408.57 361.801H1440V360.357ZM546.308 361.801H631.071L627.582 401.27H539.329L546.308 361.801ZM460.126 361.801H544.84L537.885 401.27H449.657L460.126 361.801ZM373.919 361.801H458.609L448.165 401.27H359.984L373.919 361.801ZM287.736 361.801H372.403L358.444 401.27H270.312L287.736 361.801ZM201.553 361.801H286.148L268.723 401.27H180.639L201.553 361.801ZM115.371 361.801H199.917L179.003 401.27H90.9671L115.371 361.801ZM1.31873 401.27L29.1879 361.801H113.662L89.2824 401.27H1.31873ZM145.863 463.843H52.2919L90.0766 402.714H178.233L145.863 463.843ZM241.095 463.843H147.476L179.869 402.714H268.098L241.095 463.843ZM336.351 463.843H242.683L269.662 402.714H357.939L336.351 463.843ZM431.583 463.843H337.867L359.479 402.714H447.779L431.583 463.843ZM526.814 463.843H433.075L449.272 402.714H537.62L526.814 463.843ZM622.046 463.843H528.282L539.088 402.714H627.461L622.046 463.843ZM717.278 463.843H623.514L628.905 402.714H717.278V463.843ZM717.278 401.27H629.026L632.515 361.801H717.278V401.27ZM1320.63 361.801L1345.03 401.27H1257L1236.08 361.801H1320.63ZM1234.45 361.801L1255.36 401.27H1167.28L1149.85 361.801H1234.45ZM1148.26 361.801L1165.69 401.27H1077.56L1063.62 361.801H1148.26ZM1062.08 361.801L1076.02 401.27H987.836L977.391 361.801H1062.08ZM975.874 361.801L986.343 401.27H898.115L891.16 361.801H975.874ZM889.692 361.801L896.647 401.27H808.419L804.929 361.801H889.692ZM718.722 361.801H803.485L806.974 401.27H718.722V361.801ZM718.722 463.843V402.714H807.095L812.486 463.843H718.722ZM813.954 463.843L808.539 402.714H896.912L907.718 463.843H813.954ZM909.186 463.843L898.38 402.714H986.728L1002.93 463.843H909.186ZM1004.42 463.843L988.221 402.714H1076.52L1098.13 463.843H1004.42ZM1099.65 463.843L1078.06 402.714H1166.34L1193.32 463.843H1099.65ZM1194.91 463.843L1167.9 402.714H1256.13L1288.52 463.843H1194.91ZM1383.71 463.843H1290.14L1257.77 402.714H1345.92L1383.71 463.843ZM1434.68 401.27H1346.72L1322.34 361.801H1406.81L1434.68 401.27Z" fill="#F7BFC9" fill-opacity="0.13"/>
<path opacity="0.5" d="M1276.63 415.109C1231.49 415.109 1194.9 410.674 1194.9 405.203C1194.9 399.732 1231.49 395.297 1276.63 395.297C1321.76 395.297 1358.35 399.732 1358.35 405.203C1358.35 410.674 1321.76 415.109 1276.63 415.109Z" fill="#6552C4"/>
<path d="M1196.24 374.396C1196.24 375.189 1196.26 375.998 1196.29 376.773C1196.59 384.748 1198.4 392.177 1204.12 398.285C1210.44 405.038 1218.55 406.474 1227.31 406.474H1297.12C1310.34 406.474 1328.75 408.686 1341.82 402.231C1343.47 401.422 1345.03 400.481 1346.48 399.375C1347.11 398.896 1347.72 398.384 1348.31 397.84C1349.76 396.502 1351.09 394.984 1352.24 393.25C1353.53 391.335 1354.5 389.222 1355.48 387.125C1357.39 383.014 1359.55 379.266 1360.05 374.726C1360.56 370.054 1360.61 365.349 1360.41 360.66C1360.05 351.58 1358.73 342.566 1357.82 333.519C1356.37 318.941 1357.61 304.363 1353.43 290.131C1353.02 288.712 1352.57 287.325 1352.09 285.938C1349.1 277.436 1345.08 268.058 1336.92 263.964C1328.1 259.523 1317.64 259.077 1308.19 261.322C1303.93 262.329 1300.37 263.749 1296.85 266.011C1296.11 266.49 1295.37 267.002 1294.62 267.563C1292.99 268.785 1291.4 270.023 1289.82 271.294C1275.29 282.999 1262.73 297.148 1252.82 312.964C1251.76 314.665 1250.69 316.415 1249.14 317.686C1247.36 319.155 1245.08 319.849 1242.88 320.559C1233.85 323.431 1224.92 326.882 1216.98 332.049C1208.36 337.646 1199.13 346.28 1198.07 357.177C1197.65 361.601 1196.77 365.844 1196.39 370.252C1196.32 371.639 1196.24 373.009 1196.24 374.396Z" fill="#325968"/>
<path d="M1320.26 267.051C1321.47 265.549 1323.28 264.773 1325.2 265.037C1326.83 265.268 1328.29 266.407 1328.6 268.091C1328.8 269.098 1328.22 269.957 1327.41 270.518C1327.46 270.997 1327.29 271.443 1326.8 271.822C1325.21 272.995 1322.79 272.202 1321.32 271.228C1319.73 270.155 1318.94 268.686 1320.26 267.051Z" fill="white"/>
<path d="M1289.87 271.327C1291.52 273.325 1294.84 273.771 1297.13 272.631C1300 271.228 1300.52 266.572 1296.9 266.044C1296.16 266.523 1295.41 267.035 1294.67 267.596C1293.04 268.801 1291.44 270.056 1289.87 271.327Z" fill="white"/>
<path d="M1338.34 292.08C1339.54 290.577 1341.36 289.801 1343.28 290.065C1344.91 290.297 1346.36 291.436 1346.68 293.12C1346.88 294.127 1346.3 294.985 1345.49 295.547C1345.54 296.025 1345.37 296.471 1344.88 296.851C1343.29 298.023 1340.87 297.231 1339.4 296.257C1337.79 295.167 1337.02 293.714 1338.34 292.08Z" fill="white"/>
<path d="M1309.78 290.924C1310.97 290.577 1312.3 290.61 1313.46 291.039C1313.89 291.006 1314.32 291.006 1314.71 291.039C1318.59 291.386 1318.12 296.223 1315.19 297.66C1312.35 299.047 1308 298.056 1307.09 294.721C1306.58 292.823 1308.06 291.419 1309.78 290.924Z" fill="white"/>
<path d="M1272.83 289.818C1274.22 288.53 1276.53 288.365 1278.24 289.009C1279.81 289.587 1280.77 290.957 1281.08 292.575C1281.17 293.037 1281.2 293.466 1281.17 293.863C1281.35 294.672 1281.3 295.481 1280.8 296.19C1279.81 297.61 1277.49 297.775 1276.07 296.966C1275.41 296.587 1275.08 295.959 1274.56 295.415C1273.99 294.771 1273.11 294.672 1272.47 294.11C1271.15 292.971 1271.69 290.891 1272.83 289.818Z" fill="white"/>
<path d="M1347.67 320.179C1348.36 318.974 1349.43 318.148 1350.8 317.818C1352.17 317.488 1353.96 317.603 1355.03 318.627C1355.79 319.37 1356.05 320.625 1355.43 321.516C1355.08 322.011 1354.54 322.325 1353.91 322.556C1353.33 323.514 1352.39 324.174 1351.3 324.504C1350.04 324.884 1348.1 324.901 1347.22 323.745C1346.41 322.738 1347.11 321.169 1347.67 320.179Z" fill="white"/>
<path d="M1320.26 319.535C1321.47 318.033 1323.28 317.257 1325.2 317.521C1326.83 317.752 1328.29 318.891 1328.6 320.575C1328.8 321.582 1328.22 322.441 1327.41 323.002C1327.46 323.481 1327.29 323.926 1326.8 324.306C1325.21 325.478 1322.79 324.686 1321.32 323.712C1319.73 322.622 1318.94 321.169 1320.26 319.535Z" fill="white"/>
<path d="M1291.72 318.379C1292.91 318.033 1294.24 318.066 1295.4 318.495C1295.83 318.462 1296.26 318.462 1296.65 318.495C1300.53 318.842 1300.05 323.679 1297.13 325.115C1294.29 326.502 1289.93 325.511 1289.03 322.177C1288.5 320.278 1290 318.875 1291.72 318.379Z" fill="white"/>
<path d="M1254.77 317.273C1256.16 315.985 1258.47 315.82 1260.18 316.464C1261.75 317.042 1262.71 318.412 1263.02 320.03C1263.11 320.492 1263.14 320.922 1263.11 321.318C1263.29 322.127 1263.24 322.936 1262.74 323.646C1261.75 325.066 1259.42 325.231 1258 324.422C1257.34 324.042 1257.01 323.415 1256.5 322.87C1255.92 322.226 1255.05 322.127 1254.41 321.566C1253.07 320.426 1253.61 318.346 1254.77 317.273Z" fill="white"/>
<path d="M1338.34 344.547C1339.54 343.044 1341.36 342.269 1343.28 342.533C1344.91 342.764 1346.36 343.903 1346.68 345.587C1346.88 346.594 1346.3 347.453 1345.49 348.014C1345.54 348.493 1345.37 348.938 1344.88 349.318C1343.29 350.49 1340.87 349.698 1339.4 348.724C1337.79 347.651 1337.02 346.181 1338.34 344.547Z" fill="white"/>
<path d="M1309.78 343.408C1310.97 343.061 1312.3 343.094 1313.46 343.523C1313.89 343.49 1314.32 343.49 1314.71 343.523C1318.59 343.87 1318.12 348.707 1315.19 350.144C1312.35 351.53 1308 350.54 1307.09 347.205C1306.58 345.29 1308.06 343.903 1309.78 343.408Z" fill="white"/>
<path d="M1272.83 342.302C1274.22 341.014 1276.53 340.849 1278.24 341.493C1279.81 342.07 1280.77 343.441 1281.08 345.059C1281.17 345.521 1281.2 345.95 1281.17 346.346C1281.35 347.155 1281.3 347.964 1280.8 348.674C1279.81 350.094 1277.49 350.259 1276.07 349.45C1275.41 349.07 1275.08 348.443 1274.56 347.898C1273.99 347.254 1273.11 347.155 1272.47 346.594C1271.15 345.455 1271.69 343.358 1272.83 342.302Z" fill="white"/>
<path d="M1239.6 345.207C1240.29 344.002 1241.36 343.177 1242.72 342.846C1244.09 342.516 1245.87 342.632 1246.94 343.655C1247.7 344.398 1247.97 345.653 1247.34 346.545C1246.99 347.04 1246.45 347.354 1245.82 347.585C1245.24 348.542 1244.3 349.203 1243.21 349.533C1241.96 349.913 1240.01 349.929 1239.13 348.773C1238.32 347.766 1239.02 346.198 1239.6 345.207Z" fill="white"/>
<path d="M1212.17 344.547C1213.38 343.044 1215.2 342.269 1217.11 342.533C1218.74 342.764 1220.2 343.903 1220.51 345.587C1220.71 346.594 1220.13 347.453 1219.32 348.014C1219.37 348.493 1219.21 348.938 1218.71 349.318C1217.13 350.49 1214.7 349.698 1213.23 348.724C1211.65 347.651 1210.87 346.181 1212.17 344.547Z" fill="white"/>
<path d="M1347.67 372.663C1348.36 371.457 1349.43 370.632 1350.8 370.302C1352.17 369.972 1353.96 370.087 1355.03 371.111C1355.79 371.854 1356.05 373.108 1355.43 374C1355.08 374.495 1354.54 374.809 1353.91 375.04C1353.33 375.998 1352.39 376.658 1351.3 376.988C1350.04 377.368 1348.1 377.384 1347.22 376.229C1346.41 375.205 1347.11 373.653 1347.67 372.663Z" fill="white"/>
<path d="M1320.26 372.002C1321.47 370.5 1323.28 369.724 1325.2 369.988C1326.83 370.219 1328.29 371.358 1328.6 373.042C1328.8 374.049 1328.22 374.908 1327.41 375.469C1327.46 375.948 1327.29 376.394 1326.8 376.774C1325.21 377.946 1322.79 377.153 1321.32 376.179C1319.73 375.106 1318.94 373.637 1320.26 372.002Z" fill="white"/>
<path d="M1291.72 370.863C1292.91 370.516 1294.24 370.549 1295.4 370.979C1295.83 370.946 1296.26 370.946 1296.65 370.979C1300.53 371.325 1300.05 376.163 1297.13 377.599C1294.29 378.986 1289.93 377.995 1289.03 374.66C1288.5 372.745 1290 371.358 1291.72 370.863Z" fill="white"/>
<path d="M1254.77 369.757C1256.16 368.469 1258.47 368.304 1260.18 368.948C1261.75 369.526 1262.71 370.896 1263.02 372.514C1263.11 372.976 1263.14 373.406 1263.11 373.802C1263.29 374.611 1263.24 375.42 1262.74 376.13C1261.75 377.549 1259.42 377.715 1258 376.906C1257.34 376.526 1257.01 375.899 1256.5 375.354C1255.92 374.71 1255.05 374.611 1254.41 374.049C1253.07 372.91 1253.61 370.814 1254.77 369.757Z" fill="white"/>
<path d="M1221.52 372.663C1222.21 371.457 1223.28 370.632 1224.65 370.302C1226.03 369.972 1227.81 370.087 1228.88 371.111C1229.64 371.854 1229.9 373.108 1229.28 374C1228.93 374.495 1228.39 374.809 1227.76 375.04C1227.18 375.998 1226.24 376.658 1225.15 376.988C1223.9 377.368 1221.95 377.384 1221.07 376.229C1220.25 375.205 1220.96 373.653 1221.52 372.663Z" fill="white"/>
<path d="M1196.24 374.396C1196.24 375.189 1196.26 375.998 1196.29 376.774C1197.69 377.401 1199.41 377.665 1200.65 376.757C1201.15 376.394 1201.31 375.932 1201.26 375.453C1202.07 374.875 1202.65 374.033 1202.45 373.026C1202.14 371.342 1200.68 370.203 1199.05 369.972C1198.14 369.84 1197.25 369.955 1196.42 370.269C1196.32 371.639 1196.24 373.009 1196.24 374.396Z" fill="white"/>
<path d="M1339.4 401.191C1340.06 401.637 1340.93 402.05 1341.82 402.248C1343.47 401.439 1345.03 400.498 1346.48 399.392C1346.68 398.995 1346.76 398.55 1346.68 398.071C1346.36 396.387 1344.91 395.248 1343.28 395.017C1341.36 394.736 1339.53 395.528 1338.32 397.031C1337.02 398.665 1337.79 400.118 1339.4 401.191Z" fill="white"/>
<path d="M1309.78 395.875C1310.97 395.528 1312.3 395.561 1313.46 395.991C1313.89 395.958 1314.32 395.958 1314.71 395.991C1318.59 396.337 1318.12 401.175 1315.19 402.611C1312.35 403.998 1308 403.007 1307.09 399.672C1306.58 397.774 1308.06 396.37 1309.78 395.875Z" fill="white"/>
<path d="M1272.83 394.785C1274.22 393.498 1276.53 393.333 1278.24 393.976C1279.81 394.554 1280.77 395.925 1281.08 397.542C1281.17 398.005 1281.2 398.434 1281.17 398.83C1281.35 399.639 1281.3 400.448 1280.8 401.158C1279.81 402.578 1277.49 402.743 1276.07 401.934C1275.41 401.554 1275.08 400.927 1274.56 400.382C1273.99 399.738 1273.11 399.639 1272.47 399.078C1271.15 397.939 1271.69 395.842 1272.83 394.785Z" fill="white"/>
<path d="M1239.6 397.675C1240.29 396.469 1241.36 395.644 1242.72 395.314C1244.09 394.984 1245.87 395.099 1246.94 396.123C1247.7 396.866 1247.97 398.12 1247.34 399.012C1246.99 399.507 1246.45 399.821 1245.82 400.052C1245.24 401.009 1244.3 401.67 1243.21 402C1241.96 402.38 1240.01 402.396 1239.13 401.241C1238.32 400.234 1239.02 398.665 1239.6 397.675Z" fill="white"/>
<path d="M1212.17 397.031C1213.38 395.528 1215.2 394.752 1217.11 395.016C1218.74 395.248 1220.2 396.387 1220.51 398.071C1220.71 399.078 1220.13 399.936 1219.32 400.498C1219.37 400.976 1219.21 401.422 1218.71 401.802C1217.13 402.974 1214.7 402.182 1213.23 401.208C1211.65 400.118 1210.87 398.665 1212.17 397.031Z" fill="white"/>
<path d="M1307.67 401.802C1316.04 400.432 1323.83 396.354 1329.95 390.526C1336.21 384.599 1340.7 376.873 1342.47 368.42C1343.59 363.071 1343.75 357.589 1344.02 352.141C1344.28 346.66 1344.7 341.212 1346.07 335.896C1347.42 330.58 1349.34 325.429 1350.21 319.997C1351.05 314.846 1351.13 309.613 1350.64 304.429C1349.63 293.83 1346.31 283.544 1342.14 273.804C1341.63 272.582 1341.08 271.377 1340.54 270.188C1340.39 269.858 1341.3 269.775 1341.43 270.056C1345.87 279.797 1349.55 290.016 1351.1 300.665C1351.88 305.931 1352.09 311.297 1351.56 316.596C1351.02 322.044 1349.47 327.212 1347.93 332.445C1347.12 335.186 1346.4 337.96 1345.95 340.783C1345.5 343.523 1345.27 346.28 1345.11 349.037C1344.76 354.601 1344.73 360.214 1343.87 365.729C1342.52 374.495 1338.59 382.535 1332.5 388.991C1326.7 395.132 1319.14 399.672 1310.9 401.637C1309.91 401.868 1308.9 402.066 1307.9 402.231C1307.48 402.33 1307.05 401.901 1307.67 401.802Z" fill="#1A3333"/>
<path d="M1224.84 347.618C1231.69 347.221 1238.56 346.875 1245.44 346.957C1248.86 347.007 1252.26 347.155 1255.66 347.469C1259.04 347.766 1262.4 348.179 1265.78 348.394C1269.16 348.608 1272.58 348.641 1275.95 348.163C1279.15 347.7 1282.27 346.809 1285.34 345.785C1288.41 344.762 1291.44 343.606 1294.51 342.566C1297.64 341.493 1300.81 340.552 1304.02 339.693C1310.37 338.009 1316.84 336.754 1323.37 335.945C1324.19 335.846 1325.03 335.747 1325.86 335.665C1326.04 335.648 1326.49 335.632 1326.57 335.863C1326.65 336.094 1326.35 336.21 1326.17 336.226C1319.57 336.936 1313.01 338.092 1306.56 339.693C1303.31 340.502 1300.1 341.427 1296.92 342.467C1293.81 343.474 1290.78 344.613 1287.7 345.686C1284.68 346.743 1281.61 347.717 1278.48 348.344C1275.21 349.005 1271.89 349.203 1268.55 349.12C1265.14 349.021 1261.72 348.658 1258.32 348.328C1254.9 347.981 1251.47 347.717 1248.03 347.618C1241.16 347.403 1234.3 347.684 1227.43 348.063C1226.57 348.113 1225.7 348.163 1224.84 348.212C1224.67 348.229 1224.26 348.146 1224.26 347.915C1224.26 347.667 1224.67 347.634 1224.84 347.618Z" fill="#1A3333"/>
<path d="M1301.57 333.42C1304.53 329.474 1307.8 325.759 1311.35 322.342C1315.06 318.759 1319.12 315.622 1323.27 312.568C1325.56 310.884 1327.86 309.15 1330.43 307.929C1330.66 307.813 1331.01 307.797 1331.24 307.929C1331.44 308.044 1331.46 308.242 1331.24 308.342C1328.96 309.415 1326.93 310.884 1324.92 312.37C1322.79 313.938 1320.64 315.507 1318.58 317.158C1314.76 320.212 1311.2 323.563 1307.93 327.195C1306.08 329.243 1304.33 331.372 1302.7 333.568C1302.55 333.783 1302.23 333.799 1301.99 333.766C1301.85 333.766 1301.41 333.634 1301.57 333.42Z" fill="#1A3333"/>
<path d="M1249.75 323.629C1250.11 322.507 1250.54 321.401 1251.02 320.327C1251.17 319.981 1252.31 320.08 1252.13 320.476C1250.48 324.24 1249.45 328.252 1249.14 332.363C1249.04 333.519 1249.01 334.691 1249.04 335.846C1249.04 336.243 1247.9 336.259 1247.9 335.846C1247.82 331.703 1248.45 327.575 1249.75 323.629Z" fill="#1A3333"/>
<path d="M1207.44 386.333C1208.21 387.885 1209 389.453 1209.78 391.005C1210.52 392.491 1211.28 393.976 1212.24 395.33C1213.89 397.675 1216.07 399.606 1218.45 401.208C1219.8 402.116 1221.22 402.908 1222.67 403.635C1222.89 403.734 1222.87 403.932 1222.67 404.047C1222.44 404.179 1222.1 404.163 1221.87 404.047C1219.24 402.743 1216.7 401.175 1214.5 399.227C1213.41 398.252 1212.41 397.196 1211.53 396.024C1210.54 394.703 1209.75 393.267 1209 391.797C1208.11 390.031 1207.24 388.264 1206.35 386.498C1206.13 386.101 1207.25 385.986 1207.44 386.333Z" fill="#1A3333"/>
<g clip-path="url(#clip0_99_681)">
<path d="M736.541 58.6255C697.913 49.5704 669.79 58.3697 637.671 69.4168C621.84 74.8627 605.808 80.6192 589.125 82.8122C576.668 84.4478 564.091 84.8864 551.588 86.1199C538.59 87.4083 525.601 89.0348 512.842 91.8856C491.355 96.701 453.929 105.573 456.22 134.411C457.137 145.961 465.047 156.46 464.25 168.018C463.223 182.83 449.364 194.307 440.28 204.769C427.74 219.215 416.465 235.251 418.537 255.335C420.205 271.536 430.756 285.772 443.772 295.613C456.788 305.454 472.188 311.567 487.359 317.597C510.467 326.79 530.02 337.544 548.197 354.631C558.729 364.527 569.94 374.332 583.598 379.129C601.94 385.58 625.324 379.969 632.794 360.598C636.864 350.044 638.01 337.755 644.326 328.16C650.834 318.283 664.547 309.968 676.647 311.567C696.355 314.171 704.036 328.745 713.432 344.078C718.015 351.561 723.469 358.46 731.169 362.956C744.387 370.667 757.596 367.661 771.529 364.527C786.581 361.146 801.797 358.414 817.123 356.587C843.119 353.489 869.281 354.878 895.194 358.131C919.797 361.229 955.519 377.347 975.804 355.463C984.696 345.878 986.465 332.747 983.229 320.503C978.591 302.959 968.609 283.469 969.15 265.249C969.947 238.34 982.111 220.43 996.979 199.405C1004.1 189.336 1009.58 178.152 1009.33 165.551C1008.74 136.567 990.507 114.318 971.505 94.3436C952.549 74.4058 933.602 51.6903 914.416 34.0094" stroke="#ED725A" stroke-width="1.75404" stroke-miterlimit="10"/>
<path d="M1012.73 88.2215C1012.73 92.4338 1009.3 95.8421 1005.08 95.8421C1000.86 95.8421 997.437 92.4247 997.437 88.2215C997.437 84.0092 1000.87 80.6009 1005.08 80.6009C1009.31 80.5918 1012.73 84.0092 1012.73 88.2215Z" stroke="#ED725A" stroke-width="1.75404" stroke-miterlimit="10"/>
<path d="M756.698 346.335C756.698 350.547 753.269 353.955 749.053 353.955C744.827 353.955 741.408 350.538 741.408 346.335C741.408 342.122 744.836 338.714 749.053 338.714C753.269 338.705 756.698 342.122 756.698 346.335Z" stroke="#ED725A" stroke-width="1.75404" stroke-miterlimit="10"/>
<path d="M729.986 14.3914C733.158 14.3914 735.734 16.959 735.734 20.1206V133.406C735.734 136.567 733.158 139.135 729.986 139.135H509.404C506.232 139.135 503.656 136.567 503.656 133.406V20.1297C503.656 16.9682 506.232 14.4006 509.404 14.4006H729.986M729.986 13.0208H509.404C505.471 13.0208 502.281 16.2098 502.281 20.1206V133.406C502.281 137.326 505.481 140.506 509.404 140.506H729.986C733.919 140.506 737.109 137.317 737.109 133.406V20.1297C737.109 16.2098 733.91 13.0208 729.986 13.0208Z" fill="white"/>
<path d="M729.986 139.144H509.404C506.232 139.144 503.656 136.577 503.656 133.415V29.6783H735.734V133.415C735.734 136.577 733.158 139.144 729.986 139.144Z" fill="#AFB9E8"/>
<path d="M517.159 22.4872C517.159 24.2964 515.683 25.7675 513.868 25.7675C512.053 25.7675 510.577 24.2964 510.577 22.4872C510.577 20.678 512.053 19.2068 513.868 19.2068C515.683 19.2068 517.159 20.6688 517.159 22.4872Z" stroke="white" stroke-width="1.75404" stroke-miterlimit="10"/>
<path d="M529.909 22.4872C529.909 24.2964 528.434 25.7675 526.619 25.7675C524.804 25.7675 523.328 24.2964 523.328 22.4872C523.328 20.678 524.804 19.2068 526.619 19.2068C528.434 19.2068 529.909 20.6688 529.909 22.4872Z" stroke="white" stroke-width="1.75404" stroke-miterlimit="10"/>
<path d="M503.656 29.6783H735.734" stroke="white" stroke-width="1.75404" stroke-miterlimit="10"/>
<path d="M717.071 123.254C714.733 120.166 710.755 117.333 707.648 119.453C705.035 121.235 704.943 125.255 705.145 128.6C697.748 118.165 688.948 108.899 679.112 101.206C673.777 97.0391 667.654 93.1831 661.109 93.6857C654.564 94.1883 651.164 103.353 652.887 110.243C635.003 86.6408 615.066 69.9011 594.295 55.4183C587.209 50.475 579.344 45.7053 570.929 42.8909C561.983 39.8939 549.636 36.376 541.551 43.3387C538.086 46.3175 536.28 50.8679 535.794 55.4092C535.189 61.0195 536.143 66.9497 537.673 72.359C541.34 85.2976 547.234 97.496 554.063 108.982C560.892 120.477 575.916 139.354 575.916 139.354H724.193C723.047 133.479 720.591 127.896 717.071 123.254Z" fill="#909DF4"/>
<path d="M639.1 116.237C639.1 116.237 610.629 91.6298 598.42 87.454C586.21 83.2782 561.121 89.9851 560.809 89.9851C560.498 89.9851 538.352 139.144 538.352 139.144H629.173L639.1 116.237Z" fill="#EF9748"/>
<path d="M693.183 183.049C695.264 185.206 697.418 187.289 699.645 189.29C701.799 191.218 704.155 192.936 706.263 194.91C706.786 195.394 707.253 195.933 707.73 196.463C709.444 198.4 711.177 200.356 712.432 202.622C712.597 202.923 712.762 203.234 713.01 203.471C713.257 203.709 713.624 203.855 713.954 203.755C714.302 203.654 714.513 203.316 714.66 202.996C715.265 201.635 715.118 200.063 714.742 198.629C714.504 197.706 714.183 196.801 713.917 195.878C713.707 195.12 713.386 194.298 713.505 193.503C719.601 196.043 724.56 200.648 730.124 204.202C731.26 204.933 733.772 205.208 734.194 204.202C734.753 202.878 726.641 196.883 722.919 192.918C725.724 194.343 728.694 195.842 731.224 197.715C732.975 199.012 734.89 200.127 736.98 200.785C738.154 201.16 740.849 201.708 740.299 199.57C740.134 198.939 739.657 198.446 739.189 197.989C735.56 194.471 731.169 191.995 727.356 188.678C731.655 190.368 735.596 193.393 740.216 193.557C740.665 193.576 741.151 193.548 741.509 193.274C742.049 192.854 742.233 192.269 741.875 191.684C741.527 191.099 740.913 190.725 740.335 190.368C736.055 187.755 731.59 184.868 727.301 182.254C729.601 182.876 731.737 184 733.937 184.913C736.146 185.818 738.529 186.522 740.894 186.229C741.655 186.138 742.599 185.644 742.434 184.895C742.352 184.539 742.022 184.292 741.71 184.082C736.504 180.537 731.297 176.982 726.091 173.437C724.633 172.441 723.166 171.445 721.672 170.504C719.867 169.371 717.786 168.53 716.108 167.26C714.797 166.264 713.221 165.533 711.818 164.674C708.353 162.554 704.998 160.261 701.744 157.83" fill="#FFCAA3"/>
<path d="M713.624 193.484C711.983 192.762 710.324 192.105 708.638 191.501" stroke="black" stroke-width="1.16936" stroke-miterlimit="10"/>
<path d="M723.166 192.909C720.939 191.392 718.638 189.994 716.264 188.715" stroke="black" stroke-width="1.16936" stroke-miterlimit="10"/>
<path d="M727.374 188.605C725.55 187.454 723.716 186.293 721.892 185.142" stroke="black" stroke-width="1.16936" stroke-miterlimit="10"/>
<path d="M729.39 183.387C728.034 182.638 726.723 181.807 725.476 180.884" stroke="black" stroke-width="1.16936" stroke-miterlimit="10"/>
<path d="M604.983 88.2216C616.23 91.7486 621.868 92.0684 631.932 98.291C642.621 104.897 669.066 132.675 669.066 132.675C669.066 132.675 704.751 157.757 718.125 167.233L694.09 190.058C667.517 174.223 640.237 155.317 620.098 131.88" fill="#EF9748"/>
<path d="M564.183 134.384C564.183 134.384 575.338 128.426 580.243 127.192C587.044 125.484 595.101 125.009 597.265 125.667C598.273 125.977 602.086 127.531 604.075 129.861C606.193 130.783 607.055 131.249 608.31 131.77C609.566 132.291 610.162 133.771 611.473 134.895C612.793 136.019 614.232 139.153 614.232 139.153C614.232 139.153 604.195 139.19 601.38 139.281C598.557 139.373 595.514 144.736 589.207 146.637" fill="#FFCAA3"/>
<path d="M587.154 83.799C579.418 83.7351 571.883 81.7249 564.164 81.7249C550.14 81.7157 542.092 89.0531 535.272 99.2138C530.111 106.908 525.244 116.383 521.586 124.835C517.315 134.703 512.53 145.687 511.283 156.46C510.715 161.385 511.42 166.474 513.712 170.86C517.938 178.965 527.334 180.381 532.815 180.984C538.297 181.587 547.903 179.751 552.606 176.836C577.355 161.531 593.717 146.198 593.717 146.198L567.089 132.584L554.311 137.563L570.444 107.83" fill="#EF9748"/>
<path d="M569.133 110.252L554.311 137.573" stroke="black" stroke-width="1.16936" stroke-miterlimit="10"/>
<path d="M567.089 132.584C559.453 135.535 551.817 138.495 544.182 141.447C538.966 143.466 533.86 147.45 529.698 151.16" stroke="black" stroke-width="1.16936" stroke-miterlimit="10"/>
<path d="M557.94 136.302L585.532 153.225" stroke="black" stroke-width="1.16936" stroke-miterlimit="10"/>
<path d="M632.097 123.053C628.449 129.075 623.389 139.135 623.389 139.135" stroke="black" stroke-width="1.16936" stroke-miterlimit="10"/>
<path d="M708.381 160.352L681.605 182.574" stroke="black" stroke-width="1.16936" stroke-miterlimit="10"/>
<path d="M603.04 132.693C604.983 133.205 606.954 133.598 608.943 133.854C609.557 133.936 610.199 134.009 610.721 134.347" stroke="black" stroke-width="1.16936" stroke-miterlimit="10"/>
<path d="M604.754 130.372C604.405 130.199 604.048 130.071 603.681 129.934C601.756 129.23 599.785 128.517 597.732 128.572" stroke="black" stroke-width="1.16936" stroke-miterlimit="10"/>
<path d="M598.521 140.378C599.556 139.629 600.84 139.29 602.114 139.163C604.754 138.888 607.586 139.455 610.116 138.468" stroke="black" stroke-width="1.16936" stroke-miterlimit="10"/>
<path d="M499.312 158.369C499.742 168.786 506.406 178.7 515.903 183.059" stroke="black" stroke-width="1.16936" stroke-miterlimit="10"/>
<path d="M491.914 157.912C492.134 164.711 494.948 171.29 499.312 175.21" stroke="black" stroke-width="1.16936" stroke-miterlimit="10"/>
<path d="M642.135 92.0045C650.284 98.8758 657.846 106.432 664.721 114.565" stroke="black" stroke-width="1.16936" stroke-miterlimit="10"/>
<path d="M642.309 83.8539C647.992 88.0571 653.199 92.8999 657.8 98.2544" stroke="black" stroke-width="1.16936" stroke-miterlimit="10"/>
<path d="M576.548 97.6514C572.24 96.1071 568.253 93.8136 564.32 91.4927C562.652 90.5059 560.965 89.5008 559.618 88.1028C558.27 86.7139 557.28 84.8681 557.317 82.9401C557.354 81.1584 558.252 79.4954 559.361 78.0973C562.826 73.7388 568.436 71.4819 573.991 70.9793C579.546 70.4767 585.119 71.5458 590.546 72.8251C598.704 74.7439 607.036 77.2932 613.334 82.8214C615.103 84.3747 616.707 86.1748 617.697 88.3129C619.063 91.2643 619.163 94.6726 618.577 97.8706C617.99 101.069 616.762 104.102 615.543 107.118" fill="#EF9748"/>
<path d="M598.621 65.5151L587.649 68.704L587.897 74.2047L582.342 83.6528C582.342 83.6528 595.477 88.7241 600.409 99.0584C605.79 99.8534 607.944 95.5131 607.944 95.5131L613.233 82.8853" fill="#FFCAA3"/>
<path d="M624.443 76.4891C625.388 71.0706 626.524 65.1953 626.442 60.8824C626.368 57.2275 625.809 51.7085 623.435 48.8394C620.383 45.1479 614.837 45.093 610.171 44.5722C602.517 43.7224 597.228 50.6303 594.964 57.0904C593.222 62.052 593.369 66.8857 594.982 72.0027C597.091 78.6821 604.561 87.655 614.278 86.5585C619.439 85.9737 623.444 82.2365 624.443 76.4891Z" fill="#FFCAA3"/>
<path d="M615.057 64.6471C614.965 65.4511 614.388 66.0542 613.765 65.9811C613.141 65.908 612.72 65.1953 612.811 64.3912C612.903 63.5871 613.48 62.9841 614.104 63.0572C614.718 63.1211 615.149 63.8338 615.057 64.6471Z" fill="black"/>
<path d="M625.644 65.643C625.553 66.4471 624.975 67.0502 624.352 66.9771C623.728 66.904 623.307 66.1913 623.398 65.3872C623.49 64.5831 624.068 63.98 624.691 64.0531C625.314 64.1262 625.736 64.8389 625.644 65.643Z" fill="black"/>
<path d="M620.951 63.8612C620.713 65.7252 620.905 67.6258 620.915 69.5081C620.915 70.6686 620.96 72.7153 619.448 72.9712C618.458 73.1448 616.295 72.5509 616.295 72.5509" stroke="black" stroke-width="1.16936" stroke-miterlimit="10"/>
<path d="M617.138 75.8678L613.169 72.5417C613.169 72.5417 610.254 76.3338 611.757 77.7135C614.186 79.9248 617.138 75.8678 617.138 75.8678Z" fill="white"/>
<path d="M623.573 49.9998C625.324 52.7319 626.286 54.9248 626.359 63.1119C627.194 62.9018 628.046 62.6916 628.798 62.2713C629.549 61.851 630.209 61.184 630.429 60.3524C630.842 58.8082 629.687 57.2914 629.623 55.6924C629.577 54.5411 630.108 53.4446 630.732 52.476C631.218 51.7359 631.777 50.9866 631.896 50.1094C632.061 48.8759 631.282 47.6972 630.356 46.8565C628.284 44.9834 625.507 44.2341 623.124 42.8635C621.969 42.1965 621.354 41.1548 620.291 40.3781C619.081 39.4918 617.789 38.7242 616.441 38.0846C613.315 36.5952 609.896 35.8003 606.441 35.6541C599.749 35.3708 593.14 37.8562 588.474 42.5163C582.305 48.6749 579.83 60.4255 583.699 67.2238C585.88 71.0615 587.878 74.2047 587.878 74.2047C588.126 74.5976 593.461 69.8188 593.791 69.17C594.121 68.5121 594.249 67.772 594.451 67.0684C595.138 64.6562 597.549 64.2541 599.612 63.4957C602.618 62.3992 604.121 59.7311 604.708 56.7158C605.047 54.9797 605.093 53.207 605.139 51.4435C605.13 51.8364 607.559 52.6862 607.926 52.805C611.51 53.9106 615.57 54.1025 619.21 53.1248C620.282 52.8324 621.428 52.4669 622.28 51.7359C622.528 51.5349 623.967 50.3927 623.573 49.9998Z" fill="#1E1611"/>
<path d="M601.161 81.7157C601.353 81.8528 605.166 86.0011 612.454 86.6499" stroke="black" stroke-width="1.16936" stroke-miterlimit="10"/>
<path d="M608.631 58.8996C609.282 57.6295 610.575 56.7249 611.986 56.5331C613.398 56.3503 614.892 56.8986 615.845 57.9585" stroke="black" stroke-width="1.16936" stroke-miterlimit="10"/>
<path d="M622.106 59.0732C622.592 58.0041 623.609 57.3188 624.498 57.465C625.388 57.6204 626.057 58.5981 626.112 59.7494" stroke="black" stroke-width="1.16936" stroke-miterlimit="10"/>
<path d="M618.87 66.7212C617.945 69.4716 615.011 70.9244 612.326 69.9833C609.64 69.033 608.21 66.0451 609.136 63.2947C610.061 60.5444 612.995 59.0915 615.68 60.0327C618.366 60.9738 619.796 63.9709 618.87 66.7212Z" stroke="#572A2F" stroke-width="1.16936" stroke-miterlimit="10"/>
<path d="M628.752 68.0096C628.257 70.8696 626.405 72.9255 624.618 72.6057C622.83 72.2768 621.795 69.7 622.29 66.84C622.785 63.98 624.636 61.9241 626.424 62.2439C628.202 62.5637 629.247 65.1496 628.752 68.0096Z" stroke="#572A2F" stroke-width="1.16936" stroke-miterlimit="10"/>
<path d="M622.757 65.3141L619.136 64.6379" stroke="#572A2F" stroke-width="1.16936" stroke-miterlimit="10"/>
<path d="M609.337 62.7739L598.42 63.6054" stroke="#572A2F" stroke-width="1.16936" stroke-miterlimit="10"/>
<path d="M601.545 65.5699C601.49 62.9292 597.925 60.8642 595.569 61.7048C589.922 63.7242 591.829 73.8027 597.072 74.7713C598.557 75.0454 600.684 74.4606 601.215 72.7885" fill="#FFCAA3"/>
<path d="M595.156 66.2004L600.014 70.5773" stroke="black" stroke-width="1.16936" stroke-miterlimit="10"/>
<path d="M599.052 62.317C600.234 63.0297 601.188 64.1171 601.765 65.3963" stroke="black" stroke-width="1.16936" stroke-miterlimit="10"/>
<path d="M592.342 70.0198C593.066 72.1763 594.551 74.4606 596.907 74.8444C598.539 75.1094 600.409 74.3967 601.078 72.7154" stroke="black" stroke-width="1.16936" stroke-miterlimit="10"/>
<path d="M579.876 55.1807C579.986 51.6354 580.38 48.0627 581.535 44.7001C582.69 41.3467 584.67 38.1943 587.512 36.0653C589.088 34.8866 590.885 34.0368 592.709 33.2967C594.24 32.6662 595.807 32.0997 597.43 31.7616C603.507 30.4732 609.814 32.3921 615.506 34.8774" fill="#FFC36C"/>
<path d="M618.238 35.3525C616.734 33.9088 614.791 32.9768 612.774 32.4651C611.574 32.1545 610.327 31.99 609.08 32.0539C608.439 32.0905 607.797 32.1819 607.155 32.3007C602.746 33.1687 598.777 35.4713 594.955 37.8288C589.849 40.972 584.762 44.362 581.022 49.0404C579.674 50.7308 578.473 52.677 578.354 54.8335C578.29 56.0305 578.556 57.2183 578.95 58.3514C579.61 60.2611 581.168 62.9749 582.47 64.5191C593.69 54.0568 606.294 45.7783 620.841 40.8624C620.768 38.7791 619.741 36.7963 618.238 35.3525Z" fill="#FFC36C"/>
<path d="M580.609 49.5795C580.609 49.5795 590.078 36.4125 607.66 32.0448" stroke="black" stroke-width="1.16936" stroke-miterlimit="10"/>
<path d="M585.532 51.0598C586.916 53.4538 588.337 55.8843 590.408 57.7209" stroke="black" stroke-width="1.16936" stroke-miterlimit="10"/>
<path d="M596.596 41.1639C598.035 44.1793 599.813 47.0484 601.903 49.6891" stroke="black" stroke-width="1.16936" stroke-miterlimit="10"/>
<path d="M608.338 34.8774C610.758 37.3628 612.829 40.1954 614.47 43.2473" stroke="black" stroke-width="1.16936" stroke-miterlimit="10"/>
<path d="M612.389 33.452C614.47 36.0104 616.294 39.044 617.651 41.9954" stroke="black" stroke-width="1.16936" stroke-miterlimit="10"/>
<path d="M580.022 52.54C580.701 56.332 582.928 59.5484 585.77 61.8327" stroke="black" stroke-width="1.16936" stroke-miterlimit="10"/>
<path d="M573.542 80.144C578.904 82.1451 584.322 84.1645 589.098 87.3169C593.873 90.4693 598.704 94.9009 600.409 100.347" stroke="black" stroke-width="1.16936" stroke-miterlimit="10"/>
<path d="M604.121 98.6838C606.56 97.5142 608.549 95.4218 609.575 92.9272" stroke="black" stroke-width="1.16936" stroke-miterlimit="10"/>
<path d="M557.308 82.3736C559.792 96.5731 578.584 93.8593 587.338 98.2635" stroke="black" stroke-width="1.16936" stroke-miterlimit="10"/>
<path d="M618.898 92.6897C618.559 94.636 617.88 96.5822 616.579 98.0808C614.626 100.329 611.592 101.261 608.732 102.092" stroke="black" stroke-width="1.16936" stroke-miterlimit="10"/>
<path d="M611.326 98.6838C612.628 107.611 613.948 117.626 613.535 126.635" stroke="black" stroke-width="1.16936" stroke-miterlimit="10"/>
<path d="M591.417 96.6371C592.773 100.347 592.141 110.407 591.994 119.49" stroke="black" stroke-width="1.16936" stroke-miterlimit="10"/>
<path d="M682.367 356.66H478.284C475.112 356.66 472.537 354.092 472.537 350.931V213.185H688.114V350.931C688.114 354.092 685.538 356.66 682.367 356.66Z" fill="#D4BCDD"/>
<path d="M682.367 194.617C685.538 194.617 688.114 197.185 688.114 200.346V350.931C688.114 354.092 685.538 356.66 682.367 356.66H478.284C475.112 356.66 472.537 354.092 472.537 350.931V200.346C472.537 197.185 475.112 194.617 478.284 194.617H682.367ZM682.367 193.247H478.284C474.352 193.247 471.162 196.436 471.162 200.346V350.931C471.162 354.851 474.361 358.03 478.284 358.03H682.367C686.299 358.03 689.489 354.841 689.489 350.931V200.346C689.489 196.427 686.29 193.247 682.367 193.247Z" fill="white"/>
<path d="M488.945 204.44C488.945 206.642 487.157 208.424 484.948 208.424C482.739 208.424 480.952 206.642 480.952 204.44C480.952 202.238 482.739 200.456 484.948 200.456C487.148 200.456 488.945 202.247 488.945 204.44Z" stroke="white" stroke-width="1.75404" stroke-miterlimit="10"/>
<path d="M500.439 208.424C502.647 208.424 504.436 206.64 504.436 204.44C504.436 202.24 502.647 200.456 500.439 200.456C498.232 200.456 496.443 202.24 496.443 204.44C496.443 206.64 498.232 208.424 500.439 208.424Z" stroke="white" stroke-width="1.75404" stroke-miterlimit="10"/>
<path d="M472.537 213.185H688.114" stroke="white" stroke-width="1.75404" stroke-miterlimit="10"/>
<path d="M667.398 356.66C664.501 349.542 660.559 342.881 655.738 336.969C652.777 333.341 649.34 329.887 645.004 328.288C640.668 326.689 635.251 327.393 632.299 331.029C630.044 333.807 629.613 337.654 629.274 341.263C622.124 333.615 614.892 325.894 606.175 320.22C597.457 314.546 586.879 310.516 576.787 312.718C565.595 315.167 565.595 329.266 565.595 329.266C565.595 329.266 558.729 319.681 558.115 318.776C553.522 312.088 548.334 305.956 542.807 300.072C537.38 294.297 532.219 288.212 526.105 283.168C520.019 278.142 510.128 271.719 501.943 274.761C497.68 276.342 496.507 280.025 497.451 284.273C498.331 288.248 498.798 292.232 500.036 296.143C493.152 288.495 485.314 281.45 476.23 276.689C469.676 273.254 456 267.433 449.199 273.062C447.237 274.688 446.348 277.375 446.284 279.961C445.926 295.787 457.366 312.8 466.587 324.496C476.047 336.494 487.45 347.12 499.266 356.669H667.398V356.66Z" fill="#FFDD99"/>
<path d="M625.974 285.151C624.755 291.876 625.113 298.829 625.149 305.71C625.186 312.581 625.736 317.086 623.243 323.327C620.988 328.964 616.285 330.874 613.829 336.393C612.582 339.207 607.834 356.651 607.834 356.651H544.154C544.154 356.651 542.367 329.22 552.193 305.819C562.011 282.409 574.294 278.215 574.294 278.215L610.52 268.904L625.974 285.151Z" fill="#735D9D"/>
<path d="M709.408 244.233C711.296 241.958 713.936 240.533 716.2 238.687C718.29 236.987 719.848 234.593 721.572 232.538C723.689 230.016 725.33 227.146 727.163 224.424C729.134 221.5 731.655 219.142 734.157 216.684C734.505 216.346 734.863 215.99 735.055 215.542C735.413 214.738 735 213.687 734.075 213.44C732.269 212.956 730.344 213.413 728.593 214.071C727.557 214.464 724.028 215.706 723.808 213.724C723.57 211.485 725.449 208.214 726.164 206.149C727.099 203.453 728.061 200.749 728.822 197.989C729.546 195.367 729.381 190.323 727.979 190.241C726.576 190.158 727.631 190.99 727.273 191.191C727.86 190.423 726.833 188.651 725.999 188.121C725.156 187.591 724.065 189.309 723.817 190.231C724.102 189.327 723.313 187.837 722.635 187.773C721.654 187.682 720.893 188.605 720.307 189.363C719.72 190.122 719.207 190.962 718.382 191.465C718.391 190.816 718.29 190.167 718.097 189.546C717.456 189.19 716.722 189.784 716.264 190.323C706.878 201.37 700.525 215.067 690.121 225.703" fill="#E27769"/>
<path d="M724.028 212.198C724.065 214.921 723.992 217.634 723.817 220.348" stroke="black" stroke-width="1.16936" stroke-miterlimit="10"/>
<path d="M726.971 190.533C726.155 193.101 724.569 195.266 723.377 197.66C721.48 201.461 719.793 205.354 718.033 209.219" stroke="black" stroke-width="1.16936" stroke-miterlimit="10"/>
<path d="M723.744 190.03C723.176 191.227 722.516 192.397 721.792 193.503C721.013 194.7 720.142 195.833 719.308 196.984C716.915 200.282 714.761 203.755 712.864 207.364" stroke="black" stroke-width="1.16936" stroke-miterlimit="10"/>
<path d="M718.052 191.867C717.419 193.21 716.383 194.316 715.412 195.44C712.359 198.958 709.728 202.841 707.602 206.98" stroke="black" stroke-width="1.16936" stroke-miterlimit="10"/>
<path d="M592.242 272.532C603.636 267.78 611.097 262.791 622.381 257.72C632.556 253.151 646.828 249.405 656.856 244.535C670.725 237.792 683.732 230.354 695.126 220.156L715.834 241.894C715.834 241.894 686.565 271.655 676.344 277.457C651.723 291.437 642.749 294.06 617.156 307.4" fill="#735D9D"/>
<path d="M624.856 303.663C625.003 298.528 626.176 293.429 628.293 288.742" stroke="black" stroke-width="1.16936" stroke-miterlimit="10"/>
<path d="M688.215 225.876L708.748 248.857" stroke="black" stroke-width="1.16936" stroke-miterlimit="10"/>
<path d="M588.923 335.543C597.613 335.708 606.257 337.069 613.792 341.629C617.404 343.822 619.42 346.746 620.42 350.812C621.263 354.248 621.538 357.921 621.226 361.439C621.199 361.777 620.942 362.078 620.649 362.151C620.236 362.252 619.42 361.841 619.42 361.841C619.42 361.841 620.163 365.331 619.375 366.062C618.825 366.565 617.798 365.879 617.413 365.459C616.964 364.966 616.34 363.714 616.34 363.714C616.34 363.714 616.863 365.715 616.423 366.062C615.772 366.574 613.893 365.276 613.453 363.961C613.178 364.71 612.738 365.395 612.041 365.212C609.869 364.637 608.173 361.576 606.386 360.059C604.012 358.04 600.831 357.903 597.87 357.948C596.504 357.966 595.138 358.003 593.782 357.866C592.388 357.729 591.133 357.181 589.776 356.907C587.246 356.395 584.606 356.166 582.049 356.011" fill="#E27769"/>
<path d="M604.965 353.581C607.348 354.567 609.878 355.664 611.216 357.702C611.619 358.314 611.894 358.981 612.142 359.657C612.664 361.073 613.059 362.526 613.453 363.979" stroke="black" stroke-width="1.16936" stroke-miterlimit="10"/>
<path d="M608.384 349.286C609.74 350.145 611.07 351.059 612.215 352.183C613.361 353.297 614.333 354.631 614.855 356.148C615.158 357.016 615.304 357.921 615.451 358.825C615.763 360.68 616.084 362.544 616.414 364.399" stroke="black" stroke-width="1.16936" stroke-miterlimit="10"/>
<path d="M613.041 346.335C615.295 348.016 617.065 350.337 618.073 352.959C618.962 355.28 619.265 357.775 619.558 360.242C619.65 361.018 619.741 361.804 619.833 362.581" stroke="black" stroke-width="1.16936" stroke-miterlimit="10"/>
<path d="M579.353 274.195C579.353 274.195 561.378 276.845 554.476 280.792C543.687 286.969 538.948 296.39 532.073 312.38C525.198 328.361 522.411 335.379 522.347 340.679C522.246 348.473 525.766 356.651 540.158 356.651C565.787 356.651 586.036 356.651 586.036 356.651L595.294 335.096L559.591 329.531L569.444 306.541" fill="#735D9D"/>
<path d="M595.303 335.096L559.6 329.522L569.454 306.532" stroke="black" stroke-width="1.16936" stroke-miterlimit="10"/>
<path d="M546.923 332.811C547.198 332.811 552.633 329.44 559.6 329.522" stroke="black" stroke-width="1.16936" stroke-miterlimit="10"/>
<path d="M585.449 333.561L575.66 356.651" stroke="black" stroke-width="1.16936" stroke-miterlimit="10"/>
<path d="M607.229 279.686C607.697 277.256 607.687 274.661 607.293 272.048" stroke="black" stroke-width="1.16936" stroke-miterlimit="10"/>
<path d="M569.188 279.074C571.168 284.008 575.55 288.093 580.334 290.185C586.366 292.817 594.533 293.301 600.299 289.792C602.985 288.157 604.827 286 605.991 283.542" stroke="black" stroke-width="1.16936" stroke-miterlimit="10"/>
<path d="M670.578 288.312C681.312 282.866 691.12 275.62 699.489 266.976" stroke="black" stroke-width="1.16936" stroke-miterlimit="10"/>
<path d="M690.598 283.14C695.805 279.12 700.681 274.688 705.173 269.891" stroke="black" stroke-width="1.16936" stroke-miterlimit="10"/>
<path d="M518.46 327.228C516.187 334.611 515.371 342.433 516.068 350.118" stroke="black" stroke-width="1.16936" stroke-miterlimit="10"/>
<path d="M511.292 328.334C509.862 332.473 509.037 336.832 508.872 341.209" stroke="black" stroke-width="1.16936" stroke-miterlimit="10"/>
<path d="M585.376 252.155L575.54 258.725L577.658 265.734L574.706 276.296C574.514 276.973 574.633 277.685 575.027 278.27C576.631 280.655 581.618 286.576 591.49 286.567C601.931 286.558 601.784 279.65 601.784 279.65L603.682 264.948" fill="#E27769"/>
<path d="M605.148 251.287C602.444 246.262 600.904 243.164 598.062 239.701C595.661 236.768 591.664 232.629 587.897 231.807C583.048 230.747 578.483 234.228 574.358 236.777C567.575 240.953 567.694 249.953 569.985 256.66C571.745 261.814 575.384 263.778 579.968 266.912C585.963 271.015 598.997 272.87 604.598 268.374C608.787 264.994 608.017 256.605 605.148 251.287Z" fill="#E27769"/>
<path d="M590.656 250.84C590.977 251.616 590.757 252.448 590.152 252.695C589.556 252.941 588.813 252.503 588.493 251.726C588.172 250.949 588.392 250.118 588.997 249.871C589.593 249.634 590.335 250.063 590.656 250.84Z" fill="black"/>
<path d="M600.281 245.558C600.601 246.335 600.381 247.166 599.776 247.413C599.181 247.66 598.438 247.221 598.117 246.445C597.796 245.668 598.016 244.836 598.621 244.59C599.217 244.343 599.96 244.772 600.281 245.558Z" fill="black"/>
<path d="M595.129 248.939C596.211 249.899 597.503 250.538 598.805 251.141C599.612 251.516 602.297 252.229 601.702 253.526C601.317 254.367 599.749 255.683 599.749 255.683" stroke="black" stroke-width="1.16936" stroke-miterlimit="10"/>
<path d="M575.458 273.61C575.458 273.61 576.686 270.476 576.979 269.361C577.484 267.47 575.889 267.378 575.339 265.706C575.054 264.838 575.284 263.778 575.485 262.919C575.898 261.074 576.851 259.009 575.999 257.144C575.458 255.966 574.303 255.216 573.368 254.312C572.442 253.407 571.681 252.028 572.24 250.858C572.9 249.469 574.844 249.369 576.035 248.4C577.227 247.431 577.502 245.732 577.429 244.197C577.346 242.671 576.998 241.127 577.264 239.619C577.309 239.345 577.392 239.062 577.575 238.87C578.162 238.267 579.124 238.851 579.858 239.263C581.168 240.003 582.763 239.911 584.138 239.354C584.835 239.071 585.477 238.559 585.724 237.855C585.88 237.417 585.88 236.942 585.953 236.485C586.027 236.028 586.21 235.553 586.604 235.306C586.888 235.132 587.246 235.105 587.585 235.123C588.648 235.169 589.693 235.544 590.546 236.174C591.261 236.704 591.664 237.088 592.562 237.051C593.424 237.015 594.258 236.732 595.12 236.987C596.165 237.289 596.852 238.239 597.467 239.135C599.153 241.583 600.849 244.041 602.536 246.49C603.379 245.275 604.241 244.032 604.653 242.616C605.066 241.2 604.974 239.546 604.039 238.395C603.141 237.289 601.601 236.795 600.831 235.589C599.987 234.255 600.116 232.336 600.024 230.829C599.923 229.184 599.419 227.521 598.475 226.132C597.558 224.789 596.027 223.747 594.405 223.866C593.47 223.939 592.572 224.387 591.627 224.36C591.05 224.341 590.482 224.14 589.95 223.912C587.475 222.852 585.33 221.134 582.864 220.056C580.399 218.978 577.3 218.649 575.174 220.293C574.083 221.134 573.359 222.413 572.167 223.117C568.739 225.145 563.825 221.326 560.562 223.601C558.454 225.072 558.39 228.243 556.621 230.098C554.356 232.464 550.232 231.843 547.656 233.881C545.062 235.937 545.053 240.03 546.611 242.954C547.381 244.398 548.499 245.878 548.169 247.477C547.958 248.473 547.225 249.259 546.602 250.063C545.703 251.214 544.979 252.539 544.796 253.983C544.613 255.427 545.062 256.998 546.18 257.939C546.877 258.524 547.931 258.798 548.453 259.557C549.04 260.407 549.214 261.932 549.324 262.928C549.425 263.806 549.434 264.71 549.709 265.551C550.433 267.853 552.991 269.233 555.42 269.233C556.538 269.233 557.766 269.023 558.692 269.654C559.453 270.174 559.765 271.125 560.232 271.929C561.736 274.533 565.393 275.62 568.088 274.277C569.096 273.775 570.031 272.961 571.168 272.943C572.277 272.925 574.394 273.793 575.458 273.61Z" fill="#2C221D"/>
<path d="M591.27 270.723C594.304 271.472 600.042 271.636 604.396 268.895" stroke="black" stroke-width="1.16936" stroke-miterlimit="10"/>
<path d="M583.075 250.602C583.066 247.568 585.073 244.663 588.355 245.238" stroke="black" stroke-width="1.16936" stroke-miterlimit="10"/>
<path d="M594.368 243.055C594.267 242.196 594.918 241.181 595.899 240.688C596.88 240.195 598.099 240.268 598.777 240.825" stroke="black" stroke-width="1.16936" stroke-miterlimit="10"/>
<path d="M580.775 259.365C579.042 257.254 574.807 257.839 573.432 260.023C570.123 265.268 578.135 272.267 583.029 269.718C584.414 268.996 585.779 267.168 585.129 265.469" fill="#E27769"/>
<path d="M575.98 263.943L582.736 264.418" stroke="black" stroke-width="1.16936" stroke-miterlimit="10"/>
<path d="M576.659 258.296C578.079 258.122 579.555 258.396 580.839 259.082" stroke="black" stroke-width="1.16936" stroke-miterlimit="10"/>
<path d="M576.127 268.85C578.098 270.147 580.774 271.061 582.938 269.873C584.441 269.051 585.504 267.278 584.973 265.478" stroke="black" stroke-width="1.16936" stroke-miterlimit="10"/>
<path d="M596.183 256.185C595.743 257.812 596.284 259.941 598.154 260.279C599.556 260.534 601.069 259.676 601.527 258.323" stroke="black" stroke-width="1.16936" stroke-miterlimit="10"/>
<path d="M970.094 163.769H765.773C762.601 163.769 760.025 161.202 760.025 158.04V57.3554H975.841V158.04C975.841 161.202 973.265 163.769 970.094 163.769Z" fill="#D5D8BC"/>
<path d="M970.094 42.0777C973.265 42.0777 975.841 44.6453 975.841 47.8068V158.04C975.841 161.202 973.265 163.769 970.094 163.769H765.773C762.601 163.769 760.025 161.202 760.025 158.04V47.8068C760.025 44.6453 762.601 42.0777 765.773 42.0777H970.094ZM970.094 40.7071H765.773C761.84 40.7071 758.65 43.896 758.65 47.8068V158.04C758.65 161.96 761.849 165.14 765.773 165.14H970.094C974.026 165.14 977.216 161.951 977.216 158.04V47.8068C977.216 43.8869 974.017 40.7071 970.094 40.7071Z" fill="white"/>
<path d="M770.237 46.884C772.052 46.884 773.527 48.3551 773.527 50.1643C773.527 51.9735 772.052 53.4446 770.237 53.4446C768.422 53.4446 766.946 51.9735 766.946 50.1643C766.946 48.3551 768.412 46.884 770.237 46.884ZM770.237 45.5134C767.661 45.5134 765.571 47.5967 765.571 50.1643C765.571 52.7319 767.661 54.8152 770.237 54.8152C772.812 54.8152 774.902 52.7319 774.902 50.1643C774.893 47.5967 772.803 45.5134 770.237 45.5134Z" fill="white"/>
<path d="M782.987 46.884C784.802 46.884 786.278 48.3551 786.278 50.1643C786.278 51.9735 784.802 53.4446 782.987 53.4446C781.172 53.4446 779.696 51.9735 779.696 50.1643C779.696 48.3551 781.172 46.884 782.987 46.884ZM782.987 45.5134C780.411 45.5134 778.321 47.5967 778.321 50.1643C778.321 52.7319 780.411 54.8152 782.987 54.8152C785.563 54.8152 787.653 52.7319 787.653 50.1643C787.653 47.5967 785.554 45.5134 782.987 45.5134Z" fill="white"/>
<path d="M760.025 57.3554H975.841" stroke="white" stroke-width="1.75404" stroke-miterlimit="10"/>
<path d="M946.371 144.745C942.328 138.02 938.048 131.03 931.411 126.928C924.775 122.825 915.058 122.669 910.099 128.737C905.708 134.119 906.524 141.959 907.578 148.857C902.693 142.635 896.963 137.097 890.611 132.428C885.707 128.828 880.299 125.694 874.35 124.57C868.172 123.4 861.113 124.689 856.044 128.499C849.124 133.698 849.224 141.885 849.912 149.789C841.506 133.918 832.175 118.165 819.241 105.473C815.895 102.193 811.963 99.3417 807.434 98.0899C804.84 97.368 801.907 97.231 799.588 98.5833C796.05 100.639 795.115 105.281 795.014 109.365C794.895 114.291 795.463 119.225 796.7 123.994C794.445 121.573 791.466 119.791 788.212 119.17C780.723 117.744 773.335 123.382 772.913 131.048C772.473 139.016 777.332 146.628 781.053 153.325C782.474 155.875 783.922 158.415 785.526 160.855C785.838 161.33 787.03 163.696 787.754 163.696H957.096C953.512 157.748 949.946 150.685 946.371 144.745Z" fill="#B5AE6B"/>
<mask id="mask0_99_681" style="mask-type:luminance" maskUnits="userSpaceOnUse" x="760" y="42" width="216" height="122">
<path d="M970.094 163.769H765.773C762.601 163.769 760.025 161.202 760.025 158.04V47.8068C760.025 44.6453 762.601 42.0777 765.773 42.0777H970.094C973.265 42.0777 975.841 44.6453 975.841 47.8068V158.04C975.841 161.202 973.265 163.769 970.094 163.769Z" fill="white"/>
</mask>
<g mask="url(#mask0_99_681)">
<path d="M961.193 156.222L904.553 48.017L888.457 47.0759L875.816 57.3554L843.303 80.9208L879.859 187.7L961.193 156.222Z" fill="white"/>
<path d="M854.779 79.3674C857.942 81.9898 862.342 83.0589 866.357 82.1817" stroke="black" stroke-width="1.16936" stroke-miterlimit="10"/>
<path d="M870.316 80.9208C874.276 79.5958 877.787 76.9734 880.189 73.5743C882.59 70.166 883.855 65.9811 883.764 61.8236" stroke="black" stroke-width="1.16936" stroke-miterlimit="10"/>
<path d="M945.738 115.99C935.939 97.3589 906.533 38.6512 898.769 41.5386C889.869 44.8555 879.85 53.4081 879.85 53.4081C879.85 53.4081 884.644 68.7132 885.01 70.166C886.339 75.4566 887.714 80.738 889.126 86.0103C892.637 99.1316 895.772 112.445 900.108 125.328C904.517 138.413 909.402 151.343 914.664 164.108C916.772 169.225 918.468 175.219 922.492 179.23C924.775 181.542 927.955 183.159 931.2 182.867C933.437 182.675 935.49 181.615 937.479 180.573C946.233 176.004 970.625 165.113 970.625 165.113C970.625 165.113 958.095 139.491 945.738 115.99Z" fill="#4C4139"/>
<path d="M895.772 187.591C893.388 178.947 889.309 170.988 886.294 162.582C882.343 151.589 878.832 140.433 874.762 129.486C868.547 112.774 859.729 89.6744 852.983 73.1722C852.983 73.1722 840.608 80.2446 838.115 81.9624C835.621 83.6802 836.162 87.7647 836.162 87.7647C846.007 124.378 875.835 207.519 875.835 207.519C879.364 205.655 888.127 200.758 891.656 198.894C896.303 196.436 897.11 192.452 895.772 187.591Z" fill="#4C4139"/>
<path d="M840.562 80.4182C852.002 97.9346 860.902 112.198 872.828 129.386" stroke="black" stroke-width="1.16936" stroke-miterlimit="10"/>
<path d="M895.378 45.9611C897.752 69.1974 899.2 92.5252 899.713 115.871" stroke="black" stroke-width="1.16936" stroke-miterlimit="10"/>
</g>
<path d="M776.653 170.001C774.27 171.81 771.813 173.537 769.302 175.173C766.873 176.745 764.278 178.079 761.895 179.705C761.308 180.107 760.758 180.564 760.208 181.012C758.21 182.666 756.194 184.329 754.608 186.375C754.397 186.65 754.186 186.933 753.902 187.125C753.618 187.317 753.233 187.408 752.921 187.262C752.6 187.106 752.435 186.741 752.344 186.403C751.959 184.968 752.353 183.433 752.939 182.072C753.315 181.195 753.774 180.354 754.177 179.486C754.507 178.764 754.947 178.006 754.956 177.201C748.54 178.773 742.92 182.556 736.88 185.224C735.642 185.772 733.122 185.654 732.856 184.594C732.507 183.196 741.454 178.526 745.735 175.182C742.746 176.16 739.575 177.183 736.788 178.645C734.854 179.659 732.792 180.464 730.628 180.792C729.409 180.975 726.668 181.112 727.539 179.084C727.796 178.49 728.346 178.07 728.877 177.695C733.012 174.78 737.723 172.998 742.013 170.312C737.503 171.317 733.14 173.702 728.557 173.154C728.107 173.099 727.631 172.998 727.328 172.669C726.861 172.176 726.769 171.564 727.209 171.043C727.649 170.522 728.309 170.239 728.932 169.974C733.571 168.055 738.429 165.889 743.058 163.961C740.684 164.226 738.411 165.003 736.082 165.56C733.763 166.118 731.297 166.447 729.006 165.789C728.263 165.579 727.411 164.948 727.695 164.236C727.832 163.888 728.199 163.706 728.529 163.541C734.221 160.836 739.914 158.132 745.606 155.427C747.201 154.669 748.805 153.91 750.428 153.216C753.957 151.699 757.367 149.972 760.905 148.455C764.618 146.865 768.358 145.33 772.107 143.841" fill="#D16159"/>
<path d="M754.837 177.165C756.569 176.708 758.311 176.306 760.071 175.968" stroke="black" stroke-width="1.16936" stroke-miterlimit="10"/>
<path d="M745.496 175.127C747.925 173.967 750.418 172.943 752.958 172.048" stroke="black" stroke-width="1.16936" stroke-miterlimit="10"/>
<path d="M742.004 170.221C743.984 169.362 745.973 168.503 747.953 167.644" stroke="black" stroke-width="1.16936" stroke-miterlimit="10"/>
<path d="M740.83 164.766C742.288 164.236 743.709 163.614 745.084 162.892" stroke="black" stroke-width="1.16936" stroke-miterlimit="10"/>
<path d="M838.105 81.9624C833.87 84.7767 829.672 87.92 826.986 90.8348C822.669 95.5132 797.314 126.151 797.314 126.151C797.314 126.151 771.337 141.767 756.45 150.392L772.73 176.827C772.73 176.827 802.906 166.008 818.297 155.235C832.285 145.44 859.069 113.34 859.069 113.34" fill="#4C4139"/>
<path d="M848.72 126.151L840.562 100.859" stroke="black" stroke-width="1.16936" stroke-miterlimit="10"/>
<path d="M770.154 142.351L788.212 170.321" stroke="black" stroke-width="1.16936" stroke-miterlimit="10"/>
<path d="M767.936 169.033L782.923 162.116" stroke="black" stroke-width="1.16936" stroke-miterlimit="10"/>
<path d="M777.973 161.768C778.046 162.454 777.551 163.066 776.864 163.148C776.177 163.221 775.562 162.728 775.48 162.042C775.407 161.357 775.902 160.745 776.589 160.663C777.276 160.59 777.891 161.083 777.973 161.768Z" stroke="black" stroke-width="1.16936" stroke-miterlimit="10"/>
<path d="M770.649 165.085C771.343 165.085 771.905 164.525 771.905 163.833C771.905 163.142 771.343 162.582 770.649 162.582C769.956 162.582 769.393 163.142 769.393 163.833C769.393 164.525 769.956 165.085 770.649 165.085Z" stroke="black" stroke-width="1.16936" stroke-miterlimit="10"/>
<path d="M797.14 126.525C797.122 126.361 797.095 126.187 797.076 126.023C800.532 124.99 803.841 123.437 806.838 121.427" stroke="black" stroke-width="1.16936" stroke-miterlimit="10"/>
<path d="M809.359 96.7193C814.272 90.8348 820.276 85.8641 826.986 82.136" stroke="black" stroke-width="1.16936" stroke-miterlimit="10"/>
<path d="M813.319 83.2782C817.967 79.8334 823.045 76.9643 828.398 74.7713" stroke="black" stroke-width="1.16936" stroke-miterlimit="10"/>
<path d="M863.001 35.1607L866.631 45.8697L879.574 58.3514C879.574 58.3514 879.914 65.7801 872.59 73.5652C865.321 81.2863 857.456 76.1054 857.456 76.1054L848.06 62.3353" fill="#D16159"/>
<path d="M832.697 63.0754C831.212 58.324 829.333 48.0627 829.471 44.161C829.59 40.8533 830.589 37.6186 832.77 35.0602C835.585 31.7707 842.194 32.9494 846.419 32.5474C853.358 31.8895 857.685 40.0857 859.647 45.9519C861.15 50.4658 861.865 55.1076 860.325 59.7129C857.832 67.1964 849.829 74.753 841.359 72.7062C836.767 71.6006 834.145 67.6807 832.697 63.0754Z" fill="#D16159"/>
<path d="M869.546 33.8266C868.437 32.6388 866.906 31.7159 866.411 30.1626C866.136 29.3036 865.715 26.7452 865.431 25.8863C863.882 21.1165 859.867 19.5175 855.311 20.3033C854.825 15.7437 849.967 15.296 845.979 15.2503C844.32 15.2321 842.624 15.0676 841.139 14.2818C839.563 13.4411 838.142 12.2533 836.3 12.0797C834.659 11.9243 832.972 12.4634 831.615 13.3589C826.886 16.4565 825.538 22.4506 819.745 24.2598C817.912 24.8355 816.005 24.9999 814.419 26.1969C813.237 27.0924 812.366 28.4264 812.201 29.8884C811.963 31.9809 813.356 33.2601 814.786 34.5302C816.454 36.0196 817.435 37.9111 817.297 40.168C817.215 41.5386 816.848 42.8727 816.628 44.225C816.005 48.081 817.242 51.7177 820.478 54.0568C821.157 54.5503 822.082 55.0071 824.585 55.5462C826.345 55.93 830.919 55.2721 830.919 55.2721C830.919 55.2721 829.791 48.7206 829.81 46.1621C829.828 43.7316 830.57 41.4746 832 39.5375C833.22 37.8836 835.878 37.2989 837.849 37.3902C840.809 37.5273 843.651 39.1537 846.594 38.8065C847.822 38.6603 848.986 38.1486 849.948 37.3811C853.918 39.9396 858.015 43.7042 858.932 48.2911C858.977 48.5196 859.564 51.2425 859.353 51.2882C862.754 50.5755 867.035 50.3014 868.566 46.6007C869.088 45.3215 868.831 43.9783 869.226 42.6899C869.556 41.6208 870.518 40.835 870.967 39.8025C871.82 37.8106 871.031 35.4074 869.546 33.8266Z" fill="#2C221D"/>
<path d="M855.412 47.7337C855.586 44.7824 859.674 42.6259 862.268 43.6676C868.501 46.1712 865.926 57.3737 860.013 58.2235C858.336 58.461 855.98 57.7209 855.467 55.8203" fill="#D16159"/>
<path d="M862.525 48.7206L856.906 53.4081" stroke="black" stroke-width="1.16936" stroke-miterlimit="10"/>
<path d="M858.345 44.2067C856.988 44.9469 855.87 46.1256 855.173 47.5419" stroke="black" stroke-width="1.16936" stroke-miterlimit="10"/>
<path d="M865.513 53.1157C864.606 55.5005 862.846 57.9859 860.197 58.3148C858.354 58.5433 856.301 57.6661 855.623 55.7472" stroke="black" stroke-width="1.16936" stroke-miterlimit="10"/>
<path d="M853.331 70.0656C853.331 70.0656 856.356 68.1467 858.345 63.9252" stroke="black" stroke-width="1.16936" stroke-miterlimit="10"/>
<path d="M837.748 51.7268C838.032 54.3584 838.316 56.9899 838.619 59.6124C838.664 59.9779 838.71 60.3616 838.967 60.6266C839.966 61.6774 842.239 61.1749 843.303 60.5444" stroke="black" stroke-width="1.16936" stroke-miterlimit="10"/>
<path d="M845.787 61.6317L841.222 64.2907C841.222 64.2907 842.991 67.6624 844.751 67.0045C848.051 65.771 845.787 61.6317 845.787 61.6317Z" fill="white"/>
<path d="M840.076 46.0433C840.544 45.0839 841.506 44.4443 842.524 44.1153C844.238 43.5671 846.209 43.8321 847.703 44.8281" stroke="black" stroke-width="1.16936" stroke-miterlimit="10"/>
<path d="M829.416 49.8628C829.581 48.8577 830.158 48.0992 830.827 47.6424C831.964 46.8748 833.43 46.884 834.695 47.6607" stroke="black" stroke-width="1.16936" stroke-miterlimit="10"/>
<path d="M846.108 49.9633C846.337 50.941 845.915 51.8822 845.145 52.0649C844.384 52.2477 843.578 51.5989 843.339 50.6121C843.11 49.6344 843.532 48.6932 844.302 48.5105C845.063 48.3368 845.869 48.9856 846.108 49.9633Z" fill="black"/>
<path d="M835.594 53.0883C835.823 54.066 835.401 55.0071 834.631 55.1899C833.87 55.3726 833.064 54.7239 832.825 53.737C832.596 52.7593 833.018 51.8182 833.788 51.6354C834.549 51.4527 835.355 52.1014 835.594 53.0883Z" fill="black"/>
<path d="M832.816 38.6694C830.855 39.7202 830.002 42.0137 828.673 43.8046C826.528 46.6829 822.816 48.3277 819.232 47.9804" stroke="#635149" stroke-width="1.16936" stroke-miterlimit="10"/>
<path d="M850.279 37.1252C852.057 35.4896 853.331 33.3241 853.89 30.9758" stroke="#635149" stroke-width="1.16936" stroke-miterlimit="10"/>
<path d="M1016.77 278.983H863.148C859.976 278.983 857.401 276.415 857.401 273.254V164.455H1022.53V273.254C1022.52 276.415 1019.94 278.983 1016.77 278.983Z" fill="#F9D4BB"/>
<path d="M1016.77 149.168C1019.94 149.168 1022.52 151.736 1022.52 154.897V273.245C1022.52 276.406 1019.94 278.974 1016.77 278.974H863.148C859.976 278.974 857.401 276.406 857.401 273.245V154.906C857.401 151.745 859.976 149.177 863.148 149.177H1016.77M1016.77 147.797H863.148C859.216 147.797 856.026 150.986 856.026 154.897V273.245C856.026 277.165 859.225 280.344 863.148 280.344H1016.77C1020.7 280.344 1023.89 277.155 1023.89 273.245V154.906C1023.89 150.986 1020.7 147.797 1016.77 147.797Z" fill="white"/>
<path d="M870.894 157.264C870.894 159.073 869.418 160.544 867.603 160.544C865.788 160.544 864.312 159.073 864.312 157.264C864.312 155.455 865.788 153.983 867.603 153.983C869.427 153.983 870.894 155.445 870.894 157.264Z" stroke="white" stroke-width="1.75404" stroke-miterlimit="10"/>
<path d="M883.644 157.264C883.644 159.073 882.168 160.544 880.354 160.544C878.539 160.544 877.063 159.073 877.063 157.264C877.063 155.455 878.539 153.983 880.354 153.983C882.178 153.983 883.644 155.445 883.644 157.264Z" stroke="white" stroke-width="1.75404" stroke-miterlimit="10"/>
<path d="M857.401 164.455H1022.52" stroke="white" stroke-width="1.75404" stroke-miterlimit="10"/>
<path d="M979.957 234.886C976.171 234.228 975.108 244.361 976.923 247.733C971.945 240.633 965.639 229.76 960.661 222.669C955.079 214.71 948.406 204.796 938.332 202.201C929.257 199.862 924.527 207.748 924.38 215.789C924.243 223.491 925.022 231.258 926.452 238.815C928.01 247.057 930.036 256.45 934.537 263.641C929.752 255.993 922.098 253.407 913.536 254.12C909.549 254.449 905.406 255.792 902.894 258.89C898.87 263.842 900.382 272.852 902.096 278.992C905.836 278.992 909.576 278.992 913.325 278.992C933.226 278.992 1012.08 279.029 1012.08 279.029C1012.08 279.029 992.231 237.024 979.957 234.886Z" fill="#EF9748"/>
<path d="M865.605 220.604C849.197 220.851 832.935 217.388 817.242 212.618C801.549 207.848 772.959 197.386 772.959 197.386L764.792 221.956C764.792 221.956 807.058 248.647 863.304 253.206" fill="#E27769"/>
<path d="M900.74 227.283C889.804 218.036 866.118 218.694 859.326 218.959C852.533 219.224 840.433 217.223 840.433 217.223L835.979 254.239C835.979 254.239 861.131 258.442 875.119 259.465" fill="#2C221D"/>
<path d="M869.931 236.156C871.645 240.98 870.866 248.08 870.884 253.206C870.903 257.775 872.516 260.315 873.185 264.829C873.992 270.229 877.072 274.085 880.308 278.974H949.964L946.297 240.478L936.819 226.817L916.799 221.5L871.599 233.351" fill="#2C221D"/>
<path d="M891.802 226.817C891.106 229.266 890.602 232.007 891.023 234.539C891.518 237.508 893.407 239.372 896.102 240.478" stroke="#6D574E" stroke-width="1.16936" stroke-miterlimit="10"/>
<path d="M899.521 241.3C911.868 243.502 924.857 234.712 926.094 223.51" stroke="#6D574E" stroke-width="1.16936" stroke-miterlimit="10"/>
<path d="M992.386 274.542C991.387 271.645 989.499 269.133 987.565 266.748C982.239 260.196 976.281 254.147 969.791 248.738L946.481 269.891L960.909 283.826L944.061 314.262L966.408 320.622C966.408 320.622 983.513 301.799 990.058 291.3C993.266 286.147 994.385 280.317 992.386 274.542Z" fill="#E27769"/>
<path d="M948.515 307.437C948.515 307.437 938.744 321.453 937.754 323.984C936.865 326.26 936.379 329.101 936.031 331.523C935.068 338.202 938.661 345.064 941.366 348.308C941.668 348.674 942.126 348.911 942.576 348.994C943.575 349.176 943.978 348.665 943.96 347.477C944.51 348.217 945.06 348.957 945.601 349.706C945.83 350.017 946.068 350.328 946.389 350.492C947.012 350.803 947.791 350.428 948.268 349.816C948.745 349.213 948.992 348.418 949.221 347.659C949.799 348.5 950.706 349.377 951.568 348.866C952.439 348.354 953.19 346.499 952.989 345.439C953.273 346.371 954.52 346.398 955.198 345.722C955.876 345.046 956.124 343.977 956.325 342.981C956.839 340.468 957.324 337.864 958.553 335.671C959.378 334.2 960.496 332.985 961.477 331.651C964.658 327.283 966.234 321.718 967.261 316.236" fill="#E27769"/>
<path d="M954.932 329.047C954.492 330.015 954.052 330.993 953.612 331.961C953.255 332.747 952.897 333.542 952.613 334.355C951.33 338.001 951.541 342.177 953.191 345.64" stroke="black" stroke-width="1.16936" stroke-miterlimit="10"/>
<path d="M947.571 328.69C946.673 333.104 946.306 338.412 946.948 341.729C947.36 343.877 948.305 345.923 949.46 347.769" stroke="black" stroke-width="1.16936" stroke-miterlimit="10"/>
<path d="M941.137 327.027C941.137 327.027 940.559 330.28 940.431 332.126C940 337.974 940.779 343.621 943.978 347.961" stroke="black" stroke-width="1.16936" stroke-miterlimit="10"/>
<path d="M770.961 222.368C769.201 222.194 767.441 222.029 765.69 221.856C764.113 221.701 762.527 221.545 761.024 221.07C760.016 220.75 759.072 220.284 758.118 219.827C754.213 217.936 752.215 217.36 748.475 215.167C746.33 213.906 744.13 212.718 741.848 211.732C739.611 210.763 737.283 210.242 735.211 208.936C735.028 208.826 734.845 208.698 734.762 208.497C734.698 208.351 734.707 208.177 734.726 208.013C735.202 204.65 742.086 205.418 744.763 206.167C745.569 206.395 746.404 206.66 747.229 206.496C747.284 205.427 746.807 204.403 746.284 203.462C744.744 200.703 742.49 198.51 740.455 196.116C738.575 193.895 736.66 191.684 734.927 189.345C733.305 187.161 731.627 182.391 732.901 181.816C734.176 181.231 733.497 182.391 733.91 182.446C733.085 181.944 733.396 179.924 733.992 179.129C734.588 178.334 736.22 179.541 736.788 180.308C736.192 179.568 736.394 177.896 736.999 177.594C737.879 177.156 738.924 177.75 739.74 178.243C740.555 178.737 741.344 179.34 742.297 179.504C742.059 178.901 741.912 178.261 741.875 177.613C742.343 177.046 743.241 177.338 743.865 177.677C756.615 184.603 767.496 195.092 781.062 201.26" fill="#E27769"/>
<path d="M744.543 200.904C745.973 202.951 746.935 205.409 747.687 208.433" stroke="black" stroke-width="1.16936" stroke-miterlimit="10"/>
<path d="M733.956 181.752C735.651 183.853 737.906 185.306 739.886 187.106C743.03 189.966 746.019 192.991 749.053 195.96" stroke="black" stroke-width="1.16936" stroke-miterlimit="10"/>
<path d="M736.788 180.125C737.759 181.039 738.786 181.889 739.868 182.666C741.032 183.497 742.251 184.246 743.443 185.023C746.871 187.243 750.134 189.701 753.214 192.388" stroke="black" stroke-width="1.16936" stroke-miterlimit="10"/>
<path d="M742.755 179.787C743.828 180.811 745.193 181.478 746.513 182.172C750.638 184.356 754.488 187.033 757.981 190.131" stroke="black" stroke-width="1.16936" stroke-miterlimit="10"/>
<path d="M771.474 223.172C771.474 223.172 764.269 222.194 761.326 221.426" stroke="black" stroke-width="1.16936" stroke-miterlimit="10"/>
<path d="M930.952 225.292C935.911 225.767 940.88 226.233 945.6 228.005C951.568 230.253 956.756 234.475 961.642 238.787C966.748 243.292 971.954 249.433 976.913 254.138L951.458 276.342L933.437 258.835" fill="#2C221D"/>
<path d="M960.908 283.826C960.908 283.826 964.676 279.019 968.489 276.351" stroke="black" stroke-width="1.16936" stroke-miterlimit="10"/>
<path d="M944.052 269.151L970.598 247.733" stroke="#6D574E" stroke-width="1.16936" stroke-miterlimit="10"/>
<path d="M845.713 255.783L849.563 218.438" stroke="#6D574E" stroke-width="1.16936" stroke-miterlimit="10"/>
<path d="M869.931 248.729C869.931 248.729 871.691 256.697 872.177 260.114" stroke="#6D574E" stroke-width="1.16936" stroke-miterlimit="10"/>
<path d="M932.538 258.78C938.057 263.029 951.467 276.351 951.467 276.351" stroke="#6D574E" stroke-width="1.16936" stroke-miterlimit="10"/>
<path d="M904.223 198.802L916.085 203.599L915.388 211.485L921.364 223.007C921.364 223.007 918.449 233.871 905.351 236.576C894.296 238.861 894.543 231.752 894.543 231.752L889.282 216.602" fill="#E27769"/>
<path d="M879.162 204.869C880.913 198.958 881.857 195.33 884.103 191.035C886 187.399 889.309 182.136 893.113 180.436C898.008 178.243 903.609 180.929 908.55 182.72C916.653 185.654 918.523 195.211 917.579 202.804C916.855 208.643 913.435 211.521 909.274 215.853C903.829 221.518 890.437 226.342 883.525 222.815C878.346 220.193 877.301 211.129 879.162 204.869Z" fill="#E27769"/>
<path d="M963.897 240.597C967.087 239.555 968.654 235.809 968.48 233.159C968.196 228.883 966.189 226.671 965.859 224.031C965.648 222.313 966.161 220.568 966.014 218.841C965.776 215.99 963.695 213.504 961.129 212.216C958.562 210.928 955.583 210.699 952.714 210.955C950.523 211.147 948.314 211.613 946.132 211.311C944.308 211.055 942.603 210.261 941.017 209.338C938.212 207.693 935.646 205.564 933.84 202.859C930.769 198.272 930.109 192.507 927.744 187.518C926.553 185.005 924.894 182.72 922.904 180.774C918.083 176.041 913.49 174.287 906.652 174.058C901.968 173.903 895.451 174.524 891.876 178.883C891.876 178.883 884.946 179.056 881.646 182.538C877.723 186.668 878.007 192.644 881.435 197.404C883.204 194.508 884.717 191.447 887.302 189.217C886.999 189.683 887.146 190.341 887.531 190.752C887.916 191.154 888.484 191.337 889.043 191.383C890.528 191.501 891.922 190.77 893.223 190.049C892.783 191.218 892.6 192.488 892.682 193.731C892.701 193.996 892.737 194.27 892.912 194.471C893.113 194.7 893.434 194.764 893.737 194.782C895.781 194.955 897.88 193.978 899.053 192.306C898.494 193.822 898.008 195.723 899.136 196.874C899.933 197.697 901.271 197.751 902.335 197.322C903.398 196.893 904.232 196.07 905.048 195.266C904.654 195.65 905.167 197.834 905.268 198.336C905.479 199.442 905.818 200.511 906.194 201.562C907.349 204.806 908.779 207.967 910.63 210.882C912.546 213.888 915.278 216.172 917.23 219.096C918.468 220.951 919.513 222.989 921.181 224.478C923.225 226.306 926.048 227.686 928.734 228.234C931.448 228.782 934.243 228.535 936.984 228.444C947.095 228.115 954.776 233.168 963.897 240.597Z" fill="#893D33"/>
<path d="M940.275 175.228C939.688 173.793 938.836 172.477 937.745 171.472C933.794 167.845 925.187 168.082 922.244 173.007C920.631 175.712 921.41 179.193 922.638 182.099L925.058 187.39C928.432 189.217 932.694 189.29 936.132 187.591C939.001 186.165 941.026 183.543 941.173 180.299C941.246 178.627 940.935 176.854 940.275 175.228Z" fill="#893D33"/>
<path d="M905.14 205.902C905.965 203.462 909.897 202.567 911.84 204.038C916.515 207.565 911.795 216.401 906.625 215.779C905.158 215.606 903.343 214.445 903.343 212.728" fill="#E27769"/>
<path d="M910.905 208.351L905.094 211.019" stroke="black" stroke-width="1.16936" stroke-miterlimit="10"/>
<path d="M908.412 203.599C907.101 203.919 905.891 204.65 904.984 205.683" stroke="black" stroke-width="1.16936" stroke-miterlimit="10"/>
<path d="M912.418 212.728C911.107 214.528 909.054 216.218 906.753 215.898C905.149 215.679 903.618 214.464 903.49 212.7" stroke="black" stroke-width="1.16936" stroke-miterlimit="10"/>
<path d="M891.977 224.341C891.977 224.341 897.422 224.085 902.94 220.366" stroke="black" stroke-width="1.16936" stroke-miterlimit="10"/>
<path d="M886.248 201.9C885.386 203.398 884.488 204.933 883.104 205.966C882.774 206.213 882.416 206.432 882.141 206.743C881.756 207.19 881.591 207.821 881.71 208.396C881.829 208.972 882.224 209.493 882.755 209.758" stroke="black" stroke-width="1.16936" stroke-miterlimit="10"/>
<path d="M883.8 213.248C884.671 213.97 885.973 214.254 887.008 213.705C888.31 213.011 888.337 211.348 888.383 210.059" stroke="black" stroke-width="1.16936" stroke-miterlimit="10"/>
<path d="M892.609 198.683C893.562 198.482 894.562 198.437 895.506 198.665C896.45 198.884 897.348 199.387 897.953 200.145C898.723 201.114 898.962 202.375 899.172 203.59" stroke="black" stroke-width="1.16936" stroke-miterlimit="10"/>
<path d="M882.003 195.074C882.911 194.425 884.176 194.38 885.184 194.873C886.183 195.357 886.917 196.317 887.237 197.386" stroke="black" stroke-width="1.16936" stroke-miterlimit="10"/>
<path d="M894.204 204.148C893.828 204.924 893.077 205.335 892.517 205.07C891.958 204.805 891.802 203.956 892.178 203.179C892.554 202.402 893.306 201.991 893.865 202.256C894.424 202.53 894.58 203.371 894.204 204.148Z" fill="black"/>
<path d="M883.91 200.776C883.534 201.553 882.783 201.964 882.223 201.699C881.664 201.434 881.508 200.584 881.884 199.807C882.26 199.031 883.012 198.619 883.571 198.884C884.13 199.149 884.286 199.999 883.91 200.776Z" fill="black"/>
<path d="M990.709 306.742C996.291 301.077 1000.25 293.84 1002 286.092" stroke="black" stroke-width="1.16936" stroke-miterlimit="10"/>
<path d="M1003.5 303.59C1005.18 300.264 1006.26 296.636 1006.66 292.936" stroke="black" stroke-width="1.16936" stroke-miterlimit="10"/>
<path d="M894.158 126.105C894.158 126.105 884.616 130.464 878.209 133.36C874.588 134.996 868.51 139.473 866.439 142.881C863.799 147.213 863.111 152.576 863.414 157.008C863.616 159.941 864.954 163.258 866.925 166.447C868.217 168.548 869.601 170.75 870.811 170.467C872.021 170.184 871.581 167.233 871.581 167.233C871.581 167.415 873.011 170.211 873.341 170.431C873.781 170.732 874.304 170.988 874.762 170.75C875.376 170.431 875.798 170.074 876.1 169.444C876.357 168.914 876.375 168.356 876.421 167.763C876.467 167.223 876.421 165.926 876.394 165.378C876.659 165.972 876.916 167.808 877.42 167.708C877.924 167.607 878.749 167.187 879.208 166.639C880.088 165.57 880.555 164.226 881.004 162.911C881.004 163.23 881.014 163.55 881.133 163.852C881.252 164.144 881.509 164.409 881.829 164.427C882.233 164.455 883.864 163.267 884.103 162.947C885.129 161.558 885.514 159.694 886.257 158.132C886.88 156.825 887.485 155.902 888.374 154.769C889.19 153.737 890.437 152.457 891.628 151.836C894.048 150.566 895.542 150.219 898.017 149.058C900.107 148.071 902.151 146.856 903.6 145.02" fill="#D16159"/>
<path d="M880.803 163.477C880.986 161.394 881.243 159.32 881.564 157.255C881.784 155.875 882.031 154.495 882.581 153.216C883.479 151.123 885.12 149.442 886.724 147.816" stroke="black" stroke-width="1.16936" stroke-miterlimit="10"/>
<path d="M876.623 165.844C875.807 162.381 875.899 158.771 875.99 155.208C876.018 154.221 876.045 153.234 876.275 152.275C876.687 150.621 877.686 149.195 878.667 147.807" stroke="black" stroke-width="1.16936" stroke-miterlimit="10"/>
<path d="M871.691 167.927C870.573 164.473 869.455 160.992 869.143 157.373C869.088 156.679 869.051 155.984 869.079 155.29C869.17 152.695 870.014 150.164 871.297 147.907" stroke="black" stroke-width="1.16936" stroke-miterlimit="10"/>
<path d="M902.28 74.5429L919.073 106.113L881.6 131.688L906.258 151.05C906.258 151.05 948.305 137.408 959.754 130.637C968.746 125.328 972.605 111.522 955.28 89.0165C937.956 66.5111 926.003 53.1614 922.446 49.4059C914.801 41.3285 905.708 37.975 897.229 42.2239" fill="#4C4139"/>
<path d="M902.28 74.5429L919.064 106.113L881.6 131.697" stroke="black" stroke-width="1.16936" stroke-miterlimit="10"/>
<path d="M903.242 142.351C903.242 143.037 902.683 143.603 901.987 143.603C901.299 143.603 900.731 143.046 900.731 142.351C900.731 141.666 901.29 141.1 901.987 141.1C902.683 141.1 903.242 141.657 903.242 142.351Z" stroke="black" stroke-width="1.16936" stroke-miterlimit="10"/>
<path d="M909.723 139.711C910.416 139.711 910.979 139.15 910.979 138.459C910.979 137.768 910.416 137.207 909.723 137.207C909.029 137.207 908.467 137.768 908.467 138.459C908.467 139.15 909.029 139.711 909.723 139.711Z" stroke="black" stroke-width="1.16936" stroke-miterlimit="10"/>
<path d="M894.828 142.077C894.965 142.187 910.979 134.137 910.979 134.137" stroke="black" stroke-width="1.16936" stroke-miterlimit="10"/>
<path d="M895.698 122.066C895.854 121.957 924.49 144.873 924.49 144.873" stroke="black" stroke-width="1.16936" stroke-miterlimit="10"/>
<path d="M918.147 106.432C921.658 105.062 925.196 103.591 928.954 103.024C932.969 102.421 937.048 102.631 941.091 102.841" stroke="black" stroke-width="1.16936" stroke-miterlimit="10"/>
<path d="M906.258 151.05L954.785 133.47" stroke="black" stroke-width="1.16936" stroke-miterlimit="10"/>
<path d="M914.746 34.3474C905.048 25.2649 895.139 16.228 883.681 9.49374C862.451 -2.96966 832.825 -1.04167 818.186 8.02262C806.948 14.9853 801.018 23.6567 793.803 34.384C784.765 47.8251 775.287 62.2804 760.401 68.7132C753.141 71.8473 745.157 72.7884 737.402 74.3053C729.638 75.8221 721.7 78.0881 715.751 83.2873C709.802 88.4865 706.419 97.3132 709.628 104.523C712.148 110.179 718.363 113.742 724.578 113.916C730.793 114.089 736.843 111.22 741.316 106.917C752.728 95.9426 758.036 67.0684 736.962 58.7534" stroke="#ED725A" stroke-width="1.75404" stroke-miterlimit="10"/>
<path d="M454.24 230.08C455.578 236.421 458.97 243.173 463.553 248.373C469.52 255.153 481.684 259.538 486.918 249.679C489.347 245.092 490.567 237.682 484.764 234.402C484.352 234.164 483.893 233.963 483.389 233.954C482.271 233.945 481.528 234.913 481.189 235.8C479.64 239.957 482.133 244.453 485.507 247.788C487.074 249.341 488.889 250.785 491.144 251.552C493.399 252.32 496.158 252.311 498.12 251.123C501.181 249.268 501.979 245.165 501.759 242.232" stroke="#8F96DB" stroke-width="1.75404" stroke-miterlimit="10"/>
<path d="M441.425 63.1394C446.824 56.3594 454.084 50.2282 462.251 47.0941C466.669 45.3945 472.444 44.7823 477.082 45.7052C479.402 46.1621 482.097 46.8931 483.517 48.9764C485.011 51.1694 483.27 55.2355 486.221 56.4782C486.982 56.798 487.844 56.7158 488.66 56.597C491.226 56.2132 493.71 55.4457 496.277 55.071C498.844 54.6964 501.566 54.7421 503.876 55.9208C506.186 57.0995 507.937 59.6123 507.598 62.1708C507.46 63.1759 507.029 64.1627 507.213 65.1587C507.524 66.8217 509.413 67.6898 511.108 67.8543C514.61 68.1832 517.938 68.0736 520.907 70.3031C523.089 71.9387 524.345 74.8718 523.227 77.2201" stroke="#FFDD99" stroke-width="1.75404" stroke-miterlimit="10"/>
<path d="M670.056 56.6884C671.413 53.673 672.943 50.6486 675.317 48.3368C677.692 46.025 681.083 44.5174 684.337 45.1478C686.024 45.4768 687.61 46.3448 689.324 46.3083C691.68 46.2626 693.705 44.4534 694.769 42.3518C695.832 40.2502 696.135 37.8653 696.565 35.5536C697.253 31.8621 698.371 28.0883 700.901 25.3014C703.44 22.5237 707.721 21.0343 711.103 22.679" stroke="#FFDD99" stroke-width="1.75404" stroke-miterlimit="10"/>
<path d="M510.341 364.396C511.283 358.792 507.49 353.488 501.868 352.548C496.246 351.609 490.925 355.39 489.983 360.994C489.04 366.598 492.834 371.902 498.456 372.842C504.077 373.781 509.399 370 510.341 364.396Z" stroke="#909DF4" stroke-width="1.75404" stroke-miterlimit="10"/>
<path d="M675.821 20.3947C680.443 20.3947 684.19 16.6596 684.19 12.0522C684.19 7.44481 680.443 3.70978 675.821 3.70978C671.199 3.70978 667.452 7.44481 667.452 12.0522C667.452 16.6596 671.199 20.3947 675.821 20.3947Z" stroke="#8F96DB" stroke-width="1.75404" stroke-miterlimit="10"/>
<path d="M973.65 332.126L979.196 368.557L1001 352.548L973.65 332.126Z" fill="#FFDD99"/>
<path d="M424.696 292.159L439.445 275.483L414.247 276.388L424.696 292.159Z" stroke="#8F96DB" stroke-width="1.75404" stroke-miterlimit="10"/>
<path d="M448.272 333.451C451.573 333.451 454.249 330.784 454.249 327.493C454.249 324.203 451.573 321.536 448.272 321.536C444.972 321.536 442.296 324.203 442.296 327.493C442.296 330.784 444.972 333.451 448.272 333.451Z" fill="#FFDD99"/>
<path d="M461.032 79.0201L446.677 110.252L490.548 103.91L461.032 79.0201Z" fill="#ED725A"/>
<path d="M432.882 156.834C432.882 158.826 431.26 160.443 429.261 160.443C427.263 160.443 425.641 158.826 425.641 156.834C425.641 154.842 427.263 153.225 429.261 153.225C431.26 153.216 432.882 154.833 432.882 156.834Z" fill="#909DF4"/>
<path d="M924.802 14.3914C924.802 16.3833 923.179 18.0006 921.181 18.0006C919.183 18.0006 917.56 16.3833 917.56 14.3914C917.56 12.3994 919.183 10.7821 921.181 10.7821C923.179 10.7821 924.802 12.3994 924.802 14.3914Z" fill="#ED725A"/>
<path d="M991.451 329.86C994.155 328.754 997.648 328.964 1000.1 330.609C1002.26 332.053 1003.39 334.776 1005.99 335.616C1009.81 336.859 1013.18 333.314 1016.86 333.076C1020.05 332.866 1022.62 335.013 1023.85 337.791C1024.92 340.167 1025.13 342.817 1025.31 345.412" stroke="#8F96DB" stroke-width="1.75404" stroke-miterlimit="10"/>
<path d="M963.402 82.0994C964.731 78.8191 968.214 76.5256 971.762 76.617C973.567 76.6627 975.401 77.2566 977.152 76.8089C982.596 75.4017 982.138 65.9628 987.519 64.3272C991.24 63.1942 995.292 66.7943 998.94 65.4237C1002.08 64.2541 1002.85 60.3159 1003.84 57.1178C1006.53 48.4921 1014.48 41.7396 1023.45 40.4603" stroke="#8F96DB" stroke-width="1.75404" stroke-miterlimit="10"/>
<path d="M921.933 271.709C925.104 271.709 927.68 274.277 927.68 277.439V378.9C927.68 382.062 925.104 384.629 921.933 384.629H757.064C753.893 384.629 751.317 382.062 751.317 378.9V277.439C751.317 274.277 753.893 271.709 757.064 271.709H921.933ZM921.933 270.339H757.064C753.132 270.339 749.942 273.528 749.942 277.439V378.9C749.942 382.82 753.141 386 757.064 386H921.933C925.865 386 929.055 382.811 929.055 378.9V277.439C929.055 273.519 925.865 270.339 921.933 270.339Z" fill="white"/>
<path d="M921.933 384.629H757.064C753.893 384.629 751.317 382.062 751.317 378.9V286.987H927.68V378.9C927.68 382.062 925.104 384.629 921.933 384.629Z" fill="#C5B3DD"/>
<path d="M764.819 279.796C764.819 281.605 763.343 283.076 761.528 283.076C759.713 283.076 758.238 281.605 758.238 279.796C758.238 277.987 759.713 276.516 761.528 276.516C763.343 276.516 764.819 277.987 764.819 279.796Z" stroke="white" stroke-width="1.75404" stroke-miterlimit="10"/>
<path d="M777.57 279.796C777.57 281.605 776.094 283.076 774.279 283.076C772.464 283.076 770.988 281.605 770.988 279.796C770.988 277.987 772.464 276.516 774.279 276.516C776.094 276.516 777.57 277.987 777.57 279.796Z" stroke="white" stroke-width="1.75404" stroke-miterlimit="10"/>
<path d="M751.317 286.987H927.68" stroke="white" stroke-width="1.75404" stroke-miterlimit="10"/>
<path d="M902.94 362.681C894.168 352.996 883.975 348.208 878.786 349.377C871.16 351.095 872.544 370.494 872.764 378.288C869.079 374.039 864.514 370.558 859.445 368.127C855.623 366.291 851.278 365.039 847.153 366.044C843.037 367.049 839.407 370.905 839.884 375.108C830.286 360.881 817.041 349.112 801.751 341.254C792.09 336.283 765.818 325.949 761.318 336.676C756.386 348.436 784.371 384.639 784.371 384.639H919.999C919.999 384.629 910.86 371.435 902.94 362.681Z" fill="#A29DCE"/>
<path d="M733.47 259.237C728.492 254.038 723.707 243.987 722.36 238.632C721.177 233.917 720.123 229.093 717.887 224.734C717.282 223.555 714.697 220.851 715.632 219.435C717.52 216.593 722.112 220.339 723.313 222.03C723.744 222.633 725.321 225.191 726.109 225.337C726.897 225.483 727.236 222.432 727.328 221.125C727.695 216.09 727.722 210.599 727.291 205.5C726.851 200.255 727.603 195.65 729.253 195.403C730.931 195.156 730.839 196.143 731.141 196.472C731.407 194.809 732.929 192.836 733.91 193.393C734.505 193.731 734.725 194.471 734.808 195.156C734.89 195.833 735.294 197.121 735.294 197.121C735.294 197.121 736.247 193.585 737.98 195.586C738.86 196.6 740.189 201.973 741.041 203.682C740.959 202.558 740.665 201.927 741.032 200.602C741.234 199.89 741.637 199.296 742.416 199.67C742.874 199.89 743.003 200.347 743.168 200.785C744.039 203.197 746.174 207.072 746.954 209.511C747.76 212.052 748.576 214.601 749.383 217.141C750.904 221.92 752.398 226.955 753.489 231.944C754.498 236.558 758.21 247.934 758.21 247.934" fill="#A04B4B"/>
<path d="M731.105 196.746C731.545 199.478 732.553 202.969 733.103 206.076C733.891 210.526 734.249 214.647 734.927 218.557" stroke="black" stroke-width="1.16936" stroke-miterlimit="10"/>
<path d="M735.542 197.203C736.073 199.542 736.99 202.795 737.595 205.463C738.621 209.922 739.373 213.916 740.253 217.826" stroke="black" stroke-width="1.16936" stroke-miterlimit="10"/>
<path d="M741.041 203.599C742.343 207.857 744.231 212.746 745.725 218.137" stroke="black" stroke-width="1.16936" stroke-miterlimit="10"/>
<path d="M726.613 225.063C726.283 227.311 726.109 229.705 724.606 231.67" stroke="black" stroke-width="1.16936" stroke-miterlimit="10"/>
<path d="M901.986 384.629C900.226 379.933 898.338 374.999 895.689 370.686C893.04 366.382 889.575 362.435 885.148 359.739C883.168 358.524 881.013 357.583 878.878 356.642C873.121 354.111 867.365 351.57 861.608 349.039L833.357 338.056C831.606 336.439 829.864 334.821 828.114 333.204C824.74 330.07 821.376 326.936 818.04 323.765C817.911 323.646 817.783 323.519 817.655 323.4C792.08 299.067 773.069 271.892 756.45 240.167L726.613 253.215C726.613 253.215 739.519 297.057 751.784 315.66C767.981 340.24 786.718 362.608 795.188 369.681C796.7 374.734 798.432 379.732 800.385 384.629H901.986Z" fill="#FCDDD2"/>
<path d="M731.417 268.283L763.426 252.941" stroke="black" stroke-width="1.16936" stroke-miterlimit="10"/>
<path d="M733.021 250.41L743.81 273.747" stroke="black" stroke-width="1.16936" stroke-miterlimit="10"/>
<path d="M743.159 255.317C743.159 256.478 742.215 257.428 741.041 257.428C739.877 257.428 738.924 256.487 738.924 255.317C738.924 254.147 739.868 253.206 741.041 253.206C742.215 253.206 743.159 254.147 743.159 255.317Z" stroke="#D8A798" stroke-width="1.16936" stroke-miterlimit="10"/>
<path d="M858.501 384.008C859.977 382.098 861.443 380.189 862.919 378.279C864.505 376.214 866.1 374.149 867.887 372.267C873.121 366.757 880.179 362.837 887.742 362.024" stroke="#D8A798" stroke-width="1.16936" stroke-miterlimit="10"/>
<path d="M794.299 366.939C794.299 359.319 796.856 351.753 801.256 345.54C806.802 337.709 814.951 332.089 824.805 331.815" stroke="#D8A798" stroke-width="1.16936" stroke-miterlimit="10"/>
<path d="M795.05 369.379C793.639 365.194 792.832 360.488 790.595 356.642" stroke="black" stroke-width="1.16936" stroke-miterlimit="10"/>
<path d="M824.365 334.931L822.504 358.332C822.504 358.332 830.396 366.345 841.24 361.128C852.093 355.911 860.004 345.987 860.004 345.987L856.457 331.486" fill="#A04B4B"/>
<path d="M867.484 305.783C866.384 302.365 864.331 299.24 861.562 296.984C854.908 291.556 847.593 291.702 840.443 295.887C834.237 299.524 825.712 305.262 820.973 310.754C816.087 316.419 812.815 323.473 817.802 330.097C825.831 340.761 848.363 337.152 859.115 328.398C863.487 324.834 867.622 319.05 868.272 313.358C868.566 310.827 868.263 308.232 867.484 305.783Z" fill="#A04B4B"/>
<path d="M839.068 298.866C835.484 300.684 831.57 301.168 827.646 301.625C825.758 301.845 823.265 302.475 823.604 304.942C823.824 306.532 825.208 307.903 826.372 308.871" fill="#A04B4B"/>
<path d="M823.448 323.153C823.448 323.153 824.099 321.691 824.429 320.96C825.052 319.553 823.017 318.603 822.055 318.118C821.349 317.762 820.982 317.451 820.277 317.908C820.093 318.027 819.076 319.014 818.856 318.831C818.847 318.822 816.967 316.638 816.967 316.638C815.51 318.913 814.566 323.235 814.777 325.794C814.988 328.352 815.978 330.902 817.82 332.711C818.553 333.433 819.717 334.474 820.597 335.013C827.995 339.445 837.216 339.107 845.264 335.991C847.749 335.032 850.169 333.743 851.974 331.788C827.335 331.441 823.448 323.153 823.448 323.153Z" fill="#1E1611"/>
<path d="M852.818 321.517C852.708 321.49 852.598 321.472 852.488 321.453C850.847 321.179 849.215 321.426 847.593 320.896C846.291 320.467 845.072 319.663 844.357 318.493C843.514 317.113 844.669 316.309 845.796 315.688C847.464 314.774 849.087 313.742 850.443 312.407C852.671 310.214 853.853 307.071 852.882 304.01C851.828 300.693 848.555 298.747 846.007 296.636C843.559 294.608 840.424 291.455 841.46 287.938C842.496 284.411 845.915 283.122 849.288 283.625C851.103 283.89 852.928 284.401 854.733 284.118C855.65 283.972 856.53 283.634 857.437 283.433C860.224 282.811 863.441 283.698 865.101 286.019C866.301 287.691 866.76 290.057 868.602 290.971C869.491 291.41 870.527 291.401 871.49 291.629C873.451 292.086 875.11 293.575 875.908 295.421C876.705 297.267 876.669 299.423 875.954 301.296C874.67 304.668 872.736 306.359 874.322 310.077C877.998 318.721 879.538 329.33 870.766 335.543C868.456 337.179 865.568 338.02 863.643 340.094C862.442 341.382 861.471 343.228 859.711 343.42C858.528 343.548 857.419 342.817 856.612 341.949C855.888 341.172 855.32 340.267 854.752 339.363C853.973 338.12 853.184 336.813 853.019 335.351C852.79 333.268 853.872 331.294 854.862 329.44C855.787 327.694 857.657 324.076 855.448 322.632C854.715 322.13 853.743 321.718 852.818 321.517Z" fill="#1E1611"/>
<path d="M847.4 302.64C846.85 300.967 845.842 299.304 844.283 300.063C843.898 300.255 843.669 300.675 843.605 301.105C843.541 301.534 843.623 301.963 843.697 302.384C844.063 304.367 844.448 306.404 845.53 308.113C845.75 308.46 846.007 308.798 846.373 308.981C848.812 310.196 847.721 303.59 847.4 302.64Z" fill="#1E1611"/>
<path d="M832 313.952L825.098 312.389C825.098 312.389 824.42 318.283 827.353 318.868C830.286 319.461 832 313.952 832 313.952Z" fill="white"/>
<path d="M824.686 307.035C825.263 307.775 826.033 308.36 826.913 308.698" stroke="black" stroke-width="1.16936" stroke-miterlimit="10"/>
<path d="M832.303 300.977C834.897 300.602 837.408 299.734 839.682 298.445" stroke="black" stroke-width="1.16936" stroke-miterlimit="10"/>
<path d="M851.213 321.755C853.762 319.845 858.372 321.673 859.326 324.515C861.608 331.349 850.618 337.051 845.796 332.811C844.43 331.614 843.404 329.175 844.604 327.429" fill="#A04B4B"/>
<path d="M855.366 328.243L847.593 326.927" stroke="black" stroke-width="1.16936" stroke-miterlimit="10"/>
<path d="M856.154 321.691C854.605 321.106 852.854 321.006 851.213 321.426" stroke="black" stroke-width="1.16936" stroke-miterlimit="10"/>
<path d="M844.778 327.503C843.908 328.983 844.164 330.801 845.117 332.172C846.841 334.675 850.993 334.684 853.505 333.615" stroke="black" stroke-width="1.16936" stroke-miterlimit="10"/>
<path d="M840.177 308.305C839.196 309.017 837.986 309.017 837.473 308.323C836.959 307.619 837.344 306.477 838.334 305.765C839.315 305.052 840.525 305.052 841.038 305.746C841.543 306.45 841.158 307.592 840.177 308.305Z" fill="black"/>
<path d="M863.826 345.22C839.068 348.144 823.906 359.447 823.906 359.447L828.215 379.056C850.361 358.067 871.911 353.325 872.131 353.105L863.826 345.22Z" fill="#FCDDD2"/>
<path d="M823.191 346.929L813.869 352.895C813.869 352.895 812.265 369.58 815.326 378.443L823.915 359.456L823.191 346.929Z" fill="#FCDDD2"/>
<path d="M823.906 359.456L828.215 379.065C850.361 358.076 871.911 353.334 872.131 353.115" stroke="black" stroke-width="1.16936" stroke-miterlimit="10"/>
<path d="M823.191 346.929L813.869 352.895C813.869 352.895 812.265 369.58 815.326 378.443L823.915 359.456" stroke="black" stroke-width="1.16936" stroke-miterlimit="10"/>
<path d="M731.288 293.895C733.791 302.767 737.503 311.293 742.279 319.178" stroke="black" stroke-width="1.16936" stroke-miterlimit="10"/>
<path d="M732.104 309.127C733.671 314.829 735.56 320.448 737.751 325.94" stroke="black" stroke-width="1.16936" stroke-miterlimit="10"/>
<path d="M885.001 321.079C885.138 325.145 883.553 329.138 881.124 332.409C878.694 335.68 875.468 338.275 872.058 340.505" stroke="black" stroke-width="1.16936" stroke-miterlimit="10"/>
<path d="M882.224 340.359C885.634 338.431 888.548 335.626 890.611 332.29" stroke="black" stroke-width="1.16936" stroke-miterlimit="10"/>
</g>
<defs>
<clipPath id="clip0_99_681">
<rect width="613" height="386" fill="white" transform="translate(413)"/>
</clipPath>
</defs>
</svg>
