<svg width="66" height="42" viewBox="0 0 66 42" fill="none" xmlns="http://www.w3.org/2000/svg">
<g id="Frame" clip-path="url(#clip0_243_1053)">
<path id="Vector" d="M2.03955 20.9548C2.03955 10.9268 10.4051 2.79468 20.7255 2.79468C31.0459 2.79468 39.4147 10.9252 39.4147 20.9548C39.4177 23.5504 38.8469 26.1163 37.7409 28.4788C36.6348 30.8413 35.0194 32.9453 33.0039 34.6482" stroke="white" stroke-width="4.13219" stroke-miterlimit="10"/>
<path id="Vector_2" d="M63.9605 20.9538C63.9605 30.9819 55.5949 39.1148 45.2745 39.1148C34.9541 39.1148 26.5894 30.9843 26.5894 20.9538C26.5864 18.3584 27.1573 15.7926 28.2633 13.4302C29.3693 11.0679 30.9847 8.96406 33.0001 7.26123" stroke="white" stroke-width="4.13219" stroke-miterlimit="10"/>
<path id="Vector_3" d="M39.4136 3.70654C41.3056 3.10067 43.2852 2.79283 45.2772 2.79469C55.5952 2.79469 63.9632 10.9252 63.9632 20.9549" stroke="url(#paint0_linear_243_1053)" stroke-width="4.13219" stroke-miterlimit="10" stroke-linecap="round"/>
<path id="Vector_4" d="M26.5892 38.2034C24.6972 38.8094 22.7176 39.1172 20.7255 39.1153C10.4075 39.1153 2.03955 30.9848 2.03955 20.9543" stroke="url(#paint1_linear_243_1053)" stroke-width="4.13219" stroke-miterlimit="10" stroke-linecap="round"/>
<path id="Vector_5" d="M28.1059 38.7199C28.9178 38.7199 29.576 38.0802 29.576 37.2911C29.576 36.502 28.9178 35.8623 28.1059 35.8623C27.2939 35.8623 26.6357 36.502 26.6357 37.2911C26.6357 38.0802 27.2939 38.7199 28.1059 38.7199Z" fill="white"/>
<path id="Vector_6" d="M37.5336 5.73091C38.3455 5.73091 39.0037 5.09121 39.0037 4.3021C39.0037 3.51299 38.3455 2.87329 37.5336 2.87329C36.7217 2.87329 36.0635 3.51299 36.0635 4.3021C36.0635 5.09121 36.7217 5.73091 37.5336 5.73091Z" fill="white"/>
<path id="Vector_7" d="M29.8959 7.44702C29.8959 7.44702 32.6274 9.42465 33.0098 10.0271C32.6842 10.3381 32.4402 10.6778 32.0979 11.0696C31.674 11.5508 31.3285 12.1789 30.8934 12.7798L27.8403 10.0489C28.1179 9.6602 28.449 9.14169 28.7898 8.74135C29.1537 8.29047 29.5216 7.83726 29.8959 7.44702Z" fill="url(#paint2_linear_243_1053)"/>
<path id="Vector_8" d="M36.1153 34.458C36.1153 34.458 33.3838 32.4803 33.0015 31.8779C33.327 31.5669 33.5709 31.228 33.9133 30.8362C34.3364 30.355 34.6827 29.7269 35.1179 29.126L38.1709 31.8569C37.8933 32.2456 37.5614 32.7649 37.2214 33.1644C36.8559 33.6122 36.4896 34.0693 36.1153 34.458Z" fill="url(#paint3_linear_243_1053)"/>
</g>
<defs>
<linearGradient id="paint0_linear_243_1053" x1="41.118" y1="-1.05097" x2="65.7" y2="22.0421" gradientUnits="userSpaceOnUse">
<stop stop-color="white" stop-opacity="0"/>
<stop stop-color="white" stop-opacity="0"/>
<stop offset="0.0001" stop-color="#222250" stop-opacity="0"/>
<stop offset="1" stop-color="white"/>
</linearGradient>
<linearGradient id="paint1_linear_243_1053" x1="24.8815" y1="42.9609" x2="0.298721" y2="19.8679" gradientUnits="userSpaceOnUse">
<stop stop-color="white" stop-opacity="0"/>
<stop offset="1" stop-color="white"/>
</linearGradient>
<linearGradient id="paint2_linear_243_1053" x1="32.7762" y1="7.06145" x2="29.7405" y2="11.1113" gradientUnits="userSpaceOnUse">
<stop stop-color="#231F20"/>
<stop offset="1" stop-color="#231F20" stop-opacity="0"/>
</linearGradient>
<linearGradient id="paint3_linear_243_1053" x1="33.235" y1="34.8412" x2="36.2708" y2="30.7922" gradientUnits="userSpaceOnUse">
<stop stop-color="#231F20"/>
<stop offset="1" stop-color="#231F20" stop-opacity="0"/>
</linearGradient>
<clipPath id="clip0_243_1053">
<rect width="66" height="40.2857" fill="white" transform="translate(0 0.811768)"/>
</clipPath>
</defs>
</svg>
