<svg width="834" height="526" viewBox="0 0 834 526" fill="none" xmlns="http://www.w3.org/2000/svg">
<path d="M960 395.249H-484V525.209H960V395.249Z" fill="#6552C4"/>
<path d="M960 405.357H927.558L920.41 395.249H918.629L925.777 405.357H841.424L835.166 395.249H833.482L839.739 405.357H755.313L749.97 395.249H748.334L753.677 405.357H669.203L664.75 395.249H663.186L667.638 405.357H613.657V395.249H612.598V405.357H583.092H581.576H497.005H495.513H410.895H409.427H324.809H323.365H238.722H237.278H152.636H151.192H117.883V395.249H116.824V405.357H66.5732L68.3541 395.249H66.886L65.1051 405.357H-19.5133L-16.8419 395.249H-18.334L-21.0054 405.357H-105.576L-101.99 395.249H-103.53L-107.092 405.357H-191.638L-187.186 395.249H-188.75L-193.202 405.357H-277.676L-272.334 395.249H-273.97L-279.313 405.357H-363.739L-357.482 395.249H-359.166L-365.424 405.357H-449.777L-442.629 395.249H-444.41L-451.558 405.357H-484V406.801H-452.569L-480.462 446.27H-484V447.714H-481.473L-484 451.3V453.779L-479.716 447.714H-391.608L-429.393 508.843H-484V510.287H-430.283L-439.501 525.209H-437.816L-428.599 510.287H-334.907L-342.825 525.209H-341.164L-333.27 510.287H-239.531L-246.125 525.209H-244.561L-237.966 510.287H-144.155L-149.425 525.209H-147.909L-142.638 510.287H-48.8025L-52.7494 525.209H-51.2573L-47.3103 510.287H46.5738L43.9264 525.209H45.4185L48.0418 510.287H141.926L140.602 525.209H142.046L143.37 510.287H237.278V525.209H238.722V510.287H332.63L333.954 525.209H335.398L334.074 510.287H427.958L430.606 525.209H432.074L429.426 510.287H523.31L527.257 525.209H528.749L524.803 510.287H618.638L623.909 525.209H625.425L620.155 510.287H713.966L720.561 525.209H722.125L715.531 510.287H809.271L817.188 525.209H818.825L810.907 510.287H904.599L913.816 525.209H915.501L906.283 510.287H960V508.843H905.393L867.608 447.714H955.716L960 453.779V451.3L957.473 447.714H960V446.27H956.462L928.569 406.801H960V405.357ZM66.3084 406.801H151.071L147.582 446.27H59.3291L66.3084 406.801ZM-19.8743 406.801H64.8403L57.8851 446.27H-30.3433L-19.8743 406.801ZM-106.081 406.801H-21.3905L-31.8354 446.27H-120.016L-106.081 406.801ZM-192.264 406.801H-107.597L-121.556 446.27H-209.688L-192.264 406.801ZM-278.447 406.801H-193.852L-211.277 446.27H-299.361L-278.447 406.801ZM-364.629 406.801H-280.083L-300.997 446.27H-389.033L-364.629 406.801ZM-478.681 446.27L-450.812 406.801H-366.338L-390.718 446.27H-478.681ZM-334.137 508.843H-427.708L-389.923 447.714H-301.767L-334.137 508.843ZM-238.905 508.843H-332.524L-300.131 447.714H-211.902L-238.905 508.843ZM-143.649 508.843H-237.317L-210.338 447.714H-122.061L-143.649 508.843ZM-48.4174 508.843H-142.133L-120.521 447.714H-32.2205L-48.4174 508.843ZM46.8144 508.843H-46.9253L-30.7284 447.714H57.6204L46.8144 508.843ZM142.046 508.843H48.2825L59.0884 447.714H147.461L142.046 508.843ZM237.278 508.843H143.514L148.905 447.714H237.278V508.843ZM237.278 446.27H149.026L152.515 406.801H237.278V446.27ZM840.629 406.801L865.033 446.27H776.997L756.083 406.801H840.629ZM754.447 406.801L775.361 446.27H687.277L669.852 406.801H754.447ZM668.264 406.801L685.688 446.27H597.556L583.621 406.801H668.264ZM582.081 406.801L596.016 446.27H507.836L497.391 406.801H582.081ZM495.874 406.801L506.343 446.27H418.115L411.16 406.801H495.874ZM409.692 406.801L416.647 446.27H328.419L324.929 406.801H409.692ZM238.722 406.801H323.485L326.974 446.27H238.722V406.801ZM238.722 508.843V447.714H327.095L332.486 508.843H238.722ZM333.954 508.843L328.539 447.714H416.912L427.718 508.843H333.954ZM429.186 508.843L418.38 447.714H506.728L522.925 508.843H429.186ZM524.417 508.843L508.221 447.714H596.521L618.133 508.843H524.417ZM619.649 508.843L598.061 447.714H686.338L713.317 508.843H619.649ZM714.905 508.843L687.902 447.714H776.131L808.524 508.843H714.905ZM903.708 508.843H810.137L777.767 447.714H865.923L903.708 508.843ZM954.681 446.27H866.718L842.338 406.801H926.812L954.681 446.27Z" fill="#F7BFC9" fill-opacity="0.13"/>
<g clip-path="url(#clip0_111_2730)">
<path d="M435.96 64.16C393.82 54.25 363.14 63.88 328.1 75.97C310.83 81.93 293.34 88.23 275.14 90.63C261.55 92.42 247.83 92.9 234.19 94.25C220.01 95.66 205.84 97.44 191.92 100.56C168.48 105.83 127.65 115.54 130.15 147.1C131.15 159.74 139.78 171.23 138.91 183.88C137.79 200.09 122.67 212.65 112.76 224.1C99.0801 239.91 86.7801 257.46 89.0401 279.44C90.8601 297.17 102.37 312.75 116.57 323.52C130.77 334.29 147.57 340.98 164.12 347.58C189.33 357.64 210.66 369.41 230.49 388.11C241.98 398.94 254.21 409.67 269.11 414.92C289.12 421.98 314.63 415.84 322.78 394.64C327.22 383.09 328.47 369.64 335.36 359.14C342.46 348.33 357.42 339.23 370.62 340.98C392.12 343.83 400.5 359.78 410.75 376.56C415.75 384.75 421.7 392.3 430.1 397.22C444.52 405.66 458.93 402.37 474.13 398.94C490.55 395.24 507.15 392.25 523.87 390.25C552.23 386.86 580.77 388.38 609.04 391.94C635.88 395.33 674.85 412.97 696.98 389.02C706.68 378.53 708.61 364.16 705.08 350.76C700.02 331.56 689.13 310.23 689.72 290.29C690.59 260.84 703.86 241.24 720.08 218.23C727.85 207.21 733.83 194.97 733.55 181.18C732.91 149.46 713.02 125.11 692.29 103.25C671.61 81.43 650.94 56.57 630.01 37.22" stroke="#ED725A" stroke-width="1.5" stroke-miterlimit="10"/>
<path d="M737.26 96.55C737.26 101.16 733.52 104.89 728.92 104.89C724.31 104.89 720.58 101.15 720.58 96.55C720.58 91.94 724.32 88.21 728.92 88.21C733.53 88.2 737.26 91.94 737.26 96.55Z" stroke="#ED725A" stroke-width="1.5" stroke-miterlimit="10"/>
<path d="M457.95 379.03C457.95 383.64 454.21 387.37 449.61 387.37C445 387.37 441.27 383.63 441.27 379.03C441.27 374.42 445.01 370.69 449.61 370.69C454.21 370.68 457.95 374.42 457.95 379.03Z" stroke="#ED725A" stroke-width="1.5" stroke-miterlimit="10"/>
<path d="M428.81 15.75C432.27 15.75 435.08 18.56 435.08 22.02V146C435.08 149.46 432.27 152.27 428.81 152.27H188.17C184.71 152.27 181.9 149.46 181.9 146V22.03C181.9 18.57 184.71 15.76 188.17 15.76H428.81M428.81 14.25H188.17C183.88 14.25 180.4 17.74 180.4 22.02V146C180.4 150.29 183.89 153.77 188.17 153.77H428.81C433.1 153.77 436.58 150.28 436.58 146V22.03C436.58 17.74 433.09 14.25 428.81 14.25Z" fill="white"/>
<path d="M428.81 152.28H188.17C184.71 152.28 181.9 149.47 181.9 146.01V32.48H435.08V146.01C435.08 149.47 432.27 152.28 428.81 152.28Z" fill="#AFB9E8"/>
<path d="M196.63 24.61C196.63 26.59 195.02 28.2 193.04 28.2C191.06 28.2 189.45 26.59 189.45 24.61C189.45 22.63 191.06 21.02 193.04 21.02C195.02 21.02 196.63 22.62 196.63 24.61Z" stroke="white" stroke-width="1.5" stroke-miterlimit="10"/>
<path d="M210.54 24.61C210.54 26.59 208.93 28.2 206.95 28.2C204.97 28.2 203.36 26.59 203.36 24.61C203.36 22.63 204.97 21.02 206.95 21.02C208.93 21.02 210.54 22.62 210.54 24.61Z" stroke="white" stroke-width="1.5" stroke-miterlimit="10"/>
<path d="M181.9 32.48H435.08" stroke="white" stroke-width="1.5" stroke-miterlimit="10"/>
<path d="M414.72 134.89C412.17 131.51 407.83 128.41 404.44 130.73C401.59 132.68 401.49 137.08 401.71 140.74C393.64 129.32 384.04 119.18 373.31 110.76C367.49 106.2 360.81 101.98 353.67 102.53C346.53 103.08 342.82 113.11 344.7 120.65C325.19 94.82 303.44 76.5 280.78 60.65C273.05 55.24 264.47 50.02 255.29 46.94C245.53 43.66 232.06 39.81 223.24 47.43C219.46 50.69 217.49 55.67 216.96 60.64C216.3 66.78 217.34 73.27 219.01 79.19C223.01 93.35 229.44 106.7 236.89 119.27C244.34 131.85 260.73 152.51 260.73 152.51H422.49C421.24 146.08 418.56 139.97 414.72 134.89Z" fill="#909DF4"/>
<path d="M329.66 127.21C329.66 127.21 298.6 100.28 285.28 95.71C271.96 91.14 244.59 98.48 244.25 98.48C243.91 98.48 219.75 152.28 219.75 152.28H318.83L329.66 127.21Z" fill="#EF9748"/>
<path d="M388.66 200.33C390.93 202.69 393.28 204.97 395.71 207.16C398.06 209.27 400.63 211.15 402.93 213.31C403.5 213.84 404.01 214.43 404.53 215.01C406.4 217.13 408.29 219.27 409.66 221.75C409.84 222.08 410.02 222.42 410.29 222.68C410.56 222.94 410.96 223.1 411.32 222.99C411.7 222.88 411.93 222.51 412.09 222.16C412.75 220.67 412.59 218.95 412.18 217.38C411.92 216.37 411.57 215.38 411.28 214.37C411.05 213.54 410.7 212.64 410.83 211.77C417.48 214.55 422.89 219.59 428.96 223.48C430.2 224.28 432.94 224.58 433.4 223.48C434.01 222.03 425.16 215.47 421.1 211.13C424.16 212.69 427.4 214.33 430.16 216.38C432.07 217.8 434.16 219.02 436.44 219.74C437.72 220.15 440.66 220.75 440.06 218.41C439.88 217.72 439.36 217.18 438.85 216.68C434.89 212.83 430.1 210.12 425.94 206.49C430.63 208.34 434.93 211.65 439.97 211.83C440.46 211.85 440.99 211.82 441.38 211.52C441.97 211.06 442.17 210.42 441.78 209.78C441.4 209.14 440.73 208.73 440.1 208.34C435.43 205.48 430.56 202.32 425.88 199.46C428.39 200.14 430.72 201.37 433.12 202.37C435.53 203.36 438.13 204.13 440.71 203.81C441.54 203.71 442.57 203.17 442.39 202.35C442.3 201.96 441.94 201.69 441.6 201.46C435.92 197.58 430.24 193.69 424.56 189.81C422.97 188.72 421.37 187.63 419.74 186.6C417.77 185.36 415.5 184.44 413.67 183.05C412.24 181.96 410.52 181.16 408.99 180.22C405.21 177.9 401.55 175.39 398 172.73" fill="#FFCAA3"/>
<path d="M410.96 211.75C409.17 210.96 407.36 210.24 405.52 209.58" stroke="black" stroke-miterlimit="10"/>
<path d="M421.37 211.12C418.94 209.46 416.43 207.93 413.84 206.53" stroke="black" stroke-miterlimit="10"/>
<path d="M425.96 206.41C423.97 205.15 421.97 203.88 419.98 202.62" stroke="black" stroke-miterlimit="10"/>
<path d="M428.16 200.7C426.68 199.88 425.25 198.97 423.89 197.96" stroke="black" stroke-miterlimit="10"/>
<path d="M292.44 96.55C304.71 100.41 310.86 100.76 321.84 107.57C333.5 114.8 362.35 145.2 362.35 145.2C362.35 145.2 401.28 172.65 415.87 183.02L389.65 208C360.66 190.67 330.9 169.98 308.93 144.33" fill="#EF9748"/>
<path d="M247.93 147.07C247.93 147.07 260.1 140.55 265.45 139.2C272.87 137.33 281.66 136.81 284.02 137.53C285.12 137.87 289.28 139.57 291.45 142.12C293.76 143.13 294.7 143.64 296.07 144.21C297.44 144.78 298.09 146.4 299.52 147.63C300.96 148.86 302.53 152.29 302.53 152.29C302.53 152.29 291.58 152.33 288.51 152.43C285.43 152.53 282.11 158.4 275.23 160.48" fill="#FFCAA3"/>
<path d="M272.99 91.71C264.55 91.64 256.33 89.44 247.91 89.44C232.61 89.43 223.83 97.46 216.39 108.58C210.76 117 205.45 127.37 201.46 136.62C196.8 147.42 191.58 159.44 190.22 171.23C189.6 176.62 190.37 182.19 192.87 186.99C197.48 195.86 207.73 197.41 213.71 198.07C219.69 198.73 230.17 196.72 235.3 193.53C262.3 176.78 280.15 160 280.15 160L251.1 145.1L237.16 150.55L254.76 118.01" fill="#EF9748"/>
<path d="M253.33 120.66L237.16 150.56" stroke="black" stroke-miterlimit="10"/>
<path d="M251.1 145.1C242.77 148.33 234.44 151.57 226.11 154.8C220.42 157.01 214.85 161.37 210.31 165.43" stroke="black" stroke-miterlimit="10"/>
<path d="M241.12 149.17L271.22 167.69" stroke="black" stroke-miterlimit="10"/>
<path d="M322.02 134.67C318.04 141.26 312.52 152.27 312.52 152.27" stroke="black" stroke-miterlimit="10"/>
<path d="M405.24 175.49L376.03 199.81" stroke="black" stroke-miterlimit="10"/>
<path d="M290.32 145.22C292.44 145.78 294.59 146.21 296.76 146.49C297.43 146.58 298.13 146.66 298.7 147.03" stroke="black" stroke-miterlimit="10"/>
<path d="M292.19 142.68C291.81 142.49 291.42 142.35 291.02 142.2C288.92 141.43 286.77 140.65 284.53 140.71" stroke="black" stroke-miterlimit="10"/>
<path d="M285.39 153.63C286.52 152.81 287.92 152.44 289.31 152.3C292.19 152 295.28 152.62 298.04 151.54" stroke="black" stroke-miterlimit="10"/>
<path d="M177.16 173.32C177.63 184.72 184.9 195.57 195.26 200.34" stroke="black" stroke-miterlimit="10"/>
<path d="M169.09 172.82C169.33 180.26 172.4 187.46 177.16 191.75" stroke="black" stroke-miterlimit="10"/>
<path d="M332.97 100.69C341.86 108.21 350.11 116.48 357.61 125.38" stroke="black" stroke-miterlimit="10"/>
<path d="M333.16 91.77C339.36 96.37 345.04 101.67 350.06 107.53" stroke="black" stroke-miterlimit="10"/>
<path d="M261.42 106.87C256.72 105.18 252.37 102.67 248.08 100.13C246.26 99.05 244.42 97.95 242.95 96.42C241.48 94.9 240.4 92.88 240.44 90.77C240.48 88.82 241.46 87 242.67 85.47C246.45 80.7 252.57 78.23 258.63 77.68C264.69 77.13 270.77 78.3 276.69 79.7C285.59 81.8 294.68 84.59 301.55 90.64C303.48 92.34 305.23 94.31 306.31 96.65C307.8 99.88 307.91 103.61 307.27 107.11C306.63 110.61 305.29 113.93 303.96 117.23" fill="#EF9748"/>
<path d="M285.5 71.7L273.53 75.19L273.8 81.21L267.74 91.55C267.74 91.55 282.07 97.1 287.45 108.41C293.32 109.28 295.67 104.53 295.67 104.53L301.44 90.71" fill="#FFCAA3"/>
<path d="M313.67 83.71C314.7 77.78 315.94 71.35 315.85 66.63C315.77 62.63 315.16 56.59 312.57 53.45C309.24 49.41 303.19 49.35 298.1 48.78C289.75 47.85 283.98 55.41 281.51 62.48C279.61 67.91 279.77 73.2 281.53 78.8C283.83 86.11 291.98 95.93 302.58 94.73C308.21 94.09 312.58 90 313.67 83.71Z" fill="#FFCAA3"/>
<path d="M303.43 70.75C303.33 71.63 302.7 72.29 302.02 72.21C301.34 72.13 300.88 71.35 300.98 70.47C301.08 69.59 301.71 68.9301 302.39 69.0101C303.06 69.0801 303.53 69.86 303.43 70.75Z" fill="black"/>
<path d="M314.98 71.84C314.88 72.72 314.25 73.38 313.57 73.3C312.89 73.22 312.43 72.44 312.53 71.56C312.63 70.68 313.26 70.02 313.94 70.1C314.62 70.18 315.08 70.96 314.98 71.84Z" fill="black"/>
<path d="M309.86 69.89C309.6 71.93 309.81 74.01 309.82 76.07C309.82 77.34 309.87 79.58 308.22 79.86C307.14 80.05 304.78 79.4 304.78 79.4" stroke="black" stroke-miterlimit="10"/>
<path d="M305.7 83.03L301.37 79.39C301.37 79.39 298.19 83.54 299.83 85.05C302.48 87.47 305.7 83.03 305.7 83.03Z" fill="white"/>
<path d="M312.72 54.72C314.63 57.71 315.68 60.11 315.76 69.07C316.67 68.84 317.6 68.61 318.42 68.15C319.24 67.69 319.96 66.96 320.2 66.05C320.65 64.36 319.39 62.7 319.32 60.95C319.27 59.69 319.85 58.49 320.53 57.43C321.06 56.62 321.67 55.8 321.8 54.84C321.98 53.49 321.13 52.2 320.12 51.28C317.86 49.23 314.83 48.41 312.23 46.91C310.97 46.18 310.3 45.04 309.14 44.19C307.82 43.22 306.41 42.38 304.94 41.68C301.53 40.05 297.8 39.18 294.03 39.02C286.73 38.71 279.52 41.43 274.43 46.53C267.7 53.27 265 66.13 269.22 73.57C271.6 77.77 273.78 81.21 273.78 81.21C274.05 81.64 279.87 76.41 280.23 75.7C280.59 74.98 280.73 74.17 280.95 73.4C281.7 70.76 284.33 70.32 286.58 69.49C289.86 68.29 291.5 65.37 292.14 62.07C292.51 60.17 292.56 58.23 292.61 56.3C292.6 56.73 295.25 57.66 295.65 57.79C299.56 59 303.99 59.21 307.96 58.14C309.13 57.82 310.38 57.42 311.31 56.62C311.58 56.4 313.15 55.15 312.72 54.72Z" fill="#1E1611"/>
<path d="M288.27 89.43C288.48 89.58 292.64 94.12 300.59 94.83" stroke="black" stroke-miterlimit="10"/>
<path d="M296.42 64.46C297.13 63.07 298.54 62.08 300.08 61.87C301.62 61.67 303.25 62.27 304.29 63.43" stroke="black" stroke-miterlimit="10"/>
<path d="M311.12 64.65C311.65 63.48 312.76 62.73 313.73 62.89C314.7 63.06 315.43 64.13 315.49 65.39" stroke="black" stroke-miterlimit="10"/>
<path d="M307.59 73.02C306.58 76.03 303.38 77.62 300.45 76.59C297.52 75.55 295.96 72.28 296.97 69.27C297.98 66.26 301.18 64.67 304.11 65.7C307.04 66.73 308.6 70.01 307.59 73.02Z" stroke="#572A2F" stroke-miterlimit="10"/>
<path d="M318.37 74.43C317.83 77.56 315.81 79.81 313.86 79.46C311.91 79.1 310.78 76.28 311.32 73.15C311.86 70.02 313.88 67.77 315.83 68.12C317.77 68.47 318.91 71.3 318.37 74.43Z" stroke="#572A2F" stroke-miterlimit="10"/>
<path d="M311.83 71.48L307.88 70.74" stroke="#572A2F" stroke-miterlimit="10"/>
<path d="M297.19 68.7L285.28 69.61" stroke="#572A2F" stroke-miterlimit="10"/>
<path d="M288.69 71.76C288.63 68.87 284.74 66.61 282.17 67.53C276.01 69.74 278.09 80.77 283.81 81.83C285.43 82.13 287.75 81.49 288.33 79.66" fill="#FFCAA3"/>
<path d="M281.72 72.45L287.02 77.24" stroke="black" stroke-miterlimit="10"/>
<path d="M285.97 68.2C287.26 68.98 288.3 70.17 288.93 71.57" stroke="black" stroke-miterlimit="10"/>
<path d="M278.65 76.63C279.44 78.99 281.06 81.49 283.63 81.91C285.41 82.2 287.45 81.42 288.18 79.58" stroke="black" stroke-miterlimit="10"/>
<path d="M265.05 60.39C265.17 56.51 265.6 52.6 266.86 48.92C268.12 45.25 270.28 41.8 273.38 39.47C275.1 38.18 277.06 37.25 279.05 36.44C280.72 35.75 282.43 35.13 284.2 34.76C290.83 33.35 297.71 35.45 303.92 38.17" fill="#FFC36C"/>
<path d="M306.9 38.69C305.26 37.11 303.14 36.09 300.94 35.53C299.63 35.19 298.27 35.01 296.91 35.08C296.21 35.12 295.51 35.22 294.81 35.35C290 36.3 285.67 38.82 281.5 41.4C275.93 44.84 270.38 48.55 266.3 53.67C264.83 55.52 263.52 57.65 263.39 60.01C263.32 61.32 263.61 62.62 264.04 63.86C264.76 65.95 266.46 68.92 267.88 70.61C280.12 59.16 293.87 50.1 309.74 44.72C309.66 42.44 308.54 40.27 306.9 38.69Z" fill="#FFC36C"/>
<path d="M265.85 54.26C265.85 54.26 276.18 39.85 295.36 35.07" stroke="black" stroke-miterlimit="10"/>
<path d="M271.22 55.88C272.73 58.5 274.28 61.16 276.54 63.17" stroke="black" stroke-miterlimit="10"/>
<path d="M283.29 45.05C284.86 48.35 286.8 51.4901 289.08 54.3801" stroke="black" stroke-miterlimit="10"/>
<path d="M296.1 38.17C298.74 40.89 301 43.99 302.79 47.33" stroke="black" stroke-miterlimit="10"/>
<path d="M300.52 36.61C302.79 39.41 304.78 42.73 306.26 45.96" stroke="black" stroke-miterlimit="10"/>
<path d="M265.21 57.5C265.95 61.65 268.38 65.17 271.48 67.67" stroke="black" stroke-miterlimit="10"/>
<path d="M258.14 87.71C263.99 89.9 269.9 92.11 275.11 95.56C280.32 99.01 285.59 103.86 287.45 109.82" stroke="black" stroke-miterlimit="10"/>
<path d="M291.5 108C294.16 106.72 296.33 104.43 297.45 101.7" stroke="black" stroke-miterlimit="10"/>
<path d="M240.43 90.15C243.14 105.69 263.64 102.72 273.19 107.54" stroke="black" stroke-miterlimit="10"/>
<path d="M307.62 101.44C307.25 103.57 306.51 105.7 305.09 107.34C302.96 109.8 299.65 110.82 296.53 111.73" stroke="black" stroke-miterlimit="10"/>
<path d="M299.36 108C300.78 117.77 302.22 128.73 301.77 138.59" stroke="black" stroke-miterlimit="10"/>
<path d="M277.64 105.76C279.12 109.82 278.43 120.83 278.27 130.77" stroke="black" stroke-miterlimit="10"/>
<path d="M376.86 390.33H154.22C150.76 390.33 147.95 387.52 147.95 384.06V233.31H383.13V384.06C383.13 387.52 380.32 390.33 376.86 390.33Z" fill="#D4BCDD"/>
<path d="M376.86 212.99C380.32 212.99 383.13 215.8 383.13 219.26V384.06C383.13 387.52 380.32 390.33 376.86 390.33H154.22C150.76 390.33 147.95 387.52 147.95 384.06V219.26C147.95 215.8 150.76 212.99 154.22 212.99H376.86ZM376.86 211.49H154.22C149.93 211.49 146.45 214.98 146.45 219.26V384.06C146.45 388.35 149.94 391.83 154.22 391.83H376.86C381.15 391.83 384.63 388.34 384.63 384.06V219.26C384.63 214.97 381.14 211.49 376.86 211.49Z" fill="white"/>
<path d="M165.85 223.74C165.85 226.15 163.9 228.1 161.49 228.1C159.08 228.1 157.13 226.15 157.13 223.74C157.13 221.33 159.08 219.38 161.49 219.38C163.89 219.38 165.85 221.34 165.85 223.74Z" stroke="white" stroke-width="1.5" stroke-miterlimit="10"/>
<path d="M178.39 228.1C180.798 228.1 182.75 226.148 182.75 223.74C182.75 221.332 180.798 219.38 178.39 219.38C175.982 219.38 174.03 221.332 174.03 223.74C174.03 226.148 175.982 228.1 178.39 228.1Z" stroke="white" stroke-width="1.5" stroke-miterlimit="10"/>
<path d="M147.95 233.31H383.13" stroke="white" stroke-width="1.5" stroke-miterlimit="10"/>
<path d="M360.53 390.33C357.37 382.54 353.07 375.25 347.81 368.78C344.58 364.81 340.83 361.03 336.1 359.28C331.37 357.53 325.46 358.3 322.24 362.28C319.78 365.32 319.31 369.53 318.94 373.48C311.14 365.11 303.25 356.66 293.74 350.45C284.23 344.24 272.69 339.83 261.68 342.24C249.47 344.92 249.47 360.35 249.47 360.35C249.47 360.35 241.98 349.86 241.31 348.87C236.3 341.55 230.64 334.84 224.61 328.4C218.69 322.08 213.06 315.42 206.39 309.9C199.75 304.4 188.96 297.37 180.03 300.7C175.38 302.43 174.1 306.46 175.13 311.11C176.09 315.46 176.6 319.82 177.95 324.1C170.44 315.73 161.89 308.02 151.98 302.81C144.83 299.05 129.91 292.68 122.49 298.84C120.35 300.62 119.38 303.56 119.31 306.39C118.92 323.71 131.4 342.33 141.46 355.13C151.78 368.26 164.22 379.89 177.11 390.34H360.53V390.33Z" fill="#FFDD99"/>
<path d="M315.34 312.07C314.01 319.43 314.4 327.04 314.44 334.57C314.48 342.09 315.08 347.02 312.36 353.85C309.9 360.02 304.77 362.11 302.09 368.15C300.73 371.23 295.55 390.32 295.55 390.32H226.08C226.08 390.32 224.13 360.3 234.85 334.69C245.56 309.07 258.96 304.48 258.96 304.48L298.48 294.29L315.34 312.07Z" fill="#735D9D"/>
<path d="M406.36 267.29C408.42 264.8 411.3 263.24 413.77 261.22C416.05 259.36 417.75 256.74 419.63 254.49C421.94 251.73 423.73 248.59 425.73 245.61C427.88 242.41 430.63 239.83 433.36 237.14C433.74 236.77 434.13 236.38 434.34 235.89C434.73 235.01 434.28 233.86 433.27 233.59C431.3 233.06 429.2 233.56 427.29 234.28C426.16 234.71 422.31 236.07 422.07 233.9C421.81 231.45 423.86 227.87 424.64 225.61C425.66 222.66 426.71 219.7 427.54 216.68C428.33 213.81 428.15 208.29 426.62 208.2C425.09 208.11 426.24 209.02 425.85 209.24C426.49 208.4 425.37 206.46 424.46 205.88C423.54 205.3 422.35 207.18 422.08 208.19C422.39 207.2 421.53 205.57 420.79 205.5C419.72 205.4 418.89 206.41 418.25 207.24C417.61 208.07 417.05 208.99 416.15 209.54C416.16 208.83 416.05 208.12 415.84 207.44C415.14 207.05 414.34 207.7 413.84 208.29C403.6 220.38 396.67 235.37 385.32 247.01" fill="#E27769"/>
<path d="M422.31 232.23C422.35 235.21 422.27 238.18 422.08 241.15" stroke="black" stroke-miterlimit="10"/>
<path d="M425.52 208.52C424.63 211.33 422.9 213.7 421.6 216.32C419.53 220.48 417.69 224.74 415.77 228.97" stroke="black" stroke-miterlimit="10"/>
<path d="M422 207.97C421.38 209.28 420.66 210.56 419.87 211.77C419.02 213.08 418.07 214.32 417.16 215.58C414.55 219.19 412.2 222.99 410.13 226.94" stroke="black" stroke-miterlimit="10"/>
<path d="M415.79 209.98C415.1 211.45 413.97 212.66 412.91 213.89C409.58 217.74 406.71 221.99 404.39 226.52" stroke="black" stroke-miterlimit="10"/>
<path d="M278.54 298.26C290.97 293.06 299.11 287.6 311.42 282.05C322.52 277.05 338.09 272.95 349.03 267.62C364.16 260.24 378.35 252.1 390.78 240.94L413.37 264.73C413.37 264.73 381.44 297.3 370.29 303.65C343.43 318.95 333.64 321.82 305.72 336.42" fill="#735D9D"/>
<path d="M314.12 332.33C314.28 326.71 315.56 321.13 317.87 316" stroke="black" stroke-miterlimit="10"/>
<path d="M383.24 247.2L405.64 272.35" stroke="black" stroke-miterlimit="10"/>
<path d="M274.92 367.22C284.4 367.4 293.83 368.89 302.05 373.88C305.99 376.28 308.19 379.48 309.28 383.93C310.2 387.69 310.5 391.71 310.16 395.56C310.13 395.93 309.85 396.26 309.53 396.34C309.08 396.45 308.19 396 308.19 396C308.19 396 309 399.82 308.14 400.62C307.54 401.17 306.42 400.42 306 399.96C305.51 399.42 304.83 398.05 304.83 398.05C304.83 398.05 305.4 400.24 304.92 400.62C304.21 401.18 302.16 399.76 301.68 398.32C301.38 399.14 300.9 399.89 300.14 399.69C297.77 399.06 295.92 395.71 293.97 394.05C291.38 391.84 287.91 391.69 284.68 391.74C283.19 391.76 281.7 391.8 280.22 391.65C278.7 391.5 277.33 390.9 275.85 390.6C273.09 390.04 270.21 389.79 267.42 389.62" fill="#E27769"/>
<path d="M292.42 386.96C295.02 388.04 297.78 389.24 299.24 391.47C299.68 392.14 299.98 392.87 300.25 393.61C300.82 395.16 301.25 396.75 301.68 398.34" stroke="black" stroke-miterlimit="10"/>
<path d="M296.15 382.26C297.63 383.2 299.08 384.2 300.33 385.43C301.58 386.65 302.64 388.11 303.21 389.77C303.54 390.72 303.7 391.71 303.86 392.7C304.2 394.73 304.55 396.77 304.91 398.8" stroke="black" stroke-miterlimit="10"/>
<path d="M301.23 379.03C303.69 380.87 305.62 383.41 306.72 386.28C307.69 388.82 308.02 391.55 308.34 394.25C308.44 395.1 308.54 395.96 308.64 396.81" stroke="black" stroke-miterlimit="10"/>
<path d="M264.48 300.08C264.48 300.08 244.87 302.98 237.34 307.3C225.57 314.06 220.4 324.37 212.9 341.87C205.4 359.36 202.36 367.04 202.29 372.84C202.18 381.37 206.02 390.32 221.72 390.32C249.68 390.32 271.77 390.32 271.77 390.32L281.87 366.73L242.92 360.64L253.67 335.48" fill="#735D9D"/>
<path d="M281.88 366.73L242.93 360.63L253.68 335.47" stroke="black" stroke-miterlimit="10"/>
<path d="M229.1 364.23C229.4 364.23 235.33 360.54 242.93 360.63" stroke="black" stroke-miterlimit="10"/>
<path d="M271.13 365.05L260.45 390.32" stroke="black" stroke-miterlimit="10"/>
<path d="M294.89 306.09C295.4 303.43 295.39 300.59 294.96 297.73" stroke="black" stroke-miterlimit="10"/>
<path d="M253.39 305.42C255.55 310.82 260.33 315.29 265.55 317.58C272.13 320.46 281.04 320.99 287.33 317.15C290.26 315.36 292.27 313 293.54 310.31" stroke="black" stroke-miterlimit="10"/>
<path d="M364 315.53C375.71 309.57 386.41 301.64 395.54 292.18" stroke="black" stroke-miterlimit="10"/>
<path d="M385.84 309.87C391.52 305.47 396.84 300.62 401.74 295.37" stroke="black" stroke-miterlimit="10"/>
<path d="M198.05 358.12C195.57 366.2 194.68 374.76 195.44 383.17" stroke="black" stroke-miterlimit="10"/>
<path d="M190.23 359.33C188.67 363.86 187.77 368.63 187.59 373.42" stroke="black" stroke-miterlimit="10"/>
<path d="M271.05 275.96L260.32 283.15L262.63 290.82L259.41 302.38C259.2 303.12 259.33 303.9 259.76 304.54C261.51 307.15 266.95 313.63 277.72 313.62C289.11 313.61 288.95 306.05 288.95 306.05L291.02 289.96" fill="#E27769"/>
<path d="M292.62 275.01C289.67 269.51 287.99 266.12 284.89 262.33C282.27 259.12 277.91 254.59 273.8 253.69C268.51 252.53 263.53 256.34 259.03 259.13C251.63 263.7 251.76 273.55 254.26 280.89C256.18 286.53 260.15 288.68 265.15 292.11C271.69 296.6 285.91 298.63 292.02 293.71C296.59 290.01 295.75 280.83 292.62 275.01Z" fill="#E27769"/>
<path d="M276.81 274.52C277.16 275.37 276.92 276.28 276.26 276.55C275.61 276.82 274.8 276.34 274.45 275.49C274.1 274.64 274.34 273.73 275 273.46C275.65 273.2 276.46 273.67 276.81 274.52Z" fill="black"/>
<path d="M287.31 268.74C287.66 269.59 287.42 270.5 286.76 270.77C286.11 271.04 285.3 270.56 284.95 269.71C284.6 268.86 284.84 267.95 285.5 267.68C286.15 267.41 286.96 267.88 287.31 268.74Z" fill="black"/>
<path d="M281.69 272.44C282.87 273.49 284.28 274.19 285.7 274.85C286.58 275.26 289.51 276.04 288.86 277.46C288.44 278.38 286.73 279.82 286.73 279.82" stroke="black" stroke-miterlimit="10"/>
<path d="M260.23 299.44C260.23 299.44 261.57 296.01 261.89 294.79C262.44 292.72 260.7 292.62 260.1 290.79C259.79 289.84 260.04 288.68 260.26 287.74C260.71 285.72 261.75 283.46 260.82 281.42C260.23 280.13 258.97 279.31 257.95 278.32C256.94 277.33 256.11 275.82 256.72 274.54C257.44 273.02 259.56 272.91 260.86 271.85C262.16 270.79 262.46 268.93 262.38 267.25C262.29 265.58 261.91 263.89 262.2 262.24C262.25 261.94 262.34 261.63 262.54 261.42C263.18 260.76 264.23 261.4 265.03 261.85C266.46 262.66 268.2 262.56 269.7 261.95C270.46 261.64 271.16 261.08 271.43 260.31C271.6 259.83 271.6 259.31 271.68 258.81C271.76 258.31 271.96 257.79 272.39 257.52C272.7 257.33 273.09 257.3 273.46 257.32C274.62 257.37 275.76 257.78 276.69 258.47C277.47 259.05 277.91 259.47 278.89 259.43C279.83 259.39 280.74 259.08 281.68 259.36C282.82 259.69 283.57 260.73 284.24 261.71C286.08 264.39 287.93 267.08 289.77 269.76C290.69 268.43 291.63 267.07 292.08 265.52C292.53 263.97 292.43 262.16 291.41 260.9C290.43 259.69 288.75 259.15 287.91 257.83C286.99 256.37 287.13 254.27 287.03 252.62C286.92 250.82 286.37 249 285.34 247.48C284.34 246.01 282.67 244.87 280.9 245C279.88 245.08 278.9 245.57 277.87 245.54C277.24 245.52 276.62 245.3 276.04 245.05C273.34 243.89 271 242.01 268.31 240.83C265.62 239.65 262.24 239.29 259.92 241.09C258.73 242.01 257.94 243.41 256.64 244.18C252.9 246.4 247.54 242.22 243.98 244.71C241.68 246.32 241.61 249.79 239.68 251.82C237.21 254.41 232.71 253.73 229.9 255.96C227.07 258.21 227.06 262.69 228.76 265.89C229.6 267.47 230.82 269.09 230.46 270.84C230.23 271.93 229.43 272.79 228.75 273.67C227.77 274.93 226.98 276.38 226.78 277.96C226.58 279.54 227.07 281.26 228.29 282.29C229.05 282.93 230.2 283.23 230.77 284.06C231.41 284.99 231.6 286.66 231.72 287.75C231.83 288.71 231.84 289.7 232.14 290.62C232.93 293.14 235.72 294.65 238.37 294.65C239.59 294.65 240.93 294.42 241.94 295.11C242.77 295.68 243.11 296.72 243.62 297.6C245.26 300.45 249.25 301.64 252.19 300.17C253.29 299.62 254.31 298.73 255.55 298.71C256.76 298.69 259.07 299.64 260.23 299.44Z" fill="#2C221D"/>
<path d="M277.48 296.28C280.79 297.1 287.05 297.28 291.8 294.28" stroke="black" stroke-miterlimit="10"/>
<path d="M268.54 274.26C268.53 270.94 270.72 267.76 274.3 268.39" stroke="black" stroke-miterlimit="10"/>
<path d="M280.86 266C280.75 265.06 281.46 263.95 282.53 263.41C283.6 262.87 284.93 262.95 285.67 263.56" stroke="black" stroke-miterlimit="10"/>
<path d="M266.03 283.85C264.14 281.54 259.52 282.18 258.02 284.57C254.41 290.31 263.15 297.97 268.49 295.18C270 294.39 271.49 292.39 270.78 290.53" fill="#E27769"/>
<path d="M260.8 288.86L268.17 289.38" stroke="black" stroke-miterlimit="10"/>
<path d="M261.54 282.68C263.09 282.49 264.7 282.79 266.1 283.54" stroke="black" stroke-miterlimit="10"/>
<path d="M260.96 294.23C263.11 295.65 266.03 296.65 268.39 295.35C270.03 294.45 271.19 292.51 270.61 290.54" stroke="black" stroke-miterlimit="10"/>
<path d="M282.84 280.37C282.36 282.15 282.95 284.48 284.99 284.85C286.52 285.13 288.17 284.19 288.67 282.71" stroke="black" stroke-miterlimit="10"/>
<path d="M690.75 179.23H467.85C464.39 179.23 461.58 176.42 461.58 172.96V62.77H697.02V172.96C697.02 176.42 694.21 179.23 690.75 179.23Z" fill="#D5D8BC"/>
<path d="M690.75 46.05C694.21 46.05 697.02 48.86 697.02 52.32V172.96C697.02 176.42 694.21 179.23 690.75 179.23H467.85C464.39 179.23 461.58 176.42 461.58 172.96V52.32C461.58 48.86 464.39 46.05 467.85 46.05H690.75ZM690.75 44.55H467.85C463.56 44.55 460.08 48.04 460.08 52.32V172.96C460.08 177.25 463.57 180.73 467.85 180.73H690.75C695.04 180.73 698.52 177.24 698.52 172.96V52.32C698.52 48.03 695.03 44.55 690.75 44.55Z" fill="white"/>
<path d="M472.72 51.31C474.7 51.31 476.31 52.92 476.31 54.9C476.31 56.88 474.7 58.49 472.72 58.49C470.74 58.49 469.13 56.88 469.13 54.9C469.13 52.92 470.73 51.31 472.72 51.31ZM472.72 49.81C469.91 49.81 467.63 52.09 467.63 54.9C467.63 57.71 469.91 59.99 472.72 59.99C475.53 59.99 477.81 57.71 477.81 54.9C477.8 52.09 475.52 49.81 472.72 49.81Z" fill="white"/>
<path d="M486.63 51.31C488.61 51.31 490.22 52.92 490.22 54.9C490.22 56.88 488.61 58.49 486.63 58.49C484.65 58.49 483.04 56.88 483.04 54.9C483.04 52.92 484.65 51.31 486.63 51.31ZM486.63 49.81C483.82 49.81 481.54 52.09 481.54 54.9C481.54 57.71 483.82 59.99 486.63 59.99C489.44 59.99 491.72 57.71 491.72 54.9C491.72 52.09 489.43 49.81 486.63 49.81Z" fill="white"/>
<path d="M461.58 62.77H697.02" stroke="white" stroke-width="1.5" stroke-miterlimit="10"/>
<path d="M664.87 158.41C660.46 151.05 655.79 143.4 648.55 138.91C641.31 134.42 630.71 134.25 625.3 140.89C620.51 146.78 621.4 155.36 622.55 162.91C617.22 156.1 610.97 150.04 604.04 144.93C598.69 140.99 592.79 137.56 586.3 136.33C579.56 135.05 571.86 136.46 566.33 140.63C558.78 146.32 558.89 155.28 559.64 163.93C550.47 146.56 540.29 129.32 526.18 115.43C522.53 111.84 518.24 108.72 513.3 107.35C510.47 106.56 507.27 106.41 504.74 107.89C500.88 110.14 499.86 115.22 499.75 119.69C499.62 125.08 500.24 130.48 501.59 135.7C499.13 133.05 495.88 131.1 492.33 130.42C484.16 128.86 476.1 135.03 475.64 143.42C475.16 152.14 480.46 160.47 484.52 167.8C486.07 170.59 487.65 173.37 489.4 176.04C489.74 176.56 491.04 179.15 491.83 179.15H676.57C672.66 172.64 668.77 164.91 664.87 158.41Z" fill="#B5AE6B"/>
<mask id="mask0_111_2730" style="mask-type:luminance" maskUnits="userSpaceOnUse" x="461" y="46" width="237" height="134">
<path d="M690.75 179.23H467.85C464.39 179.23 461.58 176.42 461.58 172.96V52.32C461.58 48.86 464.39 46.05 467.85 46.05H690.75C694.21 46.05 697.02 48.86 697.02 52.32V172.96C697.02 176.42 694.21 179.23 690.75 179.23Z" fill="white"/>
</mask>
<g mask="url(#mask0_111_2730)">
<path d="M681.04 170.97L619.25 52.55L601.69 51.52L587.9 62.77L552.43 88.56L592.31 205.42L681.04 170.97Z" fill="white"/>
<path d="M564.95 86.86C568.4 89.73 573.2 90.9 577.58 89.94" stroke="black" stroke-miterlimit="10"/>
<path d="M581.9 88.56C586.22 87.11 590.05 84.24 592.67 80.52C595.29 76.79 596.67 72.21 596.57 67.66" stroke="black" stroke-miterlimit="10"/>
<path d="M664.18 126.94C653.49 106.55 621.41 42.3 612.94 45.46C603.23 49.09 592.3 58.45 592.3 58.45C592.3 58.45 597.53 75.2 597.93 76.79C599.38 82.58 600.88 88.36 602.42 94.13C606.25 108.49 609.67 123.06 614.4 137.16C619.21 151.48 624.54 165.63 630.28 179.6C632.58 185.2 634.43 191.76 638.82 196.15C641.31 198.68 644.78 200.45 648.32 200.13C650.76 199.92 653 198.76 655.17 197.62C664.72 192.62 691.33 180.7 691.33 180.7C691.33 180.7 677.66 152.66 664.18 126.94Z" fill="#4C4139"/>
<path d="M609.67 205.3C607.07 195.84 602.62 187.13 599.33 177.93C595.02 165.9 591.19 153.69 586.75 141.71C579.97 123.42 570.35 98.14 562.99 80.08C562.99 80.08 549.49 87.82 546.77 89.7C544.05 91.58 544.64 96.05 544.64 96.05C555.38 136.12 587.92 227.11 587.92 227.11C591.77 225.07 601.33 219.71 605.18 217.67C610.25 214.98 611.13 210.62 609.67 205.3Z" fill="#4C4139"/>
<path d="M549.44 88.01C561.92 107.18 571.63 122.79 584.64 141.6" stroke="black" stroke-miterlimit="10"/>
<path d="M609.24 50.3C611.83 75.73 613.41 101.26 613.97 126.81" stroke="black" stroke-miterlimit="10"/>
</g>
<path d="M479.72 186.05C477.12 188.03 474.44 189.92 471.7 191.71C469.05 193.43 466.22 194.89 463.62 196.67C462.98 197.11 462.38 197.61 461.78 198.1C459.6 199.91 457.4 201.73 455.67 203.97C455.44 204.27 455.21 204.58 454.9 204.79C454.59 205 454.17 205.1 453.83 204.94C453.48 204.77 453.3 204.37 453.2 204C452.78 202.43 453.21 200.75 453.85 199.26C454.26 198.3 454.76 197.38 455.2 196.43C455.56 195.64 456.04 194.81 456.05 193.93C449.05 195.65 442.92 199.79 436.33 202.71C434.98 203.31 432.23 203.18 431.94 202.02C431.56 200.49 441.32 195.38 445.99 191.72C442.73 192.79 439.27 193.91 436.23 195.51C434.12 196.62 431.87 197.5 429.51 197.86C428.18 198.06 425.19 198.21 426.14 195.99C426.42 195.34 427.02 194.88 427.6 194.47C432.11 191.28 437.25 189.33 441.93 186.39C437.01 187.49 432.25 190.1 427.25 189.5C426.76 189.44 426.24 189.33 425.91 188.97C425.4 188.43 425.3 187.76 425.78 187.19C426.26 186.62 426.98 186.31 427.66 186.02C432.72 183.92 438.02 181.55 443.07 179.44C440.48 179.73 438 180.58 435.46 181.19C432.93 181.8 430.24 182.16 427.74 181.44C426.93 181.21 426 180.52 426.31 179.74C426.46 179.36 426.86 179.16 427.22 178.98C433.43 176.02 439.64 173.06 445.85 170.1C447.59 169.27 449.34 168.44 451.11 167.68C454.96 166.02 458.68 164.13 462.54 162.47C466.59 160.73 470.67 159.05 474.76 157.42" fill="#D16159"/>
<path d="M455.92 193.89C457.81 193.39 459.71 192.95 461.63 192.58" stroke="black" stroke-miterlimit="10"/>
<path d="M445.73 191.66C448.38 190.39 451.1 189.27 453.87 188.29" stroke="black" stroke-miterlimit="10"/>
<path d="M441.92 186.29C444.08 185.35 446.25 184.41 448.41 183.47" stroke="black" stroke-miterlimit="10"/>
<path d="M440.64 180.32C442.23 179.74 443.78 179.06 445.28 178.27" stroke="black" stroke-miterlimit="10"/>
<path d="M546.76 89.7C542.14 92.78 537.56 96.22 534.63 99.41C529.92 104.53 502.26 138.06 502.26 138.06C502.26 138.06 473.92 155.15 457.68 164.59L475.44 193.52C475.44 193.52 508.36 181.68 525.15 169.89C540.41 159.17 569.63 124.04 569.63 124.04" fill="#4C4139"/>
<path d="M558.34 138.06L549.44 110.38" stroke="black" stroke-miterlimit="10"/>
<path d="M472.63 155.79L492.33 186.4" stroke="black" stroke-miterlimit="10"/>
<path d="M470.21 184.99L486.56 177.42" stroke="black" stroke-miterlimit="10"/>
<path d="M481.16 177.04C481.24 177.79 480.7 178.46 479.95 178.55C479.2 178.63 478.53 178.09 478.44 177.34C478.36 176.59 478.9 175.92 479.65 175.83C480.4 175.75 481.07 176.29 481.16 177.04Z" stroke="black" stroke-miterlimit="10"/>
<path d="M473.17 180.67C473.927 180.67 474.54 180.057 474.54 179.3C474.54 178.543 473.927 177.93 473.17 177.93C472.413 177.93 471.8 178.543 471.8 179.3C471.8 180.057 472.413 180.67 473.17 180.67Z" stroke="black" stroke-miterlimit="10"/>
<path d="M502.07 138.47C502.05 138.29 502.02 138.1 502 137.92C505.77 136.79 509.38 135.09 512.65 132.89" stroke="black" stroke-miterlimit="10"/>
<path d="M515.4 105.85C520.76 99.41 527.31 93.97 534.63 89.89" stroke="black" stroke-miterlimit="10"/>
<path d="M519.72 91.14C524.79 87.37 530.33 84.23 536.17 81.83" stroke="black" stroke-miterlimit="10"/>
<path d="M573.92 38.48L577.88 50.2L592 63.86C592 63.86 592.37 71.99 584.38 80.51C576.45 88.96 567.87 83.29 567.87 83.29L557.62 68.22" fill="#D16159"/>
<path d="M540.86 69.03C539.24 63.83 537.19 52.6 537.34 48.33C537.47 44.71 538.56 41.17 540.94 38.37C544.01 34.77 551.22 36.06 555.83 35.62C563.4 34.9 568.12 43.87 570.26 50.29C571.9 55.23 572.68 60.31 571 65.35C568.28 73.54 559.55 81.81 550.31 79.57C545.3 78.36 542.44 74.07 540.86 69.03Z" fill="#D16159"/>
<path d="M581.06 37.02C579.85 35.72 578.18 34.71 577.64 33.01C577.34 32.07 576.88 29.27 576.57 28.33C574.88 23.11 570.5 21.36 565.53 22.22C565 17.23 559.7 16.74 555.35 16.69C553.54 16.67 551.69 16.49 550.07 15.63C548.35 14.71 546.8 13.41 544.79 13.22C543 13.05 541.16 13.64 539.68 14.62C534.52 18.01 533.05 24.57 526.73 26.55C524.73 27.18 522.65 27.36 520.92 28.67C519.63 29.65 518.68 31.11 518.5 32.71C518.24 35 519.76 36.4 521.32 37.79C523.14 39.42 524.21 41.49 524.06 43.96C523.97 45.46 523.57 46.92 523.33 48.4C522.65 52.62 524 56.6 527.53 59.16C528.27 59.7 529.28 60.2 532.01 60.79C533.93 61.21 538.92 60.49 538.92 60.49C538.92 60.49 537.69 53.32 537.71 50.52C537.73 47.86 538.54 45.39 540.1 43.27C541.43 41.46 544.33 40.82 546.48 40.92C549.71 41.07 552.81 42.85 556.02 42.47C557.36 42.31 558.63 41.75 559.68 40.91C564.01 43.71 568.48 47.83 569.48 52.85C569.53 53.1 570.17 56.08 569.94 56.13C573.65 55.35 578.32 55.05 579.99 51C580.56 49.6 580.28 48.13 580.71 46.72C581.07 45.55 582.12 44.69 582.61 43.56C583.54 41.38 582.68 38.75 581.06 37.02Z" fill="#2C221D"/>
<path d="M565.64 52.24C565.83 49.01 570.29 46.65 573.12 47.79C579.92 50.53 577.11 62.79 570.66 63.72C568.83 63.98 566.26 63.17 565.7 61.09" fill="#D16159"/>
<path d="M573.4 53.32L567.27 58.45" stroke="black" stroke-miterlimit="10"/>
<path d="M568.84 48.38C567.36 49.19 566.14 50.48 565.38 52.03" stroke="black" stroke-miterlimit="10"/>
<path d="M576.66 58.13C575.67 60.74 573.75 63.46 570.86 63.82C568.85 64.07 566.61 63.11 565.87 61.01" stroke="black" stroke-miterlimit="10"/>
<path d="M563.37 76.68C563.37 76.68 566.67 74.58 568.84 69.96" stroke="black" stroke-miterlimit="10"/>
<path d="M546.37 56.61C546.68 59.49 546.99 62.37 547.32 65.24C547.37 65.64 547.42 66.06 547.7 66.35C548.79 67.5 551.27 66.95 552.43 66.26" stroke="black" stroke-miterlimit="10"/>
<path d="M555.14 67.45L550.16 70.36C550.16 70.36 552.09 74.05 554.01 73.33C557.61 71.98 555.14 67.45 555.14 67.45Z" fill="white"/>
<path d="M548.91 50.39C549.42 49.34 550.47 48.64 551.58 48.28C553.45 47.68 555.6 47.97 557.23 49.06" stroke="black" stroke-miterlimit="10"/>
<path d="M537.28 54.57C537.46 53.47 538.09 52.64 538.82 52.14C540.06 51.3 541.66 51.31 543.04 52.16" stroke="black" stroke-miterlimit="10"/>
<path d="M555.49 54.68C555.74 55.75 555.28 56.78 554.44 56.98C553.61 57.18 552.73 56.47 552.47 55.39C552.22 54.32 552.68 53.29 553.52 53.09C554.35 52.9 555.23 53.61 555.49 54.68Z" fill="black"/>
<path d="M544.02 58.1C544.27 59.17 543.81 60.2 542.97 60.4C542.14 60.6 541.26 59.89 541 58.81C540.75 57.74 541.21 56.71 542.05 56.51C542.88 56.31 543.76 57.02 544.02 58.1Z" fill="black"/>
<path d="M540.99 42.3199C538.85 43.4699 537.92 45.9799 536.47 47.9399C534.13 51.0899 530.08 52.8899 526.17 52.5099" stroke="#635149" stroke-miterlimit="10"/>
<path d="M560.04 40.63C561.98 38.84 563.37 36.47 563.98 33.9" stroke="#635149" stroke-miterlimit="10"/>
<path d="M741.67 305.32H574.08C570.62 305.32 567.81 302.51 567.81 299.05V179.98H747.95V299.05C747.94 302.51 745.13 305.32 741.67 305.32Z" fill="#F9D4BB"/>
<path d="M741.67 163.25C745.13 163.25 747.94 166.06 747.94 169.52V299.04C747.94 302.5 745.13 305.31 741.67 305.31H574.08C570.62 305.31 567.81 302.5 567.81 299.04V169.53C567.81 166.07 570.62 163.26 574.08 163.26H741.67M741.67 161.75H574.08C569.79 161.75 566.31 165.24 566.31 169.52V299.04C566.31 303.33 569.8 306.81 574.08 306.81H741.67C745.96 306.81 749.44 303.32 749.44 299.04V169.53C749.44 165.24 745.96 161.75 741.67 161.75Z" fill="white"/>
<path d="M582.53 172.11C582.53 174.09 580.92 175.7 578.94 175.7C576.96 175.7 575.35 174.09 575.35 172.11C575.35 170.13 576.96 168.52 578.94 168.52C580.93 168.52 582.53 170.12 582.53 172.11Z" stroke="white" stroke-width="1.5" stroke-miterlimit="10"/>
<path d="M596.44 172.11C596.44 174.09 594.83 175.7 592.85 175.7C590.87 175.7 589.26 174.09 589.26 172.11C589.26 170.13 590.87 168.52 592.85 168.52C594.84 168.52 596.44 170.12 596.44 172.11Z" stroke="white" stroke-width="1.5" stroke-miterlimit="10"/>
<path d="M567.81 179.98H747.94" stroke="white" stroke-width="1.5" stroke-miterlimit="10"/>
<path d="M701.51 257.06C697.38 256.34 696.22 267.43 698.2 271.12C692.77 263.35 685.89 251.45 680.46 243.69C674.37 234.98 667.09 224.13 656.1 221.29C646.2 218.73 641.04 227.36 640.88 236.16C640.73 244.59 641.58 253.09 643.14 261.36C644.84 270.38 647.05 280.66 651.96 288.53C646.74 280.16 638.39 277.33 629.05 278.11C624.7 278.47 620.18 279.94 617.44 283.33C613.05 288.75 614.7 298.61 616.57 305.33C620.65 305.33 624.73 305.33 628.82 305.33C650.53 305.33 736.55 305.37 736.55 305.37C736.55 305.37 714.9 259.4 701.51 257.06Z" fill="#EF9748"/>
<path d="M576.76 241.43C558.86 241.7 541.12 237.91 524 232.69C506.88 227.47 475.69 216.02 475.69 216.02L466.78 242.91C466.78 242.91 512.89 272.12 574.25 277.11" fill="#E27769"/>
<path d="M615.09 248.74C603.16 238.62 577.32 239.34 569.91 239.63C562.5 239.92 549.3 237.73 549.3 237.73L544.44 278.24C544.44 278.24 571.88 282.84 587.14 283.96" fill="#2C221D"/>
<path d="M581.48 258.45C583.35 263.73 582.5 271.5 582.52 277.11C582.54 282.11 584.3 284.89 585.03 289.83C585.91 295.74 589.27 299.96 592.8 305.31H668.79L664.79 263.18L654.45 248.23L632.61 242.41L583.3 255.38" fill="#2C221D"/>
<path d="M605.34 248.23C604.58 250.91 604.03 253.91 604.49 256.68C605.03 259.93 607.09 261.97 610.03 263.18" stroke="#6D574E" stroke-miterlimit="10"/>
<path d="M613.76 264.08C627.23 266.49 641.4 256.87 642.75 244.61" stroke="#6D574E" stroke-miterlimit="10"/>
<path d="M715.07 300.46C713.98 297.29 711.92 294.54 709.81 291.93C704 284.76 697.5 278.14 690.42 272.22L664.99 295.37L680.73 310.62L662.35 343.93L686.73 350.89C686.73 350.89 705.39 330.29 712.53 318.8C716.03 313.16 717.25 306.78 715.07 300.46Z" fill="#E27769"/>
<path d="M667.21 336.46C667.21 336.46 656.55 351.8 655.47 354.57C654.5 357.06 653.97 360.17 653.59 362.82C652.54 370.13 656.46 377.64 659.41 381.19C659.74 381.59 660.24 381.85 660.73 381.94C661.82 382.14 662.26 381.58 662.24 380.28C662.84 381.09 663.44 381.9 664.03 382.72C664.28 383.06 664.54 383.4 664.89 383.58C665.57 383.92 666.42 383.51 666.94 382.84C667.46 382.18 667.73 381.31 667.98 380.48C668.61 381.4 669.6 382.36 670.54 381.8C671.49 381.24 672.31 379.21 672.09 378.05C672.4 379.07 673.76 379.1 674.5 378.36C675.24 377.62 675.51 376.45 675.73 375.36C676.29 372.61 676.82 369.76 678.16 367.36C679.06 365.75 680.28 364.42 681.35 362.96C684.82 358.18 686.54 352.09 687.66 346.09" fill="#E27769"/>
<path d="M674.21 360.11C673.73 361.17 673.25 362.24 672.77 363.3C672.38 364.16 671.99 365.03 671.68 365.92C670.28 369.91 670.51 374.48 672.31 378.27" stroke="black" stroke-miterlimit="10"/>
<path d="M666.18 359.72C665.2 364.55 664.8 370.36 665.5 373.99C665.95 376.34 666.98 378.58 668.24 380.6" stroke="black" stroke-miterlimit="10"/>
<path d="M659.16 357.9C659.16 357.9 658.53 361.46 658.39 363.48C657.92 369.88 658.77 376.06 662.26 380.81" stroke="black" stroke-miterlimit="10"/>
<path d="M473.51 243.36C471.59 243.17 469.67 242.99 467.76 242.8C466.04 242.63 464.31 242.46 462.67 241.94C461.57 241.59 460.54 241.08 459.5 240.58C455.24 238.51 453.06 237.88 448.98 235.48C446.64 234.1 444.24 232.8 441.75 231.72C439.31 230.66 436.77 230.09 434.51 228.66C434.31 228.54 434.11 228.4 434.02 228.18C433.95 228.02 433.96 227.83 433.98 227.65C434.5 223.97 442.01 224.81 444.93 225.63C445.81 225.88 446.72 226.17 447.62 225.99C447.68 224.82 447.16 223.7 446.59 222.67C444.91 219.65 442.45 217.25 440.23 214.63C438.18 212.2 436.09 209.78 434.2 207.22C432.43 204.83 430.6 199.61 431.99 198.98C433.38 198.34 432.64 199.61 433.09 199.67C432.19 199.12 432.53 196.91 433.18 196.04C433.83 195.17 435.61 196.49 436.23 197.33C435.58 196.52 435.8 194.69 436.46 194.36C437.42 193.88 438.56 194.53 439.45 195.07C440.34 195.61 441.2 196.27 442.24 196.45C441.98 195.79 441.82 195.09 441.78 194.38C442.29 193.76 443.27 194.08 443.95 194.45C457.86 202.03 469.73 213.51 484.53 220.26" fill="#E27769"/>
<path d="M444.69 219.87C446.25 222.11 447.3 224.8 448.12 228.11" stroke="black" stroke-miterlimit="10"/>
<path d="M433.14 198.91C434.99 201.21 437.45 202.8 439.61 204.77C443.04 207.9 446.3 211.21 449.61 214.46" stroke="black" stroke-miterlimit="10"/>
<path d="M436.23 197.13C437.29 198.13 438.41 199.06 439.59 199.91C440.86 200.82 442.19 201.64 443.49 202.49C447.23 204.92 450.79 207.61 454.15 210.55" stroke="black" stroke-miterlimit="10"/>
<path d="M442.74 196.76C443.91 197.88 445.4 198.61 446.84 199.37C451.34 201.76 455.54 204.69 459.35 208.08" stroke="black" stroke-miterlimit="10"/>
<path d="M474.07 244.24C474.07 244.24 466.21 243.17 463 242.33" stroke="black" stroke-miterlimit="10"/>
<path d="M648.05 246.56C653.46 247.08 658.88 247.59 664.03 249.53C670.54 251.99 676.2 256.61 681.53 261.33C687.1 266.26 692.78 272.98 698.19 278.13L670.42 302.43L650.76 283.27" fill="#2C221D"/>
<path d="M680.73 310.62C680.73 310.62 684.84 305.36 689 302.44" stroke="black" stroke-miterlimit="10"/>
<path d="M662.34 294.56L691.3 271.12" stroke="#6D574E" stroke-miterlimit="10"/>
<path d="M555.06 279.93L559.26 239.06" stroke="#6D574E" stroke-miterlimit="10"/>
<path d="M581.48 272.21C581.48 272.21 583.4 280.93 583.93 284.67" stroke="#6D574E" stroke-miterlimit="10"/>
<path d="M649.78 283.21C655.8 287.86 670.43 302.44 670.43 302.44" stroke="#6D574E" stroke-miterlimit="10"/>
<path d="M618.89 217.57L631.83 222.82L631.07 231.45L637.59 244.06C637.59 244.06 634.41 255.95 620.12 258.91C608.06 261.41 608.33 253.63 608.33 253.63L602.59 237.05" fill="#E27769"/>
<path d="M591.55 224.21C593.46 217.74 594.49 213.77 596.94 209.07C599.01 205.09 602.62 199.33 606.77 197.47C612.11 195.07 618.22 198.01 623.61 199.97C632.45 203.18 634.49 213.64 633.46 221.95C632.67 228.34 628.94 231.49 624.4 236.23C618.46 242.43 603.85 247.71 596.31 243.85C590.66 240.98 589.52 231.06 591.55 224.21Z" fill="#E27769"/>
<path d="M683.99 263.31C687.47 262.17 689.18 258.07 688.99 255.17C688.68 250.49 686.49 248.07 686.13 245.18C685.9 243.3 686.46 241.39 686.3 239.5C686.04 236.38 683.77 233.66 680.97 232.25C678.17 230.84 674.92 230.59 671.79 230.87C669.4 231.08 666.99 231.59 664.61 231.26C662.62 230.98 660.76 230.11 659.03 229.1C655.97 227.3 653.17 224.97 651.2 222.01C647.85 216.99 647.13 210.68 644.55 205.22C643.25 202.47 641.44 199.97 639.27 197.84C634.01 192.66 629 190.74 621.54 190.49C616.43 190.32 609.32 191 605.42 195.77C605.42 195.77 597.86 195.96 594.26 199.77C589.98 204.29 590.29 210.83 594.03 216.04C595.96 212.87 597.61 209.52 600.43 207.08C600.1 207.59 600.26 208.31 600.68 208.76C601.1 209.2 601.72 209.4 602.33 209.45C603.95 209.58 605.47 208.78 606.89 207.99C606.41 209.27 606.21 210.66 606.3 212.02C606.32 212.31 606.36 212.61 606.55 212.83C606.77 213.08 607.12 213.15 607.45 213.17C609.68 213.36 611.97 212.29 613.25 210.46C612.64 212.12 612.11 214.2 613.34 215.46C614.21 216.36 615.67 216.42 616.83 215.95C617.99 215.48 618.9 214.58 619.79 213.7C619.36 214.12 619.92 216.51 620.03 217.06C620.26 218.27 620.63 219.44 621.04 220.59C622.3 224.14 623.86 227.6 625.88 230.79C627.97 234.08 630.95 236.58 633.08 239.78C634.43 241.81 635.57 244.04 637.39 245.67C639.62 247.67 642.7 249.18 645.63 249.78C648.59 250.38 651.64 250.11 654.63 250.01C665.66 249.65 674.04 255.18 683.99 263.31Z" fill="#893D33"/>
<path d="M658.22 191.77C657.58 190.2 656.65 188.76 655.46 187.66C651.15 183.69 641.76 183.95 638.55 189.34C636.79 192.3 637.64 196.11 638.98 199.29L641.62 205.08C645.3 207.08 649.95 207.16 653.7 205.3C656.83 203.74 659.04 200.87 659.2 197.32C659.28 195.49 658.94 193.55 658.22 191.77Z" fill="#893D33"/>
<path d="M619.89 225.34C620.79 222.67 625.08 221.69 627.2 223.3C632.3 227.16 627.15 236.83 621.51 236.15C619.91 235.96 617.93 234.69 617.93 232.81" fill="#E27769"/>
<path d="M626.18 228.02L619.84 230.94" stroke="black" stroke-miterlimit="10"/>
<path d="M623.46 222.82C622.03 223.17 620.71 223.97 619.72 225.1" stroke="black" stroke-miterlimit="10"/>
<path d="M627.83 232.81C626.4 234.78 624.16 236.63 621.65 236.28C619.9 236.04 618.23 234.71 618.09 232.78" stroke="black" stroke-miterlimit="10"/>
<path d="M605.53 245.52C605.53 245.52 611.47 245.24 617.49 241.17" stroke="black" stroke-miterlimit="10"/>
<path d="M599.28 220.96C598.34 222.6 597.36 224.28 595.85 225.41C595.49 225.68 595.1 225.92 594.8 226.26C594.38 226.75 594.2 227.44 594.33 228.07C594.46 228.7 594.89 229.27 595.47 229.56" stroke="black" stroke-miterlimit="10"/>
<path d="M596.61 233.38C597.56 234.17 598.98 234.48 600.11 233.88C601.53 233.12 601.56 231.3 601.61 229.89" stroke="black" stroke-miterlimit="10"/>
<path d="M606.22 217.44C607.26 217.22 608.35 217.17 609.38 217.42C610.41 217.66 611.39 218.21 612.05 219.04C612.89 220.1 613.15 221.48 613.38 222.81" stroke="black" stroke-miterlimit="10"/>
<path d="M594.65 213.49C595.64 212.78 597.02 212.73 598.12 213.27C599.21 213.8 600.01 214.85 600.36 216.02" stroke="black" stroke-miterlimit="10"/>
<path d="M607.96 223.42C607.55 224.27 606.73 224.72 606.12 224.43C605.51 224.14 605.34 223.21 605.75 222.36C606.16 221.51 606.98 221.06 607.59 221.35C608.2 221.65 608.37 222.57 607.96 223.42Z" fill="black"/>
<path d="M596.73 219.73C596.32 220.58 595.5 221.03 594.89 220.74C594.28 220.45 594.11 219.52 594.52 218.67C594.93 217.82 595.75 217.37 596.36 217.66C596.97 217.95 597.14 218.88 596.73 219.73Z" fill="black"/>
<path d="M713.24 335.7C719.33 329.5 723.65 321.58 725.56 313.1" stroke="black" stroke-miterlimit="10"/>
<path d="M727.19 332.25C729.03 328.61 730.21 324.64 730.64 320.59" stroke="black" stroke-miterlimit="10"/>
<path d="M607.91 138.01C607.91 138.01 597.5 142.78 590.51 145.95C586.56 147.74 579.93 152.64 577.67 156.37C574.79 161.11 574.04 166.98 574.37 171.83C574.59 175.04 576.05 178.67 578.2 182.16C579.61 184.46 581.12 186.87 582.44 186.56C583.76 186.25 583.28 183.02 583.28 183.02C583.28 183.22 584.84 186.28 585.2 186.52C585.68 186.85 586.25 187.13 586.75 186.87C587.42 186.52 587.88 186.13 588.21 185.44C588.49 184.86 588.51 184.25 588.56 183.6C588.61 183.01 588.56 181.59 588.53 180.99C588.82 181.64 589.1 183.65 589.65 183.54C590.2 183.43 591.1 182.97 591.6 182.37C592.56 181.2 593.07 179.73 593.56 178.29C593.56 178.64 593.57 178.99 593.7 179.32C593.83 179.64 594.11 179.93 594.46 179.95C594.9 179.98 596.68 178.68 596.94 178.33C598.06 176.81 598.48 174.77 599.29 173.06C599.97 171.63 600.63 170.62 601.6 169.38C602.49 168.25 603.85 166.85 605.15 166.17C607.79 164.78 609.42 164.4 612.12 163.13C614.4 162.05 616.63 160.72 618.21 158.71" fill="#D16159"/>
<path d="M593.34 178.91C593.54 176.63 593.82 174.36 594.17 172.1C594.41 170.59 594.68 169.08 595.28 167.68C596.26 165.39 598.05 163.55 599.8 161.77" stroke="black" stroke-miterlimit="10"/>
<path d="M588.78 181.5C587.89 177.71 587.99 173.76 588.09 169.86C588.12 168.78 588.15 167.7 588.4 166.65C588.85 164.84 589.94 163.28 591.01 161.76" stroke="black" stroke-miterlimit="10"/>
<path d="M583.4 183.78C582.18 180 580.96 176.19 580.62 172.23C580.56 171.47 580.52 170.71 580.55 169.95C580.65 167.11 581.57 164.34 582.97 161.87" stroke="black" stroke-miterlimit="10"/>
<path d="M616.77 81.58L635.09 116.13L594.21 144.12L621.11 165.31C621.11 165.31 666.98 150.38 679.47 142.97C689.28 137.16 693.49 122.05 674.59 97.42C655.69 72.79 642.65 58.18 638.77 54.07C630.43 45.23 620.51 41.56 611.26 46.21" fill="#4C4139"/>
<path d="M616.77 81.58L635.08 116.13L594.21 144.13" stroke="black" stroke-miterlimit="10"/>
<path d="M617.82 155.79C617.82 156.54 617.21 157.16 616.45 157.16C615.7 157.16 615.08 156.55 615.08 155.79C615.08 155.04 615.69 154.42 616.45 154.42C617.21 154.42 617.82 155.03 617.82 155.79Z" stroke="black" stroke-miterlimit="10"/>
<path d="M624.89 152.9C625.647 152.9 626.26 152.287 626.26 151.53C626.26 150.773 625.647 150.16 624.89 150.16C624.133 150.16 623.52 150.773 623.52 151.53C623.52 152.287 624.133 152.9 624.89 152.9Z" stroke="black" stroke-miterlimit="10"/>
<path d="M608.64 155.49C608.79 155.61 626.26 146.8 626.26 146.8" stroke="black" stroke-miterlimit="10"/>
<path d="M609.59 133.59C609.76 133.47 641 158.55 641 158.55" stroke="black" stroke-miterlimit="10"/>
<path d="M634.08 116.48C637.91 114.98 641.77 113.37 645.87 112.75C650.25 112.09 654.7 112.32 659.11 112.55" stroke="black" stroke-miterlimit="10"/>
<path d="M621.11 165.31L674.05 146.07" stroke="black" stroke-miterlimit="10"/>
<path d="M630.37 37.59C619.79 27.65 608.98 17.76 596.48 10.39C573.32 -3.24998 541 -1.13998 525.03 8.78002C512.77 16.4 506.3 25.89 498.43 37.63C488.57 52.34 478.23 68.16 461.99 75.2C454.07 78.63 445.36 79.66 436.9 81.32C428.43 82.98 419.77 85.46 413.28 91.15C406.79 96.84 403.1 106.5 406.6 114.39C409.35 120.58 416.13 124.48 422.91 124.67C429.69 124.86 436.29 121.72 441.17 117.01C453.62 105 459.41 73.4 436.42 64.3" stroke="#ED725A" stroke-width="1.5" stroke-miterlimit="10"/>
<path d="M127.99 251.8C129.45 258.74 133.15 266.13 138.15 271.82C144.66 279.24 157.93 284.04 163.64 273.25C166.29 268.23 167.62 260.12 161.29 256.53C160.84 256.27 160.34 256.05 159.79 256.04C158.57 256.03 157.76 257.09 157.39 258.06C155.7 262.61 158.42 267.53 162.1 271.18C163.81 272.88 165.79 274.46 168.25 275.3C170.71 276.14 173.72 276.13 175.86 274.83C179.2 272.8 180.07 268.31 179.83 265.1" stroke="#8F96DB" stroke-width="1.5" stroke-miterlimit="10"/>
<path d="M114.01 69.1C119.9 61.68 127.82 54.97 136.73 51.54C141.55 49.68 147.85 49.01 152.91 50.02C155.44 50.52 158.38 51.32 159.93 53.6C161.56 56 159.66 60.45 162.88 61.81C163.71 62.16 164.65 62.07 165.54 61.94C168.34 61.52 171.05 60.68 173.85 60.27C176.65 59.86 179.62 59.91 182.14 61.2C184.66 62.49 186.57 65.24 186.2 68.04C186.05 69.14 185.58 70.22 185.78 71.31C186.12 73.13 188.18 74.08 190.03 74.26C193.85 74.62 197.48 74.5 200.72 76.94C203.1 78.73 204.47 81.94 203.25 84.51" stroke="#FFDD99" stroke-width="1.5" stroke-miterlimit="10"/>
<path d="M363.43 62.04C364.91 58.74 366.58 55.43 369.17 52.9C371.76 50.37 375.46 48.72 379.01 49.41C380.85 49.77 382.58 50.72 384.45 50.68C387.02 50.63 389.23 48.65 390.39 46.35C391.55 44.05 391.88 41.44 392.35 38.91C393.1 34.87 394.32 30.74 397.08 27.69C399.85 24.65 404.52 23.02 408.21 24.82" stroke="#FFDD99" stroke-width="1.5" stroke-miterlimit="10"/>
<path d="M189.193 398.796C190.221 392.663 186.082 386.858 179.949 385.83C173.816 384.802 168.011 388.941 166.983 395.074C165.955 401.207 170.094 407.012 176.227 408.04C182.36 409.067 188.165 404.929 189.193 398.796Z" stroke="#909DF4" stroke-width="1.5" stroke-miterlimit="10"/>
<path d="M369.72 22.32C374.762 22.32 378.85 18.2324 378.85 13.19C378.85 8.14764 374.762 4.06 369.72 4.06C364.678 4.06 360.59 8.14764 360.59 13.19C360.59 18.2324 364.678 22.32 369.72 22.32Z" stroke="#8F96DB" stroke-width="1.5" stroke-miterlimit="10"/>
<path d="M694.63 363.48L700.68 403.35L724.47 385.83L694.63 363.48Z" fill="#FFDD99"/>
<path d="M95.7601 319.74L111.85 301.49L84.3601 302.48L95.7601 319.74Z" stroke="#8F96DB" stroke-width="1.5" stroke-miterlimit="10"/>
<path d="M121.48 364.93C125.081 364.93 128 362.011 128 358.41C128 354.809 125.081 351.89 121.48 351.89C117.879 351.89 114.96 354.809 114.96 358.41C114.96 362.011 117.879 364.93 121.48 364.93Z" fill="#FFDD99"/>
<path d="M135.4 86.48L119.74 120.66L167.6 113.72L135.4 86.48Z" fill="#ED725A"/>
<path d="M104.69 171.64C104.69 173.82 102.92 175.59 100.74 175.59C98.56 175.59 96.79 173.82 96.79 171.64C96.79 169.46 98.56 167.69 100.74 167.69C102.92 167.68 104.69 169.45 104.69 171.64Z" fill="#909DF4"/>
<path d="M641.34 15.75C641.34 17.93 639.57 19.7 637.39 19.7C635.21 19.7 633.44 17.93 633.44 15.75C633.44 13.57 635.21 11.8 637.39 11.8C639.57 11.8 641.34 13.57 641.34 15.75Z" fill="#ED725A"/>
<path d="M714.05 361C717 359.79 720.81 360.02 723.48 361.82C725.84 363.4 727.07 366.38 729.91 367.3C734.08 368.66 737.75 364.78 741.77 364.52C745.25 364.29 748.05 366.64 749.4 369.68C750.56 372.28 750.79 375.18 750.99 378.02" stroke="#8F96DB" stroke-width="1.5" stroke-miterlimit="10"/>
<path d="M683.45 89.85C684.9 86.26 688.7 83.75 692.57 83.85C694.54 83.9 696.54 84.55 698.45 84.06C704.39 82.52 703.89 72.19 709.76 70.4C713.82 69.16 718.24 73.1 722.22 71.6C725.64 70.32 726.48 66.01 727.57 62.51C730.5 53.07 739.17 45.68 748.96 44.28" stroke="#8F96DB" stroke-width="1.5" stroke-miterlimit="10"/>
<path d="M638.21 297.36C641.67 297.36 644.48 300.17 644.48 303.63V414.67C644.48 418.13 641.67 420.94 638.21 420.94H458.35C454.89 420.94 452.08 418.13 452.08 414.67V303.63C452.08 300.17 454.89 297.36 458.35 297.36H638.21ZM638.21 295.86H458.35C454.06 295.86 450.58 299.35 450.58 303.63V414.67C450.58 418.96 454.07 422.44 458.35 422.44H638.21C642.5 422.44 645.98 418.95 645.98 414.67V303.63C645.98 299.34 642.5 295.86 638.21 295.86Z" fill="white"/>
<path d="M638.21 420.94H458.35C454.89 420.94 452.08 418.13 452.08 414.67V314.08H644.48V414.67C644.48 418.13 641.67 420.94 638.21 420.94Z" fill="#C5B3DD"/>
<path d="M466.81 306.21C466.81 308.19 465.2 309.8 463.22 309.8C461.24 309.8 459.63 308.19 459.63 306.21C459.63 304.23 461.24 302.62 463.22 302.62C465.2 302.62 466.81 304.23 466.81 306.21Z" stroke="white" stroke-width="1.5" stroke-miterlimit="10"/>
<path d="M480.72 306.21C480.72 308.19 479.11 309.8 477.13 309.8C475.15 309.8 473.54 308.19 473.54 306.21C473.54 304.23 475.15 302.62 477.13 302.62C479.11 302.62 480.72 304.23 480.72 306.21Z" stroke="white" stroke-width="1.5" stroke-miterlimit="10"/>
<path d="M452.08 314.08H644.48" stroke="white" stroke-width="1.5" stroke-miterlimit="10"/>
<path d="M617.49 396.92C607.92 386.32 596.8 381.08 591.14 382.36C582.82 384.24 584.33 405.47 584.57 414C580.55 409.35 575.57 405.54 570.04 402.88C565.87 400.87 561.13 399.5 556.63 400.6C552.14 401.7 548.18 405.92 548.7 410.52C538.23 394.95 523.78 382.07 507.1 373.47C496.56 368.03 467.9 356.72 462.99 368.46C457.61 381.33 488.14 420.95 488.14 420.95H636.1C636.1 420.94 626.13 406.5 617.49 396.92Z" fill="#A29DCE"/>
<path d="M432.61 283.71C427.18 278.02 421.96 267.02 420.49 261.16C419.2 256 418.05 250.72 415.61 245.95C414.95 244.66 412.13 241.7 413.15 240.15C415.21 237.04 420.22 241.14 421.53 242.99C422 243.65 423.72 246.45 424.58 246.61C425.44 246.77 425.81 243.43 425.91 242C426.31 236.49 426.34 230.48 425.87 224.9C425.39 219.16 426.21 214.12 428.01 213.85C429.84 213.58 429.74 214.66 430.07 215.02C430.36 213.2 432.02 211.04 433.09 211.65C433.74 212.02 433.98 212.83 434.07 213.58C434.16 214.32 434.6 215.73 434.6 215.73C434.6 215.73 435.64 211.86 437.53 214.05C438.49 215.16 439.94 221.04 440.87 222.91C440.78 221.68 440.46 220.99 440.86 219.54C441.08 218.76 441.52 218.11 442.37 218.52C442.87 218.76 443.01 219.26 443.19 219.74C444.14 222.38 446.47 226.62 447.32 229.29C448.2 232.07 449.09 234.86 449.97 237.64C451.63 242.87 453.26 248.38 454.45 253.84C455.55 258.89 459.6 271.34 459.6 271.34" fill="#A04B4B"/>
<path d="M430.03 215.32C430.51 218.31 431.61 222.13 432.21 225.53C433.07 230.4 433.46 234.91 434.2 239.19" stroke="black" stroke-miterlimit="10"/>
<path d="M434.87 215.82C435.45 218.38 436.45 221.94 437.11 224.86C438.23 229.74 439.05 234.11 440.01 238.39" stroke="black" stroke-miterlimit="10"/>
<path d="M440.87 222.82C442.29 227.48 444.35 232.83 445.98 238.73" stroke="black" stroke-miterlimit="10"/>
<path d="M425.13 246.31C424.77 248.77 424.58 251.39 422.94 253.54" stroke="black" stroke-miterlimit="10"/>
<path d="M616.45 420.94C614.53 415.8 612.47 410.4 609.58 405.68C606.69 400.97 602.91 396.65 598.08 393.7C595.92 392.37 593.57 391.34 591.24 390.31C584.96 387.54 578.68 384.76 572.4 381.99L541.58 369.97C539.67 368.2 537.77 366.43 535.86 364.66C532.18 361.23 528.51 357.8 524.87 354.33C524.73 354.2 524.59 354.06 524.45 353.93C496.55 327.3 475.81 297.56 457.68 262.84L425.13 277.12C425.13 277.12 439.21 325.1 452.59 345.46C470.26 372.36 490.7 396.84 499.94 404.58C501.59 410.11 503.48 415.58 505.61 420.94H616.45Z" fill="#FCDDD2"/>
<path d="M430.37 293.61L465.29 276.82" stroke="black" stroke-miterlimit="10"/>
<path d="M432.12 274.05L443.89 299.59" stroke="black" stroke-miterlimit="10"/>
<path d="M443.18 279.42C443.18 280.69 442.15 281.73 440.87 281.73C439.6 281.73 438.56 280.7 438.56 279.42C438.56 278.14 439.59 277.11 440.87 277.11C442.15 277.11 443.18 278.14 443.18 279.42Z" stroke="#D8A798" stroke-miterlimit="10"/>
<path d="M569.01 420.26C570.62 418.17 572.22 416.08 573.83 413.99C575.56 411.73 577.3 409.47 579.25 407.41C584.96 401.38 592.66 397.09 600.91 396.2" stroke="#D8A798" stroke-miterlimit="10"/>
<path d="M498.97 401.58C498.97 393.24 501.76 384.96 506.56 378.16C512.61 369.59 521.5 363.44 532.25 363.14" stroke="#D8A798" stroke-miterlimit="10"/>
<path d="M499.79 404.25C498.25 399.67 497.37 394.52 494.93 390.31" stroke="black" stroke-miterlimit="10"/>
<path d="M531.77 366.55L529.74 392.16C529.74 392.16 538.35 400.93 550.18 395.22C562.02 389.51 570.65 378.65 570.65 378.65L566.78 362.78" fill="#A04B4B"/>
<path d="M578.81 334.65C577.61 330.91 575.37 327.49 572.35 325.02C565.09 319.08 557.11 319.24 549.31 323.82C542.54 327.8 533.24 334.08 528.07 340.09C522.74 346.29 519.17 354.01 524.61 361.26C533.37 372.93 557.95 368.98 569.68 359.4C574.45 355.5 578.96 349.17 579.67 342.94C579.99 340.17 579.66 337.33 578.81 334.65Z" fill="#A04B4B"/>
<path d="M547.81 327.08C543.9 329.07 539.63 329.6 535.35 330.1C533.29 330.34 530.57 331.03 530.94 333.73C531.18 335.47 532.69 336.97 533.96 338.03" fill="#A04B4B"/>
<path d="M530.77 353.66C530.77 353.66 531.48 352.06 531.84 351.26C532.52 349.72 530.3 348.68 529.25 348.15C528.48 347.76 528.08 347.42 527.31 347.92C527.11 348.05 526 349.13 525.76 348.93C525.75 348.92 523.7 346.53 523.7 346.53C522.11 349.02 521.08 353.75 521.31 356.55C521.54 359.35 522.62 362.14 524.63 364.12C525.43 364.91 526.7 366.05 527.66 366.64C535.73 371.49 545.79 371.12 554.57 367.71C557.28 366.66 559.92 365.25 561.89 363.11C535.01 362.73 530.77 353.66 530.77 353.66Z" fill="#1E1611"/>
<path d="M562.81 351.87C562.69 351.84 562.57 351.82 562.45 351.8C560.66 351.5 558.88 351.77 557.11 351.19C555.69 350.72 554.36 349.84 553.58 348.56C552.66 347.05 553.92 346.17 555.15 345.49C556.97 344.49 558.74 343.36 560.22 341.9C562.65 339.5 563.94 336.06 562.88 332.71C561.73 329.08 558.16 326.95 555.38 324.64C552.71 322.42 549.29 318.97 550.42 315.12C551.55 311.26 555.28 309.85 558.96 310.4C560.94 310.69 562.93 311.25 564.9 310.94C565.9 310.78 566.86 310.41 567.85 310.19C570.89 309.51 574.4 310.48 576.21 313.02C577.52 314.85 578.02 317.44 580.03 318.44C581 318.92 582.13 318.91 583.18 319.16C585.32 319.66 587.13 321.29 588 323.31C588.87 325.33 588.83 327.69 588.05 329.74C586.65 333.43 584.54 335.28 586.27 339.35C590.28 348.81 591.96 360.42 582.39 367.22C579.87 369.01 576.72 369.93 574.62 372.2C573.31 373.61 572.25 375.63 570.33 375.84C569.04 375.98 567.83 375.18 566.95 374.23C566.16 373.38 565.54 372.39 564.92 371.4C564.07 370.04 563.21 368.61 563.03 367.01C562.78 364.73 563.96 362.57 565.04 360.54C566.05 358.63 568.09 354.67 565.68 353.09C564.88 352.54 563.82 352.09 562.81 351.87Z" fill="#1E1611"/>
<path d="M556.9 331.21C556.3 329.38 555.2 327.56 553.5 328.39C553.08 328.6 552.83 329.06 552.76 329.53C552.69 330 552.78 330.47 552.86 330.93C553.26 333.1 553.68 335.33 554.86 337.2C555.1 337.58 555.38 337.95 555.78 338.15C558.44 339.48 557.25 332.25 556.9 331.21Z" fill="#1E1611"/>
<path d="M540.1 343.59L532.57 341.88C532.57 341.88 531.83 348.33 535.03 348.97C538.23 349.62 540.1 343.59 540.1 343.59Z" fill="white"/>
<path d="M532.12 336.02C532.75 336.83 533.59 337.47 534.55 337.84" stroke="black" stroke-miterlimit="10"/>
<path d="M540.43 329.39C543.26 328.98 546 328.03 548.48 326.62" stroke="black" stroke-miterlimit="10"/>
<path d="M561.06 352.13C563.84 350.04 568.87 352.04 569.91 355.15C572.4 362.63 560.41 368.87 555.15 364.23C553.66 362.92 552.54 360.25 553.85 358.34" fill="#A04B4B"/>
<path d="M565.59 359.23L557.11 357.79" stroke="black" stroke-miterlimit="10"/>
<path d="M566.45 352.06C564.76 351.42 562.85 351.31 561.06 351.77" stroke="black" stroke-miterlimit="10"/>
<path d="M554.04 358.42C553.09 360.04 553.37 362.03 554.41 363.53C556.29 366.27 560.82 366.28 563.56 365.11" stroke="black" stroke-miterlimit="10"/>
<path d="M549.02 337.41C547.95 338.19 546.63 338.19 546.07 337.43C545.51 336.66 545.93 335.41 547.01 334.63C548.08 333.85 549.4 333.85 549.96 334.61C550.51 335.38 550.09 336.63 549.02 337.41Z" fill="black"/>
<path d="M574.82 377.81C547.81 381.01 531.27 393.38 531.27 393.38L535.97 414.84C560.13 391.87 583.64 386.68 583.88 386.44L574.82 377.81Z" fill="#FCDDD2"/>
<path d="M530.49 379.68L520.32 386.21C520.32 386.21 518.57 404.47 521.91 414.17L531.28 393.39L530.49 379.68Z" fill="#FCDDD2"/>
<path d="M531.27 393.39L535.97 414.85C560.13 391.88 583.64 386.69 583.88 386.45" stroke="black" stroke-miterlimit="10"/>
<path d="M530.49 379.68L520.32 386.21C520.32 386.21 518.57 404.47 521.91 414.17L531.28 393.39" stroke="black" stroke-miterlimit="10"/>
<path d="M430.23 321.64C432.96 331.35 437.01 340.68 442.22 349.31" stroke="black" stroke-miterlimit="10"/>
<path d="M431.12 338.31C432.83 344.55 434.89 350.7 437.28 356.71" stroke="black" stroke-miterlimit="10"/>
<path d="M597.92 351.39C598.07 355.84 596.34 360.21 593.69 363.79C591.04 367.37 587.52 370.21 583.8 372.65" stroke="black" stroke-miterlimit="10"/>
<path d="M594.89 372.49C598.61 370.38 601.79 367.31 604.04 363.66" stroke="black" stroke-miterlimit="10"/>
</g>
<defs>
<clipPath id="clip0_111_2730">
<rect width="668.74" height="422.44" fill="white" transform="translate(83)"/>
</clipPath>
</defs>
</svg>
