<svg width="606" height="287" viewBox="0 0 606 287" fill="none" xmlns="http://www.w3.org/2000/svg">
<path d="M698 243H-350V339H698V243Z" fill="#6552C4"/>
<path d="M606 246.422H592.408L589.413 243H588.667L591.661 246.422H556.32L553.698 243H552.992L555.614 246.422H520.241L518.003 243H517.317L519.556 246.422H484.163L482.298 243H481.642L483.508 246.422H460.891V243H460.447V246.422H448.085H447.45H412.017H411.392H375.939H375.324H339.871H339.266H303.802H303.197H267.735H267.13H253.174V243H252.73V246.422H231.676L232.423 243H231.807L231.061 246.422H195.608L196.728 243H196.102L194.983 246.422H159.55L161.053 243H160.407L158.915 246.422H123.492L125.358 243H124.702L122.837 246.422H87.4446L89.6828 243H88.9973L86.7588 246.422H51.3864L54.0079 243H53.3023L50.6804 246.422H15.3386L18.3334 243H17.5872L14.5924 246.422H1V246.911H14.1688L2.48233 260.274H1V260.763H2.05875L1 261.977V262.816L2.79489 260.763H39.7099L23.879 281.459H1V281.948H23.5061L19.644 287H20.3499L24.2116 281.948H63.4662L60.1488 287H60.8447L64.1521 281.948H103.426L100.664 287H101.319L104.082 281.948H143.387L141.179 287H141.814L144.022 281.948H183.337L181.683 287H182.308L183.962 281.948H223.297L222.188 287H222.813L223.912 281.948H263.247L262.693 287H263.298L263.852 281.948H303.197V287H303.802V281.948H343.148L343.702 287H344.307L343.753 281.948H383.088L384.197 287H384.812L383.703 281.948H423.038L424.691 287H425.317L423.663 281.948H462.978L465.186 287H465.821L463.613 281.948H502.918L505.681 287H506.336L503.574 281.948H542.848L546.165 287H546.851L543.534 281.948H582.788L586.65 287H587.356L583.494 281.948H606V281.459H583.121L567.29 260.763H604.205L606 262.816V261.977L604.941 260.763H606V260.274H604.518L592.831 246.911H606V246.422ZM231.565 246.911H267.079L265.617 260.274H228.641L231.565 246.911ZM195.457 246.911H230.95L228.036 260.274H191.071L195.457 246.911ZM159.339 246.911H194.822L190.446 260.274H153.5L159.339 246.911ZM123.23 246.911H158.703L152.855 260.274H115.93L123.23 246.911ZM87.1216 246.911H122.565L115.264 260.274H78.3591L87.1216 246.911ZM51.0135 246.911H86.4361L77.6737 260.274H40.7888L51.0135 246.911ZM3.22853 260.274L14.9049 246.911H50.2974L40.0828 260.274H3.22853ZM63.7889 281.459H24.5849L40.4159 260.763H77.3511L63.7889 281.459ZM103.689 281.459H64.4647L78.0365 260.763H115.002L103.689 281.459ZM143.599 281.459H104.354L115.658 260.763H152.643L143.599 281.459ZM183.498 281.459H144.234L153.289 260.763H190.284L183.498 281.459ZM223.398 281.459H184.123L190.909 260.763H227.925L223.398 281.459ZM263.298 281.459H224.013L228.54 260.763H265.566L263.298 281.459ZM303.197 281.459H263.913L266.171 260.763H303.197V281.459ZM303.197 260.274H266.222L267.684 246.911H303.197V260.274ZM555.987 246.911L566.211 260.274H529.326L520.564 246.911H555.987ZM519.878 246.911L528.641 260.274H491.736L484.435 246.911H519.878ZM483.77 246.911L491.07 260.274H454.145L448.307 246.911H483.77ZM447.661 246.911L453.5 260.274H416.555L412.178 246.911H447.661ZM411.543 246.911L415.929 260.274H378.964L376.05 246.911H411.543ZM375.435 246.911L378.349 260.274H341.383L339.921 246.911H375.435ZM303.802 246.911H339.316L340.778 260.274H303.802V246.911ZM303.802 281.459V260.763H340.829L343.087 281.459H303.802ZM343.702 281.459L341.434 260.763H378.46L382.987 281.459H343.702ZM383.602 281.459L379.075 260.763H416.09L422.876 281.459H383.602ZM423.502 281.459L416.716 260.763H453.711L462.766 281.459H423.502ZM463.401 281.459L454.357 260.763H491.342L502.646 281.459H463.401ZM503.311 281.459L491.998 260.763H528.963L542.535 281.459H503.311ZM582.415 281.459H543.211L529.649 260.763H566.584L582.415 281.459ZM603.771 260.274H566.917L556.703 246.911H592.095L603.771 260.274Z" fill="#F7BFC9" fill-opacity="0.13"/>
<mask id="mask0_1004_576" style="mask-type:luminance" maskUnits="userSpaceOnUse" x="109" y="0" width="388" height="265">
<path d="M496.668 0H109V264.841H496.668V0Z" fill="white"/>
</mask>
<g mask="url(#mask0_1004_576)">
<path d="M313.611 40.2237C289.183 34.0109 271.397 40.0482 251.085 47.6278C241.073 51.3643 230.934 55.314 220.384 56.8186C212.506 57.9408 204.552 58.2417 196.645 59.0881C188.425 59.9721 180.211 61.088 172.141 63.044C158.553 66.348 134.884 72.4355 136.333 92.2214C136.913 100.146 141.916 107.349 141.412 115.28C140.762 125.442 131.997 133.317 126.252 140.495C118.322 150.407 111.192 161.41 112.502 175.189C113.557 186.305 120.229 196.073 128.461 202.825C136.693 209.577 146.432 213.771 156.026 217.909C170.64 224.215 183.005 231.594 194.5 243.318C201.161 250.108 208.251 256.835 216.888 260.126C228.488 264.552 243.276 260.703 248.001 247.412C250.575 240.171 251.299 231.739 255.293 225.156C259.409 218.379 268.082 212.674 275.734 213.771C288.197 215.558 293.055 225.557 298.997 236.077C301.895 241.212 305.345 245.945 310.214 249.029C318.573 254.321 326.927 252.258 335.738 250.108C345.257 247.788 354.88 245.914 364.573 244.66C381.013 242.534 397.557 243.487 413.945 245.719C429.505 247.844 452.095 258.904 464.924 243.889C470.547 237.312 471.666 228.303 469.62 219.902C466.686 207.865 460.374 194.493 460.716 181.992C461.22 163.529 468.913 151.241 478.315 136.815C482.82 129.906 486.286 122.233 486.124 113.587C485.753 93.701 474.223 78.4352 462.205 64.7305C450.217 51.0508 438.235 35.4653 426.102 23.3342" stroke="#ED725A" stroke-width="1.5" stroke-miterlimit="10"/>
<path d="M488.274 60.5301C488.274 63.4203 486.106 65.7587 483.439 65.7587C480.767 65.7587 478.604 63.414 478.604 60.5301C478.604 57.64 480.773 55.3015 483.439 55.3015C486.112 55.2953 488.274 57.64 488.274 60.5301Z" stroke="#ED725A" stroke-width="1.5" stroke-miterlimit="10"/>
<path d="M326.359 237.626C326.359 240.516 324.191 242.854 321.524 242.854C318.852 242.854 316.689 240.509 316.689 237.626C316.689 234.735 318.858 232.397 321.524 232.397C324.191 232.391 326.359 234.735 326.359 237.626Z" stroke="#ED725A" stroke-width="1.5" stroke-miterlimit="10"/>
<path d="M309.466 9.87423C311.472 9.87423 313.101 11.6359 313.101 13.8051V91.532C313.101 93.7012 311.472 95.4629 309.466 95.4629H169.967C167.961 95.4629 166.332 93.7012 166.332 91.532V13.8114C166.332 11.6422 167.961 9.8805 169.967 9.8805H309.466M309.466 8.93384H169.967C167.48 8.93384 165.463 11.1218 165.463 13.8051V91.532C165.463 94.2215 167.486 96.4033 169.967 96.4033H309.466C311.953 96.4033 313.97 94.2153 313.97 91.532V13.8114C313.97 11.1218 311.947 8.93384 309.466 8.93384Z" fill="white"/>
<path d="M309.467 95.4691H169.968C167.962 95.4691 166.333 93.7075 166.333 91.5383V20.3628H313.101V91.5383C313.101 93.7075 311.472 95.4691 309.467 95.4691Z" fill="#AFB9E8"/>
<path d="M174.872 15.4287C174.872 16.67 173.939 17.6793 172.791 17.6793C171.643 17.6793 170.71 16.67 170.71 15.4287C170.71 14.1873 171.643 13.178 172.791 13.178C173.939 13.178 174.872 14.1811 174.872 15.4287Z" stroke="white" stroke-width="1.5" stroke-miterlimit="10"/>
<path d="M182.936 15.4287C182.936 16.67 182.002 17.6793 180.855 17.6793C179.707 17.6793 178.773 16.67 178.773 15.4287C178.773 14.1873 179.707 13.178 180.855 13.178C182.002 13.178 182.936 14.1811 182.936 15.4287Z" stroke="white" stroke-width="1.5" stroke-miterlimit="10"/>
<path d="M166.333 20.3628H313.101" stroke="white" stroke-width="1.5" stroke-miterlimit="10"/>
<path d="M301.299 84.5666C299.82 82.4475 297.305 80.504 295.339 81.9585C293.687 83.181 293.629 85.9395 293.757 88.2341C289.079 81.0746 283.514 74.7175 277.293 69.4387C273.92 66.5799 270.047 63.9342 265.908 64.2791C261.769 64.6239 259.618 70.912 260.708 75.6391C249.398 59.4454 236.79 47.96 223.654 38.0232C219.173 34.6315 214.199 31.3589 208.877 29.428C203.219 27.3716 195.411 24.9579 190.298 29.7352C188.107 31.779 186.965 34.9011 186.657 38.0169C186.275 41.8663 186.878 45.9351 187.846 49.6465C190.165 58.5238 193.892 66.8934 198.211 74.7739C202.53 82.6607 212.031 95.6131 212.031 95.6131H305.803C305.078 91.5819 303.525 87.7514 301.299 84.5666Z" fill="#909DF4"/>
<path d="M251.989 79.7518C251.989 79.7518 233.984 62.8686 226.262 60.0035C218.541 57.1384 202.674 61.7401 202.477 61.7401C202.28 61.7401 188.274 95.469 188.274 95.469H245.711L251.989 79.7518Z" fill="#EF9748"/>
<path d="M286.191 125.593C287.507 127.072 288.87 128.502 290.278 129.875C291.641 131.198 293.13 132.376 294.464 133.73C294.794 134.063 295.09 134.433 295.391 134.796C296.475 136.125 297.571 137.467 298.365 139.022C298.469 139.229 298.574 139.442 298.73 139.605C298.887 139.768 299.119 139.868 299.327 139.799C299.548 139.73 299.681 139.498 299.774 139.279C300.156 138.345 300.064 137.266 299.826 136.282C299.675 135.649 299.472 135.028 299.304 134.395C299.171 133.875 298.968 133.31 299.043 132.765C302.898 134.508 306.035 137.668 309.553 140.106C310.272 140.608 311.86 140.796 312.127 140.106C312.481 139.197 307.35 135.085 304.997 132.364C306.771 133.342 308.649 134.37 310.249 135.655C311.356 136.545 312.568 137.31 313.889 137.762C314.631 138.019 316.336 138.395 315.988 136.928C315.884 136.495 315.582 136.157 315.287 135.843C312.991 133.429 310.214 131.731 307.803 129.455C310.521 130.615 313.014 132.69 315.936 132.803C316.22 132.815 316.527 132.796 316.753 132.608C317.095 132.32 317.211 131.919 316.985 131.517C316.765 131.116 316.376 130.859 316.011 130.615C313.304 128.822 310.481 126.84 307.768 125.047C309.223 125.474 310.574 126.245 311.965 126.872C313.362 127.492 314.869 127.975 316.365 127.775C316.846 127.712 317.443 127.373 317.339 126.859C317.286 126.615 317.078 126.445 316.881 126.301C313.588 123.869 310.295 121.43 307.003 118.998C306.081 118.314 305.153 117.631 304.208 116.985C303.066 116.208 301.751 115.631 300.69 114.759C299.861 114.076 298.864 113.575 297.977 112.985C295.785 111.531 293.664 109.957 291.606 108.29" fill="#FFCAA3"/>
<path d="M299.119 132.753C298.082 132.257 297.032 131.806 295.966 131.392" stroke="black" stroke-miterlimit="10"/>
<path d="M305.153 132.358C303.745 131.317 302.29 130.358 300.788 129.48" stroke="black" stroke-miterlimit="10"/>
<path d="M307.814 129.405C306.661 128.615 305.501 127.818 304.348 127.029" stroke="black" stroke-miterlimit="10"/>
<path d="M309.09 125.825C308.232 125.311 307.403 124.74 306.614 124.107" stroke="black" stroke-miterlimit="10"/>
<path d="M230.413 60.53C237.526 62.95 241.091 63.1694 247.456 67.4388C254.216 71.9715 270.94 91.0302 270.94 91.0302C270.94 91.0302 293.508 108.239 301.965 114.741L286.766 130.401C269.96 119.537 252.708 106.566 239.972 90.4848" fill="#EF9748"/>
<path d="M204.611 92.2027C204.611 92.2027 211.666 88.1151 214.768 87.2687C219.069 86.0964 224.165 85.7704 225.533 86.2218C226.17 86.4349 228.582 87.5007 229.84 89.0994C231.179 89.7326 231.724 90.0523 232.518 90.4097C233.312 90.767 233.689 91.7827 234.518 92.5538C235.353 93.3249 236.263 95.4753 236.263 95.4753C236.263 95.4753 229.915 95.5003 228.136 95.563C226.35 95.6257 224.425 99.3058 220.437 100.61" fill="#FFCAA3"/>
<path d="M219.138 57.4956C214.245 57.4518 209.48 56.0725 204.599 56.0725C195.73 56.0662 190.64 61.1005 186.327 68.072C183.063 73.3507 179.985 79.852 177.672 85.6511C174.971 92.422 171.945 99.9577 171.156 107.349C170.797 110.728 171.243 114.22 172.692 117.23C175.365 122.791 181.307 123.762 184.773 124.176C188.24 124.59 194.315 123.33 197.289 121.33C212.941 110.829 223.289 100.309 223.289 100.309L206.448 90.9675L198.367 94.3843L208.57 73.9839" fill="#EF9748"/>
<path d="M207.741 75.6455L198.367 94.3907" stroke="black" stroke-miterlimit="10"/>
<path d="M206.449 90.9675C201.62 92.9925 196.791 95.0238 191.962 97.0488C188.663 98.4343 185.435 101.168 182.803 103.713" stroke="black" stroke-miterlimit="10"/>
<path d="M200.662 93.519L218.111 105.13" stroke="black" stroke-miterlimit="10"/>
<path d="M247.561 84.4287C245.254 88.5602 242.054 95.4627 242.054 95.4627" stroke="black" stroke-miterlimit="10"/>
<path d="M295.803 110.02L278.87 125.267" stroke="black" stroke-miterlimit="10"/>
<path d="M229.184 91.0427C230.413 91.3938 231.659 91.6634 232.917 91.8389C233.305 91.8954 233.711 91.9455 234.041 92.1775" stroke="black" stroke-miterlimit="10"/>
<path d="M230.268 89.4505C230.047 89.3313 229.821 89.2436 229.589 89.1495C228.372 88.6668 227.126 88.1778 225.827 88.2154" stroke="black" stroke-miterlimit="10"/>
<path d="M226.326 96.3152C226.981 95.8011 227.793 95.5691 228.599 95.4814C230.268 95.2933 232.059 95.682 233.659 95.0049" stroke="black" stroke-miterlimit="10"/>
<path d="M163.584 108.66C163.856 115.807 168.071 122.609 174.077 125.599" stroke="black" stroke-miterlimit="10"/>
<path d="M158.907 108.346C159.046 113.011 160.826 117.524 163.585 120.214" stroke="black" stroke-miterlimit="10"/>
<path d="M253.907 63.1255C259.061 67.84 263.843 73.0247 268.191 78.6044" stroke="black" stroke-miterlimit="10"/>
<path d="M254.018 57.5334C257.612 60.4173 260.904 63.7401 263.814 67.4139" stroke="black" stroke-miterlimit="10"/>
<path d="M212.431 67.0001C209.707 65.9406 207.185 64.367 204.698 62.7746C203.643 62.0975 202.576 61.4079 201.724 60.4487C200.872 59.4958 200.246 58.2294 200.269 56.9065C200.292 55.684 200.86 54.543 201.562 53.5838C203.753 50.5933 207.301 49.0448 210.814 48.7C214.327 48.3552 217.851 49.0887 221.283 49.9664C226.443 51.283 231.712 53.0321 235.695 56.825C236.813 57.8908 237.828 59.1259 238.454 60.5929C239.318 62.6179 239.381 64.9563 239.01 67.1506C238.639 69.3449 237.863 71.4263 237.092 73.4951" fill="#EF9748"/>
<path d="M226.389 44.9509L219.45 47.1389L219.607 50.913L216.094 57.3955C216.094 57.3955 224.401 60.875 227.52 67.9656C230.922 68.511 232.285 65.5331 232.285 65.5331L235.63 56.8689" fill="#FFCAA3"/>
<path d="M242.72 52.4803C243.317 48.7626 244.035 44.7314 243.983 41.7723C243.937 39.2646 243.583 35.4779 242.082 33.5094C240.152 30.9766 236.644 30.9389 233.694 30.5816C228.853 29.9985 225.508 34.7381 224.076 39.1705C222.975 42.5748 223.068 45.8912 224.088 49.4021C225.421 53.9849 230.146 60.1414 236.291 59.3891C239.554 58.9878 242.088 56.4237 242.72 52.4803Z" fill="#FFCAA3"/>
<path d="M236.784 44.3552C236.726 44.9069 236.36 45.3206 235.966 45.2705C235.572 45.2203 235.305 44.7313 235.363 44.1796C235.421 43.6279 235.787 43.2142 236.181 43.2644C236.569 43.3083 236.842 43.7972 236.784 44.3552Z" fill="black"/>
<path d="M243.479 45.0386C243.421 45.5903 243.056 46.0041 242.662 45.9539C242.267 45.9038 242.001 45.4147 242.059 44.863C242.117 44.3113 242.482 43.8976 242.876 43.9477C243.27 43.9979 243.537 44.4869 243.479 45.0386Z" fill="black"/>
<path d="M240.511 43.8159C240.361 45.0949 240.482 46.3989 240.488 47.6904C240.488 48.4866 240.517 49.8909 239.561 50.0664C238.934 50.1855 237.566 49.778 237.566 49.778" stroke="black" stroke-miterlimit="10"/>
<path d="M238.099 52.054L235.589 49.772C235.589 49.772 233.745 52.3737 234.696 53.3204C236.232 54.8376 238.099 52.054 238.099 52.054Z" fill="white"/>
<path d="M242.17 34.3055C243.277 36.1801 243.886 37.6847 243.932 43.302C244.46 43.1578 244.999 43.0136 245.474 42.7252C245.949 42.4368 246.367 41.9792 246.506 41.4087C246.767 40.3492 246.036 39.3084 245.996 38.2113C245.967 37.4214 246.303 36.6691 246.697 36.0045C247.004 35.4967 247.358 34.9826 247.433 34.3808C247.538 33.5344 247.045 32.7257 246.46 32.1489C245.149 30.8637 243.393 30.3496 241.886 29.4092C241.155 28.9515 240.767 28.2368 240.094 27.704C239.329 27.0958 238.512 26.5692 237.66 26.1304C235.683 25.1085 233.521 24.563 231.335 24.4627C227.103 24.2684 222.924 25.9736 219.973 29.171C216.072 33.3965 214.507 41.4588 216.953 46.1232C218.333 48.7563 219.596 50.9129 219.596 50.9129C219.753 51.1825 223.127 47.9037 223.335 47.4585C223.544 47.0072 223.625 46.4993 223.753 46.0166C224.187 44.3615 225.712 44.0857 227.016 43.5653C228.918 42.813 229.869 40.9824 230.24 38.9135C230.454 37.7223 230.483 36.5061 230.512 35.2961C230.506 35.5657 232.042 36.1487 232.274 36.2302C234.541 36.9888 237.109 37.1205 239.41 36.4496C240.089 36.249 240.813 35.9983 241.352 35.4967C241.509 35.3588 242.419 34.5751 242.17 34.3055Z" fill="#1E1611"/>
<path d="M227.996 56.0664C228.118 56.1604 230.529 59.0067 235.138 59.4518" stroke="black" stroke-miterlimit="10"/>
<path d="M232.72 40.412C233.131 39.5405 233.949 38.9199 234.841 38.7882C235.734 38.6628 236.679 39.039 237.282 39.7662" stroke="black" stroke-miterlimit="10"/>
<path d="M241.241 40.5309C241.548 39.7974 242.192 39.3272 242.754 39.4275C243.317 39.5341 243.74 40.2049 243.774 40.9948" stroke="black" stroke-miterlimit="10"/>
<path d="M239.195 45.7783C238.61 47.6654 236.754 48.6622 235.056 48.0165C233.357 47.3645 232.453 45.3144 233.039 43.4274C233.624 41.5403 235.479 40.5435 237.178 41.1892C238.876 41.8349 239.781 43.8913 239.195 45.7783Z" stroke="#572A2F" stroke-miterlimit="10"/>
<path d="M245.444 46.6625C245.131 48.6248 243.96 50.0354 242.83 49.816C241.699 49.5903 241.044 47.8223 241.357 45.86C241.67 43.8977 242.841 42.4872 243.972 42.7066C245.096 42.926 245.757 44.7002 245.444 46.6625Z" stroke="#572A2F" stroke-miterlimit="10"/>
<path d="M241.652 44.8128L239.362 44.3489" stroke="#572A2F" stroke-miterlimit="10"/>
<path d="M233.166 43.0701L226.262 43.6406" stroke="#572A2F" stroke-miterlimit="10"/>
<path d="M228.238 44.9884C228.203 43.1766 225.948 41.7597 224.458 42.3365C220.887 43.722 222.093 50.6371 225.409 51.3016C226.348 51.4897 227.693 51.0885 228.029 49.9412" fill="#FFCAA3"/>
<path d="M224.198 45.4211L227.271 48.4241" stroke="black" stroke-miterlimit="10"/>
<path d="M226.662 42.7566C227.41 43.2456 228.013 43.9916 228.378 44.8694" stroke="black" stroke-miterlimit="10"/>
<path d="M222.419 48.0417C222.877 49.5213 223.816 51.0886 225.306 51.3519C226.338 51.5338 227.52 51.0448 227.943 49.8912" stroke="black" stroke-miterlimit="10"/>
<path d="M214.534 37.8602C214.604 35.4277 214.853 32.9764 215.583 30.6693C216.314 28.3685 217.566 26.2056 219.363 24.7448C220.36 23.9361 221.496 23.353 222.65 22.8452C223.618 22.4127 224.609 22.024 225.635 21.792C229.479 20.908 233.467 22.2246 237.067 23.9298" fill="#FFC36C"/>
<path d="M238.795 24.2558C237.844 23.2652 236.615 22.6257 235.34 22.2746C234.581 22.0615 233.792 21.9486 233.004 21.9925C232.598 22.0176 232.192 22.0803 231.787 22.1618C228.998 22.7574 226.488 24.3373 224.071 25.9547C220.842 28.1114 217.625 30.4373 215.259 33.6472C214.407 34.807 213.648 36.1424 213.572 37.6219C213.532 38.4432 213.7 39.2582 213.949 40.0356C214.367 41.3459 215.352 43.2079 216.175 44.2674C223.271 37.089 231.242 31.409 240.441 28.0361C240.395 26.6067 239.746 25.2463 238.795 24.2558Z" fill="#FFC36C"/>
<path d="M214.998 34.0171C214.998 34.0171 220.986 24.9831 232.105 21.9863" stroke="black" stroke-miterlimit="10"/>
<path d="M218.112 35.0327C218.988 36.6753 219.886 38.3429 221.196 39.603" stroke="black" stroke-miterlimit="10"/>
<path d="M225.107 28.2432C226.018 30.312 227.142 32.2807 228.464 34.0925" stroke="black" stroke-miterlimit="10"/>
<path d="M232.534 23.9297C234.065 25.6349 235.375 27.5784 236.412 29.6724" stroke="black" stroke-miterlimit="10"/>
<path d="M235.097 22.9519C236.413 24.7073 237.566 26.7887 238.424 28.8137" stroke="black" stroke-miterlimit="10"/>
<path d="M214.628 36.0486C215.057 38.6503 216.466 40.8571 218.263 42.4245" stroke="black" stroke-miterlimit="10"/>
<path d="M210.53 54.988C213.922 56.361 217.348 57.7465 220.368 59.9094C223.388 62.0724 226.443 65.113 227.521 68.8495" stroke="black" stroke-miterlimit="10"/>
<path d="M229.868 67.7085C231.41 66.906 232.668 65.4703 233.317 63.7588" stroke="black" stroke-miterlimit="10"/>
<path d="M200.263 56.5178C201.834 66.2603 213.718 64.3983 219.254 67.4202" stroke="black" stroke-miterlimit="10"/>
<path d="M239.213 63.5959C238.999 64.9313 238.57 66.2667 237.746 67.2948C236.512 68.8371 234.593 69.4766 232.784 70.0471" stroke="black" stroke-miterlimit="10"/>
<path d="M234.424 67.7083C235.247 73.8334 236.082 80.7045 235.821 86.8861" stroke="black" stroke-miterlimit="10"/>
<path d="M221.833 66.304C222.691 68.8493 222.291 75.7518 222.198 81.9835" stroke="black" stroke-miterlimit="10"/>
<path d="M279.351 244.71H150.287C148.281 244.71 146.652 242.948 146.652 240.779V146.269H282.986V240.779C282.986 242.948 281.357 244.71 279.351 244.71Z" fill="#D4BCDD"/>
<path d="M279.351 133.53C281.356 133.53 282.985 135.292 282.985 137.461V240.779C282.985 242.948 281.356 244.71 279.351 244.71H150.286C148.281 244.71 146.652 242.948 146.652 240.779V137.461C146.652 135.292 148.281 133.53 150.286 133.53H279.351ZM279.351 132.59H150.286C147.8 132.59 145.782 134.778 145.782 137.461V240.779C145.782 243.469 147.805 245.65 150.286 245.65H279.351C281.838 245.65 283.855 243.462 283.855 240.779V137.461C283.855 134.771 281.832 132.59 279.351 132.59Z" fill="white"/>
<path d="M157.029 140.269C157.029 141.78 155.898 143.003 154.501 143.003C153.104 143.003 151.974 141.78 151.974 140.269C151.974 138.758 153.104 137.536 154.501 137.536C155.892 137.536 157.029 138.765 157.029 140.269Z" stroke="white" stroke-width="1.5" stroke-miterlimit="10"/>
<path d="M164.298 143.003C165.694 143.003 166.825 141.779 166.825 140.269C166.825 138.76 165.694 137.536 164.298 137.536C162.902 137.536 161.771 138.76 161.771 140.269C161.771 141.779 162.902 143.003 164.298 143.003Z" stroke="white" stroke-width="1.5" stroke-miterlimit="10"/>
<path d="M146.652 146.269H282.986" stroke="white" stroke-width="1.5" stroke-miterlimit="10"/>
<path d="M269.884 244.71C268.052 239.826 265.56 235.256 262.51 231.2C260.638 228.711 258.464 226.341 255.722 225.244C252.98 224.147 249.554 224.629 247.687 227.124C246.261 229.03 245.989 231.67 245.774 234.146C241.253 228.899 236.679 223.601 231.166 219.708C225.653 215.815 218.963 213.05 212.581 214.561C205.503 216.241 205.503 225.915 205.503 225.915C205.503 225.915 201.161 219.338 200.772 218.717C197.868 214.128 194.587 209.921 191.091 205.884C187.66 201.922 184.396 197.746 180.529 194.286C176.68 190.838 170.425 186.43 165.248 188.518C162.553 189.603 161.811 192.129 162.408 195.044C162.964 197.772 163.26 200.505 164.043 203.188C159.689 197.941 154.733 193.107 148.988 189.841C144.843 187.484 136.194 183.49 131.893 187.352C130.652 188.468 130.09 190.311 130.049 192.085C129.823 202.944 137.058 214.617 142.889 222.642C148.872 230.874 156.083 238.165 163.556 244.716H269.884V244.71Z" fill="#FFDD99"/>
<path d="M243.689 195.646C242.918 200.261 243.144 205.032 243.167 209.752C243.19 214.467 243.538 217.558 241.961 221.84C240.535 225.708 237.561 227.018 236.008 230.805C235.219 232.736 232.216 244.704 232.216 244.704H191.945C191.945 244.704 190.814 225.883 197.029 209.828C203.237 193.766 211.005 190.888 211.005 190.888L233.915 184.5L243.689 195.646Z" fill="#735D9D"/>
<path d="M296.452 167.572C297.646 166.011 299.315 165.033 300.747 163.767C302.069 162.601 303.055 160.958 304.144 159.547C305.483 157.817 306.521 155.849 307.681 153.98C308.927 151.974 310.521 150.357 312.104 148.67C312.324 148.438 312.55 148.194 312.672 147.887C312.898 147.335 312.637 146.614 312.051 146.445C310.909 146.112 309.692 146.426 308.585 146.877C307.93 147.147 305.698 147.999 305.559 146.639C305.408 145.103 306.596 142.859 307.049 141.442C307.64 139.592 308.249 137.737 308.73 135.843C309.188 134.044 309.083 130.583 308.196 130.527C307.31 130.47 307.976 131.041 307.75 131.179C308.121 130.652 307.472 129.436 306.944 129.072C306.411 128.709 305.721 129.887 305.565 130.521C305.744 129.9 305.246 128.878 304.817 128.834C304.197 128.771 303.715 129.405 303.344 129.925C302.973 130.445 302.649 131.022 302.127 131.367C302.133 130.922 302.069 130.477 301.947 130.05C301.542 129.806 301.078 130.213 300.788 130.583C294.852 138.163 290.834 147.561 284.255 154.858" fill="#E27769"/>
<path d="M305.698 145.592C305.722 147.46 305.675 149.322 305.565 151.184" stroke="black" stroke-miterlimit="10"/>
<path d="M307.558 130.728C307.042 132.489 306.04 133.975 305.286 135.618C304.086 138.226 303.019 140.896 301.906 143.548" stroke="black" stroke-miterlimit="10"/>
<path d="M305.518 130.383C305.158 131.204 304.741 132.007 304.283 132.765C303.79 133.586 303.24 134.364 302.712 135.154C301.199 137.417 299.837 139.799 298.637 142.276" stroke="black" stroke-miterlimit="10"/>
<path d="M301.919 131.643C301.519 132.564 300.864 133.323 300.25 134.094C298.319 136.508 296.655 139.172 295.311 142.012" stroke="black" stroke-miterlimit="10"/>
<path d="M222.354 186.988C229.56 183.728 234.279 180.305 241.415 176.826C247.85 173.691 256.876 171.121 263.217 167.779C271.988 163.152 280.214 158.049 287.42 151.053L300.515 165.967C300.515 165.967 282.006 186.387 275.542 190.368C259.971 199.96 254.296 201.759 238.111 210.912" fill="#735D9D"/>
<path d="M242.981 208.348C243.074 204.825 243.816 201.326 245.155 198.11" stroke="black" stroke-miterlimit="10"/>
<path d="M283.05 154.977L296.035 170.745" stroke="black" stroke-miterlimit="10"/>
<path d="M220.256 230.221C225.751 230.334 231.218 231.268 235.983 234.397C238.267 235.901 239.543 237.908 240.174 240.697C240.708 243.055 240.882 245.575 240.685 247.989C240.667 248.221 240.505 248.428 240.319 248.478C240.058 248.547 239.543 248.265 239.543 248.265C239.543 248.265 240.012 250.659 239.514 251.161C239.166 251.506 238.516 251.036 238.273 250.747C237.989 250.409 237.595 249.55 237.595 249.55C237.595 249.55 237.925 250.923 237.647 251.161C237.235 251.512 236.047 250.622 235.769 249.719C235.595 250.233 235.317 250.703 234.876 250.578C233.502 250.183 232.43 248.083 231.299 247.042C229.798 245.656 227.786 245.562 225.914 245.594C225.05 245.606 224.186 245.631 223.328 245.537C222.447 245.443 221.653 245.067 220.795 244.879C219.195 244.528 217.526 244.371 215.908 244.265" fill="#E27769"/>
<path d="M230.401 242.597C231.909 243.274 233.509 244.027 234.355 245.425C234.61 245.845 234.784 246.302 234.94 246.766C235.271 247.738 235.52 248.735 235.769 249.732" stroke="black" stroke-miterlimit="10"/>
<path d="M232.563 239.65C233.421 240.24 234.262 240.867 234.987 241.638C235.711 242.403 236.326 243.318 236.656 244.359C236.847 244.954 236.94 245.575 237.033 246.196C237.23 247.468 237.433 248.747 237.642 250.02" stroke="black" stroke-miterlimit="10"/>
<path d="M235.509 237.625C236.935 238.779 238.054 240.371 238.691 242.171C239.254 243.763 239.445 245.475 239.63 247.167C239.688 247.7 239.746 248.239 239.804 248.772" stroke="black" stroke-miterlimit="10"/>
<path d="M214.204 188.129C214.204 188.129 202.836 189.947 198.471 192.656C191.648 196.894 188.651 203.358 184.303 214.329C179.956 225.294 178.193 230.109 178.153 233.745C178.089 239.093 180.315 244.704 189.416 244.704C205.625 244.704 218.43 244.704 218.43 244.704L224.285 229.914L201.706 226.096L207.938 210.323" fill="#735D9D"/>
<path d="M224.291 229.914L201.712 226.09L207.944 210.316" stroke="black" stroke-miterlimit="10"/>
<path d="M193.694 228.347C193.868 228.347 197.306 226.034 201.712 226.09" stroke="black" stroke-miterlimit="10"/>
<path d="M218.059 228.861L211.868 244.704" stroke="black" stroke-miterlimit="10"/>
<path d="M231.834 191.897C232.13 190.23 232.124 188.449 231.875 186.656" stroke="black" stroke-miterlimit="10"/>
<path d="M207.775 191.477C209.028 194.863 211.798 197.665 214.825 199.101C218.639 200.906 223.804 201.239 227.45 198.831C229.149 197.709 230.314 196.229 231.05 194.543" stroke="black" stroke-miterlimit="10"/>
<path d="M271.896 197.815C278.684 194.079 284.887 189.107 290.179 183.177" stroke="black" stroke-miterlimit="10"/>
<path d="M284.557 194.267C287.849 191.509 290.933 188.468 293.774 185.177" stroke="black" stroke-miterlimit="10"/>
<path d="M175.695 224.517C174.257 229.582 173.741 234.949 174.182 240.221" stroke="black" stroke-miterlimit="10"/>
<path d="M171.162 225.275C170.258 228.115 169.736 231.105 169.632 234.108" stroke="black" stroke-miterlimit="10"/>
<path d="M218.013 173.008L211.793 177.515L213.132 182.324L211.265 189.571C211.143 190.035 211.219 190.524 211.468 190.926C212.482 192.562 215.636 196.624 221.879 196.618C228.482 196.612 228.389 191.872 228.389 191.872L229.589 181.785" fill="#E27769"/>
<path d="M230.517 172.412C228.807 168.964 227.833 166.839 226.036 164.463C224.517 162.45 221.99 159.61 219.607 159.046C216.54 158.319 213.654 160.707 211.045 162.457C206.755 165.322 206.831 171.497 208.28 176.099C209.393 179.635 211.694 180.982 214.593 183.133C218.384 185.948 226.627 187.22 230.169 184.136C232.818 181.816 232.331 176.061 230.517 172.412Z" fill="#E27769"/>
<path d="M221.353 172.105C221.556 172.638 221.416 173.208 221.034 173.378C220.657 173.547 220.188 173.246 219.985 172.713C219.782 172.18 219.921 171.61 220.303 171.44C220.68 171.277 221.15 171.572 221.353 172.105Z" fill="black"/>
<path d="M227.439 168.481C227.642 169.014 227.502 169.585 227.12 169.754C226.743 169.923 226.273 169.622 226.071 169.089C225.868 168.557 226.007 167.986 226.389 167.817C226.766 167.648 227.236 167.942 227.439 168.481Z" fill="black"/>
<path d="M224.181 170.801C224.865 171.459 225.682 171.898 226.505 172.312C227.015 172.569 228.714 173.058 228.337 173.948C228.094 174.525 227.102 175.428 227.102 175.428" stroke="black" stroke-miterlimit="10"/>
<path d="M211.741 187.728C211.741 187.728 212.518 185.578 212.704 184.813C213.022 183.515 212.014 183.453 211.666 182.305C211.486 181.71 211.631 180.982 211.759 180.393C212.02 179.127 212.622 177.71 212.083 176.431C211.741 175.622 211.011 175.108 210.42 174.487C209.834 173.867 209.353 172.92 209.707 172.118C210.124 171.165 211.353 171.096 212.106 170.431C212.86 169.767 213.034 168.601 212.988 167.547C212.935 166.5 212.715 165.441 212.883 164.406C212.912 164.218 212.964 164.024 213.08 163.892C213.451 163.479 214.06 163.88 214.524 164.162C215.353 164.67 216.361 164.607 217.231 164.225C217.672 164.03 218.077 163.679 218.234 163.196C218.332 162.895 218.332 162.569 218.379 162.256C218.425 161.943 218.541 161.617 218.79 161.447C218.97 161.328 219.196 161.309 219.411 161.322C220.083 161.353 220.744 161.61 221.283 162.043C221.735 162.406 221.99 162.67 222.558 162.645C223.103 162.62 223.631 162.425 224.176 162.601C224.837 162.808 225.271 163.46 225.66 164.074C226.726 165.754 227.799 167.441 228.866 169.121C229.399 168.287 229.944 167.434 230.205 166.463C230.466 165.491 230.408 164.356 229.816 163.566C229.248 162.808 228.274 162.469 227.787 161.642C227.254 160.726 227.335 159.41 227.277 158.375C227.213 157.247 226.895 156.106 226.298 155.153C225.718 154.231 224.75 153.517 223.724 153.598C223.132 153.648 222.564 153.955 221.967 153.937C221.602 153.924 221.243 153.786 220.906 153.629C219.341 152.902 217.985 151.724 216.425 150.984C214.866 150.244 212.906 150.018 211.562 151.147C210.872 151.724 210.414 152.601 209.66 153.084C207.492 154.476 204.385 151.855 202.321 153.416C200.988 154.426 200.947 156.601 199.828 157.874C198.397 159.498 195.788 159.071 194.159 160.469C192.518 161.88 192.513 164.689 193.498 166.695C193.985 167.685 194.692 168.701 194.484 169.798C194.35 170.481 193.887 171.021 193.492 171.572C192.924 172.362 192.466 173.271 192.35 174.262C192.234 175.252 192.518 176.331 193.226 176.976C193.666 177.378 194.333 177.566 194.663 178.086C195.034 178.669 195.144 179.716 195.214 180.399C195.278 181.001 195.284 181.622 195.458 182.199C195.915 183.779 197.533 184.725 199.069 184.725C199.776 184.725 200.553 184.581 201.139 185.014C201.62 185.371 201.817 186.023 202.112 186.575C203.063 188.361 205.376 189.107 207.08 188.186C207.718 187.841 208.309 187.283 209.028 187.271C209.73 187.258 211.069 187.854 211.741 187.728Z" fill="#2C221D"/>
<path d="M221.74 185.747C223.659 186.261 227.288 186.374 230.042 184.493" stroke="black" stroke-miterlimit="10"/>
<path d="M216.558 171.942C216.552 169.861 217.821 167.867 219.897 168.262" stroke="black" stroke-miterlimit="10"/>
<path d="M223.7 166.764C223.636 166.174 224.048 165.478 224.668 165.14C225.288 164.801 226.059 164.851 226.488 165.234" stroke="black" stroke-miterlimit="10"/>
<path d="M215.103 177.954C214.008 176.506 211.33 176.907 210.46 178.406C208.367 182.004 213.434 186.807 216.529 185.057C217.405 184.562 218.269 183.308 217.857 182.142" fill="#E27769"/>
<path d="M212.07 181.095L216.343 181.421" stroke="black" stroke-miterlimit="10"/>
<path d="M212.5 177.221C213.399 177.101 214.332 177.29 215.143 177.76" stroke="black" stroke-miterlimit="10"/>
<path d="M212.163 184.462C213.409 185.352 215.102 185.979 216.47 185.164C217.421 184.6 218.093 183.383 217.757 182.148" stroke="black" stroke-miterlimit="10"/>
<path d="M224.847 175.772C224.569 176.888 224.911 178.349 226.093 178.581C226.98 178.757 227.937 178.167 228.227 177.239" stroke="black" stroke-miterlimit="10"/>
<path d="M461.313 112.365H332.098C330.092 112.365 328.463 110.603 328.463 108.434V39.3523H464.947V108.434C464.947 110.603 463.318 112.365 461.313 112.365Z" fill="#D5D8BC"/>
<path d="M461.312 28.8701C463.318 28.8701 464.947 30.6318 464.947 32.8009V108.434C464.947 110.603 463.318 112.365 461.312 112.365H332.097C330.091 112.365 328.462 110.603 328.462 108.434V32.8009C328.462 30.6318 330.091 28.8701 332.097 28.8701H461.312ZM461.312 27.9297H332.097C329.61 27.9297 327.593 30.1177 327.593 32.8009V108.434C327.593 111.123 329.616 113.305 332.097 113.305H461.312C463.799 113.305 465.816 111.117 465.816 108.434V32.8009C465.816 30.1114 463.793 27.9297 461.312 27.9297Z" fill="white"/>
<path d="M334.92 32.1677C336.068 32.1677 337.002 33.1771 337.002 34.4184C337.002 35.6597 336.068 36.6691 334.92 36.6691C333.773 36.6691 332.839 35.6597 332.839 34.4184C332.839 33.1771 333.767 32.1677 334.92 32.1677ZM334.92 31.2273C333.291 31.2273 331.97 32.6567 331.97 34.4184C331.97 36.18 333.291 37.6095 334.92 37.6095C336.549 37.6095 337.871 36.18 337.871 34.4184C337.865 32.6567 336.544 31.2273 334.92 31.2273Z" fill="white"/>
<path d="M342.985 32.1677C344.133 32.1677 345.066 33.1771 345.066 34.4184C345.066 35.6597 344.133 36.6691 342.985 36.6691C341.837 36.6691 340.904 35.6597 340.904 34.4184C340.904 33.1771 341.837 32.1677 342.985 32.1677ZM342.985 31.2273C341.356 31.2273 340.034 32.6567 340.034 34.4184C340.034 36.18 341.356 37.6095 342.985 37.6095C344.614 37.6095 345.936 36.18 345.936 34.4184C345.936 32.6567 344.608 31.2273 342.985 31.2273Z" fill="white"/>
<path d="M328.463 39.3523H464.947" stroke="white" stroke-width="1.5" stroke-miterlimit="10"/>
<path d="M446.31 99.3121C443.753 94.6979 441.046 89.9019 436.849 87.087C432.652 84.272 426.507 84.1655 423.371 88.3283C420.594 92.0209 421.11 97.4 421.777 102.133C418.687 97.8639 415.064 94.0647 411.047 90.8611C407.945 88.391 404.525 86.2406 400.763 85.4695C396.856 84.667 392.392 85.551 389.186 88.1653C384.81 91.7325 384.873 97.3498 385.308 102.773C379.992 91.883 374.091 81.0747 365.911 72.3666C363.795 70.1159 361.309 68.1599 358.445 67.301C356.804 66.8057 354.949 66.7117 353.483 67.6396C351.245 69.0501 350.654 72.235 350.59 75.0373C350.515 78.4165 350.874 81.8019 351.657 85.0745C350.23 83.4131 348.346 82.1906 346.288 81.7643C341.552 80.7863 336.88 84.6545 336.613 89.9144C336.335 95.3812 339.407 100.604 341.761 105.199C342.66 106.948 343.576 108.691 344.59 110.365C344.787 110.691 345.541 112.315 345.999 112.315H453.092C450.826 108.233 448.571 103.387 446.31 99.3121Z" fill="#B5AE6B"/>
<mask id="mask1_1004_576" style="mask-type:luminance" maskUnits="userSpaceOnUse" x="328" y="28" width="137" height="85">
<path d="M461.313 112.365H332.098C330.092 112.365 328.463 110.603 328.463 108.434V32.801C328.463 30.6318 330.092 28.8701 332.098 28.8701H461.313C463.318 28.8701 464.947 30.6318 464.947 32.801V108.434C464.947 110.603 463.318 112.365 461.313 112.365Z" fill="white"/>
</mask>
<g mask="url(#mask1_1004_576)">
<path d="M455.684 107.186L419.864 32.9451L409.685 32.2993L401.691 39.3523L381.129 55.5208L404.247 128.784L455.684 107.186Z" fill="white"/>
<path d="M388.387 54.4551C390.387 56.2544 393.169 56.9879 395.708 56.386" stroke="black" stroke-miterlimit="10"/>
<path d="M398.212 55.5208C400.716 54.6118 402.936 52.8125 404.455 50.4803C405.974 48.1418 406.774 45.2705 406.716 42.418" stroke="black" stroke-miterlimit="10"/>
<path d="M445.91 79.5826C439.713 66.7995 421.116 26.5192 416.206 28.5003C410.577 30.776 404.241 36.6441 404.241 36.6441C404.241 36.6441 407.273 47.1452 407.505 48.142C408.345 51.7719 409.215 55.3956 410.108 59.013C412.328 68.0157 414.311 77.1501 417.053 85.9898C419.841 94.9675 422.931 103.839 426.258 112.597C427.592 116.108 428.664 120.22 431.209 122.973C432.652 124.559 434.664 125.668 436.716 125.468C438.13 125.336 439.429 124.609 440.687 123.894C446.223 120.759 461.649 113.286 461.649 113.286C461.649 113.286 453.724 95.7073 445.91 79.5826Z" fill="#4C4139"/>
<path d="M414.31 128.709C412.803 122.778 410.223 117.318 408.316 111.55C405.818 104.008 403.597 96.353 401.023 88.8424C397.093 77.3758 391.516 61.527 387.25 50.2046C387.25 50.2046 379.424 55.057 377.847 56.2357C376.27 57.4143 376.612 60.2167 376.612 60.2167C382.838 85.3378 401.702 142.382 401.702 142.382C403.934 141.103 409.475 137.743 411.707 136.464C414.646 134.778 415.157 132.044 414.31 128.709Z" fill="#4C4139"/>
<path d="M379.395 55.1763C386.629 67.1945 392.258 76.9809 399.8 88.7735" stroke="black" stroke-miterlimit="10"/>
<path d="M414.062 31.5344C415.563 47.4773 416.479 63.4828 416.803 79.5009" stroke="black" stroke-miterlimit="10"/>
</g>
<path d="M338.979 116.64C337.471 117.882 335.918 119.067 334.33 120.189C332.793 121.267 331.153 122.183 329.646 123.298C329.275 123.574 328.927 123.888 328.579 124.195C327.315 125.33 326.04 126.471 325.037 127.875C324.904 128.063 324.77 128.257 324.591 128.389C324.411 128.521 324.167 128.583 323.97 128.483C323.767 128.377 323.663 128.126 323.605 127.894C323.362 126.91 323.611 125.856 323.982 124.922C324.22 124.32 324.509 123.744 324.764 123.148C324.973 122.653 325.251 122.132 325.257 121.581C321.199 122.659 317.646 125.254 313.826 127.085C313.043 127.461 311.449 127.38 311.281 126.653C311.06 125.693 316.718 122.49 319.425 120.195C317.536 120.866 315.53 121.568 313.768 122.571C312.544 123.267 311.24 123.819 309.872 124.044C309.101 124.17 307.368 124.264 307.918 122.872C308.081 122.465 308.429 122.176 308.765 121.919C311.379 119.919 314.359 118.697 317.072 116.854C314.22 117.543 311.46 119.18 308.562 118.803C308.278 118.766 307.976 118.697 307.785 118.471C307.489 118.133 307.431 117.712 307.71 117.355C307.988 116.998 308.405 116.803 308.8 116.622C311.733 115.305 314.805 113.819 317.733 112.496C316.231 112.678 314.794 113.211 313.321 113.594C311.855 113.976 310.295 114.202 308.846 113.75C308.376 113.606 307.837 113.174 308.017 112.685C308.104 112.446 308.336 112.321 308.544 112.208C312.144 110.352 315.744 108.497 319.344 106.641C320.353 106.121 321.367 105.6 322.393 105.124C324.625 104.083 326.782 102.898 329.019 101.857C331.367 100.767 333.732 99.7133 336.103 98.6914" fill="#D16159"/>
<path d="M325.182 121.556C326.277 121.242 327.379 120.966 328.492 120.734" stroke="black" stroke-miterlimit="10"/>
<path d="M319.275 120.158C320.812 119.361 322.388 118.659 323.994 118.045" stroke="black" stroke-miterlimit="10"/>
<path d="M317.065 116.791C318.318 116.201 319.576 115.612 320.828 115.023" stroke="black" stroke-miterlimit="10"/>
<path d="M316.324 113.048C317.246 112.684 318.144 112.258 319.014 111.763" stroke="black" stroke-miterlimit="10"/>
<path d="M377.842 56.2356C375.164 58.1665 372.509 60.3232 370.81 62.3231C368.08 65.533 352.045 86.554 352.045 86.554C352.045 86.554 335.616 97.2682 326.202 103.186L336.498 121.324C336.498 121.324 355.581 113.901 365.314 106.509C374.161 99.7885 391.099 77.7644 391.099 77.7644" fill="#4C4139"/>
<path d="M384.555 86.5541L379.396 69.2007" stroke="black" stroke-miterlimit="10"/>
<path d="M334.868 97.6694L346.288 116.86" stroke="black" stroke-miterlimit="10"/>
<path d="M333.465 115.976L342.943 111.23" stroke="black" stroke-miterlimit="10"/>
<path d="M339.813 110.992C339.859 111.462 339.546 111.882 339.111 111.938C338.677 111.989 338.288 111.65 338.236 111.18C338.19 110.71 338.503 110.29 338.937 110.233C339.372 110.183 339.761 110.522 339.813 110.992Z" stroke="black" stroke-miterlimit="10"/>
<path d="M335.181 113.267C335.62 113.267 335.975 112.883 335.975 112.408C335.975 111.934 335.62 111.55 335.181 111.55C334.742 111.55 334.387 111.934 334.387 112.408C334.387 112.883 334.742 113.267 335.181 113.267Z" stroke="black" stroke-miterlimit="10"/>
<path d="M351.934 86.811C351.923 86.6982 351.905 86.5791 351.894 86.4662C354.079 85.7578 356.172 84.692 358.067 83.3127" stroke="black" stroke-miterlimit="10"/>
<path d="M359.662 66.3606C362.769 62.3231 366.566 58.9126 370.81 56.3547" stroke="black" stroke-miterlimit="10"/>
<path d="M362.167 57.1385C365.106 54.775 368.318 52.8064 371.703 51.3018" stroke="black" stroke-miterlimit="10"/>
<path d="M393.587 24.1243L395.882 31.4719L404.068 40.0358C404.068 40.0358 404.282 45.1327 399.65 50.4742C395.053 55.7717 390.08 52.217 390.08 52.217L384.138 42.7692" fill="#D16159"/>
<path d="M374.421 43.277C373.482 40.017 372.294 32.9765 372.38 30.2995C372.456 28.03 373.088 25.8107 374.467 24.0553C376.247 21.7983 380.427 22.6071 383.099 22.3312C387.487 21.8798 390.224 27.5034 391.464 31.5283C392.415 34.6253 392.867 37.8102 391.893 40.9699C390.316 46.1045 385.256 51.2892 379.899 49.8848C376.995 49.1263 375.337 46.4367 374.421 43.277Z" fill="#D16159"/>
<path d="M397.725 23.209C397.024 22.3939 396.056 21.7607 395.743 20.695C395.569 20.1056 395.302 18.3502 395.122 17.7609C394.143 14.4883 391.604 13.3912 388.723 13.9304C388.415 10.802 385.343 10.4948 382.821 10.4634C381.772 10.4509 380.7 10.3381 379.76 9.7989C378.763 9.22212 377.865 8.40711 376.7 8.28799C375.662 8.18142 374.595 8.5513 373.737 9.1657C370.746 11.291 369.894 15.4037 366.23 16.645C365.071 17.04 363.865 17.1528 362.862 17.9741C362.114 18.5885 361.564 19.5038 361.459 20.5069C361.309 21.9426 362.19 22.8203 363.094 23.6917C364.149 24.7136 364.769 26.0113 364.682 27.5599C364.63 28.5003 364.398 29.4156 364.259 30.3434C363.865 32.9891 364.648 35.4843 366.694 37.0892C367.123 37.4277 367.708 37.7412 369.291 38.1111C370.404 38.3744 373.297 37.923 373.297 37.923C373.297 37.923 372.584 33.4279 372.595 31.6725C372.607 30.0049 373.076 28.4564 373.981 27.1273C374.752 25.9925 376.433 25.5913 377.679 25.654C379.552 25.748 381.349 26.864 383.21 26.6257C383.986 26.5254 384.723 26.1743 385.331 25.6477C387.841 27.4031 390.433 29.9861 391.012 33.1333C391.041 33.29 391.412 35.1583 391.279 35.1896C393.43 34.7006 396.137 34.5125 397.105 31.9734C397.435 31.0957 397.273 30.1742 397.522 29.2902C397.731 28.5567 398.34 28.0175 398.624 27.3091C399.163 25.9424 398.664 24.2935 397.725 23.209Z" fill="#2C221D"/>
<path d="M388.786 32.7506C388.896 30.7256 391.482 29.2461 393.122 29.9608C397.064 31.6786 395.435 39.3647 391.696 39.9478C390.635 40.1108 389.146 39.603 388.821 38.299" fill="#D16159"/>
<path d="M393.285 33.4277L389.731 36.6439" stroke="black" stroke-miterlimit="10"/>
<path d="M390.642 30.3308C389.784 30.8386 389.076 31.6474 388.636 32.6191" stroke="black" stroke-miterlimit="10"/>
<path d="M395.175 36.4434C394.601 38.0796 393.488 39.7849 391.813 40.0106C390.647 40.1673 389.349 39.5655 388.92 38.2489" stroke="black" stroke-miterlimit="10"/>
<path d="M387.471 48.0728C387.471 48.0728 389.384 46.7563 390.642 43.8599" stroke="black" stroke-miterlimit="10"/>
<path d="M377.615 35.4902C377.795 37.2958 377.975 39.1014 378.166 40.9006C378.195 41.1514 378.224 41.4147 378.386 41.5965C379.018 42.3175 380.456 41.9727 381.128 41.5401" stroke="black" stroke-miterlimit="10"/>
<path d="M382.699 42.2864L379.812 44.1107C379.812 44.1107 380.931 46.4241 382.044 45.9727C384.131 45.1264 382.699 42.2864 382.699 42.2864Z" fill="white"/>
<path d="M379.088 31.5909C379.384 30.9326 379.992 30.4938 380.636 30.2681C381.72 29.8919 382.966 30.0737 383.911 30.7571" stroke="black" stroke-miterlimit="10"/>
<path d="M372.347 34.2116C372.451 33.522 372.816 33.0017 373.239 32.6882C373.958 32.1616 374.886 32.1678 375.686 32.7007" stroke="black" stroke-miterlimit="10"/>
<path d="M382.902 34.2805C383.047 34.9513 382.781 35.5971 382.294 35.7224C381.813 35.8478 381.302 35.4027 381.152 34.7256C381.007 34.0548 381.273 33.4091 381.76 33.2837C382.242 33.1646 382.752 33.6097 382.902 34.2805Z" fill="black"/>
<path d="M376.254 36.4245C376.399 37.0953 376.132 37.741 375.645 37.8664C375.164 37.9918 374.654 37.5467 374.503 36.8696C374.358 36.1988 374.625 35.553 375.112 35.4276C375.593 35.3022 376.103 35.7474 376.254 36.4245Z" fill="black"/>
<path d="M374.497 26.5315C373.257 27.2525 372.718 28.8261 371.877 30.0548C370.521 32.0297 368.173 33.1582 365.906 32.9199" stroke="#635149" stroke-miterlimit="10"/>
<path d="M385.54 25.4719C386.665 24.3497 387.47 22.8639 387.824 21.2527" stroke="#635149" stroke-miterlimit="10"/>
<path d="M490.831 191.415H393.68C391.674 191.415 390.045 189.653 390.045 187.484V112.835H494.472V187.484C494.466 189.653 492.837 191.415 490.831 191.415Z" fill="#F9D4BB"/>
<path d="M490.832 102.346C492.838 102.346 494.467 104.108 494.467 106.277V187.477C494.467 189.647 492.838 191.408 490.832 191.408H393.68C391.674 191.408 390.045 189.647 390.045 187.477V106.284C390.045 104.114 391.674 102.353 393.68 102.353H490.832M490.832 101.406H393.68C391.193 101.406 389.176 103.594 389.176 106.277V187.477C389.176 190.167 391.199 192.349 393.68 192.349H490.832C493.319 192.349 495.336 190.161 495.336 187.477V106.284C495.336 103.594 493.319 101.406 490.832 101.406Z" fill="white"/>
<path d="M398.578 107.901C398.578 109.142 397.645 110.152 396.497 110.152C395.349 110.152 394.416 109.142 394.416 107.901C394.416 106.66 395.349 105.65 396.497 105.65C397.651 105.65 398.578 106.653 398.578 107.901Z" stroke="white" stroke-width="1.5" stroke-miterlimit="10"/>
<path d="M406.641 107.901C406.641 109.142 405.707 110.152 404.56 110.152C403.412 110.152 402.479 109.142 402.479 107.901C402.479 106.66 403.412 105.65 404.56 105.65C405.713 105.65 406.641 106.653 406.641 107.901Z" stroke="white" stroke-width="1.5" stroke-miterlimit="10"/>
<path d="M390.045 112.835H494.466" stroke="white" stroke-width="1.5" stroke-miterlimit="10"/>
<path d="M467.55 161.159C465.156 160.707 464.483 167.66 465.631 169.973C462.483 165.102 458.495 157.642 455.347 152.777C451.817 147.316 447.597 140.514 441.226 138.733C435.487 137.129 432.495 142.539 432.403 148.056C432.316 153.341 432.808 158.67 433.713 163.855C434.698 169.51 435.979 175.954 438.826 180.888C435.8 175.641 430.959 173.867 425.545 174.356C423.023 174.581 420.403 175.503 418.814 177.628C416.27 181.026 417.226 187.208 418.31 191.421C420.675 191.421 423.04 191.421 425.411 191.421C437.997 191.421 487.862 191.446 487.862 191.446C487.862 191.446 475.312 162.626 467.55 161.159Z" fill="#EF9748"/>
<path d="M395.232 151.36C384.855 151.529 374.571 149.153 364.647 145.88C354.722 142.608 336.642 135.429 336.642 135.429L331.477 152.288C331.477 152.288 358.206 170.6 393.777 173.729" fill="#E27769"/>
<path d="M417.453 155.943C410.537 149.598 395.558 150.05 391.262 150.231C386.966 150.413 379.314 149.04 379.314 149.04L376.497 174.437C376.497 174.437 392.404 177.321 401.25 178.023" fill="#2C221D"/>
<path d="M397.969 162.03C399.053 165.34 398.56 170.212 398.572 173.729C398.583 176.863 399.604 178.606 400.027 181.703C400.537 185.408 402.485 188.054 404.531 191.408H448.582L446.263 164.995L440.269 155.623L427.609 151.974L399.024 160.105" fill="#2C221D"/>
<path d="M411.8 155.623C411.36 157.303 411.041 159.184 411.307 160.921C411.62 162.958 412.815 164.237 414.519 164.996" stroke="#6D574E" stroke-miterlimit="10"/>
<path d="M416.682 165.56C424.49 167.071 432.705 161.04 433.487 153.354" stroke="#6D574E" stroke-miterlimit="10"/>
<path d="M475.411 188.368C474.779 186.38 473.585 184.656 472.362 183.02C468.994 178.525 465.226 174.375 461.122 170.663L446.38 185.177L455.504 194.737L444.85 215.62L458.983 219.984C458.983 219.984 469.8 207.069 473.939 199.866C475.968 196.33 476.675 192.33 475.411 188.368Z" fill="#E27769"/>
<path d="M447.666 210.937C447.666 210.937 441.487 220.554 440.861 222.291C440.298 223.852 439.991 225.802 439.771 227.463C439.162 232.046 441.435 236.754 443.145 238.98C443.336 239.23 443.626 239.393 443.91 239.45C444.542 239.575 444.797 239.224 444.785 238.409C445.133 238.917 445.481 239.425 445.823 239.939C445.968 240.152 446.119 240.365 446.321 240.478C446.716 240.691 447.208 240.434 447.51 240.014C447.811 239.6 447.968 239.055 448.113 238.535C448.478 239.111 449.052 239.713 449.597 239.362C450.147 239.011 450.623 237.738 450.495 237.011C450.675 237.651 451.463 237.669 451.892 237.205C452.321 236.741 452.478 236.008 452.605 235.325C452.93 233.601 453.237 231.814 454.014 230.309C454.536 229.3 455.243 228.466 455.863 227.551C457.875 224.554 458.872 220.736 459.521 216.974" fill="#E27769"/>
<path d="M451.725 225.764C451.446 226.429 451.168 227.1 450.89 227.764C450.664 228.303 450.438 228.849 450.258 229.407C449.446 231.908 449.58 234.773 450.623 237.149" stroke="black" stroke-miterlimit="10"/>
<path d="M447.07 225.52C446.501 228.548 446.27 232.19 446.675 234.466C446.936 235.939 447.533 237.343 448.264 238.61" stroke="black" stroke-miterlimit="10"/>
<path d="M443.001 224.378C443.001 224.378 442.635 226.61 442.554 227.877C442.282 231.889 442.775 235.763 444.798 238.741" stroke="black" stroke-miterlimit="10"/>
<path d="M335.38 152.57C334.267 152.451 333.154 152.338 332.046 152.219C331.049 152.112 330.046 152.006 329.096 151.68C328.458 151.46 327.861 151.14 327.258 150.827C324.788 149.529 323.525 149.134 321.16 147.63C319.803 146.764 318.412 145.949 316.968 145.272C315.554 144.608 314.081 144.25 312.771 143.354C312.655 143.279 312.539 143.191 312.487 143.053C312.447 142.953 312.452 142.834 312.464 142.721C312.766 140.414 317.119 140.94 318.812 141.454C319.322 141.611 319.849 141.793 320.371 141.68C320.406 140.946 320.104 140.244 319.774 139.599C318.8 137.705 317.374 136.201 316.087 134.558C314.899 133.035 313.687 131.517 312.592 129.912C311.566 128.414 310.505 125.142 311.31 124.747C312.116 124.345 311.687 125.142 311.948 125.179C311.426 124.834 311.623 123.449 312 122.903C312.377 122.358 313.409 123.185 313.768 123.712C313.392 123.204 313.519 122.057 313.902 121.85C314.458 121.549 315.119 121.957 315.635 122.295C316.151 122.634 316.649 123.048 317.252 123.16C317.102 122.747 317.009 122.308 316.986 121.863C317.281 121.474 317.849 121.675 318.244 121.907C326.307 126.659 333.188 133.856 341.768 138.088" fill="#E27769"/>
<path d="M318.672 137.843C319.576 139.248 320.185 140.934 320.66 143.009" stroke="black" stroke-miterlimit="10"/>
<path d="M311.978 124.703C313.05 126.145 314.476 127.141 315.728 128.376C317.717 130.339 319.606 132.414 321.525 134.451" stroke="black" stroke-miterlimit="10"/>
<path d="M313.768 123.587C314.382 124.214 315.031 124.797 315.715 125.33C316.452 125.9 317.223 126.414 317.976 126.947C320.144 128.471 322.208 130.157 324.156 132" stroke="black" stroke-miterlimit="10"/>
<path d="M317.541 123.355C318.219 124.057 319.083 124.515 319.918 124.991C322.526 126.489 324.961 128.326 327.17 130.452" stroke="black" stroke-miterlimit="10"/>
<path d="M335.703 153.122C335.703 153.122 331.147 152.451 329.286 151.924" stroke="black" stroke-miterlimit="10"/>
<path d="M436.559 154.576C439.695 154.902 442.837 155.222 445.822 156.438C449.596 157.98 452.877 160.877 455.967 163.836C459.196 166.926 462.489 171.139 465.625 174.368L449.526 189.603L438.13 177.591" fill="#2C221D"/>
<path d="M455.505 194.737C455.505 194.737 457.887 191.44 460.299 189.609" stroke="black" stroke-miterlimit="10"/>
<path d="M444.843 184.669L461.631 169.973" stroke="#6D574E" stroke-miterlimit="10"/>
<path d="M382.653 175.497L385.088 149.874" stroke="#6D574E" stroke-miterlimit="10"/>
<path d="M397.969 170.657C397.969 170.657 399.082 176.124 399.389 178.468" stroke="#6D574E" stroke-miterlimit="10"/>
<path d="M437.562 177.553C441.052 180.468 449.533 189.609 449.533 189.609" stroke="#6D574E" stroke-miterlimit="10"/>
<path d="M419.655 136.401L427.156 139.693L426.716 145.103L430.496 153.009C430.496 153.009 428.652 160.463 420.368 162.319C413.377 163.886 413.534 159.008 413.534 159.008L410.206 148.614" fill="#E27769"/>
<path d="M403.807 140.564C404.914 136.508 405.511 134.019 406.931 131.072C408.131 128.577 410.224 124.966 412.63 123.8C415.725 122.295 419.267 124.139 422.392 125.367C427.516 127.38 428.699 133.937 428.102 139.147C427.644 143.153 425.482 145.128 422.85 148.1C419.406 151.987 410.937 155.297 406.566 152.877C403.291 151.078 402.63 144.859 403.807 140.564Z" fill="#E27769"/>
<path d="M457.394 165.077C459.411 164.362 460.403 161.792 460.292 159.974C460.113 157.04 458.843 155.523 458.634 153.711C458.501 152.532 458.826 151.335 458.733 150.15C458.582 148.194 457.266 146.489 455.643 145.605C454.02 144.721 452.136 144.564 450.322 144.74C448.936 144.871 447.539 145.191 446.159 144.984C445.006 144.808 443.928 144.263 442.925 143.63C441.151 142.501 439.528 141.041 438.386 139.185C436.444 136.038 436.026 132.082 434.531 128.659C433.777 126.935 432.728 125.367 431.47 124.032C428.421 120.784 425.516 119.581 421.192 119.424C418.229 119.317 414.108 119.744 411.847 122.734C411.847 122.734 407.464 122.853 405.378 125.242C402.896 128.076 403.076 132.176 405.244 135.442C406.363 133.455 407.32 131.355 408.954 129.825C408.763 130.145 408.856 130.596 409.099 130.878C409.343 131.154 409.702 131.279 410.056 131.311C410.995 131.392 411.876 130.891 412.699 130.395C412.421 131.198 412.305 132.069 412.357 132.922C412.369 133.104 412.392 133.292 412.502 133.43C412.63 133.586 412.832 133.63 413.024 133.643C414.316 133.762 415.644 133.091 416.386 131.944C416.032 132.985 415.725 134.289 416.438 135.079C416.943 135.643 417.789 135.68 418.461 135.386C419.134 135.091 419.661 134.527 420.177 133.975C419.928 134.238 420.253 135.737 420.316 136.082C420.45 136.84 420.664 137.574 420.902 138.295C421.632 140.52 422.537 142.689 423.708 144.689C424.919 146.752 426.647 148.319 427.881 150.325C428.664 151.598 429.325 152.996 430.38 154.018C431.673 155.272 433.458 156.219 435.157 156.595C436.873 156.971 438.641 156.802 440.374 156.739C446.768 156.513 451.626 159.98 457.394 165.077Z" fill="#893D33"/>
<path d="M442.455 120.226C442.084 119.242 441.545 118.339 440.855 117.65C438.357 115.161 432.913 115.324 431.052 118.703C430.032 120.559 430.525 122.947 431.302 124.941L432.832 128.571C434.965 129.825 437.661 129.875 439.835 128.709C441.649 127.731 442.93 125.932 443.023 123.706C443.07 122.559 442.872 121.342 442.455 120.226Z" fill="#893D33"/>
<path d="M420.236 141.273C420.758 139.599 423.244 138.984 424.473 139.994C427.43 142.414 424.444 148.476 421.175 148.05C420.247 147.931 419.1 147.134 419.1 145.956" fill="#E27769"/>
<path d="M423.881 142.953L420.206 144.783" stroke="black" stroke-miterlimit="10"/>
<path d="M422.305 139.693C421.476 139.912 420.711 140.414 420.137 141.122" stroke="black" stroke-miterlimit="10"/>
<path d="M424.838 145.956C424.009 147.191 422.71 148.351 421.255 148.131C420.241 147.981 419.273 147.147 419.191 145.937" stroke="black" stroke-miterlimit="10"/>
<path d="M411.91 153.924C411.91 153.924 415.354 153.748 418.843 151.197" stroke="black" stroke-miterlimit="10"/>
<path d="M408.287 138.526C407.742 139.555 407.174 140.608 406.299 141.316C406.09 141.485 405.864 141.636 405.69 141.849C405.447 142.156 405.342 142.589 405.418 142.984C405.493 143.379 405.742 143.736 406.078 143.918" stroke="black" stroke-miterlimit="10"/>
<path d="M406.739 146.313C407.29 146.808 408.113 147.003 408.768 146.626C409.591 146.15 409.609 145.009 409.638 144.125" stroke="black" stroke-miterlimit="10"/>
<path d="M412.311 136.32C412.913 136.182 413.545 136.15 414.142 136.307C414.74 136.458 415.308 136.802 415.69 137.323C416.177 137.987 416.328 138.853 416.461 139.686" stroke="black" stroke-miterlimit="10"/>
<path d="M405.604 133.844C406.177 133.398 406.977 133.367 407.615 133.706C408.247 134.038 408.711 134.696 408.914 135.43" stroke="black" stroke-miterlimit="10"/>
<path d="M413.319 140.069C413.082 140.602 412.606 140.884 412.253 140.702C411.899 140.52 411.8 139.937 412.038 139.404C412.276 138.872 412.751 138.589 413.105 138.771C413.458 138.959 413.557 139.536 413.319 140.069Z" fill="black"/>
<path d="M406.808 137.755C406.571 138.288 406.095 138.571 405.742 138.389C405.388 138.207 405.29 137.624 405.527 137.091C405.765 136.558 406.24 136.276 406.594 136.458C406.948 136.64 407.046 137.223 406.808 137.755Z" fill="black"/>
<path d="M474.35 210.461C477.88 206.574 480.384 201.608 481.492 196.292" stroke="black" stroke-miterlimit="10"/>
<path d="M482.437 208.298C483.503 206.016 484.187 203.527 484.436 200.988" stroke="black" stroke-miterlimit="10"/>
<path d="M413.291 86.5227C413.291 86.5227 407.256 89.5132 403.204 91.5005C400.914 92.6227 397.071 95.6947 395.761 98.0332C394.091 101.005 393.656 104.685 393.848 107.726C393.975 109.738 394.821 112.014 396.068 114.202C396.885 115.644 397.761 117.155 398.526 116.96C399.291 116.766 399.013 114.741 399.013 114.741C399.013 114.866 399.917 116.785 400.126 116.935C400.404 117.142 400.734 117.318 401.024 117.155C401.413 116.935 401.679 116.691 401.871 116.258C402.033 115.894 402.044 115.512 402.073 115.104C402.102 114.735 402.073 113.844 402.056 113.468C402.224 113.876 402.387 115.136 402.705 115.067C403.024 114.998 403.546 114.71 403.836 114.333C404.392 113.6 404.688 112.678 404.972 111.775C404.972 111.995 404.978 112.214 405.053 112.421C405.128 112.622 405.291 112.804 405.494 112.816C405.749 112.835 406.781 112.02 406.931 111.801C407.581 110.848 407.824 109.569 408.294 108.497C408.688 107.6 409.07 106.967 409.633 106.19C410.149 105.481 410.937 104.603 411.691 104.177C413.221 103.306 414.166 103.067 415.731 102.271C417.053 101.594 418.346 100.76 419.262 99.5002" fill="#D16159"/>
<path d="M404.844 112.164C404.96 110.735 405.122 109.312 405.325 107.895C405.464 106.948 405.621 106.002 405.968 105.124C406.536 103.688 407.574 102.535 408.589 101.419" stroke="black" stroke-miterlimit="10"/>
<path d="M402.201 113.788C401.686 111.412 401.744 108.935 401.801 106.49C401.819 105.813 401.836 105.136 401.981 104.478C402.242 103.343 402.874 102.365 403.494 101.412" stroke="black" stroke-miterlimit="10"/>
<path d="M399.082 115.217C398.375 112.847 397.667 110.459 397.47 107.976C397.436 107.5 397.412 107.023 397.43 106.547C397.488 104.766 398.021 103.03 398.833 101.481" stroke="black" stroke-miterlimit="10"/>
<path d="M418.426 51.1449L429.046 72.8053L405.348 90.3531L420.942 103.638C420.942 103.638 447.532 94.2777 454.773 89.6322C460.46 85.9897 462.9 76.5168 451.944 61.0755C440.988 45.6341 433.428 36.4747 431.179 33.898C426.344 28.3559 420.594 26.0551 415.232 28.9703" fill="#4C4139"/>
<path d="M418.426 51.145L429.04 72.8055L405.348 90.3596" stroke="black" stroke-miterlimit="10"/>
<path d="M419.035 97.6694C419.035 98.1396 418.681 98.5283 418.24 98.5283C417.806 98.5283 417.446 98.1459 417.446 97.6694C417.446 97.1992 417.8 96.8105 418.24 96.8105C418.681 96.8105 419.035 97.193 419.035 97.6694Z" stroke="black" stroke-miterlimit="10"/>
<path d="M423.133 95.8577C423.572 95.8577 423.927 95.4734 423.927 94.9988C423.927 94.5242 423.572 94.1399 423.133 94.1399C422.694 94.1399 422.339 94.5242 422.339 94.9988C422.339 95.4734 422.694 95.8577 423.133 95.8577Z" stroke="black" stroke-miterlimit="10"/>
<path d="M413.714 97.4815C413.801 97.5567 423.928 92.0334 423.928 92.0334" stroke="black" stroke-miterlimit="10"/>
<path d="M414.264 83.7517C414.362 83.6765 432.472 99.3999 432.472 99.3999" stroke="black" stroke-miterlimit="10"/>
<path d="M428.461 73.0248C430.681 72.0844 432.919 71.075 435.296 70.6863C437.835 70.2725 440.414 70.4167 442.971 70.5609" stroke="black" stroke-miterlimit="10"/>
<path d="M420.942 103.638L451.632 91.5757" stroke="black" stroke-miterlimit="10"/>
<path d="M426.31 23.5662C420.177 17.3345 413.91 11.1342 406.664 6.51371C393.238 -2.03762 374.502 -0.714793 365.245 5.50436C358.138 10.2816 354.387 16.2311 349.825 23.5913C344.109 32.8135 338.115 42.7315 328.7 47.1451C324.109 49.2955 319.06 49.9412 314.156 50.9819C309.246 52.0226 304.225 53.5774 300.463 57.1447C296.701 60.7119 294.562 66.768 296.591 71.7145C298.185 75.5952 302.115 78.0403 306.046 78.1594C309.976 78.2785 313.802 76.3099 316.631 73.3571C323.848 65.8277 327.205 46.0166 313.877 40.3116" stroke="#ED725A" stroke-width="1.5" stroke-miterlimit="10"/>
<path d="M135.081 157.861C135.927 162.212 138.072 166.845 140.971 170.412C144.745 175.064 152.437 178.073 155.747 171.309C157.284 168.162 158.055 163.077 154.385 160.826C154.124 160.663 153.834 160.526 153.515 160.519C152.808 160.513 152.339 161.178 152.124 161.786C151.145 164.638 152.721 167.723 154.855 170.011C155.846 171.077 156.994 172.067 158.42 172.594C159.846 173.121 161.591 173.114 162.831 172.299C164.767 171.027 165.272 168.212 165.133 166.199" stroke="#8F96DB" stroke-width="1.5" stroke-miterlimit="10"/>
<path d="M126.978 43.321C130.392 38.6692 134.983 34.4625 140.148 32.3121C142.942 31.146 146.595 30.7259 149.528 31.3591C150.994 31.6726 152.699 32.1742 153.597 33.6036C154.542 35.1082 153.441 37.898 155.307 38.7507C155.789 38.9701 156.333 38.9137 156.849 38.8322C158.473 38.5689 160.044 38.0422 161.667 37.7852C163.29 37.5281 165.012 37.5595 166.472 38.3682C167.933 39.177 169.041 40.901 168.826 42.6564C168.739 43.3461 168.467 44.0232 168.583 44.7065C168.78 45.8475 169.974 46.4431 171.046 46.556C173.261 46.7817 175.365 46.7064 177.243 48.2361C178.623 49.3583 179.417 51.3708 178.71 52.982" stroke="#FFDD99" stroke-width="1.5" stroke-miterlimit="10"/>
<path d="M271.565 38.8946C272.423 36.8258 273.391 34.7506 274.893 33.1645C276.394 31.5784 278.539 30.5439 280.597 30.9765C281.664 31.2022 282.667 31.7978 283.751 31.7727C285.241 31.7414 286.522 30.5 287.194 29.0581C287.867 27.6162 288.058 25.9799 288.33 24.3937C288.765 21.8609 289.472 19.2717 291.072 17.3596C292.678 15.4537 295.385 14.4318 297.524 15.5603" stroke="#FFDD99" stroke-width="1.5" stroke-miterlimit="10"/>
<path d="M170.561 250.018C171.157 246.173 168.757 242.533 165.202 241.889C161.647 241.244 158.281 243.839 157.686 247.684C157.09 251.529 159.489 255.168 163.044 255.813C166.6 256.457 169.965 253.863 170.561 250.018Z" stroke="#909DF4" stroke-width="1.5" stroke-miterlimit="10"/>
<path d="M275.212 13.9929C278.134 13.9929 280.504 11.4303 280.504 8.26905C280.504 5.10783 278.134 2.54517 275.212 2.54517C272.289 2.54517 269.919 5.10783 269.919 8.26905C269.919 11.4303 272.289 13.9929 275.212 13.9929Z" stroke="#8F96DB" stroke-width="1.5" stroke-miterlimit="10"/>
<path d="M463.562 227.877L467.069 252.872L480.86 241.889L463.562 227.877Z" fill="#FFDD99"/>
<path d="M116.398 200.455L125.725 189.013L109.789 189.634L116.398 200.455Z" stroke="#8F96DB" stroke-width="1.5" stroke-miterlimit="10"/>
<path d="M131.307 228.786C133.394 228.786 135.087 226.956 135.087 224.698C135.087 222.441 133.394 220.611 131.307 220.611C129.219 220.611 127.527 222.441 127.527 224.698C127.527 226.956 129.219 228.786 131.307 228.786Z" fill="#FFDD99"/>
<path d="M139.377 54.2168L130.299 75.6453L158.043 71.2944L139.377 54.2168Z" fill="#ED725A"/>
<path d="M121.575 107.606C121.575 108.973 120.549 110.083 119.285 110.083C118.021 110.083 116.995 108.973 116.995 107.606C116.995 106.24 118.021 105.13 119.285 105.13C120.549 105.124 121.575 106.233 121.575 107.606Z" fill="#909DF4"/>
<path d="M432.669 9.87384C432.669 11.2405 431.643 12.3502 430.38 12.3502C429.116 12.3502 428.09 11.2405 428.09 9.87384C428.09 8.50713 429.116 7.39746 430.38 7.39746C431.643 7.39746 432.669 8.50713 432.669 9.87384Z" fill="#ED725A"/>
<path d="M474.819 226.322C476.529 225.563 478.738 225.708 480.286 226.836C481.654 227.827 482.367 229.695 484.013 230.272C486.431 231.124 488.558 228.692 490.889 228.529C492.906 228.385 494.529 229.858 495.312 231.764C495.984 233.394 496.117 235.212 496.233 236.992" stroke="#8F96DB" stroke-width="1.5" stroke-miterlimit="10"/>
<path d="M457.081 56.3297C457.922 54.0791 460.124 52.5055 462.368 52.5682C463.51 52.5995 464.669 53.007 465.777 52.6998C469.22 51.7343 468.93 45.2581 472.333 44.1359C474.687 43.3585 477.249 45.8287 479.556 44.8883C481.539 44.0858 482.026 41.3837 482.657 39.1895C484.356 33.2712 489.382 28.6382 495.057 27.7605" stroke="#8F96DB" stroke-width="1.5" stroke-miterlimit="10"/>
<path d="M430.856 186.424C432.862 186.424 434.491 188.186 434.491 190.355V259.969C434.491 262.139 432.862 263.9 430.856 263.9H326.591C324.585 263.9 322.956 262.139 322.956 259.969V190.355C322.956 188.186 324.585 186.424 326.591 186.424H430.856ZM430.856 185.484H326.591C324.104 185.484 322.087 187.672 322.087 190.355V259.969C322.087 262.659 324.11 264.841 326.591 264.841H430.856C433.343 264.841 435.36 262.653 435.36 259.969V190.355C435.36 187.665 433.343 185.484 430.856 185.484Z" fill="white"/>
<path d="M430.855 263.9H326.591C324.585 263.9 322.956 262.138 322.956 259.969V196.906H434.49V259.969C434.49 262.138 432.861 263.9 430.855 263.9Z" fill="#C5B3DD"/>
<path d="M331.494 191.972C331.494 193.214 330.561 194.223 329.413 194.223C328.265 194.223 327.332 193.214 327.332 191.972C327.332 190.731 328.265 189.722 329.413 189.722C330.561 189.722 331.494 190.731 331.494 191.972Z" stroke="white" stroke-width="1.5" stroke-miterlimit="10"/>
<path d="M339.558 191.972C339.558 193.214 338.624 194.223 337.477 194.223C336.329 194.223 335.396 193.214 335.396 191.972C335.396 190.731 336.329 189.722 337.477 189.722C338.624 189.722 339.558 190.731 339.558 191.972Z" stroke="white" stroke-width="1.5" stroke-miterlimit="10"/>
<path d="M322.956 196.906H434.49" stroke="white" stroke-width="1.5" stroke-miterlimit="10"/>
<path d="M418.844 248.841C413.296 242.196 406.85 238.911 403.569 239.713C398.746 240.892 399.621 254.201 399.761 259.549C397.43 256.634 394.543 254.245 391.337 252.578C388.92 251.318 386.172 250.459 383.564 251.148C380.961 251.838 378.665 254.484 378.967 257.367C372.897 247.606 364.521 239.531 354.851 234.14C348.741 230.729 332.127 223.639 329.281 230.999C326.162 239.067 343.86 263.906 343.86 263.906H429.632C429.632 263.9 423.853 254.847 418.844 248.841Z" fill="#A29DCE"/>
<path d="M311.669 177.866C308.521 174.299 305.495 167.403 304.643 163.729C303.895 160.494 303.229 157.184 301.814 154.194C301.432 153.385 299.797 151.529 300.388 150.557C301.582 148.608 304.487 151.178 305.246 152.338C305.519 152.752 306.516 154.507 307.014 154.607C307.513 154.708 307.727 152.614 307.785 151.717C308.017 148.263 308.035 144.495 307.762 140.997C307.484 137.398 307.959 134.238 309.003 134.069C310.063 133.9 310.006 134.577 310.197 134.803C310.365 133.662 311.327 132.307 311.948 132.69C312.324 132.922 312.463 133.43 312.516 133.9C312.568 134.364 312.823 135.248 312.823 135.248C312.823 135.248 313.426 132.821 314.521 134.194C315.078 134.89 315.918 138.577 316.458 139.749C316.405 138.978 316.22 138.545 316.452 137.636C316.579 137.147 316.834 136.74 317.327 136.997C317.617 137.147 317.698 137.461 317.802 137.762C318.353 139.417 319.704 142.075 320.197 143.749C320.707 145.492 321.223 147.241 321.733 148.984C322.695 152.263 323.64 155.717 324.33 159.14C324.968 162.306 327.315 170.111 327.315 170.111" fill="#A04B4B"/>
<path d="M310.173 134.99C310.451 136.865 311.089 139.26 311.437 141.391C311.935 144.445 312.161 147.272 312.59 149.955" stroke="black" stroke-miterlimit="10"/>
<path d="M312.979 135.304C313.316 136.909 313.895 139.141 314.278 140.972C314.927 144.031 315.403 146.771 315.959 149.454" stroke="black" stroke-miterlimit="10"/>
<path d="M316.457 139.693C317.28 142.614 318.474 145.968 319.419 149.667" stroke="black" stroke-miterlimit="10"/>
<path d="M307.333 154.419C307.124 155.961 307.014 157.604 306.063 158.952" stroke="black" stroke-miterlimit="10"/>
<path d="M418.24 263.901C417.127 260.678 415.933 257.293 414.258 254.334C412.582 251.381 410.391 248.672 407.591 246.823C406.339 245.989 404.977 245.343 403.626 244.698C399.985 242.961 396.345 241.218 392.704 239.482L374.838 231.946C373.731 230.836 372.629 229.727 371.522 228.617C369.389 226.466 367.261 224.316 365.151 222.141C365.07 222.059 364.989 221.971 364.908 221.89C348.734 205.195 336.711 186.55 326.201 164.783L307.332 173.735C307.332 173.735 315.494 203.815 323.251 216.58C333.494 233.444 345.343 248.791 350.699 253.644C351.656 257.111 352.751 260.54 353.986 263.901H418.24Z" fill="#FCDDD2"/>
<path d="M310.37 184.073L330.613 173.547" stroke="black" stroke-miterlimit="10"/>
<path d="M311.385 171.81L318.208 187.822" stroke="black" stroke-miterlimit="10"/>
<path d="M317.796 175.177C317.796 175.973 317.199 176.625 316.457 176.625C315.721 176.625 315.118 175.979 315.118 175.177C315.118 174.374 315.715 173.729 316.457 173.729C317.199 173.729 317.796 174.374 317.796 175.177Z" stroke="#D8A798" stroke-miterlimit="10"/>
<path d="M390.739 263.474C391.673 262.164 392.6 260.853 393.533 259.543C394.536 258.126 395.545 256.709 396.675 255.418C399.985 251.637 404.449 248.948 409.232 248.39" stroke="#D8A798" stroke-miterlimit="10"/>
<path d="M350.139 251.763C350.139 246.534 351.756 241.343 354.539 237.08C358.046 231.707 363.199 227.852 369.431 227.664" stroke="#D8A798" stroke-miterlimit="10"/>
<path d="M350.613 253.437C349.721 250.565 349.21 247.337 347.796 244.697" stroke="black" stroke-miterlimit="10"/>
<path d="M369.151 229.802L367.975 245.857C367.975 245.857 372.966 251.355 379.824 247.776C386.687 244.196 391.69 237.387 391.69 237.387L389.447 227.438" fill="#A04B4B"/>
<path d="M396.421 209.802C395.726 207.458 394.427 205.314 392.676 203.765C388.468 200.041 383.842 200.141 379.32 203.013C375.396 205.508 370.004 209.445 367.007 213.213C363.918 217.1 361.848 221.94 365.002 226.485C370.08 233.801 384.329 231.325 391.129 225.319C393.894 222.874 396.508 218.906 396.92 215C397.105 213.263 396.914 211.483 396.421 209.802Z" fill="#A04B4B"/>
<path d="M378.451 205.056C376.184 206.304 373.709 206.636 371.228 206.95C370.033 207.1 368.457 207.533 368.671 209.226C368.81 210.316 369.686 211.257 370.422 211.921" fill="#A04B4B"/>
<path d="M368.572 221.72C368.572 221.72 368.983 220.717 369.192 220.216C369.586 219.25 368.299 218.598 367.691 218.266C367.244 218.021 367.012 217.808 366.566 218.122C366.45 218.203 365.807 218.88 365.668 218.755C365.662 218.749 364.473 217.25 364.473 217.25C363.552 218.811 362.955 221.777 363.088 223.532C363.221 225.287 363.847 227.037 365.013 228.278C365.476 228.773 366.212 229.488 366.769 229.858C371.447 232.898 377.279 232.666 382.369 230.529C383.94 229.87 385.47 228.986 386.612 227.645C371.03 227.407 368.572 221.72 368.572 221.72Z" fill="#1E1611"/>
<path d="M387.146 220.598C387.077 220.579 387.007 220.567 386.937 220.554C385.9 220.366 384.868 220.535 383.842 220.172C383.019 219.877 382.248 219.325 381.795 218.523C381.262 217.576 381.993 217.025 382.706 216.598C383.761 215.971 384.787 215.263 385.645 214.348C387.053 212.843 387.801 210.686 387.187 208.586C386.52 206.31 384.45 204.975 382.839 203.527C381.291 202.135 379.309 199.972 379.964 197.558C380.619 195.138 382.781 194.254 384.914 194.599C386.062 194.781 387.216 195.132 388.358 194.938C388.937 194.838 389.494 194.606 390.068 194.468C391.83 194.041 393.865 194.649 394.914 196.242C395.673 197.389 395.963 199.013 397.129 199.64C397.691 199.941 398.346 199.935 398.955 200.091C400.195 200.405 401.244 201.427 401.749 202.693C402.253 203.959 402.23 205.439 401.778 206.724C400.966 209.038 399.743 210.197 400.746 212.749C403.07 218.68 404.044 225.958 398.497 230.222C397.036 231.344 395.21 231.921 393.992 233.344C393.233 234.228 392.618 235.494 391.505 235.626C390.758 235.713 390.056 235.212 389.546 234.616C389.088 234.083 388.729 233.463 388.369 232.842C387.876 231.989 387.378 231.093 387.274 230.09C387.129 228.66 387.813 227.306 388.439 226.034C389.024 224.836 390.207 222.354 388.81 221.363C388.346 221.018 387.732 220.736 387.146 220.598Z" fill="#1E1611"/>
<path d="M383.72 207.646C383.372 206.498 382.735 205.357 381.749 205.878C381.506 206.009 381.361 206.298 381.32 206.592C381.28 206.887 381.332 207.182 381.378 207.47C381.61 208.831 381.854 210.229 382.538 211.401C382.677 211.639 382.839 211.871 383.071 211.997C384.613 212.83 383.923 208.298 383.72 207.646Z" fill="#1E1611"/>
<path d="M373.981 215.407L369.616 214.335C369.616 214.335 369.187 218.379 371.042 218.78C372.897 219.188 373.981 215.407 373.981 215.407Z" fill="white"/>
<path d="M369.354 210.661C369.72 211.169 370.207 211.57 370.763 211.802" stroke="black" stroke-miterlimit="10"/>
<path d="M374.173 206.505C375.813 206.248 377.402 205.652 378.839 204.768" stroke="black" stroke-miterlimit="10"/>
<path d="M386.132 220.761C387.743 219.451 390.659 220.704 391.262 222.654C392.705 227.344 385.755 231.256 382.706 228.347C381.842 227.525 381.193 225.852 381.952 224.654" fill="#A04B4B"/>
<path d="M388.758 225.212L383.842 224.31" stroke="black" stroke-miterlimit="10"/>
<path d="M389.256 220.717C388.277 220.316 387.169 220.247 386.132 220.535" stroke="black" stroke-miterlimit="10"/>
<path d="M382.061 224.705C381.511 225.72 381.673 226.968 382.276 227.908C383.366 229.626 385.992 229.632 387.58 228.899" stroke="black" stroke-miterlimit="10"/>
<path d="M379.152 211.533C378.531 212.022 377.766 212.022 377.442 211.545C377.117 211.062 377.36 210.279 377.987 209.79C378.607 209.301 379.372 209.301 379.697 209.777C380.016 210.26 379.772 211.044 379.152 211.533Z" fill="black"/>
<path d="M394.108 236.861C378.451 238.867 368.862 246.622 368.862 246.622L371.587 260.076C385.592 245.675 399.221 242.422 399.36 242.271L394.108 236.861Z" fill="#FCDDD2"/>
<path d="M368.41 238.033L362.515 242.127C362.515 242.127 361.5 253.575 363.436 259.656L368.868 246.628L368.41 238.033Z" fill="#FCDDD2"/>
<path d="M368.862 246.628L371.587 260.082C385.592 245.682 399.221 242.428 399.36 242.277" stroke="black" stroke-miterlimit="10"/>
<path d="M368.41 238.033L362.515 242.127C362.515 242.127 361.5 253.575 363.436 259.656L368.868 246.628" stroke="black" stroke-miterlimit="10"/>
<path d="M310.289 201.646C311.872 207.733 314.219 213.583 317.24 218.993" stroke="black" stroke-miterlimit="10"/>
<path d="M310.805 212.097C311.796 216.009 312.99 219.865 314.376 223.632" stroke="black" stroke-miterlimit="10"/>
<path d="M407.5 220.297C407.587 223.087 406.584 225.827 405.048 228.071C403.511 230.315 401.471 232.096 399.314 233.626" stroke="black" stroke-miterlimit="10"/>
<path d="M405.742 233.525C407.899 232.202 409.742 230.278 411.046 227.99" stroke="black" stroke-miterlimit="10"/>
</g>
</svg>
