<svg width="834" height="409" viewBox="0 0 834 409" fill="none" xmlns="http://www.w3.org/2000/svg">
<path d="M918 317.886H-85V408.156H918V317.886Z" fill="#6552C4"/>
<path d="M918 324.907H895.466L890.501 317.886H889.264L894.229 324.907H835.637L831.291 317.886H830.12L834.467 324.907H775.825L772.114 317.886H770.977L774.688 324.907H716.013L712.92 317.886H711.833L714.926 324.907H677.43V317.886H676.695V324.907H656.2H655.147H596.405H595.368H536.593H535.573H476.797H475.794H417.001H415.999H357.206H356.203H333.067V317.886H332.332V324.907H297.427L298.664 317.886H297.644L296.407 324.907H237.632L239.487 317.886H238.451L236.595 324.907H177.853L180.344 317.886H179.274L176.8 324.907H118.074L121.167 317.886H120.08L116.987 324.907H58.312L62.0231 317.886H60.8863L57.1752 324.907H-1.46682L2.87952 317.886H1.70934L-2.63699 324.907H-61.2289L-56.264 317.886H-57.5011L-62.4659 324.907H-85V325.91H-63.168L-82.5426 353.325H-85V354.328H-83.2448L-85 356.819V358.541L-82.0244 354.328H-20.8247L-47.0699 396.788H-85V397.791H-47.6884L-54.0909 408.156H-52.9207L-46.5182 397.791H18.5597L13.06 408.156H14.2134L19.6965 397.791H84.8079L80.2275 408.156H81.3141L85.8945 397.791H151.056L147.395 408.156H148.448L152.109 397.791H217.287L214.546 408.156H215.582L218.324 397.791H283.536L281.697 408.156H282.733L284.555 397.791H349.767L348.848 408.156H349.851L350.77 397.791H415.999V408.156H417.001V397.791H482.23L483.149 408.156H484.152L483.233 397.791H548.445L550.283 408.156H551.303L549.464 397.791H614.676L617.418 408.156H618.454L615.713 397.791H680.891L684.552 408.156H685.605L681.944 397.791H747.105L751.686 408.156H752.772L748.192 397.791H813.303L818.803 408.156H819.94L814.44 397.791H879.518L885.921 408.156H887.091L880.688 397.791H918V396.788H880.07L853.825 354.328H915.024L918 358.541V356.819L916.245 354.328H918V353.325H915.543L896.168 325.91H918V324.907ZM297.243 325.91H356.119L353.695 353.325H292.395L297.243 325.91ZM237.381 325.91H296.224L291.392 353.325H230.109L237.381 325.91ZM177.502 325.91H236.328L229.073 353.325H167.823L177.502 325.91ZM117.639 325.91H176.449L166.753 353.325H105.537L117.639 325.91ZM57.7771 325.91H116.536L104.433 353.325H43.2503L57.7771 325.91ZM-2.08533 325.91H56.6403L42.1135 353.325H-19.036L-2.08533 325.91ZM-81.3056 353.325L-61.9477 325.91H-3.27222L-20.2062 353.325H-81.3056ZM19.0947 396.788H-45.8997L-19.6545 354.328H41.5786L19.0947 396.788ZM85.2425 396.788H20.2147L42.7153 354.328H103.999L85.2425 396.788ZM151.407 396.788H86.3458L105.085 354.328H166.402L151.407 396.788ZM217.555 396.788H152.46L167.472 354.328H228.805L217.555 396.788ZM283.703 396.788H218.591L229.842 354.328H291.209L283.703 396.788ZM349.851 396.788H284.723L292.228 354.328H353.612L349.851 396.788ZM415.999 396.788H350.87L354.615 354.328H415.999V396.788ZM415.999 353.325H354.698L357.122 325.91H415.999V353.325ZM835.085 325.91L852.036 353.325H790.886L776.36 325.91H835.085ZM775.223 325.91L789.75 353.325H728.567L716.464 325.91H775.223ZM715.361 325.91L727.463 353.325H666.247L656.568 325.91H715.361ZM655.498 325.91L665.177 353.325H603.927L596.672 325.91H655.498ZM595.619 325.91L602.891 353.325H541.607L536.776 325.91H595.619ZM535.757 325.91L540.588 353.325H479.305L476.881 325.91H535.757ZM417.001 325.91H475.878L478.302 353.325H417.001V325.91ZM417.001 396.788V354.328H478.385L482.13 396.788H417.001ZM483.149 396.788L479.388 354.328H540.772L548.277 396.788H483.149ZM549.297 396.788L541.791 354.328H603.158L614.409 396.788H549.297ZM615.445 396.788L604.195 354.328H665.528L680.54 396.788H615.445ZM681.593 396.788L666.598 354.328H727.915L746.654 396.788H681.593ZM747.757 396.788L729.001 354.328H790.285L812.785 396.788H747.757ZM878.9 396.788H813.905L791.421 354.328H852.654L878.9 396.788ZM914.306 353.325H853.206L836.272 325.91H894.948L914.306 353.325Z" fill="#F7BFC9"/>
<path opacity="0.5" d="M99.9465 383.081C145.647 383.081 182.694 378.59 182.694 373.051C182.694 367.511 145.647 363.021 99.9465 363.021C54.2463 363.021 17.199 367.511 17.199 373.051C17.199 378.59 54.2463 383.081 99.9465 383.081Z" fill="#6552C4"/>
<path d="M181.34 341.858C181.34 342.66 181.323 343.479 181.29 344.265C180.989 352.339 179.15 359.861 173.366 366.047C166.963 372.884 158.755 374.338 149.879 374.338H79.2009C65.8108 374.338 47.1717 376.578 33.9321 370.042C32.2605 369.223 30.6891 368.27 29.218 367.15C28.5828 366.665 27.9643 366.147 27.3625 365.595C25.8914 364.241 24.5541 362.703 23.3839 360.948C22.08 359.009 21.0937 356.869 20.1075 354.746C18.1683 350.584 15.9784 346.789 15.4769 342.192C14.9587 337.461 14.9086 332.697 15.1092 327.949C15.4769 318.755 16.8143 309.628 17.7337 300.467C19.2048 285.706 17.951 270.946 22.1803 256.536C22.5982 255.098 23.0496 253.694 23.5344 252.29C26.5601 243.681 30.6389 234.186 38.897 230.04C47.8237 225.543 58.4221 225.092 67.984 227.365C72.2969 228.385 75.9077 229.823 79.4683 232.113C80.2206 232.597 80.9728 233.116 81.7251 233.684C83.38 234.921 84.9848 236.175 86.5896 237.462C101.3 249.314 114.022 263.64 124.052 279.655C125.122 281.377 126.208 283.149 127.78 284.436C129.585 285.924 131.892 286.626 134.115 287.345C143.259 290.253 152.303 293.747 160.344 298.979C169.07 304.646 178.414 313.389 179.484 324.422C179.919 328.902 180.805 333.198 181.189 337.662C181.256 339.066 181.34 340.453 181.34 341.858Z" fill="#325968"/>
<path d="M55.7643 233.166C54.544 231.645 52.7051 230.859 50.766 231.126C49.111 231.36 47.64 232.514 47.3224 234.219C47.1218 235.239 47.7068 236.108 48.526 236.676C48.4758 237.161 48.643 237.612 49.1445 237.997C50.7493 239.184 53.2066 238.381 54.6944 237.395C56.2992 236.308 57.1016 234.821 55.7643 233.166Z" fill="white"/>
<path d="M86.5398 237.495C84.8681 239.518 81.508 239.969 79.1844 238.816C76.2757 237.395 75.7575 232.681 79.4185 232.146C80.1707 232.631 80.923 233.149 81.6752 233.717C83.3302 234.938 84.9517 236.208 86.5398 237.495Z" fill="white"/>
<path d="M37.4596 258.508C36.2393 256.987 34.4004 256.201 32.4613 256.469C30.8064 256.703 29.3353 257.856 29.0177 259.561C28.8171 260.581 29.4022 261.45 30.2213 262.019C30.1711 262.503 30.3383 262.955 30.8398 263.339C32.4446 264.526 34.9019 263.724 36.3897 262.737C38.0112 261.634 38.7969 260.163 37.4596 258.508Z" fill="white"/>
<path d="M66.3793 257.338C65.1757 256.987 63.8217 257.02 62.6515 257.455C62.2169 257.422 61.7822 257.422 61.381 257.455C57.4526 257.806 57.9374 262.704 60.8962 264.158C63.7715 265.563 68.1847 264.56 69.1041 261.183C69.6223 259.26 68.1178 257.839 66.3793 257.338Z" fill="white"/>
<path d="M103.791 256.218C102.387 254.914 100.047 254.747 98.3082 255.399C96.7201 255.984 95.7505 257.371 95.4329 259.01C95.3493 259.478 95.3159 259.912 95.3493 260.314C95.1654 261.133 95.2156 261.952 95.7171 262.671C96.7201 264.108 99.0771 264.275 100.515 263.456C101.183 263.072 101.518 262.437 102.036 261.885C102.621 261.233 103.507 261.133 104.159 260.564C105.496 259.411 104.945 257.305 103.791 256.218Z" fill="white"/>
<path d="M28.0147 286.96C27.3126 285.74 26.2261 284.904 24.8386 284.569C23.4511 284.235 21.6457 284.352 20.5591 285.389C19.7901 286.141 19.5227 287.411 20.1579 288.314C20.509 288.815 21.0606 289.133 21.6958 289.367C22.2809 290.337 23.2338 291.005 24.3371 291.34C25.6075 291.724 27.5801 291.741 28.4661 290.571C29.2852 289.551 28.5831 287.963 28.0147 286.96Z" fill="white"/>
<path d="M55.7643 286.308C54.544 284.787 52.7051 284.001 50.766 284.269C49.111 284.503 47.64 285.656 47.3224 287.361C47.1218 288.381 47.7068 289.25 48.526 289.818C48.4758 290.303 48.643 290.755 49.1445 291.139C50.7493 292.326 53.2066 291.524 54.6944 290.537C56.2992 289.434 57.1016 287.963 55.7643 286.308Z" fill="white"/>
<path d="M84.6672 285.138C83.4636 284.787 82.1095 284.82 80.9393 285.255C80.5047 285.221 80.0701 285.221 79.6689 285.255C75.7404 285.606 76.2252 290.504 79.1841 291.958C82.0594 293.362 86.4726 292.359 87.392 288.983C87.9269 287.06 86.4057 285.639 84.6672 285.138Z" fill="white"/>
<path d="M122.079 284.018C120.675 282.714 118.335 282.547 116.596 283.199C115.008 283.784 114.038 285.171 113.721 286.809C113.637 287.278 113.604 287.712 113.637 288.113C113.453 288.933 113.503 289.752 114.005 290.47C115.008 291.908 117.365 292.075 118.803 291.256C119.471 290.872 119.806 290.236 120.324 289.685C120.909 289.033 121.795 288.932 122.447 288.364C123.801 287.211 123.249 285.104 122.079 284.018Z" fill="white"/>
<path d="M37.4596 311.634C36.2393 310.112 34.4004 309.327 32.4613 309.594C30.8064 309.828 29.3353 310.982 29.0177 312.687C28.8171 313.707 29.4022 314.576 30.2213 315.144C30.1711 315.629 30.3383 316.08 30.8398 316.465C32.4446 317.652 34.9019 316.849 36.3897 315.863C38.0112 314.776 38.7969 313.289 37.4596 311.634Z" fill="white"/>
<path d="M66.3793 310.48C65.1757 310.129 63.8217 310.163 62.6515 310.597C62.2169 310.564 61.7822 310.564 61.381 310.597C57.4526 310.948 57.9374 315.846 60.8962 317.301C63.7715 318.705 68.1847 317.702 69.1041 314.325C69.6223 312.386 68.1178 310.982 66.3793 310.48Z" fill="white"/>
<path d="M103.791 309.36C102.387 308.056 100.047 307.889 98.3082 308.541C96.7201 309.126 95.7505 310.514 95.4329 312.152C95.3493 312.62 95.3159 313.055 95.3493 313.456C95.1654 314.275 95.2156 315.094 95.7171 315.813C96.7201 317.25 99.0771 317.418 100.515 316.599C101.183 316.214 101.518 315.579 102.036 315.027C102.621 314.375 103.507 314.275 104.159 313.707C105.496 312.553 104.945 310.43 103.791 309.36Z" fill="white"/>
<path d="M137.442 312.302C136.74 311.082 135.653 310.246 134.282 309.912C132.895 309.578 131.09 309.695 130.003 310.731C129.234 311.483 128.967 312.754 129.602 313.656C129.953 314.158 130.504 314.476 131.14 314.71C131.725 315.679 132.678 316.348 133.781 316.682C135.051 317.067 137.024 317.083 137.91 315.913C138.729 314.893 138.027 313.305 137.442 312.302Z" fill="white"/>
<path d="M165.208 311.634C163.988 310.112 162.149 309.327 160.21 309.594C158.555 309.828 157.084 310.982 156.766 312.687C156.566 313.707 157.151 314.576 157.97 315.144C157.92 315.629 158.087 316.08 158.588 316.465C160.193 317.652 162.65 316.849 164.138 315.863C165.743 314.776 166.529 313.289 165.208 311.634Z" fill="white"/>
<path d="M28.0147 340.102C27.3126 338.882 26.2261 338.046 24.8386 337.712C23.4511 337.377 21.6457 337.494 20.5591 338.531C19.7901 339.283 19.5227 340.554 20.1579 341.456C20.509 341.958 21.0606 342.275 21.6958 342.509C22.2809 343.479 23.2338 344.148 24.3371 344.482C25.6075 344.867 27.5801 344.883 28.4661 343.713C29.2852 342.677 28.5831 341.105 28.0147 340.102Z" fill="white"/>
<path d="M55.7643 339.434C54.544 337.912 52.7051 337.127 50.766 337.394C49.111 337.628 47.64 338.782 47.3224 340.487C47.1218 341.507 47.7068 342.376 48.526 342.944C48.4758 343.429 48.643 343.88 49.1445 344.265C50.7493 345.452 53.2066 344.649 54.6944 343.663C56.2992 342.576 57.1016 341.089 55.7643 339.434Z" fill="white"/>
<path d="M84.6672 338.28C83.4636 337.929 82.1095 337.962 80.9393 338.397C80.5047 338.364 80.0701 338.364 79.6689 338.397C75.7404 338.748 76.2252 343.646 79.1841 345.1C82.0594 346.505 86.4726 345.502 87.392 342.125C87.9269 340.186 86.4057 338.782 84.6672 338.28Z" fill="white"/>
<path d="M122.079 337.16C120.675 335.856 118.335 335.689 116.596 336.341C115.008 336.926 114.038 338.314 113.721 339.952C113.637 340.42 113.604 340.855 113.637 341.256C113.453 342.075 113.503 342.894 114.005 343.613C115.008 345.05 117.365 345.218 118.803 344.398C119.471 344.014 119.806 343.379 120.324 342.827C120.909 342.175 121.795 342.075 122.447 341.506C123.801 340.353 123.249 338.23 122.079 337.16Z" fill="white"/>
<path d="M155.746 340.102C155.044 338.882 153.958 338.046 152.57 337.712C151.183 337.377 149.377 337.494 148.291 338.531C147.522 339.283 147.254 340.554 147.89 341.456C148.241 341.958 148.792 342.275 149.428 342.509C150.013 343.479 150.965 344.148 152.069 344.482C153.339 344.867 155.312 344.883 156.198 343.713C157.034 342.677 156.315 341.105 155.746 340.102Z" fill="white"/>
<path d="M181.34 341.858C181.34 342.66 181.323 343.479 181.29 344.265C179.869 344.9 178.13 345.167 176.877 344.248C176.375 343.88 176.208 343.412 176.258 342.927C175.439 342.342 174.854 341.49 175.055 340.47C175.372 338.765 176.843 337.612 178.498 337.377C179.418 337.244 180.32 337.361 181.156 337.678C181.256 339.066 181.34 340.453 181.34 341.858Z" fill="white"/>
<path d="M36.3896 368.989C35.7209 369.44 34.8349 369.858 33.9322 370.059C32.2606 369.239 30.6892 368.287 29.2181 367.167C29.0175 366.765 28.9339 366.314 29.0175 365.829C29.3351 364.124 30.8062 362.971 32.4612 362.737C34.4003 362.452 36.2558 363.255 37.4762 364.776C38.7968 366.431 38.0111 367.902 36.3896 368.989Z" fill="white"/>
<path d="M66.3793 363.606C65.1757 363.255 63.8217 363.288 62.6515 363.723C62.2169 363.69 61.7822 363.69 61.381 363.723C57.4526 364.074 57.9374 368.972 60.8962 370.426C63.7715 371.831 68.1847 370.828 69.1041 367.451C69.6223 365.528 68.1178 364.108 66.3793 363.606Z" fill="white"/>
<path d="M103.791 362.503C102.387 361.199 100.047 361.031 98.3082 361.683C96.7201 362.269 95.7505 363.656 95.4329 365.294C95.3493 365.762 95.3159 366.197 95.3493 366.598C95.1654 367.417 95.2156 368.236 95.7171 368.955C96.7201 370.393 99.0771 370.56 100.515 369.741C101.183 369.356 101.518 368.721 102.036 368.169C102.621 367.518 103.507 367.417 104.159 366.849C105.496 365.695 104.945 363.572 103.791 362.503Z" fill="white"/>
<path d="M137.442 365.428C136.74 364.208 135.653 363.372 134.282 363.038C132.895 362.703 131.09 362.82 130.003 363.857C129.234 364.609 128.967 365.879 129.602 366.782C129.953 367.284 130.504 367.601 131.14 367.835C131.725 368.805 132.678 369.473 133.781 369.808C135.051 370.192 137.024 370.209 137.91 369.039C138.729 368.019 138.027 366.431 137.442 365.428Z" fill="white"/>
<path d="M165.208 364.776C163.988 363.255 162.149 362.469 160.21 362.737C158.555 362.971 157.084 364.124 156.766 365.829C156.566 366.849 157.151 367.718 157.97 368.286C157.92 368.771 158.087 369.223 158.588 369.607C160.193 370.794 162.65 369.992 164.138 369.005C165.743 367.902 166.529 366.431 165.208 364.776Z" fill="white"/>
<path d="M68.5189 369.607C60.0436 368.22 52.1533 364.091 45.9514 358.19C39.6158 352.188 35.0689 344.365 33.2802 335.806C32.1435 330.39 31.9763 324.84 31.7088 319.323C31.4414 313.773 31.0234 308.257 29.636 302.874C28.2652 297.491 26.3261 292.276 25.4401 286.776C24.5875 281.56 24.5039 276.261 25.0054 271.012C26.0252 260.28 29.3852 249.866 33.6145 240.003C34.1327 238.766 34.6844 237.545 35.236 236.342C35.3865 236.007 34.4671 235.924 34.3333 236.208C29.8365 246.071 26.1087 256.418 24.5374 267.201C23.7517 272.533 23.5344 277.966 24.0693 283.332C24.621 288.849 26.1923 294.081 27.747 299.38C28.5661 302.155 29.3016 304.964 29.753 307.822C30.2043 310.597 30.4384 313.389 30.6055 316.181C30.9566 321.814 30.99 327.498 31.8593 333.081C33.23 341.958 37.2086 350.099 43.3771 356.635C49.2446 362.853 56.9008 367.451 65.2425 369.44C66.2454 369.674 67.2652 369.875 68.2849 370.042C68.7028 370.142 69.1374 369.707 68.5189 369.607Z" fill="#1A3333"/>
<path d="M152.387 314.743C145.449 314.342 138.495 313.991 131.524 314.074C128.064 314.125 124.62 314.275 121.177 314.593C117.75 314.894 114.356 315.311 110.929 315.529C107.502 315.746 104.042 315.78 100.632 315.295C97.3889 314.827 94.2294 313.924 91.1201 312.888C88.0108 311.851 84.9517 310.681 81.8424 309.628C78.6662 308.541 75.4566 307.588 72.2136 306.719C65.7777 305.014 59.2247 303.744 52.6216 302.924C51.7858 302.824 50.9333 302.724 50.0974 302.64C49.9135 302.624 49.4622 302.607 49.3786 302.841C49.295 303.075 49.5959 303.192 49.7798 303.209C56.4665 303.927 63.103 305.098 69.6392 306.719C72.9324 307.538 76.1754 308.474 79.4017 309.527C82.5445 310.547 85.6203 311.701 88.7296 312.787C91.7888 313.857 94.8981 314.843 98.0743 315.479C101.384 316.147 104.744 316.348 108.121 316.264C111.581 316.164 115.042 315.796 118.485 315.462C121.946 315.111 125.423 314.843 128.9 314.743C135.854 314.526 142.808 314.81 149.762 315.194C150.631 315.245 151.517 315.295 152.387 315.345C152.554 315.362 152.972 315.278 152.972 315.044C152.972 314.793 152.554 314.76 152.387 314.743Z" fill="#1A3333"/>
<path d="M74.6871 300.367C71.6948 296.371 68.3849 292.61 64.7908 289.15C61.0296 285.522 56.9173 282.346 52.7214 279.254C50.3978 277.548 48.0742 275.793 45.4664 274.556C45.2323 274.439 44.8813 274.422 44.6473 274.556C44.4467 274.673 44.4299 274.874 44.6473 274.974C46.9542 276.061 49.0103 277.548 51.0497 279.053C53.2062 280.641 55.3794 282.229 57.4689 283.901C61.3305 286.993 64.9413 290.387 68.2512 294.065C70.1235 296.137 71.8954 298.294 73.5504 300.517C73.7008 300.734 74.0184 300.751 74.2692 300.718C74.4029 300.718 74.8543 300.584 74.6871 300.367Z" fill="#1A3333"/>
<path d="M127.161 290.454C126.793 289.317 126.358 288.197 125.874 287.11C125.723 286.759 124.57 286.859 124.754 287.261C126.425 291.072 127.462 295.134 127.779 299.297C127.88 300.467 127.913 301.654 127.88 302.824C127.88 303.225 129.033 303.242 129.033 302.824C129.117 298.628 128.482 294.449 127.161 290.454Z" fill="#1A3333"/>
<path d="M170.006 353.944C169.22 355.515 168.418 357.103 167.632 358.674C166.88 360.179 166.111 361.683 165.141 363.054C163.469 365.428 161.263 367.384 158.856 369.005C157.485 369.925 156.047 370.727 154.576 371.463C154.359 371.563 154.376 371.763 154.576 371.88C154.81 372.014 155.161 371.997 155.395 371.88C158.053 370.56 160.628 368.972 162.851 366.999C163.954 366.013 164.974 364.943 165.86 363.756C166.863 362.419 167.665 360.965 168.418 359.477C169.32 357.688 170.206 355.899 171.109 354.111C171.326 353.71 170.19 353.592 170.006 353.944Z" fill="#1A3333"/>
<g clip-path="url(#clip0_99_2364)">
<path d="M531.165 300.726C529.61 296.292 528.033 291.88 526.434 287.468C521.987 275.154 517.343 262.905 512.524 250.722C507.202 237.267 500.762 209.74 481.311 216.787C474.696 219.179 471.082 225.721 471.739 232.613C471.542 232.898 471.454 233.228 471.564 233.623C476.404 250.766 484.487 266.593 493.731 281.541C498.374 289.071 503.303 296.402 508.297 303.69C510.663 307.158 512.831 310.67 515.963 313.458C517.124 314.49 518.351 315.521 519.84 315.807C520.848 316.004 521.877 315.829 522.885 315.631C525.514 315.126 528.142 314.512 530.727 313.787C531.91 313.458 533.136 313.085 534.056 312.229C534.429 311.878 534.757 311.438 534.845 310.912C535.064 309.551 533.574 308.168 533.224 306.939C532.632 304.853 531.888 302.79 531.165 300.726Z" fill="#FDB082"/>
<path d="M561.809 324.521C559.027 319.846 555.26 316.992 551.295 313.458C547.462 310.034 542.665 307.004 537.956 304.919C533.356 302.9 527.945 302.022 523.345 304.063C514.934 307.773 515.329 319.582 521.527 325.18C524.09 327.485 527.485 328.736 529.873 331.216C532.063 333.499 533.202 336.616 535.217 339.053C535.656 339.558 536.159 340.084 536.816 340.216C541.876 341.314 538.262 332.621 537.276 331.15C535.743 328.868 533.399 326.87 532.698 324.126C531.713 320.175 536.904 319.89 539.489 320.855C543.585 322.37 547.309 325.224 550.112 328.56C551.821 330.602 553.31 332.797 554.887 334.948C555.632 335.98 556.552 336.967 557.187 338.065C557.669 338.921 558.151 339.975 559.312 340.04C560.342 340.106 561.196 338.987 561.021 337.977C561.765 338.877 562.641 339.689 563.605 340.37C563.868 340.545 564.131 340.721 564.438 340.787C565.292 340.962 566.102 340.216 566.321 339.382C566.54 338.548 566.343 337.67 566.146 336.814C566.278 337.165 566.606 337.45 567 337.516C567.044 335.299 565.883 332.841 565.007 330.799C564.109 328.692 563.058 326.672 561.897 324.697C561.875 324.631 561.831 324.565 561.809 324.521Z" fill="#FDB082"/>
<path d="M492.46 132.868C496.644 146.654 498.593 161.009 502.295 174.926C505.405 186.604 509.743 197.953 515.24 208.73C516.927 212.045 518.745 215.36 519.797 218.938C521.527 224.798 520.476 232.306 515.087 235.159C513.685 235.906 512.086 236.279 510.531 236.63C500.871 238.825 491.233 240.998 481.574 243.193C474.477 244.796 466.767 242.491 461.991 236.432C458.465 231.954 458.268 225.808 458.312 220.101C458.443 204.45 457.895 187.614 460.524 172.204C461.75 165.004 461.028 157.278 461.115 149.946C461.225 141.934 461.444 133.922 461.794 125.91C462.101 118.908 462.517 111.84 464.116 104.991C465.584 98.7349 467.665 94.3228 473.732 99.7227C483.238 108.108 488.846 121.015 492.46 132.868Z" fill="white"/>
<path d="M333.83 132.232C337.642 124.264 341.475 116.296 345.286 108.305C346.359 106.066 347.455 103.806 349.163 102.006C350.872 100.228 353.325 98.9544 355.778 99.3056C361.101 100.074 362.328 110.698 362.788 115.022C365.219 137.654 365.635 160.922 359.305 182.807C356.457 192.641 355.274 202.804 351.244 212.309C348.747 218.169 345.155 224.294 339.854 228.003C333.327 232.569 325.682 233.689 318.454 230.462C316.176 229.43 313.919 228.201 312.189 226.379C308.947 222.933 308.75 219.421 307.983 215.118C306.998 209.696 306.122 204.67 306.275 199.116C306.428 193.387 307.129 187.592 309.232 182.236C311.4 176.682 314.971 171.831 317.972 166.673C322.703 158.551 325.463 149.639 329.493 141.21C330.939 138.224 332.385 135.217 333.83 132.232Z" fill="white"/>
<path d="M399.981 408C399.652 380.122 399.74 352.025 403.858 324.587C410.144 332.621 410.057 342.982 412.269 352.903C414.876 364.537 417.876 376.083 420.593 387.695C422.192 394.456 423.703 401.239 425.236 408.022H493.599C490.992 395.861 488.386 383.7 485.779 371.518C482.275 355.142 477.302 339.25 473.71 322.831C468.541 299.234 470.468 275.527 471.06 251.403C471.082 250.942 471.082 250.481 471.104 250.042C471.301 241.722 471.761 231.01 466.526 223.92C461.641 217.313 452.835 214.525 444.994 213.757C435.312 212.835 425.565 212.857 415.883 213.735C396.41 215.513 377.332 221.045 359.874 229.891C358.757 230.462 358.954 231.362 359.874 231.976C359.94 232.02 360.027 232.064 360.115 232.086C359.129 231.603 355.909 238.496 352.317 247.166C346.994 259.963 340.905 276.646 340.204 279.083C335.298 295.941 333.545 312.294 332.823 329.789C331.749 355.867 331.859 381.966 332.363 408.044H399.981V408Z" fill="#325968"/>
<path d="M448.433 305.841C444.074 307.421 440.066 309.616 436.167 312.141C432.092 314.775 428.062 317.453 424.032 320.109C421.71 321.623 419.388 323.16 417.088 324.675C416.278 325.201 417.833 325.618 418.315 325.289C422.301 322.655 426.31 320.043 430.296 317.409C434.217 314.841 438.094 312.119 442.212 309.836C444.49 308.563 446.878 307.487 449.331 306.609C450.36 306.214 449.046 305.621 448.433 305.841Z" fill="#1A3333"/>
<path d="M454.413 323.182C454.282 322.853 453.624 322.831 453.362 322.875C445.169 324.477 437.021 326.409 428.96 328.626C428.654 328.714 428.413 328.955 428.654 329.218C428.895 329.504 429.53 329.46 429.836 329.372C437.766 327.177 445.761 325.289 453.822 323.709C454.062 323.687 454.544 323.555 454.413 323.182Z" fill="#1A3333"/>
<path d="M417.132 239.396C415.905 258.229 414.701 277.063 413.474 295.897C413.408 296.995 413.518 298.399 413.08 299.431C412.62 300.529 411.13 301.099 410.188 301.692C408.48 302.746 406.793 303.821 405.085 304.875C405.939 287.27 406.311 269.622 406.158 251.995C406.114 246.947 406.026 241.876 405.917 236.827C405.895 236.213 404.187 236.257 404.187 236.871C404.625 254.915 404.559 272.958 403.946 290.98C403.77 296.029 403.551 301.099 403.31 306.148C403.288 306.719 404.515 306.587 404.8 306.412L410.736 302.724C411.678 302.131 412.663 301.56 413.583 300.924C414.394 300.353 414.854 299.673 415.007 298.685C415.182 297.565 415.182 296.402 415.248 295.261C415.336 294.075 415.401 292.868 415.489 291.683C415.642 289.29 415.796 286.897 415.949 284.505C416.562 274.89 417.198 265.298 417.811 255.683C418.161 250.239 418.512 244.796 418.862 239.33C418.884 238.759 417.176 238.759 417.132 239.396Z" fill="#1A3333"/>
<path d="M471.104 250.02C471.082 250.481 471.082 250.942 471.06 251.381C470.731 251.491 470.381 251.578 470.008 251.6C468.913 251.71 467.818 251.622 466.745 251.578C465.496 251.535 464.27 251.491 463.021 251.425C460.502 251.337 457.961 251.227 455.442 251.139C450.382 250.942 445.322 250.744 440.263 250.547C430.143 250.152 420.023 249.757 409.903 249.361C399.827 248.966 389.773 248.571 379.698 248.176C370.563 247.825 361.429 247.452 352.295 247.1C355.888 238.43 359.13 231.537 360.093 232.02C360.028 231.976 359.94 231.954 359.852 231.911C358.932 231.318 358.735 230.396 359.852 229.825C377.31 221.001 396.388 215.447 415.861 213.669C425.543 212.791 435.29 212.769 444.972 213.691C452.814 214.438 461.619 217.247 466.504 223.855C471.761 230.989 471.301 241.701 471.104 250.02Z" fill="#9B3719"/>
<path d="M420.264 250.788H404.296C402.04 250.788 400.222 248.966 400.222 246.705V231.559C400.222 229.298 402.04 227.476 404.296 227.476H420.264C422.52 227.476 424.338 229.298 424.338 231.559V246.705C424.338 248.966 422.498 250.788 420.264 250.788ZM404.296 229.21C403.004 229.21 401.952 230.264 401.952 231.559V246.705C401.952 248 403.004 249.054 404.296 249.054H420.264C421.557 249.054 422.608 248 422.608 246.705V231.559C422.608 230.264 421.557 229.21 420.264 229.21H404.296Z" fill="white"/>
<path d="M422.739 237.047H416.956C416.693 237.047 416.102 237.31 416.102 238.474C416.102 239.637 416.715 239.901 416.956 239.901H422.739C423.002 239.901 423.593 239.637 423.593 238.474C423.593 237.31 422.98 237.047 422.739 237.047Z" fill="white"/>
<path d="M395.71 237.574C395.491 237.332 395.162 237.222 394.877 237.179C394.483 237.113 394.001 237.157 393.629 237.354C393.476 237.442 393.366 237.53 393.256 237.683C393.169 237.793 393.147 237.925 393.125 238.057C393.059 238.298 393.037 238.583 393.147 238.825L393.169 238.847C393.191 239 393.213 239.154 393.278 239.264C393.344 239.418 393.476 239.527 393.629 239.593C393.914 239.747 394.308 239.791 394.636 239.725C394.987 239.681 395.294 239.527 395.535 239.308C395.841 239.022 396.082 238.627 396.038 238.21C395.973 237.969 395.885 237.771 395.71 237.574Z" fill="white"/>
<path d="M379.632 237.574C379.413 237.332 379.084 237.222 378.8 237.179C378.405 237.113 377.923 237.157 377.551 237.354C377.398 237.442 377.288 237.53 377.179 237.683C377.091 237.793 377.069 237.925 377.047 238.057C376.981 238.298 376.96 238.583 377.069 238.825L377.091 238.847C377.113 239 377.135 239.154 377.201 239.264C377.266 239.418 377.398 239.527 377.551 239.593C377.836 239.747 378.23 239.791 378.559 239.725C378.909 239.681 379.216 239.527 379.457 239.308C379.763 239.022 380.004 238.627 379.96 238.21C379.895 237.969 379.807 237.771 379.632 237.574Z" fill="white"/>
<path d="M413.693 97.9664C412.926 98.4494 412.138 98.9323 411.371 99.3932C399.718 106.264 386.247 111.005 372.82 109.535C367.541 108.964 362.218 107.361 358.188 103.893C354.157 100.425 351.66 94.8714 352.865 89.691C354.113 84.2691 358.757 80.6033 362.656 77.0254C367.344 72.723 370.169 68.706 370.804 62.2085C371.002 60.211 371.002 58.1915 371.505 56.2379C372.228 53.3185 374.09 50.6405 376.762 49.2795C378.69 48.2917 381.757 48.0722 383.093 46.1844C385.94 42.2552 383.246 36.0871 383.772 31.5652C384.276 27.3726 386.729 22.4117 389.489 19.2069C392.577 15.6069 396.761 12.9948 401.317 11.6997C402.85 11.2607 404.471 10.9095 406.092 10.7778C407.866 10.646 408.589 11.546 410.035 12.5558C413.014 14.6411 416.08 16.5728 418.906 18.8776C426.288 24.8921 432.947 31.8066 438.642 39.4236C439.956 41.1796 441.226 43.0016 441.993 45.0649C443.263 48.4893 443.001 52.3526 441.905 55.8648C440.657 59.8818 438.182 63.1524 436.473 66.928C434.852 70.5499 433.713 74.3034 432.246 77.9912C428.763 86.6179 421.534 93.0275 413.693 97.9664Z" fill="black"/>
<path d="M450.58 237.135C455.596 238.474 460.634 239.791 465.518 240.142C466.723 240.23 468.059 240.164 469.001 239.374C469.833 238.671 470.14 237.574 470.403 236.52C473.009 225.589 472.44 214.174 472.506 202.935C472.571 187.636 476.076 172.27 474.411 157.19C473.141 145.534 472.133 133.571 474.433 121.959C476.273 118.469 478.836 114.43 478.661 110.457C478.485 106.659 476.536 102.971 474.083 100.184C471.367 97.0886 467.862 94.7618 464.292 92.7204C459.297 89.8887 454.019 87.4961 448.521 85.8278C445.892 85.0376 443.57 84.6644 441.226 83.3035C439.146 82.0742 436.846 81.3938 434.48 80.9108C424.535 78.8914 414.262 79.9231 404.165 80.9328C401.295 81.2182 398.426 81.5255 395.556 81.8108C392.972 82.0742 390.365 82.3376 387.956 83.2815C384.56 84.5986 382.217 88.0229 378.865 89.0546C375.295 90.1521 371.352 90.7009 367.694 91.7106C363.248 92.9399 358.341 93.5545 354.836 96.891C351.244 100.315 350.302 105.649 349.733 110.588C347.718 128.193 348.725 145.6 348.572 163.183C348.484 173.829 348.747 184.497 349.404 195.121C350.018 205.328 352.602 215.184 352.712 225.501C352.756 229.233 352.011 236.674 356.83 237.947C357.815 238.21 358.867 238.079 359.874 237.947C369.753 236.63 379.632 235.313 389.511 233.996C396.761 233.03 404.011 232.064 411.327 231.889C420.768 231.669 430.165 232.767 439.43 234.413C443.088 235.115 446.812 236.125 450.58 237.135Z" fill="white"/>
<path d="M414.35 137.368C415.467 137.039 416.234 136.007 416.891 135.042C422.038 127.6 427.186 120.137 432.333 112.696C434.546 109.513 436.758 106.286 438.313 102.73C440.044 98.7569 440.92 94.3886 440.832 90.0424C440.657 80.8011 429.398 83.2157 423.09 83.5669C415.664 83.984 408.239 84.5986 400.835 85.3888C394.286 86.0912 388.196 86.8595 388.218 95.0252C388.218 101.281 392.008 106.901 396.345 111.422C400.66 115.944 405.698 119.83 409.29 124.944C411.853 128.632 413.605 132.912 414.35 137.368Z" fill="#FDB082"/>
<path d="M349.273 176.594C348.922 165.795 348.966 154.973 349.426 144.173C349.689 138.071 350.083 131.947 350.587 125.866C350.631 125.273 348.922 125.23 348.856 125.866C347.936 136.688 347.433 147.532 347.323 158.397C347.301 159.978 347.301 161.558 347.301 163.139C343.074 155.719 340.445 147.488 339.591 138.971C339.525 138.334 337.817 138.378 337.86 138.971C338.78 148.322 341.869 157.431 346.841 165.4C346.929 165.531 347.104 165.619 347.301 165.663C347.367 174.048 347.674 182.433 348.221 190.819C348.615 196.921 349.163 203.023 349.82 209.104C349.886 209.74 351.594 209.674 351.551 209.104C350.412 198.282 349.645 187.438 349.273 176.594Z" fill="#325968"/>
<path d="M329.931 178.241C327.193 175.738 324.149 173.609 320.907 171.875C320.556 171.7 320.031 171.678 319.68 171.875C319.374 172.051 319.352 172.336 319.68 172.49C331.64 178.834 340.007 190.753 341.935 204.165C342.504 208.182 342.526 212.287 341.957 216.304C341.869 216.874 343.6 216.94 343.687 216.304C345.615 202.233 340.423 187.811 329.931 178.241Z" fill="#325968"/>
<path d="M334.115 217.906C333.699 222.011 331.268 225.83 327.675 227.85C327.369 228.025 327.369 228.289 327.675 228.464C328.004 228.64 328.573 228.64 328.902 228.464C332.757 226.291 335.407 222.318 335.846 217.884C335.889 217.335 334.181 217.269 334.115 217.906Z" fill="#325968"/>
<path d="M401.996 119.939C400.769 119.632 399.543 119.391 398.316 119.193C395.775 118.776 393.169 118.6 390.584 118.644C387.977 118.688 385.414 118.995 382.852 119.391C380.355 119.786 377.77 120.203 375.273 119.72C375.032 109.754 376.85 99.8104 380.596 90.5691C380.858 89.9545 379.15 89.8009 378.931 90.3277C375.12 99.7226 373.28 109.886 373.564 120.027C373.564 120.225 373.827 120.378 373.98 120.4C378.69 121.476 383.377 119.983 388.087 119.61C390.474 119.434 392.884 119.456 395.271 119.698C396.454 119.808 397.637 119.983 398.798 120.203C399.784 120.378 400.988 120.488 401.843 121.015C402.324 121.322 402.719 121.717 403.135 121.169C403.726 120.378 402.565 120.071 401.996 119.939Z" fill="#325968"/>
<path d="M453.887 108.415C453.076 104.376 452.507 100.03 450.097 96.5617C449.769 96.0788 448.082 96.2983 448.433 96.8032C450.842 100.271 451.412 104.64 452.2 108.701C453.098 113.178 453.975 117.678 454.873 122.156C446.418 120.752 437.853 120.049 429.267 120.027C429.004 120.027 428.412 120.115 428.412 120.466C428.412 120.817 429.026 120.905 429.267 120.905C438.094 120.927 446.921 121.695 455.617 123.188C455.814 123.21 456.8 123.188 456.713 122.771C455.793 117.986 454.851 113.2 453.887 108.415Z" fill="#325968"/>
<path d="M475.857 148.937C475.77 141.21 475.112 133.483 473.93 125.844C473.82 125.208 472.112 125.274 472.199 125.844C473.251 132.605 473.886 139.41 474.083 146.259C474.28 153.261 473.952 160.263 473.689 167.266C473.163 181.226 472.637 195.165 472.09 209.126L471.192 232.767C471.17 233.359 472.9 233.381 472.922 232.767C473.448 218.762 473.995 204.758 474.521 190.775C474.784 183.794 475.047 176.814 475.31 169.856C475.594 162.897 475.945 155.917 475.857 148.937Z" fill="#325968"/>
<path d="M485.736 137.017C485.67 136.381 483.961 136.424 484.005 137.017C485.188 148.475 483.195 159.978 480.26 171.041C479.427 174.18 478.529 177.275 477.587 180.37C477.39 181.029 479.077 181.138 479.252 180.611C482.581 169.614 485.582 158.331 486.02 146.785C486.152 143.515 486.064 140.244 485.736 137.017Z" fill="#325968"/>
<path d="M500.565 206.074C500.236 205.877 499.667 205.899 499.338 206.074C490.927 210.728 483.72 217.445 478.551 225.545C478.222 226.072 479.887 226.291 480.216 225.786C485.297 217.862 492.329 211.255 500.565 206.711C500.871 206.513 500.871 206.25 500.565 206.074Z" fill="#325968"/>
<path d="M510.794 224.096C506.216 226.796 501.178 228.552 495.921 229.233C495.658 229.277 495.176 229.43 495.33 229.781C495.461 230.111 496.118 230.133 496.381 230.089C501.901 229.386 507.245 227.564 512.021 224.733C512.853 224.228 511.276 223.811 510.794 224.096Z" fill="#325968"/>
<path d="M416.19 151.395C415.927 150.978 415.511 150.627 414.941 150.495C412.97 149.99 412.269 151.549 412.335 152.997C412.357 153.59 412.554 154.249 413.233 154.6C414.131 155.061 415.555 154.863 416.102 154.139C416.672 153.371 416.694 152.229 416.19 151.395Z" fill="white"/>
<path d="M416.19 183.048C415.927 182.631 415.511 182.28 414.941 182.148C412.97 181.643 412.269 183.202 412.335 184.65C412.357 185.243 412.554 185.902 413.233 186.253C414.131 186.714 415.555 186.516 416.102 185.792C416.672 185.024 416.694 183.86 416.19 183.048Z" fill="white"/>
<path d="M416.19 214.679C415.927 214.262 415.511 213.911 414.941 213.779C412.97 213.274 412.269 214.833 412.335 216.282C412.357 216.874 412.554 217.533 413.233 217.884C414.131 218.345 415.555 218.147 416.102 217.423C416.672 216.677 416.694 215.513 416.19 214.679Z" fill="white"/>
<path d="M397.681 73.1183C397.659 74.15 397.659 75.1597 397.637 76.0816C397.528 79.6816 397.155 83.2815 396.542 86.8375C396.301 88.1765 396.06 89.6253 396.717 90.7887C397.659 92.4789 399.915 92.7423 401.843 92.8301C402.763 92.874 403.705 92.9179 404.624 92.9399C405.019 92.9618 405.413 92.9838 405.763 93.1594C406.048 93.313 406.289 93.5545 406.53 93.752C407.56 94.5642 409.224 94.4106 410.473 94.4545C411.962 94.4984 413.474 94.4106 414.941 94.213C418.468 93.774 421.513 92.6325 425.061 92.435C427.471 92.3033 429.858 92.1057 432.246 91.8204C433.538 91.6667 436.714 91.996 437.218 90.4594C437.459 89.735 437.284 88.9668 437.108 88.2424C435.531 81.5693 434.283 74.8085 433.363 68.0257C433.144 66.3574 432.925 64.6891 432.728 63.0209C432.596 61.8794 432.837 59.2892 432.268 58.3234C431.063 56.3039 427.339 57.7307 425.696 58.4112C423.988 59.1136 422.433 60.299 420.593 60.6941C418.227 61.2209 415.358 61.3087 412.882 61.616C411.064 61.8355 409.334 61.1112 407.538 60.9575C405.873 60.8038 404.624 61.3965 403.135 61.9672C402.281 62.2965 401.536 62.7575 400.857 63.2843C398.119 65.5233 397.768 69.5183 397.681 73.1183Z" fill="#FDB082"/>
<path d="M398.01 72.4814C397.988 72.679 397.988 72.8766 397.966 73.0741C397.9 74.1717 397.922 75.2911 398.338 76.3009C398.667 77.135 399.258 77.8155 399.828 78.5179C404.997 84.7739 414.744 84.4446 421.053 79.9447C423.134 78.4521 424.908 76.4765 425.916 74.1278C427.011 71.6034 427.843 66.423 424.689 64.9523C422.477 63.9206 420.001 63.3718 417.592 62.9109C415.511 62.5158 413.299 62.1426 411.174 62.2524H411.086C409.466 62.2304 407.845 62.4499 406.268 62.7572C404.953 63.0206 404.581 63.8767 403.354 64.2718C401.602 64.8206 400.178 66.1816 399.324 67.8059C398.535 69.2327 398.163 70.8571 398.01 72.4814Z" fill="#E26E61"/>
<path d="M390.781 20.3263C391.504 18.7898 392.38 17.2532 393.541 16.1776C395.425 14.4655 398.141 13.2143 400.463 12.1606C401.842 11.546 403.288 11.0192 404.778 10.7338C406.42 10.4046 408.129 10.3826 409.794 10.4924C414.7 10.8436 419.41 12.6435 423.44 15.3435C426.901 17.6703 430.844 21.1605 433.056 24.6506C435.597 28.6676 436.232 34.8797 436.561 39.4674C436.911 44.582 436.451 49.7404 435.224 54.7233C433.253 62.5817 429.617 69.6937 423.199 75.0058C417.482 79.7253 409.202 81.7447 402.281 78.079C396.213 74.8522 392.358 68.9474 390.233 62.7573C389.16 59.6403 388.35 56.3037 388.087 53.0111C387.846 49.8721 387.955 46.7332 387.692 43.5723C387.43 40.5211 386.115 37.5138 386.619 34.4188C387.232 30.5993 388.196 26.4067 389.729 22.7848C390.036 22.0165 390.387 21.1824 390.781 20.3263Z" fill="#FDB082"/>
<path d="M423.177 33.6288C424.448 33.9361 425.653 34.441 426.638 35.1873C427.427 35.8019 428.062 36.5702 428.697 37.3385C429.091 37.8214 429.508 38.3921 429.376 38.9848C429.464 38.6116 426.2 37.558 425.696 37.3824C424.141 36.8336 422.871 36.219 421.162 36.1092C419.432 35.9995 417.701 36.197 415.949 36.2409C414.985 36.2629 413.824 35.5385 414.635 34.5727C415.358 33.7166 417.285 33.2776 418.358 33.2337C419.892 33.1459 421.6 33.2556 423.177 33.6288Z" fill="black"/>
<path d="M393.979 34.0894C392.796 34.4845 391.679 35.0772 390.802 35.8894C390.08 36.5479 389.532 37.3601 388.962 38.1723C388.612 38.6771 388.24 39.2698 388.415 39.8625C388.327 39.4893 391.35 38.2162 391.81 37.9967C393.256 37.3381 394.417 36.6357 396.038 36.4162C397.68 36.1967 399.323 36.2625 400.988 36.1747C401.908 36.1308 402.959 35.3187 402.127 34.4187C401.382 33.6065 399.542 33.3211 398.513 33.3431C397.067 33.365 395.468 33.5845 393.979 34.0894Z" fill="black"/>
<path d="M395.03 42.4529C395.249 41.3114 395.775 39.9724 397.221 39.7529C398.162 39.6212 399.192 40.0822 399.608 40.8724C399.827 41.2675 399.893 41.7285 399.915 42.1675C399.98 43.2431 399.893 44.5821 398.863 45.2845C398.272 45.7016 397.374 45.8333 396.695 45.4821C395.315 44.7797 394.745 43.9016 395.03 42.4529Z" fill="black"/>
<path d="M420.878 42.4529C421.097 41.3114 421.623 39.9724 423.068 39.7529C424.01 39.6212 425.04 40.0822 425.456 40.8724C425.675 41.2675 425.741 41.7285 425.762 42.1675C425.828 43.2431 425.741 44.5821 424.711 45.2845C424.12 45.7016 423.222 45.8333 422.543 45.4821C421.163 44.7797 420.593 43.9016 420.878 42.4529Z" fill="black"/>
<path d="M409.071 57.7526C408.151 57.6428 407.253 57.533 406.333 57.4233C405.675 57.3355 404.909 57.2696 404.361 56.8087C402.959 55.6453 404.208 53.2526 404.646 51.8917C405.785 48.3796 406.639 44.7577 407.231 41.1138C407.318 40.6529 405.785 40.6748 405.697 41.2455C404.996 45.3942 403.923 49.4112 402.609 53.4063C402.127 54.8989 401.842 56.6989 403.463 57.5769C404.142 57.9501 404.909 58.0818 405.675 58.1696C406.683 58.3013 407.691 58.4111 408.698 58.5428C408.961 58.5647 409.531 58.4989 409.618 58.1916C409.75 57.8623 409.29 57.7745 409.071 57.7526Z" fill="#E26E61"/>
<path d="M478.485 83.0619C477.499 79.879 475.791 76.8498 473.25 74.6986C470.03 71.9548 465.649 70.7475 462.692 67.6743C461.838 66.7963 461.137 65.7646 460.611 64.6451C460.677 61.7696 461.159 58.8721 461.049 55.9965C460.852 50.7503 458.465 45.7016 454.807 42.0138C452.901 40.1041 450.667 38.5456 448.192 37.492C445.716 36.4383 445.103 35.4944 445.256 32.5969C445.673 25.0239 442.759 17.4289 437.809 11.6997C433.143 6.32179 426.222 1.79992 419.147 0.460917C416.211 -0.0878535 413.167 -0.131755 410.21 0.329212C406.968 0.834081 404.515 2.6121 402.28 4.82913C400.046 7.06812 396.695 7.57299 394.044 9.15345C391.285 10.8217 389.401 13.5875 387.911 16.4411C385.108 21.7532 383.311 27.7019 383.53 33.6945C383.552 34.5725 383.662 35.4944 384.231 36.153C385.743 37.8651 387.889 35.1213 388.678 33.9798C389.861 32.2677 390.781 30.3799 391.416 28.4043C392.27 25.7263 392.577 22.8947 393.694 20.3264C394.855 17.6484 397.549 14.9046 400.616 14.6631C403.792 14.4216 406.88 17.5826 408.436 19.9972C409.859 22.1922 410.933 24.6068 412.466 26.7361C413.955 28.8214 415.949 30.775 418.533 31.236C421.622 31.7847 424.754 32.0482 427.689 33.3433C432.727 35.5383 433.56 39.4017 434.217 44.3845C434.699 48.0284 434.107 51.6722 434.348 55.316C434.348 55.4258 434.37 55.5575 434.37 55.6672C434.436 56.7867 434.567 58.1257 434.304 59.2233C434.063 60.2769 433.384 61.3306 432.99 62.3403C432.114 64.5573 431.369 66.8183 430.756 69.1231C430.143 71.406 429.858 73.7547 429.902 76.1035C430.033 85.7618 435.181 94.147 444.621 96.8251C448.192 97.8348 451.959 98.4714 455.048 100.513C457.391 102.071 459.187 104.376 460.305 106.944C460.392 107.12 460.458 107.318 460.524 107.493C461.356 109.908 460.852 112.542 462.013 114.781C462.517 114.715 462.999 114.539 463.481 114.364C466.416 113.266 469.263 111.817 471.651 109.798C474.06 107.757 475.046 105.408 476.689 102.862C478.2 100.513 479.843 98.7128 480.018 95.7275C480.237 91.6227 479.712 87.013 478.485 83.0619Z" fill="black"/>
<path d="M434.589 40.3896C434.655 40.3676 434.743 40.3457 434.808 40.3237C437.349 39.5993 440.394 41.2018 441.292 43.6822C441.686 44.7578 441.73 45.9212 441.642 47.0626C441.314 51.6503 438.16 59.7941 432.508 59.7502C432.245 59.7502 431.961 59.7282 431.72 59.5746C431.369 59.3551 431.172 58.938 430.997 58.5429C429.529 54.9869 429.748 50.7065 430.625 47.0407C431.194 44.7578 432.158 41.2676 434.589 40.3896Z" fill="#FDB082"/>
<path d="M401.799 63.1526C402.018 62.3404 402.762 62.1868 403.595 62.2307C404.449 62.2965 405.413 62.5819 406.026 62.6038C409.465 62.7355 412.926 62.7575 416.365 62.6916C418.577 62.6477 416.233 65.2818 415.62 65.8964C414.481 67.0379 413.035 67.9159 411.458 68.2452C408.195 68.9476 404.077 67.894 402.193 64.8648C401.339 63.4819 401.908 62.4721 403.507 62.516C407.757 62.6038 412.028 62.6916 416.277 62.8014C416.453 62.8014 416.65 62.8233 416.759 62.9331C416.869 63.0648 416.825 63.3282 416.65 63.3282L401.799 63.1526Z" fill="white"/>
<path d="M424.973 28.2287C424.732 27.9433 424.097 27.9872 423.79 28.075C421.666 28.7116 419.519 27.6141 417.986 26.1873C416.233 24.5629 415.204 22.3459 414.306 20.1727C412.663 16.2216 411.174 11.7656 407.165 9.59245C406.837 9.41684 406.289 9.39489 405.938 9.59245C405.632 9.76806 405.61 10.0315 405.938 10.2071C410.385 12.6436 411.458 18.1972 413.517 22.3898C414.569 24.541 415.971 26.4946 418.03 27.7897C420.001 29.0189 422.41 29.5019 424.645 28.8214C424.973 28.7336 425.214 28.5141 424.973 28.2287Z" fill="#1A3333"/>
<path d="M430.209 23.5971C430.077 23.2678 429.42 23.2458 429.157 23.2898C426.463 23.6849 423.769 22.719 421.797 20.8752C419.848 19.0532 418.665 16.5728 417.679 14.1363C417.46 13.6094 415.774 13.7411 416.015 14.3777C417.132 17.1216 418.556 19.9093 420.899 21.841C423.331 23.8166 426.529 24.5849 429.595 24.1458C429.858 24.1019 430.362 23.9483 430.209 23.5971Z" fill="#1A3333"/>
<path d="M436.298 16.4851C433.932 15.9363 431.873 14.3558 430.69 12.2266C430.405 11.7217 428.719 11.8973 429.025 12.4681C430.362 14.8827 432.749 16.6387 435.421 17.2533C435.794 17.3411 436.298 17.3631 436.604 17.0997C436.867 16.8363 436.56 16.5509 436.298 16.4851Z" fill="#1A3333"/>
<path d="M382.173 52.133C381.91 51.8696 381.318 51.8696 380.99 51.9794C377.003 53.3842 374.397 57.3354 375.054 61.5719C375.141 62.2085 376.872 62.1426 376.784 61.5719C376.215 57.8402 378.252 53.9989 381.866 52.7257C382.129 52.6379 382.436 52.4184 382.173 52.133Z" fill="#1A3333"/>
<path d="M370.06 77.1352C369.709 76.9376 369.183 76.9596 368.833 77.1352C367.015 78.0132 365.197 79.0888 363.992 80.7571C362.875 82.3156 362.459 84.4448 363.313 86.2228C363.576 86.7496 365.262 86.574 364.978 85.9814C364.189 84.357 364.627 82.4034 365.657 80.9766C366.73 79.462 368.417 78.5181 370.06 77.7498C370.388 77.5961 370.366 77.2888 370.06 77.1352Z" fill="#1A3333"/>
<path d="M369.381 81.1301C369.162 81.1081 368.921 81.1081 368.723 81.174C368.57 81.2179 368.373 81.2837 368.329 81.4374C367.869 82.5349 367.65 83.7422 367.694 84.9276C367.716 85.2788 368.285 85.3666 368.548 85.3666C368.745 85.3666 368.986 85.3446 369.162 85.2349C369.271 85.169 369.424 85.0812 369.424 84.9276C369.381 83.8081 369.556 82.7105 369.994 81.6569C370.125 81.3276 369.643 81.152 369.381 81.1301Z" fill="#1A3333"/>
<path d="M471.586 94.7836C468.979 91.8861 465.452 90.7447 461.707 90.1081C459.779 89.7788 457.83 89.5593 455.924 89.1423C454.018 88.7032 452.222 87.9789 450.536 87.013C448.74 85.9594 447.075 84.6643 445.476 83.3253C443.943 82.0302 442.409 80.6692 441.38 78.9132C439.124 75.0059 439.584 70.2206 440.022 65.9183C440.087 65.3476 438.357 65.2817 438.291 65.9183C437.919 69.6719 437.568 73.623 438.861 77.2669C440.197 80.9985 443.592 83.6545 446.702 85.9155C448.345 87.1008 450.076 88.1764 451.959 88.9227C453.69 89.6252 455.486 90.0422 457.326 90.3496C461.006 90.9642 465.08 91.1837 468.19 93.4885C471.169 95.6836 474.718 100.623 472.418 104.376C472.089 104.903 473.776 105.122 474.083 104.618C476.098 101.303 473.842 97.286 471.586 94.7836Z" fill="#1A3333"/>
<path d="M468.475 100.118C468.365 98.4713 467.533 96.6713 465.956 95.9689C465.584 95.8152 465.102 95.7713 464.729 95.9689C464.445 96.1225 464.379 96.4518 464.729 96.5835C466.087 97.1762 466.679 98.8444 466.744 100.227C466.81 101.654 466.372 103.125 465.408 104.2C464.883 104.793 466.525 105.057 466.898 104.639C468.015 103.41 468.584 101.786 468.475 100.118Z" fill="#1A3333"/>
<path d="M452.419 47.8087C452.113 47.5673 451.609 47.5453 451.237 47.6551C450.996 47.7209 450.601 48.0063 450.93 48.2478C453.449 50.2233 454.61 53.5818 453.931 56.7208C453.821 57.2476 455.508 57.3574 455.661 56.7208C456.384 53.4501 455.048 49.8941 452.419 47.8087Z" fill="#1A3333"/>
<path d="M260.824 124.066C259.225 125.954 257.823 128.017 256.487 129.993C256.114 130.542 255.742 131.09 255.369 131.639C251.755 136.863 250.134 144.217 248.711 150.714C248.273 152.734 247.856 154.644 247.396 156.4C242.643 174.816 238.985 193.694 236.576 212.528L239.993 212.967C242.402 194.265 246.016 175.519 250.748 157.256C251.23 155.434 251.646 153.502 252.106 151.439C253.464 145.271 254.997 138.268 258.217 133.593C258.589 133.044 258.962 132.495 259.356 131.924C259.838 131.222 260.32 130.498 260.846 129.773V124.066H260.824Z" fill="white"/>
<path d="M327.193 197.777C326.799 195.999 326.295 194.243 325.725 192.531C323.951 187.263 321.388 182.302 318.278 177.714C315.211 173.17 311.356 169.614 307.83 165.531C302.77 159.714 299.572 152.537 296.461 145.49C295.958 144.349 295.366 143.185 294.819 142C295.607 139.278 296.001 136.381 295.344 133.593C294.621 130.542 292.825 128.061 290.065 126.591C287.305 125.12 283.385 124.176 282.881 120.532C282.64 118.82 282.903 116.998 283.012 115.286C283.1 113.64 283.341 111.752 282.421 110.281C281.588 108.942 279.989 108.328 278.478 108.723C278.106 108.832 277.755 108.986 277.47 109.184C277.514 107.362 277.58 105.189 276.047 103.894C274.557 102.642 272.432 103.059 271.009 104.179C270.33 104.728 269.76 105.386 269.3 106.111C270.483 104.157 266.781 101.764 265.27 101.984C262.357 102.401 261.48 105.254 260.933 107.647C258.677 106.133 256.092 109.206 255.391 111.071C254.537 113.332 254.559 115.901 254.559 118.293C254.559 123.057 255.413 127.842 257.056 132.32C258.764 136.973 261.875 139.893 266.891 140.156C267.46 142.11 268.512 143.888 269.519 145.644C274.951 155.127 279.376 165.18 282.706 175.585C285.947 185.726 288.861 195.955 293.679 205.548C297.25 212.638 301.959 219.662 308.29 224.557C311.334 226.906 315.211 229.079 319.154 229.255C322.724 229.408 324.981 226.423 326.076 223.35C328.901 215.206 329.099 206.25 327.193 197.777Z" fill="#FDB082"/>
<path d="M262.773 125.274C262.335 124.637 261.963 123.956 261.634 123.254C260.977 121.783 260.583 120.181 260.386 118.579C259.969 115.132 260.451 111.664 260.933 108.262C260.977 107.888 259.838 107.845 259.794 108.262C259.312 111.664 258.83 115.132 259.247 118.579C259.422 120.027 259.75 121.476 260.298 122.837C260.583 123.561 260.933 124.264 261.327 124.922C261.744 125.603 262.401 126.239 262.488 127.052C262.532 127.469 263.671 127.447 263.627 127.052C263.562 126.349 263.167 125.844 262.773 125.274Z" fill="#E26E61"/>
<path d="M270.461 125.186C267.855 119.654 267.636 113.157 269.848 107.449C270.001 107.032 268.884 106.923 268.731 107.296C266.475 113.113 266.694 119.698 269.344 125.339C269.519 125.691 270.658 125.581 270.461 125.186Z" fill="#E26E61"/>
<path d="M278.5 125.844C275.74 120.993 276.748 115.264 277.887 110.083C277.975 109.732 276.836 109.666 276.748 110.083C275.609 115.33 274.623 121.081 277.405 125.998C277.602 126.349 278.719 126.217 278.5 125.844Z" fill="#E26E61"/>
<path d="M283.1 139.959H267.942C267.263 139.959 267.241 140.551 267.942 140.551H283.1C283.779 140.551 283.801 139.959 283.1 139.959Z" fill="#E26E61"/>
<path d="M314.97 330.316C312.517 333.345 309.144 334.223 304.785 334.004C297.009 333.587 289.124 333.938 281.326 333.938C268.315 333.938 255.304 334.114 242.292 333.982C235.853 333.916 229.259 333.236 222.842 333.499C218.154 333.697 214.825 334.64 215.022 328.45C216.029 298.246 217.059 268.042 218.066 237.815C218.505 224.755 218.899 211.957 220.191 198.962C220.476 196.175 229.873 198.15 231.888 198.15C261.108 198.15 290.328 198.15 319.548 198.15C320.622 198.15 318.847 302.9 318.891 312.47C318.913 317.233 318.913 322.128 317.117 326.541C316.504 328.055 315.781 329.306 314.97 330.316Z" fill="white"/>
<path d="M300.492 299.629C300.623 285.054 301.302 238.057 301.149 222.955H231.625C230.99 231.23 230.749 239.462 230.486 247.803C229.939 265.078 229.413 282.354 228.865 299.629H300.492Z" fill="#E29427"/>
<path d="M300.864 206.733C299.879 196.987 298.674 187.175 297.316 177.516C297.141 176.287 296.965 175.036 296.79 173.785C295.498 164.478 294.162 154.841 291.424 145.973C290.898 144.283 290.46 142.549 290.022 140.881C289.233 137.851 288.445 134.8 287.218 131.925C285.97 129.027 283.801 126.612 283.538 123.342C283.494 122.727 284.02 122.069 284.677 122.595C285.181 123.013 285.751 123.144 286.254 123.715C286.736 124.264 287.13 124.878 287.547 125.471C290.767 129.927 292.103 135.064 293.395 140.003C293.811 141.649 294.271 143.339 294.753 144.941C297.557 154.073 298.915 163.841 300.229 173.302C300.404 174.553 300.58 175.782 300.755 177.012C302.42 188.667 303.8 200.521 304.917 212.243L301.478 212.572C301.259 210.64 301.062 208.687 300.864 206.733Z" fill="white"/>
<path d="M233.114 224.425C232.982 223.438 232.698 222.34 232.019 221.528C232.019 221.506 231.997 221.506 231.975 221.506C231.581 220.913 231.033 220.408 230.31 220.145C229.39 219.794 228.251 219.838 227.397 220.342C226.718 220.76 226.346 221.44 226.148 222.142C225.579 224.118 225.623 226.379 225.82 228.42C225.973 230.023 226.105 232.35 228.142 232.854C230.157 233.359 232.041 232.064 232.676 230.33C233.004 229.452 233.114 228.508 233.158 227.564C233.223 226.533 233.245 225.479 233.114 224.425Z" fill="black"/>
<path d="M256.946 224.469C256.815 223.481 256.53 222.384 255.851 221.572C255.851 221.572 255.829 221.55 255.807 221.55C255.413 220.957 254.865 220.452 254.142 220.189C253.222 219.838 252.083 219.86 251.229 220.364C250.55 220.781 250.178 221.462 249.981 222.164C249.411 224.14 249.455 226.401 249.652 228.442C249.805 230.045 249.937 232.372 251.974 232.876C253.989 233.381 255.873 232.086 256.508 230.352C256.837 229.474 256.946 228.53 256.99 227.586C257.034 226.555 257.078 225.501 256.946 224.469Z" fill="black"/>
<path d="M280.756 224.491C280.624 223.503 280.34 222.406 279.683 221.594C279.683 221.572 279.661 221.572 279.639 221.572C279.244 220.979 278.697 220.474 277.974 220.211C277.054 219.859 275.915 219.903 275.061 220.386C274.382 220.803 274.009 221.484 273.812 222.208C273.243 224.184 273.286 226.445 273.484 228.486C273.637 230.089 273.768 232.415 275.805 232.92C277.821 233.425 279.704 232.13 280.34 230.396C280.668 229.518 280.778 228.574 280.822 227.652C280.865 226.598 280.887 225.523 280.756 224.491Z" fill="black"/>
<path d="M304.588 224.513C304.456 223.525 304.172 222.428 303.493 221.616C303.493 221.594 303.471 221.594 303.449 221.594C303.054 221.001 302.507 220.496 301.784 220.233C300.864 219.881 299.725 219.903 298.871 220.408C298.192 220.825 297.819 221.506 297.622 222.208C297.053 224.184 297.097 226.445 297.294 228.486C297.447 230.089 297.578 232.415 299.616 232.92C301.631 233.425 303.514 232.13 304.15 230.396C304.478 229.518 304.588 228.574 304.632 227.652C304.697 226.62 304.719 225.567 304.588 224.513Z" fill="black"/>
<path d="M243.147 249.844C243.015 248.857 242.731 247.759 242.073 246.947C242.073 246.925 242.051 246.925 242.03 246.925C241.635 246.332 241.088 245.827 240.365 245.564C239.445 245.213 238.306 245.257 237.452 245.74C236.773 246.157 236.4 246.837 236.203 247.539C235.634 249.515 235.677 251.776 235.874 253.817C236.028 255.42 236.159 257.747 238.196 258.251C240.212 258.756 242.095 257.461 242.731 255.727C243.059 254.849 243.169 253.905 243.212 252.961C243.256 251.952 243.278 250.898 243.147 249.844Z" fill="black"/>
<path d="M266.978 249.888C266.847 248.9 266.562 247.803 265.883 246.991C265.883 246.991 265.861 246.969 265.839 246.969C265.445 246.376 264.897 245.871 264.174 245.608C263.254 245.257 262.115 245.301 261.261 245.805C260.582 246.222 260.21 246.903 260.013 247.605C259.443 249.581 259.487 251.842 259.684 253.883C259.837 255.486 259.969 257.812 262.006 258.317C264.021 258.822 265.905 257.527 266.54 255.793C266.869 254.915 266.978 253.971 267.022 253.049C267.066 251.974 267.11 250.92 266.978 249.888Z" fill="black"/>
<path d="M290.788 249.91C290.657 248.922 290.372 247.825 289.715 247.013C289.715 246.991 289.693 246.991 289.671 246.991C289.277 246.398 288.729 245.893 288.006 245.63C287.086 245.279 285.947 245.323 285.093 245.805C284.414 246.223 284.042 246.903 283.845 247.605C283.275 249.581 283.319 251.842 283.516 253.883C283.669 255.486 283.801 257.813 285.838 258.317C287.853 258.822 289.737 257.527 290.372 255.793C290.701 254.915 290.81 253.971 290.854 253.049C290.898 252.018 290.92 250.942 290.788 249.91Z" fill="black"/>
<path d="M233.049 272.563C232.917 271.576 232.633 270.478 231.954 269.666C231.954 269.666 231.932 269.644 231.91 269.644C231.515 269.051 230.968 268.546 230.245 268.283C229.325 267.932 228.186 267.976 227.332 268.481C226.653 268.898 226.28 269.578 226.083 270.281C225.514 272.256 225.557 274.517 225.755 276.558C225.908 278.161 226.039 280.488 228.076 280.992C230.092 281.497 231.975 280.202 232.611 278.468C232.939 277.59 233.049 276.646 233.093 275.724C233.158 274.671 233.18 273.617 233.049 272.563Z" fill="black"/>
<path d="M256.88 272.607C256.749 271.62 256.464 270.522 255.785 269.71C255.785 269.688 255.763 269.688 255.741 269.688C255.347 269.095 254.799 268.59 254.076 268.327C253.156 267.976 252.017 268.02 251.163 268.503C250.484 268.92 250.112 269.6 249.914 270.303C249.345 272.278 249.389 274.539 249.586 276.58C249.739 278.183 249.871 280.51 251.908 281.015C253.923 281.519 255.807 280.224 256.442 278.49C256.77 277.612 256.88 276.668 256.924 275.724C256.99 274.693 257.011 273.639 256.88 272.607Z" fill="black"/>
<path d="M280.712 272.629C280.581 271.642 280.296 270.544 279.617 269.732C279.617 269.732 279.595 269.71 279.573 269.71C279.179 269.117 278.631 268.612 277.908 268.349C276.988 267.998 275.849 268.02 274.995 268.547C274.316 268.964 273.944 269.644 273.747 270.369C273.177 272.344 273.221 274.605 273.418 276.646C273.571 278.249 273.703 280.576 275.74 281.081C277.755 281.585 279.639 280.29 280.274 278.556C280.603 277.678 280.712 276.734 280.756 275.79C280.8 274.737 280.843 273.661 280.712 272.629Z" fill="black"/>
<path d="M304.522 272.651C304.39 271.663 304.106 270.566 303.449 269.754C303.449 269.732 303.427 269.732 303.405 269.732C303.011 269.139 302.463 268.634 301.74 268.371C300.82 268.02 299.681 268.064 298.827 268.568C298.148 268.985 297.775 269.666 297.578 270.368C297.009 272.344 297.053 274.605 297.25 276.646C297.403 278.249 297.534 280.576 299.572 281.08C301.609 281.585 303.471 280.29 304.106 278.556C304.434 277.678 304.544 276.734 304.588 275.812C304.631 274.759 304.653 273.705 304.522 272.651Z" fill="black"/>
<path d="M243.081 297.982C242.949 296.995 242.665 295.897 241.985 295.085C241.985 295.085 241.964 295.063 241.942 295.063C241.547 294.47 241 293.965 240.277 293.702C239.357 293.351 238.218 293.395 237.364 293.9C236.685 294.317 236.312 294.997 236.115 295.7C235.546 297.675 235.589 299.936 235.787 301.978C235.94 303.58 236.071 305.907 238.108 306.412C240.124 306.916 242.007 305.621 242.643 303.887C242.971 303.009 243.081 302.065 243.125 301.121C243.19 300.09 243.234 299.036 243.081 297.982Z" fill="black"/>
<path d="M266.913 298.026C266.781 297.039 266.496 295.941 265.839 295.129C265.839 295.107 265.817 295.107 265.795 295.107C265.401 294.514 264.854 294.009 264.131 293.746C263.211 293.395 262.072 293.417 261.217 293.922C260.538 294.339 260.166 295.019 259.969 295.743C259.399 297.719 259.443 299.98 259.64 302.021C259.794 303.624 259.925 305.951 261.962 306.455C263.977 306.96 265.861 305.665 266.496 303.931C266.825 303.053 266.934 302.109 266.978 301.187C267.022 300.112 267.044 299.058 266.913 298.026Z" fill="black"/>
<path d="M290.744 298.048C290.613 297.061 290.328 295.963 289.649 295.151C289.649 295.129 289.627 295.129 289.605 295.129C289.211 294.536 288.663 294.031 287.94 293.768C287.02 293.417 285.881 293.461 285.027 293.966C284.348 294.383 283.976 295.063 283.778 295.766C283.209 297.741 283.253 300.002 283.45 302.043C283.603 303.646 283.735 305.973 285.772 306.477C287.787 306.982 289.671 305.687 290.306 303.953C290.635 303.075 290.744 302.131 290.788 301.209C290.832 300.156 290.875 299.08 290.744 298.048Z" fill="black"/>
<path d="M561.195 337.538C561.064 337.538 560.933 337.45 560.889 337.318C559.202 332.819 556.376 326.299 551.47 321.514C551.338 321.382 551.338 321.185 551.47 321.053C551.601 320.921 551.798 320.921 551.93 321.053C556.924 325.948 559.793 332.555 561.502 337.099C561.568 337.275 561.48 337.45 561.305 337.516C561.261 337.538 561.239 337.538 561.195 337.538Z" fill="#E26E61"/>
<path d="M565.686 336.045C565.555 336.045 565.424 335.957 565.38 335.804C563.715 330.184 560.758 324.938 556.837 320.592C556.706 320.46 556.728 320.241 556.859 320.131C556.99 320.021 557.209 320.021 557.319 320.153C561.306 324.565 564.306 329.921 566.015 335.606C566.059 335.782 565.971 335.957 565.796 336.023C565.73 336.045 565.708 336.045 565.686 336.045Z" fill="#E26E61"/>
</g>
<path d="M752.301 233.453V81L556.114 81V233.453H752.301Z" fill="#E0E0E0"/>
<path d="M749.594 83.724H558.839V230.745H749.594V83.724Z" fill="#EBEBEB"/>
<path d="M597.108 101.792H574.872V133.218H597.108V101.792Z" fill="#F5F5F5"/>
<path d="M626.072 111.064H602.671V144.705H626.072V111.064Z" fill="#F5F5F5"/>
<path d="M599.825 182.568L576.624 179.517L572.238 212.872L595.44 215.922L599.825 182.568Z" fill="#F5F5F5"/>
<path d="M656.842 179.528H633.441V213.169H656.842V179.528Z" fill="#F5F5F5"/>
<path d="M628.879 175.984H605.478V209.625H628.879V175.984Z" fill="#F5F5F5"/>
<path d="M615.225 113.542C615.221 113.765 615.129 113.978 614.969 114.135C614.81 114.291 614.595 114.379 614.372 114.379C614.245 114.415 614.111 114.421 613.981 114.397C613.851 114.373 613.729 114.319 613.623 114.24C613.518 114.16 613.432 114.057 613.374 113.939C613.315 113.821 613.284 113.69 613.284 113.558C613.284 113.426 613.315 113.296 613.374 113.178C613.432 113.06 613.518 112.957 613.623 112.877C613.729 112.798 613.851 112.744 613.981 112.719C614.111 112.695 614.245 112.701 614.372 112.738C614.59 112.737 614.8 112.821 614.958 112.97C615.117 113.12 615.212 113.324 615.225 113.542Z" fill="#E0E0E0"/>
<path d="M585.998 104.926C586.469 104.926 586.851 104.544 586.851 104.073C586.851 103.602 586.469 103.22 585.998 103.22C585.527 103.22 585.145 103.602 585.145 104.073C585.145 104.544 585.527 104.926 585.998 104.926Z" fill="#E0E0E0"/>
<path d="M578.859 181.941C578.859 182.11 578.809 182.276 578.714 182.416C578.62 182.557 578.485 182.666 578.329 182.73C578.172 182.794 577.999 182.81 577.833 182.776C577.667 182.742 577.515 182.659 577.397 182.538C577.278 182.417 577.198 182.263 577.167 182.097C577.136 181.93 577.155 181.758 577.222 181.602C577.289 181.447 577.401 181.315 577.544 181.223C577.686 181.131 577.853 181.084 578.022 181.087C578.134 181.087 578.244 181.109 578.346 181.152C578.449 181.196 578.542 181.259 578.62 181.338C578.698 181.418 578.759 181.512 578.8 181.615C578.841 181.719 578.861 181.829 578.859 181.941Z" fill="#E0E0E0"/>
<path d="M617.178 178.757C617.65 178.757 618.032 178.375 618.032 177.904C618.032 177.432 617.65 177.05 617.178 177.05C616.707 177.05 616.325 177.432 616.325 177.904C616.325 178.375 616.707 178.757 617.178 178.757Z" fill="#E0E0E0"/>
<g clip-path="url(#clip1_99_2364)">
<path d="M692.985 99.6131C692.985 95.8794 695.978 92.8516 699.671 92.8516C703.364 92.8516 706.359 95.8788 706.359 99.6131C706.36 100.58 706.156 101.535 705.76 102.415C705.364 103.294 704.786 104.078 704.065 104.712" stroke="#5D5DA8" stroke-width="1.53854" stroke-miterlimit="10"/>
<path d="M715.142 99.6132C715.142 103.347 712.149 106.375 708.456 106.375C704.763 106.375 701.77 103.348 701.77 99.6132C701.769 98.6468 701.973 97.6915 702.369 96.8119C702.765 95.9323 703.343 95.149 704.064 94.515" stroke="#5D5DA8" stroke-width="1.53854" stroke-miterlimit="10"/>
<path d="M706.359 93.1911C707.036 92.9655 707.744 92.8509 708.457 92.8516C712.149 92.8516 715.143 95.8788 715.143 99.6131" stroke="url(#paint0_linear_99_2364)" stroke-width="1.53854" stroke-miterlimit="10" stroke-linecap="round"/>
<path d="M701.77 106.036C701.093 106.261 700.384 106.376 699.671 106.375C695.979 106.375 692.985 103.348 692.985 99.6132" stroke="url(#paint1_linear_99_2364)" stroke-width="1.53854" stroke-miterlimit="10" stroke-linecap="round"/>
<path d="M702.312 106.228C702.603 106.228 702.838 105.99 702.838 105.696C702.838 105.402 702.603 105.164 702.312 105.164C702.022 105.164 701.786 105.402 701.786 105.696C701.786 105.99 702.022 106.228 702.312 106.228Z" fill="#5D5DA8"/>
<path d="M705.686 93.9452C705.977 93.9452 706.212 93.707 706.212 93.4132C706.212 93.1194 705.977 92.8812 705.686 92.8812C705.396 92.8812 705.16 93.1194 705.16 93.4132C705.16 93.707 705.396 93.9452 705.686 93.9452Z" fill="#5D5DA8"/>
<path d="M702.953 94.5839C702.953 94.5839 703.93 95.3202 704.067 95.5445C703.951 95.6603 703.863 95.7868 703.741 95.9326C703.589 96.1118 703.466 96.3457 703.31 96.5694L702.218 95.5526C702.317 95.4079 702.435 95.2148 702.557 95.0658C702.687 94.8979 702.819 94.7292 702.953 94.5839Z" fill="url(#paint2_linear_99_2364)"/>
<path d="M705.179 104.641C705.179 104.641 704.201 103.905 704.064 103.68C704.181 103.565 704.268 103.439 704.391 103.293C704.542 103.113 704.666 102.88 704.822 102.656L705.914 103.673C705.815 103.817 705.696 104.011 705.574 104.16C705.444 104.326 705.313 104.496 705.179 104.641Z" fill="url(#paint3_linear_99_2364)"/>
</g>
<path d="M672.375 120.952V116.089H676.049V116.965H673.431V118.02H675.41V118.882H673.431V120.076H676.049V120.952H672.375ZM677.495 120.952L676.161 117.479H677.196L677.675 118.902L677.828 119.354C677.911 119.609 677.997 119.861 678.085 120.111C678.256 119.588 678.386 119.185 678.474 118.902L678.932 117.479H679.94L678.675 120.952H677.495ZM680.147 119.208C680.147 118.676 680.314 118.238 680.647 117.895C680.981 117.548 681.4 117.374 681.905 117.374C682.428 117.374 682.84 117.546 683.141 117.888C683.442 118.231 683.592 118.673 683.592 119.215C683.592 119.322 683.59 119.4 683.585 119.451H681.134C681.147 119.734 681.224 119.949 681.363 120.097C681.502 120.241 681.685 120.313 681.912 120.313C682.273 120.313 682.541 120.111 682.717 119.708L683.599 120.049C683.479 120.326 683.285 120.567 683.016 120.771C682.752 120.965 682.384 121.063 681.912 121.063C681.379 121.063 680.951 120.896 680.627 120.563C680.307 120.225 680.147 119.773 680.147 119.208ZM681.168 118.757H682.613C682.562 118.307 682.326 118.083 681.905 118.083C681.705 118.083 681.541 118.141 681.411 118.256C681.282 118.372 681.201 118.539 681.168 118.757ZM684.338 120.952V117.479H685.303V118.27C685.391 118.053 685.533 117.854 685.727 117.673C685.926 117.497 686.206 117.409 686.567 117.409C686.651 117.409 686.704 117.411 686.727 117.416V118.43C686.593 118.416 686.466 118.409 686.345 118.409C685.979 118.409 685.718 118.495 685.56 118.666C685.403 118.833 685.324 119.129 685.324 119.555V120.952H684.338ZM689.615 117.479H690.65L689.198 121.5C689.096 121.783 688.962 121.986 688.795 122.112C688.628 122.241 688.399 122.306 688.107 122.306H687.072V121.521H687.975C688.096 121.521 688.186 121.491 688.246 121.431C688.311 121.375 688.371 121.271 688.427 121.118L688.489 120.938L686.808 117.479H687.864L688.441 118.805C688.617 119.227 688.76 119.548 688.871 119.771C688.941 119.572 689.054 119.227 689.212 118.736L689.615 117.479ZM691.563 120.042V118.229H690.834V117.479H691.563V116.388H692.55V117.479H693.453V118.229H692.55V119.861C692.55 119.968 692.573 120.046 692.619 120.097C692.67 120.143 692.749 120.167 692.855 120.167H693.606V120.952H692.446C692.172 120.952 691.957 120.868 691.8 120.701C691.642 120.535 691.563 120.315 691.563 120.042ZM694.234 120.952V116.089H695.221V117.347V118.013C695.485 117.587 695.862 117.374 696.353 117.374C696.719 117.374 696.994 117.483 697.18 117.701C697.365 117.918 697.457 118.226 697.457 118.625V120.952H696.471V118.84C696.471 118.405 696.286 118.187 695.915 118.187C695.707 118.187 695.552 118.25 695.45 118.375C695.297 118.56 695.221 118.87 695.221 119.305V120.952H694.234ZM698.337 117.006V116.075H699.386V117.006H698.337ZM698.372 120.952V117.479H699.358V120.952H698.372ZM700.305 120.952V117.479H701.264V118.013C701.523 117.587 701.896 117.374 702.382 117.374C702.762 117.374 703.047 117.483 703.237 117.701C703.431 117.918 703.528 118.226 703.528 118.625V120.952H702.542V118.84C702.542 118.405 702.357 118.187 701.986 118.187C701.778 118.187 701.623 118.25 701.521 118.375C701.368 118.56 701.292 118.87 701.292 119.305V120.952H700.305ZM704.151 121.591C704.151 121.456 704.191 121.327 704.269 121.202C704.348 121.081 704.445 120.982 704.561 120.903C704.343 120.755 704.235 120.542 704.235 120.264C704.235 119.963 704.418 119.711 704.783 119.507C704.533 119.294 704.408 119.016 704.408 118.673C704.408 118.289 704.55 117.976 704.832 117.736C705.114 117.495 705.476 117.374 705.916 117.374C706.217 117.374 706.487 117.439 706.728 117.569C706.974 117.694 707.154 117.863 707.27 118.076C707.284 117.844 707.333 117.687 707.416 117.604C707.499 117.52 707.657 117.479 707.888 117.479H708.152V118.229H707.77C707.659 118.229 707.583 118.252 707.541 118.298C707.504 118.344 707.476 118.456 707.458 118.632L707.451 118.694C707.409 119.065 707.249 119.359 706.971 119.576C706.698 119.794 706.358 119.903 705.95 119.903C705.654 119.903 705.413 119.863 705.228 119.785C705.052 119.836 704.964 119.917 704.964 120.028C704.964 120.093 704.989 120.134 705.04 120.153C705.091 120.171 705.182 120.181 705.311 120.181H706.805C707.161 120.181 707.451 120.282 707.673 120.486C707.9 120.69 708.013 120.938 708.013 121.229C708.013 121.567 707.9 121.831 707.673 122.021C707.451 122.211 707.161 122.306 706.805 122.306H705.193C704.499 122.306 704.151 122.068 704.151 121.591ZM706.555 118.666C706.555 118.486 706.497 118.338 706.381 118.222C706.27 118.101 706.124 118.041 705.943 118.041C705.763 118.041 705.615 118.101 705.499 118.222C705.388 118.338 705.332 118.486 705.332 118.666C705.332 118.842 705.388 118.986 705.499 119.097C705.61 119.203 705.758 119.257 705.943 119.257C706.129 119.257 706.277 119.203 706.388 119.097C706.499 118.986 706.555 118.842 706.555 118.666ZM705.256 121.591H706.61C706.897 121.591 707.041 121.482 707.041 121.264C707.041 121.056 706.897 120.952 706.61 120.952H705.089C704.969 121.026 704.908 121.13 704.908 121.264C704.908 121.366 704.941 121.445 705.006 121.5C705.07 121.56 705.154 121.591 705.256 121.591ZM712.325 117.479H713.36L711.908 121.5C711.806 121.783 711.672 121.986 711.505 122.112C711.338 122.241 711.109 122.306 710.817 122.306H709.782V121.521H710.685C710.806 121.521 710.896 121.491 710.956 121.431C711.021 121.375 711.081 121.271 711.137 121.118L711.199 120.938L709.519 117.479H710.574L711.151 118.805C711.327 119.227 711.47 119.548 711.581 119.771C711.651 119.572 711.764 119.227 711.922 118.736L712.325 117.479ZM713.547 119.215C713.547 118.669 713.719 118.226 714.061 117.888C714.404 117.546 714.842 117.374 715.374 117.374C715.911 117.374 716.349 117.546 716.687 117.888C717.03 118.226 717.201 118.669 717.201 119.215C717.201 119.771 717.032 120.218 716.694 120.556C716.356 120.894 715.916 121.063 715.374 121.063C714.851 121.063 714.416 120.889 714.068 120.542C713.721 120.19 713.547 119.748 713.547 119.215ZM715.958 120.014C716.101 119.833 716.173 119.572 716.173 119.229C716.173 118.886 716.101 118.622 715.958 118.437C715.819 118.247 715.624 118.152 715.374 118.152C715.124 118.152 714.927 118.247 714.784 118.437C714.645 118.622 714.575 118.886 714.575 119.229C714.575 119.572 714.645 119.833 714.784 120.014C714.927 120.19 715.124 120.278 715.374 120.278C715.624 120.278 715.819 120.19 715.958 120.014ZM717.88 119.819V117.479H718.866V119.59C718.866 120.025 719.04 120.243 719.387 120.243C719.619 120.243 719.792 120.15 719.908 119.965C720.024 119.775 720.082 119.518 720.082 119.194V117.479H721.068V120.952H720.082V120.396C719.818 120.84 719.44 121.063 718.949 121.063C718.625 121.063 718.366 120.952 718.171 120.729C717.977 120.502 717.88 120.199 717.88 119.819ZM724.138 120.952L723.026 117.479H724.041L724.298 118.507C724.543 119.474 724.673 119.984 724.687 120.035C724.714 119.91 724.823 119.488 725.013 118.77L725.034 118.694L725.353 117.479H726.527L726.847 118.687C727.037 119.423 727.155 119.866 727.201 120.014L727.618 118.388L727.854 117.479H728.861L727.75 120.952H726.562L726.166 119.451C726.152 119.41 726.136 119.342 726.117 119.25C726.08 119.111 726.043 118.981 726.006 118.861C725.974 118.736 725.946 118.634 725.923 118.555C725.904 118.476 725.895 118.435 725.895 118.43C725.844 118.671 725.759 119.009 725.638 119.444L725.242 120.952H724.138ZM729.163 120.062C729.168 119.836 729.223 119.639 729.33 119.472C729.436 119.305 729.589 119.171 729.788 119.069C729.992 118.967 730.217 118.889 730.462 118.833C730.712 118.773 731.006 118.727 731.344 118.694V118.562C731.344 118.243 731.154 118.083 730.775 118.083C730.353 118.083 730.099 118.266 730.011 118.632L729.122 118.437C729.149 118.145 729.311 117.895 729.608 117.687C729.909 117.479 730.295 117.374 730.768 117.374C731.268 117.374 731.65 117.488 731.914 117.715C732.182 117.942 732.317 118.277 732.317 118.722V119.993C732.317 120.086 732.328 120.143 732.351 120.167C732.375 120.19 732.432 120.201 732.525 120.201H732.831V120.952H732.074C731.694 120.952 731.485 120.783 731.448 120.444C731.18 120.857 730.784 121.063 730.261 121.063C729.946 121.063 729.684 120.97 729.476 120.785C729.267 120.6 729.163 120.359 729.163 120.062ZM731.344 119.528V119.305C730.946 119.356 730.65 119.428 730.455 119.521C730.261 119.613 730.163 119.761 730.163 119.965C730.163 120.215 730.314 120.34 730.615 120.34C730.823 120.34 730.997 120.271 731.136 120.132C731.275 119.993 731.344 119.792 731.344 119.528ZM733.353 120.952V117.479H734.312V118.013C734.571 117.587 734.944 117.374 735.43 117.374C735.81 117.374 736.094 117.483 736.284 117.701C736.479 117.918 736.576 118.226 736.576 118.625V120.952H735.59V118.84C735.59 118.405 735.405 118.187 735.034 118.187C734.826 118.187 734.671 118.25 734.569 118.375C734.416 118.56 734.339 118.87 734.339 119.305V120.952H733.353ZM737.852 120.042V118.229H737.123V117.479H737.852V116.388H738.838V117.479H739.741V118.229H738.838V119.861C738.838 119.968 738.861 120.046 738.908 120.097C738.959 120.143 739.037 120.167 739.144 120.167H739.894V120.952H738.734C738.461 120.952 738.246 120.868 738.088 120.701C737.931 120.535 737.852 120.315 737.852 120.042Z" fill="#5D5DA8"/>
<defs>
<linearGradient id="paint0_linear_99_2364" x1="706.969" y1="91.4197" x2="716.091" y2="99.656" gradientUnits="userSpaceOnUse">
<stop stop-color="#6552C4" stop-opacity="0"/>
<stop stop-color="white" stop-opacity="0"/>
<stop offset="0.0001" stop-color="#5D5DA8" stop-opacity="0"/>
<stop offset="1" stop-color="#5D5DA8"/>
</linearGradient>
<linearGradient id="paint1_linear_99_2364" x1="701.158" y1="107.807" x2="692.035" y2="99.5706" gradientUnits="userSpaceOnUse">
<stop stop-color="#5D5DA8" stop-opacity="0"/>
<stop offset="1" stop-color="#5D5DA8"/>
</linearGradient>
<linearGradient id="paint2_linear_99_2364" x1="703.984" y1="94.4403" x2="702.842" y2="95.9046" gradientUnits="userSpaceOnUse">
<stop stop-color="#231F20"/>
<stop offset="1" stop-color="#231F20" stop-opacity="0"/>
</linearGradient>
<linearGradient id="paint3_linear_99_2364" x1="704.148" y1="104.784" x2="705.29" y2="103.32" gradientUnits="userSpaceOnUse">
<stop stop-color="#231F20"/>
<stop offset="1" stop-color="#231F20" stop-opacity="0"/>
</linearGradient>
<clipPath id="clip0_99_2364">
<rect width="352" height="408" fill="white" transform="translate(215)"/>
</clipPath>
<clipPath id="clip1_99_2364">
<rect width="23.6163" height="14.9996" fill="white" transform="translate(692.256 92.1135)"/>
</clipPath>
</defs>
</svg>
