<svg width="428" height="334" viewBox="0 0 428 334" fill="none" xmlns="http://www.w3.org/2000/svg">
<path d="M784 203.249H-660V333.209H784V203.249Z" fill="#6552C4"/>
<path d="M784 213.357H751.558L744.41 203.249H742.629L749.777 213.357H665.424L659.166 203.249H657.482L663.739 213.357H579.313L573.97 203.249H572.334L577.677 213.357H493.203L488.75 203.249H487.186L491.638 213.357H437.657V203.249H436.598V213.357H407.092H405.576H321.005H319.513H234.895H233.427H148.809H147.364H62.722H61.2781H-23.3644H-24.8085H-58.1167V203.249H-59.1757V213.357H-109.427L-107.646 203.249H-109.114L-110.895 213.357H-195.513L-192.842 203.249H-194.334L-197.005 213.357H-281.576L-277.99 203.249H-279.53L-283.092 213.357H-367.638L-363.186 203.249H-364.75L-369.202 213.357H-453.676L-448.334 203.249H-449.97L-455.313 213.357H-539.739L-533.482 203.249H-535.166L-541.424 213.357H-625.777L-618.629 203.249H-620.41L-627.558 213.357H-660V214.801H-628.569L-656.462 254.27H-660V255.714H-657.473L-660 259.3V261.779L-655.716 255.714H-567.608L-605.393 316.843H-660V318.287H-606.283L-615.501 333.209H-613.816L-604.599 318.287H-510.907L-518.825 333.209H-517.164L-509.27 318.287H-415.531L-422.125 333.209H-420.561L-413.966 318.287H-320.155L-325.425 333.209H-323.909L-318.638 318.287H-224.802L-228.749 333.209H-227.257L-223.31 318.287H-129.426L-132.074 333.209H-130.581L-127.958 318.287H-34.0741L-35.3978 333.209H-33.9538L-32.6301 318.287H61.2781V333.209H62.722V318.287H156.63L157.954 333.209H159.398L158.074 318.287H251.958L254.606 333.209H256.074L253.426 318.287H347.31L351.257 333.209H352.749L348.803 318.287H442.638L447.909 333.209H449.425L444.155 318.287H537.966L544.561 333.209H546.125L539.531 318.287H633.271L641.188 333.209H642.825L634.907 318.287H728.599L737.816 333.209H739.501L730.283 318.287H784V316.843H729.393L691.608 255.714H779.716L784 261.779V259.3L781.473 255.714H784V254.27H780.462L752.569 214.801H784V213.357ZM-109.692 214.801H-24.9288L-28.4185 254.27H-116.671L-109.692 214.801ZM-195.874 214.801H-111.16L-118.115 254.27H-206.343L-195.874 214.801ZM-282.081 214.801H-197.391L-207.835 254.27H-296.016L-282.081 214.801ZM-368.264 214.801H-283.597L-297.556 254.27H-385.688L-368.264 214.801ZM-454.447 214.801H-369.852L-387.277 254.27H-475.361L-454.447 214.801ZM-540.629 214.801H-456.083L-476.997 254.27H-565.033L-540.629 214.801ZM-654.681 254.27L-626.812 214.801H-542.338L-566.718 254.27H-654.681ZM-510.137 316.843H-603.708L-565.923 255.714H-477.767L-510.137 316.843ZM-414.905 316.843H-508.524L-476.131 255.714H-387.902L-414.905 316.843ZM-319.649 316.843H-413.317L-386.338 255.714H-298.061L-319.649 316.843ZM-224.417 316.843H-318.133L-296.521 255.714H-208.221L-224.417 316.843ZM-129.186 316.843H-222.925L-206.728 255.714H-118.38L-129.186 316.843ZM-33.9538 316.843H-127.718L-116.912 255.714H-28.5388L-33.9538 316.843ZM61.2781 316.843H-32.4857L-27.0948 255.714H61.2781V316.843ZM61.2781 254.27H-26.9744L-23.4848 214.801H61.2781V254.27ZM664.629 214.801L689.033 254.27H600.997L580.083 214.801H664.629ZM578.447 214.801L599.361 254.27H511.277L493.852 214.801H578.447ZM492.264 214.801L509.688 254.27H421.556L407.621 214.801H492.264ZM406.081 214.801L420.016 254.27H331.835L321.391 214.801H406.081ZM319.874 214.801L330.343 254.27H242.115L235.16 214.801H319.874ZM233.692 214.801L240.647 254.27H152.419L148.929 214.801H233.692ZM62.722 214.801H147.485L150.974 254.27H62.722V214.801ZM62.722 316.843V255.714H151.095L156.486 316.843H62.722ZM157.954 316.843L152.539 255.714H240.912L251.718 316.843H157.954ZM253.186 316.843L242.38 255.714H330.728L346.925 316.843H253.186ZM348.417 316.843L332.221 255.714H420.521L442.133 316.843H348.417ZM443.649 316.843L422.061 255.714H510.338L537.317 316.843H443.649ZM538.905 316.843L511.902 255.714H600.131L632.524 316.843H538.905ZM727.708 316.843H634.137L601.767 255.714H689.923L727.708 316.843ZM778.681 254.27H690.718L666.338 214.801H750.812L778.681 254.27Z" fill="#F7BFC9" fill-opacity="0.13"/>
<g clip-path="url(#clip0_132_3922)">
<path d="M225.536 37.9699C200.519 32.1051 182.306 37.8042 161.504 44.959C151.252 48.4862 140.869 52.2145 130.065 53.6348C121.997 54.6942 113.852 54.9782 105.754 55.7771C97.3364 56.6116 88.9244 57.665 80.6607 59.5114C66.7454 62.6302 42.5066 68.3766 43.9907 87.0538C44.5844 94.5341 49.7076 101.334 49.1911 108.82C48.5262 118.413 39.5502 125.846 33.6671 132.622C25.5459 141.979 18.2439 152.365 19.5856 165.373C20.666 175.865 27.499 185.085 35.9289 191.459C44.3588 197.833 54.3321 201.792 64.1571 205.698C79.1231 211.651 91.7858 218.617 103.558 229.683C110.379 236.093 117.639 242.443 126.485 245.55C138.364 249.728 153.508 246.094 158.346 233.548C160.982 226.713 161.724 218.753 165.814 212.539C170.029 206.142 178.91 200.756 186.747 201.792C199.51 203.479 204.485 212.918 210.57 222.848C213.538 227.695 217.07 232.163 222.057 235.075C230.618 240.07 239.172 238.123 248.196 236.093C257.944 233.903 267.798 232.134 277.724 230.95C294.56 228.944 311.503 229.843 328.286 231.95C344.219 233.956 367.354 244.396 380.491 230.222C386.25 224.014 387.396 215.51 385.3 207.58C382.296 196.217 375.831 183.594 376.182 171.794C376.698 154.365 384.576 142.766 394.205 129.149C398.818 122.627 402.368 115.383 402.201 107.222C401.821 88.4504 390.014 74.0401 377.707 61.1033C365.43 48.1903 353.16 33.4781 340.734 22.0268" stroke="#ED725A" stroke-width="1.5" stroke-miterlimit="10"/>
<path d="M404.404 57.1383C404.404 59.8665 402.184 62.0739 399.453 62.0739C396.716 62.0739 394.502 59.8606 394.502 57.1383C394.502 54.4101 396.722 52.2027 399.453 52.2027C402.19 52.1968 404.404 54.4101 404.404 57.1383Z" stroke="#ED725A" stroke-width="1.5" stroke-miterlimit="10"/>
<path d="M238.591 224.31C238.591 227.038 236.37 229.246 233.639 229.246C230.903 229.246 228.688 227.032 228.688 224.31C228.688 221.582 230.909 219.374 233.639 219.374C236.37 219.368 238.591 221.582 238.591 224.31Z" stroke="#ED725A" stroke-width="1.5" stroke-miterlimit="10"/>
<path d="M221.291 9.32084C223.345 9.32084 225.014 10.9838 225.014 13.0314V86.4028C225.014 88.4504 223.345 90.1134 221.291 90.1134H78.4346C76.3805 90.1134 74.7124 88.4504 74.7124 86.4028V13.0373C74.7124 10.9897 76.3805 9.32675 78.4346 9.32675H221.291M221.291 8.43314H78.4346C75.8878 8.43314 73.8219 10.4985 73.8219 13.0314V86.4028C73.8219 88.9416 75.8937 91.0011 78.4346 91.0011H221.291C223.838 91.0011 225.904 88.9357 225.904 86.4028V13.0373C225.904 10.4985 223.832 8.43314 221.291 8.43314Z" fill="white"/>
<path d="M221.291 90.1193H78.4346C76.3806 90.1193 74.7124 88.4563 74.7124 86.4087V19.2216H225.014V86.4087C225.014 88.4563 223.345 90.1193 221.291 90.1193Z" fill="#AFB9E8"/>
<path d="M83.4569 14.5642C83.4569 15.736 82.5011 16.6888 81.3257 16.6888C80.1502 16.6888 79.1945 15.736 79.1945 14.5642C79.1945 13.3924 80.1502 12.4396 81.3257 12.4396C82.5011 12.4396 83.4569 13.3865 83.4569 14.5642Z" stroke="white" stroke-width="1.5" stroke-miterlimit="10"/>
<path d="M91.7146 14.5642C91.7146 15.736 90.7588 16.6888 89.5834 16.6888C88.4079 16.6888 87.4521 15.736 87.4521 14.5642C87.4521 13.3924 88.4079 12.4396 89.5834 12.4396C90.7588 12.4396 91.7146 13.3865 91.7146 14.5642Z" stroke="white" stroke-width="1.5" stroke-miterlimit="10"/>
<path d="M74.7124 19.2216H225.014" stroke="white" stroke-width="1.5" stroke-miterlimit="10"/>
<path d="M212.927 79.8279C211.413 77.8276 208.837 75.993 206.824 77.366C205.132 78.52 205.073 81.1239 205.203 83.2899C200.413 76.5316 194.713 70.5307 188.344 65.5478C184.889 62.8492 180.923 60.3518 176.684 60.6772C172.446 61.0027 170.243 66.9385 171.359 71.4007C159.777 56.1145 146.865 45.2727 133.413 35.8927C128.824 32.691 123.73 29.6018 118.281 27.7791C112.487 25.838 104.49 23.5595 99.254 28.0691C97.01 29.9983 95.8405 32.9455 95.5258 35.8867C95.134 39.5204 95.7514 43.3612 96.7428 46.8646C99.1174 55.2445 102.935 63.1451 107.357 70.584C111.78 78.0288 121.51 90.2554 121.51 90.2554H217.539C216.797 86.4501 215.206 82.8342 212.927 79.8279Z" fill="#909DF4"/>
<path d="M162.431 75.2829C162.431 75.2829 143.992 59.3457 136.084 56.6412C128.177 53.9367 111.928 58.2805 111.727 58.2805C111.525 58.2805 97.1821 90.1193 97.1821 90.1193H156.001L162.431 75.2829Z" fill="#EF9748"/>
<path d="M197.456 118.555C198.804 119.952 200.199 121.301 201.641 122.597C203.037 123.846 204.562 124.959 205.928 126.237C206.266 126.551 206.569 126.9 206.877 127.243C207.988 128.498 209.11 129.764 209.923 131.232C210.03 131.427 210.137 131.628 210.297 131.782C210.457 131.936 210.695 132.031 210.908 131.965C211.134 131.9 211.27 131.681 211.365 131.474C211.757 130.593 211.662 129.575 211.419 128.645C211.265 128.048 211.057 127.462 210.885 126.864C210.748 126.373 210.54 125.84 210.617 125.325C214.565 126.971 217.777 129.953 221.38 132.255C222.117 132.729 223.743 132.906 224.016 132.255C224.378 131.397 219.125 127.515 216.714 124.947C218.531 125.87 220.454 126.841 222.093 128.054C223.227 128.894 224.467 129.616 225.821 130.042C226.581 130.285 228.326 130.64 227.97 129.255C227.863 128.847 227.554 128.527 227.252 128.231C224.901 125.953 222.057 124.349 219.588 122.201C222.372 123.296 224.925 125.254 227.917 125.361C228.207 125.373 228.522 125.355 228.754 125.178C229.104 124.905 229.223 124.527 228.991 124.148C228.765 123.769 228.368 123.526 227.994 123.296C225.221 121.603 222.33 119.733 219.552 118.04C221.042 118.443 222.425 119.171 223.85 119.763C225.281 120.348 226.824 120.804 228.356 120.615C228.849 120.556 229.46 120.236 229.353 119.751C229.3 119.52 229.086 119.36 228.884 119.224C225.512 116.928 222.14 114.626 218.768 112.33C217.824 111.685 216.875 111.039 215.907 110.43C214.737 109.696 213.39 109.152 212.303 108.329C211.455 107.684 210.433 107.21 209.525 106.654C207.281 105.281 205.108 103.796 203.001 102.222" fill="#FFCAA3"/>
<path d="M210.695 125.314C209.632 124.846 208.558 124.42 207.465 124.029" stroke="black" stroke-miterlimit="10"/>
<path d="M216.875 124.941C215.432 123.958 213.942 123.053 212.404 122.224" stroke="black" stroke-miterlimit="10"/>
<path d="M219.599 122.153C218.418 121.408 217.231 120.656 216.049 119.911" stroke="black" stroke-miterlimit="10"/>
<path d="M220.906 118.774C220.027 118.289 219.178 117.75 218.371 117.153" stroke="black" stroke-miterlimit="10"/>
<path d="M140.335 57.1383C147.619 59.4226 151.27 59.6298 157.788 63.6599C164.71 67.9386 181.837 85.9293 181.837 85.9293C181.837 85.9293 204.948 102.174 213.61 108.311L198.044 123.094C180.834 112.838 163.167 100.594 150.124 85.4145" fill="#EF9748"/>
<path d="M113.911 87.036C113.911 87.036 121.136 83.1775 124.312 82.3785C128.717 81.2719 133.935 80.9641 135.336 81.3902C135.989 81.5914 138.459 82.5975 139.747 84.1066C141.119 84.7043 141.677 85.0061 142.49 85.3435C143.303 85.6808 143.689 86.6395 144.538 87.3674C145.393 88.0953 146.325 90.1252 146.325 90.1252C146.325 90.1252 139.824 90.1489 138.002 90.208C136.173 90.2672 134.202 93.7411 130.118 94.972" fill="#FFCAA3"/>
<path d="M128.788 54.274C123.778 54.2325 118.898 52.9306 113.9 52.9306C104.817 52.9247 99.6043 57.6768 95.1875 64.2576C91.8453 69.2406 88.693 75.3775 86.3243 80.8517C83.5579 87.2431 80.459 94.3566 79.6516 101.334C79.2836 104.524 79.7407 107.82 81.2248 110.661C83.9615 115.91 90.0465 116.827 93.5965 117.218C97.1466 117.608 103.368 116.419 106.414 114.531C122.442 104.618 133.039 94.688 133.039 94.688L115.793 85.8702L107.518 89.0955L117.966 69.8383" fill="#EF9748"/>
<path d="M117.117 71.4066L107.518 89.1014" stroke="black" stroke-miterlimit="10"/>
<path d="M115.793 85.8702C110.848 87.7817 105.903 89.6991 100.958 91.6106C97.58 92.9185 94.2733 95.4988 91.5781 97.9015" stroke="black" stroke-miterlimit="10"/>
<path d="M109.869 88.2788L127.738 99.2389" stroke="black" stroke-miterlimit="10"/>
<path d="M157.895 79.6977C155.532 83.5977 152.255 90.1134 152.255 90.1134" stroke="black" stroke-miterlimit="10"/>
<path d="M207.299 103.855L189.958 118.248" stroke="black" stroke-miterlimit="10"/>
<path d="M139.076 85.9412C140.335 86.2726 141.611 86.5271 142.899 86.6928C143.297 86.746 143.713 86.7934 144.051 87.0123" stroke="black" stroke-miterlimit="10"/>
<path d="M140.186 84.438C139.961 84.3256 139.729 84.2427 139.492 84.154C138.245 83.6983 136.969 83.2367 135.639 83.2722" stroke="black" stroke-miterlimit="10"/>
<path d="M136.15 90.9182C136.82 90.433 137.652 90.214 138.477 90.1311C140.187 89.9536 142.021 90.3205 143.659 89.6814" stroke="black" stroke-miterlimit="10"/>
<path d="M71.8984 102.571C72.1775 109.317 76.4933 115.738 82.6436 118.561" stroke="black" stroke-miterlimit="10"/>
<path d="M67.1077 102.275C67.2501 106.678 69.0727 110.939 71.8985 113.478" stroke="black" stroke-miterlimit="10"/>
<path d="M164.396 59.5883C169.673 64.0387 174.571 68.9329 179.023 74.1999" stroke="black" stroke-miterlimit="10"/>
<path d="M164.508 54.3095C168.189 57.0318 171.561 60.1683 174.541 63.6362" stroke="black" stroke-miterlimit="10"/>
<path d="M121.92 63.2457C119.13 62.2455 116.547 60.7601 114 59.2569C112.92 58.6178 111.828 57.9668 110.955 57.0613C110.082 56.1618 109.441 54.9664 109.465 53.7177C109.489 52.5637 110.07 51.4866 110.789 50.5811C113.033 47.7583 116.666 46.2965 120.263 45.971C123.861 45.6455 127.47 46.3379 130.985 47.1665C136.268 48.4092 141.665 50.0604 145.743 53.6407C146.889 54.6468 147.928 55.8127 148.569 57.1975C149.453 59.109 149.519 61.3164 149.139 63.3877C148.759 65.459 147.963 67.4238 147.174 69.3767" fill="#EF9748"/>
<path d="M136.215 42.432L129.109 44.4974L129.269 48.0601L125.672 54.1793C125.672 54.1793 134.179 57.4638 137.373 64.157C140.857 64.6719 142.252 61.8608 142.252 61.8608L145.678 53.6822" fill="#FFCAA3"/>
<path d="M152.938 49.5396C153.55 46.0302 154.286 42.2249 154.232 39.4316C154.185 37.0644 153.823 33.49 152.285 31.6317C150.308 29.2408 146.717 29.2053 143.695 28.868C138.738 28.3176 135.313 32.7916 133.846 36.9757C132.718 40.1891 132.813 43.3198 133.858 46.6338C135.224 50.9599 140.062 56.7714 146.355 56.0612C149.697 55.6825 152.291 53.262 152.938 49.5396Z" fill="#FFCAA3"/>
<path d="M146.859 41.8698C146.8 42.3906 146.426 42.7812 146.022 42.7339C145.618 42.6865 145.345 42.2249 145.405 41.7041C145.464 41.1833 145.838 40.7928 146.242 40.8401C146.64 40.8815 146.919 41.3431 146.859 41.8698Z" fill="black"/>
<path d="M153.716 42.5149C153.656 43.0357 153.282 43.4263 152.879 43.3789C152.475 43.3316 152.202 42.87 152.261 42.3492C152.321 41.8284 152.695 41.4378 153.098 41.4852C153.502 41.5325 153.775 41.9941 153.716 42.5149Z" fill="black"/>
<path d="M150.676 41.3609C150.522 42.5682 150.647 43.7991 150.653 45.0182C150.653 45.7698 150.682 47.0954 149.703 47.2611C149.062 47.3736 147.661 46.9889 147.661 46.9889" stroke="black" stroke-miterlimit="10"/>
<path d="M148.207 49.1372L145.636 46.983C145.636 46.983 143.748 49.439 144.722 50.3326C146.295 51.7647 148.207 49.1372 148.207 49.1372Z" fill="white"/>
<path d="M152.374 32.3833C153.508 34.1528 154.131 35.5731 154.179 40.8756C154.719 40.7395 155.271 40.6034 155.758 40.3311C156.245 40.0589 156.672 39.6269 156.815 39.0884C157.082 38.0882 156.334 37.1058 156.292 36.0702C156.263 35.3245 156.607 34.6144 157.011 33.987C157.325 33.5077 157.687 33.0224 157.765 32.4543C157.871 31.6554 157.367 30.8919 156.767 30.3475C155.426 29.1343 153.627 28.649 152.083 27.7613C151.335 27.3293 150.938 26.6546 150.249 26.1516C149.465 25.5776 148.628 25.0805 147.756 24.6662C145.731 23.7016 143.517 23.1867 141.279 23.092C136.945 22.9086 132.665 24.5182 129.643 27.5364C125.648 31.5252 124.045 39.1357 126.55 43.5387C127.963 46.0243 129.257 48.0601 129.257 48.0601C129.418 48.3145 132.873 45.2194 133.086 44.7992C133.3 44.3731 133.383 43.8938 133.514 43.4381C133.959 41.8757 135.52 41.6153 136.856 41.1242C138.803 40.414 139.777 38.6859 140.157 36.733C140.376 35.6086 140.406 34.4605 140.436 33.3183C140.43 33.5728 142.003 34.1232 142.241 34.2001C144.562 34.9162 147.192 35.0405 149.548 34.4072C150.243 34.2178 150.985 33.9811 151.537 33.5077C151.697 33.3775 152.629 32.6377 152.374 32.3833Z" fill="#1E1611"/>
<path d="M137.859 52.9247C137.984 53.0134 140.454 55.7002 145.173 56.1204" stroke="black" stroke-miterlimit="10"/>
<path d="M142.698 38.1474C143.119 37.3248 143.956 36.7389 144.87 36.6146C145.785 36.4963 146.752 36.8514 147.37 37.5378" stroke="black" stroke-miterlimit="10"/>
<path d="M151.424 38.2599C151.739 37.5675 152.398 37.1236 152.974 37.2183C153.55 37.3189 153.983 37.9521 154.019 38.6978" stroke="black" stroke-miterlimit="10"/>
<path d="M149.329 43.2132C148.729 44.9946 146.83 45.9355 145.09 45.326C143.351 44.7105 142.425 42.7753 143.024 40.994C143.624 39.2127 145.523 38.2717 147.263 38.8813C149.002 39.4908 149.928 41.4319 149.329 43.2132Z" stroke="#572A2F" stroke-miterlimit="10"/>
<path d="M155.728 44.0477C155.408 45.9 154.209 47.2315 153.051 47.0244C151.893 46.8114 151.223 45.1425 151.543 43.2902C151.864 41.4378 153.063 40.1063 154.221 40.3134C155.372 40.5205 156.049 42.1953 155.728 44.0477Z" stroke="#572A2F" stroke-miterlimit="10"/>
<path d="M151.846 42.3019L149.501 41.8639" stroke="#572A2F" stroke-miterlimit="10"/>
<path d="M143.155 40.6566L136.084 41.1952" stroke="#572A2F" stroke-miterlimit="10"/>
<path d="M138.109 42.4676C138.073 40.7573 135.764 39.4198 134.238 39.9643C130.581 41.2721 131.816 47.7997 135.212 48.427C136.173 48.6045 137.551 48.2258 137.895 47.1428" fill="#FFCAA3"/>
<path d="M133.971 42.8759L137.117 45.7106" stroke="black" stroke-miterlimit="10"/>
<path d="M136.494 40.3607C137.26 40.8224 137.877 41.5266 138.251 42.3551" stroke="black" stroke-miterlimit="10"/>
<path d="M132.148 45.3496C132.617 46.7463 133.579 48.2258 135.105 48.4743C136.162 48.646 137.373 48.1844 137.806 47.0955" stroke="black" stroke-miterlimit="10"/>
<path d="M124.075 35.7388C124.146 33.4426 124.401 31.1287 125.149 28.9508C125.897 26.7789 127.18 24.7372 129.02 23.3583C130.041 22.5949 131.205 22.0445 132.386 21.5652C133.377 21.1568 134.393 20.7899 135.443 20.571C139.379 19.7365 143.464 20.9793 147.15 22.589" fill="#FFC36C"/>
<path d="M148.919 22.8967C147.946 21.9617 146.687 21.358 145.381 21.0266C144.603 20.8254 143.796 20.7189 142.989 20.7603C142.573 20.784 142.157 20.8432 141.742 20.9201C138.886 21.4823 136.316 22.9736 133.84 24.5005C130.534 26.5363 127.239 28.7319 124.817 31.7619C123.944 32.8567 123.166 34.1172 123.089 35.5139C123.048 36.2891 123.22 37.0585 123.475 37.7923C123.903 39.0292 124.912 40.7868 125.755 41.787C133.021 35.0109 141.184 29.6492 150.605 26.4653C150.558 25.116 149.893 23.8318 148.919 22.8967Z" fill="#FFC36C"/>
<path d="M124.55 32.1111C124.55 32.1111 130.682 23.5832 142.068 20.7544" stroke="black" stroke-miterlimit="10"/>
<path d="M127.738 33.0698C128.634 34.6203 129.554 36.1945 130.896 37.384" stroke="black" stroke-miterlimit="10"/>
<path d="M134.903 26.6606C135.835 28.6135 136.987 30.4718 138.34 32.1821" stroke="black" stroke-miterlimit="10"/>
<path d="M142.508 22.589C144.075 24.1987 145.417 26.0333 146.479 28.0099" stroke="black" stroke-miterlimit="10"/>
<path d="M145.132 21.6658C146.479 23.3228 147.661 25.2876 148.539 27.1991" stroke="black" stroke-miterlimit="10"/>
<path d="M124.17 34.0285C124.609 36.4844 126.052 38.5676 127.892 40.0471" stroke="black" stroke-miterlimit="10"/>
<path d="M119.973 51.9068C123.446 53.2028 126.954 54.5107 130.047 56.5524C133.14 58.5941 136.268 61.4643 137.373 64.9915" stroke="black" stroke-miterlimit="10"/>
<path d="M139.777 63.9144C141.356 63.1569 142.644 61.8016 143.309 60.186" stroke="black" stroke-miterlimit="10"/>
<path d="M109.459 53.3508C111.068 62.5473 123.238 60.7897 128.907 63.6422" stroke="black" stroke-miterlimit="10"/>
<path d="M149.347 60.0322C149.127 61.2927 148.688 62.5532 147.845 63.5238C146.58 64.9796 144.615 65.5832 142.763 66.1218" stroke="black" stroke-miterlimit="10"/>
<path d="M144.443 63.9144C145.286 69.6963 146.141 76.1824 145.874 82.0176" stroke="black" stroke-miterlimit="10"/>
<path d="M131.549 62.5887C132.427 64.9915 132.018 71.5072 131.923 77.3897" stroke="black" stroke-miterlimit="10"/>
<path d="M190.451 230.997H58.2798C56.2258 230.997 54.5576 229.334 54.5576 227.287V138.073H194.173V227.287C194.173 229.334 192.505 230.997 190.451 230.997Z" fill="#D4BCDD"/>
<path d="M190.451 126.047C192.505 126.047 194.173 127.71 194.173 129.758V227.287C194.173 229.334 192.505 230.997 190.451 230.997H58.2799C56.2259 230.997 54.5577 229.334 54.5577 227.287V129.758C54.5577 127.71 56.2259 126.047 58.2799 126.047H190.451ZM190.451 125.16H58.2799C55.7332 125.16 53.6672 127.225 53.6672 129.758V227.287C53.6672 229.826 55.7391 231.885 58.2799 231.885H190.451C192.998 231.885 195.064 229.82 195.064 227.287V129.758C195.064 127.219 192.992 125.16 190.451 125.16Z" fill="white"/>
<path d="M65.1842 132.409C65.1842 133.836 64.0266 134.99 62.5959 134.99C61.1652 134.99 60.0076 133.836 60.0076 132.409C60.0076 130.983 61.1652 129.829 62.5959 129.829C64.0207 129.829 65.1842 130.989 65.1842 132.409Z" stroke="white" stroke-width="1.5" stroke-miterlimit="10"/>
<path d="M72.6286 134.99C74.0581 134.99 75.2169 133.834 75.2169 132.409C75.2169 130.984 74.0581 129.829 72.6286 129.829C71.1991 129.829 70.0403 130.984 70.0403 132.409C70.0403 133.834 71.1991 134.99 72.6286 134.99Z" stroke="white" stroke-width="1.5" stroke-miterlimit="10"/>
<path d="M54.5576 138.073H194.173" stroke="white" stroke-width="1.5" stroke-miterlimit="10"/>
<path d="M180.757 230.997C178.881 226.387 176.328 222.073 173.205 218.244C171.288 215.895 169.062 213.658 166.254 212.622C163.446 211.586 159.937 212.042 158.026 214.397C156.565 216.196 156.286 218.688 156.067 221.025C151.436 216.072 146.752 211.071 141.107 207.396C135.461 203.721 128.61 201.111 122.074 202.538C114.826 204.124 114.826 213.255 114.826 213.255C114.826 213.255 110.379 207.047 109.981 206.461C107.007 202.129 103.647 198.158 100.067 194.347C96.5529 190.607 93.2106 186.666 89.251 183.399C85.3091 180.144 78.9036 175.984 73.6022 177.954C70.8418 178.978 70.0819 181.363 70.6933 184.115C71.2632 186.689 71.566 189.269 72.3674 191.802C67.9091 186.849 62.8334 182.286 56.9503 179.203C52.7056 176.978 43.8483 173.208 39.4434 176.854C38.173 177.907 37.5971 179.647 37.5556 181.322C37.3241 191.572 44.7329 202.591 50.705 210.166C56.8315 217.936 64.2166 224.819 71.8688 231.003H180.757V230.997Z" fill="#FFDD99"/>
<path d="M153.929 184.683C153.14 189.039 153.371 193.542 153.395 197.999C153.419 202.449 153.775 205.366 152.16 209.408C150.7 213.06 147.655 214.297 146.064 217.871C145.256 219.694 142.181 230.991 142.181 230.991H100.94C100.94 230.991 99.7823 213.226 106.146 198.07C112.504 182.908 120.459 180.191 120.459 180.191L143.92 174.161L153.929 184.683Z" fill="#735D9D"/>
<path d="M207.964 158.182C209.187 156.709 210.897 155.785 212.363 154.59C213.716 153.489 214.726 151.939 215.842 150.607C217.213 148.974 218.276 147.116 219.463 145.352C220.739 143.458 222.372 141.931 223.993 140.339C224.218 140.12 224.45 139.89 224.574 139.6C224.806 139.079 224.539 138.398 223.939 138.239C222.77 137.925 221.523 138.221 220.389 138.647C219.718 138.901 217.433 139.706 217.29 138.422C217.136 136.972 218.353 134.853 218.816 133.516C219.421 131.77 220.045 130.018 220.537 128.231C221.006 126.533 220.9 123.266 219.991 123.213C219.083 123.16 219.766 123.698 219.534 123.828C219.914 123.331 219.249 122.183 218.709 121.84C218.163 121.497 217.456 122.609 217.296 123.207C217.48 122.621 216.97 121.656 216.53 121.615C215.895 121.556 215.402 122.153 215.022 122.645C214.642 123.136 214.31 123.68 213.776 124.006C213.782 123.586 213.716 123.165 213.592 122.763C213.176 122.532 212.701 122.917 212.404 123.266C206.325 130.421 202.211 139.292 195.473 146.181" fill="#E27769"/>
<path d="M217.433 137.434C217.456 139.197 217.409 140.955 217.296 142.713" stroke="black" stroke-miterlimit="10"/>
<path d="M219.338 123.402C218.81 125.065 217.783 126.468 217.011 128.018C215.782 130.48 214.69 133.001 213.55 135.504" stroke="black" stroke-miterlimit="10"/>
<path d="M217.249 123.077C216.881 123.852 216.453 124.609 215.984 125.326C215.479 126.101 214.916 126.835 214.375 127.58C212.826 129.717 211.431 131.965 210.202 134.303" stroke="black" stroke-miterlimit="10"/>
<path d="M213.562 124.266C213.152 125.136 212.482 125.852 211.852 126.58C209.875 128.859 208.172 131.374 206.794 134.055" stroke="black" stroke-miterlimit="10"/>
<path d="M132.083 176.51C139.462 173.433 144.294 170.202 151.602 166.917C158.192 163.958 167.435 161.532 173.93 158.378C182.912 154.01 191.336 149.193 198.715 142.588L212.125 156.667C212.125 156.667 193.17 175.942 186.551 179.7C170.605 188.755 164.793 190.453 148.219 199.093" fill="#735D9D"/>
<path d="M153.205 196.673C153.3 193.347 154.06 190.045 155.431 187.009" stroke="black" stroke-miterlimit="10"/>
<path d="M194.239 146.293L207.536 161.177" stroke="black" stroke-miterlimit="10"/>
<path d="M129.934 217.321C135.562 217.427 141.16 218.309 146.04 221.262C148.379 222.683 149.685 224.576 150.332 227.21C150.878 229.435 151.056 231.814 150.854 234.092C150.837 234.311 150.67 234.507 150.48 234.554C150.213 234.619 149.685 234.353 149.685 234.353C149.685 234.353 150.166 236.613 149.655 237.087C149.299 237.412 148.634 236.969 148.385 236.696C148.094 236.377 147.69 235.566 147.69 235.566C147.69 235.566 148.029 236.862 147.744 237.087C147.322 237.418 146.105 236.578 145.82 235.726C145.642 236.211 145.357 236.655 144.906 236.537C143.499 236.164 142.401 234.181 141.243 233.199C139.706 231.891 137.646 231.802 135.728 231.832C134.843 231.844 133.959 231.867 133.08 231.778C132.178 231.69 131.365 231.335 130.486 231.157C128.848 230.826 127.138 230.678 125.482 230.577" fill="#E27769"/>
<path d="M140.323 229.003C141.866 229.642 143.505 230.352 144.372 231.672C144.633 232.068 144.811 232.5 144.971 232.938C145.31 233.856 145.565 234.797 145.82 235.738" stroke="black" stroke-miterlimit="10"/>
<path d="M142.537 226.221C143.416 226.778 144.277 227.37 145.019 228.097C145.761 228.819 146.39 229.684 146.728 230.666C146.924 231.228 147.019 231.814 147.114 232.4C147.316 233.601 147.524 234.809 147.738 236.01" stroke="black" stroke-miterlimit="10"/>
<path d="M145.553 224.31C147.013 225.399 148.159 226.902 148.812 228.6C149.388 230.104 149.584 231.719 149.774 233.317C149.833 233.82 149.893 234.329 149.952 234.832" stroke="black" stroke-miterlimit="10"/>
<path d="M123.736 177.587C123.736 177.587 112.095 179.304 107.624 181.86C100.637 185.861 97.568 191.962 93.1156 202.319C88.6632 212.669 86.8585 217.214 86.8169 220.647C86.7516 225.695 89.0312 230.991 98.3516 230.991C114.95 230.991 128.064 230.991 128.064 230.991L134.06 217.031L110.937 213.427L117.319 198.537" fill="#735D9D"/>
<path d="M134.066 217.031L110.943 213.421L117.325 198.531" stroke="black" stroke-miterlimit="10"/>
<path d="M102.733 215.551C102.911 215.551 106.431 213.368 110.943 213.421" stroke="black" stroke-miterlimit="10"/>
<path d="M127.684 216.037L121.344 230.991" stroke="black" stroke-miterlimit="10"/>
<path d="M141.789 181.144C142.092 179.57 142.086 177.889 141.831 176.197" stroke="black" stroke-miterlimit="10"/>
<path d="M117.153 180.748C118.435 183.943 121.273 186.589 124.371 187.944C128.278 189.648 133.567 189.962 137.301 187.689C139.041 186.63 140.234 185.233 140.988 183.642" stroke="black" stroke-miterlimit="10"/>
<path d="M182.817 186.731C189.768 183.204 196.12 178.511 201.54 172.912" stroke="black" stroke-miterlimit="10"/>
<path d="M195.782 183.381C199.154 180.777 202.312 177.907 205.221 174.8" stroke="black" stroke-miterlimit="10"/>
<path d="M84.2999 211.935C82.8276 216.717 82.2992 221.783 82.7504 226.76" stroke="black" stroke-miterlimit="10"/>
<path d="M79.6575 212.651C78.7314 215.332 78.1971 218.155 78.0902 220.99" stroke="black" stroke-miterlimit="10"/>
<path d="M127.636 163.313L121.267 167.568L122.638 172.107L120.726 178.948C120.602 179.386 120.679 179.848 120.934 180.227C121.973 181.771 125.202 185.606 131.596 185.6C138.358 185.594 138.263 181.12 138.263 181.12L139.492 171.598" fill="#E27769"/>
<path d="M140.442 162.751C138.69 159.496 137.693 157.49 135.853 155.247C134.297 153.347 131.709 150.666 129.269 150.134C126.129 149.447 123.172 151.702 120.501 153.353C116.108 156.058 116.185 161.887 117.669 166.231C118.809 169.568 121.166 170.841 124.134 172.871C128.016 175.528 136.458 176.729 140.085 173.818C142.798 171.628 142.3 166.195 140.442 162.751Z" fill="#E27769"/>
<path d="M131.056 162.461C131.264 162.964 131.121 163.502 130.729 163.662C130.344 163.822 129.863 163.538 129.655 163.035C129.447 162.532 129.59 161.993 129.981 161.834C130.367 161.68 130.848 161.958 131.056 162.461Z" fill="black"/>
<path d="M137.289 159.04C137.497 159.543 137.355 160.082 136.963 160.242C136.577 160.401 136.096 160.117 135.888 159.614C135.68 159.111 135.823 158.573 136.215 158.413C136.601 158.253 137.081 158.531 137.289 159.04Z" fill="black"/>
<path d="M133.953 161.23C134.654 161.851 135.491 162.266 136.334 162.656C136.856 162.899 138.595 163.36 138.209 164.201C137.96 164.745 136.945 165.597 136.945 165.597" stroke="black" stroke-miterlimit="10"/>
<path d="M121.213 177.209C121.213 177.209 122.009 175.179 122.199 174.457C122.525 173.232 121.492 173.173 121.136 172.09C120.952 171.527 121.1 170.841 121.231 170.285C121.498 169.089 122.116 167.752 121.563 166.544C121.213 165.781 120.465 165.296 119.86 164.71C119.26 164.124 118.767 163.23 119.129 162.473C119.557 161.573 120.815 161.508 121.587 160.881C122.359 160.254 122.537 159.153 122.49 158.159C122.436 157.17 122.211 156.17 122.383 155.194C122.412 155.016 122.466 154.833 122.585 154.708C122.964 154.318 123.588 154.697 124.063 154.963C124.912 155.442 125.945 155.383 126.835 155.022C127.286 154.839 127.702 154.507 127.862 154.051C127.963 153.767 127.963 153.46 128.011 153.164C128.058 152.868 128.177 152.56 128.432 152.4C128.616 152.288 128.848 152.27 129.067 152.282C129.756 152.312 130.433 152.554 130.985 152.963C131.448 153.306 131.709 153.554 132.291 153.531C132.849 153.507 133.389 153.324 133.947 153.489C134.624 153.685 135.069 154.3 135.467 154.88C136.559 156.466 137.657 158.058 138.75 159.644C139.296 158.857 139.854 158.052 140.121 157.135C140.388 156.217 140.329 155.146 139.723 154.401C139.142 153.685 138.144 153.365 137.646 152.584C137.099 151.72 137.182 150.477 137.123 149.501C137.058 148.435 136.731 147.358 136.12 146.459C135.526 145.589 134.535 144.914 133.484 144.991C132.878 145.038 132.297 145.328 131.685 145.311C131.311 145.299 130.943 145.169 130.599 145.021C128.996 144.334 127.607 143.222 126.01 142.523C124.413 141.825 122.406 141.612 121.029 142.677C120.323 143.222 119.854 144.05 119.082 144.506C116.862 145.82 113.68 143.346 111.566 144.819C110.201 145.772 110.159 147.826 109.014 149.027C107.547 150.56 104.876 150.157 103.208 151.477C101.528 152.809 101.522 155.46 102.531 157.354C103.03 158.289 103.754 159.247 103.54 160.283C103.404 160.928 102.929 161.437 102.525 161.958C101.943 162.704 101.474 163.562 101.355 164.497C101.237 165.432 101.528 166.45 102.252 167.059C102.703 167.438 103.386 167.616 103.724 168.107C104.104 168.657 104.217 169.645 104.288 170.29C104.353 170.859 104.359 171.444 104.537 171.989C105.006 173.48 106.663 174.374 108.236 174.374C108.96 174.374 109.756 174.238 110.355 174.646C110.848 174.983 111.05 175.599 111.353 176.12C112.326 177.806 114.695 178.511 116.44 177.641C117.093 177.315 117.699 176.788 118.435 176.777C119.153 176.765 120.525 177.327 121.213 177.209Z" fill="#2C221D"/>
<path d="M131.454 175.339C133.419 175.824 137.135 175.93 139.955 174.155" stroke="black" stroke-miterlimit="10"/>
<path d="M126.146 162.307C126.14 160.342 127.441 158.46 129.566 158.833" stroke="black" stroke-miterlimit="10"/>
<path d="M133.46 157.419C133.395 156.863 133.816 156.206 134.452 155.886C135.087 155.566 135.876 155.614 136.316 155.975" stroke="black" stroke-miterlimit="10"/>
<path d="M124.656 167.982C123.534 166.615 120.792 166.994 119.901 168.409C117.758 171.805 122.947 176.339 126.117 174.688C127.013 174.22 127.898 173.036 127.476 171.936" fill="#E27769"/>
<path d="M121.552 170.947L125.927 171.255" stroke="black" stroke-miterlimit="10"/>
<path d="M121.991 167.29C122.911 167.178 123.867 167.355 124.698 167.799" stroke="black" stroke-miterlimit="10"/>
<path d="M121.646 174.125C122.923 174.966 124.656 175.557 126.057 174.788C127.031 174.256 127.72 173.107 127.375 171.942" stroke="black" stroke-miterlimit="10"/>
<path d="M134.636 165.923C134.351 166.976 134.701 168.355 135.912 168.574C136.82 168.74 137.8 168.184 138.097 167.308" stroke="black" stroke-miterlimit="10"/>
<path d="M376.793 106.068H244.468C242.414 106.068 240.745 104.405 240.745 102.358V37.1473H380.515V102.358C380.515 104.405 378.847 106.068 376.793 106.068Z" fill="#D5D8BC"/>
<path d="M376.793 27.2524C378.847 27.2524 380.515 28.9153 380.515 30.963V102.358C380.515 104.405 378.847 106.068 376.793 106.068H244.468C242.414 106.068 240.745 104.405 240.745 102.358V30.963C240.745 28.9153 242.414 27.2524 244.468 27.2524H376.793ZM376.793 26.3647H244.468C241.921 26.3647 239.855 28.4301 239.855 30.963V102.358C239.855 104.897 241.927 106.956 244.468 106.956H376.793C379.34 106.956 381.406 104.891 381.406 102.358V30.963C381.406 28.4241 379.334 26.3647 376.793 26.3647Z" fill="white"/>
<path d="M247.359 30.3653C248.534 30.3653 249.49 31.3181 249.49 32.4898C249.49 33.6616 248.534 34.6144 247.359 34.6144C246.183 34.6144 245.228 33.6616 245.228 32.4898C245.228 31.3181 246.177 30.3653 247.359 30.3653ZM247.359 29.4776C245.691 29.4776 244.337 30.8269 244.337 32.4898C244.337 34.1528 245.691 35.5021 247.359 35.5021C249.027 35.5021 250.38 34.1528 250.38 32.4898C250.374 30.8269 249.021 29.4776 247.359 29.4776Z" fill="white"/>
<path d="M255.617 30.3653C256.792 30.3653 257.748 31.3181 257.748 32.4898C257.748 33.6616 256.792 34.6144 255.617 34.6144C254.441 34.6144 253.485 33.6616 253.485 32.4898C253.485 31.3181 254.441 30.3653 255.617 30.3653ZM255.617 29.4776C253.948 29.4776 252.595 30.8269 252.595 32.4898C252.595 34.1528 253.948 35.5021 255.617 35.5021C257.285 35.5021 258.638 34.1528 258.638 32.4898C258.638 30.8269 257.279 29.4776 255.617 29.4776Z" fill="white"/>
<path d="M240.745 37.1473H380.515" stroke="white" stroke-width="1.5" stroke-miterlimit="10"/>
<path d="M361.429 93.747C358.811 89.3914 356.039 84.8641 351.741 82.2069C347.443 79.5498 341.15 79.4491 337.938 83.3787C335.095 86.8644 335.623 91.942 336.306 96.4101C333.142 92.38 329.431 88.7937 325.317 85.7696C322.141 83.4379 318.639 81.408 314.786 80.6801C310.785 79.9226 306.214 80.757 302.931 83.2248C298.449 86.5922 298.514 91.8947 298.959 97.0138C293.515 86.7342 287.472 76.5316 279.095 68.3115C276.929 66.1869 274.382 64.3405 271.449 63.5297C269.769 63.0622 267.869 62.9734 266.367 63.8493C264.076 65.1808 263.47 68.1872 263.405 70.8325C263.328 74.0223 263.696 77.2181 264.497 80.3073C263.037 78.739 261.108 77.585 259 77.1826C254.15 76.2593 249.365 79.9107 249.092 84.876C248.807 90.0364 251.954 94.9661 254.364 99.304C255.284 100.955 256.222 102.6 257.261 104.18C257.463 104.488 258.234 106.021 258.703 106.021H368.375C366.054 102.168 363.745 97.5937 361.429 93.747Z" fill="#B5AE6B"/>
<mask id="mask0_132_3922" style="mask-type:luminance" maskUnits="userSpaceOnUse" x="240" y="27" width="141" height="80">
<path d="M376.793 106.068H244.468C242.414 106.068 240.745 104.405 240.745 102.358V30.963C240.745 28.9153 242.414 27.2524 244.468 27.2524H376.793C378.847 27.2524 380.515 28.9153 380.515 30.963V102.358C380.515 104.405 378.847 106.068 376.793 106.068Z" fill="white"/>
</mask>
<g mask="url(#mask0_132_3922)">
<path d="M371.029 101.18L334.347 31.0991L323.922 30.4895L315.736 37.1473L294.679 52.4098L318.354 121.568L371.029 101.18Z" fill="white"/>
<path d="M302.111 51.4037C304.16 53.1022 307.009 53.7946 309.609 53.2265" stroke="black" stroke-miterlimit="10"/>
<path d="M312.174 52.4098C314.738 51.5517 317.012 49.8532 318.567 47.6517C320.123 45.4443 320.942 42.7339 320.883 40.0412" stroke="black" stroke-miterlimit="10"/>
<path d="M361.02 75.1231C354.673 63.0563 335.629 25.0331 330.601 26.9032C324.836 29.0515 318.348 34.5907 318.348 34.5907C318.348 34.5907 321.453 44.5034 321.69 45.4443C322.551 48.8708 323.441 52.2914 324.356 55.7061C326.629 64.2044 328.66 72.8269 331.468 81.1713C334.323 89.6459 337.487 98.0198 340.895 106.287C342.26 109.601 343.358 113.484 345.965 116.082C347.443 117.579 349.503 118.626 351.604 118.437C353.053 118.313 354.383 117.626 355.671 116.952C361.34 113.993 377.137 106.938 377.137 106.938C377.137 106.938 369.022 90.3442 361.02 75.1231Z" fill="#4C4139"/>
<path d="M328.66 121.497C327.116 115.898 324.474 110.744 322.521 105.299C319.963 98.1796 317.689 90.9538 315.053 83.864C311.028 73.04 305.317 58.0793 300.948 47.3914C300.948 47.3914 292.933 51.9719 291.319 53.0845C289.704 54.1971 290.054 56.8424 290.054 56.8424C296.43 80.5558 315.748 134.404 315.748 134.404C318.033 133.196 323.709 130.024 325.994 128.817C329.004 127.225 329.526 124.645 328.66 121.497Z" fill="#4C4139"/>
<path d="M292.904 52.0843C300.313 63.4291 306.077 72.6671 313.8 83.7989" stroke="black" stroke-miterlimit="10"/>
<path d="M328.404 29.7675C329.942 44.817 330.88 59.9257 331.212 75.0462" stroke="black" stroke-miterlimit="10"/>
</g>
<path d="M251.514 110.104C249.971 111.276 248.38 112.395 246.753 113.454C245.18 114.472 243.5 115.336 241.956 116.389C241.577 116.65 241.22 116.946 240.864 117.236C239.57 118.307 238.264 119.384 237.237 120.709C237.1 120.887 236.964 121.07 236.78 121.195C236.596 121.319 236.346 121.378 236.145 121.284C235.937 121.183 235.83 120.946 235.771 120.727C235.521 119.798 235.777 118.804 236.156 117.922C236.4 117.354 236.697 116.809 236.958 116.247C237.172 115.78 237.457 115.289 237.463 114.768C233.307 115.786 229.668 118.236 225.756 119.964C224.954 120.319 223.322 120.242 223.15 119.555C222.924 118.65 228.718 115.626 231.49 113.46C229.555 114.093 227.501 114.756 225.696 115.703C224.444 116.36 223.108 116.881 221.707 117.094C220.917 117.212 219.142 117.301 219.706 115.987C219.873 115.602 220.229 115.33 220.573 115.087C223.25 113.2 226.302 112.046 229.08 110.306C226.159 110.957 223.334 112.501 220.365 112.146C220.074 112.111 219.766 112.046 219.57 111.832C219.267 111.513 219.208 111.116 219.493 110.779C219.778 110.442 220.205 110.258 220.609 110.087C223.613 108.844 226.759 107.441 229.757 106.193C228.219 106.364 226.747 106.867 225.239 107.228C223.737 107.589 222.14 107.802 220.656 107.376C220.175 107.24 219.623 106.832 219.807 106.37C219.896 106.145 220.134 106.027 220.347 105.92C224.034 104.169 227.721 102.417 231.407 100.665C232.44 100.174 233.479 99.6828 234.53 99.233C236.815 98.2506 239.024 97.1321 241.315 96.1498C243.72 95.12 246.142 94.1258 248.57 93.1612" fill="#D16159"/>
<path d="M237.385 114.744C238.507 114.448 239.635 114.188 240.775 113.969" stroke="black" stroke-miterlimit="10"/>
<path d="M231.336 113.424C232.909 112.673 234.524 112.01 236.168 111.43" stroke="black" stroke-miterlimit="10"/>
<path d="M229.074 110.246C230.357 109.69 231.645 109.134 232.927 108.578" stroke="black" stroke-miterlimit="10"/>
<path d="M228.314 106.713C229.258 106.37 230.178 105.968 231.069 105.5" stroke="black" stroke-miterlimit="10"/>
<path d="M291.313 53.0845C288.57 54.9072 285.851 56.943 284.112 58.8309C281.316 61.8609 264.895 81.7039 264.895 81.7039C264.895 81.7039 248.071 91.8178 238.43 97.4044L248.973 114.525C248.973 114.525 268.517 107.518 278.484 100.541C287.543 94.1968 304.89 73.4069 304.89 73.4069" fill="#4C4139"/>
<path d="M298.187 81.7039L292.904 65.3229" stroke="black" stroke-miterlimit="10"/>
<path d="M247.305 92.1965L259 110.312" stroke="black" stroke-miterlimit="10"/>
<path d="M245.869 109.477L255.575 104.997" stroke="black" stroke-miterlimit="10"/>
<path d="M252.369 104.772C252.417 105.216 252.096 105.613 251.651 105.666C251.206 105.713 250.808 105.394 250.754 104.95C250.707 104.506 251.027 104.109 251.473 104.056C251.918 104.009 252.316 104.328 252.369 104.772Z" stroke="black" stroke-miterlimit="10"/>
<path d="M247.626 106.92C248.075 106.92 248.439 106.557 248.439 106.11C248.439 105.662 248.075 105.299 247.626 105.299C247.177 105.299 246.812 105.662 246.812 106.11C246.812 106.557 247.177 106.92 247.626 106.92Z" stroke="black" stroke-miterlimit="10"/>
<path d="M264.783 81.9466C264.771 81.84 264.753 81.7276 264.741 81.6211C266.979 80.9523 269.122 79.9463 271.063 78.6443" stroke="black" stroke-miterlimit="10"/>
<path d="M272.696 62.642C275.878 58.8308 279.766 55.6114 284.112 53.1969" stroke="black" stroke-miterlimit="10"/>
<path d="M275.26 53.9367C278.27 51.7056 281.559 49.8473 285.026 48.427" stroke="black" stroke-miterlimit="10"/>
<path d="M307.436 22.7725L309.787 29.7084L318.17 37.7923C318.17 37.7923 318.389 42.6037 313.646 47.6458C308.938 52.6465 303.845 49.291 303.845 49.291L297.76 40.3726" fill="#D16159"/>
<path d="M287.81 40.852C286.848 37.7746 285.632 31.1287 285.721 28.6017C285.798 26.4594 286.445 24.3644 287.858 22.7074C289.68 20.5769 293.96 21.3403 296.697 21.0799C301.191 20.6538 303.993 25.9623 305.264 29.7616C306.237 32.6851 306.7 35.6915 305.703 38.6741C304.088 43.521 298.906 48.4152 293.42 47.0895C290.446 46.3735 288.748 43.8346 287.81 40.852Z" fill="#D16159"/>
<path d="M311.675 21.9084C310.957 21.1391 309.965 20.5414 309.645 19.5353C309.467 18.979 309.194 17.322 309.01 16.7657C308.006 13.6765 305.406 12.6408 302.456 13.1498C302.141 10.1967 298.995 9.90673 296.412 9.87714C295.338 9.8653 294.24 9.75878 293.278 9.24983C292.257 8.70538 291.337 7.93604 290.143 7.82359C289.081 7.72299 287.988 8.07215 287.11 8.65211C284.046 10.6583 283.174 14.5405 279.422 15.7123C278.235 16.0851 277 16.1916 275.973 16.9669C275.207 17.5469 274.643 18.4109 274.536 19.3578C274.382 20.713 275.284 21.5415 276.21 22.3641C277.291 23.3288 277.926 24.5538 277.837 26.0155C277.783 26.9032 277.546 27.7673 277.403 28.6431C277 31.1405 277.801 33.4959 279.897 35.0109C280.336 35.3305 280.936 35.6264 282.556 35.9755C283.696 36.2241 286.659 35.798 286.659 35.798C286.659 35.798 285.928 31.5548 285.94 29.8977C285.952 28.3235 286.433 26.8618 287.359 25.6072C288.149 24.536 289.87 24.1573 291.147 24.2165C293.064 24.3052 294.904 25.3586 296.81 25.1337C297.606 25.0391 298.359 24.7076 298.983 24.2105C301.553 25.8676 304.207 28.3058 304.801 31.2766C304.83 31.4246 305.21 33.1881 305.074 33.2177C307.276 32.7561 310.048 32.5786 311.04 30.1818C311.378 29.3533 311.212 28.4833 311.467 27.6489C311.681 26.9565 312.304 26.4475 312.595 25.7788C313.147 24.4887 312.637 22.9322 311.675 21.9084Z" fill="#2C221D"/>
<path d="M302.521 30.9156C302.634 29.0041 305.281 27.6075 306.961 28.2821C310.998 29.9037 309.33 37.1591 305.501 37.7095C304.415 37.8634 302.889 37.384 302.556 36.1531" fill="#D16159"/>
<path d="M307.128 31.5548L303.489 34.5907" stroke="black" stroke-miterlimit="10"/>
<path d="M304.421 28.6313C303.542 29.1106 302.818 29.8741 302.367 30.7914" stroke="black" stroke-miterlimit="10"/>
<path d="M309.063 34.4013C308.475 35.9459 307.335 37.5556 305.62 37.7687C304.427 37.9166 303.097 37.3485 302.657 36.1057" stroke="black" stroke-miterlimit="10"/>
<path d="M301.173 45.3792C301.173 45.3792 303.132 44.1364 304.421 41.4023" stroke="black" stroke-miterlimit="10"/>
<path d="M291.081 33.5018C291.265 35.2062 291.449 36.9106 291.645 38.609C291.675 38.8458 291.705 39.0943 291.871 39.2659C292.518 39.9465 293.99 39.621 294.679 39.2127" stroke="black" stroke-miterlimit="10"/>
<path d="M296.288 39.9169L293.331 41.639C293.331 41.639 294.477 43.8228 295.617 43.3967C297.754 42.5978 296.288 39.9169 296.288 39.9169Z" fill="white"/>
<path d="M292.589 29.8208C292.892 29.1994 293.515 28.7851 294.174 28.5721C295.284 28.217 296.561 28.3886 297.528 29.0337" stroke="black" stroke-miterlimit="10"/>
<path d="M285.685 32.2945C285.792 31.6435 286.166 31.1523 286.599 30.8564C287.335 30.3593 288.285 30.3652 289.104 30.8683" stroke="black" stroke-miterlimit="10"/>
<path d="M296.495 32.3596C296.644 32.9928 296.371 33.6024 295.872 33.7208C295.379 33.8391 294.857 33.4189 294.703 32.7798C294.554 32.1466 294.827 31.537 295.326 31.4186C295.819 31.3062 296.341 31.7264 296.495 32.3596Z" fill="black"/>
<path d="M289.686 34.3836C289.835 35.0168 289.562 35.6264 289.063 35.7447C288.57 35.8631 288.048 35.4429 287.893 34.8038C287.745 34.1705 288.018 33.561 288.517 33.4426C289.009 33.3243 289.532 33.7444 289.686 34.3836Z" fill="black"/>
<path d="M287.887 25.045C286.617 25.7256 286.065 27.211 285.204 28.3709C283.815 30.2351 281.411 31.3003 279.089 31.0754" stroke="#635149" stroke-miterlimit="10"/>
<path d="M299.197 24.0448C300.348 22.9855 301.173 21.5829 301.536 20.062" stroke="#635149" stroke-miterlimit="10"/>
<path d="M407.022 180.688H307.532C305.477 180.688 303.809 179.025 303.809 176.978V106.512H410.75V176.978C410.744 179.025 409.076 180.688 407.022 180.688Z" fill="#F9D4BB"/>
<path d="M407.022 96.6114C409.076 96.6114 410.744 98.2744 410.744 100.322V176.972C410.744 179.02 409.076 180.682 407.022 180.682H307.532C305.477 180.682 303.809 179.02 303.809 176.972V100.328C303.809 98.2803 305.477 96.6173 307.532 96.6173H407.022M407.022 95.7237H307.532C304.985 95.7237 302.919 97.7891 302.919 100.322V176.972C302.919 179.511 304.991 181.57 307.532 181.57H407.022C409.569 181.57 411.635 179.505 411.635 176.972V100.328C411.635 97.7891 409.569 95.7237 407.022 95.7237Z" fill="white"/>
<path d="M312.548 101.855C312.548 103.026 311.592 103.979 310.417 103.979C309.241 103.979 308.285 103.026 308.285 101.855C308.285 100.683 309.241 99.7302 310.417 99.7302C311.598 99.7302 312.548 100.677 312.548 101.855Z" stroke="white" stroke-width="1.5" stroke-miterlimit="10"/>
<path d="M320.806 101.855C320.806 103.026 319.85 103.979 318.674 103.979C317.499 103.979 316.543 103.026 316.543 101.855C316.543 100.683 317.499 99.7302 318.674 99.7302C319.856 99.7302 320.806 100.677 320.806 101.855Z" stroke="white" stroke-width="1.5" stroke-miterlimit="10"/>
<path d="M303.809 106.512H410.744" stroke="white" stroke-width="1.5" stroke-miterlimit="10"/>
<path d="M383.181 152.128C380.729 151.702 380.04 158.265 381.216 160.449C377.992 155.851 373.908 148.808 370.684 144.216C367.069 139.061 362.747 132.64 356.223 130.959C350.346 129.444 347.283 134.552 347.188 139.759C347.099 144.748 347.603 149.779 348.529 154.673C349.539 160.011 350.85 166.095 353.765 170.752C350.666 165.799 345.709 164.124 340.165 164.585C337.582 164.799 334.899 165.668 333.272 167.675C330.666 170.882 331.646 176.717 332.756 180.694C335.178 180.694 337.6 180.694 340.028 180.694C352.916 180.694 403.982 180.718 403.982 180.718C403.982 180.718 391.13 153.513 383.181 152.128Z" fill="#EF9748"/>
<path d="M309.123 142.878C298.496 143.038 287.965 140.795 277.801 137.706C267.638 134.617 249.122 127.841 249.122 127.841L243.833 143.754C243.833 143.754 271.206 161.041 307.632 163.994" fill="#E27769"/>
<path d="M331.877 147.204C324.795 141.215 309.455 141.641 305.056 141.813C300.657 141.985 292.821 140.689 292.821 140.689L289.936 164.662C289.936 164.662 306.226 167.385 315.285 168.048" fill="#2C221D"/>
<path d="M311.925 152.951C313.035 156.075 312.53 160.674 312.542 163.994C312.554 166.953 313.599 168.598 314.032 171.521C314.554 175.019 316.549 177.516 318.645 180.682H363.756L361.382 155.75L355.243 146.903L342.278 143.458L313.005 151.134" fill="#2C221D"/>
<path d="M326.089 146.903C325.638 148.489 325.311 150.264 325.585 151.903C325.905 153.827 327.128 155.034 328.873 155.75" stroke="#6D574E" stroke-miterlimit="10"/>
<path d="M331.088 156.283C339.084 157.709 347.496 152.016 348.298 144.76" stroke="#6D574E" stroke-miterlimit="10"/>
<path d="M391.231 177.812C390.584 175.936 389.361 174.309 388.108 172.764C384.659 168.521 380.8 164.603 376.597 161.1L361.501 174.8L370.845 183.825L359.933 203.538L374.407 207.657C374.407 207.657 385.484 195.466 389.723 188.666C391.801 185.328 392.525 181.552 391.231 177.812Z" fill="#E27769"/>
<path d="M362.818 199.117C362.818 199.117 356.49 208.195 355.849 209.835C355.273 211.308 354.958 213.149 354.733 214.717C354.11 219.043 356.437 223.487 358.188 225.588C358.384 225.825 358.681 225.979 358.972 226.032C359.619 226.15 359.88 225.819 359.868 225.05C360.224 225.529 360.58 226.008 360.931 226.494C361.079 226.695 361.233 226.896 361.441 227.003C361.845 227.204 362.349 226.961 362.658 226.565C362.967 226.174 363.127 225.659 363.276 225.168C363.65 225.713 364.237 226.281 364.795 225.949C365.359 225.618 365.846 224.417 365.715 223.73C365.9 224.334 366.707 224.351 367.146 223.913C367.585 223.476 367.746 222.783 367.876 222.138C368.209 220.511 368.523 218.824 369.319 217.404C369.853 216.451 370.577 215.664 371.213 214.8C373.273 211.971 374.294 208.367 374.959 204.816" fill="#E27769"/>
<path d="M366.974 213.113C366.689 213.74 366.404 214.374 366.119 215.001C365.888 215.51 365.656 216.025 365.472 216.551C364.641 218.913 364.778 221.617 365.846 223.86" stroke="black" stroke-miterlimit="10"/>
<path d="M362.207 212.882C361.625 215.741 361.388 219.179 361.803 221.327C362.071 222.718 362.682 224.044 363.43 225.239" stroke="black" stroke-miterlimit="10"/>
<path d="M358.04 211.805C358.04 211.805 357.666 213.912 357.582 215.107C357.303 218.895 357.808 222.552 359.88 225.363" stroke="black" stroke-miterlimit="10"/>
<path d="M247.828 144.02C246.688 143.908 245.548 143.802 244.414 143.689C243.393 143.588 242.366 143.488 241.393 143.18C240.74 142.973 240.128 142.671 239.511 142.375C236.982 141.15 235.688 140.777 233.265 139.357C231.876 138.54 230.452 137.771 228.973 137.132C227.525 136.505 226.017 136.167 224.675 135.321C224.557 135.25 224.438 135.167 224.384 135.037C224.343 134.942 224.349 134.83 224.361 134.723C224.669 132.545 229.128 133.043 230.861 133.528C231.384 133.676 231.924 133.847 232.458 133.741C232.494 133.048 232.185 132.386 231.847 131.776C230.849 129.989 229.389 128.569 228.071 127.018C226.854 125.58 225.613 124.148 224.491 122.633C223.44 121.218 222.354 118.129 223.179 117.756C224.004 117.378 223.565 118.129 223.832 118.165C223.298 117.839 223.5 116.531 223.886 116.016C224.272 115.502 225.328 116.283 225.696 116.78C225.31 116.301 225.441 115.218 225.833 115.022C226.403 114.738 227.08 115.123 227.608 115.442C228.136 115.762 228.647 116.153 229.264 116.259C229.11 115.869 229.015 115.454 228.991 115.034C229.294 114.667 229.876 114.857 230.279 115.076C238.537 119.561 245.584 126.355 254.37 130.35" fill="#E27769"/>
<path d="M230.719 130.119C231.645 131.445 232.268 133.037 232.755 134.996" stroke="black" stroke-miterlimit="10"/>
<path d="M223.862 117.715C224.96 119.076 226.421 120.017 227.703 121.183C229.739 123.035 231.674 124.994 233.639 126.917" stroke="black" stroke-miterlimit="10"/>
<path d="M225.696 116.662C226.326 117.253 226.99 117.804 227.691 118.307C228.445 118.845 229.234 119.331 230.006 119.834C232.226 121.272 234.34 122.864 236.335 124.604" stroke="black" stroke-miterlimit="10"/>
<path d="M229.561 116.443C230.256 117.105 231.14 117.537 231.995 117.987C234.666 119.402 237.16 121.136 239.422 123.142" stroke="black" stroke-miterlimit="10"/>
<path d="M248.16 144.541C248.16 144.541 243.494 143.908 241.589 143.411" stroke="black" stroke-miterlimit="10"/>
<path d="M351.444 145.914C354.656 146.222 357.873 146.524 360.931 147.672C364.795 149.128 368.155 151.862 371.32 154.655C374.626 157.573 377.998 161.55 381.21 164.597L364.724 178.978L353.053 167.639" fill="#2C221D"/>
<path d="M370.845 183.825C370.845 183.825 373.285 180.712 375.754 178.984" stroke="black" stroke-miterlimit="10"/>
<path d="M359.927 174.321L377.12 160.449" stroke="#6D574E" stroke-miterlimit="10"/>
<path d="M296.24 165.663L298.734 141.476" stroke="#6D574E" stroke-miterlimit="10"/>
<path d="M311.925 161.094C311.925 161.094 313.064 166.254 313.379 168.468" stroke="#6D574E" stroke-miterlimit="10"/>
<path d="M352.471 167.604C356.045 170.356 364.73 178.984 364.73 178.984" stroke="#6D574E" stroke-miterlimit="10"/>
<path d="M334.133 128.758L341.815 131.865L341.364 136.972L345.235 144.435C345.235 144.435 343.347 151.471 334.863 153.223C327.704 154.702 327.864 150.098 327.864 150.098L324.457 140.286" fill="#E27769"/>
<path d="M317.903 132.688C319.037 128.859 319.648 126.509 321.102 123.728C322.331 121.372 324.474 117.964 326.938 116.863C330.108 115.442 333.735 117.182 336.935 118.342C342.183 120.242 343.394 126.432 342.783 131.35C342.314 135.132 340.099 136.996 337.404 139.801C333.878 143.47 325.205 146.595 320.728 144.31C317.374 142.612 316.698 136.741 317.903 132.688Z" fill="#E27769"/>
<path d="M372.78 155.827C374.846 155.152 375.861 152.726 375.748 151.01C375.564 148.24 374.264 146.808 374.05 145.098C373.914 143.985 374.246 142.855 374.151 141.736C373.997 139.89 372.649 138.28 370.987 137.446C369.325 136.611 367.396 136.463 365.537 136.629C364.119 136.753 362.688 137.055 361.275 136.86C360.094 136.694 358.989 136.179 357.962 135.581C356.146 134.516 354.484 133.137 353.314 131.386C351.325 128.415 350.898 124.68 349.366 121.449C348.595 119.822 347.52 118.342 346.232 117.082C343.109 114.016 340.135 112.88 335.706 112.732C332.673 112.631 328.452 113.034 326.137 115.857C326.137 115.857 321.649 115.969 319.511 118.224C316.971 120.899 317.155 124.769 319.375 127.853C320.521 125.976 321.5 123.994 323.174 122.55C322.978 122.852 323.073 123.278 323.323 123.544C323.572 123.805 323.94 123.923 324.302 123.953C325.264 124.029 326.166 123.556 327.009 123.089C326.724 123.846 326.606 124.669 326.659 125.473C326.671 125.645 326.695 125.823 326.807 125.953C326.938 126.101 327.146 126.142 327.342 126.154C328.666 126.266 330.025 125.633 330.785 124.55C330.423 125.533 330.108 126.764 330.838 127.509C331.355 128.042 332.222 128.077 332.91 127.799C333.599 127.521 334.139 126.988 334.667 126.468C334.412 126.716 334.745 128.131 334.81 128.456C334.946 129.172 335.166 129.865 335.409 130.545C336.157 132.646 337.084 134.694 338.283 136.582C339.524 138.529 341.293 140.008 342.557 141.902C343.359 143.103 344.035 144.423 345.116 145.388C346.44 146.571 348.268 147.465 350.007 147.82C351.765 148.175 353.575 148.015 355.35 147.956C361.898 147.743 366.873 151.016 372.78 155.827Z" fill="#893D33"/>
<path d="M357.482 113.49C357.102 112.56 356.55 111.708 355.843 111.057C353.284 108.708 347.71 108.862 345.804 112.051C344.76 113.803 345.264 116.058 346.06 117.94L347.627 121.366C349.812 122.55 352.572 122.597 354.798 121.497C356.656 120.573 357.968 118.875 358.063 116.774C358.111 115.691 357.909 114.543 357.482 113.49Z" fill="#893D33"/>
<path d="M334.727 133.356C335.261 131.776 337.808 131.196 339.066 132.149C342.094 134.433 339.037 140.156 335.689 139.754C334.739 139.641 333.563 138.89 333.563 137.777" fill="#E27769"/>
<path d="M338.461 134.942L334.697 136.67" stroke="black" stroke-miterlimit="10"/>
<path d="M336.846 131.865C335.997 132.072 335.214 132.545 334.626 133.214" stroke="black" stroke-miterlimit="10"/>
<path d="M339.44 137.777C338.591 138.943 337.262 140.038 335.772 139.831C334.733 139.688 333.741 138.901 333.658 137.759" stroke="black" stroke-miterlimit="10"/>
<path d="M326.202 145.299C326.202 145.299 329.728 145.133 333.302 142.724" stroke="black" stroke-miterlimit="10"/>
<path d="M322.492 130.764C321.934 131.735 321.352 132.729 320.455 133.398C320.242 133.557 320.01 133.699 319.832 133.901C319.583 134.191 319.476 134.599 319.553 134.972C319.63 135.345 319.885 135.682 320.23 135.854" stroke="black" stroke-miterlimit="10"/>
<path d="M320.907 138.114C321.471 138.582 322.314 138.765 322.984 138.41C323.827 137.96 323.845 136.883 323.875 136.049" stroke="black" stroke-miterlimit="10"/>
<path d="M326.612 128.681C327.229 128.551 327.876 128.521 328.488 128.669C329.099 128.811 329.681 129.137 330.073 129.628C330.571 130.255 330.726 131.072 330.862 131.859" stroke="black" stroke-miterlimit="10"/>
<path d="M319.743 126.343C320.331 125.923 321.15 125.894 321.803 126.213C322.45 126.527 322.925 127.148 323.133 127.841" stroke="black" stroke-miterlimit="10"/>
<path d="M327.645 132.22C327.401 132.723 326.914 132.989 326.552 132.818C326.19 132.646 326.089 132.096 326.333 131.593C326.576 131.09 327.063 130.823 327.425 130.995C327.787 131.172 327.888 131.717 327.645 132.22Z" fill="black"/>
<path d="M320.978 130.036C320.734 130.539 320.248 130.806 319.885 130.634C319.523 130.462 319.422 129.912 319.666 129.409C319.909 128.906 320.396 128.64 320.758 128.811C321.12 128.983 321.221 129.533 320.978 130.036Z" fill="black"/>
<path d="M390.144 198.667C393.76 194.998 396.324 190.311 397.458 185.293" stroke="black" stroke-miterlimit="10"/>
<path d="M398.426 196.626C399.518 194.471 400.219 192.122 400.474 189.725" stroke="black" stroke-miterlimit="10"/>
<path d="M327.615 81.6743C327.615 81.6743 321.435 84.4972 317.285 86.3732C314.94 87.4325 311.004 90.3324 309.663 92.5398C307.953 95.3449 307.508 98.8188 307.704 101.689C307.834 103.589 308.701 105.737 309.977 107.802C310.814 109.163 311.711 110.59 312.494 110.406C313.278 110.223 312.993 108.311 312.993 108.311C312.993 108.43 313.919 110.241 314.133 110.383C314.418 110.578 314.756 110.744 315.053 110.59C315.451 110.383 315.724 110.152 315.92 109.743C316.086 109.4 316.098 109.039 316.128 108.654C316.157 108.305 316.128 107.465 316.11 107.11C316.282 107.495 316.448 108.684 316.775 108.619C317.101 108.554 317.635 108.282 317.932 107.927C318.502 107.234 318.805 106.364 319.096 105.512C319.096 105.719 319.102 105.926 319.179 106.122C319.256 106.311 319.422 106.483 319.63 106.494C319.891 106.512 320.948 105.743 321.102 105.536C321.767 104.636 322.017 103.429 322.497 102.417C322.901 101.571 323.293 100.973 323.869 100.239C324.397 99.5704 325.205 98.7418 325.976 98.3394C327.544 97.5168 328.511 97.2919 330.114 96.5403C331.468 95.9012 332.791 95.1141 333.729 93.9246" fill="#D16159"/>
<path d="M318.965 105.879C319.084 104.53 319.25 103.186 319.458 101.849C319.6 100.955 319.761 100.062 320.117 99.233C320.699 97.8778 321.761 96.7889 322.8 95.7355" stroke="black" stroke-miterlimit="10"/>
<path d="M316.258 107.412C315.73 105.169 315.789 102.831 315.849 100.523C315.866 99.884 315.884 99.2448 316.033 98.6235C316.3 97.5523 316.947 96.6291 317.582 95.7296" stroke="black" stroke-miterlimit="10"/>
<path d="M313.064 108.761C312.34 106.524 311.616 104.269 311.414 101.926C311.378 101.476 311.355 101.026 311.372 100.576C311.432 98.8957 311.978 97.2564 312.809 95.7947" stroke="black" stroke-miterlimit="10"/>
<path d="M332.875 48.2791L343.75 68.7257L319.482 85.2902L335.451 97.8305C335.451 97.8305 362.682 88.9949 370.097 84.6097C375.92 81.1713 378.42 72.2292 367.2 57.6532C355.98 43.0771 348.238 34.4309 345.935 31.9986C340.984 26.7671 335.095 24.5952 329.603 27.3471" fill="#4C4139"/>
<path d="M332.875 48.2791L343.744 68.7257L319.482 85.2961" stroke="black" stroke-miterlimit="10"/>
<path d="M333.498 92.1965C333.498 92.6404 333.136 93.0073 332.685 93.0073C332.239 93.0073 331.871 92.6463 331.871 92.1965C331.871 91.7527 332.233 91.3858 332.685 91.3858C333.136 91.3858 333.498 91.7468 333.498 92.1965Z" stroke="black" stroke-miterlimit="10"/>
<path d="M337.695 90.4862C338.144 90.4862 338.508 90.1233 338.508 89.6755C338.508 89.2277 338.144 88.8647 337.695 88.8647C337.246 88.8647 336.882 89.2277 336.882 89.6755C336.882 90.1233 337.246 90.4862 337.695 90.4862Z" stroke="black" stroke-miterlimit="10"/>
<path d="M328.048 92.019C328.137 92.09 338.508 86.8763 338.508 86.8763" stroke="black" stroke-miterlimit="10"/>
<path d="M328.612 79.0586C328.713 78.9876 347.259 93.8299 347.259 93.8299" stroke="black" stroke-miterlimit="10"/>
<path d="M343.151 68.9329C345.424 68.0452 347.716 67.0924 350.15 66.7255C352.75 66.3349 355.392 66.471 358.01 66.6071" stroke="black" stroke-miterlimit="10"/>
<path d="M335.451 97.8305L366.879 86.4442" stroke="black" stroke-miterlimit="10"/>
<path d="M340.948 22.2458C334.667 16.3633 328.25 10.5104 320.829 6.14881C307.08 -1.92334 287.893 -0.674646 278.413 5.19601C271.135 9.70553 267.294 15.3217 262.622 22.2694C256.768 30.9748 250.63 40.3371 240.989 44.5034C236.287 46.5332 231.116 47.1428 226.094 48.1252C221.066 49.1076 215.925 50.5752 212.072 53.9426C208.219 57.3099 206.029 63.0267 208.106 67.696C209.739 71.3593 213.764 73.6673 217.789 73.7797C221.814 73.8922 225.732 72.0339 228.629 69.2465C236.02 62.139 239.457 43.4381 225.809 38.0528" stroke="#ED725A" stroke-width="1.5" stroke-miterlimit="10"/>
<path d="M42.7085 149.015C43.5752 153.122 45.7717 157.496 48.74 160.863C52.6047 165.254 60.4825 168.095 63.8723 161.709C65.4454 158.739 66.235 153.939 62.4772 151.814C62.21 151.661 61.9132 151.53 61.5867 151.524C60.8624 151.519 60.3816 152.146 60.1619 152.72C59.1586 155.413 60.7734 158.324 62.958 160.484C63.9732 161.49 65.1486 162.425 66.609 162.923C68.0694 163.42 69.8563 163.414 71.1267 162.644C73.1095 161.443 73.626 158.786 73.4835 156.886" stroke="#8F96DB" stroke-width="1.5" stroke-miterlimit="10"/>
<path d="M34.4092 40.8934C37.9058 36.5022 42.6075 32.5312 47.897 30.5014C50.7584 29.4006 54.4984 29.0041 57.5023 29.6018C59.0043 29.8977 60.7496 30.3712 61.6698 31.7205C62.6374 33.1408 61.5095 35.7743 63.421 36.5792C63.9138 36.7863 64.4718 36.733 65.0002 36.6561C66.6624 36.4075 68.2712 35.9104 69.9334 35.6678C71.5956 35.4251 73.3588 35.4547 74.8548 36.2182C76.3508 36.9816 77.4847 38.609 77.265 40.2661C77.176 40.9171 76.897 41.5562 77.0157 42.2013C77.2175 43.2783 78.4405 43.8405 79.5387 43.9471C81.8065 44.1601 83.9615 44.0891 85.8849 45.5331C87.2978 46.5924 88.1111 48.4921 87.3868 50.013" stroke="#FFDD99" stroke-width="1.5" stroke-miterlimit="10"/>
<path d="M182.478 36.7153C183.357 34.7624 184.348 32.8035 185.886 31.3062C187.423 29.809 189.62 28.8325 191.727 29.2409C192.82 29.4539 193.847 30.0161 194.957 29.9924C196.483 29.9629 197.795 28.7911 198.483 27.4299C199.172 26.0688 199.368 24.5242 199.647 23.027C200.092 20.6361 200.816 18.192 202.455 16.387C204.099 14.5879 206.872 13.6233 209.062 14.6885" stroke="#FFDD99" stroke-width="1.5" stroke-miterlimit="10"/>
<path d="M79.0415 236.008C79.6517 232.378 77.195 228.943 73.5542 228.334C69.9133 227.726 66.4672 230.175 65.8569 233.805C65.2467 237.434 67.7034 240.869 71.3443 241.478C74.9851 242.086 78.4312 239.637 79.0415 236.008Z" stroke="#909DF4" stroke-width="1.5" stroke-miterlimit="10"/>
<path d="M186.212 13.209C189.206 13.209 191.632 10.7899 191.632 7.80584C191.632 4.82177 189.206 2.40271 186.212 2.40271C183.219 2.40271 180.792 4.82177 180.792 7.80584C180.792 10.7899 183.219 13.209 186.212 13.209Z" stroke="#8F96DB" stroke-width="1.5" stroke-miterlimit="10"/>
<path d="M379.096 215.107L382.688 238.703L396.811 228.334L379.096 215.107Z" fill="#FFDD99"/>
<path d="M23.575 189.222L33.1269 178.422L16.8074 179.008L23.575 189.222Z" stroke="#8F96DB" stroke-width="1.5" stroke-miterlimit="10"/>
<path d="M38.8438 215.966C40.9815 215.966 42.7144 214.238 42.7144 212.107C42.7144 209.976 40.9815 208.249 38.8438 208.249C36.7061 208.249 34.9731 209.976 34.9731 212.107C34.9731 214.238 36.7061 215.966 38.8438 215.966Z" fill="#FFDD99"/>
<path d="M47.1074 51.1789L37.8108 71.4066L66.2231 67.2995L47.1074 51.1789Z" fill="#ED725A"/>
<path d="M28.8764 101.577C28.8764 102.867 27.8256 103.914 26.5315 103.914C25.2373 103.914 24.1865 102.867 24.1865 101.577C24.1865 100.286 25.2373 99.2389 26.5315 99.2389C27.8256 99.233 28.8764 100.28 28.8764 101.577Z" fill="#909DF4"/>
<path d="M347.461 9.32086C347.461 10.611 346.41 11.6585 345.116 11.6585C343.822 11.6585 342.771 10.611 342.771 9.32086C342.771 8.03073 343.822 6.98325 345.116 6.98325C346.41 6.98325 347.461 8.03073 347.461 9.32086Z" fill="#ED725A"/>
<path d="M390.625 213.64C392.377 212.924 394.638 213.06 396.223 214.125C397.624 215.06 398.355 216.824 400.041 217.368C402.516 218.173 404.695 215.877 407.081 215.723C409.147 215.587 410.809 216.978 411.611 218.777C412.3 220.315 412.436 222.032 412.555 223.712" stroke="#8F96DB" stroke-width="1.5" stroke-miterlimit="10"/>
<path d="M372.459 53.1732C373.32 51.0487 375.576 49.5632 377.873 49.6224C379.043 49.652 380.23 50.0367 381.364 49.7467C384.89 48.8353 384.594 42.722 388.078 41.6627C390.489 40.9289 393.113 43.2606 395.475 42.3729C397.506 41.6154 398.004 39.0647 398.651 36.9934C400.391 31.4068 405.538 27.0334 411.35 26.2049" stroke="#8F96DB" stroke-width="1.5" stroke-miterlimit="10"/>
<path d="M345.602 175.978C347.657 175.978 349.325 177.641 349.325 179.688V245.402C349.325 247.449 347.657 249.112 345.602 249.112H238.828C236.774 249.112 235.106 247.449 235.106 245.402V179.688C235.106 177.641 236.774 175.978 238.828 175.978H345.602ZM345.602 175.09H238.828C236.281 175.09 234.215 177.155 234.215 179.688V245.402C234.215 247.941 236.287 250 238.828 250H345.602C348.149 250 350.215 247.935 350.215 245.402V179.688C350.215 177.149 348.149 175.09 345.602 175.09Z" fill="white"/>
<path d="M345.603 249.112H238.828C236.774 249.112 235.106 247.449 235.106 245.402V185.873H349.325V245.402C349.325 247.449 347.657 249.112 345.603 249.112Z" fill="#C5B3DD"/>
<path d="M243.85 181.215C243.85 182.387 242.894 183.34 241.719 183.34C240.544 183.34 239.588 182.387 239.588 181.215C239.588 180.043 240.544 179.091 241.719 179.091C242.894 179.091 243.85 180.043 243.85 181.215Z" stroke="white" stroke-width="1.5" stroke-miterlimit="10"/>
<path d="M252.108 181.215C252.108 182.387 251.152 183.34 249.977 183.34C248.801 183.34 247.845 182.387 247.845 181.215C247.845 180.043 248.801 179.091 249.977 179.091C251.152 179.091 252.108 180.043 252.108 181.215Z" stroke="white" stroke-width="1.5" stroke-miterlimit="10"/>
<path d="M235.106 185.873H349.325" stroke="white" stroke-width="1.5" stroke-miterlimit="10"/>
<path d="M333.302 234.897C327.621 228.624 321.019 225.523 317.659 226.281C312.72 227.393 313.616 239.957 313.759 245.005C311.372 242.253 308.416 239.999 305.133 238.424C302.658 237.235 299.844 236.424 297.172 237.075C294.507 237.726 292.156 240.223 292.465 242.946C286.249 233.731 277.671 226.109 267.769 221.02C261.512 217.8 244.497 211.107 241.583 218.055C238.389 225.671 256.513 249.118 256.513 249.118H344.35C344.35 249.112 338.431 240.567 333.302 234.897Z" fill="#A29DCE"/>
<path d="M223.547 167.9C220.324 164.532 217.225 158.022 216.352 154.555C215.586 151.501 214.904 148.376 213.455 145.553C213.063 144.79 211.389 143.038 211.995 142.121C213.218 140.28 216.192 142.707 216.97 143.801C217.249 144.192 218.27 145.849 218.78 145.944C219.291 146.039 219.51 144.062 219.57 143.216C219.807 139.955 219.825 136.398 219.546 133.096C219.261 129.699 219.748 126.716 220.816 126.556C221.903 126.397 221.843 127.036 222.039 127.249C222.212 126.172 223.197 124.893 223.832 125.254C224.218 125.473 224.361 125.953 224.414 126.397C224.467 126.835 224.729 127.669 224.729 127.669C224.729 127.669 225.346 125.379 226.468 126.675C227.038 127.332 227.899 130.811 228.451 131.918C228.397 131.19 228.207 130.782 228.445 129.924C228.576 129.462 228.837 129.078 229.341 129.32C229.638 129.462 229.721 129.758 229.828 130.042C230.392 131.605 231.775 134.114 232.28 135.694C232.802 137.339 233.331 138.99 233.853 140.635C234.839 143.73 235.806 146.991 236.513 150.223C237.166 153.211 239.57 160.579 239.57 160.579" fill="#A04B4B"/>
<path d="M222.016 127.426C222.301 129.196 222.954 131.457 223.31 133.469C223.82 136.351 224.052 139.02 224.491 141.553" stroke="black" stroke-miterlimit="10"/>
<path d="M224.889 127.722C225.233 129.237 225.827 131.344 226.219 133.072C226.884 135.96 227.37 138.546 227.94 141.079" stroke="black" stroke-miterlimit="10"/>
<path d="M228.451 131.865C229.294 134.623 230.517 137.789 231.484 141.28" stroke="black" stroke-miterlimit="10"/>
<path d="M219.107 145.766C218.893 147.222 218.78 148.773 217.807 150.045" stroke="black" stroke-miterlimit="10"/>
<path d="M332.685 249.112C331.545 246.07 330.322 242.875 328.606 240.081C326.891 237.294 324.647 234.737 321.779 232.992C320.497 232.205 319.102 231.595 317.719 230.985C313.99 229.346 310.262 227.701 306.534 226.062L288.238 218.948C287.104 217.901 285.976 216.853 284.842 215.806C282.657 213.776 280.479 211.746 278.318 209.692C278.235 209.616 278.152 209.533 278.069 209.456C261.506 193.696 249.193 176.096 238.43 155.549L219.107 164C219.107 164 227.465 192.394 235.409 204.443C245.898 220.363 258.033 234.85 263.518 239.43C264.498 242.703 265.62 245.94 266.884 249.112H332.685Z" fill="#FCDDD2"/>
<path d="M222.218 173.758L242.948 163.822" stroke="black" stroke-miterlimit="10"/>
<path d="M223.256 162.183L230.244 177.297" stroke="black" stroke-miterlimit="10"/>
<path d="M229.822 165.361C229.822 166.112 229.211 166.728 228.451 166.728C227.697 166.728 227.079 166.118 227.079 165.361C227.079 164.603 227.691 163.994 228.451 163.994C229.211 163.994 229.822 164.603 229.822 165.361Z" stroke="#D8A798" stroke-miterlimit="10"/>
<path d="M304.522 248.71C305.478 247.473 306.427 246.236 307.383 244.999C308.41 243.662 309.443 242.324 310.601 241.105C313.99 237.537 318.562 234.998 323.459 234.471" stroke="#D8A798" stroke-miterlimit="10"/>
<path d="M262.942 237.655C262.942 232.719 264.598 227.819 267.448 223.795C271.04 218.723 276.317 215.084 282.699 214.906" stroke="#D8A798" stroke-miterlimit="10"/>
<path d="M263.429 239.235C262.515 236.525 261.992 233.477 260.544 230.985" stroke="black" stroke-miterlimit="10"/>
<path d="M282.414 216.924L281.209 232.08C281.209 232.08 286.32 237.27 293.343 233.891C300.372 230.512 305.495 224.085 305.495 224.085L303.198 214.693" fill="#A04B4B"/>
<path d="M310.339 198.046C309.627 195.833 308.297 193.809 306.504 192.347C302.195 188.832 297.457 188.926 292.827 191.637C288.808 193.992 283.287 197.709 280.217 201.265C277.053 204.934 274.934 209.503 278.163 213.794C283.364 220.7 297.956 218.362 304.919 212.693C307.751 210.385 310.429 206.639 310.85 202.952C311.04 201.313 310.844 199.632 310.339 198.046Z" fill="#A04B4B"/>
<path d="M291.936 193.566C289.615 194.744 287.08 195.057 284.539 195.353C283.316 195.495 281.702 195.904 281.921 197.501C282.064 198.531 282.96 199.419 283.714 200.046" fill="#A04B4B"/>
<path d="M281.82 209.296C281.82 209.296 282.242 208.349 282.455 207.876C282.859 206.964 281.541 206.349 280.918 206.035C280.461 205.804 280.223 205.603 279.766 205.899C279.648 205.976 278.989 206.615 278.846 206.497C278.84 206.491 277.623 205.076 277.623 205.076C276.679 206.55 276.068 209.349 276.204 211.006C276.341 212.663 276.982 214.314 278.175 215.486C278.65 215.954 279.404 216.628 279.974 216.978C284.765 219.848 290.737 219.629 295.949 217.611C297.558 216.989 299.125 216.155 300.295 214.889C284.337 214.664 281.82 209.296 281.82 209.296Z" fill="#1E1611"/>
<path d="M300.841 208.237C300.77 208.219 300.699 208.207 300.627 208.195C299.565 208.018 298.508 208.178 297.457 207.834C296.614 207.556 295.825 207.035 295.362 206.278C294.815 205.384 295.563 204.863 296.294 204.461C297.374 203.869 298.425 203.2 299.303 202.336C300.746 200.916 301.512 198.88 300.883 196.898C300.2 194.75 298.081 193.489 296.43 192.122C294.845 190.808 292.815 188.766 293.486 186.488C294.156 184.204 296.371 183.369 298.555 183.695C299.731 183.866 300.912 184.198 302.082 184.014C302.675 183.92 303.245 183.701 303.833 183.57C305.638 183.168 307.721 183.742 308.796 185.245C309.574 186.328 309.87 187.861 311.064 188.453C311.64 188.737 312.31 188.731 312.934 188.879C314.204 189.175 315.279 190.139 315.795 191.335C316.312 192.53 316.288 193.927 315.825 195.14C314.994 197.324 313.741 198.419 314.768 200.827C317.149 206.426 318.146 213.297 312.465 217.321C310.969 218.38 309.099 218.925 307.852 220.268C307.074 221.102 306.445 222.298 305.305 222.422C304.539 222.505 303.821 222.032 303.299 221.469C302.83 220.966 302.462 220.38 302.094 219.795C301.589 218.99 301.078 218.143 300.972 217.197C300.823 215.847 301.524 214.569 302.165 213.368C302.764 212.237 303.975 209.894 302.545 208.959C302.07 208.633 301.441 208.367 300.841 208.237Z" fill="#1E1611"/>
<path d="M297.333 196.01C296.976 194.927 296.323 193.85 295.314 194.341C295.065 194.465 294.916 194.738 294.875 195.016C294.833 195.294 294.887 195.572 294.934 195.844C295.172 197.129 295.421 198.448 296.121 199.555C296.264 199.78 296.43 199.999 296.668 200.117C298.247 200.904 297.54 196.626 297.333 196.01Z" fill="#1E1611"/>
<path d="M287.359 203.337L282.889 202.325C282.889 202.325 282.45 206.142 284.349 206.52C286.249 206.905 287.359 203.337 287.359 203.337Z" fill="white"/>
<path d="M282.622 198.857C282.996 199.336 283.494 199.715 284.064 199.934" stroke="black" stroke-miterlimit="10"/>
<path d="M287.555 194.933C289.235 194.69 290.862 194.128 292.334 193.294" stroke="black" stroke-miterlimit="10"/>
<path d="M299.802 208.391C301.452 207.154 304.439 208.337 305.056 210.178C306.534 214.604 299.416 218.297 296.294 215.551C295.409 214.776 294.744 213.196 295.522 212.066" fill="#A04B4B"/>
<path d="M302.491 212.592L297.457 211.74" stroke="black" stroke-miterlimit="10"/>
<path d="M303.002 208.349C301.999 207.97 300.865 207.905 299.802 208.178" stroke="black" stroke-miterlimit="10"/>
<path d="M295.635 212.113C295.071 213.072 295.237 214.249 295.854 215.137C296.97 216.759 299.66 216.765 301.286 216.072" stroke="black" stroke-miterlimit="10"/>
<path d="M292.654 199.679C292.019 200.141 291.236 200.141 290.903 199.691C290.571 199.235 290.82 198.496 291.461 198.034C292.096 197.572 292.88 197.572 293.213 198.022C293.539 198.478 293.29 199.218 292.654 199.679Z" fill="black"/>
<path d="M307.971 223.588C291.936 225.482 282.117 232.802 282.117 232.802L284.907 245.502C299.25 231.909 313.207 228.837 313.349 228.695L307.971 223.588Z" fill="#FCDDD2"/>
<path d="M281.654 224.695L275.617 228.559C275.617 228.559 274.578 239.365 276.561 245.106L282.123 232.808L281.654 224.695Z" fill="#FCDDD2"/>
<path d="M282.117 232.808L284.907 245.508C299.25 231.915 313.207 228.843 313.349 228.701" stroke="black" stroke-miterlimit="10"/>
<path d="M281.654 224.695L275.617 228.559C275.617 228.559 274.578 239.365 276.561 245.106L282.123 232.808" stroke="black" stroke-miterlimit="10"/>
<path d="M222.134 190.347C223.755 196.093 226.159 201.614 229.252 206.722" stroke="black" stroke-miterlimit="10"/>
<path d="M222.663 200.212C223.678 203.905 224.901 207.544 226.32 211.101" stroke="black" stroke-miterlimit="10"/>
<path d="M321.684 207.953C321.773 210.586 320.746 213.172 319.173 215.291C317.6 217.41 315.51 219.09 313.302 220.534" stroke="black" stroke-miterlimit="10"/>
<path d="M319.885 220.44C322.094 219.191 323.982 217.374 325.317 215.214" stroke="black" stroke-miterlimit="10"/>
</g>
<defs>
<clipPath id="clip0_132_3922">
<rect width="397" height="250" fill="white" transform="translate(16)"/>
</clipPath>
</defs>
</svg>
