<svg width="8" height="13" viewBox="0 0 8 13" fill="none" xmlns="http://www.w3.org/2000/svg">
<path id="?" d="M4.19214 0.720215C5.28014 0.720215 6.14947 1.01888 6.80014 1.61621C7.46147 2.21355 7.79214 3.02955 7.79214 4.06421C7.79214 5.14155 7.4508 5.95222 6.76814 6.49622C6.08547 7.04022 5.1788 7.31222 4.04814 7.31222L3.98414 8.57622H2.40014L2.32014 6.06421H2.84814C3.8828 6.06421 4.67214 5.92555 5.21614 5.64822C5.7708 5.37088 6.04814 4.84288 6.04814 4.06421C6.04814 3.49888 5.8828 3.05622 5.55214 2.73621C5.23214 2.41621 4.78414 2.25622 4.20814 2.25622C3.63214 2.25622 3.1788 2.41088 2.84814 2.72021C2.51747 3.02955 2.35214 3.46155 2.35214 4.01622H0.640137C0.640137 3.37622 0.784137 2.80555 1.07214 2.30422C1.36014 1.80288 1.7708 1.41355 2.30414 1.13622C2.84814 0.858882 3.47747 0.720215 4.19214 0.720215ZM3.16814 12.1122C2.83747 12.1122 2.56014 12.0002 2.33614 11.7762C2.11214 11.5522 2.00014 11.2749 2.00014 10.9442C2.00014 10.6135 2.11214 10.3362 2.33614 10.1122C2.56014 9.88822 2.83747 9.77622 3.16814 9.77622C3.48814 9.77622 3.76014 9.88822 3.98414 10.1122C4.20814 10.3362 4.32014 10.6135 4.32014 10.9442C4.32014 11.2749 4.20814 11.5522 3.98414 11.7762C3.76014 12.0002 3.48814 12.1122 3.16814 12.1122Z" fill="black"/>
</svg>
